<?xml version="1.0" encoding="utf-8" standalone="no"?>
<!DOCTYPE svg PUBLIC "-//W3C//DTD SVG 1.1//EN"
  "http://www.w3.org/Graphics/SVG/1.1/DTD/svg11.dtd">
<svg xmlns:xlink="http://www.w3.org/1999/xlink" width="360pt" height="432pt" viewBox="0 0 360 432" xmlns="http://www.w3.org/2000/svg" version="1.1">
 <metadata>
  <rdf:RDF xmlns:dc="http://purl.org/dc/elements/1.1/" xmlns:cc="http://creativecommons.org/ns#" xmlns:rdf="http://www.w3.org/1999/02/22-rdf-syntax-ns#">
   <cc:Work>
    <dc:type rdf:resource="http://purl.org/dc/dcmitype/StillImage"/>
    <dc:date>2022-05-31T20:05:24.722122</dc:date>
    <dc:format>image/svg+xml</dc:format>
    <dc:creator>
     <cc:Agent>
      <dc:title>Matplotlib v3.5.2, https://matplotlib.org/</dc:title>
     </cc:Agent>
    </dc:creator>
   </cc:Work>
  </rdf:RDF>
 </metadata>
 <defs>
  <style type="text/css">*{stroke-linejoin: round; stroke-linecap: butt}</style>
 </defs>
 <g id="figure_1">
  <g id="patch_1">
   <path d="M 0 432 
L 360 432 
L 360 0 
L 0 0 
L 0 432 
z
" style="fill: none"/>
  </g>
  <g id="axes_1">
   <g id="patch_2">
    <path d="M 45 378 
L 324 378 
L 324 51.84 
L 45 51.84 
z
" style="fill: #ffffff"/>
   </g>
   <g id="PolyCollection_1">
    <path d="M 57.681818 74.69267 
L 57.681818 103.668104 
L 67.437063 187.869304 
L 77.192308 218.018267 
L 86.947552 235.533344 
L 96.702797 236.56708 
L 106.458042 229.110771 
L 116.213287 247.529791 
L 125.968531 264.789293 
L 135.723776 280.870735 
L 145.479021 280.888948 
L 155.234266 284.011821 
L 164.98951 283.407668 
L 174.744755 282.180543 
L 184.5 283.387098 
L 194.255245 282.835872 
L 204.01049 283.330391 
L 213.765734 283.693336 
L 213.765734 266.778735 
L 213.765734 266.778735 
L 204.01049 265.896962 
L 194.255245 265.872156 
L 184.5 265.941662 
L 174.744755 263.876156 
L 164.98951 265.28396 
L 155.234266 265.552408 
L 145.479021 263.776386 
L 135.723776 254.161995 
L 125.968531 224.469101 
L 116.213287 224.587863 
L 106.458042 212.109698 
L 96.702797 232.433589 
L 86.947552 217.554841 
L 77.192308 177.020508 
L 67.437063 169.046318 
L 57.681818 74.69267 
z
" clip-path="url(#p5de29d5d13)" style="fill: #1f77b4; fill-opacity: 0.2"/>
   </g>
   <g id="PolyCollection_2">
    <path d="M 57.681818 160.131118 
L 57.681818 186.030173 
L 67.437063 267.50292 
L 77.192308 299.591086 
L 86.947552 316.294614 
L 96.702797 314.231148 
L 106.458042 324.098731 
L 116.213287 316.500423 
L 125.968531 320.461852 
L 135.723776 326.700595 
L 145.479021 347.149519 
L 155.234266 349.798688 
L 164.98951 350.500304 
L 174.744755 350.102281 
L 184.5 349.764826 
L 194.255245 349.793274 
L 204.01049 350.696772 
L 213.765734 350.749874 
L 223.520979 350.72273 
L 233.276224 350.247038 
L 243.031469 350.869301 
L 243.031469 336.088229 
L 243.031469 336.088229 
L 233.276224 335.176349 
L 223.520979 335.187684 
L 213.765734 335.301996 
L 204.01049 334.908699 
L 194.255245 334.156079 
L 184.5 334.46243 
L 174.744755 336.496515 
L 164.98951 336.197936 
L 155.234266 335.910906 
L 145.479021 333.908983 
L 135.723776 300.459806 
L 125.968531 309.120626 
L 116.213287 300.203244 
L 106.458042 304.13905 
L 96.702797 291.23594 
L 86.947552 303.059723 
L 77.192308 287.76086 
L 67.437063 249.654763 
L 57.681818 160.131118 
z
" clip-path="url(#p5de29d5d13)" style="fill: #ff7f0e; fill-opacity: 0.2"/>
   </g>
   <g id="PolyCollection_3">
    <path d="M 57.681818 -116.329598 
L 57.681818 -84.433474 
L 67.437063 86.49182 
L 77.192308 151.339528 
L 86.947552 193.098103 
L 96.702797 205.835459 
L 106.458042 205.478239 
L 116.213287 241.406356 
L 125.968531 223.849759 
L 135.723776 220.724276 
L 145.479021 206.464731 
L 155.234266 269.443747 
L 164.98951 274.245309 
L 174.744755 276.028245 
L 184.5 278.06077 
L 194.255245 275.909831 
L 204.01049 278.551421 
L 213.765734 278.079181 
L 223.520979 278.654135 
L 233.276224 278.787256 
L 243.031469 278.767928 
L 252.786713 278.910802 
L 262.541958 276.866701 
L 272.297203 278.003416 
L 272.297203 267.873223 
L 272.297203 267.873223 
L 262.541958 266.567077 
L 252.786713 268.79247 
L 243.031469 267.732402 
L 233.276224 266.662622 
L 223.520979 267.016583 
L 213.765734 268.022168 
L 204.01049 267.152239 
L 194.255245 262.597712 
L 184.5 266.655104 
L 174.744755 264.482953 
L 164.98951 264.118308 
L 155.234266 257.177349 
L 145.479021 194.774224 
L 135.723776 184.328801 
L 125.968531 207.937405 
L 116.213287 223.262094 
L 106.458042 187.532198 
L 96.702797 191.30586 
L 86.947552 179.269462 
L 77.192308 129.916884 
L 67.437063 50.555668 
L 57.681818 -116.329598 
z
" clip-path="url(#p5de29d5d13)" style="fill: #2ca02c; fill-opacity: 0.2"/>
   </g>
   <g id="PolyCollection_4">
    <path d="M 57.681818 173.952553 
L 57.681818 183.521616 
L 67.437063 253.353185 
L 77.192308 272.221632 
L 86.947552 290.976207 
L 96.702797 292.589134 
L 106.458042 297.873537 
L 116.213287 289.703167 
L 125.968531 292.84765 
L 135.723776 282.580723 
L 145.479021 302.237271 
L 155.234266 312.819034 
L 164.98951 318.601113 
L 174.744755 320.253047 
L 184.5 321.622388 
L 194.255245 322.542325 
L 204.01049 323.352401 
L 213.765734 322.17348 
L 223.520979 323.897515 
L 233.276224 323.494071 
L 243.031469 322.810498 
L 252.786713 323.33079 
L 262.541958 323.601961 
L 272.297203 323.656872 
L 282.052448 323.551361 
L 291.807692 323.591008 
L 301.562937 323.607962 
L 301.562937 313.783158 
L 301.562937 313.783158 
L 291.807692 313.716708 
L 282.052448 313.75993 
L 272.297203 313.855898 
L 262.541958 313.681043 
L 252.786713 313.531504 
L 243.031469 313.078254 
L 233.276224 313.174184 
L 223.520979 313.903262 
L 213.765734 312.898451 
L 204.01049 314.027046 
L 194.255245 312.629283 
L 184.5 311.886735 
L 174.744755 311.387222 
L 164.98951 309.293648 
L 155.234266 293.151684 
L 145.479021 286.596455 
L 135.723776 262.435279 
L 125.968531 265.243934 
L 116.213287 276.492449 
L 106.458042 287.344637 
L 96.702797 289.360791 
L 86.947552 285.735964 
L 77.192308 267.358209 
L 67.437063 239.661277 
L 57.681818 173.952553 
z
" clip-path="url(#p5de29d5d13)" style="fill: #d62728; fill-opacity: 0.2"/>
   </g>
   <g id="PolyCollection_5">
    <path d="M 57.681818 -191.744673 
L 57.681818 -132.360287 
L 67.437063 11.171269 
L 77.192308 103.892898 
L 86.947552 152.852918 
L 96.702797 163.465217 
L 106.458042 189.043745 
L 116.213287 204.298111 
L 125.968531 218.235124 
L 135.723776 212.318902 
L 145.479021 215.495058 
L 155.234266 250.27632 
L 164.98951 250.215688 
L 174.744755 245.874996 
L 184.5 237.94535 
L 194.255245 257.57409 
L 204.01049 265.557514 
L 213.765734 270.309609 
L 223.520979 269.922714 
L 233.276224 269.845733 
L 243.031469 270.912434 
L 252.786713 271.851028 
L 262.541958 272.382114 
L 272.297203 272.079252 
L 282.052448 272.009112 
L 291.807692 271.461657 
L 301.562937 271.79482 
L 311.318182 271.885706 
L 311.318182 260.026357 
L 311.318182 260.026357 
L 301.562937 259.708038 
L 291.807692 259.659896 
L 282.052448 259.718356 
L 272.297203 259.222139 
L 262.541958 259.225796 
L 252.786713 259.261192 
L 243.031469 258.196471 
L 233.276224 257.40682 
L 223.520979 256.657339 
L 213.765734 255.171415 
L 204.01049 231.533234 
L 194.255245 230.62811 
L 184.5 203.713398 
L 174.744755 217.548559 
L 164.98951 220.811625 
L 155.234266 233.631653 
L 145.479021 198.657975 
L 135.723776 188.083074 
L 125.968531 196.264006 
L 116.213287 181.442921 
L 106.458042 172.873973 
L 96.702797 143.118107 
L 86.947552 125.327245 
L 77.192308 83.019967 
L 67.437063 -39.93653 
L 57.681818 -191.744673 
z
" clip-path="url(#p5de29d5d13)" style="fill: #9467bd; fill-opacity: 0.2"/>
   </g>
   <g id="PolyCollection_6">
    <path d="M 57.681818 157.536995 
L 57.681818 178.661448 
L 67.437063 225.856155 
L 77.192308 245.412814 
L 86.947552 274.796127 
L 96.702797 273.465203 
L 106.458042 283.706127 
L 116.213287 295.120638 
L 125.968531 287.995221 
L 135.723776 291.464744 
L 145.479021 294.971398 
L 155.234266 321.560931 
L 164.98951 317.913479 
L 174.744755 316.873278 
L 184.5 318.6505 
L 194.255245 323.412894 
L 204.01049 325.075148 
L 213.765734 324.571367 
L 223.520979 326.882884 
L 233.276224 326.317973 
L 243.031469 326.237198 
L 252.786713 327.506022 
L 262.541958 328.718936 
L 272.297203 328.375481 
L 282.052448 327.541193 
L 291.807692 327.881121 
L 291.807692 310.072092 
L 291.807692 310.072092 
L 282.052448 310.195668 
L 272.297203 310.84588 
L 262.541958 310.094587 
L 252.786713 309.506514 
L 243.031469 308.275034 
L 233.276224 308.708692 
L 223.520979 307.839787 
L 213.765734 307.375377 
L 204.01049 303.915622 
L 194.255245 302.787142 
L 184.5 290.66048 
L 174.744755 294.249837 
L 164.98951 299.396525 
L 155.234266 301.688971 
L 145.479021 271.965339 
L 135.723776 258.712842 
L 125.968531 261.694435 
L 116.213287 270.051768 
L 106.458042 262.578606 
L 96.702797 266.843503 
L 86.947552 253.098573 
L 77.192308 229.296324 
L 67.437063 219.704515 
L 57.681818 157.536995 
z
" clip-path="url(#p5de29d5d13)" style="fill: #8c564b; fill-opacity: 0.2"/>
   </g>
   <g id="PolyCollection_7">
    <path d="M 57.681818 12.019237 
L 57.681818 20.948128 
L 67.437063 242.912377 
L 77.192308 268.164457 
L 86.947552 296.500679 
L 96.702797 299.185382 
L 106.458042 286.572761 
L 116.213287 290.066074 
L 125.968531 296.598872 
L 135.723776 295.517946 
L 145.479021 298.991367 
L 155.234266 303.384064 
L 164.98951 302.822076 
L 174.744755 302.317257 
L 184.5 301.207054 
L 194.255245 303.397823 
L 204.01049 305.021225 
L 213.765734 301.703414 
L 213.765734 286.460169 
L 213.765734 286.460169 
L 204.01049 289.74697 
L 194.255245 288.372154 
L 184.5 285.905083 
L 174.744755 287.306926 
L 164.98951 285.13219 
L 155.234266 285.631068 
L 145.479021 276.954201 
L 135.723776 276.714042 
L 125.968531 281.253676 
L 116.213287 282.243732 
L 106.458042 276.337431 
L 96.702797 285.63331 
L 86.947552 279.753392 
L 77.192308 255.979074 
L 67.437063 227.512906 
L 57.681818 12.019237 
z
" clip-path="url(#p5de29d5d13)" style="fill: #e377c2; fill-opacity: 0.2"/>
   </g>
   <g id="PolyCollection_8">
    <path d="M 57.681818 152.589563 
L 57.681818 170.085854 
L 67.437063 267.993496 
L 77.192308 299.369379 
L 86.947552 309.950253 
L 96.702797 313.704656 
L 106.458042 317.817402 
L 116.213287 327.644547 
L 125.968531 315.125786 
L 135.723776 321.238654 
L 145.479021 323.980091 
L 155.234266 313.245179 
L 164.98951 321.101452 
L 174.744755 321.613196 
L 184.5 325.875893 
L 194.255245 324.886871 
L 204.01049 325.819663 
L 213.765734 325.611576 
L 213.765734 315.114966 
L 213.765734 315.114966 
L 204.01049 315.250483 
L 194.255245 314.046031 
L 184.5 316.479995 
L 174.744755 283.924314 
L 164.98951 316.071119 
L 155.234266 303.047186 
L 145.479021 308.425907 
L 135.723776 298.337548 
L 125.968531 292.283586 
L 116.213287 310.700118 
L 106.458042 302.770465 
L 96.702797 294.414054 
L 86.947552 300.618473 
L 77.192308 288.077154 
L 67.437063 255.647023 
L 57.681818 152.589563 
z
" clip-path="url(#p5de29d5d13)" style="fill: #7f7f7f; fill-opacity: 0.2"/>
   </g>
   <g id="matplotlib.axis_1">
    <g id="xtick_1">
     <g id="line2d_1">
      <path d="M 47.926573 378 
L 47.926573 51.84 
" clip-path="url(#p5de29d5d13)" style="fill: none; stroke: #b0b0b0; stroke-width: 0.8; stroke-linecap: square"/>
     </g>
     <g id="line2d_2">
      <defs>
       <path id="m10f167c32d" d="M 0 0 
L 0 3.5 
" style="stroke: #000000; stroke-width: 0.8"/>
      </defs>
      <g>
       <use xlink:href="#m10f167c32d" x="47.926573" y="378" style="stroke: #000000; stroke-width: 0.8"/>
      </g>
     </g>
     <g id="text_1">
      <!-- 0 -->
      <g transform="translate(44.745323 392.598437)scale(0.1 -0.1)">
       <defs>
        <path id="DejaVuSans-30" d="M 2034 4250 
Q 1547 4250 1301 3770 
Q 1056 3291 1056 2328 
Q 1056 1369 1301 889 
Q 1547 409 2034 409 
Q 2525 409 2770 889 
Q 3016 1369 3016 2328 
Q 3016 3291 2770 3770 
Q 2525 4250 2034 4250 
z
M 2034 4750 
Q 2819 4750 3233 4129 
Q 3647 3509 3647 2328 
Q 3647 1150 3233 529 
Q 2819 -91 2034 -91 
Q 1250 -91 836 529 
Q 422 1150 422 2328 
Q 422 3509 836 4129 
Q 1250 4750 2034 4750 
z
" transform="scale(0.015625)"/>
       </defs>
       <use xlink:href="#DejaVuSans-30"/>
      </g>
     </g>
    </g>
    <g id="xtick_2">
     <g id="line2d_3">
      <path d="M 96.702797 378 
L 96.702797 51.84 
" clip-path="url(#p5de29d5d13)" style="fill: none; stroke: #b0b0b0; stroke-width: 0.8; stroke-linecap: square"/>
     </g>
     <g id="line2d_4">
      <g>
       <use xlink:href="#m10f167c32d" x="96.702797" y="378" style="stroke: #000000; stroke-width: 0.8"/>
      </g>
     </g>
     <g id="text_2">
      <!-- 5 -->
      <g transform="translate(93.521547 392.598437)scale(0.1 -0.1)">
       <defs>
        <path id="DejaVuSans-35" d="M 691 4666 
L 3169 4666 
L 3169 4134 
L 1269 4134 
L 1269 2991 
Q 1406 3038 1543 3061 
Q 1681 3084 1819 3084 
Q 2600 3084 3056 2656 
Q 3513 2228 3513 1497 
Q 3513 744 3044 326 
Q 2575 -91 1722 -91 
Q 1428 -91 1123 -41 
Q 819 9 494 109 
L 494 744 
Q 775 591 1075 516 
Q 1375 441 1709 441 
Q 2250 441 2565 725 
Q 2881 1009 2881 1497 
Q 2881 1984 2565 2268 
Q 2250 2553 1709 2553 
Q 1456 2553 1204 2497 
Q 953 2441 691 2322 
L 691 4666 
z
" transform="scale(0.015625)"/>
       </defs>
       <use xlink:href="#DejaVuSans-35"/>
      </g>
     </g>
    </g>
    <g id="xtick_3">
     <g id="line2d_5">
      <path d="M 145.479021 378 
L 145.479021 51.84 
" clip-path="url(#p5de29d5d13)" style="fill: none; stroke: #b0b0b0; stroke-width: 0.8; stroke-linecap: square"/>
     </g>
     <g id="line2d_6">
      <g>
       <use xlink:href="#m10f167c32d" x="145.479021" y="378" style="stroke: #000000; stroke-width: 0.8"/>
      </g>
     </g>
     <g id="text_3">
      <!-- 10 -->
      <g transform="translate(139.116521 392.598437)scale(0.1 -0.1)">
       <defs>
        <path id="DejaVuSans-31" d="M 794 531 
L 1825 531 
L 1825 4091 
L 703 3866 
L 703 4441 
L 1819 4666 
L 2450 4666 
L 2450 531 
L 3481 531 
L 3481 0 
L 794 0 
L 794 531 
z
" transform="scale(0.015625)"/>
       </defs>
       <use xlink:href="#DejaVuSans-31"/>
       <use xlink:href="#DejaVuSans-30" x="63.623047"/>
      </g>
     </g>
    </g>
    <g id="xtick_4">
     <g id="line2d_7">
      <path d="M 194.255245 378 
L 194.255245 51.84 
" clip-path="url(#p5de29d5d13)" style="fill: none; stroke: #b0b0b0; stroke-width: 0.8; stroke-linecap: square"/>
     </g>
     <g id="line2d_8">
      <g>
       <use xlink:href="#m10f167c32d" x="194.255245" y="378" style="stroke: #000000; stroke-width: 0.8"/>
      </g>
     </g>
     <g id="text_4">
      <!-- 15 -->
      <g transform="translate(187.892745 392.598437)scale(0.1 -0.1)">
       <use xlink:href="#DejaVuSans-31"/>
       <use xlink:href="#DejaVuSans-35" x="63.623047"/>
      </g>
     </g>
    </g>
    <g id="xtick_5">
     <g id="line2d_9">
      <path d="M 243.031469 378 
L 243.031469 51.84 
" clip-path="url(#p5de29d5d13)" style="fill: none; stroke: #b0b0b0; stroke-width: 0.8; stroke-linecap: square"/>
     </g>
     <g id="line2d_10">
      <g>
       <use xlink:href="#m10f167c32d" x="243.031469" y="378" style="stroke: #000000; stroke-width: 0.8"/>
      </g>
     </g>
     <g id="text_5">
      <!-- 20 -->
      <g transform="translate(236.668969 392.598437)scale(0.1 -0.1)">
       <defs>
        <path id="DejaVuSans-32" d="M 1228 531 
L 3431 531 
L 3431 0 
L 469 0 
L 469 531 
Q 828 903 1448 1529 
Q 2069 2156 2228 2338 
Q 2531 2678 2651 2914 
Q 2772 3150 2772 3378 
Q 2772 3750 2511 3984 
Q 2250 4219 1831 4219 
Q 1534 4219 1204 4116 
Q 875 4013 500 3803 
L 500 4441 
Q 881 4594 1212 4672 
Q 1544 4750 1819 4750 
Q 2544 4750 2975 4387 
Q 3406 4025 3406 3419 
Q 3406 3131 3298 2873 
Q 3191 2616 2906 2266 
Q 2828 2175 2409 1742 
Q 1991 1309 1228 531 
z
" transform="scale(0.015625)"/>
       </defs>
       <use xlink:href="#DejaVuSans-32"/>
       <use xlink:href="#DejaVuSans-30" x="63.623047"/>
      </g>
     </g>
    </g>
    <g id="xtick_6">
     <g id="line2d_11">
      <path d="M 291.807692 378 
L 291.807692 51.84 
" clip-path="url(#p5de29d5d13)" style="fill: none; stroke: #b0b0b0; stroke-width: 0.8; stroke-linecap: square"/>
     </g>
     <g id="line2d_12">
      <g>
       <use xlink:href="#m10f167c32d" x="291.807692" y="378" style="stroke: #000000; stroke-width: 0.8"/>
      </g>
     </g>
     <g id="text_6">
      <!-- 25 -->
      <g transform="translate(285.445192 392.598437)scale(0.1 -0.1)">
       <use xlink:href="#DejaVuSans-32"/>
       <use xlink:href="#DejaVuSans-35" x="63.623047"/>
      </g>
     </g>
    </g>
    <g id="text_7">
     <!-- Epochs -->
     <g transform="translate(166.584375 406.276563)scale(0.1 -0.1)">
      <defs>
       <path id="DejaVuSans-45" d="M 628 4666 
L 3578 4666 
L 3578 4134 
L 1259 4134 
L 1259 2753 
L 3481 2753 
L 3481 2222 
L 1259 2222 
L 1259 531 
L 3634 531 
L 3634 0 
L 628 0 
L 628 4666 
z
" transform="scale(0.015625)"/>
       <path id="DejaVuSans-70" d="M 1159 525 
L 1159 -1331 
L 581 -1331 
L 581 3500 
L 1159 3500 
L 1159 2969 
Q 1341 3281 1617 3432 
Q 1894 3584 2278 3584 
Q 2916 3584 3314 3078 
Q 3713 2572 3713 1747 
Q 3713 922 3314 415 
Q 2916 -91 2278 -91 
Q 1894 -91 1617 61 
Q 1341 213 1159 525 
z
M 3116 1747 
Q 3116 2381 2855 2742 
Q 2594 3103 2138 3103 
Q 1681 3103 1420 2742 
Q 1159 2381 1159 1747 
Q 1159 1113 1420 752 
Q 1681 391 2138 391 
Q 2594 391 2855 752 
Q 3116 1113 3116 1747 
z
" transform="scale(0.015625)"/>
       <path id="DejaVuSans-6f" d="M 1959 3097 
Q 1497 3097 1228 2736 
Q 959 2375 959 1747 
Q 959 1119 1226 758 
Q 1494 397 1959 397 
Q 2419 397 2687 759 
Q 2956 1122 2956 1747 
Q 2956 2369 2687 2733 
Q 2419 3097 1959 3097 
z
M 1959 3584 
Q 2709 3584 3137 3096 
Q 3566 2609 3566 1747 
Q 3566 888 3137 398 
Q 2709 -91 1959 -91 
Q 1206 -91 779 398 
Q 353 888 353 1747 
Q 353 2609 779 3096 
Q 1206 3584 1959 3584 
z
" transform="scale(0.015625)"/>
       <path id="DejaVuSans-63" d="M 3122 3366 
L 3122 2828 
Q 2878 2963 2633 3030 
Q 2388 3097 2138 3097 
Q 1578 3097 1268 2742 
Q 959 2388 959 1747 
Q 959 1106 1268 751 
Q 1578 397 2138 397 
Q 2388 397 2633 464 
Q 2878 531 3122 666 
L 3122 134 
Q 2881 22 2623 -34 
Q 2366 -91 2075 -91 
Q 1284 -91 818 406 
Q 353 903 353 1747 
Q 353 2603 823 3093 
Q 1294 3584 2113 3584 
Q 2378 3584 2631 3529 
Q 2884 3475 3122 3366 
z
" transform="scale(0.015625)"/>
       <path id="DejaVuSans-68" d="M 3513 2113 
L 3513 0 
L 2938 0 
L 2938 2094 
Q 2938 2591 2744 2837 
Q 2550 3084 2163 3084 
Q 1697 3084 1428 2787 
Q 1159 2491 1159 1978 
L 1159 0 
L 581 0 
L 581 4863 
L 1159 4863 
L 1159 2956 
Q 1366 3272 1645 3428 
Q 1925 3584 2291 3584 
Q 2894 3584 3203 3211 
Q 3513 2838 3513 2113 
z
" transform="scale(0.015625)"/>
       <path id="DejaVuSans-73" d="M 2834 3397 
L 2834 2853 
Q 2591 2978 2328 3040 
Q 2066 3103 1784 3103 
Q 1356 3103 1142 2972 
Q 928 2841 928 2578 
Q 928 2378 1081 2264 
Q 1234 2150 1697 2047 
L 1894 2003 
Q 2506 1872 2764 1633 
Q 3022 1394 3022 966 
Q 3022 478 2636 193 
Q 2250 -91 1575 -91 
Q 1294 -91 989 -36 
Q 684 19 347 128 
L 347 722 
Q 666 556 975 473 
Q 1284 391 1588 391 
Q 1994 391 2212 530 
Q 2431 669 2431 922 
Q 2431 1156 2273 1281 
Q 2116 1406 1581 1522 
L 1381 1569 
Q 847 1681 609 1914 
Q 372 2147 372 2553 
Q 372 3047 722 3315 
Q 1072 3584 1716 3584 
Q 2034 3584 2315 3537 
Q 2597 3491 2834 3397 
z
" transform="scale(0.015625)"/>
      </defs>
      <use xlink:href="#DejaVuSans-45"/>
      <use xlink:href="#DejaVuSans-70" x="63.183594"/>
      <use xlink:href="#DejaVuSans-6f" x="126.660156"/>
      <use xlink:href="#DejaVuSans-63" x="187.841797"/>
      <use xlink:href="#DejaVuSans-68" x="242.822266"/>
      <use xlink:href="#DejaVuSans-73" x="306.201172"/>
     </g>
    </g>
   </g>
   <g id="matplotlib.axis_2">
    <g id="ytick_1">
     <g id="line2d_13">
      <path d="M 45 345.210752 
L 324 345.210752 
" clip-path="url(#p5de29d5d13)" style="fill: none; stroke: #b0b0b0; stroke-width: 0.8; stroke-linecap: square"/>
     </g>
     <g id="line2d_14">
      <defs>
       <path id="m11aa740be3" d="M 0 0 
L -3.5 0 
" style="stroke: #000000; stroke-width: 0.8"/>
      </defs>
      <g>
       <use xlink:href="#m11aa740be3" x="45" y="345.210752" style="stroke: #000000; stroke-width: 0.8"/>
      </g>
     </g>
     <g id="text_8">
      <!-- 0.8 -->
      <g transform="translate(22.096875 349.009971)scale(0.1 -0.1)">
       <defs>
        <path id="DejaVuSans-2e" d="M 684 794 
L 1344 794 
L 1344 0 
L 684 0 
L 684 794 
z
" transform="scale(0.015625)"/>
        <path id="DejaVuSans-38" d="M 2034 2216 
Q 1584 2216 1326 1975 
Q 1069 1734 1069 1313 
Q 1069 891 1326 650 
Q 1584 409 2034 409 
Q 2484 409 2743 651 
Q 3003 894 3003 1313 
Q 3003 1734 2745 1975 
Q 2488 2216 2034 2216 
z
M 1403 2484 
Q 997 2584 770 2862 
Q 544 3141 544 3541 
Q 544 4100 942 4425 
Q 1341 4750 2034 4750 
Q 2731 4750 3128 4425 
Q 3525 4100 3525 3541 
Q 3525 3141 3298 2862 
Q 3072 2584 2669 2484 
Q 3125 2378 3379 2068 
Q 3634 1759 3634 1313 
Q 3634 634 3220 271 
Q 2806 -91 2034 -91 
Q 1263 -91 848 271 
Q 434 634 434 1313 
Q 434 1759 690 2068 
Q 947 2378 1403 2484 
z
M 1172 3481 
Q 1172 3119 1398 2916 
Q 1625 2713 2034 2713 
Q 2441 2713 2670 2916 
Q 2900 3119 2900 3481 
Q 2900 3844 2670 4047 
Q 2441 4250 2034 4250 
Q 1625 4250 1398 4047 
Q 1172 3844 1172 3481 
z
" transform="scale(0.015625)"/>
       </defs>
       <use xlink:href="#DejaVuSans-30"/>
       <use xlink:href="#DejaVuSans-2e" x="63.623047"/>
       <use xlink:href="#DejaVuSans-38" x="95.410156"/>
      </g>
     </g>
    </g>
    <g id="ytick_2">
     <g id="line2d_15">
      <path d="M 45 280.017252 
L 324 280.017252 
" clip-path="url(#p5de29d5d13)" style="fill: none; stroke: #b0b0b0; stroke-width: 0.8; stroke-linecap: square"/>
     </g>
     <g id="line2d_16">
      <g>
       <use xlink:href="#m11aa740be3" x="45" y="280.017252" style="stroke: #000000; stroke-width: 0.8"/>
      </g>
     </g>
     <g id="text_9">
      <!-- 0.9 -->
      <g transform="translate(22.096875 283.816471)scale(0.1 -0.1)">
       <defs>
        <path id="DejaVuSans-39" d="M 703 97 
L 703 672 
Q 941 559 1184 500 
Q 1428 441 1663 441 
Q 2288 441 2617 861 
Q 2947 1281 2994 2138 
Q 2813 1869 2534 1725 
Q 2256 1581 1919 1581 
Q 1219 1581 811 2004 
Q 403 2428 403 3163 
Q 403 3881 828 4315 
Q 1253 4750 1959 4750 
Q 2769 4750 3195 4129 
Q 3622 3509 3622 2328 
Q 3622 1225 3098 567 
Q 2575 -91 1691 -91 
Q 1453 -91 1209 -44 
Q 966 3 703 97 
z
M 1959 2075 
Q 2384 2075 2632 2365 
Q 2881 2656 2881 3163 
Q 2881 3666 2632 3958 
Q 2384 4250 1959 4250 
Q 1534 4250 1286 3958 
Q 1038 3666 1038 3163 
Q 1038 2656 1286 2365 
Q 1534 2075 1959 2075 
z
" transform="scale(0.015625)"/>
       </defs>
       <use xlink:href="#DejaVuSans-30"/>
       <use xlink:href="#DejaVuSans-2e" x="63.623047"/>
       <use xlink:href="#DejaVuSans-39" x="95.410156"/>
      </g>
     </g>
    </g>
    <g id="ytick_3">
     <g id="line2d_17">
      <path d="M 45 214.823751 
L 324 214.823751 
" clip-path="url(#p5de29d5d13)" style="fill: none; stroke: #b0b0b0; stroke-width: 0.8; stroke-linecap: square"/>
     </g>
     <g id="line2d_18">
      <g>
       <use xlink:href="#m11aa740be3" x="45" y="214.823751" style="stroke: #000000; stroke-width: 0.8"/>
      </g>
     </g>
     <g id="text_10">
      <!-- 1.0 -->
      <g transform="translate(22.096875 218.62297)scale(0.1 -0.1)">
       <use xlink:href="#DejaVuSans-31"/>
       <use xlink:href="#DejaVuSans-2e" x="63.623047"/>
       <use xlink:href="#DejaVuSans-30" x="95.410156"/>
      </g>
     </g>
    </g>
    <g id="ytick_4">
     <g id="line2d_19">
      <path d="M 45 149.630251 
L 324 149.630251 
" clip-path="url(#p5de29d5d13)" style="fill: none; stroke: #b0b0b0; stroke-width: 0.8; stroke-linecap: square"/>
     </g>
     <g id="line2d_20">
      <g>
       <use xlink:href="#m11aa740be3" x="45" y="149.630251" style="stroke: #000000; stroke-width: 0.8"/>
      </g>
     </g>
     <g id="text_11">
      <!-- 1.1 -->
      <g transform="translate(22.096875 153.42947)scale(0.1 -0.1)">
       <use xlink:href="#DejaVuSans-31"/>
       <use xlink:href="#DejaVuSans-2e" x="63.623047"/>
       <use xlink:href="#DejaVuSans-31" x="95.410156"/>
      </g>
     </g>
    </g>
    <g id="ytick_5">
     <g id="line2d_21">
      <path d="M 45 84.43675 
L 324 84.43675 
" clip-path="url(#p5de29d5d13)" style="fill: none; stroke: #b0b0b0; stroke-width: 0.8; stroke-linecap: square"/>
     </g>
     <g id="line2d_22">
      <g>
       <use xlink:href="#m11aa740be3" x="45" y="84.43675" style="stroke: #000000; stroke-width: 0.8"/>
      </g>
     </g>
     <g id="text_12">
      <!-- 1.2 -->
      <g transform="translate(22.096875 88.235969)scale(0.1 -0.1)">
       <use xlink:href="#DejaVuSans-31"/>
       <use xlink:href="#DejaVuSans-2e" x="63.623047"/>
       <use xlink:href="#DejaVuSans-32" x="95.410156"/>
      </g>
     </g>
    </g>
    <g id="text_13">
     <!-- Cross Entropy Loss ($\bar{x} \pm s \div \sqrt{N}$) -->
     <g transform="translate(15.996875 293.82)rotate(-90)scale(0.1 -0.1)">
      <defs>
       <path id="DejaVuSans-43" d="M 4122 4306 
L 4122 3641 
Q 3803 3938 3442 4084 
Q 3081 4231 2675 4231 
Q 1875 4231 1450 3742 
Q 1025 3253 1025 2328 
Q 1025 1406 1450 917 
Q 1875 428 2675 428 
Q 3081 428 3442 575 
Q 3803 722 4122 1019 
L 4122 359 
Q 3791 134 3420 21 
Q 3050 -91 2638 -91 
Q 1578 -91 968 557 
Q 359 1206 359 2328 
Q 359 3453 968 4101 
Q 1578 4750 2638 4750 
Q 3056 4750 3426 4639 
Q 3797 4528 4122 4306 
z
" transform="scale(0.015625)"/>
       <path id="DejaVuSans-72" d="M 2631 2963 
Q 2534 3019 2420 3045 
Q 2306 3072 2169 3072 
Q 1681 3072 1420 2755 
Q 1159 2438 1159 1844 
L 1159 0 
L 581 0 
L 581 3500 
L 1159 3500 
L 1159 2956 
Q 1341 3275 1631 3429 
Q 1922 3584 2338 3584 
Q 2397 3584 2469 3576 
Q 2541 3569 2628 3553 
L 2631 2963 
z
" transform="scale(0.015625)"/>
       <path id="DejaVuSans-20" transform="scale(0.015625)"/>
       <path id="DejaVuSans-6e" d="M 3513 2113 
L 3513 0 
L 2938 0 
L 2938 2094 
Q 2938 2591 2744 2837 
Q 2550 3084 2163 3084 
Q 1697 3084 1428 2787 
Q 1159 2491 1159 1978 
L 1159 0 
L 581 0 
L 581 3500 
L 1159 3500 
L 1159 2956 
Q 1366 3272 1645 3428 
Q 1925 3584 2291 3584 
Q 2894 3584 3203 3211 
Q 3513 2838 3513 2113 
z
" transform="scale(0.015625)"/>
       <path id="DejaVuSans-74" d="M 1172 4494 
L 1172 3500 
L 2356 3500 
L 2356 3053 
L 1172 3053 
L 1172 1153 
Q 1172 725 1289 603 
Q 1406 481 1766 481 
L 2356 481 
L 2356 0 
L 1766 0 
Q 1100 0 847 248 
Q 594 497 594 1153 
L 594 3053 
L 172 3053 
L 172 3500 
L 594 3500 
L 594 4494 
L 1172 4494 
z
" transform="scale(0.015625)"/>
       <path id="DejaVuSans-79" d="M 2059 -325 
Q 1816 -950 1584 -1140 
Q 1353 -1331 966 -1331 
L 506 -1331 
L 506 -850 
L 844 -850 
Q 1081 -850 1212 -737 
Q 1344 -625 1503 -206 
L 1606 56 
L 191 3500 
L 800 3500 
L 1894 763 
L 2988 3500 
L 3597 3500 
L 2059 -325 
z
" transform="scale(0.015625)"/>
       <path id="DejaVuSans-4c" d="M 628 4666 
L 1259 4666 
L 1259 531 
L 3531 531 
L 3531 0 
L 628 0 
L 628 4666 
z
" transform="scale(0.015625)"/>
       <path id="DejaVuSans-28" d="M 1984 4856 
Q 1566 4138 1362 3434 
Q 1159 2731 1159 2009 
Q 1159 1288 1364 580 
Q 1569 -128 1984 -844 
L 1484 -844 
Q 1016 -109 783 600 
Q 550 1309 550 2009 
Q 550 2706 781 3412 
Q 1013 4119 1484 4856 
L 1984 4856 
z
" transform="scale(0.015625)"/>
       <path id="DejaVuSans-304" d="M -2518 4769 
L -650 4769 
L -650 4306 
L -2518 4306 
L -2518 4769 
z
" transform="scale(0.015625)"/>
       <path id="DejaVuSans-Oblique-78" d="M 3841 3500 
L 2234 1784 
L 3219 0 
L 2559 0 
L 1819 1388 
L 531 0 
L -166 0 
L 1556 1844 
L 641 3500 
L 1300 3500 
L 1972 2234 
L 3144 3500 
L 3841 3500 
z
" transform="scale(0.015625)"/>
       <path id="DejaVuSans-b1" d="M 2944 4013 
L 2944 2803 
L 4684 2803 
L 4684 2272 
L 2944 2272 
L 2944 1063 
L 2419 1063 
L 2419 2272 
L 678 2272 
L 678 2803 
L 2419 2803 
L 2419 4013 
L 2944 4013 
z
M 678 531 
L 4684 531 
L 4684 0 
L 678 0 
L 678 531 
z
" transform="scale(0.015625)"/>
       <path id="DejaVuSans-Oblique-73" d="M 3200 3397 
L 3091 2853 
Q 2863 2978 2609 3040 
Q 2356 3103 2088 3103 
Q 1634 3103 1373 2948 
Q 1113 2794 1113 2528 
Q 1113 2219 1719 2053 
Q 1766 2041 1788 2034 
L 1972 1978 
Q 2547 1819 2739 1644 
Q 2931 1469 2931 1166 
Q 2931 609 2489 259 
Q 2047 -91 1331 -91 
Q 1053 -91 747 -37 
Q 441 16 72 128 
L 184 722 
Q 500 559 806 475 
Q 1113 391 1394 391 
Q 1816 391 2080 572 
Q 2344 753 2344 1031 
Q 2344 1331 1650 1516 
L 1591 1531 
L 1394 1581 
Q 956 1697 753 1886 
Q 550 2075 550 2369 
Q 550 2928 970 3256 
Q 1391 3584 2113 3584 
Q 2397 3584 2667 3537 
Q 2938 3491 3200 3397 
z
" transform="scale(0.015625)"/>
       <path id="DejaVuSans-f7" d="M 2297 3547 
L 3066 3547 
L 3066 2778 
L 2297 2778 
L 2297 3547 
z
M 2297 1234 
L 3066 1234 
L 3066 469 
L 2297 469 
L 2297 1234 
z
M 678 2272 
L 4684 2272 
L 4684 1741 
L 678 1741 
L 678 2272 
z
" transform="scale(0.015625)"/>
       <path id="STIXSizeOneSym-Regular-221a" d="M 6970 9933 
L 3373 -1888 
L 3104 -1888 
L 1626 2918 
Q 1555 3149 1465 3251 
Q 1376 3354 1229 3354 
Q 1011 3354 794 3181 
L 717 3309 
L 1766 4115 
L 1926 4115 
L 3379 -602 
L 3405 -602 
L 6605 9933 
L 6970 9933 
z
" transform="scale(0.015625)"/>
       <path id="DejaVuSans-Oblique-4e" d="M 1081 4666 
L 1931 4666 
L 3219 666 
L 4000 4666 
L 4616 4666 
L 3706 0 
L 2853 0 
L 1569 4025 
L 788 0 
L 172 0 
L 1081 4666 
z
" transform="scale(0.015625)"/>
       <path id="DejaVuSans-29" d="M 513 4856 
L 1013 4856 
Q 1481 4119 1714 3412 
Q 1947 2706 1947 2009 
Q 1947 1309 1714 600 
Q 1481 -109 1013 -844 
L 513 -844 
Q 928 -128 1133 580 
Q 1338 1288 1338 2009 
Q 1338 2731 1133 3434 
Q 928 4138 513 4856 
z
" transform="scale(0.015625)"/>
      </defs>
      <use xlink:href="#DejaVuSans-43" transform="translate(0 0.578125)"/>
      <use xlink:href="#DejaVuSans-72" transform="translate(69.824219 0.578125)"/>
      <use xlink:href="#DejaVuSans-6f" transform="translate(110.9375 0.578125)"/>
      <use xlink:href="#DejaVuSans-73" transform="translate(172.119141 0.578125)"/>
      <use xlink:href="#DejaVuSans-73" transform="translate(224.21875 0.578125)"/>
      <use xlink:href="#DejaVuSans-20" transform="translate(276.318359 0.578125)"/>
      <use xlink:href="#DejaVuSans-45" transform="translate(308.105469 0.578125)"/>
      <use xlink:href="#DejaVuSans-6e" transform="translate(371.289062 0.578125)"/>
      <use xlink:href="#DejaVuSans-74" transform="translate(434.667969 0.578125)"/>
      <use xlink:href="#DejaVuSans-72" transform="translate(473.876953 0.578125)"/>
      <use xlink:href="#DejaVuSans-6f" transform="translate(514.990234 0.578125)"/>
      <use xlink:href="#DejaVuSans-70" transform="translate(576.171875 0.578125)"/>
      <use xlink:href="#DejaVuSans-79" transform="translate(639.648438 0.578125)"/>
      <use xlink:href="#DejaVuSans-20" transform="translate(698.828125 0.578125)"/>
      <use xlink:href="#DejaVuSans-4c" transform="translate(730.615234 0.578125)"/>
      <use xlink:href="#DejaVuSans-6f" transform="translate(786.328125 0.578125)"/>
      <use xlink:href="#DejaVuSans-73" transform="translate(847.509766 0.578125)"/>
      <use xlink:href="#DejaVuSans-73" transform="translate(899.609375 0.578125)"/>
      <use xlink:href="#DejaVuSans-20" transform="translate(951.708984 0.578125)"/>
      <use xlink:href="#DejaVuSans-28" transform="translate(983.496094 0.578125)"/>
      <use xlink:href="#DejaVuSans-304" transform="translate(1084.648438 0.484375)"/>
      <use xlink:href="#DejaVuSans-Oblique-78" transform="translate(1022.509766 0.578125)"/>
      <use xlink:href="#DejaVuSans-b1" transform="translate(1101.171875 0.578125)"/>
      <use xlink:href="#DejaVuSans-Oblique-73" transform="translate(1204.443359 0.578125)"/>
      <use xlink:href="#DejaVuSans-f7" transform="translate(1276.025391 0.578125)"/>
      <use xlink:href="#STIXSizeOneSym-Regular-221a" transform="translate(1379.296875 17.09375)scale(0.563912)"/>
      <use xlink:href="#DejaVuSans-Oblique-4e" transform="translate(1451.385239 0.84375)"/>
      <use xlink:href="#DejaVuSans-29" transform="translate(1538.689926 0.578125)"/>
      <path d="M 1438.885239 97.5 
L 1438.885239 103.75 
L 1538.689926 103.75 
L 1538.689926 97.5 
L 1438.885239 97.5 
z
"/>
     </g>
    </g>
   </g>
   <g id="line2d_23">
    <path d="M 57.681818 89.180387 
L 67.437063 178.457811 
L 77.192308 197.519388 
L 86.947552 226.544092 
L 96.702797 234.500334 
L 106.458042 220.610235 
L 116.213287 236.058827 
L 125.968531 244.629197 
L 135.723776 267.516365 
L 145.479021 272.332667 
L 155.234266 274.782114 
L 164.98951 274.345814 
L 174.744755 273.028349 
L 184.5 274.66438 
L 194.255245 274.354014 
L 204.01049 274.613676 
L 213.765734 275.236035 
" clip-path="url(#p5de29d5d13)" style="fill: none; stroke: #1f77b4; stroke-width: 1.5; stroke-linecap: square"/>
   </g>
   <g id="line2d_24">
    <path d="M 57.681818 173.080646 
L 67.437063 258.578842 
L 77.192308 293.675973 
L 86.947552 309.677168 
L 96.702797 302.733544 
L 106.458042 314.11889 
L 116.213287 308.351834 
L 125.968531 314.791239 
L 135.723776 313.5802 
L 145.479021 340.529251 
L 155.234266 342.854797 
L 164.98951 343.34912 
L 174.744755 343.299398 
L 184.5 342.113628 
L 194.255245 341.974677 
L 204.01049 342.802735 
L 213.765734 343.025935 
L 223.520979 342.955207 
L 233.276224 342.711693 
L 243.031469 343.478765 
" clip-path="url(#p5de29d5d13)" style="fill: none; stroke: #ff7f0e; stroke-width: 1.5; stroke-linecap: square"/>
   </g>
   <g id="line2d_25">
    <path d="M 63.42167 -1 
L 67.437063 68.523744 
L 77.192308 140.628206 
L 86.947552 186.183783 
L 96.702797 198.570659 
L 106.458042 196.505219 
L 116.213287 232.334225 
L 125.968531 215.893582 
L 135.723776 202.526539 
L 145.479021 200.619477 
L 155.234266 263.310548 
L 164.98951 269.181809 
L 174.744755 270.255599 
L 184.5 272.357937 
L 194.255245 269.253771 
L 204.01049 272.85183 
L 213.765734 273.050674 
L 223.520979 272.835359 
L 233.276224 272.724939 
L 243.031469 273.250165 
L 252.786713 273.851636 
L 262.541958 271.716889 
L 272.297203 272.938319 
" clip-path="url(#p5de29d5d13)" style="fill: none; stroke: #2ca02c; stroke-width: 1.5; stroke-linecap: square"/>
   </g>
   <g id="line2d_26">
    <path d="M 57.681818 178.737085 
L 67.437063 246.507231 
L 77.192308 269.78992 
L 86.947552 288.356085 
L 96.702797 290.974963 
L 106.458042 292.609087 
L 116.213287 283.097808 
L 125.968531 279.045792 
L 135.723776 272.508001 
L 145.479021 294.416863 
L 155.234266 302.985359 
L 164.98951 313.947381 
L 174.744755 315.820134 
L 184.5 316.754562 
L 194.255245 317.585804 
L 204.01049 318.689724 
L 213.765734 317.535966 
L 223.520979 318.900389 
L 233.276224 318.334128 
L 243.031469 317.944376 
L 252.786713 318.431147 
L 262.541958 318.641502 
L 272.297203 318.756385 
L 282.052448 318.655645 
L 291.807692 318.653858 
L 301.562937 318.69556 
" clip-path="url(#p5de29d5d13)" style="fill: none; stroke: #d62728; stroke-width: 1.5; stroke-linecap: square"/>
   </g>
   <g id="line2d_27">
    <path d="M 68.647671 -1 
L 77.192308 93.456433 
L 86.947552 139.090082 
L 96.702797 153.291662 
L 106.458042 180.958859 
L 116.213287 192.870516 
L 125.968531 207.249565 
L 135.723776 200.200988 
L 145.479021 207.076516 
L 155.234266 241.953986 
L 164.98951 235.513656 
L 174.744755 231.711777 
L 184.5 220.829374 
L 194.255245 244.1011 
L 204.01049 248.545374 
L 213.765734 262.740512 
L 223.520979 263.290027 
L 233.276224 263.626276 
L 243.031469 264.554452 
L 252.786713 265.55611 
L 262.541958 265.803955 
L 272.297203 265.650696 
L 282.052448 265.863734 
L 291.807692 265.560777 
L 301.562937 265.751429 
L 311.318182 265.956032 
" clip-path="url(#p5de29d5d13)" style="fill: none; stroke-dasharray: 5.55,2.4; stroke-dashoffset: 0; stroke: #9467bd; stroke-width: 1.5"/>
   </g>
   <g id="line2d_28">
    <path d="M 57.681818 168.099222 
L 67.437063 222.780335 
L 77.192308 237.354569 
L 86.947552 263.94735 
L 96.702797 270.154353 
L 106.458042 273.142367 
L 116.213287 282.586203 
L 125.968531 274.844828 
L 135.723776 275.088793 
L 145.479021 283.468369 
L 155.234266 311.624951 
L 164.98951 308.655002 
L 174.744755 305.561558 
L 184.5 304.65549 
L 194.255245 313.100018 
L 204.01049 314.495385 
L 213.765734 315.973372 
L 223.520979 317.361335 
L 233.276224 317.513332 
L 243.031469 317.256116 
L 252.786713 318.506268 
L 262.541958 319.406762 
L 272.297203 319.610681 
L 282.052448 318.868431 
L 291.807692 318.976607 
" clip-path="url(#p5de29d5d13)" style="fill: none; stroke-dasharray: 5.55,2.4; stroke-dashoffset: 0; stroke: #8c564b; stroke-width: 1.5"/>
   </g>
   <g id="line2d_29">
    <path d="M 57.681818 16.483683 
L 67.437063 235.212641 
L 77.192308 262.071766 
L 86.947552 288.127036 
L 96.702797 292.409346 
L 106.458042 281.455096 
L 116.213287 286.154903 
L 125.968531 288.926274 
L 135.723776 286.115994 
L 145.479021 287.972784 
L 155.234266 294.507566 
L 164.98951 293.977133 
L 174.744755 294.812091 
L 184.5 293.556068 
L 194.255245 295.884988 
L 204.01049 297.384097 
L 213.765734 294.081792 
" clip-path="url(#p5de29d5d13)" style="fill: none; stroke-dasharray: 5.55,2.4; stroke-dashoffset: 0; stroke: #e377c2; stroke-width: 1.5"/>
   </g>
   <g id="line2d_30">
    <path d="M 57.681818 161.337708 
L 67.437063 261.820259 
L 77.192308 293.723266 
L 86.947552 305.284363 
L 96.702797 304.059355 
L 106.458042 310.293933 
L 116.213287 319.172333 
L 125.968531 303.704686 
L 135.723776 309.788101 
L 145.479021 316.202999 
L 155.234266 308.146183 
L 164.98951 318.586285 
L 174.744755 302.768755 
L 184.5 321.177944 
L 194.255245 319.466451 
L 204.01049 320.535073 
L 213.765734 320.363271 
" clip-path="url(#p5de29d5d13)" style="fill: none; stroke-dasharray: 5.55,2.4; stroke-dashoffset: 0; stroke: #7f7f7f; stroke-width: 1.5"/>
   </g>
   <g id="patch_3">
    <path d="M 45 378 
L 45 51.84 
" style="fill: none; stroke: #000000; stroke-width: 0.8; stroke-linejoin: miter; stroke-linecap: square"/>
   </g>
   <g id="patch_4">
    <path d="M 324 378 
L 324 51.84 
" style="fill: none; stroke: #000000; stroke-width: 0.8; stroke-linejoin: miter; stroke-linecap: square"/>
   </g>
   <g id="patch_5">
    <path d="M 45 378 
L 324 378 
" style="fill: none; stroke: #000000; stroke-width: 0.8; stroke-linejoin: miter; stroke-linecap: square"/>
   </g>
   <g id="patch_6">
    <path d="M 45 51.84 
L 324 51.84 
" style="fill: none; stroke: #000000; stroke-width: 0.8; stroke-linejoin: miter; stroke-linecap: square"/>
   </g>
   <g id="legend_1">
    <g id="patch_7">
     <path d="M 200.907812 178.93375 
L 317 178.93375 
Q 319 178.93375 319 176.93375 
L 319 58.84 
Q 319 56.84 317 56.84 
L 200.907812 56.84 
Q 198.907812 56.84 198.907812 58.84 
L 198.907812 176.93375 
Q 198.907812 178.93375 200.907812 178.93375 
z
" style="fill: #ffffff; opacity: 0.8; stroke: #cccccc; stroke-linejoin: miter"/>
    </g>
    <g id="line2d_31">
     <path d="M 202.907812 64.938437 
L 212.907812 64.938437 
L 222.907812 64.938437 
" style="fill: none; stroke: #1f77b4; stroke-width: 1.5; stroke-linecap: square"/>
    </g>
    <g id="text_14">
     <!-- vit_b_16 -->
     <g transform="translate(230.907812 68.438437)scale(0.1 -0.1)">
      <defs>
       <path id="DejaVuSans-76" d="M 191 3500 
L 800 3500 
L 1894 563 
L 2988 3500 
L 3597 3500 
L 2284 0 
L 1503 0 
L 191 3500 
z
" transform="scale(0.015625)"/>
       <path id="DejaVuSans-69" d="M 603 3500 
L 1178 3500 
L 1178 0 
L 603 0 
L 603 3500 
z
M 603 4863 
L 1178 4863 
L 1178 4134 
L 603 4134 
L 603 4863 
z
" transform="scale(0.015625)"/>
       <path id="DejaVuSans-5f" d="M 3263 -1063 
L 3263 -1509 
L -63 -1509 
L -63 -1063 
L 3263 -1063 
z
" transform="scale(0.015625)"/>
       <path id="DejaVuSans-62" d="M 3116 1747 
Q 3116 2381 2855 2742 
Q 2594 3103 2138 3103 
Q 1681 3103 1420 2742 
Q 1159 2381 1159 1747 
Q 1159 1113 1420 752 
Q 1681 391 2138 391 
Q 2594 391 2855 752 
Q 3116 1113 3116 1747 
z
M 1159 2969 
Q 1341 3281 1617 3432 
Q 1894 3584 2278 3584 
Q 2916 3584 3314 3078 
Q 3713 2572 3713 1747 
Q 3713 922 3314 415 
Q 2916 -91 2278 -91 
Q 1894 -91 1617 61 
Q 1341 213 1159 525 
L 1159 0 
L 581 0 
L 581 4863 
L 1159 4863 
L 1159 2969 
z
" transform="scale(0.015625)"/>
       <path id="DejaVuSans-36" d="M 2113 2584 
Q 1688 2584 1439 2293 
Q 1191 2003 1191 1497 
Q 1191 994 1439 701 
Q 1688 409 2113 409 
Q 2538 409 2786 701 
Q 3034 994 3034 1497 
Q 3034 2003 2786 2293 
Q 2538 2584 2113 2584 
z
M 3366 4563 
L 3366 3988 
Q 3128 4100 2886 4159 
Q 2644 4219 2406 4219 
Q 1781 4219 1451 3797 
Q 1122 3375 1075 2522 
Q 1259 2794 1537 2939 
Q 1816 3084 2150 3084 
Q 2853 3084 3261 2657 
Q 3669 2231 3669 1497 
Q 3669 778 3244 343 
Q 2819 -91 2113 -91 
Q 1303 -91 875 529 
Q 447 1150 447 2328 
Q 447 3434 972 4092 
Q 1497 4750 2381 4750 
Q 2619 4750 2861 4703 
Q 3103 4656 3366 4563 
z
" transform="scale(0.015625)"/>
      </defs>
      <use xlink:href="#DejaVuSans-76"/>
      <use xlink:href="#DejaVuSans-69" x="59.179688"/>
      <use xlink:href="#DejaVuSans-74" x="86.962891"/>
      <use xlink:href="#DejaVuSans-5f" x="126.171875"/>
      <use xlink:href="#DejaVuSans-62" x="176.171875"/>
      <use xlink:href="#DejaVuSans-5f" x="239.648438"/>
      <use xlink:href="#DejaVuSans-31" x="289.648438"/>
      <use xlink:href="#DejaVuSans-36" x="353.271484"/>
     </g>
    </g>
    <g id="line2d_32">
     <path d="M 202.907812 79.894687 
L 212.907812 79.894687 
L 222.907812 79.894687 
" style="fill: none; stroke: #ff7f0e; stroke-width: 1.5; stroke-linecap: square"/>
    </g>
    <g id="text_15">
     <!-- swin_b -->
     <g transform="translate(230.907812 83.394687)scale(0.1 -0.1)">
      <defs>
       <path id="DejaVuSans-77" d="M 269 3500 
L 844 3500 
L 1563 769 
L 2278 3500 
L 2956 3500 
L 3675 769 
L 4391 3500 
L 4966 3500 
L 4050 0 
L 3372 0 
L 2619 2869 
L 1863 0 
L 1184 0 
L 269 3500 
z
" transform="scale(0.015625)"/>
      </defs>
      <use xlink:href="#DejaVuSans-73"/>
      <use xlink:href="#DejaVuSans-77" x="52.099609"/>
      <use xlink:href="#DejaVuSans-69" x="133.886719"/>
      <use xlink:href="#DejaVuSans-6e" x="161.669922"/>
      <use xlink:href="#DejaVuSans-5f" x="225.048828"/>
      <use xlink:href="#DejaVuSans-62" x="275.048828"/>
     </g>
    </g>
    <g id="line2d_33">
     <path d="M 202.907812 94.850937 
L 212.907812 94.850937 
L 222.907812 94.850937 
" style="fill: none; stroke: #2ca02c; stroke-width: 1.5; stroke-linecap: square"/>
    </g>
    <g id="text_16">
     <!-- beit_b_16 -->
     <g transform="translate(230.907812 98.350937)scale(0.1 -0.1)">
      <defs>
       <path id="DejaVuSans-65" d="M 3597 1894 
L 3597 1613 
L 953 1613 
Q 991 1019 1311 708 
Q 1631 397 2203 397 
Q 2534 397 2845 478 
Q 3156 559 3463 722 
L 3463 178 
Q 3153 47 2828 -22 
Q 2503 -91 2169 -91 
Q 1331 -91 842 396 
Q 353 884 353 1716 
Q 353 2575 817 3079 
Q 1281 3584 2069 3584 
Q 2775 3584 3186 3129 
Q 3597 2675 3597 1894 
z
M 3022 2063 
Q 3016 2534 2758 2815 
Q 2500 3097 2075 3097 
Q 1594 3097 1305 2825 
Q 1016 2553 972 2059 
L 3022 2063 
z
" transform="scale(0.015625)"/>
      </defs>
      <use xlink:href="#DejaVuSans-62"/>
      <use xlink:href="#DejaVuSans-65" x="63.476562"/>
      <use xlink:href="#DejaVuSans-69" x="125"/>
      <use xlink:href="#DejaVuSans-74" x="152.783203"/>
      <use xlink:href="#DejaVuSans-5f" x="191.992188"/>
      <use xlink:href="#DejaVuSans-62" x="241.992188"/>
      <use xlink:href="#DejaVuSans-5f" x="305.46875"/>
      <use xlink:href="#DejaVuSans-31" x="355.46875"/>
      <use xlink:href="#DejaVuSans-36" x="419.091797"/>
     </g>
    </g>
    <g id="line2d_34">
     <path d="M 202.907812 109.807187 
L 212.907812 109.807187 
L 222.907812 109.807187 
" style="fill: none; stroke: #d62728; stroke-width: 1.5; stroke-linecap: square"/>
    </g>
    <g id="text_17">
     <!-- deit_b_16 -->
     <g transform="translate(230.907812 113.307187)scale(0.1 -0.1)">
      <defs>
       <path id="DejaVuSans-64" d="M 2906 2969 
L 2906 4863 
L 3481 4863 
L 3481 0 
L 2906 0 
L 2906 525 
Q 2725 213 2448 61 
Q 2172 -91 1784 -91 
Q 1150 -91 751 415 
Q 353 922 353 1747 
Q 353 2572 751 3078 
Q 1150 3584 1784 3584 
Q 2172 3584 2448 3432 
Q 2725 3281 2906 2969 
z
M 947 1747 
Q 947 1113 1208 752 
Q 1469 391 1925 391 
Q 2381 391 2643 752 
Q 2906 1113 2906 1747 
Q 2906 2381 2643 2742 
Q 2381 3103 1925 3103 
Q 1469 3103 1208 2742 
Q 947 2381 947 1747 
z
" transform="scale(0.015625)"/>
      </defs>
      <use xlink:href="#DejaVuSans-64"/>
      <use xlink:href="#DejaVuSans-65" x="63.476562"/>
      <use xlink:href="#DejaVuSans-69" x="125"/>
      <use xlink:href="#DejaVuSans-74" x="152.783203"/>
      <use xlink:href="#DejaVuSans-5f" x="191.992188"/>
      <use xlink:href="#DejaVuSans-62" x="241.992188"/>
      <use xlink:href="#DejaVuSans-5f" x="305.46875"/>
      <use xlink:href="#DejaVuSans-31" x="355.46875"/>
      <use xlink:href="#DejaVuSans-36" x="419.091797"/>
     </g>
    </g>
    <g id="line2d_35">
     <path d="M 202.907812 124.763437 
L 212.907812 124.763437 
L 222.907812 124.763437 
" style="fill: none; stroke-dasharray: 5.55,2.4; stroke-dashoffset: 0; stroke: #9467bd; stroke-width: 1.5"/>
    </g>
    <g id="text_18">
     <!-- vgg19 -->
     <g transform="translate(230.907812 128.263437)scale(0.1 -0.1)">
      <defs>
       <path id="DejaVuSans-67" d="M 2906 1791 
Q 2906 2416 2648 2759 
Q 2391 3103 1925 3103 
Q 1463 3103 1205 2759 
Q 947 2416 947 1791 
Q 947 1169 1205 825 
Q 1463 481 1925 481 
Q 2391 481 2648 825 
Q 2906 1169 2906 1791 
z
M 3481 434 
Q 3481 -459 3084 -895 
Q 2688 -1331 1869 -1331 
Q 1566 -1331 1297 -1286 
Q 1028 -1241 775 -1147 
L 775 -588 
Q 1028 -725 1275 -790 
Q 1522 -856 1778 -856 
Q 2344 -856 2625 -561 
Q 2906 -266 2906 331 
L 2906 616 
Q 2728 306 2450 153 
Q 2172 0 1784 0 
Q 1141 0 747 490 
Q 353 981 353 1791 
Q 353 2603 747 3093 
Q 1141 3584 1784 3584 
Q 2172 3584 2450 3431 
Q 2728 3278 2906 2969 
L 2906 3500 
L 3481 3500 
L 3481 434 
z
" transform="scale(0.015625)"/>
      </defs>
      <use xlink:href="#DejaVuSans-76"/>
      <use xlink:href="#DejaVuSans-67" x="59.179688"/>
      <use xlink:href="#DejaVuSans-67" x="122.65625"/>
      <use xlink:href="#DejaVuSans-31" x="186.132812"/>
      <use xlink:href="#DejaVuSans-39" x="249.755859"/>
     </g>
    </g>
    <g id="line2d_36">
     <path d="M 202.907812 139.441562 
L 212.907812 139.441562 
L 222.907812 139.441562 
" style="fill: none; stroke-dasharray: 5.55,2.4; stroke-dashoffset: 0; stroke: #8c564b; stroke-width: 1.5"/>
    </g>
    <g id="text_19">
     <!-- resnet50 -->
     <g transform="translate(230.907812 142.941562)scale(0.1 -0.1)">
      <use xlink:href="#DejaVuSans-72"/>
      <use xlink:href="#DejaVuSans-65" x="38.863281"/>
      <use xlink:href="#DejaVuSans-73" x="100.386719"/>
      <use xlink:href="#DejaVuSans-6e" x="152.486328"/>
      <use xlink:href="#DejaVuSans-65" x="215.865234"/>
      <use xlink:href="#DejaVuSans-74" x="277.388672"/>
      <use xlink:href="#DejaVuSans-35" x="316.597656"/>
      <use xlink:href="#DejaVuSans-30" x="380.220703"/>
     </g>
    </g>
    <g id="line2d_37">
     <path d="M 202.907812 154.119687 
L 212.907812 154.119687 
L 222.907812 154.119687 
" style="fill: none; stroke-dasharray: 5.55,2.4; stroke-dashoffset: 0; stroke: #e377c2; stroke-width: 1.5"/>
    </g>
    <g id="text_20">
     <!-- efficientnetv2_m -->
     <g transform="translate(230.907812 157.619687)scale(0.1 -0.1)">
      <defs>
       <path id="DejaVuSans-66" d="M 2375 4863 
L 2375 4384 
L 1825 4384 
Q 1516 4384 1395 4259 
Q 1275 4134 1275 3809 
L 1275 3500 
L 2222 3500 
L 2222 3053 
L 1275 3053 
L 1275 0 
L 697 0 
L 697 3053 
L 147 3053 
L 147 3500 
L 697 3500 
L 697 3744 
Q 697 4328 969 4595 
Q 1241 4863 1831 4863 
L 2375 4863 
z
" transform="scale(0.015625)"/>
       <path id="DejaVuSans-6d" d="M 3328 2828 
Q 3544 3216 3844 3400 
Q 4144 3584 4550 3584 
Q 5097 3584 5394 3201 
Q 5691 2819 5691 2113 
L 5691 0 
L 5113 0 
L 5113 2094 
Q 5113 2597 4934 2840 
Q 4756 3084 4391 3084 
Q 3944 3084 3684 2787 
Q 3425 2491 3425 1978 
L 3425 0 
L 2847 0 
L 2847 2094 
Q 2847 2600 2669 2842 
Q 2491 3084 2119 3084 
Q 1678 3084 1418 2786 
Q 1159 2488 1159 1978 
L 1159 0 
L 581 0 
L 581 3500 
L 1159 3500 
L 1159 2956 
Q 1356 3278 1631 3431 
Q 1906 3584 2284 3584 
Q 2666 3584 2933 3390 
Q 3200 3197 3328 2828 
z
" transform="scale(0.015625)"/>
      </defs>
      <use xlink:href="#DejaVuSans-65"/>
      <use xlink:href="#DejaVuSans-66" x="61.523438"/>
      <use xlink:href="#DejaVuSans-66" x="96.728516"/>
      <use xlink:href="#DejaVuSans-69" x="131.933594"/>
      <use xlink:href="#DejaVuSans-63" x="159.716797"/>
      <use xlink:href="#DejaVuSans-69" x="214.697266"/>
      <use xlink:href="#DejaVuSans-65" x="242.480469"/>
      <use xlink:href="#DejaVuSans-6e" x="304.003906"/>
      <use xlink:href="#DejaVuSans-74" x="367.382812"/>
      <use xlink:href="#DejaVuSans-6e" x="406.591797"/>
      <use xlink:href="#DejaVuSans-65" x="469.970703"/>
      <use xlink:href="#DejaVuSans-74" x="531.494141"/>
      <use xlink:href="#DejaVuSans-76" x="570.703125"/>
      <use xlink:href="#DejaVuSans-32" x="629.882812"/>
      <use xlink:href="#DejaVuSans-5f" x="693.505859"/>
      <use xlink:href="#DejaVuSans-6d" x="743.505859"/>
     </g>
    </g>
    <g id="line2d_38">
     <path d="M 202.907812 169.075937 
L 212.907812 169.075937 
L 222.907812 169.075937 
" style="fill: none; stroke-dasharray: 5.55,2.4; stroke-dashoffset: 0; stroke: #7f7f7f; stroke-width: 1.5"/>
    </g>
    <g id="text_21">
     <!-- convnext_b -->
     <g transform="translate(230.907812 172.575937)scale(0.1 -0.1)">
      <defs>
       <path id="DejaVuSans-78" d="M 3513 3500 
L 2247 1797 
L 3578 0 
L 2900 0 
L 1881 1375 
L 863 0 
L 184 0 
L 1544 1831 
L 300 3500 
L 978 3500 
L 1906 2253 
L 2834 3500 
L 3513 3500 
z
" transform="scale(0.015625)"/>
      </defs>
      <use xlink:href="#DejaVuSans-63"/>
      <use xlink:href="#DejaVuSans-6f" x="54.980469"/>
      <use xlink:href="#DejaVuSans-6e" x="116.162109"/>
      <use xlink:href="#DejaVuSans-76" x="179.541016"/>
      <use xlink:href="#DejaVuSans-6e" x="238.720703"/>
      <use xlink:href="#DejaVuSans-65" x="302.099609"/>
      <use xlink:href="#DejaVuSans-78" x="361.873047"/>
      <use xlink:href="#DejaVuSans-74" x="421.052734"/>
      <use xlink:href="#DejaVuSans-5f" x="460.261719"/>
      <use xlink:href="#DejaVuSans-62" x="510.261719"/>
     </g>
    </g>
   </g>
  </g>
 </g>
 <defs>
  <clipPath id="p5de29d5d13">
   <rect x="45" y="51.84" width="279" height="326.16"/>
  </clipPath>
 </defs>
</svg>
