<?xml version="1.0" encoding="utf-8" standalone="no"?>
<!DOCTYPE svg PUBLIC "-//W3C//DTD SVG 1.1//EN"
  "http://www.w3.org/Graphics/SVG/1.1/DTD/svg11.dtd">
<svg xmlns:xlink="http://www.w3.org/1999/xlink" width="360pt" height="432pt" viewBox="0 0 360 432" xmlns="http://www.w3.org/2000/svg" version="1.1">
 <metadata>
  <rdf:RDF xmlns:dc="http://purl.org/dc/elements/1.1/" xmlns:cc="http://creativecommons.org/ns#" xmlns:rdf="http://www.w3.org/1999/02/22-rdf-syntax-ns#">
   <cc:Work>
    <dc:type rdf:resource="http://purl.org/dc/dcmitype/StillImage"/>
    <dc:date>2022-05-27T11:32:16.230090</dc:date>
    <dc:format>image/svg+xml</dc:format>
    <dc:creator>
     <cc:Agent>
      <dc:title>Matplotlib v3.5.2, https://matplotlib.org/</dc:title>
     </cc:Agent>
    </dc:creator>
   </cc:Work>
  </rdf:RDF>
 </metadata>
 <defs>
  <style type="text/css">*{stroke-linejoin: round; stroke-linecap: butt}</style>
 </defs>
 <g id="figure_1">
  <g id="patch_1">
   <path d="M 0 432 
L 360 432 
L 360 0 
L 0 0 
L 0 432 
z
" style="fill: none"/>
  </g>
  <g id="axes_1">
   <g id="patch_2">
    <path d="M 45 378 
L 324 378 
L 324 51.84 
L 45 51.84 
z
" style="fill: #ffffff"/>
   </g>
   <g id="PolyCollection_1">
    <path d="M 57.681818 -101.494975 
L 57.681818 -74.841707 
L 66.4279 63.988181 
L 75.173981 141.978018 
L 83.920063 177.314478 
L 92.666144 194.831503 
L 101.412226 217.069839 
L 110.158307 233.828031 
L 118.904389 232.880623 
L 127.65047 250.840423 
L 136.396552 247.545029 
L 145.142633 252.318071 
L 153.888715 245.177082 
L 162.634796 268.125663 
L 171.380878 259.559094 
L 180.126959 247.517292 
L 188.873041 258.673746 
L 197.619122 286.215916 
L 206.365204 280.388237 
L 215.111285 286.347075 
L 223.857367 284.736386 
L 232.603448 279.134229 
L 241.34953 278.75197 
L 250.095611 286.028281 
L 258.841693 287.204919 
L 267.587774 288.210919 
L 276.333856 290.255902 
L 285.079937 290.793403 
L 293.826019 291.09924 
L 302.5721 291.431476 
L 311.318182 293.824728 
L 311.318182 281.587658 
L 311.318182 281.587658 
L 302.5721 279.713423 
L 293.826019 277.823639 
L 285.079937 279.444189 
L 276.333856 277.659389 
L 267.587774 275.426144 
L 258.841693 271.482736 
L 250.095611 270.984751 
L 241.34953 262.492747 
L 232.603448 266.784119 
L 223.857367 254.97628 
L 215.111285 266.83934 
L 206.365204 257.500869 
L 197.619122 273.639398 
L 188.873041 234.967215 
L 180.126959 216.927097 
L 171.380878 233.614805 
L 162.634796 242.46947 
L 153.888715 228.221295 
L 145.142633 243.454607 
L 136.396552 234.437348 
L 127.65047 226.704178 
L 118.904389 214.929706 
L 110.158307 222.024718 
L 101.412226 190.85533 
L 92.666144 171.602864 
L 83.920063 163.554996 
L 75.173981 124.828 
L 66.4279 37.126771 
L 57.681818 -101.494975 
z
" clip-path="url(#p1ed944cdd0)" style="fill: #1f77b4; fill-opacity: 0.2"/>
   </g>
   <g id="PolyCollection_2">
    <path d="M 57.681818 136.604929 
L 57.681818 155.029654 
L 66.4279 243.778665 
L 75.173981 274.568016 
L 83.920063 289.201489 
L 92.666144 291.940687 
L 101.412226 308.370036 
L 110.158307 318.62952 
L 118.904389 326.655269 
L 127.65047 311.491308 
L 136.396552 320.983668 
L 145.142633 319.04447 
L 153.888715 329.666596 
L 162.634796 330.441104 
L 171.380878 336.966939 
L 180.126959 337.576876 
L 188.873041 332.344328 
L 197.619122 334.32206 
L 206.365204 337.135666 
L 215.111285 337.645768 
L 223.857367 335.476 
L 232.603448 337.063247 
L 241.34953 337.171104 
L 241.34953 318.809868 
L 241.34953 318.809868 
L 232.603448 318.847568 
L 223.857367 316.199357 
L 215.111285 317.117921 
L 206.365204 317.91272 
L 197.619122 318.95122 
L 188.873041 316.489883 
L 180.126959 317.826815 
L 171.380878 320.835458 
L 162.634796 294.187529 
L 153.888715 304.662449 
L 145.142633 304.437831 
L 136.396552 303.332925 
L 127.65047 297.658279 
L 118.904389 305.670886 
L 110.158307 296.951165 
L 101.412226 294.37345 
L 92.666144 283.08357 
L 83.920063 282.230035 
L 75.173981 263.549682 
L 66.4279 231.772085 
L 57.681818 136.604929 
z
" clip-path="url(#p1ed944cdd0)" style="fill: #ff7f0e; fill-opacity: 0.2"/>
   </g>
   <g id="PolyCollection_3">
    <path d="M 57.681818 -459.361538 
L 57.681818 -247.070725 
L 66.4279 7.595542 
L 75.173981 120.650465 
L 83.920063 124.395496 
L 92.666144 176.816363 
L 101.412226 186.625215 
L 110.158307 180.356758 
L 118.904389 204.06481 
L 127.65047 222.114801 
L 136.396552 226.201186 
L 145.142633 200.083988 
L 153.888715 226.572706 
L 162.634796 214.069262 
L 171.380878 217.270899 
L 180.126959 223.621085 
L 188.873041 246.761957 
L 197.619122 249.89173 
L 206.365204 252.046785 
L 215.111285 251.102752 
L 223.857367 253.125013 
L 232.603448 251.330048 
L 241.34953 258.60502 
L 250.095611 257.237463 
L 258.841693 254.09049 
L 258.841693 239.233492 
L 258.841693 239.233492 
L 250.095611 242.23836 
L 241.34953 244.050702 
L 232.603448 237.788252 
L 223.857367 239.449071 
L 215.111285 239.074923 
L 206.365204 237.142707 
L 197.619122 224.786353 
L 188.873041 232.872265 
L 180.126959 186.571948 
L 171.380878 157.876335 
L 162.634796 186.99846 
L 153.888715 208.832848 
L 145.142633 160.077285 
L 136.396552 197.153123 
L 127.65047 195.543195 
L 118.904389 186.041925 
L 110.158307 153.94664 
L 101.412226 153.008978 
L 92.666144 146.287307 
L 83.920063 80.856639 
L 75.173981 52.858687 
L 66.4279 -136.218587 
L 57.681818 -459.361538 
z
" clip-path="url(#p1ed944cdd0)" style="fill: #2ca02c; fill-opacity: 0.2"/>
   </g>
   <g id="PolyCollection_4">
    <path d="M 57.681818 -16.644985 
L 57.681818 14.209259 
L 66.4279 118.490438 
L 75.173981 179.562735 
L 83.920063 199.256792 
L 92.666144 210.653541 
L 101.412226 232.209978 
L 110.158307 240.403407 
L 118.904389 242.213864 
L 127.65047 243.043399 
L 136.396552 254.989696 
L 145.142633 266.502976 
L 153.888715 262.084378 
L 162.634796 265.10893 
L 171.380878 259.869293 
L 180.126959 272.921126 
L 188.873041 279.513231 
L 197.619122 274.959166 
L 206.365204 281.012864 
L 215.111285 281.222272 
L 223.857367 280.672807 
L 232.603448 282.774901 
L 241.34953 280.972896 
L 250.095611 281.027558 
L 250.095611 268.97031 
L 250.095611 268.97031 
L 241.34953 266.422563 
L 232.603448 266.286006 
L 223.857367 269.588659 
L 215.111285 269.146079 
L 206.365204 269.348766 
L 197.619122 251.414804 
L 188.873041 246.133846 
L 180.126959 241.920959 
L 171.380878 239.80757 
L 162.634796 247.687108 
L 153.888715 237.154997 
L 145.142633 243.075398 
L 136.396552 236.348308 
L 127.65047 222.001911 
L 118.904389 216.052666 
L 110.158307 219.227858 
L 101.412226 212.029853 
L 92.666144 193.028985 
L 83.920063 183.015707 
L 75.173981 165.641795 
L 66.4279 96.47423 
L 57.681818 -16.644985 
z
" clip-path="url(#p1ed944cdd0)" style="fill: #d62728; fill-opacity: 0.2"/>
   </g>
   <g id="PolyCollection_5">
    <path d="M 57.681818 -149.863471 
L 57.681818 -111.548773 
L 66.4279 42.390063 
L 75.173981 124.860973 
L 83.920063 166.575871 
L 92.666144 171.924374 
L 101.412226 200.689291 
L 110.158307 207.978401 
L 118.904389 208.304032 
L 127.65047 206.943138 
L 136.396552 237.34479 
L 145.142633 250.775815 
L 153.888715 252.320851 
L 162.634796 261.907484 
L 171.380878 259.484464 
L 180.126959 264.417991 
L 188.873041 266.207616 
L 197.619122 269.102425 
L 206.365204 269.952946 
L 215.111285 272.089337 
L 223.857367 268.749094 
L 223.857367 255.902858 
L 223.857367 255.902858 
L 215.111285 258.048817 
L 206.365204 255.865361 
L 197.619122 254.734573 
L 188.873041 250.426476 
L 180.126959 252.062089 
L 171.380878 237.227614 
L 162.634796 241.45785 
L 153.888715 229.581307 
L 145.142633 232.876856 
L 136.396552 199.757361 
L 127.65047 178.160248 
L 118.904389 184.882959 
L 110.158307 196.824763 
L 101.412226 170.95776 
L 92.666144 152.301759 
L 83.920063 133.339539 
L 75.173981 95.794285 
L 66.4279 5.008515 
L 57.681818 -149.863471 
z
" clip-path="url(#p1ed944cdd0)" style="fill: #9467bd; fill-opacity: 0.2"/>
   </g>
   <g id="PolyCollection_6">
    <path d="M 57.681818 143.495607 
L 57.681818 164.276383 
L 66.4279 231.584152 
L 75.173981 251.313556 
L 83.920063 278.450738 
L 92.666144 280.832345 
L 101.412226 278.277784 
L 110.158307 287.312688 
L 118.904389 295.29382 
L 127.65047 287.068788 
L 136.396552 301.163241 
L 145.142633 309.826559 
L 153.888715 303.500286 
L 162.634796 316.046842 
L 171.380878 312.491162 
L 180.126959 313.235446 
L 188.873041 300.833509 
L 197.619122 320.165162 
L 206.365204 326.313307 
L 215.111285 325.717343 
L 223.857367 325.88975 
L 232.603448 332.77485 
L 241.34953 329.933714 
L 250.095611 333.036432 
L 258.841693 331.451103 
L 258.841693 311.199751 
L 258.841693 311.199751 
L 250.095611 312.791066 
L 241.34953 307.757697 
L 232.603448 312.558284 
L 223.857367 296.65345 
L 215.111285 293.632525 
L 206.365204 300.109684 
L 197.619122 291.039494 
L 188.873041 290.070872 
L 180.126959 289.394164 
L 171.380878 298.824567 
L 162.634796 290.33346 
L 153.888715 287.316542 
L 145.142633 284.226885 
L 136.396552 278.992024 
L 127.65047 276.191012 
L 118.904389 276.552015 
L 110.158307 268.097266 
L 101.412226 261.969471 
L 92.666144 265.838874 
L 83.920063 264.417417 
L 75.173981 236.366892 
L 66.4279 219.609215 
L 57.681818 143.495607 
z
" clip-path="url(#p1ed944cdd0)" style="fill: #8c564b; fill-opacity: 0.2"/>
   </g>
   <g id="PolyCollection_7">
    <path d="M 57.681818 -92.64698 
L 57.681818 -81.459152 
L 66.4279 197.373683 
L 75.173981 260.945481 
L 83.920063 285.370661 
L 92.666144 298.074356 
L 101.412226 294.019481 
L 110.158307 295.027307 
L 118.904389 294.831774 
L 127.65047 302.382059 
L 136.396552 302.745975 
L 145.142633 305.399938 
L 153.888715 295.594167 
L 162.634796 300.671928 
L 171.380878 302.841742 
L 180.126959 307.381487 
L 188.873041 303.765896 
L 197.619122 304.464256 
L 206.365204 309.412046 
L 215.111285 308.039015 
L 223.857367 305.472051 
L 223.857367 286.031546 
L 223.857367 286.031546 
L 215.111285 286.506603 
L 206.365204 288.987703 
L 197.619122 285.276798 
L 188.873041 283.253902 
L 180.126959 282.865684 
L 171.380878 284.976016 
L 162.634796 282.448653 
L 153.888715 278.837136 
L 145.142633 286.03953 
L 136.396552 280.111417 
L 127.65047 280.347386 
L 118.904389 278.067596 
L 110.158307 282.833445 
L 101.412226 270.810445 
L 92.666144 270.770636 
L 83.920063 262.959282 
L 75.173981 250.737738 
L 66.4279 184.720496 
L 57.681818 -92.64698 
z
" clip-path="url(#p1ed944cdd0)" style="fill: #e377c2; fill-opacity: 0.2"/>
   </g>
   <g id="PolyCollection_8">
    <path d="M 57.681818 137.280211 
L 57.681818 151.03924 
L 66.4279 259.792301 
L 75.173981 294.748204 
L 83.920063 307.794069 
L 92.666144 313.772963 
L 101.412226 320.830971 
L 110.158307 309.795277 
L 118.904389 313.816268 
L 127.65047 316.344013 
L 136.396552 318.470969 
L 145.142633 332.68846 
L 153.888715 323.229753 
L 162.634796 319.072417 
L 171.380878 326.550854 
L 180.126959 332.962486 
L 188.873041 337.612526 
L 197.619122 335.917063 
L 206.365204 332.50698 
L 215.111285 335.387585 
L 223.857367 338.125641 
L 223.857367 320.41057 
L 223.857367 320.41057 
L 215.111285 317.176547 
L 206.365204 318.589263 
L 197.619122 318.573733 
L 188.873041 317.126232 
L 180.126959 318.088186 
L 171.380878 316.571079 
L 162.634796 306.04543 
L 153.888715 312.677883 
L 145.142633 317.830889 
L 136.396552 312.748446 
L 127.65047 301.624727 
L 118.904389 302.869818 
L 110.158307 299.173075 
L 101.412226 311.842704 
L 92.666144 308.163408 
L 83.920063 293.623258 
L 75.173981 281.683321 
L 66.4279 252.181872 
L 57.681818 137.280211 
z
" clip-path="url(#p1ed944cdd0)" style="fill: #7f7f7f; fill-opacity: 0.2"/>
   </g>
   <g id="matplotlib.axis_1">
    <g id="xtick_1">
     <g id="line2d_1">
      <path d="M 48.935737 378 
L 48.935737 51.84 
" clip-path="url(#p1ed944cdd0)" style="fill: none; stroke: #b0b0b0; stroke-width: 0.8; stroke-linecap: square"/>
     </g>
     <g id="line2d_2">
      <defs>
       <path id="mc5aa4e3211" d="M 0 0 
L 0 3.5 
" style="stroke: #000000; stroke-width: 0.8"/>
      </defs>
      <g>
       <use xlink:href="#mc5aa4e3211" x="48.935737" y="378" style="stroke: #000000; stroke-width: 0.8"/>
      </g>
     </g>
     <g id="text_1">
      <!-- 0 -->
      <g transform="translate(45.754487 392.598437)scale(0.1 -0.1)">
       <defs>
        <path id="DejaVuSans-30" d="M 2034 4250 
Q 1547 4250 1301 3770 
Q 1056 3291 1056 2328 
Q 1056 1369 1301 889 
Q 1547 409 2034 409 
Q 2525 409 2770 889 
Q 3016 1369 3016 2328 
Q 3016 3291 2770 3770 
Q 2525 4250 2034 4250 
z
M 2034 4750 
Q 2819 4750 3233 4129 
Q 3647 3509 3647 2328 
Q 3647 1150 3233 529 
Q 2819 -91 2034 -91 
Q 1250 -91 836 529 
Q 422 1150 422 2328 
Q 422 3509 836 4129 
Q 1250 4750 2034 4750 
z
" transform="scale(0.015625)"/>
       </defs>
       <use xlink:href="#DejaVuSans-30"/>
      </g>
     </g>
    </g>
    <g id="xtick_2">
     <g id="line2d_3">
      <path d="M 92.666144 378 
L 92.666144 51.84 
" clip-path="url(#p1ed944cdd0)" style="fill: none; stroke: #b0b0b0; stroke-width: 0.8; stroke-linecap: square"/>
     </g>
     <g id="line2d_4">
      <g>
       <use xlink:href="#mc5aa4e3211" x="92.666144" y="378" style="stroke: #000000; stroke-width: 0.8"/>
      </g>
     </g>
     <g id="text_2">
      <!-- 5 -->
      <g transform="translate(89.484894 392.598437)scale(0.1 -0.1)">
       <defs>
        <path id="DejaVuSans-35" d="M 691 4666 
L 3169 4666 
L 3169 4134 
L 1269 4134 
L 1269 2991 
Q 1406 3038 1543 3061 
Q 1681 3084 1819 3084 
Q 2600 3084 3056 2656 
Q 3513 2228 3513 1497 
Q 3513 744 3044 326 
Q 2575 -91 1722 -91 
Q 1428 -91 1123 -41 
Q 819 9 494 109 
L 494 744 
Q 775 591 1075 516 
Q 1375 441 1709 441 
Q 2250 441 2565 725 
Q 2881 1009 2881 1497 
Q 2881 1984 2565 2268 
Q 2250 2553 1709 2553 
Q 1456 2553 1204 2497 
Q 953 2441 691 2322 
L 691 4666 
z
" transform="scale(0.015625)"/>
       </defs>
       <use xlink:href="#DejaVuSans-35"/>
      </g>
     </g>
    </g>
    <g id="xtick_3">
     <g id="line2d_5">
      <path d="M 136.396552 378 
L 136.396552 51.84 
" clip-path="url(#p1ed944cdd0)" style="fill: none; stroke: #b0b0b0; stroke-width: 0.8; stroke-linecap: square"/>
     </g>
     <g id="line2d_6">
      <g>
       <use xlink:href="#mc5aa4e3211" x="136.396552" y="378" style="stroke: #000000; stroke-width: 0.8"/>
      </g>
     </g>
     <g id="text_3">
      <!-- 10 -->
      <g transform="translate(130.034052 392.598437)scale(0.1 -0.1)">
       <defs>
        <path id="DejaVuSans-31" d="M 794 531 
L 1825 531 
L 1825 4091 
L 703 3866 
L 703 4441 
L 1819 4666 
L 2450 4666 
L 2450 531 
L 3481 531 
L 3481 0 
L 794 0 
L 794 531 
z
" transform="scale(0.015625)"/>
       </defs>
       <use xlink:href="#DejaVuSans-31"/>
       <use xlink:href="#DejaVuSans-30" x="63.623047"/>
      </g>
     </g>
    </g>
    <g id="xtick_4">
     <g id="line2d_7">
      <path d="M 180.126959 378 
L 180.126959 51.84 
" clip-path="url(#p1ed944cdd0)" style="fill: none; stroke: #b0b0b0; stroke-width: 0.8; stroke-linecap: square"/>
     </g>
     <g id="line2d_8">
      <g>
       <use xlink:href="#mc5aa4e3211" x="180.126959" y="378" style="stroke: #000000; stroke-width: 0.8"/>
      </g>
     </g>
     <g id="text_4">
      <!-- 15 -->
      <g transform="translate(173.764459 392.598437)scale(0.1 -0.1)">
       <use xlink:href="#DejaVuSans-31"/>
       <use xlink:href="#DejaVuSans-35" x="63.623047"/>
      </g>
     </g>
    </g>
    <g id="xtick_5">
     <g id="line2d_9">
      <path d="M 223.857367 378 
L 223.857367 51.84 
" clip-path="url(#p1ed944cdd0)" style="fill: none; stroke: #b0b0b0; stroke-width: 0.8; stroke-linecap: square"/>
     </g>
     <g id="line2d_10">
      <g>
       <use xlink:href="#mc5aa4e3211" x="223.857367" y="378" style="stroke: #000000; stroke-width: 0.8"/>
      </g>
     </g>
     <g id="text_5">
      <!-- 20 -->
      <g transform="translate(217.494867 392.598437)scale(0.1 -0.1)">
       <defs>
        <path id="DejaVuSans-32" d="M 1228 531 
L 3431 531 
L 3431 0 
L 469 0 
L 469 531 
Q 828 903 1448 1529 
Q 2069 2156 2228 2338 
Q 2531 2678 2651 2914 
Q 2772 3150 2772 3378 
Q 2772 3750 2511 3984 
Q 2250 4219 1831 4219 
Q 1534 4219 1204 4116 
Q 875 4013 500 3803 
L 500 4441 
Q 881 4594 1212 4672 
Q 1544 4750 1819 4750 
Q 2544 4750 2975 4387 
Q 3406 4025 3406 3419 
Q 3406 3131 3298 2873 
Q 3191 2616 2906 2266 
Q 2828 2175 2409 1742 
Q 1991 1309 1228 531 
z
" transform="scale(0.015625)"/>
       </defs>
       <use xlink:href="#DejaVuSans-32"/>
       <use xlink:href="#DejaVuSans-30" x="63.623047"/>
      </g>
     </g>
    </g>
    <g id="xtick_6">
     <g id="line2d_11">
      <path d="M 267.587774 378 
L 267.587774 51.84 
" clip-path="url(#p1ed944cdd0)" style="fill: none; stroke: #b0b0b0; stroke-width: 0.8; stroke-linecap: square"/>
     </g>
     <g id="line2d_12">
      <g>
       <use xlink:href="#mc5aa4e3211" x="267.587774" y="378" style="stroke: #000000; stroke-width: 0.8"/>
      </g>
     </g>
     <g id="text_6">
      <!-- 25 -->
      <g transform="translate(261.225274 392.598437)scale(0.1 -0.1)">
       <use xlink:href="#DejaVuSans-32"/>
       <use xlink:href="#DejaVuSans-35" x="63.623047"/>
      </g>
     </g>
    </g>
    <g id="xtick_7">
     <g id="line2d_13">
      <path d="M 311.318182 378 
L 311.318182 51.84 
" clip-path="url(#p1ed944cdd0)" style="fill: none; stroke: #b0b0b0; stroke-width: 0.8; stroke-linecap: square"/>
     </g>
     <g id="line2d_14">
      <g>
       <use xlink:href="#mc5aa4e3211" x="311.318182" y="378" style="stroke: #000000; stroke-width: 0.8"/>
      </g>
     </g>
     <g id="text_7">
      <!-- 30 -->
      <g transform="translate(304.955682 392.598437)scale(0.1 -0.1)">
       <defs>
        <path id="DejaVuSans-33" d="M 2597 2516 
Q 3050 2419 3304 2112 
Q 3559 1806 3559 1356 
Q 3559 666 3084 287 
Q 2609 -91 1734 -91 
Q 1441 -91 1130 -33 
Q 819 25 488 141 
L 488 750 
Q 750 597 1062 519 
Q 1375 441 1716 441 
Q 2309 441 2620 675 
Q 2931 909 2931 1356 
Q 2931 1769 2642 2001 
Q 2353 2234 1838 2234 
L 1294 2234 
L 1294 2753 
L 1863 2753 
Q 2328 2753 2575 2939 
Q 2822 3125 2822 3475 
Q 2822 3834 2567 4026 
Q 2313 4219 1838 4219 
Q 1578 4219 1281 4162 
Q 984 4106 628 3988 
L 628 4550 
Q 988 4650 1302 4700 
Q 1616 4750 1894 4750 
Q 2613 4750 3031 4423 
Q 3450 4097 3450 3541 
Q 3450 3153 3228 2886 
Q 3006 2619 2597 2516 
z
" transform="scale(0.015625)"/>
       </defs>
       <use xlink:href="#DejaVuSans-33"/>
       <use xlink:href="#DejaVuSans-30" x="63.623047"/>
      </g>
     </g>
    </g>
    <g id="text_8">
     <!-- Epochs -->
     <g transform="translate(166.584375 406.276563)scale(0.1 -0.1)">
      <defs>
       <path id="DejaVuSans-45" d="M 628 4666 
L 3578 4666 
L 3578 4134 
L 1259 4134 
L 1259 2753 
L 3481 2753 
L 3481 2222 
L 1259 2222 
L 1259 531 
L 3634 531 
L 3634 0 
L 628 0 
L 628 4666 
z
" transform="scale(0.015625)"/>
       <path id="DejaVuSans-70" d="M 1159 525 
L 1159 -1331 
L 581 -1331 
L 581 3500 
L 1159 3500 
L 1159 2969 
Q 1341 3281 1617 3432 
Q 1894 3584 2278 3584 
Q 2916 3584 3314 3078 
Q 3713 2572 3713 1747 
Q 3713 922 3314 415 
Q 2916 -91 2278 -91 
Q 1894 -91 1617 61 
Q 1341 213 1159 525 
z
M 3116 1747 
Q 3116 2381 2855 2742 
Q 2594 3103 2138 3103 
Q 1681 3103 1420 2742 
Q 1159 2381 1159 1747 
Q 1159 1113 1420 752 
Q 1681 391 2138 391 
Q 2594 391 2855 752 
Q 3116 1113 3116 1747 
z
" transform="scale(0.015625)"/>
       <path id="DejaVuSans-6f" d="M 1959 3097 
Q 1497 3097 1228 2736 
Q 959 2375 959 1747 
Q 959 1119 1226 758 
Q 1494 397 1959 397 
Q 2419 397 2687 759 
Q 2956 1122 2956 1747 
Q 2956 2369 2687 2733 
Q 2419 3097 1959 3097 
z
M 1959 3584 
Q 2709 3584 3137 3096 
Q 3566 2609 3566 1747 
Q 3566 888 3137 398 
Q 2709 -91 1959 -91 
Q 1206 -91 779 398 
Q 353 888 353 1747 
Q 353 2609 779 3096 
Q 1206 3584 1959 3584 
z
" transform="scale(0.015625)"/>
       <path id="DejaVuSans-63" d="M 3122 3366 
L 3122 2828 
Q 2878 2963 2633 3030 
Q 2388 3097 2138 3097 
Q 1578 3097 1268 2742 
Q 959 2388 959 1747 
Q 959 1106 1268 751 
Q 1578 397 2138 397 
Q 2388 397 2633 464 
Q 2878 531 3122 666 
L 3122 134 
Q 2881 22 2623 -34 
Q 2366 -91 2075 -91 
Q 1284 -91 818 406 
Q 353 903 353 1747 
Q 353 2603 823 3093 
Q 1294 3584 2113 3584 
Q 2378 3584 2631 3529 
Q 2884 3475 3122 3366 
z
" transform="scale(0.015625)"/>
       <path id="DejaVuSans-68" d="M 3513 2113 
L 3513 0 
L 2938 0 
L 2938 2094 
Q 2938 2591 2744 2837 
Q 2550 3084 2163 3084 
Q 1697 3084 1428 2787 
Q 1159 2491 1159 1978 
L 1159 0 
L 581 0 
L 581 4863 
L 1159 4863 
L 1159 2956 
Q 1366 3272 1645 3428 
Q 1925 3584 2291 3584 
Q 2894 3584 3203 3211 
Q 3513 2838 3513 2113 
z
" transform="scale(0.015625)"/>
       <path id="DejaVuSans-73" d="M 2834 3397 
L 2834 2853 
Q 2591 2978 2328 3040 
Q 2066 3103 1784 3103 
Q 1356 3103 1142 2972 
Q 928 2841 928 2578 
Q 928 2378 1081 2264 
Q 1234 2150 1697 2047 
L 1894 2003 
Q 2506 1872 2764 1633 
Q 3022 1394 3022 966 
Q 3022 478 2636 193 
Q 2250 -91 1575 -91 
Q 1294 -91 989 -36 
Q 684 19 347 128 
L 347 722 
Q 666 556 975 473 
Q 1284 391 1588 391 
Q 1994 391 2212 530 
Q 2431 669 2431 922 
Q 2431 1156 2273 1281 
Q 2116 1406 1581 1522 
L 1381 1569 
Q 847 1681 609 1914 
Q 372 2147 372 2553 
Q 372 3047 722 3315 
Q 1072 3584 1716 3584 
Q 2034 3584 2315 3537 
Q 2597 3491 2834 3397 
z
" transform="scale(0.015625)"/>
      </defs>
      <use xlink:href="#DejaVuSans-45"/>
      <use xlink:href="#DejaVuSans-70" x="63.183594"/>
      <use xlink:href="#DejaVuSans-6f" x="126.660156"/>
      <use xlink:href="#DejaVuSans-63" x="187.841797"/>
      <use xlink:href="#DejaVuSans-68" x="242.822266"/>
      <use xlink:href="#DejaVuSans-73" x="306.201172"/>
     </g>
    </g>
   </g>
   <g id="matplotlib.axis_2">
    <g id="ytick_1">
     <g id="line2d_15">
      <path d="M 45 344.167599 
L 324 344.167599 
" clip-path="url(#p1ed944cdd0)" style="fill: none; stroke: #b0b0b0; stroke-width: 0.8; stroke-linecap: square"/>
     </g>
     <g id="line2d_16">
      <defs>
       <path id="m19a35be79c" d="M 0 0 
L -3.5 0 
" style="stroke: #000000; stroke-width: 0.8"/>
      </defs>
      <g>
       <use xlink:href="#m19a35be79c" x="45" y="344.167599" style="stroke: #000000; stroke-width: 0.8"/>
      </g>
     </g>
     <g id="text_9">
      <!-- 0.8 -->
      <g transform="translate(22.096875 347.966818)scale(0.1 -0.1)">
       <defs>
        <path id="DejaVuSans-2e" d="M 684 794 
L 1344 794 
L 1344 0 
L 684 0 
L 684 794 
z
" transform="scale(0.015625)"/>
        <path id="DejaVuSans-38" d="M 2034 2216 
Q 1584 2216 1326 1975 
Q 1069 1734 1069 1313 
Q 1069 891 1326 650 
Q 1584 409 2034 409 
Q 2484 409 2743 651 
Q 3003 894 3003 1313 
Q 3003 1734 2745 1975 
Q 2488 2216 2034 2216 
z
M 1403 2484 
Q 997 2584 770 2862 
Q 544 3141 544 3541 
Q 544 4100 942 4425 
Q 1341 4750 2034 4750 
Q 2731 4750 3128 4425 
Q 3525 4100 3525 3541 
Q 3525 3141 3298 2862 
Q 3072 2584 2669 2484 
Q 3125 2378 3379 2068 
Q 3634 1759 3634 1313 
Q 3634 634 3220 271 
Q 2806 -91 2034 -91 
Q 1263 -91 848 271 
Q 434 634 434 1313 
Q 434 1759 690 2068 
Q 947 2378 1403 2484 
z
M 1172 3481 
Q 1172 3119 1398 2916 
Q 1625 2713 2034 2713 
Q 2441 2713 2670 2916 
Q 2900 3119 2900 3481 
Q 2900 3844 2670 4047 
Q 2441 4250 2034 4250 
Q 1625 4250 1398 4047 
Q 1172 3844 1172 3481 
z
" transform="scale(0.015625)"/>
       </defs>
       <use xlink:href="#DejaVuSans-30"/>
       <use xlink:href="#DejaVuSans-2e" x="63.623047"/>
       <use xlink:href="#DejaVuSans-38" x="95.410156"/>
      </g>
     </g>
    </g>
    <g id="ytick_2">
     <g id="line2d_17">
      <path d="M 45 279.205911 
L 324 279.205911 
" clip-path="url(#p1ed944cdd0)" style="fill: none; stroke: #b0b0b0; stroke-width: 0.8; stroke-linecap: square"/>
     </g>
     <g id="line2d_18">
      <g>
       <use xlink:href="#m19a35be79c" x="45" y="279.205911" style="stroke: #000000; stroke-width: 0.8"/>
      </g>
     </g>
     <g id="text_10">
      <!-- 0.9 -->
      <g transform="translate(22.096875 283.005129)scale(0.1 -0.1)">
       <defs>
        <path id="DejaVuSans-39" d="M 703 97 
L 703 672 
Q 941 559 1184 500 
Q 1428 441 1663 441 
Q 2288 441 2617 861 
Q 2947 1281 2994 2138 
Q 2813 1869 2534 1725 
Q 2256 1581 1919 1581 
Q 1219 1581 811 2004 
Q 403 2428 403 3163 
Q 403 3881 828 4315 
Q 1253 4750 1959 4750 
Q 2769 4750 3195 4129 
Q 3622 3509 3622 2328 
Q 3622 1225 3098 567 
Q 2575 -91 1691 -91 
Q 1453 -91 1209 -44 
Q 966 3 703 97 
z
M 1959 2075 
Q 2384 2075 2632 2365 
Q 2881 2656 2881 3163 
Q 2881 3666 2632 3958 
Q 2384 4250 1959 4250 
Q 1534 4250 1286 3958 
Q 1038 3666 1038 3163 
Q 1038 2656 1286 2365 
Q 1534 2075 1959 2075 
z
" transform="scale(0.015625)"/>
       </defs>
       <use xlink:href="#DejaVuSans-30"/>
       <use xlink:href="#DejaVuSans-2e" x="63.623047"/>
       <use xlink:href="#DejaVuSans-39" x="95.410156"/>
      </g>
     </g>
    </g>
    <g id="ytick_3">
     <g id="line2d_19">
      <path d="M 45 214.244222 
L 324 214.244222 
" clip-path="url(#p1ed944cdd0)" style="fill: none; stroke: #b0b0b0; stroke-width: 0.8; stroke-linecap: square"/>
     </g>
     <g id="line2d_20">
      <g>
       <use xlink:href="#m19a35be79c" x="45" y="214.244222" style="stroke: #000000; stroke-width: 0.8"/>
      </g>
     </g>
     <g id="text_11">
      <!-- 1.0 -->
      <g transform="translate(22.096875 218.043441)scale(0.1 -0.1)">
       <use xlink:href="#DejaVuSans-31"/>
       <use xlink:href="#DejaVuSans-2e" x="63.623047"/>
       <use xlink:href="#DejaVuSans-30" x="95.410156"/>
      </g>
     </g>
    </g>
    <g id="ytick_4">
     <g id="line2d_21">
      <path d="M 45 149.282533 
L 324 149.282533 
" clip-path="url(#p1ed944cdd0)" style="fill: none; stroke: #b0b0b0; stroke-width: 0.8; stroke-linecap: square"/>
     </g>
     <g id="line2d_22">
      <g>
       <use xlink:href="#m19a35be79c" x="45" y="149.282533" style="stroke: #000000; stroke-width: 0.8"/>
      </g>
     </g>
     <g id="text_12">
      <!-- 1.1 -->
      <g transform="translate(22.096875 153.081752)scale(0.1 -0.1)">
       <use xlink:href="#DejaVuSans-31"/>
       <use xlink:href="#DejaVuSans-2e" x="63.623047"/>
       <use xlink:href="#DejaVuSans-31" x="95.410156"/>
      </g>
     </g>
    </g>
    <g id="ytick_5">
     <g id="line2d_23">
      <path d="M 45 84.320844 
L 324 84.320844 
" clip-path="url(#p1ed944cdd0)" style="fill: none; stroke: #b0b0b0; stroke-width: 0.8; stroke-linecap: square"/>
     </g>
     <g id="line2d_24">
      <g>
       <use xlink:href="#m19a35be79c" x="45" y="84.320844" style="stroke: #000000; stroke-width: 0.8"/>
      </g>
     </g>
     <g id="text_13">
      <!-- 1.2 -->
      <g transform="translate(22.096875 88.120063)scale(0.1 -0.1)">
       <use xlink:href="#DejaVuSans-31"/>
       <use xlink:href="#DejaVuSans-2e" x="63.623047"/>
       <use xlink:href="#DejaVuSans-32" x="95.410156"/>
      </g>
     </g>
    </g>
    <g id="text_14">
     <!-- Cross Entropy Loss ($\bar{x} \pm s \div \sqrt{N}$) -->
     <g transform="translate(15.996875 293.82)rotate(-90)scale(0.1 -0.1)">
      <defs>
       <path id="DejaVuSans-43" d="M 4122 4306 
L 4122 3641 
Q 3803 3938 3442 4084 
Q 3081 4231 2675 4231 
Q 1875 4231 1450 3742 
Q 1025 3253 1025 2328 
Q 1025 1406 1450 917 
Q 1875 428 2675 428 
Q 3081 428 3442 575 
Q 3803 722 4122 1019 
L 4122 359 
Q 3791 134 3420 21 
Q 3050 -91 2638 -91 
Q 1578 -91 968 557 
Q 359 1206 359 2328 
Q 359 3453 968 4101 
Q 1578 4750 2638 4750 
Q 3056 4750 3426 4639 
Q 3797 4528 4122 4306 
z
" transform="scale(0.015625)"/>
       <path id="DejaVuSans-72" d="M 2631 2963 
Q 2534 3019 2420 3045 
Q 2306 3072 2169 3072 
Q 1681 3072 1420 2755 
Q 1159 2438 1159 1844 
L 1159 0 
L 581 0 
L 581 3500 
L 1159 3500 
L 1159 2956 
Q 1341 3275 1631 3429 
Q 1922 3584 2338 3584 
Q 2397 3584 2469 3576 
Q 2541 3569 2628 3553 
L 2631 2963 
z
" transform="scale(0.015625)"/>
       <path id="DejaVuSans-20" transform="scale(0.015625)"/>
       <path id="DejaVuSans-6e" d="M 3513 2113 
L 3513 0 
L 2938 0 
L 2938 2094 
Q 2938 2591 2744 2837 
Q 2550 3084 2163 3084 
Q 1697 3084 1428 2787 
Q 1159 2491 1159 1978 
L 1159 0 
L 581 0 
L 581 3500 
L 1159 3500 
L 1159 2956 
Q 1366 3272 1645 3428 
Q 1925 3584 2291 3584 
Q 2894 3584 3203 3211 
Q 3513 2838 3513 2113 
z
" transform="scale(0.015625)"/>
       <path id="DejaVuSans-74" d="M 1172 4494 
L 1172 3500 
L 2356 3500 
L 2356 3053 
L 1172 3053 
L 1172 1153 
Q 1172 725 1289 603 
Q 1406 481 1766 481 
L 2356 481 
L 2356 0 
L 1766 0 
Q 1100 0 847 248 
Q 594 497 594 1153 
L 594 3053 
L 172 3053 
L 172 3500 
L 594 3500 
L 594 4494 
L 1172 4494 
z
" transform="scale(0.015625)"/>
       <path id="DejaVuSans-79" d="M 2059 -325 
Q 1816 -950 1584 -1140 
Q 1353 -1331 966 -1331 
L 506 -1331 
L 506 -850 
L 844 -850 
Q 1081 -850 1212 -737 
Q 1344 -625 1503 -206 
L 1606 56 
L 191 3500 
L 800 3500 
L 1894 763 
L 2988 3500 
L 3597 3500 
L 2059 -325 
z
" transform="scale(0.015625)"/>
       <path id="DejaVuSans-4c" d="M 628 4666 
L 1259 4666 
L 1259 531 
L 3531 531 
L 3531 0 
L 628 0 
L 628 4666 
z
" transform="scale(0.015625)"/>
       <path id="DejaVuSans-28" d="M 1984 4856 
Q 1566 4138 1362 3434 
Q 1159 2731 1159 2009 
Q 1159 1288 1364 580 
Q 1569 -128 1984 -844 
L 1484 -844 
Q 1016 -109 783 600 
Q 550 1309 550 2009 
Q 550 2706 781 3412 
Q 1013 4119 1484 4856 
L 1984 4856 
z
" transform="scale(0.015625)"/>
       <path id="DejaVuSans-304" d="M -2518 4769 
L -650 4769 
L -650 4306 
L -2518 4306 
L -2518 4769 
z
" transform="scale(0.015625)"/>
       <path id="DejaVuSans-Oblique-78" d="M 3841 3500 
L 2234 1784 
L 3219 0 
L 2559 0 
L 1819 1388 
L 531 0 
L -166 0 
L 1556 1844 
L 641 3500 
L 1300 3500 
L 1972 2234 
L 3144 3500 
L 3841 3500 
z
" transform="scale(0.015625)"/>
       <path id="DejaVuSans-b1" d="M 2944 4013 
L 2944 2803 
L 4684 2803 
L 4684 2272 
L 2944 2272 
L 2944 1063 
L 2419 1063 
L 2419 2272 
L 678 2272 
L 678 2803 
L 2419 2803 
L 2419 4013 
L 2944 4013 
z
M 678 531 
L 4684 531 
L 4684 0 
L 678 0 
L 678 531 
z
" transform="scale(0.015625)"/>
       <path id="DejaVuSans-Oblique-73" d="M 3200 3397 
L 3091 2853 
Q 2863 2978 2609 3040 
Q 2356 3103 2088 3103 
Q 1634 3103 1373 2948 
Q 1113 2794 1113 2528 
Q 1113 2219 1719 2053 
Q 1766 2041 1788 2034 
L 1972 1978 
Q 2547 1819 2739 1644 
Q 2931 1469 2931 1166 
Q 2931 609 2489 259 
Q 2047 -91 1331 -91 
Q 1053 -91 747 -37 
Q 441 16 72 128 
L 184 722 
Q 500 559 806 475 
Q 1113 391 1394 391 
Q 1816 391 2080 572 
Q 2344 753 2344 1031 
Q 2344 1331 1650 1516 
L 1591 1531 
L 1394 1581 
Q 956 1697 753 1886 
Q 550 2075 550 2369 
Q 550 2928 970 3256 
Q 1391 3584 2113 3584 
Q 2397 3584 2667 3537 
Q 2938 3491 3200 3397 
z
" transform="scale(0.015625)"/>
       <path id="DejaVuSans-f7" d="M 2297 3547 
L 3066 3547 
L 3066 2778 
L 2297 2778 
L 2297 3547 
z
M 2297 1234 
L 3066 1234 
L 3066 469 
L 2297 469 
L 2297 1234 
z
M 678 2272 
L 4684 2272 
L 4684 1741 
L 678 1741 
L 678 2272 
z
" transform="scale(0.015625)"/>
       <path id="STIXSizeOneSym-Regular-221a" d="M 6970 9933 
L 3373 -1888 
L 3104 -1888 
L 1626 2918 
Q 1555 3149 1465 3251 
Q 1376 3354 1229 3354 
Q 1011 3354 794 3181 
L 717 3309 
L 1766 4115 
L 1926 4115 
L 3379 -602 
L 3405 -602 
L 6605 9933 
L 6970 9933 
z
" transform="scale(0.015625)"/>
       <path id="DejaVuSans-Oblique-4e" d="M 1081 4666 
L 1931 4666 
L 3219 666 
L 4000 4666 
L 4616 4666 
L 3706 0 
L 2853 0 
L 1569 4025 
L 788 0 
L 172 0 
L 1081 4666 
z
" transform="scale(0.015625)"/>
       <path id="DejaVuSans-29" d="M 513 4856 
L 1013 4856 
Q 1481 4119 1714 3412 
Q 1947 2706 1947 2009 
Q 1947 1309 1714 600 
Q 1481 -109 1013 -844 
L 513 -844 
Q 928 -128 1133 580 
Q 1338 1288 1338 2009 
Q 1338 2731 1133 3434 
Q 928 4138 513 4856 
z
" transform="scale(0.015625)"/>
      </defs>
      <use xlink:href="#DejaVuSans-43" transform="translate(0 0.578125)"/>
      <use xlink:href="#DejaVuSans-72" transform="translate(69.824219 0.578125)"/>
      <use xlink:href="#DejaVuSans-6f" transform="translate(110.9375 0.578125)"/>
      <use xlink:href="#DejaVuSans-73" transform="translate(172.119141 0.578125)"/>
      <use xlink:href="#DejaVuSans-73" transform="translate(224.21875 0.578125)"/>
      <use xlink:href="#DejaVuSans-20" transform="translate(276.318359 0.578125)"/>
      <use xlink:href="#DejaVuSans-45" transform="translate(308.105469 0.578125)"/>
      <use xlink:href="#DejaVuSans-6e" transform="translate(371.289062 0.578125)"/>
      <use xlink:href="#DejaVuSans-74" transform="translate(434.667969 0.578125)"/>
      <use xlink:href="#DejaVuSans-72" transform="translate(473.876953 0.578125)"/>
      <use xlink:href="#DejaVuSans-6f" transform="translate(514.990234 0.578125)"/>
      <use xlink:href="#DejaVuSans-70" transform="translate(576.171875 0.578125)"/>
      <use xlink:href="#DejaVuSans-79" transform="translate(639.648438 0.578125)"/>
      <use xlink:href="#DejaVuSans-20" transform="translate(698.828125 0.578125)"/>
      <use xlink:href="#DejaVuSans-4c" transform="translate(730.615234 0.578125)"/>
      <use xlink:href="#DejaVuSans-6f" transform="translate(786.328125 0.578125)"/>
      <use xlink:href="#DejaVuSans-73" transform="translate(847.509766 0.578125)"/>
      <use xlink:href="#DejaVuSans-73" transform="translate(899.609375 0.578125)"/>
      <use xlink:href="#DejaVuSans-20" transform="translate(951.708984 0.578125)"/>
      <use xlink:href="#DejaVuSans-28" transform="translate(983.496094 0.578125)"/>
      <use xlink:href="#DejaVuSans-304" transform="translate(1084.648438 0.484375)"/>
      <use xlink:href="#DejaVuSans-Oblique-78" transform="translate(1022.509766 0.578125)"/>
      <use xlink:href="#DejaVuSans-b1" transform="translate(1101.171875 0.578125)"/>
      <use xlink:href="#DejaVuSans-Oblique-73" transform="translate(1204.443359 0.578125)"/>
      <use xlink:href="#DejaVuSans-f7" transform="translate(1276.025391 0.578125)"/>
      <use xlink:href="#STIXSizeOneSym-Regular-221a" transform="translate(1379.296875 17.09375)scale(0.563912)"/>
      <use xlink:href="#DejaVuSans-Oblique-4e" transform="translate(1451.385239 0.84375)"/>
      <use xlink:href="#DejaVuSans-29" transform="translate(1538.689926 0.578125)"/>
      <path d="M 1438.885239 97.5 
L 1438.885239 103.75 
L 1538.689926 103.75 
L 1538.689926 97.5 
L 1438.885239 97.5 
z
"/>
     </g>
    </g>
   </g>
   <g id="line2d_25">
    <path d="M 63.177417 -1 
L 66.4279 50.557476 
L 75.173981 133.403009 
L 83.920063 170.434737 
L 92.666144 183.217184 
L 101.412226 203.962585 
L 110.158307 227.926375 
L 118.904389 223.905164 
L 127.65047 238.7723 
L 136.396552 240.991188 
L 145.142633 247.886339 
L 153.888715 236.699188 
L 162.634796 255.297566 
L 171.380878 246.58695 
L 180.126959 232.222195 
L 188.873041 246.82048 
L 197.619122 279.927657 
L 206.365204 268.944553 
L 215.111285 276.593208 
L 223.857367 269.856333 
L 232.603448 272.959174 
L 241.34953 270.622359 
L 250.095611 278.506516 
L 258.841693 279.343827 
L 267.587774 281.818531 
L 276.333856 283.957646 
L 285.079937 285.118796 
L 293.826019 284.46144 
L 302.5721 285.57245 
L 311.318182 287.706193 
" clip-path="url(#p1ed944cdd0)" style="fill: none; stroke: #1f77b4; stroke-width: 1.5; stroke-linecap: square"/>
   </g>
   <g id="line2d_26">
    <path d="M 57.681818 145.817292 
L 66.4279 237.775375 
L 75.173981 269.058849 
L 83.920063 285.715762 
L 92.666144 287.512129 
L 101.412226 301.371743 
L 110.158307 307.790342 
L 118.904389 316.163077 
L 127.65047 304.574794 
L 136.396552 312.158296 
L 145.142633 311.741151 
L 153.888715 317.164523 
L 162.634796 312.314316 
L 171.380878 328.901199 
L 180.126959 327.701846 
L 188.873041 324.417106 
L 197.619122 326.63664 
L 206.365204 327.524193 
L 215.111285 327.381845 
L 223.857367 325.837679 
L 232.603448 327.955408 
L 241.34953 327.990486 
" clip-path="url(#p1ed944cdd0)" style="fill: none; stroke: #ff7f0e; stroke-width: 1.5; stroke-linecap: square"/>
   </g>
   <g id="line2d_27">
    <path d="M 70.093366 -1 
L 75.173981 86.754576 
L 83.920063 102.626068 
L 92.666144 161.551835 
L 101.412226 169.817097 
L 110.158307 167.151699 
L 118.904389 195.053368 
L 127.65047 208.828998 
L 136.396552 211.677155 
L 145.142633 180.080637 
L 153.888715 217.702777 
L 162.634796 200.533861 
L 171.380878 187.573617 
L 180.126959 205.096517 
L 188.873041 239.817111 
L 197.619122 237.339041 
L 206.365204 244.594746 
L 215.111285 245.088838 
L 223.857367 246.287042 
L 232.603448 244.55915 
L 241.34953 251.327861 
L 250.095611 249.737911 
L 258.841693 246.661991 
" clip-path="url(#p1ed944cdd0)" style="fill: none; stroke: #2ca02c; stroke-width: 1.5; stroke-linecap: square"/>
   </g>
   <g id="line2d_28">
    <path d="M 57.699348 -1 
L 66.4279 107.482334 
L 75.173981 172.602265 
L 83.920063 191.13625 
L 92.666144 201.841263 
L 101.412226 222.119916 
L 110.158307 229.815633 
L 118.904389 229.133265 
L 127.65047 232.522655 
L 136.396552 245.669002 
L 145.142633 254.789187 
L 153.888715 249.619688 
L 162.634796 256.398019 
L 171.380878 249.838432 
L 180.126959 257.421042 
L 188.873041 262.823538 
L 197.619122 263.186985 
L 206.365204 275.180815 
L 215.111285 275.184175 
L 223.857367 275.130733 
L 232.603448 274.530453 
L 241.34953 273.697729 
L 250.095611 274.998934 
" clip-path="url(#p1ed944cdd0)" style="fill: none; stroke: #d62728; stroke-width: 1.5; stroke-linecap: square"/>
   </g>
   <g id="line2d_29">
    <path d="M 65.028843 -1 
L 66.4279 23.699289 
L 75.173981 110.327629 
L 83.920063 149.957705 
L 92.666144 162.113067 
L 101.412226 185.823526 
L 110.158307 202.401582 
L 118.904389 196.593495 
L 127.65047 192.551693 
L 136.396552 218.551076 
L 145.142633 241.826336 
L 153.888715 240.951079 
L 162.634796 251.682667 
L 171.380878 248.356039 
L 180.126959 258.24004 
L 188.873041 258.317046 
L 197.619122 261.918499 
L 206.365204 262.909154 
L 215.111285 265.069077 
L 223.857367 262.325976 
" clip-path="url(#p1ed944cdd0)" style="fill: none; stroke-dasharray: 5.55,2.4; stroke-dashoffset: 0; stroke: #9467bd; stroke-width: 1.5"/>
   </g>
   <g id="line2d_30">
    <path d="M 57.681818 153.885995 
L 66.4279 225.596684 
L 75.173981 243.840224 
L 83.920063 271.434077 
L 92.666144 273.33561 
L 101.412226 270.123628 
L 110.158307 277.704977 
L 118.904389 285.922918 
L 127.65047 281.6299 
L 136.396552 290.077633 
L 145.142633 297.026722 
L 153.888715 295.408414 
L 162.634796 303.190151 
L 171.380878 305.657865 
L 180.126959 301.314805 
L 188.873041 295.45219 
L 197.619122 305.602328 
L 206.365204 313.211495 
L 215.111285 309.674934 
L 223.857367 311.2716 
L 232.603448 322.666567 
L 241.34953 318.845705 
L 250.095611 322.913749 
L 258.841693 321.325427 
" clip-path="url(#p1ed944cdd0)" style="fill: none; stroke-dasharray: 5.55,2.4; stroke-dashoffset: 0; stroke: #8c564b; stroke-width: 1.5"/>
   </g>
   <g id="line2d_31">
    <path d="M 60.388135 -1 
L 66.4279 191.04709 
L 75.173981 255.84161 
L 83.920063 274.164971 
L 92.666144 284.422496 
L 101.412226 282.414963 
L 110.158307 288.930376 
L 118.904389 286.449685 
L 127.65047 291.364723 
L 136.396552 291.428696 
L 145.142633 295.719734 
L 153.888715 287.215651 
L 162.634796 291.560291 
L 171.380878 293.908879 
L 180.126959 295.123585 
L 188.873041 293.509899 
L 197.619122 294.870527 
L 206.365204 299.199875 
L 215.111285 297.272809 
L 223.857367 295.751799 
" clip-path="url(#p1ed944cdd0)" style="fill: none; stroke-dasharray: 5.55,2.4; stroke-dashoffset: 0; stroke: #e377c2; stroke-width: 1.5"/>
   </g>
   <g id="line2d_32">
    <path d="M 57.681818 144.159726 
L 66.4279 255.987087 
L 75.173981 288.215763 
L 83.920063 300.708663 
L 92.666144 310.968186 
L 101.412226 316.336837 
L 110.158307 304.484176 
L 118.904389 308.343043 
L 127.65047 308.98437 
L 136.396552 315.609708 
L 145.142633 325.259675 
L 153.888715 317.953818 
L 162.634796 312.558923 
L 171.380878 321.560966 
L 180.126959 325.525336 
L 188.873041 327.369379 
L 197.619122 327.245398 
L 206.365204 325.548122 
L 215.111285 326.282066 
L 223.857367 329.268105 
" clip-path="url(#p1ed944cdd0)" style="fill: none; stroke-dasharray: 5.55,2.4; stroke-dashoffset: 0; stroke: #7f7f7f; stroke-width: 1.5"/>
   </g>
   <g id="patch_3">
    <path d="M 45 378 
L 45 51.84 
" style="fill: none; stroke: #000000; stroke-width: 0.8; stroke-linejoin: miter; stroke-linecap: square"/>
   </g>
   <g id="patch_4">
    <path d="M 324 378 
L 324 51.84 
" style="fill: none; stroke: #000000; stroke-width: 0.8; stroke-linejoin: miter; stroke-linecap: square"/>
   </g>
   <g id="patch_5">
    <path d="M 45 378 
L 324 378 
" style="fill: none; stroke: #000000; stroke-width: 0.8; stroke-linejoin: miter; stroke-linecap: square"/>
   </g>
   <g id="patch_6">
    <path d="M 45 51.84 
L 324 51.84 
" style="fill: none; stroke: #000000; stroke-width: 0.8; stroke-linejoin: miter; stroke-linecap: square"/>
   </g>
   <g id="legend_1">
    <g id="patch_7">
     <path d="M 206.728125 178.93375 
L 317 178.93375 
Q 319 178.93375 319 176.93375 
L 319 58.84 
Q 319 56.84 317 56.84 
L 206.728125 56.84 
Q 204.728125 56.84 204.728125 58.84 
L 204.728125 176.93375 
Q 204.728125 178.93375 206.728125 178.93375 
z
" style="fill: #ffffff; opacity: 0.8; stroke: #cccccc; stroke-linejoin: miter"/>
    </g>
    <g id="line2d_33">
     <path d="M 208.728125 64.938437 
L 218.728125 64.938437 
L 228.728125 64.938437 
" style="fill: none; stroke: #1f77b4; stroke-width: 1.5; stroke-linecap: square"/>
    </g>
    <g id="text_15">
     <!-- vit_t_16 -->
     <g transform="translate(236.728125 68.438437)scale(0.1 -0.1)">
      <defs>
       <path id="DejaVuSans-76" d="M 191 3500 
L 800 3500 
L 1894 563 
L 2988 3500 
L 3597 3500 
L 2284 0 
L 1503 0 
L 191 3500 
z
" transform="scale(0.015625)"/>
       <path id="DejaVuSans-69" d="M 603 3500 
L 1178 3500 
L 1178 0 
L 603 0 
L 603 3500 
z
M 603 4863 
L 1178 4863 
L 1178 4134 
L 603 4134 
L 603 4863 
z
" transform="scale(0.015625)"/>
       <path id="DejaVuSans-5f" d="M 3263 -1063 
L 3263 -1509 
L -63 -1509 
L -63 -1063 
L 3263 -1063 
z
" transform="scale(0.015625)"/>
       <path id="DejaVuSans-36" d="M 2113 2584 
Q 1688 2584 1439 2293 
Q 1191 2003 1191 1497 
Q 1191 994 1439 701 
Q 1688 409 2113 409 
Q 2538 409 2786 701 
Q 3034 994 3034 1497 
Q 3034 2003 2786 2293 
Q 2538 2584 2113 2584 
z
M 3366 4563 
L 3366 3988 
Q 3128 4100 2886 4159 
Q 2644 4219 2406 4219 
Q 1781 4219 1451 3797 
Q 1122 3375 1075 2522 
Q 1259 2794 1537 2939 
Q 1816 3084 2150 3084 
Q 2853 3084 3261 2657 
Q 3669 2231 3669 1497 
Q 3669 778 3244 343 
Q 2819 -91 2113 -91 
Q 1303 -91 875 529 
Q 447 1150 447 2328 
Q 447 3434 972 4092 
Q 1497 4750 2381 4750 
Q 2619 4750 2861 4703 
Q 3103 4656 3366 4563 
z
" transform="scale(0.015625)"/>
      </defs>
      <use xlink:href="#DejaVuSans-76"/>
      <use xlink:href="#DejaVuSans-69" x="59.179688"/>
      <use xlink:href="#DejaVuSans-74" x="86.962891"/>
      <use xlink:href="#DejaVuSans-5f" x="126.171875"/>
      <use xlink:href="#DejaVuSans-74" x="176.171875"/>
      <use xlink:href="#DejaVuSans-5f" x="215.380859"/>
      <use xlink:href="#DejaVuSans-31" x="265.380859"/>
      <use xlink:href="#DejaVuSans-36" x="329.003906"/>
     </g>
    </g>
    <g id="line2d_34">
     <path d="M 208.728125 79.894687 
L 218.728125 79.894687 
L 228.728125 79.894687 
" style="fill: none; stroke: #ff7f0e; stroke-width: 1.5; stroke-linecap: square"/>
    </g>
    <g id="text_16">
     <!-- swin_t -->
     <g transform="translate(236.728125 83.394687)scale(0.1 -0.1)">
      <defs>
       <path id="DejaVuSans-77" d="M 269 3500 
L 844 3500 
L 1563 769 
L 2278 3500 
L 2956 3500 
L 3675 769 
L 4391 3500 
L 4966 3500 
L 4050 0 
L 3372 0 
L 2619 2869 
L 1863 0 
L 1184 0 
L 269 3500 
z
" transform="scale(0.015625)"/>
      </defs>
      <use xlink:href="#DejaVuSans-73"/>
      <use xlink:href="#DejaVuSans-77" x="52.099609"/>
      <use xlink:href="#DejaVuSans-69" x="133.886719"/>
      <use xlink:href="#DejaVuSans-6e" x="161.669922"/>
      <use xlink:href="#DejaVuSans-5f" x="225.048828"/>
      <use xlink:href="#DejaVuSans-74" x="275.048828"/>
     </g>
    </g>
    <g id="line2d_35">
     <path d="M 208.728125 94.850937 
L 218.728125 94.850937 
L 228.728125 94.850937 
" style="fill: none; stroke: #2ca02c; stroke-width: 1.5; stroke-linecap: square"/>
    </g>
    <g id="text_17">
     <!-- beit_b_16 -->
     <g transform="translate(236.728125 98.350937)scale(0.1 -0.1)">
      <defs>
       <path id="DejaVuSans-62" d="M 3116 1747 
Q 3116 2381 2855 2742 
Q 2594 3103 2138 3103 
Q 1681 3103 1420 2742 
Q 1159 2381 1159 1747 
Q 1159 1113 1420 752 
Q 1681 391 2138 391 
Q 2594 391 2855 752 
Q 3116 1113 3116 1747 
z
M 1159 2969 
Q 1341 3281 1617 3432 
Q 1894 3584 2278 3584 
Q 2916 3584 3314 3078 
Q 3713 2572 3713 1747 
Q 3713 922 3314 415 
Q 2916 -91 2278 -91 
Q 1894 -91 1617 61 
Q 1341 213 1159 525 
L 1159 0 
L 581 0 
L 581 4863 
L 1159 4863 
L 1159 2969 
z
" transform="scale(0.015625)"/>
       <path id="DejaVuSans-65" d="M 3597 1894 
L 3597 1613 
L 953 1613 
Q 991 1019 1311 708 
Q 1631 397 2203 397 
Q 2534 397 2845 478 
Q 3156 559 3463 722 
L 3463 178 
Q 3153 47 2828 -22 
Q 2503 -91 2169 -91 
Q 1331 -91 842 396 
Q 353 884 353 1716 
Q 353 2575 817 3079 
Q 1281 3584 2069 3584 
Q 2775 3584 3186 3129 
Q 3597 2675 3597 1894 
z
M 3022 2063 
Q 3016 2534 2758 2815 
Q 2500 3097 2075 3097 
Q 1594 3097 1305 2825 
Q 1016 2553 972 2059 
L 3022 2063 
z
" transform="scale(0.015625)"/>
      </defs>
      <use xlink:href="#DejaVuSans-62"/>
      <use xlink:href="#DejaVuSans-65" x="63.476562"/>
      <use xlink:href="#DejaVuSans-69" x="125"/>
      <use xlink:href="#DejaVuSans-74" x="152.783203"/>
      <use xlink:href="#DejaVuSans-5f" x="191.992188"/>
      <use xlink:href="#DejaVuSans-62" x="241.992188"/>
      <use xlink:href="#DejaVuSans-5f" x="305.46875"/>
      <use xlink:href="#DejaVuSans-31" x="355.46875"/>
      <use xlink:href="#DejaVuSans-36" x="419.091797"/>
     </g>
    </g>
    <g id="line2d_36">
     <path d="M 208.728125 109.807187 
L 218.728125 109.807187 
L 228.728125 109.807187 
" style="fill: none; stroke: #d62728; stroke-width: 1.5; stroke-linecap: square"/>
    </g>
    <g id="text_18">
     <!-- deit_t_16 -->
     <g transform="translate(236.728125 113.307187)scale(0.1 -0.1)">
      <defs>
       <path id="DejaVuSans-64" d="M 2906 2969 
L 2906 4863 
L 3481 4863 
L 3481 0 
L 2906 0 
L 2906 525 
Q 2725 213 2448 61 
Q 2172 -91 1784 -91 
Q 1150 -91 751 415 
Q 353 922 353 1747 
Q 353 2572 751 3078 
Q 1150 3584 1784 3584 
Q 2172 3584 2448 3432 
Q 2725 3281 2906 2969 
z
M 947 1747 
Q 947 1113 1208 752 
Q 1469 391 1925 391 
Q 2381 391 2643 752 
Q 2906 1113 2906 1747 
Q 2906 2381 2643 2742 
Q 2381 3103 1925 3103 
Q 1469 3103 1208 2742 
Q 947 2381 947 1747 
z
" transform="scale(0.015625)"/>
      </defs>
      <use xlink:href="#DejaVuSans-64"/>
      <use xlink:href="#DejaVuSans-65" x="63.476562"/>
      <use xlink:href="#DejaVuSans-69" x="125"/>
      <use xlink:href="#DejaVuSans-74" x="152.783203"/>
      <use xlink:href="#DejaVuSans-5f" x="191.992188"/>
      <use xlink:href="#DejaVuSans-74" x="241.992188"/>
      <use xlink:href="#DejaVuSans-5f" x="281.201172"/>
      <use xlink:href="#DejaVuSans-31" x="331.201172"/>
      <use xlink:href="#DejaVuSans-36" x="394.824219"/>
     </g>
    </g>
    <g id="line2d_37">
     <path d="M 208.728125 124.763437 
L 218.728125 124.763437 
L 228.728125 124.763437 
" style="fill: none; stroke-dasharray: 5.55,2.4; stroke-dashoffset: 0; stroke: #9467bd; stroke-width: 1.5"/>
    </g>
    <g id="text_19">
     <!-- vgg19 -->
     <g transform="translate(236.728125 128.263437)scale(0.1 -0.1)">
      <defs>
       <path id="DejaVuSans-67" d="M 2906 1791 
Q 2906 2416 2648 2759 
Q 2391 3103 1925 3103 
Q 1463 3103 1205 2759 
Q 947 2416 947 1791 
Q 947 1169 1205 825 
Q 1463 481 1925 481 
Q 2391 481 2648 825 
Q 2906 1169 2906 1791 
z
M 3481 434 
Q 3481 -459 3084 -895 
Q 2688 -1331 1869 -1331 
Q 1566 -1331 1297 -1286 
Q 1028 -1241 775 -1147 
L 775 -588 
Q 1028 -725 1275 -790 
Q 1522 -856 1778 -856 
Q 2344 -856 2625 -561 
Q 2906 -266 2906 331 
L 2906 616 
Q 2728 306 2450 153 
Q 2172 0 1784 0 
Q 1141 0 747 490 
Q 353 981 353 1791 
Q 353 2603 747 3093 
Q 1141 3584 1784 3584 
Q 2172 3584 2450 3431 
Q 2728 3278 2906 2969 
L 2906 3500 
L 3481 3500 
L 3481 434 
z
" transform="scale(0.015625)"/>
      </defs>
      <use xlink:href="#DejaVuSans-76"/>
      <use xlink:href="#DejaVuSans-67" x="59.179688"/>
      <use xlink:href="#DejaVuSans-67" x="122.65625"/>
      <use xlink:href="#DejaVuSans-31" x="186.132812"/>
      <use xlink:href="#DejaVuSans-39" x="249.755859"/>
     </g>
    </g>
    <g id="line2d_38">
     <path d="M 208.728125 139.441562 
L 218.728125 139.441562 
L 228.728125 139.441562 
" style="fill: none; stroke-dasharray: 5.55,2.4; stroke-dashoffset: 0; stroke: #8c564b; stroke-width: 1.5"/>
    </g>
    <g id="text_20">
     <!-- resnet50 -->
     <g transform="translate(236.728125 142.941562)scale(0.1 -0.1)">
      <use xlink:href="#DejaVuSans-72"/>
      <use xlink:href="#DejaVuSans-65" x="38.863281"/>
      <use xlink:href="#DejaVuSans-73" x="100.386719"/>
      <use xlink:href="#DejaVuSans-6e" x="152.486328"/>
      <use xlink:href="#DejaVuSans-65" x="215.865234"/>
      <use xlink:href="#DejaVuSans-74" x="277.388672"/>
      <use xlink:href="#DejaVuSans-35" x="316.597656"/>
      <use xlink:href="#DejaVuSans-30" x="380.220703"/>
     </g>
    </g>
    <g id="line2d_39">
     <path d="M 208.728125 154.119687 
L 218.728125 154.119687 
L 228.728125 154.119687 
" style="fill: none; stroke-dasharray: 5.55,2.4; stroke-dashoffset: 0; stroke: #e377c2; stroke-width: 1.5"/>
    </g>
    <g id="text_21">
     <!-- efficientnetv2_t -->
     <g transform="translate(236.728125 157.619687)scale(0.1 -0.1)">
      <defs>
       <path id="DejaVuSans-66" d="M 2375 4863 
L 2375 4384 
L 1825 4384 
Q 1516 4384 1395 4259 
Q 1275 4134 1275 3809 
L 1275 3500 
L 2222 3500 
L 2222 3053 
L 1275 3053 
L 1275 0 
L 697 0 
L 697 3053 
L 147 3053 
L 147 3500 
L 697 3500 
L 697 3744 
Q 697 4328 969 4595 
Q 1241 4863 1831 4863 
L 2375 4863 
z
" transform="scale(0.015625)"/>
      </defs>
      <use xlink:href="#DejaVuSans-65"/>
      <use xlink:href="#DejaVuSans-66" x="61.523438"/>
      <use xlink:href="#DejaVuSans-66" x="96.728516"/>
      <use xlink:href="#DejaVuSans-69" x="131.933594"/>
      <use xlink:href="#DejaVuSans-63" x="159.716797"/>
      <use xlink:href="#DejaVuSans-69" x="214.697266"/>
      <use xlink:href="#DejaVuSans-65" x="242.480469"/>
      <use xlink:href="#DejaVuSans-6e" x="304.003906"/>
      <use xlink:href="#DejaVuSans-74" x="367.382812"/>
      <use xlink:href="#DejaVuSans-6e" x="406.591797"/>
      <use xlink:href="#DejaVuSans-65" x="469.970703"/>
      <use xlink:href="#DejaVuSans-74" x="531.494141"/>
      <use xlink:href="#DejaVuSans-76" x="570.703125"/>
      <use xlink:href="#DejaVuSans-32" x="629.882812"/>
      <use xlink:href="#DejaVuSans-5f" x="693.505859"/>
      <use xlink:href="#DejaVuSans-74" x="743.505859"/>
     </g>
    </g>
    <g id="line2d_40">
     <path d="M 208.728125 169.075937 
L 218.728125 169.075937 
L 228.728125 169.075937 
" style="fill: none; stroke-dasharray: 5.55,2.4; stroke-dashoffset: 0; stroke: #7f7f7f; stroke-width: 1.5"/>
    </g>
    <g id="text_22">
     <!-- convnext_t -->
     <g transform="translate(236.728125 172.575937)scale(0.1 -0.1)">
      <defs>
       <path id="DejaVuSans-78" d="M 3513 3500 
L 2247 1797 
L 3578 0 
L 2900 0 
L 1881 1375 
L 863 0 
L 184 0 
L 1544 1831 
L 300 3500 
L 978 3500 
L 1906 2253 
L 2834 3500 
L 3513 3500 
z
" transform="scale(0.015625)"/>
      </defs>
      <use xlink:href="#DejaVuSans-63"/>
      <use xlink:href="#DejaVuSans-6f" x="54.980469"/>
      <use xlink:href="#DejaVuSans-6e" x="116.162109"/>
      <use xlink:href="#DejaVuSans-76" x="179.541016"/>
      <use xlink:href="#DejaVuSans-6e" x="238.720703"/>
      <use xlink:href="#DejaVuSans-65" x="302.099609"/>
      <use xlink:href="#DejaVuSans-78" x="361.873047"/>
      <use xlink:href="#DejaVuSans-74" x="421.052734"/>
      <use xlink:href="#DejaVuSans-5f" x="460.261719"/>
      <use xlink:href="#DejaVuSans-74" x="510.261719"/>
     </g>
    </g>
   </g>
  </g>
 </g>
 <defs>
  <clipPath id="p1ed944cdd0">
   <rect x="45" y="51.84" width="279" height="326.16"/>
  </clipPath>
 </defs>
</svg>
