<?xml version="1.0" encoding="utf-8" standalone="no"?>
<!DOCTYPE svg PUBLIC "-//W3C//DTD SVG 1.1//EN"
  "http://www.w3.org/Graphics/SVG/1.1/DTD/svg11.dtd">
<svg xmlns:xlink="http://www.w3.org/1999/xlink" width="360pt" height="432pt" viewBox="0 0 360 432" xmlns="http://www.w3.org/2000/svg" version="1.1">
 <metadata>
  <rdf:RDF xmlns:dc="http://purl.org/dc/elements/1.1/" xmlns:cc="http://creativecommons.org/ns#" xmlns:rdf="http://www.w3.org/1999/02/22-rdf-syntax-ns#">
   <cc:Work>
    <dc:type rdf:resource="http://purl.org/dc/dcmitype/StillImage"/>
    <dc:date>2022-05-31T20:05:25.626469</dc:date>
    <dc:format>image/svg+xml</dc:format>
    <dc:creator>
     <cc:Agent>
      <dc:title>Matplotlib v3.5.2, https://matplotlib.org/</dc:title>
     </cc:Agent>
    </dc:creator>
   </cc:Work>
  </rdf:RDF>
 </metadata>
 <defs>
  <style type="text/css">*{stroke-linejoin: round; stroke-linecap: butt}</style>
 </defs>
 <g id="figure_1">
  <g id="patch_1">
   <path d="M 0 432 
L 360 432 
L 360 0 
L 0 0 
L 0 432 
z
" style="fill: none"/>
  </g>
  <g id="axes_1">
   <g id="patch_2">
    <path d="M 45 378 
L 324 378 
L 324 51.84 
L 45 51.84 
z
" style="fill: #ffffff"/>
   </g>
   <g id="PolyCollection_1">
    <path d="M 57.681818 70.922671 
L 57.681818 93.824664 
L 67.437063 200.62897 
L 77.192308 231.798727 
L 86.947552 246.11037 
L 96.702797 239.867039 
L 106.458042 231.145136 
L 116.213287 245.512271 
L 125.968531 273.875467 
L 135.723776 275.178707 
L 145.479021 274.643679 
L 155.234266 275.171067 
L 164.98951 275.176402 
L 174.744755 274.71792 
L 184.5 276.556783 
L 194.255245 274.447361 
L 204.01049 277.373773 
L 213.765734 275.761445 
L 213.765734 266.553838 
L 213.765734 266.553838 
L 204.01049 266.265239 
L 194.255245 265.708488 
L 184.5 264.671247 
L 174.744755 262.663396 
L 164.98951 267.930321 
L 155.234266 270.393044 
L 145.479021 265.372196 
L 135.723776 258.111353 
L 125.968531 211.310914 
L 116.213287 226.714081 
L 106.458042 206.000697 
L 96.702797 234.402885 
L 86.947552 213.192278 
L 77.192308 157.187777 
L 67.437063 169.923655 
L 57.681818 70.922671 
z
" clip-path="url(#p5ce3fd59a6)" style="fill: #1f77b4; fill-opacity: 0.2"/>
   </g>
   <g id="PolyCollection_2">
    <path d="M 57.681818 148.856377 
L 57.681818 192.297777 
L 67.437063 266.085556 
L 77.192308 298.910284 
L 86.947552 326.529553 
L 96.702797 324.800336 
L 106.458042 325.693989 
L 116.213287 310.396448 
L 125.968531 327.241589 
L 135.723776 336.008851 
L 145.479021 346.406075 
L 155.234266 349.501531 
L 164.98951 349.270764 
L 174.744755 348.518789 
L 184.5 346.748104 
L 194.255245 347.51265 
L 204.01049 347.662162 
L 213.765734 347.637375 
L 223.520979 347.678566 
L 233.276224 348.324421 
L 243.031469 348.084437 
L 243.031469 336.720175 
L 243.031469 336.720175 
L 233.276224 336.251839 
L 223.520979 336.101651 
L 213.765734 336.356108 
L 204.01049 336.19979 
L 194.255245 336.179783 
L 184.5 336.571871 
L 174.744755 339.40525 
L 164.98951 337.626814 
L 155.234266 338.205254 
L 145.479021 338.427788 
L 135.723776 314.170241 
L 125.968531 307.986507 
L 116.213287 304.107884 
L 106.458042 304.399407 
L 96.702797 283.853617 
L 86.947552 309.069951 
L 77.192308 292.547334 
L 67.437063 246.437499 
L 57.681818 148.856377 
z
" clip-path="url(#p5ce3fd59a6)" style="fill: #ff7f0e; fill-opacity: 0.2"/>
   </g>
   <g id="PolyCollection_3">
    <path d="M 57.681818 -116.33965 
L 57.681818 -78.204519 
L 67.437063 95.861031 
L 77.192308 158.357683 
L 86.947552 197.581134 
L 96.702797 209.406394 
L 106.458042 201.278424 
L 116.213287 247.795924 
L 125.968531 232.790732 
L 135.723776 227.577541 
L 145.479021 209.405711 
L 155.234266 277.377731 
L 164.98951 276.584745 
L 174.744755 281.055246 
L 184.5 279.295235 
L 194.255245 277.176119 
L 204.01049 279.571351 
L 213.765734 279.133492 
L 223.520979 280.537567 
L 233.276224 282.894645 
L 243.031469 282.409695 
L 252.786713 282.954861 
L 262.541958 278.337285 
L 272.297203 278.767512 
L 272.297203 274.98041 
L 272.297203 274.98041 
L 262.541958 272.867358 
L 252.786713 274.993396 
L 243.031469 274.940392 
L 233.276224 274.854437 
L 223.520979 274.967919 
L 213.765734 274.224356 
L 204.01049 274.061966 
L 194.255245 270.744931 
L 184.5 275.208233 
L 174.744755 271.505068 
L 164.98951 269.179162 
L 155.234266 262.131839 
L 145.479021 193.997073 
L 135.723776 175.597521 
L 125.968531 202.806573 
L 116.213287 226.663853 
L 106.458042 184.003877 
L 96.702797 197.201837 
L 86.947552 182.078307 
L 77.192308 131.563391 
L 67.437063 67.451086 
L 57.681818 -116.33965 
z
" clip-path="url(#p5ce3fd59a6)" style="fill: #2ca02c; fill-opacity: 0.2"/>
   </g>
   <g id="PolyCollection_4">
    <path d="M 57.681818 175.229404 
L 57.681818 189.385862 
L 67.437063 258.433013 
L 77.192308 278.765504 
L 86.947552 296.188823 
L 96.702797 294.793875 
L 106.458042 302.90422 
L 116.213287 289.213762 
L 125.968531 296.310377 
L 135.723776 287.287275 
L 145.479021 310.24563 
L 155.234266 315.774111 
L 164.98951 321.856924 
L 174.744755 325.326888 
L 184.5 329.32386 
L 194.255245 330.504292 
L 204.01049 331.447126 
L 213.765734 330.41101 
L 223.520979 334.237149 
L 233.276224 333.491153 
L 243.031469 330.765267 
L 252.786713 332.367349 
L 262.541958 333.225146 
L 272.297203 332.839473 
L 282.052448 332.63174 
L 291.807692 332.718738 
L 301.562937 332.763449 
L 301.562937 315.645316 
L 301.562937 315.645316 
L 291.807692 315.554196 
L 282.052448 316.156695 
L 272.297203 316.518086 
L 262.541958 316.409986 
L 252.786713 316.497285 
L 243.031469 316.345428 
L 233.276224 315.312247 
L 223.520979 315.654527 
L 213.765734 314.420042 
L 204.01049 316.365815 
L 194.255245 313.971058 
L 184.5 312.885877 
L 174.744755 311.378181 
L 164.98951 310.72653 
L 155.234266 309.312288 
L 145.479021 283.4519 
L 135.723776 265.342763 
L 125.968531 288.496301 
L 116.213287 276.696692 
L 106.458042 292.887158 
L 96.702797 293.278031 
L 86.947552 290.97871 
L 77.192308 269.310081 
L 67.437063 238.463722 
L 57.681818 175.229404 
z
" clip-path="url(#p5ce3fd59a6)" style="fill: #d62728; fill-opacity: 0.2"/>
   </g>
   <g id="PolyCollection_5">
    <path d="M 57.681818 -220.467849 
L 57.681818 -108.818882 
L 67.437063 9.87367 
L 77.192308 105.472135 
L 86.947552 157.399102 
L 96.702797 148.693143 
L 106.458042 182.994399 
L 116.213287 213.051681 
L 125.968531 224.342213 
L 135.723776 219.156925 
L 145.479021 214.882985 
L 155.234266 250.364117 
L 164.98951 261.840534 
L 174.744755 248.455778 
L 184.5 245.161672 
L 194.255245 267.176852 
L 204.01049 273.222074 
L 213.765734 277.767938 
L 223.520979 278.985784 
L 233.276224 276.831889 
L 243.031469 280.099771 
L 252.786713 280.021819 
L 262.541958 283.055073 
L 272.297203 281.464214 
L 282.052448 280.702251 
L 291.807692 278.652974 
L 301.562937 279.574771 
L 311.318182 280.401011 
L 311.318182 263.944875 
L 311.318182 263.944875 
L 301.562937 263.933062 
L 291.807692 263.29725 
L 282.052448 261.976466 
L 272.297203 261.409516 
L 262.541958 260.712038 
L 252.786713 262.110485 
L 243.031469 258.761157 
L 233.276224 257.760822 
L 223.520979 254.504242 
L 213.765734 248.579155 
L 204.01049 248.115294 
L 194.255245 233.910216 
L 184.5 199.875285 
L 174.744755 222.312383 
L 164.98951 204.98081 
L 155.234266 240.843052 
L 145.479021 202.075695 
L 135.723776 183.050921 
L 125.968531 213.946148 
L 116.213287 183.978504 
L 106.458042 172.176914 
L 96.702797 144.881434 
L 86.947552 114.922803 
L 77.192308 89.896449 
L 67.437063 -28.288893 
L 57.681818 -220.467849 
z
" clip-path="url(#p5ce3fd59a6)" style="fill: #9467bd; fill-opacity: 0.2"/>
   </g>
   <g id="PolyCollection_6">
    <path d="M 57.681818 159.639239 
L 57.681818 172.447651 
L 67.437063 224.809462 
L 77.192308 242.037766 
L 86.947552 284.09593 
L 96.702797 279.65441 
L 106.458042 287.460294 
L 116.213287 294.336168 
L 125.968531 288.828823 
L 135.723776 275.621727 
L 145.479021 282.262705 
L 155.234266 326.976739 
L 164.98951 330.282221 
L 174.744755 328.83575 
L 184.5 331.020965 
L 194.255245 329.199525 
L 204.01049 333.478681 
L 213.765734 329.415759 
L 223.520979 331.832735 
L 233.276224 331.457246 
L 243.031469 330.292573 
L 252.786713 332.812287 
L 262.541958 331.761186 
L 272.297203 333.022794 
L 282.052448 331.950477 
L 291.807692 333.643311 
L 291.807692 312.363228 
L 291.807692 312.363228 
L 282.052448 309.415951 
L 272.297203 312.251847 
L 262.541958 311.105899 
L 252.786713 308.563075 
L 243.031469 307.061382 
L 233.276224 305.602008 
L 223.520979 302.071092 
L 213.765734 302.249982 
L 204.01049 296.203196 
L 194.255245 301.880505 
L 184.5 300.888935 
L 174.744755 293.843805 
L 164.98951 294.940603 
L 155.234266 294.71453 
L 145.479021 272.495883 
L 135.723776 260.789634 
L 125.968531 258.469203 
L 116.213287 272.184309 
L 106.458042 261.140393 
L 96.702797 267.930936 
L 86.947552 245.739907 
L 77.192308 239.650239 
L 67.437063 222.747888 
L 57.681818 159.639239 
z
" clip-path="url(#p5ce3fd59a6)" style="fill: #8c564b; fill-opacity: 0.2"/>
   </g>
   <g id="PolyCollection_7">
    <path d="M 57.681818 6.035224 
L 57.681818 23.850505 
L 67.437063 245.037885 
L 77.192308 275.022322 
L 86.947552 288.942579 
L 96.702797 294.764887 
L 106.458042 296.748679 
L 116.213287 290.259061 
L 125.968531 299.3728 
L 135.723776 296.449951 
L 145.479021 302.628383 
L 155.234266 304.170594 
L 164.98951 304.164646 
L 174.744755 304.645064 
L 184.5 303.645028 
L 194.255245 304.782529 
L 204.01049 306.170041 
L 213.765734 306.759583 
L 213.765734 288.251051 
L 213.765734 288.251051 
L 204.01049 293.096276 
L 194.255245 288.823947 
L 184.5 288.023646 
L 174.744755 285.959435 
L 164.98951 283.775889 
L 155.234266 281.468178 
L 145.479021 268.374808 
L 135.723776 274.607365 
L 125.968531 290.210408 
L 116.213287 286.65632 
L 106.458042 275.754793 
L 96.702797 286.506665 
L 86.947552 280.541926 
L 77.192308 256.641496 
L 67.437063 229.627373 
L 57.681818 6.035224 
z
" clip-path="url(#p5ce3fd59a6)" style="fill: #e377c2; fill-opacity: 0.2"/>
   </g>
   <g id="PolyCollection_8">
    <path d="M 57.681818 155.892752 
L 57.681818 177.298049 
L 67.437063 266.659956 
L 77.192308 300.46806 
L 86.947552 312.965946 
L 96.702797 312.025754 
L 106.458042 319.386666 
L 116.213287 329.939392 
L 125.968531 315.357562 
L 135.723776 324.434997 
L 145.479021 326.952332 
L 155.234266 319.710103 
L 164.98951 323.564989 
L 174.744755 322.035394 
L 184.5 325.500385 
L 194.255245 325.568684 
L 204.01049 328.664767 
L 213.765734 326.958654 
L 213.765734 318.623614 
L 213.765734 318.623614 
L 204.01049 318.098074 
L 194.255245 316.643761 
L 184.5 318.563309 
L 174.744755 314.433713 
L 164.98951 319.279987 
L 155.234266 311.438536 
L 145.479021 315.216731 
L 135.723776 295.492122 
L 125.968531 289.627263 
L 116.213287 307.110725 
L 106.458042 315.193375 
L 96.702797 294.120415 
L 86.947552 303.469957 
L 77.192308 291.119399 
L 67.437063 260.736709 
L 57.681818 155.892752 
z
" clip-path="url(#p5ce3fd59a6)" style="fill: #7f7f7f; fill-opacity: 0.2"/>
   </g>
   <g id="matplotlib.axis_1">
    <g id="xtick_1">
     <g id="line2d_1">
      <path d="M 47.926573 378 
L 47.926573 51.84 
" clip-path="url(#p5ce3fd59a6)" style="fill: none; stroke: #b0b0b0; stroke-width: 0.8; stroke-linecap: square"/>
     </g>
     <g id="line2d_2">
      <defs>
       <path id="m820e8729ba" d="M 0 0 
L 0 3.5 
" style="stroke: #000000; stroke-width: 0.8"/>
      </defs>
      <g>
       <use xlink:href="#m820e8729ba" x="47.926573" y="378" style="stroke: #000000; stroke-width: 0.8"/>
      </g>
     </g>
     <g id="text_1">
      <!-- 0 -->
      <g transform="translate(44.745323 392.598437)scale(0.1 -0.1)">
       <defs>
        <path id="DejaVuSans-30" d="M 2034 4250 
Q 1547 4250 1301 3770 
Q 1056 3291 1056 2328 
Q 1056 1369 1301 889 
Q 1547 409 2034 409 
Q 2525 409 2770 889 
Q 3016 1369 3016 2328 
Q 3016 3291 2770 3770 
Q 2525 4250 2034 4250 
z
M 2034 4750 
Q 2819 4750 3233 4129 
Q 3647 3509 3647 2328 
Q 3647 1150 3233 529 
Q 2819 -91 2034 -91 
Q 1250 -91 836 529 
Q 422 1150 422 2328 
Q 422 3509 836 4129 
Q 1250 4750 2034 4750 
z
" transform="scale(0.015625)"/>
       </defs>
       <use xlink:href="#DejaVuSans-30"/>
      </g>
     </g>
    </g>
    <g id="xtick_2">
     <g id="line2d_3">
      <path d="M 96.702797 378 
L 96.702797 51.84 
" clip-path="url(#p5ce3fd59a6)" style="fill: none; stroke: #b0b0b0; stroke-width: 0.8; stroke-linecap: square"/>
     </g>
     <g id="line2d_4">
      <g>
       <use xlink:href="#m820e8729ba" x="96.702797" y="378" style="stroke: #000000; stroke-width: 0.8"/>
      </g>
     </g>
     <g id="text_2">
      <!-- 5 -->
      <g transform="translate(93.521547 392.598437)scale(0.1 -0.1)">
       <defs>
        <path id="DejaVuSans-35" d="M 691 4666 
L 3169 4666 
L 3169 4134 
L 1269 4134 
L 1269 2991 
Q 1406 3038 1543 3061 
Q 1681 3084 1819 3084 
Q 2600 3084 3056 2656 
Q 3513 2228 3513 1497 
Q 3513 744 3044 326 
Q 2575 -91 1722 -91 
Q 1428 -91 1123 -41 
Q 819 9 494 109 
L 494 744 
Q 775 591 1075 516 
Q 1375 441 1709 441 
Q 2250 441 2565 725 
Q 2881 1009 2881 1497 
Q 2881 1984 2565 2268 
Q 2250 2553 1709 2553 
Q 1456 2553 1204 2497 
Q 953 2441 691 2322 
L 691 4666 
z
" transform="scale(0.015625)"/>
       </defs>
       <use xlink:href="#DejaVuSans-35"/>
      </g>
     </g>
    </g>
    <g id="xtick_3">
     <g id="line2d_5">
      <path d="M 145.479021 378 
L 145.479021 51.84 
" clip-path="url(#p5ce3fd59a6)" style="fill: none; stroke: #b0b0b0; stroke-width: 0.8; stroke-linecap: square"/>
     </g>
     <g id="line2d_6">
      <g>
       <use xlink:href="#m820e8729ba" x="145.479021" y="378" style="stroke: #000000; stroke-width: 0.8"/>
      </g>
     </g>
     <g id="text_3">
      <!-- 10 -->
      <g transform="translate(139.116521 392.598437)scale(0.1 -0.1)">
       <defs>
        <path id="DejaVuSans-31" d="M 794 531 
L 1825 531 
L 1825 4091 
L 703 3866 
L 703 4441 
L 1819 4666 
L 2450 4666 
L 2450 531 
L 3481 531 
L 3481 0 
L 794 0 
L 794 531 
z
" transform="scale(0.015625)"/>
       </defs>
       <use xlink:href="#DejaVuSans-31"/>
       <use xlink:href="#DejaVuSans-30" x="63.623047"/>
      </g>
     </g>
    </g>
    <g id="xtick_4">
     <g id="line2d_7">
      <path d="M 194.255245 378 
L 194.255245 51.84 
" clip-path="url(#p5ce3fd59a6)" style="fill: none; stroke: #b0b0b0; stroke-width: 0.8; stroke-linecap: square"/>
     </g>
     <g id="line2d_8">
      <g>
       <use xlink:href="#m820e8729ba" x="194.255245" y="378" style="stroke: #000000; stroke-width: 0.8"/>
      </g>
     </g>
     <g id="text_4">
      <!-- 15 -->
      <g transform="translate(187.892745 392.598437)scale(0.1 -0.1)">
       <use xlink:href="#DejaVuSans-31"/>
       <use xlink:href="#DejaVuSans-35" x="63.623047"/>
      </g>
     </g>
    </g>
    <g id="xtick_5">
     <g id="line2d_9">
      <path d="M 243.031469 378 
L 243.031469 51.84 
" clip-path="url(#p5ce3fd59a6)" style="fill: none; stroke: #b0b0b0; stroke-width: 0.8; stroke-linecap: square"/>
     </g>
     <g id="line2d_10">
      <g>
       <use xlink:href="#m820e8729ba" x="243.031469" y="378" style="stroke: #000000; stroke-width: 0.8"/>
      </g>
     </g>
     <g id="text_5">
      <!-- 20 -->
      <g transform="translate(236.668969 392.598437)scale(0.1 -0.1)">
       <defs>
        <path id="DejaVuSans-32" d="M 1228 531 
L 3431 531 
L 3431 0 
L 469 0 
L 469 531 
Q 828 903 1448 1529 
Q 2069 2156 2228 2338 
Q 2531 2678 2651 2914 
Q 2772 3150 2772 3378 
Q 2772 3750 2511 3984 
Q 2250 4219 1831 4219 
Q 1534 4219 1204 4116 
Q 875 4013 500 3803 
L 500 4441 
Q 881 4594 1212 4672 
Q 1544 4750 1819 4750 
Q 2544 4750 2975 4387 
Q 3406 4025 3406 3419 
Q 3406 3131 3298 2873 
Q 3191 2616 2906 2266 
Q 2828 2175 2409 1742 
Q 1991 1309 1228 531 
z
" transform="scale(0.015625)"/>
       </defs>
       <use xlink:href="#DejaVuSans-32"/>
       <use xlink:href="#DejaVuSans-30" x="63.623047"/>
      </g>
     </g>
    </g>
    <g id="xtick_6">
     <g id="line2d_11">
      <path d="M 291.807692 378 
L 291.807692 51.84 
" clip-path="url(#p5ce3fd59a6)" style="fill: none; stroke: #b0b0b0; stroke-width: 0.8; stroke-linecap: square"/>
     </g>
     <g id="line2d_12">
      <g>
       <use xlink:href="#m820e8729ba" x="291.807692" y="378" style="stroke: #000000; stroke-width: 0.8"/>
      </g>
     </g>
     <g id="text_6">
      <!-- 25 -->
      <g transform="translate(285.445192 392.598437)scale(0.1 -0.1)">
       <use xlink:href="#DejaVuSans-32"/>
       <use xlink:href="#DejaVuSans-35" x="63.623047"/>
      </g>
     </g>
    </g>
    <g id="text_7">
     <!-- Epochs -->
     <g transform="translate(166.584375 406.276563)scale(0.1 -0.1)">
      <defs>
       <path id="DejaVuSans-45" d="M 628 4666 
L 3578 4666 
L 3578 4134 
L 1259 4134 
L 1259 2753 
L 3481 2753 
L 3481 2222 
L 1259 2222 
L 1259 531 
L 3634 531 
L 3634 0 
L 628 0 
L 628 4666 
z
" transform="scale(0.015625)"/>
       <path id="DejaVuSans-70" d="M 1159 525 
L 1159 -1331 
L 581 -1331 
L 581 3500 
L 1159 3500 
L 1159 2969 
Q 1341 3281 1617 3432 
Q 1894 3584 2278 3584 
Q 2916 3584 3314 3078 
Q 3713 2572 3713 1747 
Q 3713 922 3314 415 
Q 2916 -91 2278 -91 
Q 1894 -91 1617 61 
Q 1341 213 1159 525 
z
M 3116 1747 
Q 3116 2381 2855 2742 
Q 2594 3103 2138 3103 
Q 1681 3103 1420 2742 
Q 1159 2381 1159 1747 
Q 1159 1113 1420 752 
Q 1681 391 2138 391 
Q 2594 391 2855 752 
Q 3116 1113 3116 1747 
z
" transform="scale(0.015625)"/>
       <path id="DejaVuSans-6f" d="M 1959 3097 
Q 1497 3097 1228 2736 
Q 959 2375 959 1747 
Q 959 1119 1226 758 
Q 1494 397 1959 397 
Q 2419 397 2687 759 
Q 2956 1122 2956 1747 
Q 2956 2369 2687 2733 
Q 2419 3097 1959 3097 
z
M 1959 3584 
Q 2709 3584 3137 3096 
Q 3566 2609 3566 1747 
Q 3566 888 3137 398 
Q 2709 -91 1959 -91 
Q 1206 -91 779 398 
Q 353 888 353 1747 
Q 353 2609 779 3096 
Q 1206 3584 1959 3584 
z
" transform="scale(0.015625)"/>
       <path id="DejaVuSans-63" d="M 3122 3366 
L 3122 2828 
Q 2878 2963 2633 3030 
Q 2388 3097 2138 3097 
Q 1578 3097 1268 2742 
Q 959 2388 959 1747 
Q 959 1106 1268 751 
Q 1578 397 2138 397 
Q 2388 397 2633 464 
Q 2878 531 3122 666 
L 3122 134 
Q 2881 22 2623 -34 
Q 2366 -91 2075 -91 
Q 1284 -91 818 406 
Q 353 903 353 1747 
Q 353 2603 823 3093 
Q 1294 3584 2113 3584 
Q 2378 3584 2631 3529 
Q 2884 3475 3122 3366 
z
" transform="scale(0.015625)"/>
       <path id="DejaVuSans-68" d="M 3513 2113 
L 3513 0 
L 2938 0 
L 2938 2094 
Q 2938 2591 2744 2837 
Q 2550 3084 2163 3084 
Q 1697 3084 1428 2787 
Q 1159 2491 1159 1978 
L 1159 0 
L 581 0 
L 581 4863 
L 1159 4863 
L 1159 2956 
Q 1366 3272 1645 3428 
Q 1925 3584 2291 3584 
Q 2894 3584 3203 3211 
Q 3513 2838 3513 2113 
z
" transform="scale(0.015625)"/>
       <path id="DejaVuSans-73" d="M 2834 3397 
L 2834 2853 
Q 2591 2978 2328 3040 
Q 2066 3103 1784 3103 
Q 1356 3103 1142 2972 
Q 928 2841 928 2578 
Q 928 2378 1081 2264 
Q 1234 2150 1697 2047 
L 1894 2003 
Q 2506 1872 2764 1633 
Q 3022 1394 3022 966 
Q 3022 478 2636 193 
Q 2250 -91 1575 -91 
Q 1294 -91 989 -36 
Q 684 19 347 128 
L 347 722 
Q 666 556 975 473 
Q 1284 391 1588 391 
Q 1994 391 2212 530 
Q 2431 669 2431 922 
Q 2431 1156 2273 1281 
Q 2116 1406 1581 1522 
L 1381 1569 
Q 847 1681 609 1914 
Q 372 2147 372 2553 
Q 372 3047 722 3315 
Q 1072 3584 1716 3584 
Q 2034 3584 2315 3537 
Q 2597 3491 2834 3397 
z
" transform="scale(0.015625)"/>
      </defs>
      <use xlink:href="#DejaVuSans-45"/>
      <use xlink:href="#DejaVuSans-70" x="63.183594"/>
      <use xlink:href="#DejaVuSans-6f" x="126.660156"/>
      <use xlink:href="#DejaVuSans-63" x="187.841797"/>
      <use xlink:href="#DejaVuSans-68" x="242.822266"/>
      <use xlink:href="#DejaVuSans-73" x="306.201172"/>
     </g>
    </g>
   </g>
   <g id="matplotlib.axis_2">
    <g id="ytick_1">
     <g id="line2d_13">
      <path d="M 45 350.038788 
L 324 350.038788 
" clip-path="url(#p5ce3fd59a6)" style="fill: none; stroke: #b0b0b0; stroke-width: 0.8; stroke-linecap: square"/>
     </g>
     <g id="line2d_14">
      <defs>
       <path id="m9a3c2e9767" d="M 0 0 
L -3.5 0 
" style="stroke: #000000; stroke-width: 0.8"/>
      </defs>
      <g>
       <use xlink:href="#m9a3c2e9767" x="45" y="350.038788" style="stroke: #000000; stroke-width: 0.8"/>
      </g>
     </g>
     <g id="text_8">
      <!-- 0.8 -->
      <g transform="translate(22.096875 353.838007)scale(0.1 -0.1)">
       <defs>
        <path id="DejaVuSans-2e" d="M 684 794 
L 1344 794 
L 1344 0 
L 684 0 
L 684 794 
z
" transform="scale(0.015625)"/>
        <path id="DejaVuSans-38" d="M 2034 2216 
Q 1584 2216 1326 1975 
Q 1069 1734 1069 1313 
Q 1069 891 1326 650 
Q 1584 409 2034 409 
Q 2484 409 2743 651 
Q 3003 894 3003 1313 
Q 3003 1734 2745 1975 
Q 2488 2216 2034 2216 
z
M 1403 2484 
Q 997 2584 770 2862 
Q 544 3141 544 3541 
Q 544 4100 942 4425 
Q 1341 4750 2034 4750 
Q 2731 4750 3128 4425 
Q 3525 4100 3525 3541 
Q 3525 3141 3298 2862 
Q 3072 2584 2669 2484 
Q 3125 2378 3379 2068 
Q 3634 1759 3634 1313 
Q 3634 634 3220 271 
Q 2806 -91 2034 -91 
Q 1263 -91 848 271 
Q 434 634 434 1313 
Q 434 1759 690 2068 
Q 947 2378 1403 2484 
z
M 1172 3481 
Q 1172 3119 1398 2916 
Q 1625 2713 2034 2713 
Q 2441 2713 2670 2916 
Q 2900 3119 2900 3481 
Q 2900 3844 2670 4047 
Q 2441 4250 2034 4250 
Q 1625 4250 1398 4047 
Q 1172 3844 1172 3481 
z
" transform="scale(0.015625)"/>
       </defs>
       <use xlink:href="#DejaVuSans-30"/>
       <use xlink:href="#DejaVuSans-2e" x="63.623047"/>
       <use xlink:href="#DejaVuSans-38" x="95.410156"/>
      </g>
     </g>
    </g>
    <g id="ytick_2">
     <g id="line2d_15">
      <path d="M 45 283.772391 
L 324 283.772391 
" clip-path="url(#p5ce3fd59a6)" style="fill: none; stroke: #b0b0b0; stroke-width: 0.8; stroke-linecap: square"/>
     </g>
     <g id="line2d_16">
      <g>
       <use xlink:href="#m9a3c2e9767" x="45" y="283.772391" style="stroke: #000000; stroke-width: 0.8"/>
      </g>
     </g>
     <g id="text_9">
      <!-- 0.9 -->
      <g transform="translate(22.096875 287.57161)scale(0.1 -0.1)">
       <defs>
        <path id="DejaVuSans-39" d="M 703 97 
L 703 672 
Q 941 559 1184 500 
Q 1428 441 1663 441 
Q 2288 441 2617 861 
Q 2947 1281 2994 2138 
Q 2813 1869 2534 1725 
Q 2256 1581 1919 1581 
Q 1219 1581 811 2004 
Q 403 2428 403 3163 
Q 403 3881 828 4315 
Q 1253 4750 1959 4750 
Q 2769 4750 3195 4129 
Q 3622 3509 3622 2328 
Q 3622 1225 3098 567 
Q 2575 -91 1691 -91 
Q 1453 -91 1209 -44 
Q 966 3 703 97 
z
M 1959 2075 
Q 2384 2075 2632 2365 
Q 2881 2656 2881 3163 
Q 2881 3666 2632 3958 
Q 2384 4250 1959 4250 
Q 1534 4250 1286 3958 
Q 1038 3666 1038 3163 
Q 1038 2656 1286 2365 
Q 1534 2075 1959 2075 
z
" transform="scale(0.015625)"/>
       </defs>
       <use xlink:href="#DejaVuSans-30"/>
       <use xlink:href="#DejaVuSans-2e" x="63.623047"/>
       <use xlink:href="#DejaVuSans-39" x="95.410156"/>
      </g>
     </g>
    </g>
    <g id="ytick_3">
     <g id="line2d_17">
      <path d="M 45 217.505994 
L 324 217.505994 
" clip-path="url(#p5ce3fd59a6)" style="fill: none; stroke: #b0b0b0; stroke-width: 0.8; stroke-linecap: square"/>
     </g>
     <g id="line2d_18">
      <g>
       <use xlink:href="#m9a3c2e9767" x="45" y="217.505994" style="stroke: #000000; stroke-width: 0.8"/>
      </g>
     </g>
     <g id="text_10">
      <!-- 1.0 -->
      <g transform="translate(22.096875 221.305212)scale(0.1 -0.1)">
       <use xlink:href="#DejaVuSans-31"/>
       <use xlink:href="#DejaVuSans-2e" x="63.623047"/>
       <use xlink:href="#DejaVuSans-30" x="95.410156"/>
      </g>
     </g>
    </g>
    <g id="ytick_4">
     <g id="line2d_19">
      <path d="M 45 151.239596 
L 324 151.239596 
" clip-path="url(#p5ce3fd59a6)" style="fill: none; stroke: #b0b0b0; stroke-width: 0.8; stroke-linecap: square"/>
     </g>
     <g id="line2d_20">
      <g>
       <use xlink:href="#m9a3c2e9767" x="45" y="151.239596" style="stroke: #000000; stroke-width: 0.8"/>
      </g>
     </g>
     <g id="text_11">
      <!-- 1.1 -->
      <g transform="translate(22.096875 155.038815)scale(0.1 -0.1)">
       <use xlink:href="#DejaVuSans-31"/>
       <use xlink:href="#DejaVuSans-2e" x="63.623047"/>
       <use xlink:href="#DejaVuSans-31" x="95.410156"/>
      </g>
     </g>
    </g>
    <g id="ytick_5">
     <g id="line2d_21">
      <path d="M 45 84.973199 
L 324 84.973199 
" clip-path="url(#p5ce3fd59a6)" style="fill: none; stroke: #b0b0b0; stroke-width: 0.8; stroke-linecap: square"/>
     </g>
     <g id="line2d_22">
      <g>
       <use xlink:href="#m9a3c2e9767" x="45" y="84.973199" style="stroke: #000000; stroke-width: 0.8"/>
      </g>
     </g>
     <g id="text_12">
      <!-- 1.2 -->
      <g transform="translate(22.096875 88.772417)scale(0.1 -0.1)">
       <use xlink:href="#DejaVuSans-31"/>
       <use xlink:href="#DejaVuSans-2e" x="63.623047"/>
       <use xlink:href="#DejaVuSans-32" x="95.410156"/>
      </g>
     </g>
    </g>
    <g id="text_13">
     <!-- Cross Entropy Loss ($Q_2$ with $Q_1 - Q_3$ range) -->
     <g transform="translate(15.996875 322.97)rotate(-90)scale(0.1 -0.1)">
      <defs>
       <path id="DejaVuSans-43" d="M 4122 4306 
L 4122 3641 
Q 3803 3938 3442 4084 
Q 3081 4231 2675 4231 
Q 1875 4231 1450 3742 
Q 1025 3253 1025 2328 
Q 1025 1406 1450 917 
Q 1875 428 2675 428 
Q 3081 428 3442 575 
Q 3803 722 4122 1019 
L 4122 359 
Q 3791 134 3420 21 
Q 3050 -91 2638 -91 
Q 1578 -91 968 557 
Q 359 1206 359 2328 
Q 359 3453 968 4101 
Q 1578 4750 2638 4750 
Q 3056 4750 3426 4639 
Q 3797 4528 4122 4306 
z
" transform="scale(0.015625)"/>
       <path id="DejaVuSans-72" d="M 2631 2963 
Q 2534 3019 2420 3045 
Q 2306 3072 2169 3072 
Q 1681 3072 1420 2755 
Q 1159 2438 1159 1844 
L 1159 0 
L 581 0 
L 581 3500 
L 1159 3500 
L 1159 2956 
Q 1341 3275 1631 3429 
Q 1922 3584 2338 3584 
Q 2397 3584 2469 3576 
Q 2541 3569 2628 3553 
L 2631 2963 
z
" transform="scale(0.015625)"/>
       <path id="DejaVuSans-20" transform="scale(0.015625)"/>
       <path id="DejaVuSans-6e" d="M 3513 2113 
L 3513 0 
L 2938 0 
L 2938 2094 
Q 2938 2591 2744 2837 
Q 2550 3084 2163 3084 
Q 1697 3084 1428 2787 
Q 1159 2491 1159 1978 
L 1159 0 
L 581 0 
L 581 3500 
L 1159 3500 
L 1159 2956 
Q 1366 3272 1645 3428 
Q 1925 3584 2291 3584 
Q 2894 3584 3203 3211 
Q 3513 2838 3513 2113 
z
" transform="scale(0.015625)"/>
       <path id="DejaVuSans-74" d="M 1172 4494 
L 1172 3500 
L 2356 3500 
L 2356 3053 
L 1172 3053 
L 1172 1153 
Q 1172 725 1289 603 
Q 1406 481 1766 481 
L 2356 481 
L 2356 0 
L 1766 0 
Q 1100 0 847 248 
Q 594 497 594 1153 
L 594 3053 
L 172 3053 
L 172 3500 
L 594 3500 
L 594 4494 
L 1172 4494 
z
" transform="scale(0.015625)"/>
       <path id="DejaVuSans-79" d="M 2059 -325 
Q 1816 -950 1584 -1140 
Q 1353 -1331 966 -1331 
L 506 -1331 
L 506 -850 
L 844 -850 
Q 1081 -850 1212 -737 
Q 1344 -625 1503 -206 
L 1606 56 
L 191 3500 
L 800 3500 
L 1894 763 
L 2988 3500 
L 3597 3500 
L 2059 -325 
z
" transform="scale(0.015625)"/>
       <path id="DejaVuSans-4c" d="M 628 4666 
L 1259 4666 
L 1259 531 
L 3531 531 
L 3531 0 
L 628 0 
L 628 4666 
z
" transform="scale(0.015625)"/>
       <path id="DejaVuSans-28" d="M 1984 4856 
Q 1566 4138 1362 3434 
Q 1159 2731 1159 2009 
Q 1159 1288 1364 580 
Q 1569 -128 1984 -844 
L 1484 -844 
Q 1016 -109 783 600 
Q 550 1309 550 2009 
Q 550 2706 781 3412 
Q 1013 4119 1484 4856 
L 1984 4856 
z
" transform="scale(0.015625)"/>
       <path id="DejaVuSans-Oblique-51" d="M 2309 -84 
Q 2275 -88 2237 -89 
Q 2200 -91 2125 -91 
Q 1250 -91 756 411 
Q 263 913 263 1797 
Q 263 2319 452 2844 
Q 641 3369 978 3788 
Q 1369 4269 1858 4509 
Q 2347 4750 2938 4750 
Q 3794 4750 4287 4245 
Q 4781 3741 4781 2869 
Q 4781 1928 4265 1147 
Q 3750 366 2919 44 
L 3553 -825 
L 2847 -825 
L 2309 -84 
z
M 2919 4238 
Q 2400 4238 2003 3986 
Q 1606 3734 1313 3219 
Q 1125 2891 1026 2522 
Q 928 2153 928 1778 
Q 928 1128 1239 775 
Q 1550 422 2119 422 
Q 2631 422 3032 676 
Q 3434 931 3719 1434 
Q 3909 1772 4009 2142 
Q 4109 2513 4109 2881 
Q 4109 3528 3796 3883 
Q 3484 4238 2919 4238 
z
" transform="scale(0.015625)"/>
       <path id="DejaVuSans-77" d="M 269 3500 
L 844 3500 
L 1563 769 
L 2278 3500 
L 2956 3500 
L 3675 769 
L 4391 3500 
L 4966 3500 
L 4050 0 
L 3372 0 
L 2619 2869 
L 1863 0 
L 1184 0 
L 269 3500 
z
" transform="scale(0.015625)"/>
       <path id="DejaVuSans-69" d="M 603 3500 
L 1178 3500 
L 1178 0 
L 603 0 
L 603 3500 
z
M 603 4863 
L 1178 4863 
L 1178 4134 
L 603 4134 
L 603 4863 
z
" transform="scale(0.015625)"/>
       <path id="DejaVuSans-2212" d="M 678 2272 
L 4684 2272 
L 4684 1741 
L 678 1741 
L 678 2272 
z
" transform="scale(0.015625)"/>
       <path id="DejaVuSans-33" d="M 2597 2516 
Q 3050 2419 3304 2112 
Q 3559 1806 3559 1356 
Q 3559 666 3084 287 
Q 2609 -91 1734 -91 
Q 1441 -91 1130 -33 
Q 819 25 488 141 
L 488 750 
Q 750 597 1062 519 
Q 1375 441 1716 441 
Q 2309 441 2620 675 
Q 2931 909 2931 1356 
Q 2931 1769 2642 2001 
Q 2353 2234 1838 2234 
L 1294 2234 
L 1294 2753 
L 1863 2753 
Q 2328 2753 2575 2939 
Q 2822 3125 2822 3475 
Q 2822 3834 2567 4026 
Q 2313 4219 1838 4219 
Q 1578 4219 1281 4162 
Q 984 4106 628 3988 
L 628 4550 
Q 988 4650 1302 4700 
Q 1616 4750 1894 4750 
Q 2613 4750 3031 4423 
Q 3450 4097 3450 3541 
Q 3450 3153 3228 2886 
Q 3006 2619 2597 2516 
z
" transform="scale(0.015625)"/>
       <path id="DejaVuSans-61" d="M 2194 1759 
Q 1497 1759 1228 1600 
Q 959 1441 959 1056 
Q 959 750 1161 570 
Q 1363 391 1709 391 
Q 2188 391 2477 730 
Q 2766 1069 2766 1631 
L 2766 1759 
L 2194 1759 
z
M 3341 1997 
L 3341 0 
L 2766 0 
L 2766 531 
Q 2569 213 2275 61 
Q 1981 -91 1556 -91 
Q 1019 -91 701 211 
Q 384 513 384 1019 
Q 384 1609 779 1909 
Q 1175 2209 1959 2209 
L 2766 2209 
L 2766 2266 
Q 2766 2663 2505 2880 
Q 2244 3097 1772 3097 
Q 1472 3097 1187 3025 
Q 903 2953 641 2809 
L 641 3341 
Q 956 3463 1253 3523 
Q 1550 3584 1831 3584 
Q 2591 3584 2966 3190 
Q 3341 2797 3341 1997 
z
" transform="scale(0.015625)"/>
       <path id="DejaVuSans-67" d="M 2906 1791 
Q 2906 2416 2648 2759 
Q 2391 3103 1925 3103 
Q 1463 3103 1205 2759 
Q 947 2416 947 1791 
Q 947 1169 1205 825 
Q 1463 481 1925 481 
Q 2391 481 2648 825 
Q 2906 1169 2906 1791 
z
M 3481 434 
Q 3481 -459 3084 -895 
Q 2688 -1331 1869 -1331 
Q 1566 -1331 1297 -1286 
Q 1028 -1241 775 -1147 
L 775 -588 
Q 1028 -725 1275 -790 
Q 1522 -856 1778 -856 
Q 2344 -856 2625 -561 
Q 2906 -266 2906 331 
L 2906 616 
Q 2728 306 2450 153 
Q 2172 0 1784 0 
Q 1141 0 747 490 
Q 353 981 353 1791 
Q 353 2603 747 3093 
Q 1141 3584 1784 3584 
Q 2172 3584 2450 3431 
Q 2728 3278 2906 2969 
L 2906 3500 
L 3481 3500 
L 3481 434 
z
" transform="scale(0.015625)"/>
       <path id="DejaVuSans-65" d="M 3597 1894 
L 3597 1613 
L 953 1613 
Q 991 1019 1311 708 
Q 1631 397 2203 397 
Q 2534 397 2845 478 
Q 3156 559 3463 722 
L 3463 178 
Q 3153 47 2828 -22 
Q 2503 -91 2169 -91 
Q 1331 -91 842 396 
Q 353 884 353 1716 
Q 353 2575 817 3079 
Q 1281 3584 2069 3584 
Q 2775 3584 3186 3129 
Q 3597 2675 3597 1894 
z
M 3022 2063 
Q 3016 2534 2758 2815 
Q 2500 3097 2075 3097 
Q 1594 3097 1305 2825 
Q 1016 2553 972 2059 
L 3022 2063 
z
" transform="scale(0.015625)"/>
       <path id="DejaVuSans-29" d="M 513 4856 
L 1013 4856 
Q 1481 4119 1714 3412 
Q 1947 2706 1947 2009 
Q 1947 1309 1714 600 
Q 1481 -109 1013 -844 
L 513 -844 
Q 928 -128 1133 580 
Q 1338 1288 1338 2009 
Q 1338 2731 1133 3434 
Q 928 4138 513 4856 
z
" transform="scale(0.015625)"/>
      </defs>
      <use xlink:href="#DejaVuSans-43" transform="translate(0 0.015625)"/>
      <use xlink:href="#DejaVuSans-72" transform="translate(69.824219 0.015625)"/>
      <use xlink:href="#DejaVuSans-6f" transform="translate(110.9375 0.015625)"/>
      <use xlink:href="#DejaVuSans-73" transform="translate(172.119141 0.015625)"/>
      <use xlink:href="#DejaVuSans-73" transform="translate(224.21875 0.015625)"/>
      <use xlink:href="#DejaVuSans-20" transform="translate(276.318359 0.015625)"/>
      <use xlink:href="#DejaVuSans-45" transform="translate(308.105469 0.015625)"/>
      <use xlink:href="#DejaVuSans-6e" transform="translate(371.289062 0.015625)"/>
      <use xlink:href="#DejaVuSans-74" transform="translate(434.667969 0.015625)"/>
      <use xlink:href="#DejaVuSans-72" transform="translate(473.876953 0.015625)"/>
      <use xlink:href="#DejaVuSans-6f" transform="translate(514.990234 0.015625)"/>
      <use xlink:href="#DejaVuSans-70" transform="translate(576.171875 0.015625)"/>
      <use xlink:href="#DejaVuSans-79" transform="translate(639.648438 0.015625)"/>
      <use xlink:href="#DejaVuSans-20" transform="translate(698.828125 0.015625)"/>
      <use xlink:href="#DejaVuSans-4c" transform="translate(730.615234 0.015625)"/>
      <use xlink:href="#DejaVuSans-6f" transform="translate(786.328125 0.015625)"/>
      <use xlink:href="#DejaVuSans-73" transform="translate(847.509766 0.015625)"/>
      <use xlink:href="#DejaVuSans-73" transform="translate(899.609375 0.015625)"/>
      <use xlink:href="#DejaVuSans-20" transform="translate(951.708984 0.015625)"/>
      <use xlink:href="#DejaVuSans-28" transform="translate(983.496094 0.015625)"/>
      <use xlink:href="#DejaVuSans-Oblique-51" transform="translate(1022.509766 0.015625)"/>
      <use xlink:href="#DejaVuSans-32" transform="translate(1101.220703 -16.390625)scale(0.7)"/>
      <use xlink:href="#DejaVuSans-20" transform="translate(1148.491211 0.015625)"/>
      <use xlink:href="#DejaVuSans-77" transform="translate(1180.27832 0.015625)"/>
      <use xlink:href="#DejaVuSans-69" transform="translate(1262.06543 0.015625)"/>
      <use xlink:href="#DejaVuSans-74" transform="translate(1289.848633 0.015625)"/>
      <use xlink:href="#DejaVuSans-68" transform="translate(1329.057617 0.015625)"/>
      <use xlink:href="#DejaVuSans-20" transform="translate(1392.436523 0.015625)"/>
      <use xlink:href="#DejaVuSans-Oblique-51" transform="translate(1424.223633 0.015625)"/>
      <use xlink:href="#DejaVuSans-31" transform="translate(1502.93457 -16.390625)scale(0.7)"/>
      <use xlink:href="#DejaVuSans-2212" transform="translate(1569.6875 0.015625)"/>
      <use xlink:href="#DejaVuSans-Oblique-51" transform="translate(1672.958984 0.015625)"/>
      <use xlink:href="#DejaVuSans-33" transform="translate(1751.669922 -16.390625)scale(0.7)"/>
      <use xlink:href="#DejaVuSans-20" transform="translate(1798.94043 0.015625)"/>
      <use xlink:href="#DejaVuSans-72" transform="translate(1830.727539 0.015625)"/>
      <use xlink:href="#DejaVuSans-61" transform="translate(1871.84082 0.015625)"/>
      <use xlink:href="#DejaVuSans-6e" transform="translate(1933.120117 0.015625)"/>
      <use xlink:href="#DejaVuSans-67" transform="translate(1996.499023 0.015625)"/>
      <use xlink:href="#DejaVuSans-65" transform="translate(2059.975586 0.015625)"/>
      <use xlink:href="#DejaVuSans-29" transform="translate(2121.499023 0.015625)"/>
     </g>
    </g>
   </g>
   <g id="line2d_23">
    <path d="M 57.681818 75.490792 
L 67.437063 170.881281 
L 77.192308 222.690852 
L 86.947552 236.794094 
L 96.702797 236.256973 
L 106.458042 225.280063 
L 116.213287 230.418385 
L 125.968531 234.117811 
L 135.723776 269.813568 
L 145.479021 272.403141 
L 155.234266 273.659843 
L 164.98951 273.119527 
L 174.744755 270.617515 
L 184.5 274.748659 
L 194.255245 272.894522 
L 204.01049 274.057787 
L 213.765734 274.202134 
" clip-path="url(#p5ce3fd59a6)" style="fill: none; stroke: #1f77b4; stroke-width: 1.5; stroke-linecap: square"/>
   </g>
   <g id="line2d_24">
    <path d="M 57.681818 172.902489 
L 67.437063 260.747133 
L 77.192308 294.247873 
L 86.947552 310.028335 
L 96.702797 309.18349 
L 106.458042 323.225154 
L 116.213287 308.266806 
L 125.968531 320.275901 
L 135.723776 334.484616 
L 145.479021 338.521594 
L 155.234266 339.167925 
L 164.98951 341.988067 
L 174.744755 341.716927 
L 184.5 340.337203 
L 194.255245 338.848688 
L 204.01049 341.496973 
L 213.765734 341.583086 
L 223.520979 341.972799 
L 233.276224 340.74192 
L 243.031469 343.577265 
" clip-path="url(#p5ce3fd59a6)" style="fill: none; stroke: #ff7f0e; stroke-width: 1.5; stroke-linecap: square"/>
   </g>
   <g id="line2d_25">
    <path d="M 62.926435 -1 
L 67.437063 71.29735 
L 77.192308 141.335532 
L 86.947552 182.594161 
L 96.702797 207.545803 
L 106.458042 201.129323 
L 116.213287 240.148296 
L 125.968531 225.381281 
L 135.723776 214.322716 
L 145.479021 204.512265 
L 155.234266 271.184861 
L 164.98951 275.217294 
L 174.744755 274.58459 
L 184.5 276.915398 
L 194.255245 273.547355 
L 204.01049 279.227756 
L 213.765734 277.381552 
L 223.520979 278.778991 
L 233.276224 278.526562 
L 243.031469 278.671297 
L 252.786713 278.390193 
L 262.541958 275.222721 
L 272.297203 278.074914 
" clip-path="url(#p5ce3fd59a6)" style="fill: none; stroke: #2ca02c; stroke-width: 1.5; stroke-linecap: square"/>
   </g>
   <g id="line2d_26">
    <path d="M 57.681818 177.841793 
L 67.437063 256.390971 
L 77.192308 272.355794 
L 86.947552 292.170814 
L 96.702797 294.701816 
L 106.458042 299.560143 
L 116.213287 286.345739 
L 125.968531 292.330064 
L 135.723776 274.650966 
L 145.479021 308.788924 
L 155.234266 311.399348 
L 164.98951 317.494469 
L 174.744755 319.444211 
L 184.5 318.981721 
L 194.255245 317.831388 
L 204.01049 319.697461 
L 213.765734 317.597021 
L 223.520979 317.063376 
L 233.276224 317.050961 
L 243.031469 317.183512 
L 252.786713 317.62165 
L 262.541958 317.427669 
L 272.297203 317.821955 
L 282.052448 317.913829 
L 291.807692 318.193983 
L 301.562937 318.221345 
" clip-path="url(#p5ce3fd59a6)" style="fill: none; stroke: #d62728; stroke-width: 1.5; stroke-linecap: square"/>
   </g>
   <g id="line2d_27">
    <path d="M 68.636236 -1 
L 77.192308 95.388863 
L 86.947552 156.575021 
L 96.702797 146.629311 
L 106.458042 180.533909 
L 116.213287 203.782529 
L 125.968531 217.237309 
L 135.723776 213.362342 
L 145.479021 213.018555 
L 155.234266 245.806422 
L 164.98951 244.188644 
L 174.744755 230.932147 
L 184.5 204.31513 
L 194.255245 248.089086 
L 204.01049 267.978628 
L 213.765734 270.90534 
L 223.520979 268.095251 
L 233.276224 268.073404 
L 243.031469 268.196901 
L 252.786713 268.317724 
L 262.541958 268.69454 
L 272.297203 268.42623 
L 282.052448 268.374839 
L 291.807692 268.139505 
L 301.562937 268.321232 
L 311.318182 268.271057 
" clip-path="url(#p5ce3fd59a6)" style="fill: none; stroke-dasharray: 5.55,2.4; stroke-dashoffset: 0; stroke: #9467bd; stroke-width: 1.5"/>
   </g>
   <g id="line2d_28">
    <path d="M 57.681818 166.967452 
L 67.437063 223.006043 
L 77.192308 241.449072 
L 86.947552 270.145398 
L 96.702797 270.387707 
L 106.458042 275.669438 
L 116.213287 290.587729 
L 125.968531 281.849542 
L 135.723776 274.753051 
L 145.479021 275.925097 
L 155.234266 317.050923 
L 164.98951 318.65344 
L 174.744755 321.222395 
L 184.5 321.46299 
L 194.255245 322.172068 
L 204.01049 317.88594 
L 213.765734 323.01789 
L 223.520979 323.104495 
L 233.276224 321.804562 
L 243.031469 319.778199 
L 252.786713 319.726426 
L 262.541958 322.919996 
L 272.297203 325.15642 
L 282.052448 323.725454 
L 291.807692 323.318241 
" clip-path="url(#p5ce3fd59a6)" style="fill: none; stroke-dasharray: 5.55,2.4; stroke-dashoffset: 0; stroke: #8c564b; stroke-width: 1.5"/>
   </g>
   <g id="line2d_29">
    <path d="M 57.681818 18.786251 
L 67.437063 231.5886 
L 77.192308 257.256467 
L 86.947552 285.910332 
L 96.702797 293.797245 
L 106.458042 284.45126 
L 116.213287 287.870553 
L 125.968531 292.877006 
L 135.723776 288.684575 
L 145.479021 299.124826 
L 155.234266 301.898128 
L 164.98951 298.305945 
L 174.744755 301.024788 
L 184.5 302.254172 
L 194.255245 301.673831 
L 204.01049 301.525198 
L 213.765734 298.084074 
" clip-path="url(#p5ce3fd59a6)" style="fill: none; stroke-dasharray: 5.55,2.4; stroke-dashoffset: 0; stroke: #e377c2; stroke-width: 1.5"/>
   </g>
   <g id="line2d_30">
    <path d="M 57.681818 158.047687 
L 67.437063 266.407001 
L 77.192308 292.786598 
L 86.947552 304.52588 
L 96.702797 311.547044 
L 106.458042 317.736599 
L 116.213287 322.445052 
L 125.968531 305.001747 
L 135.723776 310.386035 
L 145.479021 321.401262 
L 155.234266 316.440011 
L 164.98951 320.403704 
L 174.744755 318.425921 
L 184.5 322.312068 
L 194.255245 318.74564 
L 204.01049 318.603702 
L 213.765734 318.63299 
" clip-path="url(#p5ce3fd59a6)" style="fill: none; stroke-dasharray: 5.55,2.4; stroke-dashoffset: 0; stroke: #7f7f7f; stroke-width: 1.5"/>
   </g>
   <g id="patch_3">
    <path d="M 45 378 
L 45 51.84 
" style="fill: none; stroke: #000000; stroke-width: 0.8; stroke-linejoin: miter; stroke-linecap: square"/>
   </g>
   <g id="patch_4">
    <path d="M 324 378 
L 324 51.84 
" style="fill: none; stroke: #000000; stroke-width: 0.8; stroke-linejoin: miter; stroke-linecap: square"/>
   </g>
   <g id="patch_5">
    <path d="M 45 378 
L 324 378 
" style="fill: none; stroke: #000000; stroke-width: 0.8; stroke-linejoin: miter; stroke-linecap: square"/>
   </g>
   <g id="patch_6">
    <path d="M 45 51.84 
L 324 51.84 
" style="fill: none; stroke: #000000; stroke-width: 0.8; stroke-linejoin: miter; stroke-linecap: square"/>
   </g>
   <g id="legend_1">
    <g id="patch_7">
     <path d="M 200.907812 178.93375 
L 317 178.93375 
Q 319 178.93375 319 176.93375 
L 319 58.84 
Q 319 56.84 317 56.84 
L 200.907812 56.84 
Q 198.907812 56.84 198.907812 58.84 
L 198.907812 176.93375 
Q 198.907812 178.93375 200.907812 178.93375 
z
" style="fill: #ffffff; opacity: 0.8; stroke: #cccccc; stroke-linejoin: miter"/>
    </g>
    <g id="line2d_31">
     <path d="M 202.907812 64.938437 
L 212.907812 64.938437 
L 222.907812 64.938437 
" style="fill: none; stroke: #1f77b4; stroke-width: 1.5; stroke-linecap: square"/>
    </g>
    <g id="text_14">
     <!-- vit_b_16 -->
     <g transform="translate(230.907812 68.438437)scale(0.1 -0.1)">
      <defs>
       <path id="DejaVuSans-76" d="M 191 3500 
L 800 3500 
L 1894 563 
L 2988 3500 
L 3597 3500 
L 2284 0 
L 1503 0 
L 191 3500 
z
" transform="scale(0.015625)"/>
       <path id="DejaVuSans-5f" d="M 3263 -1063 
L 3263 -1509 
L -63 -1509 
L -63 -1063 
L 3263 -1063 
z
" transform="scale(0.015625)"/>
       <path id="DejaVuSans-62" d="M 3116 1747 
Q 3116 2381 2855 2742 
Q 2594 3103 2138 3103 
Q 1681 3103 1420 2742 
Q 1159 2381 1159 1747 
Q 1159 1113 1420 752 
Q 1681 391 2138 391 
Q 2594 391 2855 752 
Q 3116 1113 3116 1747 
z
M 1159 2969 
Q 1341 3281 1617 3432 
Q 1894 3584 2278 3584 
Q 2916 3584 3314 3078 
Q 3713 2572 3713 1747 
Q 3713 922 3314 415 
Q 2916 -91 2278 -91 
Q 1894 -91 1617 61 
Q 1341 213 1159 525 
L 1159 0 
L 581 0 
L 581 4863 
L 1159 4863 
L 1159 2969 
z
" transform="scale(0.015625)"/>
       <path id="DejaVuSans-36" d="M 2113 2584 
Q 1688 2584 1439 2293 
Q 1191 2003 1191 1497 
Q 1191 994 1439 701 
Q 1688 409 2113 409 
Q 2538 409 2786 701 
Q 3034 994 3034 1497 
Q 3034 2003 2786 2293 
Q 2538 2584 2113 2584 
z
M 3366 4563 
L 3366 3988 
Q 3128 4100 2886 4159 
Q 2644 4219 2406 4219 
Q 1781 4219 1451 3797 
Q 1122 3375 1075 2522 
Q 1259 2794 1537 2939 
Q 1816 3084 2150 3084 
Q 2853 3084 3261 2657 
Q 3669 2231 3669 1497 
Q 3669 778 3244 343 
Q 2819 -91 2113 -91 
Q 1303 -91 875 529 
Q 447 1150 447 2328 
Q 447 3434 972 4092 
Q 1497 4750 2381 4750 
Q 2619 4750 2861 4703 
Q 3103 4656 3366 4563 
z
" transform="scale(0.015625)"/>
      </defs>
      <use xlink:href="#DejaVuSans-76"/>
      <use xlink:href="#DejaVuSans-69" x="59.179688"/>
      <use xlink:href="#DejaVuSans-74" x="86.962891"/>
      <use xlink:href="#DejaVuSans-5f" x="126.171875"/>
      <use xlink:href="#DejaVuSans-62" x="176.171875"/>
      <use xlink:href="#DejaVuSans-5f" x="239.648438"/>
      <use xlink:href="#DejaVuSans-31" x="289.648438"/>
      <use xlink:href="#DejaVuSans-36" x="353.271484"/>
     </g>
    </g>
    <g id="line2d_32">
     <path d="M 202.907812 79.894687 
L 212.907812 79.894687 
L 222.907812 79.894687 
" style="fill: none; stroke: #ff7f0e; stroke-width: 1.5; stroke-linecap: square"/>
    </g>
    <g id="text_15">
     <!-- swin_b -->
     <g transform="translate(230.907812 83.394687)scale(0.1 -0.1)">
      <use xlink:href="#DejaVuSans-73"/>
      <use xlink:href="#DejaVuSans-77" x="52.099609"/>
      <use xlink:href="#DejaVuSans-69" x="133.886719"/>
      <use xlink:href="#DejaVuSans-6e" x="161.669922"/>
      <use xlink:href="#DejaVuSans-5f" x="225.048828"/>
      <use xlink:href="#DejaVuSans-62" x="275.048828"/>
     </g>
    </g>
    <g id="line2d_33">
     <path d="M 202.907812 94.850937 
L 212.907812 94.850937 
L 222.907812 94.850937 
" style="fill: none; stroke: #2ca02c; stroke-width: 1.5; stroke-linecap: square"/>
    </g>
    <g id="text_16">
     <!-- beit_b_16 -->
     <g transform="translate(230.907812 98.350937)scale(0.1 -0.1)">
      <use xlink:href="#DejaVuSans-62"/>
      <use xlink:href="#DejaVuSans-65" x="63.476562"/>
      <use xlink:href="#DejaVuSans-69" x="125"/>
      <use xlink:href="#DejaVuSans-74" x="152.783203"/>
      <use xlink:href="#DejaVuSans-5f" x="191.992188"/>
      <use xlink:href="#DejaVuSans-62" x="241.992188"/>
      <use xlink:href="#DejaVuSans-5f" x="305.46875"/>
      <use xlink:href="#DejaVuSans-31" x="355.46875"/>
      <use xlink:href="#DejaVuSans-36" x="419.091797"/>
     </g>
    </g>
    <g id="line2d_34">
     <path d="M 202.907812 109.807187 
L 212.907812 109.807187 
L 222.907812 109.807187 
" style="fill: none; stroke: #d62728; stroke-width: 1.5; stroke-linecap: square"/>
    </g>
    <g id="text_17">
     <!-- deit_b_16 -->
     <g transform="translate(230.907812 113.307187)scale(0.1 -0.1)">
      <defs>
       <path id="DejaVuSans-64" d="M 2906 2969 
L 2906 4863 
L 3481 4863 
L 3481 0 
L 2906 0 
L 2906 525 
Q 2725 213 2448 61 
Q 2172 -91 1784 -91 
Q 1150 -91 751 415 
Q 353 922 353 1747 
Q 353 2572 751 3078 
Q 1150 3584 1784 3584 
Q 2172 3584 2448 3432 
Q 2725 3281 2906 2969 
z
M 947 1747 
Q 947 1113 1208 752 
Q 1469 391 1925 391 
Q 2381 391 2643 752 
Q 2906 1113 2906 1747 
Q 2906 2381 2643 2742 
Q 2381 3103 1925 3103 
Q 1469 3103 1208 2742 
Q 947 2381 947 1747 
z
" transform="scale(0.015625)"/>
      </defs>
      <use xlink:href="#DejaVuSans-64"/>
      <use xlink:href="#DejaVuSans-65" x="63.476562"/>
      <use xlink:href="#DejaVuSans-69" x="125"/>
      <use xlink:href="#DejaVuSans-74" x="152.783203"/>
      <use xlink:href="#DejaVuSans-5f" x="191.992188"/>
      <use xlink:href="#DejaVuSans-62" x="241.992188"/>
      <use xlink:href="#DejaVuSans-5f" x="305.46875"/>
      <use xlink:href="#DejaVuSans-31" x="355.46875"/>
      <use xlink:href="#DejaVuSans-36" x="419.091797"/>
     </g>
    </g>
    <g id="line2d_35">
     <path d="M 202.907812 124.763437 
L 212.907812 124.763437 
L 222.907812 124.763437 
" style="fill: none; stroke-dasharray: 5.55,2.4; stroke-dashoffset: 0; stroke: #9467bd; stroke-width: 1.5"/>
    </g>
    <g id="text_18">
     <!-- vgg19 -->
     <g transform="translate(230.907812 128.263437)scale(0.1 -0.1)">
      <use xlink:href="#DejaVuSans-76"/>
      <use xlink:href="#DejaVuSans-67" x="59.179688"/>
      <use xlink:href="#DejaVuSans-67" x="122.65625"/>
      <use xlink:href="#DejaVuSans-31" x="186.132812"/>
      <use xlink:href="#DejaVuSans-39" x="249.755859"/>
     </g>
    </g>
    <g id="line2d_36">
     <path d="M 202.907812 139.441562 
L 212.907812 139.441562 
L 222.907812 139.441562 
" style="fill: none; stroke-dasharray: 5.55,2.4; stroke-dashoffset: 0; stroke: #8c564b; stroke-width: 1.5"/>
    </g>
    <g id="text_19">
     <!-- resnet50 -->
     <g transform="translate(230.907812 142.941562)scale(0.1 -0.1)">
      <use xlink:href="#DejaVuSans-72"/>
      <use xlink:href="#DejaVuSans-65" x="38.863281"/>
      <use xlink:href="#DejaVuSans-73" x="100.386719"/>
      <use xlink:href="#DejaVuSans-6e" x="152.486328"/>
      <use xlink:href="#DejaVuSans-65" x="215.865234"/>
      <use xlink:href="#DejaVuSans-74" x="277.388672"/>
      <use xlink:href="#DejaVuSans-35" x="316.597656"/>
      <use xlink:href="#DejaVuSans-30" x="380.220703"/>
     </g>
    </g>
    <g id="line2d_37">
     <path d="M 202.907812 154.119687 
L 212.907812 154.119687 
L 222.907812 154.119687 
" style="fill: none; stroke-dasharray: 5.55,2.4; stroke-dashoffset: 0; stroke: #e377c2; stroke-width: 1.5"/>
    </g>
    <g id="text_20">
     <!-- efficientnetv2_m -->
     <g transform="translate(230.907812 157.619687)scale(0.1 -0.1)">
      <defs>
       <path id="DejaVuSans-66" d="M 2375 4863 
L 2375 4384 
L 1825 4384 
Q 1516 4384 1395 4259 
Q 1275 4134 1275 3809 
L 1275 3500 
L 2222 3500 
L 2222 3053 
L 1275 3053 
L 1275 0 
L 697 0 
L 697 3053 
L 147 3053 
L 147 3500 
L 697 3500 
L 697 3744 
Q 697 4328 969 4595 
Q 1241 4863 1831 4863 
L 2375 4863 
z
" transform="scale(0.015625)"/>
       <path id="DejaVuSans-6d" d="M 3328 2828 
Q 3544 3216 3844 3400 
Q 4144 3584 4550 3584 
Q 5097 3584 5394 3201 
Q 5691 2819 5691 2113 
L 5691 0 
L 5113 0 
L 5113 2094 
Q 5113 2597 4934 2840 
Q 4756 3084 4391 3084 
Q 3944 3084 3684 2787 
Q 3425 2491 3425 1978 
L 3425 0 
L 2847 0 
L 2847 2094 
Q 2847 2600 2669 2842 
Q 2491 3084 2119 3084 
Q 1678 3084 1418 2786 
Q 1159 2488 1159 1978 
L 1159 0 
L 581 0 
L 581 3500 
L 1159 3500 
L 1159 2956 
Q 1356 3278 1631 3431 
Q 1906 3584 2284 3584 
Q 2666 3584 2933 3390 
Q 3200 3197 3328 2828 
z
" transform="scale(0.015625)"/>
      </defs>
      <use xlink:href="#DejaVuSans-65"/>
      <use xlink:href="#DejaVuSans-66" x="61.523438"/>
      <use xlink:href="#DejaVuSans-66" x="96.728516"/>
      <use xlink:href="#DejaVuSans-69" x="131.933594"/>
      <use xlink:href="#DejaVuSans-63" x="159.716797"/>
      <use xlink:href="#DejaVuSans-69" x="214.697266"/>
      <use xlink:href="#DejaVuSans-65" x="242.480469"/>
      <use xlink:href="#DejaVuSans-6e" x="304.003906"/>
      <use xlink:href="#DejaVuSans-74" x="367.382812"/>
      <use xlink:href="#DejaVuSans-6e" x="406.591797"/>
      <use xlink:href="#DejaVuSans-65" x="469.970703"/>
      <use xlink:href="#DejaVuSans-74" x="531.494141"/>
      <use xlink:href="#DejaVuSans-76" x="570.703125"/>
      <use xlink:href="#DejaVuSans-32" x="629.882812"/>
      <use xlink:href="#DejaVuSans-5f" x="693.505859"/>
      <use xlink:href="#DejaVuSans-6d" x="743.505859"/>
     </g>
    </g>
    <g id="line2d_38">
     <path d="M 202.907812 169.075937 
L 212.907812 169.075937 
L 222.907812 169.075937 
" style="fill: none; stroke-dasharray: 5.55,2.4; stroke-dashoffset: 0; stroke: #7f7f7f; stroke-width: 1.5"/>
    </g>
    <g id="text_21">
     <!-- convnext_b -->
     <g transform="translate(230.907812 172.575937)scale(0.1 -0.1)">
      <defs>
       <path id="DejaVuSans-78" d="M 3513 3500 
L 2247 1797 
L 3578 0 
L 2900 0 
L 1881 1375 
L 863 0 
L 184 0 
L 1544 1831 
L 300 3500 
L 978 3500 
L 1906 2253 
L 2834 3500 
L 3513 3500 
z
" transform="scale(0.015625)"/>
      </defs>
      <use xlink:href="#DejaVuSans-63"/>
      <use xlink:href="#DejaVuSans-6f" x="54.980469"/>
      <use xlink:href="#DejaVuSans-6e" x="116.162109"/>
      <use xlink:href="#DejaVuSans-76" x="179.541016"/>
      <use xlink:href="#DejaVuSans-6e" x="238.720703"/>
      <use xlink:href="#DejaVuSans-65" x="302.099609"/>
      <use xlink:href="#DejaVuSans-78" x="361.873047"/>
      <use xlink:href="#DejaVuSans-74" x="421.052734"/>
      <use xlink:href="#DejaVuSans-5f" x="460.261719"/>
      <use xlink:href="#DejaVuSans-62" x="510.261719"/>
     </g>
    </g>
   </g>
  </g>
 </g>
 <defs>
  <clipPath id="p5ce3fd59a6">
   <rect x="45" y="51.84" width="279" height="326.16"/>
  </clipPath>
 </defs>
</svg>
