<?xml version="1.0" encoding="utf-8" standalone="no"?>
<!DOCTYPE svg PUBLIC "-//W3C//DTD SVG 1.1//EN"
  "http://www.w3.org/Graphics/SVG/1.1/DTD/svg11.dtd">
<svg xmlns:xlink="http://www.w3.org/1999/xlink" width="360pt" height="432pt" viewBox="0 0 360 432" xmlns="http://www.w3.org/2000/svg" version="1.1">
 <metadata>
  <rdf:RDF xmlns:dc="http://purl.org/dc/elements/1.1/" xmlns:cc="http://creativecommons.org/ns#" xmlns:rdf="http://www.w3.org/1999/02/22-rdf-syntax-ns#">
   <cc:Work>
    <dc:type rdf:resource="http://purl.org/dc/dcmitype/StillImage"/>
    <dc:date>2022-05-27T11:32:17.369108</dc:date>
    <dc:format>image/svg+xml</dc:format>
    <dc:creator>
     <cc:Agent>
      <dc:title>Matplotlib v3.5.2, https://matplotlib.org/</dc:title>
     </cc:Agent>
    </dc:creator>
   </cc:Work>
  </rdf:RDF>
 </metadata>
 <defs>
  <style type="text/css">*{stroke-linejoin: round; stroke-linecap: butt}</style>
 </defs>
 <g id="figure_1">
  <g id="patch_1">
   <path d="M 0 432 
L 360 432 
L 360 0 
L 0 0 
L 0 432 
z
" style="fill: none"/>
  </g>
  <g id="axes_1">
   <g id="patch_2">
    <path d="M 45 378 
L 324 378 
L 324 51.84 
L 45 51.84 
z
" style="fill: #ffffff"/>
   </g>
   <g id="PolyCollection_1">
    <path d="M 57.681818 -110.450083 
L 57.681818 -69.596842 
L 66.4279 58.537564 
L 75.173981 138.788561 
L 83.920063 180.211854 
L 92.666144 206.901658 
L 101.412226 217.488285 
L 110.158307 228.070706 
L 118.904389 235.642232 
L 127.65047 252.410947 
L 136.396552 245.042174 
L 145.142633 250.643806 
L 153.888715 242.320234 
L 162.634796 267.591459 
L 171.380878 258.725574 
L 180.126959 235.855947 
L 188.873041 248.116632 
L 197.619122 284.057583 
L 206.365204 276.726612 
L 215.111285 286.49963 
L 223.857367 274.323642 
L 232.603448 277.191308 
L 241.34953 282.806829 
L 250.095611 285.634943 
L 258.841693 285.737729 
L 267.587774 286.681016 
L 276.333856 290.584927 
L 285.079937 287.667977 
L 293.826019 293.069485 
L 302.5721 291.468595 
L 311.318182 293.126212 
L 311.318182 278.304934 
L 311.318182 278.304934 
L 302.5721 271.783816 
L 293.826019 271.027969 
L 285.079937 275.223073 
L 276.333856 264.95897 
L 267.587774 265.568092 
L 258.841693 255.655331 
L 250.095611 271.92158 
L 241.34953 251.377017 
L 232.603448 260.898739 
L 223.857367 268.428817 
L 215.111285 266.159685 
L 206.365204 266.900479 
L 197.619122 265.69352 
L 188.873041 225.024879 
L 180.126959 208.619921 
L 171.380878 221.107364 
L 162.634796 240.605517 
L 153.888715 217.608737 
L 145.142633 235.638205 
L 136.396552 223.556027 
L 127.65047 208.426428 
L 118.904389 205.525718 
L 110.158307 212.215422 
L 101.412226 195.77289 
L 92.666144 163.652638 
L 83.920063 160.449521 
L 75.173981 121.525281 
L 66.4279 27.626768 
L 57.681818 -110.450083 
z
" clip-path="url(#pebd29e7daa)" style="fill: #1f77b4; fill-opacity: 0.2"/>
   </g>
   <g id="PolyCollection_2">
    <path d="M 57.681818 129.470697 
L 57.681818 150.886095 
L 66.4279 239.380183 
L 75.173981 269.513305 
L 83.920063 282.459613 
L 92.666144 285.759739 
L 101.412226 299.062918 
L 110.158307 299.170258 
L 118.904389 322.741759 
L 127.65047 305.815708 
L 136.396552 316.39695 
L 145.142633 310.628343 
L 153.888715 323.067492 
L 162.634796 322.817654 
L 171.380878 327.952647 
L 180.126959 323.628136 
L 188.873041 321.82087 
L 197.619122 323.590866 
L 206.365204 324.542666 
L 215.111285 327.153497 
L 223.857367 322.579117 
L 232.603448 325.394309 
L 241.34953 322.354867 
L 241.34953 313.46448 
L 241.34953 313.46448 
L 232.603448 313.600442 
L 223.857367 307.845411 
L 215.111285 311.010428 
L 206.365204 305.081598 
L 197.619122 310.664965 
L 188.873041 309.768172 
L 180.126959 312.466471 
L 171.380878 306.936222 
L 162.634796 299.701742 
L 153.888715 294.593064 
L 145.142633 295.719714 
L 136.396552 295.363984 
L 127.65047 290.931781 
L 118.904389 294.127889 
L 110.158307 294.038842 
L 101.412226 284.712812 
L 92.666144 276.003309 
L 83.920063 276.897548 
L 75.173981 256.914307 
L 66.4279 226.166042 
L 57.681818 129.470697 
z
" clip-path="url(#pebd29e7daa)" style="fill: #ff7f0e; fill-opacity: 0.2"/>
   </g>
   <g id="PolyCollection_3">
    <path d="M 57.681818 -534.390247 
L 57.681818 -146.718813 
L 66.4279 36.923338 
L 75.173981 133.313734 
L 83.920063 142.014819 
L 92.666144 166.903243 
L 101.412226 189.228144 
L 110.158307 178.539228 
L 118.904389 199.082548 
L 127.65047 213.744227 
L 136.396552 204.127166 
L 145.142633 185.016038 
L 153.888715 218.568396 
L 162.634796 219.857134 
L 171.380878 224.630396 
L 180.126959 222.427322 
L 188.873041 246.598858 
L 197.619122 246.576238 
L 206.365204 254.442736 
L 215.111285 250.927407 
L 223.857367 252.839201 
L 232.603448 244.41649 
L 241.34953 257.263953 
L 250.095611 253.372507 
L 258.841693 253.117737 
L 258.841693 240.419836 
L 258.841693 240.419836 
L 250.095611 250.228455 
L 241.34953 244.776976 
L 232.603448 240.838828 
L 223.857367 240.359285 
L 215.111285 232.935972 
L 206.365204 225.045383 
L 197.619122 237.194208 
L 188.873041 225.684127 
L 180.126959 170.725678 
L 171.380878 132.159681 
L 162.634796 166.716173 
L 153.888715 203.144223 
L 145.142633 150.860829 
L 136.396552 190.575682 
L 127.65047 188.587251 
L 118.904389 187.306389 
L 110.158307 157.859035 
L 101.412226 169.912727 
L 92.666144 148.718103 
L 83.920063 68.650742 
L 75.173981 16.247192 
L 66.4279 -66.989245 
L 57.681818 -534.390247 
z
" clip-path="url(#pebd29e7daa)" style="fill: #2ca02c; fill-opacity: 0.2"/>
   </g>
   <g id="PolyCollection_4">
    <path d="M 57.681818 -1.267462 
L 57.681818 16.357068 
L 66.4279 114.842036 
L 75.173981 170.027715 
L 83.920063 201.887462 
L 92.666144 205.02345 
L 101.412226 237.237195 
L 110.158307 230.470338 
L 118.904389 252.099272 
L 127.65047 242.877382 
L 136.396552 255.610859 
L 145.142633 256.554324 
L 153.888715 263.042223 
L 162.634796 267.199241 
L 171.380878 257.309274 
L 180.126959 273.315501 
L 188.873041 276.04273 
L 197.619122 274.661318 
L 206.365204 277.498304 
L 215.111285 275.105605 
L 223.857367 277.08857 
L 232.603448 281.458559 
L 241.34953 275.12449 
L 250.095611 278.030329 
L 250.095611 265.266204 
L 250.095611 265.266204 
L 241.34953 266.47902 
L 232.603448 262.901111 
L 223.857367 264.525696 
L 215.111285 262.430896 
L 206.365204 265.739868 
L 197.619122 241.937004 
L 188.873041 251.028609 
L 180.126959 254.466283 
L 171.380878 230.376674 
L 162.634796 240.751523 
L 153.888715 222.682364 
L 145.142633 242.474129 
L 136.396552 225.113459 
L 127.65047 221.058673 
L 118.904389 210.333004 
L 110.158307 208.742036 
L 101.412226 199.563834 
L 92.666144 188.362577 
L 83.920063 179.43609 
L 75.173981 161.440104 
L 66.4279 92.721995 
L 57.681818 -1.267462 
z
" clip-path="url(#pebd29e7daa)" style="fill: #d62728; fill-opacity: 0.2"/>
   </g>
   <g id="PolyCollection_5">
    <path d="M 57.681818 -130.95099 
L 57.681818 -113.871238 
L 66.4279 48.971829 
L 75.173981 133.000822 
L 83.920063 169.579517 
L 92.666144 165.565245 
L 101.412226 207.976276 
L 110.158307 198.60459 
L 118.904389 202.845004 
L 127.65047 205.675903 
L 136.396552 224.448152 
L 145.142633 237.296424 
L 153.888715 256.633424 
L 162.634796 265.041886 
L 171.380878 263.079412 
L 180.126959 254.387269 
L 188.873041 260.99763 
L 197.619122 265.086475 
L 206.365204 264.480396 
L 215.111285 268.2308 
L 223.857367 266.687117 
L 223.857367 246.815279 
L 223.857367 246.815279 
L 215.111285 246.428636 
L 206.365204 243.95246 
L 197.619122 245.65873 
L 188.873041 241.200627 
L 180.126959 243.675273 
L 171.380878 226.642461 
L 162.634796 229.371945 
L 153.888715 215.075416 
L 145.142633 226.57584 
L 136.396552 180.016932 
L 127.65047 171.980287 
L 118.904389 191.043096 
L 110.158307 193.606741 
L 101.412226 165.753884 
L 92.666144 143.936245 
L 83.920063 152.13554 
L 75.173981 85.441892 
L 66.4279 -7.393278 
L 57.681818 -130.95099 
z
" clip-path="url(#pebd29e7daa)" style="fill: #9467bd; fill-opacity: 0.2"/>
   </g>
   <g id="PolyCollection_6">
    <path d="M 57.681818 134.572617 
L 57.681818 170.71934 
L 66.4279 227.590414 
L 75.173981 254.732832 
L 83.920063 268.914905 
L 92.666144 272.441298 
L 101.412226 281.927821 
L 110.158307 294.840188 
L 118.904389 289.223928 
L 127.65047 274.66299 
L 136.396552 300.48172 
L 145.142633 304.17768 
L 153.888715 305.248065 
L 162.634796 301.583807 
L 171.380878 310.605921 
L 180.126959 304.89454 
L 188.873041 290.852169 
L 197.619122 309.87611 
L 206.365204 305.964515 
L 215.111285 305.924228 
L 223.857367 309.081789 
L 232.603448 308.960431 
L 241.34953 307.850503 
L 250.095611 311.785167 
L 258.841693 307.955788 
L 258.841693 306.712881 
L 258.841693 306.712881 
L 250.095611 306.179115 
L 241.34953 305.403593 
L 232.603448 305.344348 
L 223.857367 299.290616 
L 215.111285 296.48801 
L 206.365204 286.348652 
L 197.619122 280.724543 
L 188.873041 281.093123 
L 180.126959 278.463083 
L 171.380878 289.516371 
L 162.634796 275.210577 
L 153.888715 277.182139 
L 145.142633 279.054748 
L 136.396552 269.115791 
L 127.65047 270.01174 
L 118.904389 267.615213 
L 110.158307 256.486211 
L 101.412226 248.723159 
L 92.666144 258.360695 
L 83.920063 257.789574 
L 75.173981 226.840015 
L 66.4279 212.929194 
L 57.681818 134.572617 
z
" clip-path="url(#pebd29e7daa)" style="fill: #8c564b; fill-opacity: 0.2"/>
   </g>
   <g id="PolyCollection_7">
    <path d="M 57.681818 -91.752707 
L 57.681818 -86.378257 
L 66.4279 188.749506 
L 75.173981 257.393912 
L 83.920063 275.606391 
L 92.666144 293.284642 
L 101.412226 294.382166 
L 110.158307 288.60201 
L 118.904389 290.256799 
L 127.65047 306.316743 
L 136.396552 288.047978 
L 145.142633 297.956719 
L 153.888715 283.390154 
L 162.634796 301.411845 
L 171.380878 304.194076 
L 180.126959 310.056894 
L 188.873041 302.920463 
L 197.619122 297.807848 
L 206.365204 307.158021 
L 215.111285 306.594805 
L 223.857367 297.564373 
L 223.857367 281.856381 
L 223.857367 281.856381 
L 215.111285 279.872974 
L 206.365204 279.54507 
L 197.619122 279.814452 
L 188.873041 280.385846 
L 180.126959 272.973087 
L 171.380878 272.738731 
L 162.634796 276.621714 
L 153.888715 270.28776 
L 145.142633 273.539404 
L 136.396552 285.510263 
L 127.65047 276.417674 
L 118.904389 265.528928 
L 110.158307 280.422091 
L 101.412226 271.618571 
L 92.666144 262.051015 
L 83.920063 258.983739 
L 75.173981 243.80314 
L 66.4279 185.219923 
L 57.681818 -91.752707 
z
" clip-path="url(#pebd29e7daa)" style="fill: #e377c2; fill-opacity: 0.2"/>
   </g>
   <g id="PolyCollection_8">
    <path d="M 57.681818 139.631883 
L 57.681818 141.618427 
L 66.4279 257.350231 
L 75.173981 286.607531 
L 83.920063 299.39211 
L 92.666144 302.99941 
L 101.412226 311.446584 
L 110.158307 300.131282 
L 118.904389 306.525895 
L 127.65047 316.950163 
L 136.396552 314.164366 
L 145.142633 326.481036 
L 153.888715 308.858995 
L 162.634796 302.466 
L 171.380878 318.846775 
L 180.126959 323.349333 
L 188.873041 334.552845 
L 197.619122 325.192016 
L 206.365204 329.803517 
L 215.111285 329.043562 
L 223.857367 331.582058 
L 223.857367 311.448568 
L 223.857367 311.448568 
L 215.111285 307.934838 
L 206.365204 310.425559 
L 197.619122 307.716036 
L 188.873041 309.662962 
L 180.126959 310.571938 
L 171.380878 309.220734 
L 162.634796 301.192741 
L 153.888715 306.636647 
L 145.142633 309.226351 
L 136.396552 304.89523 
L 127.65047 290.687002 
L 118.904389 294.796311 
L 110.158307 290.049551 
L 101.412226 310.619614 
L 92.666144 301.838663 
L 83.920063 283.811491 
L 75.173981 273.047384 
L 66.4279 245.281683 
L 57.681818 139.631883 
z
" clip-path="url(#pebd29e7daa)" style="fill: #7f7f7f; fill-opacity: 0.2"/>
   </g>
   <g id="matplotlib.axis_1">
    <g id="xtick_1">
     <g id="line2d_1">
      <path d="M 48.935737 378 
L 48.935737 51.84 
" clip-path="url(#pebd29e7daa)" style="fill: none; stroke: #b0b0b0; stroke-width: 0.8; stroke-linecap: square"/>
     </g>
     <g id="line2d_2">
      <defs>
       <path id="m64cef8473e" d="M 0 0 
L 0 3.5 
" style="stroke: #000000; stroke-width: 0.8"/>
      </defs>
      <g>
       <use xlink:href="#m64cef8473e" x="48.935737" y="378" style="stroke: #000000; stroke-width: 0.8"/>
      </g>
     </g>
     <g id="text_1">
      <!-- 0 -->
      <g transform="translate(45.754487 392.598437)scale(0.1 -0.1)">
       <defs>
        <path id="DejaVuSans-30" d="M 2034 4250 
Q 1547 4250 1301 3770 
Q 1056 3291 1056 2328 
Q 1056 1369 1301 889 
Q 1547 409 2034 409 
Q 2525 409 2770 889 
Q 3016 1369 3016 2328 
Q 3016 3291 2770 3770 
Q 2525 4250 2034 4250 
z
M 2034 4750 
Q 2819 4750 3233 4129 
Q 3647 3509 3647 2328 
Q 3647 1150 3233 529 
Q 2819 -91 2034 -91 
Q 1250 -91 836 529 
Q 422 1150 422 2328 
Q 422 3509 836 4129 
Q 1250 4750 2034 4750 
z
" transform="scale(0.015625)"/>
       </defs>
       <use xlink:href="#DejaVuSans-30"/>
      </g>
     </g>
    </g>
    <g id="xtick_2">
     <g id="line2d_3">
      <path d="M 92.666144 378 
L 92.666144 51.84 
" clip-path="url(#pebd29e7daa)" style="fill: none; stroke: #b0b0b0; stroke-width: 0.8; stroke-linecap: square"/>
     </g>
     <g id="line2d_4">
      <g>
       <use xlink:href="#m64cef8473e" x="92.666144" y="378" style="stroke: #000000; stroke-width: 0.8"/>
      </g>
     </g>
     <g id="text_2">
      <!-- 5 -->
      <g transform="translate(89.484894 392.598437)scale(0.1 -0.1)">
       <defs>
        <path id="DejaVuSans-35" d="M 691 4666 
L 3169 4666 
L 3169 4134 
L 1269 4134 
L 1269 2991 
Q 1406 3038 1543 3061 
Q 1681 3084 1819 3084 
Q 2600 3084 3056 2656 
Q 3513 2228 3513 1497 
Q 3513 744 3044 326 
Q 2575 -91 1722 -91 
Q 1428 -91 1123 -41 
Q 819 9 494 109 
L 494 744 
Q 775 591 1075 516 
Q 1375 441 1709 441 
Q 2250 441 2565 725 
Q 2881 1009 2881 1497 
Q 2881 1984 2565 2268 
Q 2250 2553 1709 2553 
Q 1456 2553 1204 2497 
Q 953 2441 691 2322 
L 691 4666 
z
" transform="scale(0.015625)"/>
       </defs>
       <use xlink:href="#DejaVuSans-35"/>
      </g>
     </g>
    </g>
    <g id="xtick_3">
     <g id="line2d_5">
      <path d="M 136.396552 378 
L 136.396552 51.84 
" clip-path="url(#pebd29e7daa)" style="fill: none; stroke: #b0b0b0; stroke-width: 0.8; stroke-linecap: square"/>
     </g>
     <g id="line2d_6">
      <g>
       <use xlink:href="#m64cef8473e" x="136.396552" y="378" style="stroke: #000000; stroke-width: 0.8"/>
      </g>
     </g>
     <g id="text_3">
      <!-- 10 -->
      <g transform="translate(130.034052 392.598437)scale(0.1 -0.1)">
       <defs>
        <path id="DejaVuSans-31" d="M 794 531 
L 1825 531 
L 1825 4091 
L 703 3866 
L 703 4441 
L 1819 4666 
L 2450 4666 
L 2450 531 
L 3481 531 
L 3481 0 
L 794 0 
L 794 531 
z
" transform="scale(0.015625)"/>
       </defs>
       <use xlink:href="#DejaVuSans-31"/>
       <use xlink:href="#DejaVuSans-30" x="63.623047"/>
      </g>
     </g>
    </g>
    <g id="xtick_4">
     <g id="line2d_7">
      <path d="M 180.126959 378 
L 180.126959 51.84 
" clip-path="url(#pebd29e7daa)" style="fill: none; stroke: #b0b0b0; stroke-width: 0.8; stroke-linecap: square"/>
     </g>
     <g id="line2d_8">
      <g>
       <use xlink:href="#m64cef8473e" x="180.126959" y="378" style="stroke: #000000; stroke-width: 0.8"/>
      </g>
     </g>
     <g id="text_4">
      <!-- 15 -->
      <g transform="translate(173.764459 392.598437)scale(0.1 -0.1)">
       <use xlink:href="#DejaVuSans-31"/>
       <use xlink:href="#DejaVuSans-35" x="63.623047"/>
      </g>
     </g>
    </g>
    <g id="xtick_5">
     <g id="line2d_9">
      <path d="M 223.857367 378 
L 223.857367 51.84 
" clip-path="url(#pebd29e7daa)" style="fill: none; stroke: #b0b0b0; stroke-width: 0.8; stroke-linecap: square"/>
     </g>
     <g id="line2d_10">
      <g>
       <use xlink:href="#m64cef8473e" x="223.857367" y="378" style="stroke: #000000; stroke-width: 0.8"/>
      </g>
     </g>
     <g id="text_5">
      <!-- 20 -->
      <g transform="translate(217.494867 392.598437)scale(0.1 -0.1)">
       <defs>
        <path id="DejaVuSans-32" d="M 1228 531 
L 3431 531 
L 3431 0 
L 469 0 
L 469 531 
Q 828 903 1448 1529 
Q 2069 2156 2228 2338 
Q 2531 2678 2651 2914 
Q 2772 3150 2772 3378 
Q 2772 3750 2511 3984 
Q 2250 4219 1831 4219 
Q 1534 4219 1204 4116 
Q 875 4013 500 3803 
L 500 4441 
Q 881 4594 1212 4672 
Q 1544 4750 1819 4750 
Q 2544 4750 2975 4387 
Q 3406 4025 3406 3419 
Q 3406 3131 3298 2873 
Q 3191 2616 2906 2266 
Q 2828 2175 2409 1742 
Q 1991 1309 1228 531 
z
" transform="scale(0.015625)"/>
       </defs>
       <use xlink:href="#DejaVuSans-32"/>
       <use xlink:href="#DejaVuSans-30" x="63.623047"/>
      </g>
     </g>
    </g>
    <g id="xtick_6">
     <g id="line2d_11">
      <path d="M 267.587774 378 
L 267.587774 51.84 
" clip-path="url(#pebd29e7daa)" style="fill: none; stroke: #b0b0b0; stroke-width: 0.8; stroke-linecap: square"/>
     </g>
     <g id="line2d_12">
      <g>
       <use xlink:href="#m64cef8473e" x="267.587774" y="378" style="stroke: #000000; stroke-width: 0.8"/>
      </g>
     </g>
     <g id="text_6">
      <!-- 25 -->
      <g transform="translate(261.225274 392.598437)scale(0.1 -0.1)">
       <use xlink:href="#DejaVuSans-32"/>
       <use xlink:href="#DejaVuSans-35" x="63.623047"/>
      </g>
     </g>
    </g>
    <g id="xtick_7">
     <g id="line2d_13">
      <path d="M 311.318182 378 
L 311.318182 51.84 
" clip-path="url(#pebd29e7daa)" style="fill: none; stroke: #b0b0b0; stroke-width: 0.8; stroke-linecap: square"/>
     </g>
     <g id="line2d_14">
      <g>
       <use xlink:href="#m64cef8473e" x="311.318182" y="378" style="stroke: #000000; stroke-width: 0.8"/>
      </g>
     </g>
     <g id="text_7">
      <!-- 30 -->
      <g transform="translate(304.955682 392.598437)scale(0.1 -0.1)">
       <defs>
        <path id="DejaVuSans-33" d="M 2597 2516 
Q 3050 2419 3304 2112 
Q 3559 1806 3559 1356 
Q 3559 666 3084 287 
Q 2609 -91 1734 -91 
Q 1441 -91 1130 -33 
Q 819 25 488 141 
L 488 750 
Q 750 597 1062 519 
Q 1375 441 1716 441 
Q 2309 441 2620 675 
Q 2931 909 2931 1356 
Q 2931 1769 2642 2001 
Q 2353 2234 1838 2234 
L 1294 2234 
L 1294 2753 
L 1863 2753 
Q 2328 2753 2575 2939 
Q 2822 3125 2822 3475 
Q 2822 3834 2567 4026 
Q 2313 4219 1838 4219 
Q 1578 4219 1281 4162 
Q 984 4106 628 3988 
L 628 4550 
Q 988 4650 1302 4700 
Q 1616 4750 1894 4750 
Q 2613 4750 3031 4423 
Q 3450 4097 3450 3541 
Q 3450 3153 3228 2886 
Q 3006 2619 2597 2516 
z
" transform="scale(0.015625)"/>
       </defs>
       <use xlink:href="#DejaVuSans-33"/>
       <use xlink:href="#DejaVuSans-30" x="63.623047"/>
      </g>
     </g>
    </g>
    <g id="text_8">
     <!-- Epochs -->
     <g transform="translate(166.584375 406.276563)scale(0.1 -0.1)">
      <defs>
       <path id="DejaVuSans-45" d="M 628 4666 
L 3578 4666 
L 3578 4134 
L 1259 4134 
L 1259 2753 
L 3481 2753 
L 3481 2222 
L 1259 2222 
L 1259 531 
L 3634 531 
L 3634 0 
L 628 0 
L 628 4666 
z
" transform="scale(0.015625)"/>
       <path id="DejaVuSans-70" d="M 1159 525 
L 1159 -1331 
L 581 -1331 
L 581 3500 
L 1159 3500 
L 1159 2969 
Q 1341 3281 1617 3432 
Q 1894 3584 2278 3584 
Q 2916 3584 3314 3078 
Q 3713 2572 3713 1747 
Q 3713 922 3314 415 
Q 2916 -91 2278 -91 
Q 1894 -91 1617 61 
Q 1341 213 1159 525 
z
M 3116 1747 
Q 3116 2381 2855 2742 
Q 2594 3103 2138 3103 
Q 1681 3103 1420 2742 
Q 1159 2381 1159 1747 
Q 1159 1113 1420 752 
Q 1681 391 2138 391 
Q 2594 391 2855 752 
Q 3116 1113 3116 1747 
z
" transform="scale(0.015625)"/>
       <path id="DejaVuSans-6f" d="M 1959 3097 
Q 1497 3097 1228 2736 
Q 959 2375 959 1747 
Q 959 1119 1226 758 
Q 1494 397 1959 397 
Q 2419 397 2687 759 
Q 2956 1122 2956 1747 
Q 2956 2369 2687 2733 
Q 2419 3097 1959 3097 
z
M 1959 3584 
Q 2709 3584 3137 3096 
Q 3566 2609 3566 1747 
Q 3566 888 3137 398 
Q 2709 -91 1959 -91 
Q 1206 -91 779 398 
Q 353 888 353 1747 
Q 353 2609 779 3096 
Q 1206 3584 1959 3584 
z
" transform="scale(0.015625)"/>
       <path id="DejaVuSans-63" d="M 3122 3366 
L 3122 2828 
Q 2878 2963 2633 3030 
Q 2388 3097 2138 3097 
Q 1578 3097 1268 2742 
Q 959 2388 959 1747 
Q 959 1106 1268 751 
Q 1578 397 2138 397 
Q 2388 397 2633 464 
Q 2878 531 3122 666 
L 3122 134 
Q 2881 22 2623 -34 
Q 2366 -91 2075 -91 
Q 1284 -91 818 406 
Q 353 903 353 1747 
Q 353 2603 823 3093 
Q 1294 3584 2113 3584 
Q 2378 3584 2631 3529 
Q 2884 3475 3122 3366 
z
" transform="scale(0.015625)"/>
       <path id="DejaVuSans-68" d="M 3513 2113 
L 3513 0 
L 2938 0 
L 2938 2094 
Q 2938 2591 2744 2837 
Q 2550 3084 2163 3084 
Q 1697 3084 1428 2787 
Q 1159 2491 1159 1978 
L 1159 0 
L 581 0 
L 581 4863 
L 1159 4863 
L 1159 2956 
Q 1366 3272 1645 3428 
Q 1925 3584 2291 3584 
Q 2894 3584 3203 3211 
Q 3513 2838 3513 2113 
z
" transform="scale(0.015625)"/>
       <path id="DejaVuSans-73" d="M 2834 3397 
L 2834 2853 
Q 2591 2978 2328 3040 
Q 2066 3103 1784 3103 
Q 1356 3103 1142 2972 
Q 928 2841 928 2578 
Q 928 2378 1081 2264 
Q 1234 2150 1697 2047 
L 1894 2003 
Q 2506 1872 2764 1633 
Q 3022 1394 3022 966 
Q 3022 478 2636 193 
Q 2250 -91 1575 -91 
Q 1294 -91 989 -36 
Q 684 19 347 128 
L 347 722 
Q 666 556 975 473 
Q 1284 391 1588 391 
Q 1994 391 2212 530 
Q 2431 669 2431 922 
Q 2431 1156 2273 1281 
Q 2116 1406 1581 1522 
L 1381 1569 
Q 847 1681 609 1914 
Q 372 2147 372 2553 
Q 372 3047 722 3315 
Q 1072 3584 1716 3584 
Q 2034 3584 2315 3537 
Q 2597 3491 2834 3397 
z
" transform="scale(0.015625)"/>
      </defs>
      <use xlink:href="#DejaVuSans-45"/>
      <use xlink:href="#DejaVuSans-70" x="63.183594"/>
      <use xlink:href="#DejaVuSans-6f" x="126.660156"/>
      <use xlink:href="#DejaVuSans-63" x="187.841797"/>
      <use xlink:href="#DejaVuSans-68" x="242.822266"/>
      <use xlink:href="#DejaVuSans-73" x="306.201172"/>
     </g>
    </g>
   </g>
   <g id="matplotlib.axis_2">
    <g id="ytick_1">
     <g id="line2d_15">
      <path d="M 45 337.42547 
L 324 337.42547 
" clip-path="url(#pebd29e7daa)" style="fill: none; stroke: #b0b0b0; stroke-width: 0.8; stroke-linecap: square"/>
     </g>
     <g id="line2d_16">
      <defs>
       <path id="m9fd29626a0" d="M 0 0 
L -3.5 0 
" style="stroke: #000000; stroke-width: 0.8"/>
      </defs>
      <g>
       <use xlink:href="#m9fd29626a0" x="45" y="337.42547" style="stroke: #000000; stroke-width: 0.8"/>
      </g>
     </g>
     <g id="text_9">
      <!-- 0.8 -->
      <g transform="translate(22.096875 341.224689)scale(0.1 -0.1)">
       <defs>
        <path id="DejaVuSans-2e" d="M 684 794 
L 1344 794 
L 1344 0 
L 684 0 
L 684 794 
z
" transform="scale(0.015625)"/>
        <path id="DejaVuSans-38" d="M 2034 2216 
Q 1584 2216 1326 1975 
Q 1069 1734 1069 1313 
Q 1069 891 1326 650 
Q 1584 409 2034 409 
Q 2484 409 2743 651 
Q 3003 894 3003 1313 
Q 3003 1734 2745 1975 
Q 2488 2216 2034 2216 
z
M 1403 2484 
Q 997 2584 770 2862 
Q 544 3141 544 3541 
Q 544 4100 942 4425 
Q 1341 4750 2034 4750 
Q 2731 4750 3128 4425 
Q 3525 4100 3525 3541 
Q 3525 3141 3298 2862 
Q 3072 2584 2669 2484 
Q 3125 2378 3379 2068 
Q 3634 1759 3634 1313 
Q 3634 634 3220 271 
Q 2806 -91 2034 -91 
Q 1263 -91 848 271 
Q 434 634 434 1313 
Q 434 1759 690 2068 
Q 947 2378 1403 2484 
z
M 1172 3481 
Q 1172 3119 1398 2916 
Q 1625 2713 2034 2713 
Q 2441 2713 2670 2916 
Q 2900 3119 2900 3481 
Q 2900 3844 2670 4047 
Q 2441 4250 2034 4250 
Q 1625 4250 1398 4047 
Q 1172 3844 1172 3481 
z
" transform="scale(0.015625)"/>
       </defs>
       <use xlink:href="#DejaVuSans-30"/>
       <use xlink:href="#DejaVuSans-2e" x="63.623047"/>
       <use xlink:href="#DejaVuSans-38" x="95.410156"/>
      </g>
     </g>
    </g>
    <g id="ytick_2">
     <g id="line2d_17">
      <path d="M 45 273.962033 
L 324 273.962033 
" clip-path="url(#pebd29e7daa)" style="fill: none; stroke: #b0b0b0; stroke-width: 0.8; stroke-linecap: square"/>
     </g>
     <g id="line2d_18">
      <g>
       <use xlink:href="#m9fd29626a0" x="45" y="273.962033" style="stroke: #000000; stroke-width: 0.8"/>
      </g>
     </g>
     <g id="text_10">
      <!-- 0.9 -->
      <g transform="translate(22.096875 277.761251)scale(0.1 -0.1)">
       <defs>
        <path id="DejaVuSans-39" d="M 703 97 
L 703 672 
Q 941 559 1184 500 
Q 1428 441 1663 441 
Q 2288 441 2617 861 
Q 2947 1281 2994 2138 
Q 2813 1869 2534 1725 
Q 2256 1581 1919 1581 
Q 1219 1581 811 2004 
Q 403 2428 403 3163 
Q 403 3881 828 4315 
Q 1253 4750 1959 4750 
Q 2769 4750 3195 4129 
Q 3622 3509 3622 2328 
Q 3622 1225 3098 567 
Q 2575 -91 1691 -91 
Q 1453 -91 1209 -44 
Q 966 3 703 97 
z
M 1959 2075 
Q 2384 2075 2632 2365 
Q 2881 2656 2881 3163 
Q 2881 3666 2632 3958 
Q 2384 4250 1959 4250 
Q 1534 4250 1286 3958 
Q 1038 3666 1038 3163 
Q 1038 2656 1286 2365 
Q 1534 2075 1959 2075 
z
" transform="scale(0.015625)"/>
       </defs>
       <use xlink:href="#DejaVuSans-30"/>
       <use xlink:href="#DejaVuSans-2e" x="63.623047"/>
       <use xlink:href="#DejaVuSans-39" x="95.410156"/>
      </g>
     </g>
    </g>
    <g id="ytick_3">
     <g id="line2d_19">
      <path d="M 45 210.498595 
L 324 210.498595 
" clip-path="url(#pebd29e7daa)" style="fill: none; stroke: #b0b0b0; stroke-width: 0.8; stroke-linecap: square"/>
     </g>
     <g id="line2d_20">
      <g>
       <use xlink:href="#m9fd29626a0" x="45" y="210.498595" style="stroke: #000000; stroke-width: 0.8"/>
      </g>
     </g>
     <g id="text_11">
      <!-- 1.0 -->
      <g transform="translate(22.096875 214.297813)scale(0.1 -0.1)">
       <use xlink:href="#DejaVuSans-31"/>
       <use xlink:href="#DejaVuSans-2e" x="63.623047"/>
       <use xlink:href="#DejaVuSans-30" x="95.410156"/>
      </g>
     </g>
    </g>
    <g id="ytick_4">
     <g id="line2d_21">
      <path d="M 45 147.035157 
L 324 147.035157 
" clip-path="url(#pebd29e7daa)" style="fill: none; stroke: #b0b0b0; stroke-width: 0.8; stroke-linecap: square"/>
     </g>
     <g id="line2d_22">
      <g>
       <use xlink:href="#m9fd29626a0" x="45" y="147.035157" style="stroke: #000000; stroke-width: 0.8"/>
      </g>
     </g>
     <g id="text_12">
      <!-- 1.1 -->
      <g transform="translate(22.096875 150.834376)scale(0.1 -0.1)">
       <use xlink:href="#DejaVuSans-31"/>
       <use xlink:href="#DejaVuSans-2e" x="63.623047"/>
       <use xlink:href="#DejaVuSans-31" x="95.410156"/>
      </g>
     </g>
    </g>
    <g id="ytick_5">
     <g id="line2d_23">
      <path d="M 45 83.571719 
L 324 83.571719 
" clip-path="url(#pebd29e7daa)" style="fill: none; stroke: #b0b0b0; stroke-width: 0.8; stroke-linecap: square"/>
     </g>
     <g id="line2d_24">
      <g>
       <use xlink:href="#m9fd29626a0" x="45" y="83.571719" style="stroke: #000000; stroke-width: 0.8"/>
      </g>
     </g>
     <g id="text_13">
      <!-- 1.2 -->
      <g transform="translate(22.096875 87.370938)scale(0.1 -0.1)">
       <use xlink:href="#DejaVuSans-31"/>
       <use xlink:href="#DejaVuSans-2e" x="63.623047"/>
       <use xlink:href="#DejaVuSans-32" x="95.410156"/>
      </g>
     </g>
    </g>
    <g id="text_14">
     <!-- Cross Entropy Loss ($Q_2$ with $Q_1 - Q_3$ range) -->
     <g transform="translate(15.996875 322.97)rotate(-90)scale(0.1 -0.1)">
      <defs>
       <path id="DejaVuSans-43" d="M 4122 4306 
L 4122 3641 
Q 3803 3938 3442 4084 
Q 3081 4231 2675 4231 
Q 1875 4231 1450 3742 
Q 1025 3253 1025 2328 
Q 1025 1406 1450 917 
Q 1875 428 2675 428 
Q 3081 428 3442 575 
Q 3803 722 4122 1019 
L 4122 359 
Q 3791 134 3420 21 
Q 3050 -91 2638 -91 
Q 1578 -91 968 557 
Q 359 1206 359 2328 
Q 359 3453 968 4101 
Q 1578 4750 2638 4750 
Q 3056 4750 3426 4639 
Q 3797 4528 4122 4306 
z
" transform="scale(0.015625)"/>
       <path id="DejaVuSans-72" d="M 2631 2963 
Q 2534 3019 2420 3045 
Q 2306 3072 2169 3072 
Q 1681 3072 1420 2755 
Q 1159 2438 1159 1844 
L 1159 0 
L 581 0 
L 581 3500 
L 1159 3500 
L 1159 2956 
Q 1341 3275 1631 3429 
Q 1922 3584 2338 3584 
Q 2397 3584 2469 3576 
Q 2541 3569 2628 3553 
L 2631 2963 
z
" transform="scale(0.015625)"/>
       <path id="DejaVuSans-20" transform="scale(0.015625)"/>
       <path id="DejaVuSans-6e" d="M 3513 2113 
L 3513 0 
L 2938 0 
L 2938 2094 
Q 2938 2591 2744 2837 
Q 2550 3084 2163 3084 
Q 1697 3084 1428 2787 
Q 1159 2491 1159 1978 
L 1159 0 
L 581 0 
L 581 3500 
L 1159 3500 
L 1159 2956 
Q 1366 3272 1645 3428 
Q 1925 3584 2291 3584 
Q 2894 3584 3203 3211 
Q 3513 2838 3513 2113 
z
" transform="scale(0.015625)"/>
       <path id="DejaVuSans-74" d="M 1172 4494 
L 1172 3500 
L 2356 3500 
L 2356 3053 
L 1172 3053 
L 1172 1153 
Q 1172 725 1289 603 
Q 1406 481 1766 481 
L 2356 481 
L 2356 0 
L 1766 0 
Q 1100 0 847 248 
Q 594 497 594 1153 
L 594 3053 
L 172 3053 
L 172 3500 
L 594 3500 
L 594 4494 
L 1172 4494 
z
" transform="scale(0.015625)"/>
       <path id="DejaVuSans-79" d="M 2059 -325 
Q 1816 -950 1584 -1140 
Q 1353 -1331 966 -1331 
L 506 -1331 
L 506 -850 
L 844 -850 
Q 1081 -850 1212 -737 
Q 1344 -625 1503 -206 
L 1606 56 
L 191 3500 
L 800 3500 
L 1894 763 
L 2988 3500 
L 3597 3500 
L 2059 -325 
z
" transform="scale(0.015625)"/>
       <path id="DejaVuSans-4c" d="M 628 4666 
L 1259 4666 
L 1259 531 
L 3531 531 
L 3531 0 
L 628 0 
L 628 4666 
z
" transform="scale(0.015625)"/>
       <path id="DejaVuSans-28" d="M 1984 4856 
Q 1566 4138 1362 3434 
Q 1159 2731 1159 2009 
Q 1159 1288 1364 580 
Q 1569 -128 1984 -844 
L 1484 -844 
Q 1016 -109 783 600 
Q 550 1309 550 2009 
Q 550 2706 781 3412 
Q 1013 4119 1484 4856 
L 1984 4856 
z
" transform="scale(0.015625)"/>
       <path id="DejaVuSans-Oblique-51" d="M 2309 -84 
Q 2275 -88 2237 -89 
Q 2200 -91 2125 -91 
Q 1250 -91 756 411 
Q 263 913 263 1797 
Q 263 2319 452 2844 
Q 641 3369 978 3788 
Q 1369 4269 1858 4509 
Q 2347 4750 2938 4750 
Q 3794 4750 4287 4245 
Q 4781 3741 4781 2869 
Q 4781 1928 4265 1147 
Q 3750 366 2919 44 
L 3553 -825 
L 2847 -825 
L 2309 -84 
z
M 2919 4238 
Q 2400 4238 2003 3986 
Q 1606 3734 1313 3219 
Q 1125 2891 1026 2522 
Q 928 2153 928 1778 
Q 928 1128 1239 775 
Q 1550 422 2119 422 
Q 2631 422 3032 676 
Q 3434 931 3719 1434 
Q 3909 1772 4009 2142 
Q 4109 2513 4109 2881 
Q 4109 3528 3796 3883 
Q 3484 4238 2919 4238 
z
" transform="scale(0.015625)"/>
       <path id="DejaVuSans-77" d="M 269 3500 
L 844 3500 
L 1563 769 
L 2278 3500 
L 2956 3500 
L 3675 769 
L 4391 3500 
L 4966 3500 
L 4050 0 
L 3372 0 
L 2619 2869 
L 1863 0 
L 1184 0 
L 269 3500 
z
" transform="scale(0.015625)"/>
       <path id="DejaVuSans-69" d="M 603 3500 
L 1178 3500 
L 1178 0 
L 603 0 
L 603 3500 
z
M 603 4863 
L 1178 4863 
L 1178 4134 
L 603 4134 
L 603 4863 
z
" transform="scale(0.015625)"/>
       <path id="DejaVuSans-2212" d="M 678 2272 
L 4684 2272 
L 4684 1741 
L 678 1741 
L 678 2272 
z
" transform="scale(0.015625)"/>
       <path id="DejaVuSans-61" d="M 2194 1759 
Q 1497 1759 1228 1600 
Q 959 1441 959 1056 
Q 959 750 1161 570 
Q 1363 391 1709 391 
Q 2188 391 2477 730 
Q 2766 1069 2766 1631 
L 2766 1759 
L 2194 1759 
z
M 3341 1997 
L 3341 0 
L 2766 0 
L 2766 531 
Q 2569 213 2275 61 
Q 1981 -91 1556 -91 
Q 1019 -91 701 211 
Q 384 513 384 1019 
Q 384 1609 779 1909 
Q 1175 2209 1959 2209 
L 2766 2209 
L 2766 2266 
Q 2766 2663 2505 2880 
Q 2244 3097 1772 3097 
Q 1472 3097 1187 3025 
Q 903 2953 641 2809 
L 641 3341 
Q 956 3463 1253 3523 
Q 1550 3584 1831 3584 
Q 2591 3584 2966 3190 
Q 3341 2797 3341 1997 
z
" transform="scale(0.015625)"/>
       <path id="DejaVuSans-67" d="M 2906 1791 
Q 2906 2416 2648 2759 
Q 2391 3103 1925 3103 
Q 1463 3103 1205 2759 
Q 947 2416 947 1791 
Q 947 1169 1205 825 
Q 1463 481 1925 481 
Q 2391 481 2648 825 
Q 2906 1169 2906 1791 
z
M 3481 434 
Q 3481 -459 3084 -895 
Q 2688 -1331 1869 -1331 
Q 1566 -1331 1297 -1286 
Q 1028 -1241 775 -1147 
L 775 -588 
Q 1028 -725 1275 -790 
Q 1522 -856 1778 -856 
Q 2344 -856 2625 -561 
Q 2906 -266 2906 331 
L 2906 616 
Q 2728 306 2450 153 
Q 2172 0 1784 0 
Q 1141 0 747 490 
Q 353 981 353 1791 
Q 353 2603 747 3093 
Q 1141 3584 1784 3584 
Q 2172 3584 2450 3431 
Q 2728 3278 2906 2969 
L 2906 3500 
L 3481 3500 
L 3481 434 
z
" transform="scale(0.015625)"/>
       <path id="DejaVuSans-65" d="M 3597 1894 
L 3597 1613 
L 953 1613 
Q 991 1019 1311 708 
Q 1631 397 2203 397 
Q 2534 397 2845 478 
Q 3156 559 3463 722 
L 3463 178 
Q 3153 47 2828 -22 
Q 2503 -91 2169 -91 
Q 1331 -91 842 396 
Q 353 884 353 1716 
Q 353 2575 817 3079 
Q 1281 3584 2069 3584 
Q 2775 3584 3186 3129 
Q 3597 2675 3597 1894 
z
M 3022 2063 
Q 3016 2534 2758 2815 
Q 2500 3097 2075 3097 
Q 1594 3097 1305 2825 
Q 1016 2553 972 2059 
L 3022 2063 
z
" transform="scale(0.015625)"/>
       <path id="DejaVuSans-29" d="M 513 4856 
L 1013 4856 
Q 1481 4119 1714 3412 
Q 1947 2706 1947 2009 
Q 1947 1309 1714 600 
Q 1481 -109 1013 -844 
L 513 -844 
Q 928 -128 1133 580 
Q 1338 1288 1338 2009 
Q 1338 2731 1133 3434 
Q 928 4138 513 4856 
z
" transform="scale(0.015625)"/>
      </defs>
      <use xlink:href="#DejaVuSans-43" transform="translate(0 0.015625)"/>
      <use xlink:href="#DejaVuSans-72" transform="translate(69.824219 0.015625)"/>
      <use xlink:href="#DejaVuSans-6f" transform="translate(110.9375 0.015625)"/>
      <use xlink:href="#DejaVuSans-73" transform="translate(172.119141 0.015625)"/>
      <use xlink:href="#DejaVuSans-73" transform="translate(224.21875 0.015625)"/>
      <use xlink:href="#DejaVuSans-20" transform="translate(276.318359 0.015625)"/>
      <use xlink:href="#DejaVuSans-45" transform="translate(308.105469 0.015625)"/>
      <use xlink:href="#DejaVuSans-6e" transform="translate(371.289062 0.015625)"/>
      <use xlink:href="#DejaVuSans-74" transform="translate(434.667969 0.015625)"/>
      <use xlink:href="#DejaVuSans-72" transform="translate(473.876953 0.015625)"/>
      <use xlink:href="#DejaVuSans-6f" transform="translate(514.990234 0.015625)"/>
      <use xlink:href="#DejaVuSans-70" transform="translate(576.171875 0.015625)"/>
      <use xlink:href="#DejaVuSans-79" transform="translate(639.648438 0.015625)"/>
      <use xlink:href="#DejaVuSans-20" transform="translate(698.828125 0.015625)"/>
      <use xlink:href="#DejaVuSans-4c" transform="translate(730.615234 0.015625)"/>
      <use xlink:href="#DejaVuSans-6f" transform="translate(786.328125 0.015625)"/>
      <use xlink:href="#DejaVuSans-73" transform="translate(847.509766 0.015625)"/>
      <use xlink:href="#DejaVuSans-73" transform="translate(899.609375 0.015625)"/>
      <use xlink:href="#DejaVuSans-20" transform="translate(951.708984 0.015625)"/>
      <use xlink:href="#DejaVuSans-28" transform="translate(983.496094 0.015625)"/>
      <use xlink:href="#DejaVuSans-Oblique-51" transform="translate(1022.509766 0.015625)"/>
      <use xlink:href="#DejaVuSans-32" transform="translate(1101.220703 -16.390625)scale(0.7)"/>
      <use xlink:href="#DejaVuSans-20" transform="translate(1148.491211 0.015625)"/>
      <use xlink:href="#DejaVuSans-77" transform="translate(1180.27832 0.015625)"/>
      <use xlink:href="#DejaVuSans-69" transform="translate(1262.06543 0.015625)"/>
      <use xlink:href="#DejaVuSans-74" transform="translate(1289.848633 0.015625)"/>
      <use xlink:href="#DejaVuSans-68" transform="translate(1329.057617 0.015625)"/>
      <use xlink:href="#DejaVuSans-20" transform="translate(1392.436523 0.015625)"/>
      <use xlink:href="#DejaVuSans-Oblique-51" transform="translate(1424.223633 0.015625)"/>
      <use xlink:href="#DejaVuSans-31" transform="translate(1502.93457 -16.390625)scale(0.7)"/>
      <use xlink:href="#DejaVuSans-2212" transform="translate(1569.6875 0.015625)"/>
      <use xlink:href="#DejaVuSans-Oblique-51" transform="translate(1672.958984 0.015625)"/>
      <use xlink:href="#DejaVuSans-33" transform="translate(1751.669922 -16.390625)scale(0.7)"/>
      <use xlink:href="#DejaVuSans-20" transform="translate(1798.94043 0.015625)"/>
      <use xlink:href="#DejaVuSans-72" transform="translate(1830.727539 0.015625)"/>
      <use xlink:href="#DejaVuSans-61" transform="translate(1871.84082 0.015625)"/>
      <use xlink:href="#DejaVuSans-6e" transform="translate(1933.120117 0.015625)"/>
      <use xlink:href="#DejaVuSans-67" transform="translate(1996.499023 0.015625)"/>
      <use xlink:href="#DejaVuSans-65" transform="translate(2059.975586 0.015625)"/>
      <use xlink:href="#DejaVuSans-29" transform="translate(2121.499023 0.015625)"/>
     </g>
    </g>
   </g>
   <g id="line2d_25">
    <path d="M 63.19789 -1 
L 66.4279 43.320078 
L 75.173981 122.477476 
L 83.920063 165.05524 
L 92.666144 165.214274 
L 101.412226 207.595272 
L 110.158307 227.250467 
L 118.904389 222.141121 
L 127.65047 239.297176 
L 136.396552 235.20962 
L 145.142633 247.939852 
L 153.888715 240.479784 
L 162.634796 253.413024 
L 171.380878 239.436915 
L 180.126959 223.387037 
L 188.873041 235.779415 
L 197.619122 280.18776 
L 206.365204 275.507926 
L 215.111285 278.841882 
L 223.857367 272.982234 
L 232.603448 275.19543 
L 241.34953 260.544738 
L 250.095611 273.021659 
L 258.841693 282.462036 
L 267.587774 284.340907 
L 276.333856 283.446567 
L 285.079937 281.69845 
L 293.826019 278.082423 
L 302.5721 282.920095 
L 311.318182 283.280288 
" clip-path="url(#pebd29e7daa)" style="fill: none; stroke: #1f77b4; stroke-width: 1.5; stroke-linecap: square"/>
   </g>
   <g id="line2d_26">
    <path d="M 57.681818 149.406151 
L 66.4279 231.034981 
L 75.173981 268.569756 
L 83.920063 278.885126 
L 92.666144 276.626906 
L 101.412226 290.202139 
L 110.158307 294.358026 
L 118.904389 302.094596 
L 127.65047 303.764149 
L 136.396552 298.119042 
L 145.142633 305.435325 
L 153.888715 308.384052 
L 162.634796 320.270445 
L 171.380878 321.799893 
L 180.126959 316.185754 
L 188.873041 313.032989 
L 197.619122 313.030093 
L 206.365204 320.140046 
L 215.111285 316.583084 
L 223.857367 315.597379 
L 232.603448 315.915914 
L 241.34953 316.651216 
" clip-path="url(#pebd29e7daa)" style="fill: none; stroke: #ff7f0e; stroke-width: 1.5; stroke-linecap: square"/>
   </g>
   <g id="line2d_27">
    <path d="M 66.872221 -1 
L 75.173981 123.352797 
L 83.920063 82.469146 
L 92.666144 157.236171 
L 101.412226 170.664396 
L 110.158307 172.794926 
L 118.904389 198.457136 
L 127.65047 188.732737 
L 136.396552 197.660675 
L 145.142633 159.911449 
L 153.888715 210.361568 
L 162.634796 203.607784 
L 171.380878 194.865588 
L 180.126959 192.160492 
L 188.873041 227.629887 
L 197.619122 237.97988 
L 206.365204 242.515997 
L 215.111285 243.291491 
L 223.857367 242.765544 
L 232.603448 243.968128 
L 241.34953 253.143399 
L 250.095611 251.564966 
L 258.841693 246.900493 
" clip-path="url(#pebd29e7daa)" style="fill: none; stroke: #2ca02c; stroke-width: 1.5; stroke-linecap: square"/>
   </g>
   <g id="line2d_28">
    <path d="M 57.681818 9.034959 
L 66.4279 105.044474 
L 75.173981 169.793883 
L 83.920063 184.280104 
L 92.666144 192.218744 
L 101.412226 222.663024 
L 110.158307 217.993504 
L 118.904389 217.629585 
L 127.65047 229.140663 
L 136.396552 255.588948 
L 145.142633 250.375587 
L 153.888715 233.548935 
L 162.634796 242.972164 
L 171.380878 235.980039 
L 180.126959 264.192862 
L 188.873041 273.985393 
L 197.619122 264.734494 
L 206.365204 274.838014 
L 215.111285 273.658998 
L 223.857367 265.017829 
L 232.603448 277.098428 
L 241.34953 275.009639 
L 250.095611 271.324937 
" clip-path="url(#pebd29e7daa)" style="fill: none; stroke: #d62728; stroke-width: 1.5; stroke-linecap: square"/>
   </g>
   <g id="line2d_29">
    <path d="M 65.380292 -1 
L 66.4279 15.593757 
L 75.173981 128.474541 
L 83.920063 153.231782 
L 92.666144 157.296744 
L 101.412226 170.624219 
L 110.158307 197.532257 
L 118.904389 196.522348 
L 127.65047 183.103753 
L 136.396552 214.085792 
L 145.142633 232.807983 
L 153.888715 239.250801 
L 162.634796 247.812595 
L 171.380878 241.878292 
L 180.126959 249.473119 
L 188.873041 255.865933 
L 197.619122 258.899631 
L 206.365204 262.661707 
L 215.111285 268.222642 
L 223.857367 260.479776 
" clip-path="url(#pebd29e7daa)" style="fill: none; stroke-dasharray: 5.55,2.4; stroke-dashoffset: 0; stroke: #9467bd; stroke-width: 1.5"/>
   </g>
   <g id="line2d_30">
    <path d="M 57.681818 154.977653 
L 66.4279 217.170811 
L 75.173981 232.122399 
L 83.920063 262.313059 
L 92.666144 261.665985 
L 101.412226 262.944297 
L 110.158307 260.761357 
L 118.904389 271.380835 
L 127.65047 274.325871 
L 136.396552 287.611973 
L 145.142633 284.970467 
L 153.888715 289.638664 
L 162.634796 301.117923 
L 171.380878 290.725593 
L 180.126959 302.108939 
L 188.873041 290.810416 
L 197.619122 302.004448 
L 206.365204 302.832027 
L 215.111285 303.332991 
L 223.857367 306.975791 
L 232.603448 306.788196 
L 241.34953 307.514574 
L 250.095611 309.248692 
L 258.841693 306.971774 
" clip-path="url(#pebd29e7daa)" style="fill: none; stroke-dasharray: 5.55,2.4; stroke-dashoffset: 0; stroke: #8c564b; stroke-width: 1.5"/>
   </g>
   <g id="line2d_31">
    <path d="M 60.4099 -1 
L 66.4279 188.304398 
L 75.173981 254.630681 
L 83.920063 270.405088 
L 92.666144 286.02985 
L 101.412226 283.427511 
L 110.158307 282.335554 
L 118.904389 285.858407 
L 127.65047 283.827383 
L 136.396552 287.775701 
L 145.142633 294.42271 
L 153.888715 275.034466 
L 162.634796 280.242331 
L 171.380878 278.986176 
L 180.126959 293.066663 
L 188.873041 282.227737 
L 197.619122 283.343243 
L 206.365204 289.288513 
L 215.111285 280.778009 
L 223.857367 290.976921 
" clip-path="url(#pebd29e7daa)" style="fill: none; stroke-dasharray: 5.55,2.4; stroke-dashoffset: 0; stroke: #e377c2; stroke-width: 1.5"/>
   </g>
   <g id="line2d_32">
    <path d="M 57.681818 141.611368 
L 66.4279 245.965745 
L 75.173981 276.117008 
L 83.920063 291.579191 
L 92.666144 302.884362 
L 101.412226 311.033817 
L 110.158307 296.021709 
L 118.904389 299.359462 
L 127.65047 297.007915 
L 136.396552 311.056161 
L 145.142633 311.834825 
L 153.888715 306.653427 
L 162.634796 302.262486 
L 171.380878 316.379087 
L 180.126959 313.704647 
L 188.873041 310.228007 
L 197.619122 316.267462 
L 206.365204 314.276076 
L 215.111285 313.026488 
L 223.857367 315.257252 
" clip-path="url(#pebd29e7daa)" style="fill: none; stroke-dasharray: 5.55,2.4; stroke-dashoffset: 0; stroke: #7f7f7f; stroke-width: 1.5"/>
   </g>
   <g id="patch_3">
    <path d="M 45 378 
L 45 51.84 
" style="fill: none; stroke: #000000; stroke-width: 0.8; stroke-linejoin: miter; stroke-linecap: square"/>
   </g>
   <g id="patch_4">
    <path d="M 324 378 
L 324 51.84 
" style="fill: none; stroke: #000000; stroke-width: 0.8; stroke-linejoin: miter; stroke-linecap: square"/>
   </g>
   <g id="patch_5">
    <path d="M 45 378 
L 324 378 
" style="fill: none; stroke: #000000; stroke-width: 0.8; stroke-linejoin: miter; stroke-linecap: square"/>
   </g>
   <g id="patch_6">
    <path d="M 45 51.84 
L 324 51.84 
" style="fill: none; stroke: #000000; stroke-width: 0.8; stroke-linejoin: miter; stroke-linecap: square"/>
   </g>
   <g id="legend_1">
    <g id="patch_7">
     <path d="M 206.728125 178.93375 
L 317 178.93375 
Q 319 178.93375 319 176.93375 
L 319 58.84 
Q 319 56.84 317 56.84 
L 206.728125 56.84 
Q 204.728125 56.84 204.728125 58.84 
L 204.728125 176.93375 
Q 204.728125 178.93375 206.728125 178.93375 
z
" style="fill: #ffffff; opacity: 0.8; stroke: #cccccc; stroke-linejoin: miter"/>
    </g>
    <g id="line2d_33">
     <path d="M 208.728125 64.938437 
L 218.728125 64.938437 
L 228.728125 64.938437 
" style="fill: none; stroke: #1f77b4; stroke-width: 1.5; stroke-linecap: square"/>
    </g>
    <g id="text_15">
     <!-- vit_t_16 -->
     <g transform="translate(236.728125 68.438437)scale(0.1 -0.1)">
      <defs>
       <path id="DejaVuSans-76" d="M 191 3500 
L 800 3500 
L 1894 563 
L 2988 3500 
L 3597 3500 
L 2284 0 
L 1503 0 
L 191 3500 
z
" transform="scale(0.015625)"/>
       <path id="DejaVuSans-5f" d="M 3263 -1063 
L 3263 -1509 
L -63 -1509 
L -63 -1063 
L 3263 -1063 
z
" transform="scale(0.015625)"/>
       <path id="DejaVuSans-36" d="M 2113 2584 
Q 1688 2584 1439 2293 
Q 1191 2003 1191 1497 
Q 1191 994 1439 701 
Q 1688 409 2113 409 
Q 2538 409 2786 701 
Q 3034 994 3034 1497 
Q 3034 2003 2786 2293 
Q 2538 2584 2113 2584 
z
M 3366 4563 
L 3366 3988 
Q 3128 4100 2886 4159 
Q 2644 4219 2406 4219 
Q 1781 4219 1451 3797 
Q 1122 3375 1075 2522 
Q 1259 2794 1537 2939 
Q 1816 3084 2150 3084 
Q 2853 3084 3261 2657 
Q 3669 2231 3669 1497 
Q 3669 778 3244 343 
Q 2819 -91 2113 -91 
Q 1303 -91 875 529 
Q 447 1150 447 2328 
Q 447 3434 972 4092 
Q 1497 4750 2381 4750 
Q 2619 4750 2861 4703 
Q 3103 4656 3366 4563 
z
" transform="scale(0.015625)"/>
      </defs>
      <use xlink:href="#DejaVuSans-76"/>
      <use xlink:href="#DejaVuSans-69" x="59.179688"/>
      <use xlink:href="#DejaVuSans-74" x="86.962891"/>
      <use xlink:href="#DejaVuSans-5f" x="126.171875"/>
      <use xlink:href="#DejaVuSans-74" x="176.171875"/>
      <use xlink:href="#DejaVuSans-5f" x="215.380859"/>
      <use xlink:href="#DejaVuSans-31" x="265.380859"/>
      <use xlink:href="#DejaVuSans-36" x="329.003906"/>
     </g>
    </g>
    <g id="line2d_34">
     <path d="M 208.728125 79.894687 
L 218.728125 79.894687 
L 228.728125 79.894687 
" style="fill: none; stroke: #ff7f0e; stroke-width: 1.5; stroke-linecap: square"/>
    </g>
    <g id="text_16">
     <!-- swin_t -->
     <g transform="translate(236.728125 83.394687)scale(0.1 -0.1)">
      <use xlink:href="#DejaVuSans-73"/>
      <use xlink:href="#DejaVuSans-77" x="52.099609"/>
      <use xlink:href="#DejaVuSans-69" x="133.886719"/>
      <use xlink:href="#DejaVuSans-6e" x="161.669922"/>
      <use xlink:href="#DejaVuSans-5f" x="225.048828"/>
      <use xlink:href="#DejaVuSans-74" x="275.048828"/>
     </g>
    </g>
    <g id="line2d_35">
     <path d="M 208.728125 94.850937 
L 218.728125 94.850937 
L 228.728125 94.850937 
" style="fill: none; stroke: #2ca02c; stroke-width: 1.5; stroke-linecap: square"/>
    </g>
    <g id="text_17">
     <!-- beit_b_16 -->
     <g transform="translate(236.728125 98.350937)scale(0.1 -0.1)">
      <defs>
       <path id="DejaVuSans-62" d="M 3116 1747 
Q 3116 2381 2855 2742 
Q 2594 3103 2138 3103 
Q 1681 3103 1420 2742 
Q 1159 2381 1159 1747 
Q 1159 1113 1420 752 
Q 1681 391 2138 391 
Q 2594 391 2855 752 
Q 3116 1113 3116 1747 
z
M 1159 2969 
Q 1341 3281 1617 3432 
Q 1894 3584 2278 3584 
Q 2916 3584 3314 3078 
Q 3713 2572 3713 1747 
Q 3713 922 3314 415 
Q 2916 -91 2278 -91 
Q 1894 -91 1617 61 
Q 1341 213 1159 525 
L 1159 0 
L 581 0 
L 581 4863 
L 1159 4863 
L 1159 2969 
z
" transform="scale(0.015625)"/>
      </defs>
      <use xlink:href="#DejaVuSans-62"/>
      <use xlink:href="#DejaVuSans-65" x="63.476562"/>
      <use xlink:href="#DejaVuSans-69" x="125"/>
      <use xlink:href="#DejaVuSans-74" x="152.783203"/>
      <use xlink:href="#DejaVuSans-5f" x="191.992188"/>
      <use xlink:href="#DejaVuSans-62" x="241.992188"/>
      <use xlink:href="#DejaVuSans-5f" x="305.46875"/>
      <use xlink:href="#DejaVuSans-31" x="355.46875"/>
      <use xlink:href="#DejaVuSans-36" x="419.091797"/>
     </g>
    </g>
    <g id="line2d_36">
     <path d="M 208.728125 109.807187 
L 218.728125 109.807187 
L 228.728125 109.807187 
" style="fill: none; stroke: #d62728; stroke-width: 1.5; stroke-linecap: square"/>
    </g>
    <g id="text_18">
     <!-- deit_t_16 -->
     <g transform="translate(236.728125 113.307187)scale(0.1 -0.1)">
      <defs>
       <path id="DejaVuSans-64" d="M 2906 2969 
L 2906 4863 
L 3481 4863 
L 3481 0 
L 2906 0 
L 2906 525 
Q 2725 213 2448 61 
Q 2172 -91 1784 -91 
Q 1150 -91 751 415 
Q 353 922 353 1747 
Q 353 2572 751 3078 
Q 1150 3584 1784 3584 
Q 2172 3584 2448 3432 
Q 2725 3281 2906 2969 
z
M 947 1747 
Q 947 1113 1208 752 
Q 1469 391 1925 391 
Q 2381 391 2643 752 
Q 2906 1113 2906 1747 
Q 2906 2381 2643 2742 
Q 2381 3103 1925 3103 
Q 1469 3103 1208 2742 
Q 947 2381 947 1747 
z
" transform="scale(0.015625)"/>
      </defs>
      <use xlink:href="#DejaVuSans-64"/>
      <use xlink:href="#DejaVuSans-65" x="63.476562"/>
      <use xlink:href="#DejaVuSans-69" x="125"/>
      <use xlink:href="#DejaVuSans-74" x="152.783203"/>
      <use xlink:href="#DejaVuSans-5f" x="191.992188"/>
      <use xlink:href="#DejaVuSans-74" x="241.992188"/>
      <use xlink:href="#DejaVuSans-5f" x="281.201172"/>
      <use xlink:href="#DejaVuSans-31" x="331.201172"/>
      <use xlink:href="#DejaVuSans-36" x="394.824219"/>
     </g>
    </g>
    <g id="line2d_37">
     <path d="M 208.728125 124.763437 
L 218.728125 124.763437 
L 228.728125 124.763437 
" style="fill: none; stroke-dasharray: 5.55,2.4; stroke-dashoffset: 0; stroke: #9467bd; stroke-width: 1.5"/>
    </g>
    <g id="text_19">
     <!-- vgg19 -->
     <g transform="translate(236.728125 128.263437)scale(0.1 -0.1)">
      <use xlink:href="#DejaVuSans-76"/>
      <use xlink:href="#DejaVuSans-67" x="59.179688"/>
      <use xlink:href="#DejaVuSans-67" x="122.65625"/>
      <use xlink:href="#DejaVuSans-31" x="186.132812"/>
      <use xlink:href="#DejaVuSans-39" x="249.755859"/>
     </g>
    </g>
    <g id="line2d_38">
     <path d="M 208.728125 139.441562 
L 218.728125 139.441562 
L 228.728125 139.441562 
" style="fill: none; stroke-dasharray: 5.55,2.4; stroke-dashoffset: 0; stroke: #8c564b; stroke-width: 1.5"/>
    </g>
    <g id="text_20">
     <!-- resnet50 -->
     <g transform="translate(236.728125 142.941562)scale(0.1 -0.1)">
      <use xlink:href="#DejaVuSans-72"/>
      <use xlink:href="#DejaVuSans-65" x="38.863281"/>
      <use xlink:href="#DejaVuSans-73" x="100.386719"/>
      <use xlink:href="#DejaVuSans-6e" x="152.486328"/>
      <use xlink:href="#DejaVuSans-65" x="215.865234"/>
      <use xlink:href="#DejaVuSans-74" x="277.388672"/>
      <use xlink:href="#DejaVuSans-35" x="316.597656"/>
      <use xlink:href="#DejaVuSans-30" x="380.220703"/>
     </g>
    </g>
    <g id="line2d_39">
     <path d="M 208.728125 154.119687 
L 218.728125 154.119687 
L 228.728125 154.119687 
" style="fill: none; stroke-dasharray: 5.55,2.4; stroke-dashoffset: 0; stroke: #e377c2; stroke-width: 1.5"/>
    </g>
    <g id="text_21">
     <!-- efficientnetv2_t -->
     <g transform="translate(236.728125 157.619687)scale(0.1 -0.1)">
      <defs>
       <path id="DejaVuSans-66" d="M 2375 4863 
L 2375 4384 
L 1825 4384 
Q 1516 4384 1395 4259 
Q 1275 4134 1275 3809 
L 1275 3500 
L 2222 3500 
L 2222 3053 
L 1275 3053 
L 1275 0 
L 697 0 
L 697 3053 
L 147 3053 
L 147 3500 
L 697 3500 
L 697 3744 
Q 697 4328 969 4595 
Q 1241 4863 1831 4863 
L 2375 4863 
z
" transform="scale(0.015625)"/>
      </defs>
      <use xlink:href="#DejaVuSans-65"/>
      <use xlink:href="#DejaVuSans-66" x="61.523438"/>
      <use xlink:href="#DejaVuSans-66" x="96.728516"/>
      <use xlink:href="#DejaVuSans-69" x="131.933594"/>
      <use xlink:href="#DejaVuSans-63" x="159.716797"/>
      <use xlink:href="#DejaVuSans-69" x="214.697266"/>
      <use xlink:href="#DejaVuSans-65" x="242.480469"/>
      <use xlink:href="#DejaVuSans-6e" x="304.003906"/>
      <use xlink:href="#DejaVuSans-74" x="367.382812"/>
      <use xlink:href="#DejaVuSans-6e" x="406.591797"/>
      <use xlink:href="#DejaVuSans-65" x="469.970703"/>
      <use xlink:href="#DejaVuSans-74" x="531.494141"/>
      <use xlink:href="#DejaVuSans-76" x="570.703125"/>
      <use xlink:href="#DejaVuSans-32" x="629.882812"/>
      <use xlink:href="#DejaVuSans-5f" x="693.505859"/>
      <use xlink:href="#DejaVuSans-74" x="743.505859"/>
     </g>
    </g>
    <g id="line2d_40">
     <path d="M 208.728125 169.075937 
L 218.728125 169.075937 
L 228.728125 169.075937 
" style="fill: none; stroke-dasharray: 5.55,2.4; stroke-dashoffset: 0; stroke: #7f7f7f; stroke-width: 1.5"/>
    </g>
    <g id="text_22">
     <!-- convnext_t -->
     <g transform="translate(236.728125 172.575937)scale(0.1 -0.1)">
      <defs>
       <path id="DejaVuSans-78" d="M 3513 3500 
L 2247 1797 
L 3578 0 
L 2900 0 
L 1881 1375 
L 863 0 
L 184 0 
L 1544 1831 
L 300 3500 
L 978 3500 
L 1906 2253 
L 2834 3500 
L 3513 3500 
z
" transform="scale(0.015625)"/>
      </defs>
      <use xlink:href="#DejaVuSans-63"/>
      <use xlink:href="#DejaVuSans-6f" x="54.980469"/>
      <use xlink:href="#DejaVuSans-6e" x="116.162109"/>
      <use xlink:href="#DejaVuSans-76" x="179.541016"/>
      <use xlink:href="#DejaVuSans-6e" x="238.720703"/>
      <use xlink:href="#DejaVuSans-65" x="302.099609"/>
      <use xlink:href="#DejaVuSans-78" x="361.873047"/>
      <use xlink:href="#DejaVuSans-74" x="421.052734"/>
      <use xlink:href="#DejaVuSans-5f" x="460.261719"/>
      <use xlink:href="#DejaVuSans-74" x="510.261719"/>
     </g>
    </g>
   </g>
  </g>
 </g>
 <defs>
  <clipPath id="pebd29e7daa">
   <rect x="45" y="51.84" width="279" height="326.16"/>
  </clipPath>
 </defs>
</svg>
