<?xml version="1.0" encoding="utf-8" standalone="no"?>
<!DOCTYPE svg PUBLIC "-//W3C//DTD SVG 1.1//EN"
  "http://www.w3.org/Graphics/SVG/1.1/DTD/svg11.dtd">
<svg xmlns:xlink="http://www.w3.org/1999/xlink" width="288pt" height="324pt" viewBox="0 0 288 324" xmlns="http://www.w3.org/2000/svg" version="1.1">
 <metadata>
  <rdf:RDF xmlns:dc="http://purl.org/dc/elements/1.1/" xmlns:cc="http://creativecommons.org/ns#" xmlns:rdf="http://www.w3.org/1999/02/22-rdf-syntax-ns#">
   <cc:Work>
    <dc:type rdf:resource="http://purl.org/dc/dcmitype/StillImage"/>
    <dc:date>2022-06-07T14:58:34.337570</dc:date>
    <dc:format>image/svg+xml</dc:format>
    <dc:creator>
     <cc:Agent>
      <dc:title>Matplotlib v3.5.2, https://matplotlib.org/</dc:title>
     </cc:Agent>
    </dc:creator>
   </cc:Work>
  </rdf:RDF>
 </metadata>
 <defs>
  <style type="text/css">*{stroke-linejoin: round; stroke-linecap: butt}</style>
 </defs>
 <g id="figure_1">
  <g id="patch_1">
   <path d="M 0 324 
L 288 324 
L 288 0 
L 0 0 
L 0 324 
z
" style="fill: none"/>
  </g>
  <g id="axes_1">
   <g id="patch_2">
    <path d="M 36 283.5 
L 259.2 283.5 
L 259.2 38.88 
L 36 38.88 
z
" style="fill: #ffffff"/>
   </g>
   <g id="PolyCollection_1">
    <path d="M 46.145455 288.080508 
L 46.145455 300.509775 
L 50.124064 239.08838 
L 54.102674 211.907944 
L 58.081283 193.752598 
L 62.059893 182.539131 
L 66.038503 175.368687 
L 70.017112 168.837268 
L 73.995722 162.900143 
L 77.974332 162.211795 
L 81.952941 160.736473 
L 85.931551 158.560403 
L 89.91016 155.431693 
L 93.88877 153.067039 
L 97.86738 149.360237 
L 101.845989 147.112243 
L 105.824599 148.452296 
L 109.803209 145.700276 
L 113.781818 149.598391 
L 117.760428 147.054582 
L 121.739037 145.252311 
L 125.717647 145.001187 
L 129.696257 147.546683 
L 133.674866 146.313538 
L 137.653476 146.040463 
L 141.632086 143.068256 
L 145.610695 144.031844 
L 149.589305 141.39489 
L 153.567914 142.536813 
L 157.546524 140.183778 
L 161.525134 144.382578 
L 165.503743 141.782351 
L 169.482353 141.791252 
L 173.460963 142.839324 
L 177.439572 140.728694 
L 177.439572 133.859224 
L 177.439572 133.859224 
L 173.460963 134.683196 
L 169.482353 133.635124 
L 165.503743 132.805567 
L 161.525134 135.236085 
L 157.546524 131.888767 
L 153.567914 133.728019 
L 149.589305 134.031485 
L 145.610695 136.006048 
L 141.632086 135.292721 
L 137.653476 136.512802 
L 133.674866 139.174329 
L 129.696257 139.19887 
L 125.717647 140.06745 
L 121.739037 138.977869 
L 117.760428 141.367886 
L 113.781818 143.016365 
L 109.803209 140.626048 
L 105.824599 141.647087 
L 101.845989 142.567911 
L 97.86738 141.996832 
L 93.88877 146.255377 
L 89.91016 146.406096 
L 85.931551 150.404275 
L 81.952941 151.162807 
L 77.974332 153.041315 
L 73.995722 153.610654 
L 70.017112 159.831164 
L 66.038503 164.618922 
L 62.059893 172.121486 
L 58.081283 183.965603 
L 54.102674 199.34856 
L 50.124064 227.925553 
L 46.145455 288.080508 
z
" clip-path="url(#p52184fdb62)" style="fill: #1f77b4; fill-opacity: 0.2"/>
   </g>
   <g id="PolyCollection_2">
    <path d="M 46.145455 240.991015 
L 46.145455 256.62662 
L 50.124064 195.10994 
L 54.102674 172.832122 
L 58.081283 156.52573 
L 62.059893 151.73547 
L 66.038503 148.132155 
L 70.017112 140.356708 
L 73.995722 132.707749 
L 77.974332 131.560572 
L 81.952941 128.870953 
L 85.931551 130.167069 
L 89.91016 124.799114 
L 93.88877 124.860835 
L 97.86738 122.689893 
L 101.845989 121.465105 
L 105.824599 121.417559 
L 109.803209 118.404782 
L 113.781818 115.315772 
L 117.760428 116.9307 
L 121.739037 114.765756 
L 125.717647 113.812953 
L 129.696257 115.265094 
L 133.674866 113.064281 
L 137.653476 113.232612 
L 141.632086 113.331893 
L 145.610695 114.496147 
L 149.589305 111.55755 
L 153.567914 110.995793 
L 157.546524 110.665779 
L 161.525134 109.233116 
L 165.503743 110.93733 
L 169.482353 110.508007 
L 173.460963 112.019989 
L 177.439572 110.877301 
L 181.418182 110.486047 
L 181.418182 100.798323 
L 181.418182 100.798323 
L 177.439572 102.503213 
L 173.460963 101.360525 
L 169.482353 101.614821 
L 165.503743 102.862413 
L 161.525134 101.212797 
L 157.546524 101.457049 
L 153.567914 104.480865 
L 149.589305 100.565278 
L 145.610695 103.495884 
L 141.632086 105.079366 
L 137.653476 104.759419 
L 133.674866 104.508521 
L 129.696257 107.338454 
L 125.717647 103.340621 
L 121.739037 104.483961 
L 117.760428 106.930534 
L 113.781818 106.868546 
L 109.803209 109.229511 
L 105.824599 111.24748 
L 101.845989 110.361476 
L 97.86738 109.555916 
L 93.88877 113.254178 
L 89.91016 113.735127 
L 85.931551 118.428663 
L 81.952941 118.047865 
L 77.974332 119.131304 
L 73.995722 119.661042 
L 70.017112 126.685092 
L 66.038503 136.098025 
L 62.059893 141.717744 
L 58.081283 148.665889 
L 54.102674 163.801657 
L 50.124064 186.381319 
L 46.145455 240.991015 
z
" clip-path="url(#p52184fdb62)" style="fill: #ff7f0e; fill-opacity: 0.2"/>
   </g>
   <g id="PolyCollection_3">
    <path d="M 46.145455 365.007795 
L 46.145455 369.474107 
L 50.124064 291.356925 
L 54.102674 264.104376 
L 58.081283 249.682867 
L 62.059893 244.110568 
L 66.038503 229.27664 
L 70.017112 226.658057 
L 73.995722 218.634413 
L 77.974332 217.388046 
L 81.952941 215.070968 
L 85.931551 209.64644 
L 89.91016 209.105808 
L 93.88877 208.362267 
L 97.86738 204.196354 
L 101.845989 203.290295 
L 105.824599 197.136373 
L 109.803209 201.236484 
L 113.781818 197.563442 
L 117.760428 197.220838 
L 121.739037 197.76327 
L 125.717647 201.364822 
L 129.696257 197.232747 
L 133.674866 192.962801 
L 137.653476 194.666214 
L 141.632086 195.618961 
L 145.610695 190.108045 
L 149.589305 193.880133 
L 153.567914 191.113899 
L 157.546524 190.355245 
L 161.525134 194.58046 
L 165.503743 190.72746 
L 169.482353 190.572773 
L 169.482353 179.180081 
L 169.482353 179.180081 
L 165.503743 179.863851 
L 161.525134 183.137741 
L 157.546524 178.139922 
L 153.567914 177.800497 
L 149.589305 182.580381 
L 145.610695 180.064037 
L 141.632086 182.099239 
L 137.653476 183.051987 
L 133.674866 186.851544 
L 129.696257 187.193114 
L 125.717647 185.995641 
L 121.739037 185.404905 
L 117.760428 187.624252 
L 113.781818 187.281648 
L 109.803209 188.220122 
L 105.824599 183.935658 
L 101.845989 190.358599 
L 97.86738 191.129456 
L 93.88877 196.186576 
L 89.91016 199.216095 
L 85.931551 199.094692 
L 81.952941 204.150883 
L 77.974332 208.122236 
L 73.995722 207.714328 
L 70.017112 218.555979 
L 66.038503 221.806599 
L 62.059893 232.545627 
L 58.081283 240.388649 
L 54.102674 253.636241 
L 50.124064 279.20652 
L 46.145455 365.007795 
z
" clip-path="url(#p52184fdb62)" style="fill: #2ca02c; fill-opacity: 0.2"/>
   </g>
   <g id="PolyCollection_4">
    <path d="M 46.145455 271.313485 
L 46.145455 285.415409 
L 50.124064 222.121962 
L 54.102674 196.809456 
L 58.081283 182.528576 
L 62.059893 170.784374 
L 66.038503 162.224945 
L 70.017112 158.925131 
L 73.995722 153.889332 
L 77.974332 147.816326 
L 81.952941 148.011779 
L 85.931551 146.313538 
L 89.91016 142.337013 
L 93.88877 144.713486 
L 97.86738 143.892561 
L 101.845989 138.76126 
L 105.824599 139.09942 
L 109.803209 139.691849 
L 113.781818 136.640215 
L 117.760428 138.894405 
L 121.739037 139.259839 
L 125.717647 137.162148 
L 129.696257 138.200505 
L 133.674866 133.994913 
L 137.653476 135.366969 
L 141.632086 133.215001 
L 145.610695 136.807545 
L 149.589305 132.680163 
L 149.589305 123.042459 
L 149.589305 123.042459 
L 145.610695 127.718882 
L 141.632086 124.184536 
L 137.653476 124.547941 
L 133.674866 125.919997 
L 129.696257 131.356667 
L 125.717647 129.460423 
L 121.739037 132.812706 
L 117.760428 131.501225 
L 113.781818 128.724669 
L 109.803209 133.638383 
L 105.824599 132.134668 
L 101.845989 133.311285 
L 97.86738 136.145331 
L 93.88877 136.162863 
L 89.91016 135.185506 
L 85.931551 139.174329 
L 81.952941 139.99146 
L 77.974332 141.4446 
L 73.995722 147.109999 
L 70.017112 152.974149 
L 66.038503 155.543538 
L 62.059893 161.657117 
L 58.081283 172.132041 
L 54.102674 185.101033 
L 50.124064 208.838295 
L 46.145455 271.313485 
z
" clip-path="url(#p52184fdb62)" style="fill: #d62728; fill-opacity: 0.2"/>
   </g>
   <g id="PolyCollection_5">
    <path d="M 46.145455 260.664135 
L 46.145455 274.264863 
L 50.124064 241.010478 
L 54.102674 224.442924 
L 58.081283 216.472053 
L 62.059893 211.658983 
L 66.038503 205.384436 
L 70.017112 210.440341 
L 73.995722 205.780565 
L 77.974332 205.736648 
L 81.952941 200.370966 
L 85.931551 201.00402 
L 89.91016 197.474217 
L 93.88877 197.661033 
L 97.86738 196.921763 
L 101.845989 192.390383 
L 105.824599 197.649791 
L 109.803209 197.749237 
L 113.781818 192.468444 
L 117.760428 196.178678 
L 121.739037 190.709761 
L 125.717647 192.801888 
L 125.717647 180.724024 
L 125.717647 180.724024 
L 121.739037 181.558466 
L 117.760428 183.216438 
L 113.781818 178.542095 
L 109.803209 182.903565 
L 105.824599 184.260697 
L 101.845989 184.908588 
L 97.86738 186.665641 
L 93.88877 185.926371 
L 89.91016 184.8555 
L 85.931551 187.194901 
L 81.952941 187.408726 
L 77.974332 190.42762 
L 73.995722 196.252905 
L 70.017112 198.30079 
L 66.038503 197.068264 
L 62.059893 202.112894 
L 58.081283 204.007485 
L 54.102674 213.644222 
L 50.124064 225.584226 
L 46.145455 260.664135 
z
" clip-path="url(#p52184fdb62)" style="fill: #9467bd; fill-opacity: 0.2"/>
   </g>
   <g id="PolyCollection_6">
    <path d="M 46.145455 268.863434 
L 46.145455 276.965512 
L 50.124064 226.230875 
L 54.102674 210.224758 
L 58.081283 201.754218 
L 62.059893 188.929485 
L 66.038503 183.632507 
L 70.017112 181.027584 
L 73.995722 176.753489 
L 77.974332 173.639529 
L 81.952941 178.242058 
L 85.931551 166.356808 
L 89.91016 164.880597 
L 93.88877 164.383388 
L 97.86738 168.062752 
L 101.845989 165.585137 
L 105.824599 165.066702 
L 109.803209 160.314285 
L 113.781818 163.694443 
L 117.760428 159.683897 
L 121.739037 158.709443 
L 125.717647 168.112344 
L 129.696257 154.609221 
L 133.674866 161.865831 
L 137.653476 161.476826 
L 141.632086 160.044196 
L 145.610695 161.277314 
L 149.589305 156.112088 
L 153.567914 159.177433 
L 157.546524 156.644595 
L 161.525134 155.320797 
L 165.503743 154.561435 
L 165.503743 144.760981 
L 165.503743 144.760981 
L 161.525134 146.936221 
L 157.546524 145.612423 
L 153.567914 149.368017 
L 149.589305 148.241074 
L 145.610695 149.36428 
L 141.632086 152.274313 
L 137.653476 149.164768 
L 133.674866 149.194992 
L 129.696257 145.132424 
L 125.717647 155.106113 
L 121.739037 148.578321 
L 117.760428 151.796154 
L 113.781818 153.654811 
L 109.803209 150.327309 
L 105.824599 155.636383 
L 101.845989 152.602575 
L 97.86738 157.25185 
L 93.88877 156.738926 
L 89.91016 160.434004 
L 85.931551 161.053937 
L 81.952941 164.680153 
L 77.974332 166.348081 
L 73.995722 169.522552 
L 70.017112 171.536889 
L 66.038503 175.639627 
L 62.059893 184.177198 
L 58.081283 193.152363 
L 54.102674 204.385576 
L 50.124064 221.079305 
L 46.145455 268.863434 
z
" clip-path="url(#p52184fdb62)" style="fill: #8c564b; fill-opacity: 0.2"/>
   </g>
   <g id="PolyCollection_7">
    <path d="M 46.145455 305.396439 
L 46.145455 313.378317 
L 50.124064 283.461304 
L 54.102674 265.67676 
L 58.081283 253.369644 
L 62.059893 243.713657 
L 66.038503 237.540157 
L 70.017112 231.697649 
L 73.995722 227.848919 
L 77.974332 228.289861 
L 81.952941 224.839639 
L 85.931551 219.839698 
L 89.91016 219.618408 
L 93.88877 216.11536 
L 97.86738 213.783723 
L 101.845989 209.756726 
L 105.824599 209.250145 
L 109.803209 209.195626 
L 113.781818 209.664528 
L 117.760428 205.314511 
L 121.739037 206.76941 
L 125.717647 202.503664 
L 129.696257 202.396138 
L 133.674866 200.143261 
L 137.653476 202.112813 
L 141.632086 202.715892 
L 145.610695 198.107543 
L 149.589305 200.394784 
L 153.567914 196.812208 
L 157.546524 197.650665 
L 161.525134 197.040411 
L 165.503743 196.063099 
L 169.482353 197.243676 
L 173.460963 198.466845 
L 177.439572 194.998491 
L 177.439572 181.881252 
L 177.439572 181.881252 
L 173.460963 183.862873 
L 169.482353 184.666812 
L 165.503743 184.589703 
L 161.525134 183.193163 
L 157.546524 185.098281 
L 153.567914 184.259823 
L 149.589305 184.450306 
L 145.610695 183.383717 
L 141.632086 185.902257 
L 137.653476 186.505336 
L 133.674866 185.121058 
L 129.696257 188.737384 
L 125.717647 185.695256 
L 121.739037 188.975629 
L 117.760428 189.172841 
L 113.781818 193.626629 
L 109.803209 192.418616 
L 105.824599 191.525639 
L 101.845989 196.049804 
L 97.86738 199.149696 
L 93.88877 198.914203 
L 89.91016 204.214959 
L 85.931551 204.832127 
L 81.952941 209.893677 
L 77.974332 213.151116 
L 73.995722 213.592058 
L 70.017112 219.385591 
L 66.038503 224.443031 
L 62.059893 232.52331 
L 58.081283 242.151847 
L 54.102674 252.902315 
L 50.124064 272.429133 
L 46.145455 305.396439 
z
" clip-path="url(#p52184fdb62)" style="fill: #e377c2; fill-opacity: 0.2"/>
   </g>
   <g id="PolyCollection_8">
    <path d="M 46.145455 312.001739 
L 46.145455 321.446025 
L 50.124064 255.230395 
L 54.102674 222.279096 
L 58.081283 202.65538 
L 62.059893 189.613421 
L 66.038503 182.017429 
L 70.017112 173.124206 
L 73.995722 172.054817 
L 77.974332 166.137387 
L 81.952941 161.62931 
L 85.931551 159.351734 
L 89.91016 156.550409 
L 93.88877 157.481818 
L 97.86738 151.785178 
L 101.845989 150.510129 
L 105.824599 150.488618 
L 109.803209 146.404236 
L 113.781818 149.491911 
L 117.760428 145.105572 
L 121.739037 143.488053 
L 125.717647 141.003293 
L 129.696257 141.337762 
L 133.674866 141.17642 
L 137.653476 139.654011 
L 141.632086 140.968643 
L 145.610695 140.286927 
L 149.589305 141.227423 
L 153.567914 134.985818 
L 157.546524 135.113678 
L 161.525134 137.454842 
L 165.503743 134.016818 
L 169.482353 135.57252 
L 173.460963 132.758046 
L 177.439572 133.371419 
L 181.418182 133.778506 
L 185.396791 131.912552 
L 189.375401 134.390706 
L 193.354011 133.868573 
L 197.33262 132.507643 
L 201.31123 132.130289 
L 205.28984 129.506665 
L 209.268449 127.582137 
L 213.247059 126.631111 
L 217.225668 130.135532 
L 221.204278 129.518536 
L 225.182888 125.912587 
L 229.161497 127.010928 
L 233.140107 128.738347 
L 237.118717 127.743736 
L 241.097326 127.358 
L 245.075936 127.042229 
L 249.054545 128.558585 
L 249.054545 115.006402 
L 249.054545 115.006402 
L 245.075936 115.684301 
L 241.097326 116.206987 
L 237.118717 120.013539 
L 233.140107 119.018928 
L 229.161497 117.811745 
L 225.182888 118.910086 
L 221.204278 119.496425 
L 217.225668 119.717887 
L 213.247059 118.610792 
L 209.268449 119.755909 
L 205.28984 121.185211 
L 201.31123 123.173105 
L 197.33262 122.376521 
L 193.354011 122.273278 
L 189.375401 123.847289 
L 185.396791 122.552383 
L 181.418182 123.201803 
L 177.439572 122.351203 
L 173.460963 123.383805 
L 169.482353 124.761618 
L 165.503743 125.059634 
L 161.525134 126.233128 
L 157.546524 126.058918 
L 153.567914 125.76755 
L 149.589305 128.329749 
L 145.610695 129.689474 
L 141.632086 129.007758 
L 137.653476 129.483932 
L 133.674866 129.21921 
L 129.696257 131.57324 
L 125.717647 131.069252 
L 121.739037 134.034467 
L 117.760428 133.255405 
L 113.781818 140.188243 
L 109.803209 139.502859 
L 105.824599 142.545366 
L 101.845989 144.200771 
L 97.86738 145.441095 
L 93.88877 150.644403 
L 89.91016 150.318125 
L 85.931551 153.386004 
L 81.952941 156.139173 
L 77.974332 162.531045 
L 73.995722 165.836649 
L 70.017112 165.186488 
L 66.038503 172.643188 
L 62.059893 180.558661 
L 58.081283 193.508887 
L 54.102674 214.969593 
L 50.124064 247.837214 
L 46.145455 312.001739 
z
" clip-path="url(#p52184fdb62)" style="fill: #7f7f7f; fill-opacity: 0.2"/>
   </g>
   <g id="matplotlib.axis_1">
    <g id="xtick_1">
     <g id="line2d_1">
      <path d="M 42.166845 283.5 
L 42.166845 38.88 
" clip-path="url(#p52184fdb62)" style="fill: none; stroke: #b0b0b0; stroke-width: 0.8; stroke-linecap: square"/>
     </g>
     <g id="line2d_2">
      <defs>
       <path id="mef750d9190" d="M 0 0 
L 0 3.5 
" style="stroke: #000000; stroke-width: 0.8"/>
      </defs>
      <g>
       <use xlink:href="#mef750d9190" x="42.166845" y="283.5" style="stroke: #000000; stroke-width: 0.8"/>
      </g>
     </g>
     <g id="text_1">
      <!-- 0 -->
      <g transform="translate(38.985595 298.098437)scale(0.1 -0.1)">
       <defs>
        <path id="DejaVuSans-30" d="M 2034 4250 
Q 1547 4250 1301 3770 
Q 1056 3291 1056 2328 
Q 1056 1369 1301 889 
Q 1547 409 2034 409 
Q 2525 409 2770 889 
Q 3016 1369 3016 2328 
Q 3016 3291 2770 3770 
Q 2525 4250 2034 4250 
z
M 2034 4750 
Q 2819 4750 3233 4129 
Q 3647 3509 3647 2328 
Q 3647 1150 3233 529 
Q 2819 -91 2034 -91 
Q 1250 -91 836 529 
Q 422 1150 422 2328 
Q 422 3509 836 4129 
Q 1250 4750 2034 4750 
z
" transform="scale(0.015625)"/>
       </defs>
       <use xlink:href="#DejaVuSans-30"/>
      </g>
     </g>
    </g>
    <g id="xtick_2">
     <g id="line2d_3">
      <path d="M 81.952941 283.5 
L 81.952941 38.88 
" clip-path="url(#p52184fdb62)" style="fill: none; stroke: #b0b0b0; stroke-width: 0.8; stroke-linecap: square"/>
     </g>
     <g id="line2d_4">
      <g>
       <use xlink:href="#mef750d9190" x="81.952941" y="283.5" style="stroke: #000000; stroke-width: 0.8"/>
      </g>
     </g>
     <g id="text_2">
      <!-- 10 -->
      <g transform="translate(75.590441 298.098437)scale(0.1 -0.1)">
       <defs>
        <path id="DejaVuSans-31" d="M 794 531 
L 1825 531 
L 1825 4091 
L 703 3866 
L 703 4441 
L 1819 4666 
L 2450 4666 
L 2450 531 
L 3481 531 
L 3481 0 
L 794 0 
L 794 531 
z
" transform="scale(0.015625)"/>
       </defs>
       <use xlink:href="#DejaVuSans-31"/>
       <use xlink:href="#DejaVuSans-30" x="63.623047"/>
      </g>
     </g>
    </g>
    <g id="xtick_3">
     <g id="line2d_5">
      <path d="M 121.739037 283.5 
L 121.739037 38.88 
" clip-path="url(#p52184fdb62)" style="fill: none; stroke: #b0b0b0; stroke-width: 0.8; stroke-linecap: square"/>
     </g>
     <g id="line2d_6">
      <g>
       <use xlink:href="#mef750d9190" x="121.739037" y="283.5" style="stroke: #000000; stroke-width: 0.8"/>
      </g>
     </g>
     <g id="text_3">
      <!-- 20 -->
      <g transform="translate(115.376537 298.098437)scale(0.1 -0.1)">
       <defs>
        <path id="DejaVuSans-32" d="M 1228 531 
L 3431 531 
L 3431 0 
L 469 0 
L 469 531 
Q 828 903 1448 1529 
Q 2069 2156 2228 2338 
Q 2531 2678 2651 2914 
Q 2772 3150 2772 3378 
Q 2772 3750 2511 3984 
Q 2250 4219 1831 4219 
Q 1534 4219 1204 4116 
Q 875 4013 500 3803 
L 500 4441 
Q 881 4594 1212 4672 
Q 1544 4750 1819 4750 
Q 2544 4750 2975 4387 
Q 3406 4025 3406 3419 
Q 3406 3131 3298 2873 
Q 3191 2616 2906 2266 
Q 2828 2175 2409 1742 
Q 1991 1309 1228 531 
z
" transform="scale(0.015625)"/>
       </defs>
       <use xlink:href="#DejaVuSans-32"/>
       <use xlink:href="#DejaVuSans-30" x="63.623047"/>
      </g>
     </g>
    </g>
    <g id="xtick_4">
     <g id="line2d_7">
      <path d="M 161.525134 283.5 
L 161.525134 38.88 
" clip-path="url(#p52184fdb62)" style="fill: none; stroke: #b0b0b0; stroke-width: 0.8; stroke-linecap: square"/>
     </g>
     <g id="line2d_8">
      <g>
       <use xlink:href="#mef750d9190" x="161.525134" y="283.5" style="stroke: #000000; stroke-width: 0.8"/>
      </g>
     </g>
     <g id="text_4">
      <!-- 30 -->
      <g transform="translate(155.162634 298.098437)scale(0.1 -0.1)">
       <defs>
        <path id="DejaVuSans-33" d="M 2597 2516 
Q 3050 2419 3304 2112 
Q 3559 1806 3559 1356 
Q 3559 666 3084 287 
Q 2609 -91 1734 -91 
Q 1441 -91 1130 -33 
Q 819 25 488 141 
L 488 750 
Q 750 597 1062 519 
Q 1375 441 1716 441 
Q 2309 441 2620 675 
Q 2931 909 2931 1356 
Q 2931 1769 2642 2001 
Q 2353 2234 1838 2234 
L 1294 2234 
L 1294 2753 
L 1863 2753 
Q 2328 2753 2575 2939 
Q 2822 3125 2822 3475 
Q 2822 3834 2567 4026 
Q 2313 4219 1838 4219 
Q 1578 4219 1281 4162 
Q 984 4106 628 3988 
L 628 4550 
Q 988 4650 1302 4700 
Q 1616 4750 1894 4750 
Q 2613 4750 3031 4423 
Q 3450 4097 3450 3541 
Q 3450 3153 3228 2886 
Q 3006 2619 2597 2516 
z
" transform="scale(0.015625)"/>
       </defs>
       <use xlink:href="#DejaVuSans-33"/>
       <use xlink:href="#DejaVuSans-30" x="63.623047"/>
      </g>
     </g>
    </g>
    <g id="xtick_5">
     <g id="line2d_9">
      <path d="M 201.31123 283.5 
L 201.31123 38.88 
" clip-path="url(#p52184fdb62)" style="fill: none; stroke: #b0b0b0; stroke-width: 0.8; stroke-linecap: square"/>
     </g>
     <g id="line2d_10">
      <g>
       <use xlink:href="#mef750d9190" x="201.31123" y="283.5" style="stroke: #000000; stroke-width: 0.8"/>
      </g>
     </g>
     <g id="text_5">
      <!-- 40 -->
      <g transform="translate(194.94873 298.098437)scale(0.1 -0.1)">
       <defs>
        <path id="DejaVuSans-34" d="M 2419 4116 
L 825 1625 
L 2419 1625 
L 2419 4116 
z
M 2253 4666 
L 3047 4666 
L 3047 1625 
L 3713 1625 
L 3713 1100 
L 3047 1100 
L 3047 0 
L 2419 0 
L 2419 1100 
L 313 1100 
L 313 1709 
L 2253 4666 
z
" transform="scale(0.015625)"/>
       </defs>
       <use xlink:href="#DejaVuSans-34"/>
       <use xlink:href="#DejaVuSans-30" x="63.623047"/>
      </g>
     </g>
    </g>
    <g id="xtick_6">
     <g id="line2d_11">
      <path d="M 241.097326 283.5 
L 241.097326 38.88 
" clip-path="url(#p52184fdb62)" style="fill: none; stroke: #b0b0b0; stroke-width: 0.8; stroke-linecap: square"/>
     </g>
     <g id="line2d_12">
      <g>
       <use xlink:href="#mef750d9190" x="241.097326" y="283.5" style="stroke: #000000; stroke-width: 0.8"/>
      </g>
     </g>
     <g id="text_6">
      <!-- 50 -->
      <g transform="translate(234.734826 298.098437)scale(0.1 -0.1)">
       <defs>
        <path id="DejaVuSans-35" d="M 691 4666 
L 3169 4666 
L 3169 4134 
L 1269 4134 
L 1269 2991 
Q 1406 3038 1543 3061 
Q 1681 3084 1819 3084 
Q 2600 3084 3056 2656 
Q 3513 2228 3513 1497 
Q 3513 744 3044 326 
Q 2575 -91 1722 -91 
Q 1428 -91 1123 -41 
Q 819 9 494 109 
L 494 744 
Q 775 591 1075 516 
Q 1375 441 1709 441 
Q 2250 441 2565 725 
Q 2881 1009 2881 1497 
Q 2881 1984 2565 2268 
Q 2250 2553 1709 2553 
Q 1456 2553 1204 2497 
Q 953 2441 691 2322 
L 691 4666 
z
" transform="scale(0.015625)"/>
       </defs>
       <use xlink:href="#DejaVuSans-35"/>
       <use xlink:href="#DejaVuSans-30" x="63.623047"/>
      </g>
     </g>
    </g>
    <g id="text_7">
     <!-- Epochs -->
     <g transform="translate(129.684375 311.776563)scale(0.1 -0.1)">
      <defs>
       <path id="DejaVuSans-45" d="M 628 4666 
L 3578 4666 
L 3578 4134 
L 1259 4134 
L 1259 2753 
L 3481 2753 
L 3481 2222 
L 1259 2222 
L 1259 531 
L 3634 531 
L 3634 0 
L 628 0 
L 628 4666 
z
" transform="scale(0.015625)"/>
       <path id="DejaVuSans-70" d="M 1159 525 
L 1159 -1331 
L 581 -1331 
L 581 3500 
L 1159 3500 
L 1159 2969 
Q 1341 3281 1617 3432 
Q 1894 3584 2278 3584 
Q 2916 3584 3314 3078 
Q 3713 2572 3713 1747 
Q 3713 922 3314 415 
Q 2916 -91 2278 -91 
Q 1894 -91 1617 61 
Q 1341 213 1159 525 
z
M 3116 1747 
Q 3116 2381 2855 2742 
Q 2594 3103 2138 3103 
Q 1681 3103 1420 2742 
Q 1159 2381 1159 1747 
Q 1159 1113 1420 752 
Q 1681 391 2138 391 
Q 2594 391 2855 752 
Q 3116 1113 3116 1747 
z
" transform="scale(0.015625)"/>
       <path id="DejaVuSans-6f" d="M 1959 3097 
Q 1497 3097 1228 2736 
Q 959 2375 959 1747 
Q 959 1119 1226 758 
Q 1494 397 1959 397 
Q 2419 397 2687 759 
Q 2956 1122 2956 1747 
Q 2956 2369 2687 2733 
Q 2419 3097 1959 3097 
z
M 1959 3584 
Q 2709 3584 3137 3096 
Q 3566 2609 3566 1747 
Q 3566 888 3137 398 
Q 2709 -91 1959 -91 
Q 1206 -91 779 398 
Q 353 888 353 1747 
Q 353 2609 779 3096 
Q 1206 3584 1959 3584 
z
" transform="scale(0.015625)"/>
       <path id="DejaVuSans-63" d="M 3122 3366 
L 3122 2828 
Q 2878 2963 2633 3030 
Q 2388 3097 2138 3097 
Q 1578 3097 1268 2742 
Q 959 2388 959 1747 
Q 959 1106 1268 751 
Q 1578 397 2138 397 
Q 2388 397 2633 464 
Q 2878 531 3122 666 
L 3122 134 
Q 2881 22 2623 -34 
Q 2366 -91 2075 -91 
Q 1284 -91 818 406 
Q 353 903 353 1747 
Q 353 2603 823 3093 
Q 1294 3584 2113 3584 
Q 2378 3584 2631 3529 
Q 2884 3475 3122 3366 
z
" transform="scale(0.015625)"/>
       <path id="DejaVuSans-68" d="M 3513 2113 
L 3513 0 
L 2938 0 
L 2938 2094 
Q 2938 2591 2744 2837 
Q 2550 3084 2163 3084 
Q 1697 3084 1428 2787 
Q 1159 2491 1159 1978 
L 1159 0 
L 581 0 
L 581 4863 
L 1159 4863 
L 1159 2956 
Q 1366 3272 1645 3428 
Q 1925 3584 2291 3584 
Q 2894 3584 3203 3211 
Q 3513 2838 3513 2113 
z
" transform="scale(0.015625)"/>
       <path id="DejaVuSans-73" d="M 2834 3397 
L 2834 2853 
Q 2591 2978 2328 3040 
Q 2066 3103 1784 3103 
Q 1356 3103 1142 2972 
Q 928 2841 928 2578 
Q 928 2378 1081 2264 
Q 1234 2150 1697 2047 
L 1894 2003 
Q 2506 1872 2764 1633 
Q 3022 1394 3022 966 
Q 3022 478 2636 193 
Q 2250 -91 1575 -91 
Q 1294 -91 989 -36 
Q 684 19 347 128 
L 347 722 
Q 666 556 975 473 
Q 1284 391 1588 391 
Q 1994 391 2212 530 
Q 2431 669 2431 922 
Q 2431 1156 2273 1281 
Q 2116 1406 1581 1522 
L 1381 1569 
Q 847 1681 609 1914 
Q 372 2147 372 2553 
Q 372 3047 722 3315 
Q 1072 3584 1716 3584 
Q 2034 3584 2315 3537 
Q 2597 3491 2834 3397 
z
" transform="scale(0.015625)"/>
      </defs>
      <use xlink:href="#DejaVuSans-45"/>
      <use xlink:href="#DejaVuSans-70" x="63.183594"/>
      <use xlink:href="#DejaVuSans-6f" x="126.660156"/>
      <use xlink:href="#DejaVuSans-63" x="187.841797"/>
      <use xlink:href="#DejaVuSans-68" x="242.822266"/>
      <use xlink:href="#DejaVuSans-73" x="306.201172"/>
     </g>
    </g>
   </g>
   <g id="matplotlib.axis_2">
    <g id="ytick_1">
     <g id="line2d_13">
      <path d="M 36 283.5 
L 259.2 283.5 
" clip-path="url(#p52184fdb62)" style="fill: none; stroke: #b0b0b0; stroke-width: 0.8; stroke-linecap: square"/>
     </g>
     <g id="line2d_14">
      <defs>
       <path id="mb8cac01b36" d="M 0 0 
L -3.5 0 
" style="stroke: #000000; stroke-width: 0.8"/>
      </defs>
      <g>
       <use xlink:href="#mb8cac01b36" x="36" y="283.5" style="stroke: #000000; stroke-width: 0.8"/>
      </g>
     </g>
     <g id="text_8">
      <!-- 0.65 -->
      <g transform="translate(6.734375 287.299219)scale(0.1 -0.1)">
       <defs>
        <path id="DejaVuSans-2e" d="M 684 794 
L 1344 794 
L 1344 0 
L 684 0 
L 684 794 
z
" transform="scale(0.015625)"/>
        <path id="DejaVuSans-36" d="M 2113 2584 
Q 1688 2584 1439 2293 
Q 1191 2003 1191 1497 
Q 1191 994 1439 701 
Q 1688 409 2113 409 
Q 2538 409 2786 701 
Q 3034 994 3034 1497 
Q 3034 2003 2786 2293 
Q 2538 2584 2113 2584 
z
M 3366 4563 
L 3366 3988 
Q 3128 4100 2886 4159 
Q 2644 4219 2406 4219 
Q 1781 4219 1451 3797 
Q 1122 3375 1075 2522 
Q 1259 2794 1537 2939 
Q 1816 3084 2150 3084 
Q 2853 3084 3261 2657 
Q 3669 2231 3669 1497 
Q 3669 778 3244 343 
Q 2819 -91 2113 -91 
Q 1303 -91 875 529 
Q 447 1150 447 2328 
Q 447 3434 972 4092 
Q 1497 4750 2381 4750 
Q 2619 4750 2861 4703 
Q 3103 4656 3366 4563 
z
" transform="scale(0.015625)"/>
       </defs>
       <use xlink:href="#DejaVuSans-30"/>
       <use xlink:href="#DejaVuSans-2e" x="63.623047"/>
       <use xlink:href="#DejaVuSans-36" x="95.410156"/>
       <use xlink:href="#DejaVuSans-35" x="159.033203"/>
      </g>
     </g>
    </g>
    <g id="ytick_2">
     <g id="line2d_15">
      <path d="M 36 242.73 
L 259.2 242.73 
" clip-path="url(#p52184fdb62)" style="fill: none; stroke: #b0b0b0; stroke-width: 0.8; stroke-linecap: square"/>
     </g>
     <g id="line2d_16">
      <g>
       <use xlink:href="#mb8cac01b36" x="36" y="242.73" style="stroke: #000000; stroke-width: 0.8"/>
      </g>
     </g>
     <g id="text_9">
      <!-- 0.70 -->
      <g transform="translate(6.734375 246.529219)scale(0.1 -0.1)">
       <defs>
        <path id="DejaVuSans-37" d="M 525 4666 
L 3525 4666 
L 3525 4397 
L 1831 0 
L 1172 0 
L 2766 4134 
L 525 4134 
L 525 4666 
z
" transform="scale(0.015625)"/>
       </defs>
       <use xlink:href="#DejaVuSans-30"/>
       <use xlink:href="#DejaVuSans-2e" x="63.623047"/>
       <use xlink:href="#DejaVuSans-37" x="95.410156"/>
       <use xlink:href="#DejaVuSans-30" x="159.033203"/>
      </g>
     </g>
    </g>
    <g id="ytick_3">
     <g id="line2d_17">
      <path d="M 36 201.96 
L 259.2 201.96 
" clip-path="url(#p52184fdb62)" style="fill: none; stroke: #b0b0b0; stroke-width: 0.8; stroke-linecap: square"/>
     </g>
     <g id="line2d_18">
      <g>
       <use xlink:href="#mb8cac01b36" x="36" y="201.96" style="stroke: #000000; stroke-width: 0.8"/>
      </g>
     </g>
     <g id="text_10">
      <!-- 0.75 -->
      <g transform="translate(6.734375 205.759219)scale(0.1 -0.1)">
       <use xlink:href="#DejaVuSans-30"/>
       <use xlink:href="#DejaVuSans-2e" x="63.623047"/>
       <use xlink:href="#DejaVuSans-37" x="95.410156"/>
       <use xlink:href="#DejaVuSans-35" x="159.033203"/>
      </g>
     </g>
    </g>
    <g id="ytick_4">
     <g id="line2d_19">
      <path d="M 36 161.19 
L 259.2 161.19 
" clip-path="url(#p52184fdb62)" style="fill: none; stroke: #b0b0b0; stroke-width: 0.8; stroke-linecap: square"/>
     </g>
     <g id="line2d_20">
      <g>
       <use xlink:href="#mb8cac01b36" x="36" y="161.19" style="stroke: #000000; stroke-width: 0.8"/>
      </g>
     </g>
     <g id="text_11">
      <!-- 0.80 -->
      <g transform="translate(6.734375 164.989219)scale(0.1 -0.1)">
       <defs>
        <path id="DejaVuSans-38" d="M 2034 2216 
Q 1584 2216 1326 1975 
Q 1069 1734 1069 1313 
Q 1069 891 1326 650 
Q 1584 409 2034 409 
Q 2484 409 2743 651 
Q 3003 894 3003 1313 
Q 3003 1734 2745 1975 
Q 2488 2216 2034 2216 
z
M 1403 2484 
Q 997 2584 770 2862 
Q 544 3141 544 3541 
Q 544 4100 942 4425 
Q 1341 4750 2034 4750 
Q 2731 4750 3128 4425 
Q 3525 4100 3525 3541 
Q 3525 3141 3298 2862 
Q 3072 2584 2669 2484 
Q 3125 2378 3379 2068 
Q 3634 1759 3634 1313 
Q 3634 634 3220 271 
Q 2806 -91 2034 -91 
Q 1263 -91 848 271 
Q 434 634 434 1313 
Q 434 1759 690 2068 
Q 947 2378 1403 2484 
z
M 1172 3481 
Q 1172 3119 1398 2916 
Q 1625 2713 2034 2713 
Q 2441 2713 2670 2916 
Q 2900 3119 2900 3481 
Q 2900 3844 2670 4047 
Q 2441 4250 2034 4250 
Q 1625 4250 1398 4047 
Q 1172 3844 1172 3481 
z
" transform="scale(0.015625)"/>
       </defs>
       <use xlink:href="#DejaVuSans-30"/>
       <use xlink:href="#DejaVuSans-2e" x="63.623047"/>
       <use xlink:href="#DejaVuSans-38" x="95.410156"/>
       <use xlink:href="#DejaVuSans-30" x="159.033203"/>
      </g>
     </g>
    </g>
    <g id="ytick_5">
     <g id="line2d_21">
      <path d="M 36 120.42 
L 259.2 120.42 
" clip-path="url(#p52184fdb62)" style="fill: none; stroke: #b0b0b0; stroke-width: 0.8; stroke-linecap: square"/>
     </g>
     <g id="line2d_22">
      <g>
       <use xlink:href="#mb8cac01b36" x="36" y="120.42" style="stroke: #000000; stroke-width: 0.8"/>
      </g>
     </g>
     <g id="text_12">
      <!-- 0.85 -->
      <g transform="translate(6.734375 124.219219)scale(0.1 -0.1)">
       <use xlink:href="#DejaVuSans-30"/>
       <use xlink:href="#DejaVuSans-2e" x="63.623047"/>
       <use xlink:href="#DejaVuSans-38" x="95.410156"/>
       <use xlink:href="#DejaVuSans-35" x="159.033203"/>
      </g>
     </g>
    </g>
    <g id="ytick_6">
     <g id="line2d_23">
      <path d="M 36 79.65 
L 259.2 79.65 
" clip-path="url(#p52184fdb62)" style="fill: none; stroke: #b0b0b0; stroke-width: 0.8; stroke-linecap: square"/>
     </g>
     <g id="line2d_24">
      <g>
       <use xlink:href="#mb8cac01b36" x="36" y="79.65" style="stroke: #000000; stroke-width: 0.8"/>
      </g>
     </g>
     <g id="text_13">
      <!-- 0.90 -->
      <g transform="translate(6.734375 83.449219)scale(0.1 -0.1)">
       <defs>
        <path id="DejaVuSans-39" d="M 703 97 
L 703 672 
Q 941 559 1184 500 
Q 1428 441 1663 441 
Q 2288 441 2617 861 
Q 2947 1281 2994 2138 
Q 2813 1869 2534 1725 
Q 2256 1581 1919 1581 
Q 1219 1581 811 2004 
Q 403 2428 403 3163 
Q 403 3881 828 4315 
Q 1253 4750 1959 4750 
Q 2769 4750 3195 4129 
Q 3622 3509 3622 2328 
Q 3622 1225 3098 567 
Q 2575 -91 1691 -91 
Q 1453 -91 1209 -44 
Q 966 3 703 97 
z
M 1959 2075 
Q 2384 2075 2632 2365 
Q 2881 2656 2881 3163 
Q 2881 3666 2632 3958 
Q 2384 4250 1959 4250 
Q 1534 4250 1286 3958 
Q 1038 3666 1038 3163 
Q 1038 2656 1286 2365 
Q 1534 2075 1959 2075 
z
" transform="scale(0.015625)"/>
       </defs>
       <use xlink:href="#DejaVuSans-30"/>
       <use xlink:href="#DejaVuSans-2e" x="63.623047"/>
       <use xlink:href="#DejaVuSans-39" x="95.410156"/>
       <use xlink:href="#DejaVuSans-30" x="159.033203"/>
      </g>
     </g>
    </g>
    <g id="ytick_7">
     <g id="line2d_25">
      <path d="M 36 38.88 
L 259.2 38.88 
" clip-path="url(#p52184fdb62)" style="fill: none; stroke: #b0b0b0; stroke-width: 0.8; stroke-linecap: square"/>
     </g>
     <g id="line2d_26">
      <g>
       <use xlink:href="#mb8cac01b36" x="36" y="38.88" style="stroke: #000000; stroke-width: 0.8"/>
      </g>
     </g>
     <g id="text_14">
      <!-- 0.95 -->
      <g transform="translate(6.734375 42.679219)scale(0.1 -0.1)">
       <use xlink:href="#DejaVuSans-30"/>
       <use xlink:href="#DejaVuSans-2e" x="63.623047"/>
       <use xlink:href="#DejaVuSans-39" x="95.410156"/>
       <use xlink:href="#DejaVuSans-35" x="159.033203"/>
      </g>
     </g>
    </g>
    <g id="text_15">
     <!-- Accuracy ($\bar{x} \pm s \div \sqrt{N}$) -->
     <g transform="translate(0.634375 215.44)rotate(-90)scale(0.1 -0.1)">
      <defs>
       <path id="DejaVuSans-41" d="M 2188 4044 
L 1331 1722 
L 3047 1722 
L 2188 4044 
z
M 1831 4666 
L 2547 4666 
L 4325 0 
L 3669 0 
L 3244 1197 
L 1141 1197 
L 716 0 
L 50 0 
L 1831 4666 
z
" transform="scale(0.015625)"/>
       <path id="DejaVuSans-75" d="M 544 1381 
L 544 3500 
L 1119 3500 
L 1119 1403 
Q 1119 906 1312 657 
Q 1506 409 1894 409 
Q 2359 409 2629 706 
Q 2900 1003 2900 1516 
L 2900 3500 
L 3475 3500 
L 3475 0 
L 2900 0 
L 2900 538 
Q 2691 219 2414 64 
Q 2138 -91 1772 -91 
Q 1169 -91 856 284 
Q 544 659 544 1381 
z
M 1991 3584 
L 1991 3584 
z
" transform="scale(0.015625)"/>
       <path id="DejaVuSans-72" d="M 2631 2963 
Q 2534 3019 2420 3045 
Q 2306 3072 2169 3072 
Q 1681 3072 1420 2755 
Q 1159 2438 1159 1844 
L 1159 0 
L 581 0 
L 581 3500 
L 1159 3500 
L 1159 2956 
Q 1341 3275 1631 3429 
Q 1922 3584 2338 3584 
Q 2397 3584 2469 3576 
Q 2541 3569 2628 3553 
L 2631 2963 
z
" transform="scale(0.015625)"/>
       <path id="DejaVuSans-61" d="M 2194 1759 
Q 1497 1759 1228 1600 
Q 959 1441 959 1056 
Q 959 750 1161 570 
Q 1363 391 1709 391 
Q 2188 391 2477 730 
Q 2766 1069 2766 1631 
L 2766 1759 
L 2194 1759 
z
M 3341 1997 
L 3341 0 
L 2766 0 
L 2766 531 
Q 2569 213 2275 61 
Q 1981 -91 1556 -91 
Q 1019 -91 701 211 
Q 384 513 384 1019 
Q 384 1609 779 1909 
Q 1175 2209 1959 2209 
L 2766 2209 
L 2766 2266 
Q 2766 2663 2505 2880 
Q 2244 3097 1772 3097 
Q 1472 3097 1187 3025 
Q 903 2953 641 2809 
L 641 3341 
Q 956 3463 1253 3523 
Q 1550 3584 1831 3584 
Q 2591 3584 2966 3190 
Q 3341 2797 3341 1997 
z
" transform="scale(0.015625)"/>
       <path id="DejaVuSans-79" d="M 2059 -325 
Q 1816 -950 1584 -1140 
Q 1353 -1331 966 -1331 
L 506 -1331 
L 506 -850 
L 844 -850 
Q 1081 -850 1212 -737 
Q 1344 -625 1503 -206 
L 1606 56 
L 191 3500 
L 800 3500 
L 1894 763 
L 2988 3500 
L 3597 3500 
L 2059 -325 
z
" transform="scale(0.015625)"/>
       <path id="DejaVuSans-20" transform="scale(0.015625)"/>
       <path id="DejaVuSans-28" d="M 1984 4856 
Q 1566 4138 1362 3434 
Q 1159 2731 1159 2009 
Q 1159 1288 1364 580 
Q 1569 -128 1984 -844 
L 1484 -844 
Q 1016 -109 783 600 
Q 550 1309 550 2009 
Q 550 2706 781 3412 
Q 1013 4119 1484 4856 
L 1984 4856 
z
" transform="scale(0.015625)"/>
       <path id="DejaVuSans-304" d="M -2518 4769 
L -650 4769 
L -650 4306 
L -2518 4306 
L -2518 4769 
z
" transform="scale(0.015625)"/>
       <path id="DejaVuSans-Oblique-78" d="M 3841 3500 
L 2234 1784 
L 3219 0 
L 2559 0 
L 1819 1388 
L 531 0 
L -166 0 
L 1556 1844 
L 641 3500 
L 1300 3500 
L 1972 2234 
L 3144 3500 
L 3841 3500 
z
" transform="scale(0.015625)"/>
       <path id="DejaVuSans-b1" d="M 2944 4013 
L 2944 2803 
L 4684 2803 
L 4684 2272 
L 2944 2272 
L 2944 1063 
L 2419 1063 
L 2419 2272 
L 678 2272 
L 678 2803 
L 2419 2803 
L 2419 4013 
L 2944 4013 
z
M 678 531 
L 4684 531 
L 4684 0 
L 678 0 
L 678 531 
z
" transform="scale(0.015625)"/>
       <path id="DejaVuSans-Oblique-73" d="M 3200 3397 
L 3091 2853 
Q 2863 2978 2609 3040 
Q 2356 3103 2088 3103 
Q 1634 3103 1373 2948 
Q 1113 2794 1113 2528 
Q 1113 2219 1719 2053 
Q 1766 2041 1788 2034 
L 1972 1978 
Q 2547 1819 2739 1644 
Q 2931 1469 2931 1166 
Q 2931 609 2489 259 
Q 2047 -91 1331 -91 
Q 1053 -91 747 -37 
Q 441 16 72 128 
L 184 722 
Q 500 559 806 475 
Q 1113 391 1394 391 
Q 1816 391 2080 572 
Q 2344 753 2344 1031 
Q 2344 1331 1650 1516 
L 1591 1531 
L 1394 1581 
Q 956 1697 753 1886 
Q 550 2075 550 2369 
Q 550 2928 970 3256 
Q 1391 3584 2113 3584 
Q 2397 3584 2667 3537 
Q 2938 3491 3200 3397 
z
" transform="scale(0.015625)"/>
       <path id="DejaVuSans-f7" d="M 2297 3547 
L 3066 3547 
L 3066 2778 
L 2297 2778 
L 2297 3547 
z
M 2297 1234 
L 3066 1234 
L 3066 469 
L 2297 469 
L 2297 1234 
z
M 678 2272 
L 4684 2272 
L 4684 1741 
L 678 1741 
L 678 2272 
z
" transform="scale(0.015625)"/>
       <path id="STIXSizeOneSym-Regular-221a" d="M 6970 9933 
L 3373 -1888 
L 3104 -1888 
L 1626 2918 
Q 1555 3149 1465 3251 
Q 1376 3354 1229 3354 
Q 1011 3354 794 3181 
L 717 3309 
L 1766 4115 
L 1926 4115 
L 3379 -602 
L 3405 -602 
L 6605 9933 
L 6970 9933 
z
" transform="scale(0.015625)"/>
       <path id="DejaVuSans-Oblique-4e" d="M 1081 4666 
L 1931 4666 
L 3219 666 
L 4000 4666 
L 4616 4666 
L 3706 0 
L 2853 0 
L 1569 4025 
L 788 0 
L 172 0 
L 1081 4666 
z
" transform="scale(0.015625)"/>
       <path id="DejaVuSans-29" d="M 513 4856 
L 1013 4856 
Q 1481 4119 1714 3412 
Q 1947 2706 1947 2009 
Q 1947 1309 1714 600 
Q 1481 -109 1013 -844 
L 513 -844 
Q 928 -128 1133 580 
Q 1338 1288 1338 2009 
Q 1338 2731 1133 3434 
Q 928 4138 513 4856 
z
" transform="scale(0.015625)"/>
      </defs>
      <use xlink:href="#DejaVuSans-41" transform="translate(0 0.578125)"/>
      <use xlink:href="#DejaVuSans-63" transform="translate(68.408203 0.578125)"/>
      <use xlink:href="#DejaVuSans-63" transform="translate(123.388672 0.578125)"/>
      <use xlink:href="#DejaVuSans-75" transform="translate(178.369141 0.578125)"/>
      <use xlink:href="#DejaVuSans-72" transform="translate(241.748047 0.578125)"/>
      <use xlink:href="#DejaVuSans-61" transform="translate(282.861328 0.578125)"/>
      <use xlink:href="#DejaVuSans-63" transform="translate(344.140625 0.578125)"/>
      <use xlink:href="#DejaVuSans-79" transform="translate(399.121094 0.578125)"/>
      <use xlink:href="#DejaVuSans-20" transform="translate(458.300781 0.578125)"/>
      <use xlink:href="#DejaVuSans-28" transform="translate(490.087891 0.578125)"/>
      <use xlink:href="#DejaVuSans-304" transform="translate(591.240234 0.484375)"/>
      <use xlink:href="#DejaVuSans-Oblique-78" transform="translate(529.101562 0.578125)"/>
      <use xlink:href="#DejaVuSans-b1" transform="translate(607.763672 0.578125)"/>
      <use xlink:href="#DejaVuSans-Oblique-73" transform="translate(711.035156 0.578125)"/>
      <use xlink:href="#DejaVuSans-f7" transform="translate(782.617188 0.578125)"/>
      <use xlink:href="#STIXSizeOneSym-Regular-221a" transform="translate(885.888672 17.09375)scale(0.563912)"/>
      <use xlink:href="#DejaVuSans-Oblique-4e" transform="translate(957.977036 0.84375)"/>
      <use xlink:href="#DejaVuSans-29" transform="translate(1045.281723 0.578125)"/>
      <path d="M 945.477036 97.5 
L 945.477036 103.75 
L 1045.281723 103.75 
L 1045.281723 97.5 
L 945.477036 97.5 
z
"/>
     </g>
    </g>
   </g>
   <g id="line2d_27">
    <path d="M 46.145455 294.295141 
L 50.124064 233.506967 
L 54.102674 205.628252 
L 58.081283 188.8591 
L 62.059893 177.330308 
L 66.038503 169.993805 
L 70.017112 164.334216 
L 73.995722 158.255398 
L 77.974332 157.626555 
L 81.952941 155.94964 
L 85.931551 154.482339 
L 89.91016 150.918895 
L 93.88877 149.661208 
L 97.86738 145.678535 
L 101.845989 144.840077 
L 105.824599 145.049692 
L 109.803209 143.163162 
L 113.781818 146.307378 
L 117.760428 144.211234 
L 121.739037 142.11509 
L 125.717647 142.534319 
L 129.696257 143.372776 
L 133.674866 142.743933 
L 137.653476 141.276632 
L 141.632086 139.180488 
L 145.610695 140.018946 
L 149.589305 137.713188 
L 153.567914 138.132416 
L 157.546524 136.036272 
L 161.525134 139.809332 
L 165.503743 137.293959 
L 169.482353 137.713188 
L 173.460963 138.76126 
L 177.439572 137.293959 
" clip-path="url(#p52184fdb62)" style="fill: none; stroke: #1f77b4; stroke-width: 1.5; stroke-linecap: square"/>
   </g>
   <g id="line2d_28">
    <path d="M 46.145455 248.808817 
L 50.124064 190.74563 
L 54.102674 168.316889 
L 58.081283 152.59581 
L 62.059893 146.726607 
L 66.038503 142.11509 
L 70.017112 133.5209 
L 73.995722 126.184396 
L 77.974332 125.345938 
L 81.952941 123.459409 
L 85.931551 124.297866 
L 89.91016 119.267121 
L 93.88877 119.057506 
L 97.86738 116.122905 
L 101.845989 115.91329 
L 105.824599 116.332519 
L 109.803209 113.817147 
L 113.781818 111.092159 
L 117.760428 111.930617 
L 121.739037 109.624859 
L 125.717647 108.576787 
L 129.696257 111.301774 
L 133.674866 108.786401 
L 137.653476 108.996015 
L 141.632086 109.20563 
L 145.610695 108.996015 
L 149.589305 106.061414 
L 153.567914 107.738329 
L 157.546524 106.061414 
L 161.525134 105.222956 
L 165.503743 106.899871 
L 169.482353 106.061414 
L 173.460963 106.690257 
L 177.439572 106.690257 
L 181.418182 105.642185 
" clip-path="url(#p52184fdb62)" style="fill: none; stroke: #ff7f0e; stroke-width: 1.5; stroke-linecap: square"/>
   </g>
   <g id="line2d_29">
    <path d="M 48.195989 325 
L 50.124064 285.281722 
L 54.102674 258.870308 
L 58.081283 245.035758 
L 62.059893 238.328098 
L 66.038503 225.54162 
L 70.017112 222.607018 
L 73.995722 213.17437 
L 77.974332 212.755141 
L 81.952941 209.610925 
L 85.931551 204.370566 
L 89.91016 204.160951 
L 93.88877 202.274422 
L 97.86738 197.662905 
L 101.845989 196.824447 
L 105.824599 190.536015 
L 109.803209 194.728303 
L 113.781818 192.422545 
L 117.760428 192.422545 
L 121.739037 191.584087 
L 125.717647 193.680231 
L 129.696257 192.212931 
L 133.674866 189.907172 
L 137.653476 188.8591 
L 141.632086 188.8591 
L 145.610695 185.086041 
L 149.589305 188.230257 
L 153.567914 184.457198 
L 157.546524 184.247584 
L 161.525134 188.8591 
L 165.503743 185.295656 
L 169.482353 184.876427 
" clip-path="url(#p52184fdb62)" style="fill: none; stroke: #2ca02c; stroke-width: 1.5; stroke-linecap: square"/>
   </g>
   <g id="line2d_30">
    <path d="M 46.145455 278.364447 
L 50.124064 215.480129 
L 54.102674 190.955244 
L 58.081283 177.330308 
L 62.059893 166.220746 
L 66.038503 158.884242 
L 70.017112 155.94964 
L 73.995722 150.499666 
L 77.974332 144.630463 
L 81.952941 144.00162 
L 85.931551 142.743933 
L 89.91016 138.76126 
L 93.88877 140.438175 
L 97.86738 140.018946 
L 101.845989 136.036272 
L 105.824599 135.617044 
L 109.803209 136.665116 
L 113.781818 132.682442 
L 117.760428 135.197815 
L 121.739037 136.036272 
L 125.717647 133.311285 
L 129.696257 134.778586 
L 133.674866 129.957455 
L 137.653476 129.957455 
L 141.632086 128.699769 
L 145.610695 132.263213 
L 149.589305 127.861311 
" clip-path="url(#p52184fdb62)" style="fill: none; stroke: #d62728; stroke-width: 1.5; stroke-linecap: square"/>
   </g>
   <g id="line2d_31">
    <path d="M 46.145455 267.464499 
L 50.124064 233.297352 
L 54.102674 219.043573 
L 58.081283 210.239769 
L 62.059893 206.885938 
L 66.038503 201.22635 
L 70.017112 204.370566 
L 73.995722 201.016735 
L 77.974332 198.082134 
L 81.952941 193.889846 
L 85.931551 194.09946 
L 89.91016 191.164859 
L 93.88877 191.793702 
L 97.86738 191.793702 
L 101.845989 188.649486 
L 105.824599 190.955244 
L 109.803209 190.326401 
L 113.781818 185.50527 
L 117.760428 189.697558 
L 121.739037 186.134113 
L 125.717647 186.762956 
" clip-path="url(#p52184fdb62)" style="fill: none; stroke-dasharray: 5.55,2.4; stroke-dashoffset: 0; stroke: #9467bd; stroke-width: 1.5"/>
   </g>
   <g id="line2d_32">
    <path d="M 46.145455 272.914473 
L 50.124064 223.65509 
L 54.102674 207.305167 
L 58.081283 197.45329 
L 62.059893 186.553342 
L 66.038503 179.636067 
L 70.017112 176.282237 
L 73.995722 173.138021 
L 77.974332 169.993805 
L 81.952941 171.461105 
L 85.931551 163.705373 
L 89.91016 162.657301 
L 93.88877 160.561157 
L 97.86738 162.657301 
L 101.845989 159.093856 
L 105.824599 160.351542 
L 109.803209 155.320797 
L 113.781818 158.674627 
L 117.760428 155.740026 
L 121.739037 153.643882 
L 125.717647 161.609229 
L 129.696257 149.870823 
L 133.674866 155.530411 
L 137.653476 155.320797 
L 141.632086 156.159254 
L 145.610695 155.320797 
L 149.589305 152.176581 
L 153.567914 154.272725 
L 157.546524 151.128509 
L 161.525134 151.128509 
L 165.503743 149.661208 
" clip-path="url(#p52184fdb62)" style="fill: none; stroke-dasharray: 5.55,2.4; stroke-dashoffset: 0; stroke: #8c564b; stroke-width: 1.5"/>
   </g>
   <g id="line2d_33">
    <path d="M 46.145455 309.387378 
L 50.124064 277.945219 
L 54.102674 259.289537 
L 58.081283 247.760746 
L 62.059893 238.118483 
L 66.038503 230.991594 
L 70.017112 225.54162 
L 73.995722 220.720488 
L 77.974332 220.720488 
L 81.952941 217.366658 
L 85.931551 212.335913 
L 89.91016 211.916684 
L 93.88877 207.514781 
L 97.86738 206.46671 
L 101.845989 202.903265 
L 105.824599 200.387892 
L 109.803209 200.807121 
L 113.781818 201.645578 
L 117.760428 197.243676 
L 121.739037 197.872519 
L 125.717647 194.09946 
L 129.696257 195.566761 
L 133.674866 192.632159 
L 137.653476 194.309075 
L 141.632086 194.309075 
L 145.610695 190.74563 
L 149.589305 192.422545 
L 153.567914 190.536015 
L 157.546524 191.374473 
L 161.525134 190.116787 
L 165.503743 190.326401 
L 169.482353 190.955244 
L 173.460963 191.164859 
L 177.439572 188.439871 
" clip-path="url(#p52184fdb62)" style="fill: none; stroke-dasharray: 5.55,2.4; stroke-dashoffset: 0; stroke: #e377c2; stroke-width: 1.5"/>
   </g>
   <g id="line2d_34">
    <path d="M 46.145455 316.723882 
L 50.124064 251.533805 
L 54.102674 218.624344 
L 58.081283 198.082134 
L 62.059893 185.086041 
L 66.038503 177.330308 
L 70.017112 169.155347 
L 73.995722 168.945733 
L 77.974332 164.334216 
L 81.952941 158.884242 
L 85.931551 156.368869 
L 89.91016 153.434267 
L 93.88877 154.063111 
L 97.86738 148.613136 
L 101.845989 147.35545 
L 105.824599 146.516992 
L 109.803209 142.953548 
L 113.781818 144.840077 
L 117.760428 139.180488 
L 121.739037 138.76126 
L 125.717647 136.036272 
L 129.696257 136.455501 
L 133.674866 135.197815 
L 137.653476 134.568972 
L 141.632086 134.988201 
L 145.610695 134.988201 
L 149.589305 134.778586 
L 153.567914 130.376684 
L 157.546524 130.586298 
L 161.525134 131.843985 
L 165.503743 129.538226 
L 169.482353 130.167069 
L 173.460963 128.070925 
L 177.439572 127.861311 
L 181.418182 128.490154 
L 185.396791 127.232468 
L 189.375401 129.118997 
L 193.354011 128.070925 
L 197.33262 127.442082 
L 201.31123 127.651697 
L 205.28984 125.345938 
L 209.268449 123.669023 
L 213.247059 122.620951 
L 217.225668 124.92671 
L 221.204278 124.507481 
L 225.182888 122.411337 
L 229.161497 122.411337 
L 233.140107 123.878638 
L 237.118717 123.878638 
L 241.097326 121.782494 
L 245.075936 121.363265 
L 249.054545 121.782494 
" clip-path="url(#p52184fdb62)" style="fill: none; stroke-dasharray: 5.55,2.4; stroke-dashoffset: 0; stroke: #7f7f7f; stroke-width: 1.5"/>
   </g>
   <g id="patch_3">
    <path d="M 36 283.5 
L 36 38.88 
" style="fill: none; stroke: #000000; stroke-width: 0.8; stroke-linejoin: miter; stroke-linecap: square"/>
   </g>
   <g id="patch_4">
    <path d="M 259.2 283.5 
L 259.2 38.88 
" style="fill: none; stroke: #000000; stroke-width: 0.8; stroke-linejoin: miter; stroke-linecap: square"/>
   </g>
   <g id="patch_5">
    <path d="M 36 283.5 
L 259.2 283.5 
" style="fill: none; stroke: #000000; stroke-width: 0.8; stroke-linejoin: miter; stroke-linecap: square"/>
   </g>
   <g id="patch_6">
    <path d="M 36 38.88 
L 259.2 38.88 
" style="fill: none; stroke: #000000; stroke-width: 0.8; stroke-linejoin: miter; stroke-linecap: square"/>
   </g>
   <g id="legend_1">
    <g id="patch_7">
     <path d="M 136.107812 278.5 
L 252.2 278.5 
Q 254.2 278.5 254.2 276.5 
L 254.2 158.40625 
Q 254.2 156.40625 252.2 156.40625 
L 136.107812 156.40625 
Q 134.107812 156.40625 134.107812 158.40625 
L 134.107812 276.5 
Q 134.107812 278.5 136.107812 278.5 
z
" style="fill: #ffffff; opacity: 0.6; stroke: #cccccc; stroke-linejoin: miter"/>
    </g>
    <g id="line2d_35">
     <path d="M 138.107812 164.504687 
L 148.107812 164.504687 
L 158.107812 164.504687 
" style="fill: none; stroke: #1f77b4; stroke-width: 1.5; stroke-linecap: square"/>
    </g>
    <g id="text_16">
     <!-- vit_b_16 -->
     <g transform="translate(166.107812 168.004687)scale(0.1 -0.1)">
      <defs>
       <path id="DejaVuSans-76" d="M 191 3500 
L 800 3500 
L 1894 563 
L 2988 3500 
L 3597 3500 
L 2284 0 
L 1503 0 
L 191 3500 
z
" transform="scale(0.015625)"/>
       <path id="DejaVuSans-69" d="M 603 3500 
L 1178 3500 
L 1178 0 
L 603 0 
L 603 3500 
z
M 603 4863 
L 1178 4863 
L 1178 4134 
L 603 4134 
L 603 4863 
z
" transform="scale(0.015625)"/>
       <path id="DejaVuSans-74" d="M 1172 4494 
L 1172 3500 
L 2356 3500 
L 2356 3053 
L 1172 3053 
L 1172 1153 
Q 1172 725 1289 603 
Q 1406 481 1766 481 
L 2356 481 
L 2356 0 
L 1766 0 
Q 1100 0 847 248 
Q 594 497 594 1153 
L 594 3053 
L 172 3053 
L 172 3500 
L 594 3500 
L 594 4494 
L 1172 4494 
z
" transform="scale(0.015625)"/>
       <path id="DejaVuSans-5f" d="M 3263 -1063 
L 3263 -1509 
L -63 -1509 
L -63 -1063 
L 3263 -1063 
z
" transform="scale(0.015625)"/>
       <path id="DejaVuSans-62" d="M 3116 1747 
Q 3116 2381 2855 2742 
Q 2594 3103 2138 3103 
Q 1681 3103 1420 2742 
Q 1159 2381 1159 1747 
Q 1159 1113 1420 752 
Q 1681 391 2138 391 
Q 2594 391 2855 752 
Q 3116 1113 3116 1747 
z
M 1159 2969 
Q 1341 3281 1617 3432 
Q 1894 3584 2278 3584 
Q 2916 3584 3314 3078 
Q 3713 2572 3713 1747 
Q 3713 922 3314 415 
Q 2916 -91 2278 -91 
Q 1894 -91 1617 61 
Q 1341 213 1159 525 
L 1159 0 
L 581 0 
L 581 4863 
L 1159 4863 
L 1159 2969 
z
" transform="scale(0.015625)"/>
      </defs>
      <use xlink:href="#DejaVuSans-76"/>
      <use xlink:href="#DejaVuSans-69" x="59.179688"/>
      <use xlink:href="#DejaVuSans-74" x="86.962891"/>
      <use xlink:href="#DejaVuSans-5f" x="126.171875"/>
      <use xlink:href="#DejaVuSans-62" x="176.171875"/>
      <use xlink:href="#DejaVuSans-5f" x="239.648438"/>
      <use xlink:href="#DejaVuSans-31" x="289.648438"/>
      <use xlink:href="#DejaVuSans-36" x="353.271484"/>
     </g>
    </g>
    <g id="line2d_36">
     <path d="M 138.107812 179.460938 
L 148.107812 179.460938 
L 158.107812 179.460938 
" style="fill: none; stroke: #ff7f0e; stroke-width: 1.5; stroke-linecap: square"/>
    </g>
    <g id="text_17">
     <!-- swin_b -->
     <g transform="translate(166.107812 182.960938)scale(0.1 -0.1)">
      <defs>
       <path id="DejaVuSans-77" d="M 269 3500 
L 844 3500 
L 1563 769 
L 2278 3500 
L 2956 3500 
L 3675 769 
L 4391 3500 
L 4966 3500 
L 4050 0 
L 3372 0 
L 2619 2869 
L 1863 0 
L 1184 0 
L 269 3500 
z
" transform="scale(0.015625)"/>
       <path id="DejaVuSans-6e" d="M 3513 2113 
L 3513 0 
L 2938 0 
L 2938 2094 
Q 2938 2591 2744 2837 
Q 2550 3084 2163 3084 
Q 1697 3084 1428 2787 
Q 1159 2491 1159 1978 
L 1159 0 
L 581 0 
L 581 3500 
L 1159 3500 
L 1159 2956 
Q 1366 3272 1645 3428 
Q 1925 3584 2291 3584 
Q 2894 3584 3203 3211 
Q 3513 2838 3513 2113 
z
" transform="scale(0.015625)"/>
      </defs>
      <use xlink:href="#DejaVuSans-73"/>
      <use xlink:href="#DejaVuSans-77" x="52.099609"/>
      <use xlink:href="#DejaVuSans-69" x="133.886719"/>
      <use xlink:href="#DejaVuSans-6e" x="161.669922"/>
      <use xlink:href="#DejaVuSans-5f" x="225.048828"/>
      <use xlink:href="#DejaVuSans-62" x="275.048828"/>
     </g>
    </g>
    <g id="line2d_37">
     <path d="M 138.107812 194.417188 
L 148.107812 194.417188 
L 158.107812 194.417188 
" style="fill: none; stroke: #2ca02c; stroke-width: 1.5; stroke-linecap: square"/>
    </g>
    <g id="text_18">
     <!-- beit_b_16 -->
     <g transform="translate(166.107812 197.917188)scale(0.1 -0.1)">
      <defs>
       <path id="DejaVuSans-65" d="M 3597 1894 
L 3597 1613 
L 953 1613 
Q 991 1019 1311 708 
Q 1631 397 2203 397 
Q 2534 397 2845 478 
Q 3156 559 3463 722 
L 3463 178 
Q 3153 47 2828 -22 
Q 2503 -91 2169 -91 
Q 1331 -91 842 396 
Q 353 884 353 1716 
Q 353 2575 817 3079 
Q 1281 3584 2069 3584 
Q 2775 3584 3186 3129 
Q 3597 2675 3597 1894 
z
M 3022 2063 
Q 3016 2534 2758 2815 
Q 2500 3097 2075 3097 
Q 1594 3097 1305 2825 
Q 1016 2553 972 2059 
L 3022 2063 
z
" transform="scale(0.015625)"/>
      </defs>
      <use xlink:href="#DejaVuSans-62"/>
      <use xlink:href="#DejaVuSans-65" x="63.476562"/>
      <use xlink:href="#DejaVuSans-69" x="125"/>
      <use xlink:href="#DejaVuSans-74" x="152.783203"/>
      <use xlink:href="#DejaVuSans-5f" x="191.992188"/>
      <use xlink:href="#DejaVuSans-62" x="241.992188"/>
      <use xlink:href="#DejaVuSans-5f" x="305.46875"/>
      <use xlink:href="#DejaVuSans-31" x="355.46875"/>
      <use xlink:href="#DejaVuSans-36" x="419.091797"/>
     </g>
    </g>
    <g id="line2d_38">
     <path d="M 138.107812 209.373437 
L 148.107812 209.373437 
L 158.107812 209.373437 
" style="fill: none; stroke: #d62728; stroke-width: 1.5; stroke-linecap: square"/>
    </g>
    <g id="text_19">
     <!-- deit_b_16 -->
     <g transform="translate(166.107812 212.873437)scale(0.1 -0.1)">
      <defs>
       <path id="DejaVuSans-64" d="M 2906 2969 
L 2906 4863 
L 3481 4863 
L 3481 0 
L 2906 0 
L 2906 525 
Q 2725 213 2448 61 
Q 2172 -91 1784 -91 
Q 1150 -91 751 415 
Q 353 922 353 1747 
Q 353 2572 751 3078 
Q 1150 3584 1784 3584 
Q 2172 3584 2448 3432 
Q 2725 3281 2906 2969 
z
M 947 1747 
Q 947 1113 1208 752 
Q 1469 391 1925 391 
Q 2381 391 2643 752 
Q 2906 1113 2906 1747 
Q 2906 2381 2643 2742 
Q 2381 3103 1925 3103 
Q 1469 3103 1208 2742 
Q 947 2381 947 1747 
z
" transform="scale(0.015625)"/>
      </defs>
      <use xlink:href="#DejaVuSans-64"/>
      <use xlink:href="#DejaVuSans-65" x="63.476562"/>
      <use xlink:href="#DejaVuSans-69" x="125"/>
      <use xlink:href="#DejaVuSans-74" x="152.783203"/>
      <use xlink:href="#DejaVuSans-5f" x="191.992188"/>
      <use xlink:href="#DejaVuSans-62" x="241.992188"/>
      <use xlink:href="#DejaVuSans-5f" x="305.46875"/>
      <use xlink:href="#DejaVuSans-31" x="355.46875"/>
      <use xlink:href="#DejaVuSans-36" x="419.091797"/>
     </g>
    </g>
    <g id="line2d_39">
     <path d="M 138.107812 224.329687 
L 148.107812 224.329687 
L 158.107812 224.329687 
" style="fill: none; stroke-dasharray: 5.55,2.4; stroke-dashoffset: 0; stroke: #9467bd; stroke-width: 1.5"/>
    </g>
    <g id="text_20">
     <!-- vgg19 -->
     <g transform="translate(166.107812 227.829687)scale(0.1 -0.1)">
      <defs>
       <path id="DejaVuSans-67" d="M 2906 1791 
Q 2906 2416 2648 2759 
Q 2391 3103 1925 3103 
Q 1463 3103 1205 2759 
Q 947 2416 947 1791 
Q 947 1169 1205 825 
Q 1463 481 1925 481 
Q 2391 481 2648 825 
Q 2906 1169 2906 1791 
z
M 3481 434 
Q 3481 -459 3084 -895 
Q 2688 -1331 1869 -1331 
Q 1566 -1331 1297 -1286 
Q 1028 -1241 775 -1147 
L 775 -588 
Q 1028 -725 1275 -790 
Q 1522 -856 1778 -856 
Q 2344 -856 2625 -561 
Q 2906 -266 2906 331 
L 2906 616 
Q 2728 306 2450 153 
Q 2172 0 1784 0 
Q 1141 0 747 490 
Q 353 981 353 1791 
Q 353 2603 747 3093 
Q 1141 3584 1784 3584 
Q 2172 3584 2450 3431 
Q 2728 3278 2906 2969 
L 2906 3500 
L 3481 3500 
L 3481 434 
z
" transform="scale(0.015625)"/>
      </defs>
      <use xlink:href="#DejaVuSans-76"/>
      <use xlink:href="#DejaVuSans-67" x="59.179688"/>
      <use xlink:href="#DejaVuSans-67" x="122.65625"/>
      <use xlink:href="#DejaVuSans-31" x="186.132812"/>
      <use xlink:href="#DejaVuSans-39" x="249.755859"/>
     </g>
    </g>
    <g id="line2d_40">
     <path d="M 138.107812 239.007812 
L 148.107812 239.007812 
L 158.107812 239.007812 
" style="fill: none; stroke-dasharray: 5.55,2.4; stroke-dashoffset: 0; stroke: #8c564b; stroke-width: 1.5"/>
    </g>
    <g id="text_21">
     <!-- resnet50 -->
     <g transform="translate(166.107812 242.507812)scale(0.1 -0.1)">
      <use xlink:href="#DejaVuSans-72"/>
      <use xlink:href="#DejaVuSans-65" x="38.863281"/>
      <use xlink:href="#DejaVuSans-73" x="100.386719"/>
      <use xlink:href="#DejaVuSans-6e" x="152.486328"/>
      <use xlink:href="#DejaVuSans-65" x="215.865234"/>
      <use xlink:href="#DejaVuSans-74" x="277.388672"/>
      <use xlink:href="#DejaVuSans-35" x="316.597656"/>
      <use xlink:href="#DejaVuSans-30" x="380.220703"/>
     </g>
    </g>
    <g id="line2d_41">
     <path d="M 138.107812 253.685938 
L 148.107812 253.685938 
L 158.107812 253.685938 
" style="fill: none; stroke-dasharray: 5.55,2.4; stroke-dashoffset: 0; stroke: #e377c2; stroke-width: 1.5"/>
    </g>
    <g id="text_22">
     <!-- efficientnetv2_m -->
     <g transform="translate(166.107812 257.185938)scale(0.1 -0.1)">
      <defs>
       <path id="DejaVuSans-66" d="M 2375 4863 
L 2375 4384 
L 1825 4384 
Q 1516 4384 1395 4259 
Q 1275 4134 1275 3809 
L 1275 3500 
L 2222 3500 
L 2222 3053 
L 1275 3053 
L 1275 0 
L 697 0 
L 697 3053 
L 147 3053 
L 147 3500 
L 697 3500 
L 697 3744 
Q 697 4328 969 4595 
Q 1241 4863 1831 4863 
L 2375 4863 
z
" transform="scale(0.015625)"/>
       <path id="DejaVuSans-6d" d="M 3328 2828 
Q 3544 3216 3844 3400 
Q 4144 3584 4550 3584 
Q 5097 3584 5394 3201 
Q 5691 2819 5691 2113 
L 5691 0 
L 5113 0 
L 5113 2094 
Q 5113 2597 4934 2840 
Q 4756 3084 4391 3084 
Q 3944 3084 3684 2787 
Q 3425 2491 3425 1978 
L 3425 0 
L 2847 0 
L 2847 2094 
Q 2847 2600 2669 2842 
Q 2491 3084 2119 3084 
Q 1678 3084 1418 2786 
Q 1159 2488 1159 1978 
L 1159 0 
L 581 0 
L 581 3500 
L 1159 3500 
L 1159 2956 
Q 1356 3278 1631 3431 
Q 1906 3584 2284 3584 
Q 2666 3584 2933 3390 
Q 3200 3197 3328 2828 
z
" transform="scale(0.015625)"/>
      </defs>
      <use xlink:href="#DejaVuSans-65"/>
      <use xlink:href="#DejaVuSans-66" x="61.523438"/>
      <use xlink:href="#DejaVuSans-66" x="96.728516"/>
      <use xlink:href="#DejaVuSans-69" x="131.933594"/>
      <use xlink:href="#DejaVuSans-63" x="159.716797"/>
      <use xlink:href="#DejaVuSans-69" x="214.697266"/>
      <use xlink:href="#DejaVuSans-65" x="242.480469"/>
      <use xlink:href="#DejaVuSans-6e" x="304.003906"/>
      <use xlink:href="#DejaVuSans-74" x="367.382812"/>
      <use xlink:href="#DejaVuSans-6e" x="406.591797"/>
      <use xlink:href="#DejaVuSans-65" x="469.970703"/>
      <use xlink:href="#DejaVuSans-74" x="531.494141"/>
      <use xlink:href="#DejaVuSans-76" x="570.703125"/>
      <use xlink:href="#DejaVuSans-32" x="629.882812"/>
      <use xlink:href="#DejaVuSans-5f" x="693.505859"/>
      <use xlink:href="#DejaVuSans-6d" x="743.505859"/>
     </g>
    </g>
    <g id="line2d_42">
     <path d="M 138.107812 268.642187 
L 148.107812 268.642187 
L 158.107812 268.642187 
" style="fill: none; stroke-dasharray: 5.55,2.4; stroke-dashoffset: 0; stroke: #7f7f7f; stroke-width: 1.5"/>
    </g>
    <g id="text_23">
     <!-- convnext_b -->
     <g transform="translate(166.107812 272.142187)scale(0.1 -0.1)">
      <defs>
       <path id="DejaVuSans-78" d="M 3513 3500 
L 2247 1797 
L 3578 0 
L 2900 0 
L 1881 1375 
L 863 0 
L 184 0 
L 1544 1831 
L 300 3500 
L 978 3500 
L 1906 2253 
L 2834 3500 
L 3513 3500 
z
" transform="scale(0.015625)"/>
      </defs>
      <use xlink:href="#DejaVuSans-63"/>
      <use xlink:href="#DejaVuSans-6f" x="54.980469"/>
      <use xlink:href="#DejaVuSans-6e" x="116.162109"/>
      <use xlink:href="#DejaVuSans-76" x="179.541016"/>
      <use xlink:href="#DejaVuSans-6e" x="238.720703"/>
      <use xlink:href="#DejaVuSans-65" x="302.099609"/>
      <use xlink:href="#DejaVuSans-78" x="361.873047"/>
      <use xlink:href="#DejaVuSans-74" x="421.052734"/>
      <use xlink:href="#DejaVuSans-5f" x="460.261719"/>
      <use xlink:href="#DejaVuSans-62" x="510.261719"/>
     </g>
    </g>
   </g>
  </g>
 </g>
 <defs>
  <clipPath id="p52184fdb62">
   <rect x="36" y="38.88" width="223.2" height="244.62"/>
  </clipPath>
 </defs>
</svg>
