<?xml version="1.0" encoding="utf-8" standalone="no"?>
<!DOCTYPE svg PUBLIC "-//W3C//DTD SVG 1.1//EN"
  "http://www.w3.org/Graphics/SVG/1.1/DTD/svg11.dtd">
<svg xmlns:xlink="http://www.w3.org/1999/xlink" width="360pt" height="432pt" viewBox="0 0 360 432" xmlns="http://www.w3.org/2000/svg" version="1.1">
 <metadata>
  <rdf:RDF xmlns:dc="http://purl.org/dc/elements/1.1/" xmlns:cc="http://creativecommons.org/ns#" xmlns:rdf="http://www.w3.org/1999/02/22-rdf-syntax-ns#">
   <cc:Work>
    <dc:type rdf:resource="http://purl.org/dc/dcmitype/StillImage"/>
    <dc:date>2022-05-19T11:19:50.299150</dc:date>
    <dc:format>image/svg+xml</dc:format>
    <dc:creator>
     <cc:Agent>
      <dc:title>Matplotlib v3.5.2, https://matplotlib.org/</dc:title>
     </cc:Agent>
    </dc:creator>
   </cc:Work>
  </rdf:RDF>
 </metadata>
 <defs>
  <style type="text/css">*{stroke-linejoin: round; stroke-linecap: butt}</style>
 </defs>
 <g id="figure_1">
  <g id="patch_1">
   <path d="M 0 432 
L 360 432 
L 360 0 
L 0 0 
L 0 432 
z
" style="fill: none"/>
  </g>
  <g id="axes_1">
   <g id="patch_2">
    <path d="M 45 378 
L 324 378 
L 324 51.84 
L 45 51.84 
z
" style="fill: #ffffff"/>
   </g>
   <g id="PolyCollection_1">
    <path d="M 57.681818 385.328812 
L 57.681818 405.21564 
L 62.65508 306.941409 
L 67.628342 263.45271 
L 72.601604 234.404156 
L 77.574866 216.46261 
L 82.548128 204.9899 
L 87.52139 194.539629 
L 92.494652 185.040229 
L 97.467914 183.938873 
L 102.441176 181.578357 
L 107.414439 178.096645 
L 112.387701 173.09071 
L 117.360963 169.307262 
L 122.334225 163.376379 
L 127.307487 159.779589 
L 132.280749 161.923673 
L 137.254011 157.520441 
L 142.227273 163.757425 
L 147.200535 159.687331 
L 152.173797 156.803698 
L 157.147059 156.4019 
L 162.120321 160.474692 
L 167.093583 158.50166 
L 172.066845 158.06474 
L 177.040107 153.30921 
L 182.013369 154.85095 
L 186.986631 150.631824 
L 191.959893 152.458902 
L 196.933155 148.694045 
L 201.906417 155.412125 
L 206.879679 151.251761 
L 211.852941 151.266003 
L 216.826203 152.942918 
L 221.799465 149.56591 
L 221.799465 138.574758 
L 221.799465 138.574758 
L 216.826203 139.893113 
L 211.852941 138.216198 
L 206.879679 136.888907 
L 201.906417 140.777737 
L 196.933155 135.422027 
L 191.959893 138.364831 
L 186.986631 138.850376 
L 182.013369 142.009677 
L 177.040107 140.868353 
L 172.066845 142.820484 
L 167.093583 147.078926 
L 162.120321 147.118192 
L 157.147059 148.50792 
L 152.173797 146.76459 
L 147.200535 150.588617 
L 142.227273 153.226184 
L 137.254011 149.401677 
L 132.280749 151.03534 
L 127.307487 152.508658 
L 122.334225 151.594932 
L 117.360963 158.408604 
L 112.387701 158.649753 
L 107.414439 165.04684 
L 102.441176 166.260492 
L 97.467914 169.266104 
L 92.494652 170.177046 
L 87.52139 180.129862 
L 82.548128 187.790275 
L 77.574866 199.794377 
L 72.601604 218.744965 
L 67.628342 243.357696 
L 62.65508 289.080884 
L 57.681818 385.328812 
z
" clip-path="url(#p0c0efe0af6)" style="fill: #1f77b4; fill-opacity: 0.2"/>
   </g>
   <g id="PolyCollection_2">
    <path d="M 57.681818 309.985625 
L 57.681818 335.002591 
L 62.65508 236.575905 
L 67.628342 200.931395 
L 72.601604 174.841169 
L 77.574866 167.176752 
L 82.548128 161.411448 
L 87.52139 148.970732 
L 92.494652 136.732399 
L 97.467914 134.896915 
L 102.441176 130.593524 
L 107.414439 132.667311 
L 112.387701 124.078583 
L 117.360963 124.177337 
L 122.334225 120.703829 
L 127.307487 118.744168 
L 132.280749 118.668094 
L 137.254011 113.847651 
L 142.227273 108.905236 
L 147.200535 111.48912 
L 152.173797 108.025209 
L 157.147059 106.500724 
L 162.120321 108.82415 
L 167.093583 105.30285 
L 172.066845 105.57218 
L 177.040107 105.731029 
L 182.013369 107.593835 
L 186.986631 102.89208 
L 191.959893 101.993269 
L 196.933155 101.465247 
L 201.906417 99.172985 
L 206.879679 101.899728 
L 211.852941 101.212811 
L 216.826203 103.631982 
L 221.799465 101.803682 
L 226.772727 101.177675 
L 226.772727 85.677317 
L 226.772727 85.677317 
L 221.799465 88.40514 
L 216.826203 86.57684 
L 211.852941 86.983714 
L 206.879679 88.979861 
L 201.906417 86.340475 
L 196.933155 86.731278 
L 191.959893 91.569383 
L 186.986631 85.304445 
L 182.013369 89.993414 
L 177.040107 92.526986 
L 172.066845 92.01507 
L 167.093583 91.613633 
L 162.120321 96.141526 
L 157.147059 89.744993 
L 152.173797 91.574338 
L 147.200535 95.488854 
L 142.227273 95.389674 
L 137.254011 99.167218 
L 132.280749 102.395967 
L 127.307487 100.978362 
L 122.334225 99.689466 
L 117.360963 105.606684 
L 112.387701 106.376204 
L 107.414439 113.885861 
L 102.441176 113.276584 
L 97.467914 115.010087 
L 92.494652 115.857668 
L 87.52139 127.096147 
L 82.548128 142.15684 
L 77.574866 151.14839 
L 72.601604 162.265423 
L 67.628342 186.482652 
L 62.65508 222.610111 
L 57.681818 309.985625 
z
" clip-path="url(#p0c0efe0af6)" style="fill: #ff7f0e; fill-opacity: 0.2"/>
   </g>
   <g id="PolyCollection_3">
    <path d="M 57.681818 508.412472 
L 57.681818 515.558571 
L 62.65508 390.57108 
L 67.628342 346.967002 
L 72.601604 323.892588 
L 77.574866 314.976909 
L 82.548128 291.242624 
L 87.52139 287.052891 
L 92.494652 274.21506 
L 97.467914 272.220874 
L 102.441176 268.513549 
L 107.414439 259.834303 
L 112.387701 258.969292 
L 117.360963 257.779628 
L 122.334225 251.114166 
L 127.307487 249.664473 
L 132.280749 239.818197 
L 137.254011 246.378375 
L 142.227273 240.501508 
L 147.200535 239.953341 
L 152.173797 240.821231 
L 157.147059 246.583715 
L 162.120321 239.972395 
L 167.093583 233.140481 
L 172.066845 235.865942 
L 177.040107 237.390338 
L 182.013369 228.572872 
L 186.986631 234.608213 
L 191.959893 230.182238 
L 196.933155 228.968392 
L 201.906417 235.728736 
L 206.879679 229.563936 
L 211.852941 229.316436 
L 211.852941 211.088129 
L 211.852941 211.088129 
L 206.879679 212.182162 
L 201.906417 217.420385 
L 196.933155 209.423875 
L 191.959893 208.880795 
L 186.986631 216.52861 
L 182.013369 212.502459 
L 177.040107 215.758783 
L 172.066845 217.283179 
L 167.093583 223.36247 
L 162.120321 223.908983 
L 157.147059 221.993025 
L 152.173797 221.047848 
L 147.200535 224.598803 
L 142.227273 224.050636 
L 137.254011 225.552196 
L 132.280749 218.697053 
L 127.307487 228.973759 
L 122.334225 230.207129 
L 117.360963 238.298521 
L 112.387701 243.145752 
L 107.414439 242.951506 
L 102.441176 251.041413 
L 97.467914 257.395578 
L 92.494652 256.742924 
L 87.52139 274.089567 
L 82.548128 279.290559 
L 77.574866 296.473003 
L 72.601604 309.021839 
L 67.628342 330.217985 
L 62.65508 371.130432 
L 57.681818 508.412472 
z
" clip-path="url(#p0c0efe0af6)" style="fill: #2ca02c; fill-opacity: 0.2"/>
   </g>
   <g id="PolyCollection_4">
    <path d="M 57.681818 358.501576 
L 57.681818 381.064655 
L 62.65508 279.795139 
L 67.628342 239.295129 
L 72.601604 216.445722 
L 77.574866 197.654998 
L 82.548128 183.959913 
L 87.52139 178.68021 
L 92.494652 170.622931 
L 97.467914 160.906121 
L 102.441176 161.218846 
L 107.414439 158.50166 
L 112.387701 152.139221 
L 117.360963 155.941578 
L 122.334225 154.628098 
L 127.307487 146.418015 
L 132.280749 146.959071 
L 137.254011 147.906958 
L 142.227273 143.024344 
L 147.200535 146.631048 
L 152.173797 147.215743 
L 157.147059 143.859436 
L 162.120321 145.520808 
L 167.093583 138.791861 
L 172.066845 140.98715 
L 177.040107 137.544001 
L 182.013369 143.292072 
L 186.986631 136.688261 
L 186.986631 121.267934 
L 186.986631 121.267934 
L 182.013369 128.75021 
L 177.040107 123.095258 
L 172.066845 123.676706 
L 167.093583 125.871995 
L 162.120321 134.570668 
L 157.147059 131.536677 
L 152.173797 136.900329 
L 147.200535 134.80196 
L 142.227273 130.359471 
L 137.254011 138.221412 
L 132.280749 135.815469 
L 127.307487 137.698057 
L 122.334225 142.23253 
L 117.360963 142.260581 
L 112.387701 140.696809 
L 107.414439 147.078926 
L 102.441176 148.386336 
L 97.467914 150.71136 
L 92.494652 159.775999 
L 87.52139 169.158639 
L 82.548128 173.269661 
L 77.574866 183.051387 
L 72.601604 199.811265 
L 67.628342 220.561652 
L 62.65508 258.541273 
L 57.681818 358.501576 
z
" clip-path="url(#p0c0efe0af6)" style="fill: #d62728; fill-opacity: 0.2"/>
   </g>
   <g id="PolyCollection_5">
    <path d="M 57.681818 341.462616 
L 57.681818 363.22378 
L 62.65508 310.016765 
L 67.628342 283.508679 
L 72.601604 270.755284 
L 77.574866 263.054373 
L 82.548128 253.015097 
L 87.52139 261.104546 
L 92.494652 253.648905 
L 97.467914 253.578636 
L 102.441176 244.993545 
L 107.414439 246.006431 
L 112.387701 240.358747 
L 117.360963 240.657653 
L 122.334225 239.47482 
L 127.307487 232.224614 
L 132.280749 240.639666 
L 137.254011 240.798779 
L 142.227273 232.349511 
L 147.200535 238.285884 
L 152.173797 229.535617 
L 157.147059 232.883022 
L 157.147059 213.558439 
L 157.147059 213.558439 
L 152.173797 214.893545 
L 147.200535 217.546301 
L 142.227273 210.067353 
L 137.254011 217.045704 
L 132.280749 219.217116 
L 127.307487 220.253741 
L 122.334225 223.065025 
L 117.360963 221.882193 
L 112.387701 220.1688 
L 107.414439 223.911841 
L 102.441176 224.253961 
L 97.467914 229.084192 
L 92.494652 238.404648 
L 87.52139 241.681264 
L 82.548128 239.709222 
L 77.574866 247.78063 
L 72.601604 250.811975 
L 67.628342 266.230755 
L 62.65508 285.334762 
L 57.681818 341.462616 
z
" clip-path="url(#p0c0efe0af6)" style="fill: #9467bd; fill-opacity: 0.2"/>
   </g>
   <g id="PolyCollection_6">
    <path d="M 57.681818 354.581495 
L 57.681818 367.544819 
L 62.65508 286.3694 
L 67.628342 260.759612 
L 72.601604 247.206749 
L 77.574866 226.687177 
L 82.548128 218.212011 
L 87.52139 214.044135 
L 92.494652 207.205583 
L 97.467914 202.223246 
L 102.441176 209.587293 
L 107.414439 190.570893 
L 112.387701 188.208955 
L 117.360963 187.413421 
L 122.334225 193.300403 
L 127.307487 189.336219 
L 132.280749 188.506723 
L 137.254011 180.902856 
L 142.227273 186.31111 
L 147.200535 179.894235 
L 152.173797 178.335108 
L 157.147059 193.379751 
L 162.120321 171.774753 
L 167.093583 183.385329 
L 172.066845 182.762921 
L 177.040107 180.470713 
L 182.013369 182.443702 
L 186.986631 174.17934 
L 191.959893 179.083893 
L 196.933155 175.031351 
L 201.906417 172.913275 
L 206.879679 171.698296 
L 206.879679 156.01757 
L 206.879679 156.01757 
L 201.906417 159.497954 
L 196.933155 157.379877 
L 191.959893 163.388827 
L 186.986631 161.585719 
L 182.013369 163.382848 
L 177.040107 168.038901 
L 172.066845 163.063629 
L 167.093583 163.111987 
L 162.120321 156.611879 
L 157.147059 172.569781 
L 152.173797 162.125314 
L 147.200535 167.273847 
L 142.227273 170.247698 
L 137.254011 164.923694 
L 132.280749 173.418213 
L 127.307487 168.56412 
L 122.334225 176.00296 
L 117.360963 175.182281 
L 112.387701 181.094407 
L 107.414439 182.086299 
L 102.441176 187.888244 
L 97.467914 190.556929 
L 92.494652 195.636083 
L 87.52139 198.859022 
L 82.548128 205.423403 
L 77.574866 219.083517 
L 72.601604 233.44378 
L 67.628342 251.416922 
L 62.65508 278.126888 
L 57.681818 354.581495 
z
" clip-path="url(#p0c0efe0af6)" style="fill: #8c564b; fill-opacity: 0.2"/>
   </g>
   <g id="PolyCollection_7">
    <path d="M 57.681818 413.034302 
L 57.681818 425.805307 
L 62.65508 377.938087 
L 67.628342 349.482816 
L 72.601604 329.791431 
L 77.574866 314.34185 
L 82.548128 304.464251 
L 87.52139 295.116238 
L 92.494652 288.95827 
L 97.467914 289.663778 
L 102.441176 284.143423 
L 107.414439 276.143517 
L 112.387701 275.789454 
L 117.360963 270.184576 
L 122.334225 266.453957 
L 127.307487 260.010762 
L 132.280749 259.200232 
L 137.254011 259.113002 
L 142.227273 259.863244 
L 147.200535 252.903217 
L 152.173797 255.231055 
L 157.147059 248.405863 
L 162.120321 248.233821 
L 167.093583 244.629217 
L 172.066845 247.780501 
L 177.040107 248.745428 
L 182.013369 241.372069 
L 186.986631 245.031655 
L 191.959893 239.299533 
L 196.933155 240.641065 
L 201.906417 239.664657 
L 206.879679 238.100959 
L 211.852941 239.989882 
L 216.826203 241.946951 
L 221.799465 236.397586 
L 221.799465 215.410003 
L 221.799465 215.410003 
L 216.826203 218.580596 
L 211.852941 219.8669 
L 206.879679 219.743524 
L 201.906417 217.50906 
L 196.933155 220.557249 
L 191.959893 219.215717 
L 186.986631 219.520489 
L 182.013369 217.813947 
L 177.040107 221.843611 
L 172.066845 222.808537 
L 167.093583 220.593693 
L 162.120321 226.379814 
L 157.147059 221.51241 
L 152.173797 226.761006 
L 147.200535 227.076546 
L 142.227273 234.202607 
L 137.254011 232.269785 
L 132.280749 230.841023 
L 127.307487 238.079686 
L 122.334225 243.039513 
L 117.360963 242.662725 
L 112.387701 251.143935 
L 107.414439 252.131403 
L 102.441176 260.229883 
L 97.467914 265.441785 
L 92.494652 266.147293 
L 87.52139 275.416945 
L 82.548128 283.508849 
L 77.574866 296.437296 
L 72.601604 311.842954 
L 67.628342 329.043703 
L 62.65508 360.286613 
L 57.681818 413.034302 
z
" clip-path="url(#p0c0efe0af6)" style="fill: #e377c2; fill-opacity: 0.2"/>
   </g>
   <g id="PolyCollection_8">
    <path d="M 57.681818 423.602782 
L 57.681818 438.71364 
L 62.65508 332.768632 
L 67.628342 280.046554 
L 72.601604 248.648608 
L 77.574866 227.781474 
L 82.548128 215.627886 
L 87.52139 201.39873 
L 92.494652 199.687707 
L 97.467914 190.219819 
L 102.441176 183.006896 
L 107.414439 179.362774 
L 112.387701 174.880655 
L 117.360963 176.370909 
L 122.334225 167.256284 
L 127.307487 165.216207 
L 132.280749 165.181789 
L 137.254011 158.646778 
L 142.227273 163.587058 
L 147.200535 156.568916 
L 152.173797 153.980884 
L 157.147059 150.005269 
L 162.120321 150.540419 
L 167.093583 150.282272 
L 172.066845 147.846418 
L 177.040107 149.949829 
L 182.013369 148.859084 
L 186.986631 150.363877 
L 191.959893 140.377309 
L 196.933155 140.581885 
L 201.906417 144.327747 
L 206.879679 138.826909 
L 211.852941 141.316033 
L 216.826203 136.812873 
L 221.799465 137.794271 
L 226.772727 138.445609 
L 231.745989 135.460084 
L 236.719251 139.425129 
L 241.692513 138.589717 
L 246.665775 136.412229 
L 251.639037 135.808462 
L 256.612299 131.610664 
L 261.585561 128.531419 
L 266.558824 127.009777 
L 271.532086 132.616852 
L 276.505348 131.629658 
L 281.47861 125.86014 
L 286.451872 127.617485 
L 291.425134 130.381356 
L 296.398396 128.789978 
L 301.371658 128.1728 
L 306.34492 127.667566 
L 311.318182 130.093736 
L 311.318182 108.410244 
L 311.318182 108.410244 
L 306.34492 109.494881 
L 301.371658 110.331179 
L 296.398396 116.421662 
L 291.425134 114.830284 
L 286.451872 112.898793 
L 281.47861 114.656138 
L 276.505348 115.59428 
L 271.532086 115.948619 
L 266.558824 114.177267 
L 261.585561 116.009455 
L 256.612299 118.296338 
L 251.639037 121.476968 
L 246.665775 120.202434 
L 241.692513 120.037244 
L 236.719251 122.555663 
L 231.745989 120.483814 
L 226.772727 121.522884 
L 221.799465 120.161925 
L 216.826203 121.814088 
L 211.852941 124.01859 
L 206.879679 124.495415 
L 201.906417 126.373004 
L 196.933155 126.094269 
L 191.959893 125.62808 
L 186.986631 129.727598 
L 182.013369 131.903158 
L 177.040107 130.812413 
L 172.066845 131.574291 
L 167.093583 131.150735 
L 162.120321 134.917185 
L 157.147059 134.110803 
L 152.173797 138.855147 
L 147.200535 137.608647 
L 142.227273 148.701189 
L 137.254011 147.604575 
L 132.280749 152.472586 
L 127.307487 155.121233 
L 122.334225 157.105752 
L 117.360963 165.431045 
L 112.387701 164.909001 
L 107.414439 169.817606 
L 102.441176 174.222677 
L 97.467914 184.449672 
L 92.494652 189.738638 
L 87.52139 188.698381 
L 82.548128 200.629101 
L 77.574866 213.293858 
L 72.601604 234.01422 
L 67.628342 268.351348 
L 62.65508 320.939543 
L 57.681818 423.602782 
z
" clip-path="url(#p0c0efe0af6)" style="fill: #7f7f7f; fill-opacity: 0.2"/>
   </g>
   <g id="matplotlib.axis_1">
    <g id="xtick_1">
     <g id="line2d_1">
      <path d="M 52.708556 378 
L 52.708556 51.84 
" clip-path="url(#p0c0efe0af6)" style="fill: none; stroke: #b0b0b0; stroke-width: 0.8; stroke-linecap: square"/>
     </g>
     <g id="line2d_2">
      <defs>
       <path id="me0db7cc083" d="M 0 0 
L 0 3.5 
" style="stroke: #000000; stroke-width: 0.8"/>
      </defs>
      <g>
       <use xlink:href="#me0db7cc083" x="52.708556" y="378" style="stroke: #000000; stroke-width: 0.8"/>
      </g>
     </g>
     <g id="text_1">
      <!-- 0 -->
      <g transform="translate(49.527306 392.598437)scale(0.1 -0.1)">
       <defs>
        <path id="DejaVuSans-30" d="M 2034 4250 
Q 1547 4250 1301 3770 
Q 1056 3291 1056 2328 
Q 1056 1369 1301 889 
Q 1547 409 2034 409 
Q 2525 409 2770 889 
Q 3016 1369 3016 2328 
Q 3016 3291 2770 3770 
Q 2525 4250 2034 4250 
z
M 2034 4750 
Q 2819 4750 3233 4129 
Q 3647 3509 3647 2328 
Q 3647 1150 3233 529 
Q 2819 -91 2034 -91 
Q 1250 -91 836 529 
Q 422 1150 422 2328 
Q 422 3509 836 4129 
Q 1250 4750 2034 4750 
z
" transform="scale(0.015625)"/>
       </defs>
       <use xlink:href="#DejaVuSans-30"/>
      </g>
     </g>
    </g>
    <g id="xtick_2">
     <g id="line2d_3">
      <path d="M 102.441176 378 
L 102.441176 51.84 
" clip-path="url(#p0c0efe0af6)" style="fill: none; stroke: #b0b0b0; stroke-width: 0.8; stroke-linecap: square"/>
     </g>
     <g id="line2d_4">
      <g>
       <use xlink:href="#me0db7cc083" x="102.441176" y="378" style="stroke: #000000; stroke-width: 0.8"/>
      </g>
     </g>
     <g id="text_2">
      <!-- 10 -->
      <g transform="translate(96.078676 392.598437)scale(0.1 -0.1)">
       <defs>
        <path id="DejaVuSans-31" d="M 794 531 
L 1825 531 
L 1825 4091 
L 703 3866 
L 703 4441 
L 1819 4666 
L 2450 4666 
L 2450 531 
L 3481 531 
L 3481 0 
L 794 0 
L 794 531 
z
" transform="scale(0.015625)"/>
       </defs>
       <use xlink:href="#DejaVuSans-31"/>
       <use xlink:href="#DejaVuSans-30" x="63.623047"/>
      </g>
     </g>
    </g>
    <g id="xtick_3">
     <g id="line2d_5">
      <path d="M 152.173797 378 
L 152.173797 51.84 
" clip-path="url(#p0c0efe0af6)" style="fill: none; stroke: #b0b0b0; stroke-width: 0.8; stroke-linecap: square"/>
     </g>
     <g id="line2d_6">
      <g>
       <use xlink:href="#me0db7cc083" x="152.173797" y="378" style="stroke: #000000; stroke-width: 0.8"/>
      </g>
     </g>
     <g id="text_3">
      <!-- 20 -->
      <g transform="translate(145.811297 392.598437)scale(0.1 -0.1)">
       <defs>
        <path id="DejaVuSans-32" d="M 1228 531 
L 3431 531 
L 3431 0 
L 469 0 
L 469 531 
Q 828 903 1448 1529 
Q 2069 2156 2228 2338 
Q 2531 2678 2651 2914 
Q 2772 3150 2772 3378 
Q 2772 3750 2511 3984 
Q 2250 4219 1831 4219 
Q 1534 4219 1204 4116 
Q 875 4013 500 3803 
L 500 4441 
Q 881 4594 1212 4672 
Q 1544 4750 1819 4750 
Q 2544 4750 2975 4387 
Q 3406 4025 3406 3419 
Q 3406 3131 3298 2873 
Q 3191 2616 2906 2266 
Q 2828 2175 2409 1742 
Q 1991 1309 1228 531 
z
" transform="scale(0.015625)"/>
       </defs>
       <use xlink:href="#DejaVuSans-32"/>
       <use xlink:href="#DejaVuSans-30" x="63.623047"/>
      </g>
     </g>
    </g>
    <g id="xtick_4">
     <g id="line2d_7">
      <path d="M 201.906417 378 
L 201.906417 51.84 
" clip-path="url(#p0c0efe0af6)" style="fill: none; stroke: #b0b0b0; stroke-width: 0.8; stroke-linecap: square"/>
     </g>
     <g id="line2d_8">
      <g>
       <use xlink:href="#me0db7cc083" x="201.906417" y="378" style="stroke: #000000; stroke-width: 0.8"/>
      </g>
     </g>
     <g id="text_4">
      <!-- 30 -->
      <g transform="translate(195.543917 392.598437)scale(0.1 -0.1)">
       <defs>
        <path id="DejaVuSans-33" d="M 2597 2516 
Q 3050 2419 3304 2112 
Q 3559 1806 3559 1356 
Q 3559 666 3084 287 
Q 2609 -91 1734 -91 
Q 1441 -91 1130 -33 
Q 819 25 488 141 
L 488 750 
Q 750 597 1062 519 
Q 1375 441 1716 441 
Q 2309 441 2620 675 
Q 2931 909 2931 1356 
Q 2931 1769 2642 2001 
Q 2353 2234 1838 2234 
L 1294 2234 
L 1294 2753 
L 1863 2753 
Q 2328 2753 2575 2939 
Q 2822 3125 2822 3475 
Q 2822 3834 2567 4026 
Q 2313 4219 1838 4219 
Q 1578 4219 1281 4162 
Q 984 4106 628 3988 
L 628 4550 
Q 988 4650 1302 4700 
Q 1616 4750 1894 4750 
Q 2613 4750 3031 4423 
Q 3450 4097 3450 3541 
Q 3450 3153 3228 2886 
Q 3006 2619 2597 2516 
z
" transform="scale(0.015625)"/>
       </defs>
       <use xlink:href="#DejaVuSans-33"/>
       <use xlink:href="#DejaVuSans-30" x="63.623047"/>
      </g>
     </g>
    </g>
    <g id="xtick_5">
     <g id="line2d_9">
      <path d="M 251.639037 378 
L 251.639037 51.84 
" clip-path="url(#p0c0efe0af6)" style="fill: none; stroke: #b0b0b0; stroke-width: 0.8; stroke-linecap: square"/>
     </g>
     <g id="line2d_10">
      <g>
       <use xlink:href="#me0db7cc083" x="251.639037" y="378" style="stroke: #000000; stroke-width: 0.8"/>
      </g>
     </g>
     <g id="text_5">
      <!-- 40 -->
      <g transform="translate(245.276537 392.598437)scale(0.1 -0.1)">
       <defs>
        <path id="DejaVuSans-34" d="M 2419 4116 
L 825 1625 
L 2419 1625 
L 2419 4116 
z
M 2253 4666 
L 3047 4666 
L 3047 1625 
L 3713 1625 
L 3713 1100 
L 3047 1100 
L 3047 0 
L 2419 0 
L 2419 1100 
L 313 1100 
L 313 1709 
L 2253 4666 
z
" transform="scale(0.015625)"/>
       </defs>
       <use xlink:href="#DejaVuSans-34"/>
       <use xlink:href="#DejaVuSans-30" x="63.623047"/>
      </g>
     </g>
    </g>
    <g id="xtick_6">
     <g id="line2d_11">
      <path d="M 301.371658 378 
L 301.371658 51.84 
" clip-path="url(#p0c0efe0af6)" style="fill: none; stroke: #b0b0b0; stroke-width: 0.8; stroke-linecap: square"/>
     </g>
     <g id="line2d_12">
      <g>
       <use xlink:href="#me0db7cc083" x="301.371658" y="378" style="stroke: #000000; stroke-width: 0.8"/>
      </g>
     </g>
     <g id="text_6">
      <!-- 50 -->
      <g transform="translate(295.009158 392.598437)scale(0.1 -0.1)">
       <defs>
        <path id="DejaVuSans-35" d="M 691 4666 
L 3169 4666 
L 3169 4134 
L 1269 4134 
L 1269 2991 
Q 1406 3038 1543 3061 
Q 1681 3084 1819 3084 
Q 2600 3084 3056 2656 
Q 3513 2228 3513 1497 
Q 3513 744 3044 326 
Q 2575 -91 1722 -91 
Q 1428 -91 1123 -41 
Q 819 9 494 109 
L 494 744 
Q 775 591 1075 516 
Q 1375 441 1709 441 
Q 2250 441 2565 725 
Q 2881 1009 2881 1497 
Q 2881 1984 2565 2268 
Q 2250 2553 1709 2553 
Q 1456 2553 1204 2497 
Q 953 2441 691 2322 
L 691 4666 
z
" transform="scale(0.015625)"/>
       </defs>
       <use xlink:href="#DejaVuSans-35"/>
       <use xlink:href="#DejaVuSans-30" x="63.623047"/>
      </g>
     </g>
    </g>
    <g id="text_7">
     <!-- Epochs -->
     <g transform="translate(166.584375 406.276563)scale(0.1 -0.1)">
      <defs>
       <path id="DejaVuSans-45" d="M 628 4666 
L 3578 4666 
L 3578 4134 
L 1259 4134 
L 1259 2753 
L 3481 2753 
L 3481 2222 
L 1259 2222 
L 1259 531 
L 3634 531 
L 3634 0 
L 628 0 
L 628 4666 
z
" transform="scale(0.015625)"/>
       <path id="DejaVuSans-70" d="M 1159 525 
L 1159 -1331 
L 581 -1331 
L 581 3500 
L 1159 3500 
L 1159 2969 
Q 1341 3281 1617 3432 
Q 1894 3584 2278 3584 
Q 2916 3584 3314 3078 
Q 3713 2572 3713 1747 
Q 3713 922 3314 415 
Q 2916 -91 2278 -91 
Q 1894 -91 1617 61 
Q 1341 213 1159 525 
z
M 3116 1747 
Q 3116 2381 2855 2742 
Q 2594 3103 2138 3103 
Q 1681 3103 1420 2742 
Q 1159 2381 1159 1747 
Q 1159 1113 1420 752 
Q 1681 391 2138 391 
Q 2594 391 2855 752 
Q 3116 1113 3116 1747 
z
" transform="scale(0.015625)"/>
       <path id="DejaVuSans-6f" d="M 1959 3097 
Q 1497 3097 1228 2736 
Q 959 2375 959 1747 
Q 959 1119 1226 758 
Q 1494 397 1959 397 
Q 2419 397 2687 759 
Q 2956 1122 2956 1747 
Q 2956 2369 2687 2733 
Q 2419 3097 1959 3097 
z
M 1959 3584 
Q 2709 3584 3137 3096 
Q 3566 2609 3566 1747 
Q 3566 888 3137 398 
Q 2709 -91 1959 -91 
Q 1206 -91 779 398 
Q 353 888 353 1747 
Q 353 2609 779 3096 
Q 1206 3584 1959 3584 
z
" transform="scale(0.015625)"/>
       <path id="DejaVuSans-63" d="M 3122 3366 
L 3122 2828 
Q 2878 2963 2633 3030 
Q 2388 3097 2138 3097 
Q 1578 3097 1268 2742 
Q 959 2388 959 1747 
Q 959 1106 1268 751 
Q 1578 397 2138 397 
Q 2388 397 2633 464 
Q 2878 531 3122 666 
L 3122 134 
Q 2881 22 2623 -34 
Q 2366 -91 2075 -91 
Q 1284 -91 818 406 
Q 353 903 353 1747 
Q 353 2603 823 3093 
Q 1294 3584 2113 3584 
Q 2378 3584 2631 3529 
Q 2884 3475 3122 3366 
z
" transform="scale(0.015625)"/>
       <path id="DejaVuSans-68" d="M 3513 2113 
L 3513 0 
L 2938 0 
L 2938 2094 
Q 2938 2591 2744 2837 
Q 2550 3084 2163 3084 
Q 1697 3084 1428 2787 
Q 1159 2491 1159 1978 
L 1159 0 
L 581 0 
L 581 4863 
L 1159 4863 
L 1159 2956 
Q 1366 3272 1645 3428 
Q 1925 3584 2291 3584 
Q 2894 3584 3203 3211 
Q 3513 2838 3513 2113 
z
" transform="scale(0.015625)"/>
       <path id="DejaVuSans-73" d="M 2834 3397 
L 2834 2853 
Q 2591 2978 2328 3040 
Q 2066 3103 1784 3103 
Q 1356 3103 1142 2972 
Q 928 2841 928 2578 
Q 928 2378 1081 2264 
Q 1234 2150 1697 2047 
L 1894 2003 
Q 2506 1872 2764 1633 
Q 3022 1394 3022 966 
Q 3022 478 2636 193 
Q 2250 -91 1575 -91 
Q 1294 -91 989 -36 
Q 684 19 347 128 
L 347 722 
Q 666 556 975 473 
Q 1284 391 1588 391 
Q 1994 391 2212 530 
Q 2431 669 2431 922 
Q 2431 1156 2273 1281 
Q 2116 1406 1581 1522 
L 1381 1569 
Q 847 1681 609 1914 
Q 372 2147 372 2553 
Q 372 3047 722 3315 
Q 1072 3584 1716 3584 
Q 2034 3584 2315 3537 
Q 2597 3491 2834 3397 
z
" transform="scale(0.015625)"/>
      </defs>
      <use xlink:href="#DejaVuSans-45"/>
      <use xlink:href="#DejaVuSans-70" x="63.183594"/>
      <use xlink:href="#DejaVuSans-6f" x="126.660156"/>
      <use xlink:href="#DejaVuSans-63" x="187.841797"/>
      <use xlink:href="#DejaVuSans-68" x="242.822266"/>
      <use xlink:href="#DejaVuSans-73" x="306.201172"/>
     </g>
    </g>
   </g>
   <g id="matplotlib.axis_2">
    <g id="ytick_1">
     <g id="line2d_13">
      <path d="M 45 378 
L 324 378 
" clip-path="url(#p0c0efe0af6)" style="fill: none; stroke: #b0b0b0; stroke-width: 0.8; stroke-linecap: square"/>
     </g>
     <g id="line2d_14">
      <defs>
       <path id="m3e6c28daf5" d="M 0 0 
L -3.5 0 
" style="stroke: #000000; stroke-width: 0.8"/>
      </defs>
      <g>
       <use xlink:href="#m3e6c28daf5" x="45" y="378" style="stroke: #000000; stroke-width: 0.8"/>
      </g>
     </g>
     <g id="text_8">
      <!-- 0.65 -->
      <g transform="translate(15.734375 381.799219)scale(0.1 -0.1)">
       <defs>
        <path id="DejaVuSans-2e" d="M 684 794 
L 1344 794 
L 1344 0 
L 684 0 
L 684 794 
z
" transform="scale(0.015625)"/>
        <path id="DejaVuSans-36" d="M 2113 2584 
Q 1688 2584 1439 2293 
Q 1191 2003 1191 1497 
Q 1191 994 1439 701 
Q 1688 409 2113 409 
Q 2538 409 2786 701 
Q 3034 994 3034 1497 
Q 3034 2003 2786 2293 
Q 2538 2584 2113 2584 
z
M 3366 4563 
L 3366 3988 
Q 3128 4100 2886 4159 
Q 2644 4219 2406 4219 
Q 1781 4219 1451 3797 
Q 1122 3375 1075 2522 
Q 1259 2794 1537 2939 
Q 1816 3084 2150 3084 
Q 2853 3084 3261 2657 
Q 3669 2231 3669 1497 
Q 3669 778 3244 343 
Q 2819 -91 2113 -91 
Q 1303 -91 875 529 
Q 447 1150 447 2328 
Q 447 3434 972 4092 
Q 1497 4750 2381 4750 
Q 2619 4750 2861 4703 
Q 3103 4656 3366 4563 
z
" transform="scale(0.015625)"/>
       </defs>
       <use xlink:href="#DejaVuSans-30"/>
       <use xlink:href="#DejaVuSans-2e" x="63.623047"/>
       <use xlink:href="#DejaVuSans-36" x="95.410156"/>
       <use xlink:href="#DejaVuSans-35" x="159.033203"/>
      </g>
     </g>
    </g>
    <g id="ytick_2">
     <g id="line2d_15">
      <path d="M 45 312.768 
L 324 312.768 
" clip-path="url(#p0c0efe0af6)" style="fill: none; stroke: #b0b0b0; stroke-width: 0.8; stroke-linecap: square"/>
     </g>
     <g id="line2d_16">
      <g>
       <use xlink:href="#m3e6c28daf5" x="45" y="312.768" style="stroke: #000000; stroke-width: 0.8"/>
      </g>
     </g>
     <g id="text_9">
      <!-- 0.70 -->
      <g transform="translate(15.734375 316.567219)scale(0.1 -0.1)">
       <defs>
        <path id="DejaVuSans-37" d="M 525 4666 
L 3525 4666 
L 3525 4397 
L 1831 0 
L 1172 0 
L 2766 4134 
L 525 4134 
L 525 4666 
z
" transform="scale(0.015625)"/>
       </defs>
       <use xlink:href="#DejaVuSans-30"/>
       <use xlink:href="#DejaVuSans-2e" x="63.623047"/>
       <use xlink:href="#DejaVuSans-37" x="95.410156"/>
       <use xlink:href="#DejaVuSans-30" x="159.033203"/>
      </g>
     </g>
    </g>
    <g id="ytick_3">
     <g id="line2d_17">
      <path d="M 45 247.536 
L 324 247.536 
" clip-path="url(#p0c0efe0af6)" style="fill: none; stroke: #b0b0b0; stroke-width: 0.8; stroke-linecap: square"/>
     </g>
     <g id="line2d_18">
      <g>
       <use xlink:href="#m3e6c28daf5" x="45" y="247.536" style="stroke: #000000; stroke-width: 0.8"/>
      </g>
     </g>
     <g id="text_10">
      <!-- 0.75 -->
      <g transform="translate(15.734375 251.335219)scale(0.1 -0.1)">
       <use xlink:href="#DejaVuSans-30"/>
       <use xlink:href="#DejaVuSans-2e" x="63.623047"/>
       <use xlink:href="#DejaVuSans-37" x="95.410156"/>
       <use xlink:href="#DejaVuSans-35" x="159.033203"/>
      </g>
     </g>
    </g>
    <g id="ytick_4">
     <g id="line2d_19">
      <path d="M 45 182.304 
L 324 182.304 
" clip-path="url(#p0c0efe0af6)" style="fill: none; stroke: #b0b0b0; stroke-width: 0.8; stroke-linecap: square"/>
     </g>
     <g id="line2d_20">
      <g>
       <use xlink:href="#m3e6c28daf5" x="45" y="182.304" style="stroke: #000000; stroke-width: 0.8"/>
      </g>
     </g>
     <g id="text_11">
      <!-- 0.80 -->
      <g transform="translate(15.734375 186.103219)scale(0.1 -0.1)">
       <defs>
        <path id="DejaVuSans-38" d="M 2034 2216 
Q 1584 2216 1326 1975 
Q 1069 1734 1069 1313 
Q 1069 891 1326 650 
Q 1584 409 2034 409 
Q 2484 409 2743 651 
Q 3003 894 3003 1313 
Q 3003 1734 2745 1975 
Q 2488 2216 2034 2216 
z
M 1403 2484 
Q 997 2584 770 2862 
Q 544 3141 544 3541 
Q 544 4100 942 4425 
Q 1341 4750 2034 4750 
Q 2731 4750 3128 4425 
Q 3525 4100 3525 3541 
Q 3525 3141 3298 2862 
Q 3072 2584 2669 2484 
Q 3125 2378 3379 2068 
Q 3634 1759 3634 1313 
Q 3634 634 3220 271 
Q 2806 -91 2034 -91 
Q 1263 -91 848 271 
Q 434 634 434 1313 
Q 434 1759 690 2068 
Q 947 2378 1403 2484 
z
M 1172 3481 
Q 1172 3119 1398 2916 
Q 1625 2713 2034 2713 
Q 2441 2713 2670 2916 
Q 2900 3119 2900 3481 
Q 2900 3844 2670 4047 
Q 2441 4250 2034 4250 
Q 1625 4250 1398 4047 
Q 1172 3844 1172 3481 
z
" transform="scale(0.015625)"/>
       </defs>
       <use xlink:href="#DejaVuSans-30"/>
       <use xlink:href="#DejaVuSans-2e" x="63.623047"/>
       <use xlink:href="#DejaVuSans-38" x="95.410156"/>
       <use xlink:href="#DejaVuSans-30" x="159.033203"/>
      </g>
     </g>
    </g>
    <g id="ytick_5">
     <g id="line2d_21">
      <path d="M 45 117.072 
L 324 117.072 
" clip-path="url(#p0c0efe0af6)" style="fill: none; stroke: #b0b0b0; stroke-width: 0.8; stroke-linecap: square"/>
     </g>
     <g id="line2d_22">
      <g>
       <use xlink:href="#m3e6c28daf5" x="45" y="117.072" style="stroke: #000000; stroke-width: 0.8"/>
      </g>
     </g>
     <g id="text_12">
      <!-- 0.85 -->
      <g transform="translate(15.734375 120.871219)scale(0.1 -0.1)">
       <use xlink:href="#DejaVuSans-30"/>
       <use xlink:href="#DejaVuSans-2e" x="63.623047"/>
       <use xlink:href="#DejaVuSans-38" x="95.410156"/>
       <use xlink:href="#DejaVuSans-35" x="159.033203"/>
      </g>
     </g>
    </g>
    <g id="ytick_6">
     <g id="line2d_23">
      <path d="M 45 51.84 
L 324 51.84 
" clip-path="url(#p0c0efe0af6)" style="fill: none; stroke: #b0b0b0; stroke-width: 0.8; stroke-linecap: square"/>
     </g>
     <g id="line2d_24">
      <g>
       <use xlink:href="#m3e6c28daf5" x="45" y="51.84" style="stroke: #000000; stroke-width: 0.8"/>
      </g>
     </g>
     <g id="text_13">
      <!-- 0.90 -->
      <g transform="translate(15.734375 55.639219)scale(0.1 -0.1)">
       <defs>
        <path id="DejaVuSans-39" d="M 703 97 
L 703 672 
Q 941 559 1184 500 
Q 1428 441 1663 441 
Q 2288 441 2617 861 
Q 2947 1281 2994 2138 
Q 2813 1869 2534 1725 
Q 2256 1581 1919 1581 
Q 1219 1581 811 2004 
Q 403 2428 403 3163 
Q 403 3881 828 4315 
Q 1253 4750 1959 4750 
Q 2769 4750 3195 4129 
Q 3622 3509 3622 2328 
Q 3622 1225 3098 567 
Q 2575 -91 1691 -91 
Q 1453 -91 1209 -44 
Q 966 3 703 97 
z
M 1959 2075 
Q 2384 2075 2632 2365 
Q 2881 2656 2881 3163 
Q 2881 3666 2632 3958 
Q 2384 4250 1959 4250 
Q 1534 4250 1286 3958 
Q 1038 3666 1038 3163 
Q 1038 2656 1286 2365 
Q 1534 2075 1959 2075 
z
" transform="scale(0.015625)"/>
       </defs>
       <use xlink:href="#DejaVuSans-30"/>
       <use xlink:href="#DejaVuSans-2e" x="63.623047"/>
       <use xlink:href="#DejaVuSans-39" x="95.410156"/>
       <use xlink:href="#DejaVuSans-30" x="159.033203"/>
      </g>
     </g>
    </g>
    <g id="text_14">
     <!-- Accuracy ($\bar{x} \pm s \div \sqrt{N}$) -->
     <g transform="translate(9.634375 269.17)rotate(-90)scale(0.1 -0.1)">
      <defs>
       <path id="DejaVuSans-41" d="M 2188 4044 
L 1331 1722 
L 3047 1722 
L 2188 4044 
z
M 1831 4666 
L 2547 4666 
L 4325 0 
L 3669 0 
L 3244 1197 
L 1141 1197 
L 716 0 
L 50 0 
L 1831 4666 
z
" transform="scale(0.015625)"/>
       <path id="DejaVuSans-75" d="M 544 1381 
L 544 3500 
L 1119 3500 
L 1119 1403 
Q 1119 906 1312 657 
Q 1506 409 1894 409 
Q 2359 409 2629 706 
Q 2900 1003 2900 1516 
L 2900 3500 
L 3475 3500 
L 3475 0 
L 2900 0 
L 2900 538 
Q 2691 219 2414 64 
Q 2138 -91 1772 -91 
Q 1169 -91 856 284 
Q 544 659 544 1381 
z
M 1991 3584 
L 1991 3584 
z
" transform="scale(0.015625)"/>
       <path id="DejaVuSans-72" d="M 2631 2963 
Q 2534 3019 2420 3045 
Q 2306 3072 2169 3072 
Q 1681 3072 1420 2755 
Q 1159 2438 1159 1844 
L 1159 0 
L 581 0 
L 581 3500 
L 1159 3500 
L 1159 2956 
Q 1341 3275 1631 3429 
Q 1922 3584 2338 3584 
Q 2397 3584 2469 3576 
Q 2541 3569 2628 3553 
L 2631 2963 
z
" transform="scale(0.015625)"/>
       <path id="DejaVuSans-61" d="M 2194 1759 
Q 1497 1759 1228 1600 
Q 959 1441 959 1056 
Q 959 750 1161 570 
Q 1363 391 1709 391 
Q 2188 391 2477 730 
Q 2766 1069 2766 1631 
L 2766 1759 
L 2194 1759 
z
M 3341 1997 
L 3341 0 
L 2766 0 
L 2766 531 
Q 2569 213 2275 61 
Q 1981 -91 1556 -91 
Q 1019 -91 701 211 
Q 384 513 384 1019 
Q 384 1609 779 1909 
Q 1175 2209 1959 2209 
L 2766 2209 
L 2766 2266 
Q 2766 2663 2505 2880 
Q 2244 3097 1772 3097 
Q 1472 3097 1187 3025 
Q 903 2953 641 2809 
L 641 3341 
Q 956 3463 1253 3523 
Q 1550 3584 1831 3584 
Q 2591 3584 2966 3190 
Q 3341 2797 3341 1997 
z
" transform="scale(0.015625)"/>
       <path id="DejaVuSans-79" d="M 2059 -325 
Q 1816 -950 1584 -1140 
Q 1353 -1331 966 -1331 
L 506 -1331 
L 506 -850 
L 844 -850 
Q 1081 -850 1212 -737 
Q 1344 -625 1503 -206 
L 1606 56 
L 191 3500 
L 800 3500 
L 1894 763 
L 2988 3500 
L 3597 3500 
L 2059 -325 
z
" transform="scale(0.015625)"/>
       <path id="DejaVuSans-20" transform="scale(0.015625)"/>
       <path id="DejaVuSans-28" d="M 1984 4856 
Q 1566 4138 1362 3434 
Q 1159 2731 1159 2009 
Q 1159 1288 1364 580 
Q 1569 -128 1984 -844 
L 1484 -844 
Q 1016 -109 783 600 
Q 550 1309 550 2009 
Q 550 2706 781 3412 
Q 1013 4119 1484 4856 
L 1984 4856 
z
" transform="scale(0.015625)"/>
       <path id="DejaVuSans-304" d="M -2518 4769 
L -650 4769 
L -650 4306 
L -2518 4306 
L -2518 4769 
z
" transform="scale(0.015625)"/>
       <path id="DejaVuSans-Oblique-78" d="M 3841 3500 
L 2234 1784 
L 3219 0 
L 2559 0 
L 1819 1388 
L 531 0 
L -166 0 
L 1556 1844 
L 641 3500 
L 1300 3500 
L 1972 2234 
L 3144 3500 
L 3841 3500 
z
" transform="scale(0.015625)"/>
       <path id="DejaVuSans-b1" d="M 2944 4013 
L 2944 2803 
L 4684 2803 
L 4684 2272 
L 2944 2272 
L 2944 1063 
L 2419 1063 
L 2419 2272 
L 678 2272 
L 678 2803 
L 2419 2803 
L 2419 4013 
L 2944 4013 
z
M 678 531 
L 4684 531 
L 4684 0 
L 678 0 
L 678 531 
z
" transform="scale(0.015625)"/>
       <path id="DejaVuSans-Oblique-73" d="M 3200 3397 
L 3091 2853 
Q 2863 2978 2609 3040 
Q 2356 3103 2088 3103 
Q 1634 3103 1373 2948 
Q 1113 2794 1113 2528 
Q 1113 2219 1719 2053 
Q 1766 2041 1788 2034 
L 1972 1978 
Q 2547 1819 2739 1644 
Q 2931 1469 2931 1166 
Q 2931 609 2489 259 
Q 2047 -91 1331 -91 
Q 1053 -91 747 -37 
Q 441 16 72 128 
L 184 722 
Q 500 559 806 475 
Q 1113 391 1394 391 
Q 1816 391 2080 572 
Q 2344 753 2344 1031 
Q 2344 1331 1650 1516 
L 1591 1531 
L 1394 1581 
Q 956 1697 753 1886 
Q 550 2075 550 2369 
Q 550 2928 970 3256 
Q 1391 3584 2113 3584 
Q 2397 3584 2667 3537 
Q 2938 3491 3200 3397 
z
" transform="scale(0.015625)"/>
       <path id="DejaVuSans-f7" d="M 2297 3547 
L 3066 3547 
L 3066 2778 
L 2297 2778 
L 2297 3547 
z
M 2297 1234 
L 3066 1234 
L 3066 469 
L 2297 469 
L 2297 1234 
z
M 678 2272 
L 4684 2272 
L 4684 1741 
L 678 1741 
L 678 2272 
z
" transform="scale(0.015625)"/>
       <path id="STIXSizeOneSym-Regular-221a" d="M 6970 9933 
L 3373 -1888 
L 3104 -1888 
L 1626 2918 
Q 1555 3149 1465 3251 
Q 1376 3354 1229 3354 
Q 1011 3354 794 3181 
L 717 3309 
L 1766 4115 
L 1926 4115 
L 3379 -602 
L 3405 -602 
L 6605 9933 
L 6970 9933 
z
" transform="scale(0.015625)"/>
       <path id="DejaVuSans-Oblique-4e" d="M 1081 4666 
L 1931 4666 
L 3219 666 
L 4000 4666 
L 4616 4666 
L 3706 0 
L 2853 0 
L 1569 4025 
L 788 0 
L 172 0 
L 1081 4666 
z
" transform="scale(0.015625)"/>
       <path id="DejaVuSans-29" d="M 513 4856 
L 1013 4856 
Q 1481 4119 1714 3412 
Q 1947 2706 1947 2009 
Q 1947 1309 1714 600 
Q 1481 -109 1013 -844 
L 513 -844 
Q 928 -128 1133 580 
Q 1338 1288 1338 2009 
Q 1338 2731 1133 3434 
Q 928 4138 513 4856 
z
" transform="scale(0.015625)"/>
      </defs>
      <use xlink:href="#DejaVuSans-41" transform="translate(0 0.578125)"/>
      <use xlink:href="#DejaVuSans-63" transform="translate(68.408203 0.578125)"/>
      <use xlink:href="#DejaVuSans-63" transform="translate(123.388672 0.578125)"/>
      <use xlink:href="#DejaVuSans-75" transform="translate(178.369141 0.578125)"/>
      <use xlink:href="#DejaVuSans-72" transform="translate(241.748047 0.578125)"/>
      <use xlink:href="#DejaVuSans-61" transform="translate(282.861328 0.578125)"/>
      <use xlink:href="#DejaVuSans-63" transform="translate(344.140625 0.578125)"/>
      <use xlink:href="#DejaVuSans-79" transform="translate(399.121094 0.578125)"/>
      <use xlink:href="#DejaVuSans-20" transform="translate(458.300781 0.578125)"/>
      <use xlink:href="#DejaVuSans-28" transform="translate(490.087891 0.578125)"/>
      <use xlink:href="#DejaVuSans-304" transform="translate(591.240234 0.484375)"/>
      <use xlink:href="#DejaVuSans-Oblique-78" transform="translate(529.101562 0.578125)"/>
      <use xlink:href="#DejaVuSans-b1" transform="translate(607.763672 0.578125)"/>
      <use xlink:href="#DejaVuSans-Oblique-73" transform="translate(711.035156 0.578125)"/>
      <use xlink:href="#DejaVuSans-f7" transform="translate(782.617188 0.578125)"/>
      <use xlink:href="#STIXSizeOneSym-Regular-221a" transform="translate(885.888672 17.09375)scale(0.563912)"/>
      <use xlink:href="#DejaVuSans-Oblique-4e" transform="translate(957.977036 0.84375)"/>
      <use xlink:href="#DejaVuSans-29" transform="translate(1045.281723 0.578125)"/>
      <path d="M 945.477036 97.5 
L 945.477036 103.75 
L 1045.281723 103.75 
L 1045.281723 97.5 
L 945.477036 97.5 
z
"/>
     </g>
    </g>
   </g>
   <g id="line2d_25">
    <path d="M 57.681818 395.272226 
L 62.65508 298.011147 
L 67.628342 253.405203 
L 72.601604 226.57456 
L 77.574866 208.128494 
L 82.548128 196.390087 
L 87.52139 187.334746 
L 92.494652 177.608638 
L 97.467914 176.602488 
L 102.441176 173.919424 
L 107.414439 171.571743 
L 112.387701 165.870231 
L 117.360963 163.857933 
L 122.334225 157.485656 
L 127.307487 156.144123 
L 132.280749 156.479506 
L 137.254011 153.461059 
L 142.227273 158.491805 
L 147.200535 155.137974 
L 152.173797 151.784144 
L 157.147059 152.45491 
L 162.120321 153.796442 
L 167.093583 152.790293 
L 172.066845 150.442612 
L 177.040107 147.088781 
L 182.013369 148.430314 
L 186.986631 144.7411 
L 191.959893 145.411866 
L 196.933155 142.058036 
L 201.906417 148.094931 
L 206.879679 144.070334 
L 211.852941 144.7411 
L 216.826203 146.418015 
L 221.799465 144.070334 
" clip-path="url(#p0c0efe0af6)" style="fill: none; stroke: #1f77b4; stroke-width: 1.5; stroke-linecap: square"/>
   </g>
   <g id="line2d_26">
    <path d="M 57.681818 322.494108 
L 62.65508 229.593008 
L 67.628342 193.707023 
L 72.601604 168.553296 
L 77.574866 159.162571 
L 82.548128 151.784144 
L 87.52139 138.03344 
L 92.494652 126.295033 
L 97.467914 124.953501 
L 102.441176 121.935054 
L 107.414439 123.276586 
L 112.387701 115.227393 
L 117.360963 114.89201 
L 122.334225 110.196648 
L 127.307487 109.861265 
L 132.280749 110.532031 
L 137.254011 106.507434 
L 142.227273 102.147455 
L 147.200535 103.488987 
L 152.173797 99.799774 
L 157.147059 98.122859 
L 162.120321 102.482838 
L 167.093583 98.458242 
L 172.066845 98.793625 
L 177.040107 99.129008 
L 182.013369 98.793625 
L 186.986631 94.098262 
L 191.959893 96.781326 
L 196.933155 94.098262 
L 201.906417 92.75673 
L 206.879679 95.439794 
L 211.852941 94.098262 
L 216.826203 95.104411 
L 221.799465 95.104411 
L 226.772727 93.427496 
" clip-path="url(#p0c0efe0af6)" style="fill: none; stroke: #ff7f0e; stroke-width: 1.5; stroke-linecap: square"/>
   </g>
   <g id="line2d_27">
    <path d="M 60.67733 433 
L 62.65508 380.850756 
L 67.628342 338.592494 
L 72.601604 316.457213 
L 77.574866 305.724956 
L 82.548128 285.266591 
L 87.52139 280.571229 
L 92.494652 265.478992 
L 97.467914 264.808226 
L 102.441176 259.777481 
L 107.414439 251.392905 
L 112.387701 251.057522 
L 117.360963 248.039075 
L 122.334225 240.660648 
L 127.307487 239.319116 
L 132.280749 229.257625 
L 137.254011 235.965285 
L 142.227273 232.276072 
L 147.200535 232.276072 
L 152.173797 230.93454 
L 157.147059 234.28837 
L 162.120321 231.940689 
L 167.093583 228.251476 
L 172.066845 226.57456 
L 177.040107 226.57456 
L 182.013369 220.537666 
L 186.986631 225.568411 
L 191.959893 219.531517 
L 196.933155 219.196134 
L 201.906417 226.57456 
L 206.879679 220.873049 
L 211.852941 220.202283 
" clip-path="url(#p0c0efe0af6)" style="fill: none; stroke: #2ca02c; stroke-width: 1.5; stroke-linecap: square"/>
   </g>
   <g id="line2d_28">
    <path d="M 57.681818 369.783116 
L 62.65508 269.168206 
L 67.628342 229.928391 
L 72.601604 208.128494 
L 77.574866 190.353193 
L 82.548128 178.614787 
L 87.52139 173.919424 
L 92.494652 165.199465 
L 97.467914 155.80874 
L 102.441176 154.802591 
L 107.414439 152.790293 
L 112.387701 146.418015 
L 117.360963 149.10108 
L 122.334225 148.430314 
L 127.307487 142.058036 
L 132.280749 141.38727 
L 137.254011 143.064185 
L 142.227273 136.691907 
L 147.200535 140.716504 
L 152.173797 142.058036 
L 157.147059 137.698057 
L 162.120321 140.045738 
L 167.093583 132.331928 
L 172.066845 132.331928 
L 177.040107 130.31963 
L 182.013369 136.021141 
L 186.986631 128.978098 
" clip-path="url(#p0c0efe0af6)" style="fill: none; stroke: #d62728; stroke-width: 1.5; stroke-linecap: square"/>
   </g>
   <g id="line2d_29">
    <path d="M 57.681818 352.343198 
L 62.65508 297.675763 
L 67.628342 274.869717 
L 72.601604 260.78363 
L 77.574866 255.417501 
L 82.548128 246.362159 
L 87.52139 251.392905 
L 92.494652 246.026776 
L 97.467914 241.331414 
L 102.441176 234.623753 
L 107.414439 234.959136 
L 112.387701 230.263774 
L 117.360963 231.269923 
L 122.334225 231.269923 
L 127.307487 226.239177 
L 132.280749 229.928391 
L 137.254011 228.922242 
L 142.227273 221.208432 
L 147.200535 227.916093 
L 152.173797 222.214581 
L 157.147059 223.22073 
" clip-path="url(#p0c0efe0af6)" style="fill: none; stroke-dasharray: 5.55,2.4; stroke-dashoffset: 0; stroke: #9467bd; stroke-width: 1.5"/>
   </g>
   <g id="line2d_30">
    <path d="M 57.681818 361.063157 
L 62.65508 282.248144 
L 67.628342 256.088267 
L 72.601604 240.325265 
L 77.574866 222.885347 
L 82.548128 211.817707 
L 87.52139 206.451578 
L 92.494652 201.420833 
L 97.467914 196.390087 
L 102.441176 198.737769 
L 107.414439 186.328596 
L 112.387701 184.651681 
L 117.360963 181.297851 
L 122.334225 184.651681 
L 127.307487 178.95017 
L 132.280749 180.962468 
L 137.254011 172.913275 
L 142.227273 178.279404 
L 147.200535 173.584041 
L 152.173797 170.230211 
L 157.147059 182.974766 
L 162.120321 164.193316 
L 167.093583 173.248658 
L 172.066845 172.913275 
L 177.040107 174.254807 
L 182.013369 172.913275 
L 186.986631 167.88253 
L 191.959893 171.23636 
L 196.933155 166.205614 
L 201.906417 166.205614 
L 206.879679 163.857933 
" clip-path="url(#p0c0efe0af6)" style="fill: none; stroke-dasharray: 5.55,2.4; stroke-dashoffset: 0; stroke: #8c564b; stroke-width: 1.5"/>
   </g>
   <g id="line2d_31">
    <path d="M 57.681818 419.419805 
L 62.65508 369.11235 
L 67.628342 339.26326 
L 72.601604 320.817193 
L 77.574866 305.389573 
L 82.548128 293.98655 
L 87.52139 285.266591 
L 92.494652 277.552781 
L 97.467914 277.552781 
L 102.441176 272.186653 
L 107.414439 264.13746 
L 112.387701 263.466694 
L 117.360963 256.42365 
L 122.334225 254.746735 
L 127.307487 249.045224 
L 132.280749 245.020627 
L 137.254011 245.691393 
L 142.227273 247.032925 
L 147.200535 239.989882 
L 152.173797 240.996031 
L 157.147059 234.959136 
L 162.120321 237.306817 
L 167.093583 232.611455 
L 172.066845 235.294519 
L 177.040107 235.294519 
L 182.013369 229.593008 
L 186.986631 232.276072 
L 191.959893 229.257625 
L 196.933155 230.599157 
L 201.906417 228.586859 
L 206.879679 228.922242 
L 211.852941 229.928391 
L 216.826203 230.263774 
L 221.799465 225.903794 
" clip-path="url(#p0c0efe0af6)" style="fill: none; stroke-dasharray: 5.55,2.4; stroke-dashoffset: 0; stroke: #e377c2; stroke-width: 1.5"/>
   </g>
   <g id="line2d_32">
    <path d="M 57.681818 431.158211 
L 62.65508 326.854087 
L 67.628342 274.198951 
L 72.601604 241.331414 
L 77.574866 220.537666 
L 82.548128 208.128494 
L 87.52139 195.048555 
L 92.494652 194.713172 
L 97.467914 187.334746 
L 102.441176 178.614787 
L 107.414439 174.59019 
L 112.387701 169.894828 
L 117.360963 170.900977 
L 122.334225 162.181018 
L 127.307487 160.16872 
L 132.280749 158.827188 
L 137.254011 153.125676 
L 142.227273 156.144123 
L 147.200535 147.088781 
L 152.173797 146.418015 
L 157.147059 142.058036 
L 162.120321 142.728802 
L 167.093583 140.716504 
L 172.066845 139.710355 
L 177.040107 140.381121 
L 182.013369 140.381121 
L 186.986631 140.045738 
L 191.959893 133.002694 
L 196.933155 133.338077 
L 201.906417 135.350375 
L 206.879679 131.661162 
L 211.852941 132.667311 
L 216.826203 129.313481 
L 221.799465 128.978098 
L 226.772727 129.984247 
L 231.745989 127.971949 
L 236.719251 130.990396 
L 241.692513 129.313481 
L 246.665775 128.307332 
L 251.639037 128.642715 
L 256.612299 124.953501 
L 261.585561 122.270437 
L 266.558824 120.593522 
L 271.532086 124.282735 
L 276.505348 123.611969 
L 281.47861 120.258139 
L 286.451872 120.258139 
L 291.425134 122.60582 
L 296.398396 122.60582 
L 301.371658 119.25199 
L 306.34492 118.581224 
L 311.318182 119.25199 
" clip-path="url(#p0c0efe0af6)" style="fill: none; stroke-dasharray: 5.55,2.4; stroke-dashoffset: 0; stroke: #7f7f7f; stroke-width: 1.5"/>
   </g>
   <g id="patch_3">
    <path d="M 45 378 
L 45 51.84 
" style="fill: none; stroke: #000000; stroke-width: 0.8; stroke-linejoin: miter; stroke-linecap: square"/>
   </g>
   <g id="patch_4">
    <path d="M 324 378 
L 324 51.84 
" style="fill: none; stroke: #000000; stroke-width: 0.8; stroke-linejoin: miter; stroke-linecap: square"/>
   </g>
   <g id="patch_5">
    <path d="M 45 378 
L 324 378 
" style="fill: none; stroke: #000000; stroke-width: 0.8; stroke-linejoin: miter; stroke-linecap: square"/>
   </g>
   <g id="patch_6">
    <path d="M 45 51.84 
L 324 51.84 
" style="fill: none; stroke: #000000; stroke-width: 0.8; stroke-linejoin: miter; stroke-linecap: square"/>
   </g>
   <g id="legend_1">
    <g id="patch_7">
     <path d="M 200.907812 373 
L 317 373 
Q 319 373 319 371 
L 319 252.90625 
Q 319 250.90625 317 250.90625 
L 200.907812 250.90625 
Q 198.907812 250.90625 198.907812 252.90625 
L 198.907812 371 
Q 198.907812 373 200.907812 373 
z
" style="fill: #ffffff; opacity: 0.8; stroke: #cccccc; stroke-linejoin: miter"/>
    </g>
    <g id="line2d_33">
     <path d="M 202.907812 259.004687 
L 212.907812 259.004687 
L 222.907812 259.004687 
" style="fill: none; stroke: #1f77b4; stroke-width: 1.5; stroke-linecap: square"/>
    </g>
    <g id="text_15">
     <!-- vit_b_16 -->
     <g transform="translate(230.907812 262.504687)scale(0.1 -0.1)">
      <defs>
       <path id="DejaVuSans-76" d="M 191 3500 
L 800 3500 
L 1894 563 
L 2988 3500 
L 3597 3500 
L 2284 0 
L 1503 0 
L 191 3500 
z
" transform="scale(0.015625)"/>
       <path id="DejaVuSans-69" d="M 603 3500 
L 1178 3500 
L 1178 0 
L 603 0 
L 603 3500 
z
M 603 4863 
L 1178 4863 
L 1178 4134 
L 603 4134 
L 603 4863 
z
" transform="scale(0.015625)"/>
       <path id="DejaVuSans-74" d="M 1172 4494 
L 1172 3500 
L 2356 3500 
L 2356 3053 
L 1172 3053 
L 1172 1153 
Q 1172 725 1289 603 
Q 1406 481 1766 481 
L 2356 481 
L 2356 0 
L 1766 0 
Q 1100 0 847 248 
Q 594 497 594 1153 
L 594 3053 
L 172 3053 
L 172 3500 
L 594 3500 
L 594 4494 
L 1172 4494 
z
" transform="scale(0.015625)"/>
       <path id="DejaVuSans-5f" d="M 3263 -1063 
L 3263 -1509 
L -63 -1509 
L -63 -1063 
L 3263 -1063 
z
" transform="scale(0.015625)"/>
       <path id="DejaVuSans-62" d="M 3116 1747 
Q 3116 2381 2855 2742 
Q 2594 3103 2138 3103 
Q 1681 3103 1420 2742 
Q 1159 2381 1159 1747 
Q 1159 1113 1420 752 
Q 1681 391 2138 391 
Q 2594 391 2855 752 
Q 3116 1113 3116 1747 
z
M 1159 2969 
Q 1341 3281 1617 3432 
Q 1894 3584 2278 3584 
Q 2916 3584 3314 3078 
Q 3713 2572 3713 1747 
Q 3713 922 3314 415 
Q 2916 -91 2278 -91 
Q 1894 -91 1617 61 
Q 1341 213 1159 525 
L 1159 0 
L 581 0 
L 581 4863 
L 1159 4863 
L 1159 2969 
z
" transform="scale(0.015625)"/>
      </defs>
      <use xlink:href="#DejaVuSans-76"/>
      <use xlink:href="#DejaVuSans-69" x="59.179688"/>
      <use xlink:href="#DejaVuSans-74" x="86.962891"/>
      <use xlink:href="#DejaVuSans-5f" x="126.171875"/>
      <use xlink:href="#DejaVuSans-62" x="176.171875"/>
      <use xlink:href="#DejaVuSans-5f" x="239.648438"/>
      <use xlink:href="#DejaVuSans-31" x="289.648438"/>
      <use xlink:href="#DejaVuSans-36" x="353.271484"/>
     </g>
    </g>
    <g id="line2d_34">
     <path d="M 202.907812 273.960938 
L 212.907812 273.960938 
L 222.907812 273.960938 
" style="fill: none; stroke: #ff7f0e; stroke-width: 1.5; stroke-linecap: square"/>
    </g>
    <g id="text_16">
     <!-- swin_b -->
     <g transform="translate(230.907812 277.460938)scale(0.1 -0.1)">
      <defs>
       <path id="DejaVuSans-77" d="M 269 3500 
L 844 3500 
L 1563 769 
L 2278 3500 
L 2956 3500 
L 3675 769 
L 4391 3500 
L 4966 3500 
L 4050 0 
L 3372 0 
L 2619 2869 
L 1863 0 
L 1184 0 
L 269 3500 
z
" transform="scale(0.015625)"/>
       <path id="DejaVuSans-6e" d="M 3513 2113 
L 3513 0 
L 2938 0 
L 2938 2094 
Q 2938 2591 2744 2837 
Q 2550 3084 2163 3084 
Q 1697 3084 1428 2787 
Q 1159 2491 1159 1978 
L 1159 0 
L 581 0 
L 581 3500 
L 1159 3500 
L 1159 2956 
Q 1366 3272 1645 3428 
Q 1925 3584 2291 3584 
Q 2894 3584 3203 3211 
Q 3513 2838 3513 2113 
z
" transform="scale(0.015625)"/>
      </defs>
      <use xlink:href="#DejaVuSans-73"/>
      <use xlink:href="#DejaVuSans-77" x="52.099609"/>
      <use xlink:href="#DejaVuSans-69" x="133.886719"/>
      <use xlink:href="#DejaVuSans-6e" x="161.669922"/>
      <use xlink:href="#DejaVuSans-5f" x="225.048828"/>
      <use xlink:href="#DejaVuSans-62" x="275.048828"/>
     </g>
    </g>
    <g id="line2d_35">
     <path d="M 202.907812 288.917188 
L 212.907812 288.917188 
L 222.907812 288.917188 
" style="fill: none; stroke: #2ca02c; stroke-width: 1.5; stroke-linecap: square"/>
    </g>
    <g id="text_17">
     <!-- beit_b_16 -->
     <g transform="translate(230.907812 292.417188)scale(0.1 -0.1)">
      <defs>
       <path id="DejaVuSans-65" d="M 3597 1894 
L 3597 1613 
L 953 1613 
Q 991 1019 1311 708 
Q 1631 397 2203 397 
Q 2534 397 2845 478 
Q 3156 559 3463 722 
L 3463 178 
Q 3153 47 2828 -22 
Q 2503 -91 2169 -91 
Q 1331 -91 842 396 
Q 353 884 353 1716 
Q 353 2575 817 3079 
Q 1281 3584 2069 3584 
Q 2775 3584 3186 3129 
Q 3597 2675 3597 1894 
z
M 3022 2063 
Q 3016 2534 2758 2815 
Q 2500 3097 2075 3097 
Q 1594 3097 1305 2825 
Q 1016 2553 972 2059 
L 3022 2063 
z
" transform="scale(0.015625)"/>
      </defs>
      <use xlink:href="#DejaVuSans-62"/>
      <use xlink:href="#DejaVuSans-65" x="63.476562"/>
      <use xlink:href="#DejaVuSans-69" x="125"/>
      <use xlink:href="#DejaVuSans-74" x="152.783203"/>
      <use xlink:href="#DejaVuSans-5f" x="191.992188"/>
      <use xlink:href="#DejaVuSans-62" x="241.992188"/>
      <use xlink:href="#DejaVuSans-5f" x="305.46875"/>
      <use xlink:href="#DejaVuSans-31" x="355.46875"/>
      <use xlink:href="#DejaVuSans-36" x="419.091797"/>
     </g>
    </g>
    <g id="line2d_36">
     <path d="M 202.907812 303.873438 
L 212.907812 303.873438 
L 222.907812 303.873438 
" style="fill: none; stroke: #d62728; stroke-width: 1.5; stroke-linecap: square"/>
    </g>
    <g id="text_18">
     <!-- deit_b_16 -->
     <g transform="translate(230.907812 307.373438)scale(0.1 -0.1)">
      <defs>
       <path id="DejaVuSans-64" d="M 2906 2969 
L 2906 4863 
L 3481 4863 
L 3481 0 
L 2906 0 
L 2906 525 
Q 2725 213 2448 61 
Q 2172 -91 1784 -91 
Q 1150 -91 751 415 
Q 353 922 353 1747 
Q 353 2572 751 3078 
Q 1150 3584 1784 3584 
Q 2172 3584 2448 3432 
Q 2725 3281 2906 2969 
z
M 947 1747 
Q 947 1113 1208 752 
Q 1469 391 1925 391 
Q 2381 391 2643 752 
Q 2906 1113 2906 1747 
Q 2906 2381 2643 2742 
Q 2381 3103 1925 3103 
Q 1469 3103 1208 2742 
Q 947 2381 947 1747 
z
" transform="scale(0.015625)"/>
      </defs>
      <use xlink:href="#DejaVuSans-64"/>
      <use xlink:href="#DejaVuSans-65" x="63.476562"/>
      <use xlink:href="#DejaVuSans-69" x="125"/>
      <use xlink:href="#DejaVuSans-74" x="152.783203"/>
      <use xlink:href="#DejaVuSans-5f" x="191.992188"/>
      <use xlink:href="#DejaVuSans-62" x="241.992188"/>
      <use xlink:href="#DejaVuSans-5f" x="305.46875"/>
      <use xlink:href="#DejaVuSans-31" x="355.46875"/>
      <use xlink:href="#DejaVuSans-36" x="419.091797"/>
     </g>
    </g>
    <g id="line2d_37">
     <path d="M 202.907812 318.829687 
L 212.907812 318.829687 
L 222.907812 318.829687 
" style="fill: none; stroke-dasharray: 5.55,2.4; stroke-dashoffset: 0; stroke: #9467bd; stroke-width: 1.5"/>
    </g>
    <g id="text_19">
     <!-- vgg19 -->
     <g transform="translate(230.907812 322.329687)scale(0.1 -0.1)">
      <defs>
       <path id="DejaVuSans-67" d="M 2906 1791 
Q 2906 2416 2648 2759 
Q 2391 3103 1925 3103 
Q 1463 3103 1205 2759 
Q 947 2416 947 1791 
Q 947 1169 1205 825 
Q 1463 481 1925 481 
Q 2391 481 2648 825 
Q 2906 1169 2906 1791 
z
M 3481 434 
Q 3481 -459 3084 -895 
Q 2688 -1331 1869 -1331 
Q 1566 -1331 1297 -1286 
Q 1028 -1241 775 -1147 
L 775 -588 
Q 1028 -725 1275 -790 
Q 1522 -856 1778 -856 
Q 2344 -856 2625 -561 
Q 2906 -266 2906 331 
L 2906 616 
Q 2728 306 2450 153 
Q 2172 0 1784 0 
Q 1141 0 747 490 
Q 353 981 353 1791 
Q 353 2603 747 3093 
Q 1141 3584 1784 3584 
Q 2172 3584 2450 3431 
Q 2728 3278 2906 2969 
L 2906 3500 
L 3481 3500 
L 3481 434 
z
" transform="scale(0.015625)"/>
      </defs>
      <use xlink:href="#DejaVuSans-76"/>
      <use xlink:href="#DejaVuSans-67" x="59.179688"/>
      <use xlink:href="#DejaVuSans-67" x="122.65625"/>
      <use xlink:href="#DejaVuSans-31" x="186.132812"/>
      <use xlink:href="#DejaVuSans-39" x="249.755859"/>
     </g>
    </g>
    <g id="line2d_38">
     <path d="M 202.907812 333.507812 
L 212.907812 333.507812 
L 222.907812 333.507812 
" style="fill: none; stroke-dasharray: 5.55,2.4; stroke-dashoffset: 0; stroke: #8c564b; stroke-width: 1.5"/>
    </g>
    <g id="text_20">
     <!-- resnet50 -->
     <g transform="translate(230.907812 337.007812)scale(0.1 -0.1)">
      <use xlink:href="#DejaVuSans-72"/>
      <use xlink:href="#DejaVuSans-65" x="38.863281"/>
      <use xlink:href="#DejaVuSans-73" x="100.386719"/>
      <use xlink:href="#DejaVuSans-6e" x="152.486328"/>
      <use xlink:href="#DejaVuSans-65" x="215.865234"/>
      <use xlink:href="#DejaVuSans-74" x="277.388672"/>
      <use xlink:href="#DejaVuSans-35" x="316.597656"/>
      <use xlink:href="#DejaVuSans-30" x="380.220703"/>
     </g>
    </g>
    <g id="line2d_39">
     <path d="M 202.907812 348.185938 
L 212.907812 348.185938 
L 222.907812 348.185938 
" style="fill: none; stroke-dasharray: 5.55,2.4; stroke-dashoffset: 0; stroke: #e377c2; stroke-width: 1.5"/>
    </g>
    <g id="text_21">
     <!-- efficientnetv2_m -->
     <g transform="translate(230.907812 351.685938)scale(0.1 -0.1)">
      <defs>
       <path id="DejaVuSans-66" d="M 2375 4863 
L 2375 4384 
L 1825 4384 
Q 1516 4384 1395 4259 
Q 1275 4134 1275 3809 
L 1275 3500 
L 2222 3500 
L 2222 3053 
L 1275 3053 
L 1275 0 
L 697 0 
L 697 3053 
L 147 3053 
L 147 3500 
L 697 3500 
L 697 3744 
Q 697 4328 969 4595 
Q 1241 4863 1831 4863 
L 2375 4863 
z
" transform="scale(0.015625)"/>
       <path id="DejaVuSans-6d" d="M 3328 2828 
Q 3544 3216 3844 3400 
Q 4144 3584 4550 3584 
Q 5097 3584 5394 3201 
Q 5691 2819 5691 2113 
L 5691 0 
L 5113 0 
L 5113 2094 
Q 5113 2597 4934 2840 
Q 4756 3084 4391 3084 
Q 3944 3084 3684 2787 
Q 3425 2491 3425 1978 
L 3425 0 
L 2847 0 
L 2847 2094 
Q 2847 2600 2669 2842 
Q 2491 3084 2119 3084 
Q 1678 3084 1418 2786 
Q 1159 2488 1159 1978 
L 1159 0 
L 581 0 
L 581 3500 
L 1159 3500 
L 1159 2956 
Q 1356 3278 1631 3431 
Q 1906 3584 2284 3584 
Q 2666 3584 2933 3390 
Q 3200 3197 3328 2828 
z
" transform="scale(0.015625)"/>
      </defs>
      <use xlink:href="#DejaVuSans-65"/>
      <use xlink:href="#DejaVuSans-66" x="61.523438"/>
      <use xlink:href="#DejaVuSans-66" x="96.728516"/>
      <use xlink:href="#DejaVuSans-69" x="131.933594"/>
      <use xlink:href="#DejaVuSans-63" x="159.716797"/>
      <use xlink:href="#DejaVuSans-69" x="214.697266"/>
      <use xlink:href="#DejaVuSans-65" x="242.480469"/>
      <use xlink:href="#DejaVuSans-6e" x="304.003906"/>
      <use xlink:href="#DejaVuSans-74" x="367.382812"/>
      <use xlink:href="#DejaVuSans-6e" x="406.591797"/>
      <use xlink:href="#DejaVuSans-65" x="469.970703"/>
      <use xlink:href="#DejaVuSans-74" x="531.494141"/>
      <use xlink:href="#DejaVuSans-76" x="570.703125"/>
      <use xlink:href="#DejaVuSans-32" x="629.882812"/>
      <use xlink:href="#DejaVuSans-5f" x="693.505859"/>
      <use xlink:href="#DejaVuSans-6d" x="743.505859"/>
     </g>
    </g>
    <g id="line2d_40">
     <path d="M 202.907812 363.142187 
L 212.907812 363.142187 
L 222.907812 363.142187 
" style="fill: none; stroke-dasharray: 5.55,2.4; stroke-dashoffset: 0; stroke: #7f7f7f; stroke-width: 1.5"/>
    </g>
    <g id="text_22">
     <!-- convnext_b -->
     <g transform="translate(230.907812 366.642187)scale(0.1 -0.1)">
      <defs>
       <path id="DejaVuSans-78" d="M 3513 3500 
L 2247 1797 
L 3578 0 
L 2900 0 
L 1881 1375 
L 863 0 
L 184 0 
L 1544 1831 
L 300 3500 
L 978 3500 
L 1906 2253 
L 2834 3500 
L 3513 3500 
z
" transform="scale(0.015625)"/>
      </defs>
      <use xlink:href="#DejaVuSans-63"/>
      <use xlink:href="#DejaVuSans-6f" x="54.980469"/>
      <use xlink:href="#DejaVuSans-6e" x="116.162109"/>
      <use xlink:href="#DejaVuSans-76" x="179.541016"/>
      <use xlink:href="#DejaVuSans-6e" x="238.720703"/>
      <use xlink:href="#DejaVuSans-65" x="302.099609"/>
      <use xlink:href="#DejaVuSans-78" x="361.873047"/>
      <use xlink:href="#DejaVuSans-74" x="421.052734"/>
      <use xlink:href="#DejaVuSans-5f" x="460.261719"/>
      <use xlink:href="#DejaVuSans-62" x="510.261719"/>
     </g>
    </g>
   </g>
  </g>
 </g>
 <defs>
  <clipPath id="p0c0efe0af6">
   <rect x="45" y="51.84" width="279" height="326.16"/>
  </clipPath>
 </defs>
</svg>
