<?xml version="1.0" encoding="utf-8" standalone="no"?>
<!DOCTYPE svg PUBLIC "-//W3C//DTD SVG 1.1//EN"
  "http://www.w3.org/Graphics/SVG/1.1/DTD/svg11.dtd">
<svg xmlns:xlink="http://www.w3.org/1999/xlink" width="360pt" height="432pt" viewBox="0 0 360 432" xmlns="http://www.w3.org/2000/svg" version="1.1">
 <metadata>
  <rdf:RDF xmlns:dc="http://purl.org/dc/elements/1.1/" xmlns:cc="http://creativecommons.org/ns#" xmlns:rdf="http://www.w3.org/1999/02/22-rdf-syntax-ns#">
   <cc:Work>
    <dc:type rdf:resource="http://purl.org/dc/dcmitype/StillImage"/>
    <dc:date>2022-05-19T11:19:20.386597</dc:date>
    <dc:format>image/svg+xml</dc:format>
    <dc:creator>
     <cc:Agent>
      <dc:title>Matplotlib v3.5.2, https://matplotlib.org/</dc:title>
     </cc:Agent>
    </dc:creator>
   </cc:Work>
  </rdf:RDF>
 </metadata>
 <defs>
  <style type="text/css">*{stroke-linejoin: round; stroke-linecap: butt}</style>
 </defs>
 <g id="figure_1">
  <g id="patch_1">
   <path d="M 0 432 
L 360 432 
L 360 0 
L 0 0 
L 0 432 
z
" style="fill: none"/>
  </g>
  <g id="axes_1">
   <g id="patch_2">
    <path d="M 45 378 
L 324 378 
L 324 51.84 
L 45 51.84 
z
" style="fill: #ffffff"/>
   </g>
   <g id="PolyCollection_1">
    <path d="M 57.681818 -1.487692 
L 57.681818 8.899536 
L 62.65508 137.018956 
L 67.628342 189.25562 
L 72.601604 217.871388 
L 77.574866 237.126057 
L 82.548128 251.045811 
L 87.52139 261.010589 
L 92.494652 269.123846 
L 97.467914 274.970659 
L 102.441176 279.96595 
L 107.414439 283.987283 
L 112.387701 287.208273 
L 117.360963 290.232602 
L 122.334225 292.594579 
L 127.307487 294.626576 
L 132.280749 295.715663 
L 137.254011 297.671096 
L 142.227273 298.781706 
L 147.200535 300.366316 
L 152.173797 300.663143 
L 157.147059 301.963018 
L 162.120321 302.654848 
L 167.093583 302.654322 
L 172.066845 303.354569 
L 177.040107 303.34416 
L 182.013369 303.65886 
L 186.986631 304.353392 
L 191.959893 304.113294 
L 196.933155 303.983046 
L 201.906417 303.839399 
L 206.879679 303.910529 
L 211.852941 303.584553 
L 216.826203 303.529131 
L 221.799465 303.286172 
L 221.799465 292.142618 
L 221.799465 292.142618 
L 216.826203 292.611853 
L 211.852941 292.667094 
L 206.879679 292.500406 
L 201.906417 292.723809 
L 196.933155 292.765283 
L 191.959893 292.755557 
L 186.986631 292.704373 
L 182.013369 292.413702 
L 177.040107 292.331329 
L 172.066845 291.394226 
L 167.093583 291.518138 
L 162.120321 291.024364 
L 157.147059 290.044707 
L 152.173797 289.196911 
L 147.200535 288.247514 
L 142.227273 286.496005 
L 137.254011 285.479315 
L 132.280749 284.19305 
L 127.307487 282.472362 
L 122.334225 280.32425 
L 117.360963 277.627101 
L 112.387701 274.186887 
L 107.414439 270.839435 
L 102.441176 266.900792 
L 97.467914 261.9599 
L 92.494652 255.256513 
L 87.52139 247.129802 
L 82.548128 236.388396 
L 77.574866 222.83383 
L 72.601604 203.527123 
L 67.628342 174.653371 
L 62.65508 123.673631 
L 57.681818 -1.487692 
z
" clip-path="url(#pc928dfb613)" style="fill: #1f77b4; fill-opacity: 0.2"/>
   </g>
   <g id="PolyCollection_2">
    <path d="M 57.681818 75.969252 
L 57.681818 90.235545 
L 62.65508 207.935826 
L 67.628342 252.536681 
L 72.601604 274.966776 
L 77.574866 290.146476 
L 82.548128 301.493968 
L 87.52139 309.930779 
L 92.494652 315.145429 
L 97.467914 321.306651 
L 102.441176 324.940983 
L 107.414439 328.663882 
L 112.387701 331.349147 
L 117.360963 333.775013 
L 122.334225 336.181935 
L 127.307487 337.50358 
L 132.280749 339.245153 
L 137.254011 340.20461 
L 142.227273 342.032043 
L 147.200535 342.310936 
L 152.173797 343.821893 
L 157.147059 344.888947 
L 162.120321 344.493771 
L 167.093583 345.891093 
L 172.066845 346.436459 
L 177.040107 345.047286 
L 182.013369 346.106585 
L 186.986631 347.028951 
L 191.959893 347.450822 
L 196.933155 347.658103 
L 201.906417 347.604743 
L 206.879679 347.872471 
L 211.852941 347.581056 
L 216.826203 347.441786 
L 221.799465 346.963228 
L 226.772727 347.283287 
L 226.772727 335.827902 
L 226.772727 335.827902 
L 221.799465 335.582439 
L 216.826203 335.270946 
L 211.852941 336.206126 
L 206.879679 336.217215 
L 201.906417 336.370306 
L 196.933155 335.717782 
L 191.959893 335.793602 
L 186.986631 335.388881 
L 182.013369 334.166413 
L 177.040107 333.496588 
L 172.066845 333.79784 
L 167.093583 333.515644 
L 162.120321 332.661198 
L 157.147059 331.806761 
L 152.173797 331.676674 
L 147.200535 330.096068 
L 142.227273 329.218236 
L 137.254011 327.468975 
L 132.280749 325.829489 
L 127.307487 324.464572 
L 122.334225 322.432216 
L 117.360963 320.158233 
L 112.387701 318.059972 
L 107.414439 315.136708 
L 102.441176 310.983105 
L 97.467914 307.180516 
L 92.494652 301.040183 
L 87.52139 295.294721 
L 82.548128 287.012739 
L 77.574866 275.592389 
L 72.601604 260.406284 
L 67.628342 237.575934 
L 62.65508 193.420959 
L 57.681818 75.969252 
z
" clip-path="url(#pc928dfb613)" style="fill: #ff7f0e; fill-opacity: 0.2"/>
   </g>
   <g id="PolyCollection_3">
    <path d="M 57.681818 -75.928034 
L 57.681818 -65.782914 
L 62.65508 52.024681 
L 67.628342 100.407458 
L 72.601604 128.733316 
L 77.574866 147.908443 
L 82.548128 163.286586 
L 87.52139 171.860487 
L 92.494652 181.689155 
L 97.467914 187.085521 
L 102.441176 193.579981 
L 107.414439 199.077651 
L 112.387701 202.79458 
L 117.360963 207.036332 
L 122.334225 207.921149 
L 127.307487 209.427383 
L 132.280749 213.352786 
L 137.254011 215.571184 
L 142.227273 216.595695 
L 147.200535 215.91073 
L 152.173797 218.886001 
L 157.147059 218.736024 
L 162.120321 221.284444 
L 167.093583 221.435535 
L 172.066845 221.12565 
L 177.040107 221.548603 
L 182.013369 223.457014 
L 186.986631 222.865069 
L 191.959893 224.871939 
L 196.933155 224.454953 
L 201.906417 224.293252 
L 206.879679 224.475213 
L 211.852941 223.132214 
L 211.852941 206.759113 
L 211.852941 206.759113 
L 206.879679 205.250872 
L 201.906417 207.166097 
L 196.933155 207.014125 
L 191.959893 207.057894 
L 186.986631 205.322377 
L 182.013369 206.063313 
L 177.040107 204.91699 
L 172.066845 204.542858 
L 167.093583 204.843686 
L 162.120321 203.582584 
L 157.147059 202.248376 
L 152.173797 202.099284 
L 147.200535 201.458679 
L 142.227273 200.585466 
L 137.254011 199.217231 
L 132.280749 195.667865 
L 127.307487 196.073067 
L 122.334225 193.248718 
L 117.360963 191.414689 
L 112.387701 186.647616 
L 107.414439 185.103749 
L 102.441176 179.011477 
L 97.467914 174.810642 
L 92.494652 166.540158 
L 87.52139 156.75896 
L 82.548128 151.321341 
L 77.574866 134.31577 
L 72.601604 115.868888 
L 67.628342 89.036771 
L 62.65508 39.759623 
L 57.681818 -75.928034 
z
" clip-path="url(#pc928dfb613)" style="fill: #2ca02c; fill-opacity: 0.2"/>
   </g>
   <g id="PolyCollection_4">
    <path d="M 57.681818 30.734913 
L 57.681818 42.259841 
L 62.65508 166.30697 
L 67.628342 212.786831 
L 72.601604 239.215886 
L 77.574866 256.274602 
L 82.548128 267.909373 
L 87.52139 276.42838 
L 92.494652 284.437828 
L 97.467914 289.270786 
L 102.441176 293.158323 
L 107.414439 296.949026 
L 112.387701 300.680382 
L 117.360963 302.130935 
L 122.334225 304.132854 
L 127.307487 306.108279 
L 132.280749 307.185141 
L 137.254011 308.130254 
L 142.227273 309.709456 
L 147.200535 309.98295 
L 152.173797 309.986478 
L 157.147059 311.067113 
L 162.120321 311.409705 
L 167.093583 310.393633 
L 172.066845 310.760093 
L 177.040107 311.160005 
L 182.013369 310.658288 
L 186.986631 310.915249 
L 186.986631 297.630516 
L 186.986631 297.630516 
L 182.013369 297.846924 
L 177.040107 297.795088 
L 172.066845 298.05227 
L 167.093583 298.516663 
L 162.120321 298.406964 
L 157.147059 298.440095 
L 152.173797 297.874683 
L 147.200535 297.301807 
L 142.227273 297.557424 
L 137.254011 295.946403 
L 132.280749 295.120492 
L 127.307487 293.995527 
L 122.334225 291.745928 
L 117.360963 290.1829 
L 112.387701 287.99539 
L 107.414439 284.629906 
L 102.441176 280.920352 
L 97.467914 277.396132 
L 92.494652 271.75233 
L 87.52139 263.556057 
L 82.548128 255.134279 
L 77.574866 243.012641 
L 72.601604 226.680654 
L 67.628342 199.513344 
L 62.65508 153.019385 
L 57.681818 30.734913 
z
" clip-path="url(#pc928dfb613)" style="fill: #d62728; fill-opacity: 0.2"/>
   </g>
   <g id="PolyCollection_5">
    <path d="M 57.681818 93.949253 
L 57.681818 107.115354 
L 62.65508 167.538332 
L 67.628342 190.700431 
L 72.601604 203.252003 
L 77.574866 211.082702 
L 82.548128 217.290764 
L 87.52139 223.397791 
L 92.494652 224.141418 
L 97.467914 228.921893 
L 102.441176 230.004604 
L 107.414439 232.619796 
L 112.387701 235.850088 
L 117.360963 233.819568 
L 122.334225 238.240442 
L 127.307487 235.937482 
L 132.280749 237.477403 
L 137.254011 237.202188 
L 142.227273 239.250101 
L 147.200535 236.291419 
L 152.173797 238.551897 
L 157.147059 237.135891 
L 157.147059 221.872543 
L 157.147059 221.872543 
L 152.173797 224.340519 
L 147.200535 219.8946 
L 142.227273 222.246316 
L 137.254011 220.599773 
L 132.280749 223.447153 
L 127.307487 224.989605 
L 122.334225 225.047127 
L 117.360963 220.866988 
L 112.387701 222.165534 
L 107.414439 220.074481 
L 102.441176 217.746829 
L 97.467914 216.175127 
L 92.494652 212.276402 
L 87.52139 211.824504 
L 82.548128 206.711205 
L 77.574866 199.140709 
L 72.601604 191.523852 
L 67.628342 177.923382 
L 62.65508 154.52018 
L 57.681818 93.949253 
z
" clip-path="url(#pc928dfb613)" style="fill: #9467bd; fill-opacity: 0.2"/>
   </g>
   <g id="PolyCollection_6">
    <path d="M 57.681818 6.126806 
L 57.681818 16.748018 
L 62.65508 144.259606 
L 67.628342 188.620803 
L 72.601604 211.715632 
L 77.574866 231.792919 
L 82.548128 241.164542 
L 87.52139 250.634276 
L 92.494652 254.153058 
L 97.467914 263.51337 
L 102.441176 263.027739 
L 107.414439 268.527711 
L 112.387701 269.572721 
L 117.360963 272.706075 
L 122.334225 272.884844 
L 127.307487 276.835541 
L 132.280749 276.923248 
L 137.254011 279.134192 
L 142.227273 279.901397 
L 147.200535 280.748566 
L 152.173797 283.625368 
L 157.147059 279.573401 
L 162.120321 283.776565 
L 167.093583 282.461868 
L 172.066845 284.697935 
L 177.040107 282.234232 
L 182.013369 282.288804 
L 186.986631 285.451672 
L 191.959893 283.59063 
L 196.933155 284.02869 
L 201.906417 282.44558 
L 206.879679 282.607858 
L 206.879679 269.579427 
L 206.879679 269.579427 
L 201.906417 268.895674 
L 196.933155 268.601689 
L 191.959893 270.37854 
L 186.986631 272.024233 
L 182.013369 268.539169 
L 177.040107 269.024666 
L 172.066845 270.430191 
L 167.093583 267.639214 
L 162.120321 269.544572 
L 157.147059 265.459003 
L 152.173797 269.21329 
L 147.200535 265.950498 
L 142.227273 265.626524 
L 137.254011 265.035589 
L 132.280749 262.861307 
L 127.307487 263.00287 
L 122.334225 260.264305 
L 117.360963 258.545642 
L 112.387701 261.048212 
L 107.414439 255.800336 
L 102.441176 249.181051 
L 97.467914 250.372067 
L 92.494652 240.460032 
L 87.52139 237.45424 
L 82.548128 228.141376 
L 77.574866 218.161748 
L 72.601604 198.706429 
L 67.628342 176.327058 
L 62.65508 132.187394 
L 57.681818 6.126806 
z
" clip-path="url(#pc928dfb613)" style="fill: #8c564b; fill-opacity: 0.2"/>
   </g>
   <g id="PolyCollection_7">
    <path d="M 57.681818 -254.67811 
L 57.681818 -239.597077 
L 62.65508 -53.769853 
L 67.628342 27.560936 
L 72.601604 73.057731 
L 77.574866 105.05798 
L 82.548128 126.036618 
L 87.52139 143.587393 
L 92.494652 155.600298 
L 97.467914 166.9057 
L 102.441176 175.373162 
L 107.414439 182.382563 
L 112.387701 188.091331 
L 117.360963 192.625471 
L 122.334225 197.205671 
L 127.307487 200.310328 
L 132.280749 203.854814 
L 137.254011 206.302044 
L 142.227273 208.874645 
L 147.200535 211.434011 
L 152.173797 213.291551 
L 157.147059 213.872087 
L 162.120321 215.723949 
L 167.093583 216.953221 
L 172.066845 217.502955 
L 177.040107 218.416303 
L 182.013369 219.575045 
L 186.986631 220.27325 
L 191.959893 220.231182 
L 196.933155 221.138251 
L 201.906417 221.891982 
L 206.879679 221.69157 
L 211.852941 222.130865 
L 216.826203 222.662861 
L 221.799465 222.443831 
L 221.799465 200.286014 
L 221.799465 200.286014 
L 216.826203 201.026584 
L 211.852941 200.859722 
L 206.879679 200.267315 
L 201.906417 200.922669 
L 196.933155 200.012415 
L 191.959893 198.740977 
L 186.986631 199.229046 
L 182.013369 197.933274 
L 177.040107 197.145252 
L 172.066845 196.486982 
L 167.093583 195.611174 
L 162.120321 194.308234 
L 157.147059 192.530634 
L 152.173797 191.687545 
L 147.200535 189.956104 
L 142.227273 187.749351 
L 137.254011 185.049662 
L 132.280749 183.138152 
L 127.307487 180.112211 
L 122.334225 175.943463 
L 117.360963 172.103621 
L 112.387701 167.210614 
L 107.414439 161.677639 
L 102.441176 154.151157 
L 97.467914 145.643193 
L 92.494652 135.819467 
L 87.52139 123.611029 
L 82.548128 106.310352 
L 77.574866 84.836545 
L 72.601604 53.456864 
L 67.628342 9.16728 
L 62.65508 -71.756451 
L 57.681818 -254.67811 
z
" clip-path="url(#pc928dfb613)" style="fill: #e377c2; fill-opacity: 0.2"/>
   </g>
   <g id="PolyCollection_8">
    <path d="M 57.681818 -66.052187 
L 57.681818 -54.103154 
L 62.65508 94.015332 
L 67.628342 156.369154 
L 72.601604 191.664206 
L 77.574866 215.317369 
L 82.548128 232.30419 
L 87.52139 245.32159 
L 92.494652 255.770456 
L 97.467914 263.323265 
L 102.441176 269.943308 
L 107.414439 275.263506 
L 112.387701 280.486557 
L 117.360963 285.159777 
L 122.334225 288.470282 
L 127.307487 292.106466 
L 132.280749 295.078539 
L 137.254011 297.831283 
L 142.227273 300.014728 
L 147.200535 302.465525 
L 152.173797 304.534146 
L 157.147059 306.312744 
L 162.120321 307.634823 
L 167.093583 308.446762 
L 172.066845 310.116724 
L 177.040107 310.956254 
L 182.013369 311.67175 
L 186.986631 312.968655 
L 191.959893 313.98535 
L 196.933155 314.764326 
L 201.906417 315.335579 
L 206.879679 316.655089 
L 211.852941 317.264108 
L 216.826203 317.936585 
L 221.799465 318.779393 
L 226.772727 318.609759 
L 231.745989 319.959075 
L 236.719251 318.658385 
L 241.692513 319.780507 
L 246.665775 320.277954 
L 251.639037 320.587688 
L 256.612299 321.644206 
L 261.585561 320.968219 
L 266.558824 321.206834 
L 271.532086 321.557251 
L 276.505348 321.544874 
L 281.47861 322.378581 
L 286.451872 322.976324 
L 291.425134 322.468074 
L 296.398396 322.55771 
L 301.371658 323.095761 
L 306.34492 323.005954 
L 311.318182 323.771199 
L 311.318182 315.785489 
L 311.318182 315.785489 
L 306.34492 315.485243 
L 301.371658 315.303099 
L 296.398396 314.885929 
L 291.425134 314.780594 
L 286.451872 315.442266 
L 281.47861 315.164905 
L 276.505348 314.100912 
L 271.532086 314.184953 
L 266.558824 313.690967 
L 261.585561 313.898377 
L 256.612299 313.617257 
L 251.639037 312.425147 
L 246.665775 312.426322 
L 241.692513 311.743828 
L 236.719251 310.314449 
L 231.745989 311.246973 
L 226.772727 309.318571 
L 221.799465 309.420156 
L 216.826203 309.022696 
L 211.852941 307.979261 
L 206.879679 307.707664 
L 201.906417 306.545955 
L 196.933155 306.616138 
L 191.959893 304.921356 
L 186.986631 303.426729 
L 182.013369 303.323113 
L 177.040107 301.616697 
L 172.066845 300.760446 
L 167.093583 299.292221 
L 162.120321 298.046687 
L 157.147059 296.442151 
L 152.173797 294.851654 
L 147.200535 292.908311 
L 142.227273 289.595132 
L 137.254011 287.741001 
L 132.280749 284.840224 
L 127.307487 281.970488 
L 122.334225 278.628427 
L 117.360963 273.716865 
L 112.387701 270.260789 
L 107.414439 264.21543 
L 102.441176 258.683946 
L 97.467914 252.00423 
L 92.494652 243.860536 
L 87.52139 233.342334 
L 82.548128 219.804532 
L 77.574866 202.87326 
L 72.601604 178.922092 
L 67.628342 143.280823 
L 62.65508 81.394229 
L 57.681818 -66.052187 
z
" clip-path="url(#pc928dfb613)" style="fill: #7f7f7f; fill-opacity: 0.2"/>
   </g>
   <g id="matplotlib.axis_1">
    <g id="xtick_1">
     <g id="line2d_1">
      <path d="M 52.708556 378 
L 52.708556 51.84 
" clip-path="url(#pc928dfb613)" style="fill: none; stroke: #b0b0b0; stroke-width: 0.8; stroke-linecap: square"/>
     </g>
     <g id="line2d_2">
      <defs>
       <path id="m46fa6b22d1" d="M 0 0 
L 0 3.5 
" style="stroke: #000000; stroke-width: 0.8"/>
      </defs>
      <g>
       <use xlink:href="#m46fa6b22d1" x="52.708556" y="378" style="stroke: #000000; stroke-width: 0.8"/>
      </g>
     </g>
     <g id="text_1">
      <!-- 0 -->
      <g transform="translate(49.527306 392.598437)scale(0.1 -0.1)">
       <defs>
        <path id="DejaVuSans-30" d="M 2034 4250 
Q 1547 4250 1301 3770 
Q 1056 3291 1056 2328 
Q 1056 1369 1301 889 
Q 1547 409 2034 409 
Q 2525 409 2770 889 
Q 3016 1369 3016 2328 
Q 3016 3291 2770 3770 
Q 2525 4250 2034 4250 
z
M 2034 4750 
Q 2819 4750 3233 4129 
Q 3647 3509 3647 2328 
Q 3647 1150 3233 529 
Q 2819 -91 2034 -91 
Q 1250 -91 836 529 
Q 422 1150 422 2328 
Q 422 3509 836 4129 
Q 1250 4750 2034 4750 
z
" transform="scale(0.015625)"/>
       </defs>
       <use xlink:href="#DejaVuSans-30"/>
      </g>
     </g>
    </g>
    <g id="xtick_2">
     <g id="line2d_3">
      <path d="M 102.441176 378 
L 102.441176 51.84 
" clip-path="url(#pc928dfb613)" style="fill: none; stroke: #b0b0b0; stroke-width: 0.8; stroke-linecap: square"/>
     </g>
     <g id="line2d_4">
      <g>
       <use xlink:href="#m46fa6b22d1" x="102.441176" y="378" style="stroke: #000000; stroke-width: 0.8"/>
      </g>
     </g>
     <g id="text_2">
      <!-- 10 -->
      <g transform="translate(96.078676 392.598437)scale(0.1 -0.1)">
       <defs>
        <path id="DejaVuSans-31" d="M 794 531 
L 1825 531 
L 1825 4091 
L 703 3866 
L 703 4441 
L 1819 4666 
L 2450 4666 
L 2450 531 
L 3481 531 
L 3481 0 
L 794 0 
L 794 531 
z
" transform="scale(0.015625)"/>
       </defs>
       <use xlink:href="#DejaVuSans-31"/>
       <use xlink:href="#DejaVuSans-30" x="63.623047"/>
      </g>
     </g>
    </g>
    <g id="xtick_3">
     <g id="line2d_5">
      <path d="M 152.173797 378 
L 152.173797 51.84 
" clip-path="url(#pc928dfb613)" style="fill: none; stroke: #b0b0b0; stroke-width: 0.8; stroke-linecap: square"/>
     </g>
     <g id="line2d_6">
      <g>
       <use xlink:href="#m46fa6b22d1" x="152.173797" y="378" style="stroke: #000000; stroke-width: 0.8"/>
      </g>
     </g>
     <g id="text_3">
      <!-- 20 -->
      <g transform="translate(145.811297 392.598437)scale(0.1 -0.1)">
       <defs>
        <path id="DejaVuSans-32" d="M 1228 531 
L 3431 531 
L 3431 0 
L 469 0 
L 469 531 
Q 828 903 1448 1529 
Q 2069 2156 2228 2338 
Q 2531 2678 2651 2914 
Q 2772 3150 2772 3378 
Q 2772 3750 2511 3984 
Q 2250 4219 1831 4219 
Q 1534 4219 1204 4116 
Q 875 4013 500 3803 
L 500 4441 
Q 881 4594 1212 4672 
Q 1544 4750 1819 4750 
Q 2544 4750 2975 4387 
Q 3406 4025 3406 3419 
Q 3406 3131 3298 2873 
Q 3191 2616 2906 2266 
Q 2828 2175 2409 1742 
Q 1991 1309 1228 531 
z
" transform="scale(0.015625)"/>
       </defs>
       <use xlink:href="#DejaVuSans-32"/>
       <use xlink:href="#DejaVuSans-30" x="63.623047"/>
      </g>
     </g>
    </g>
    <g id="xtick_4">
     <g id="line2d_7">
      <path d="M 201.906417 378 
L 201.906417 51.84 
" clip-path="url(#pc928dfb613)" style="fill: none; stroke: #b0b0b0; stroke-width: 0.8; stroke-linecap: square"/>
     </g>
     <g id="line2d_8">
      <g>
       <use xlink:href="#m46fa6b22d1" x="201.906417" y="378" style="stroke: #000000; stroke-width: 0.8"/>
      </g>
     </g>
     <g id="text_4">
      <!-- 30 -->
      <g transform="translate(195.543917 392.598437)scale(0.1 -0.1)">
       <defs>
        <path id="DejaVuSans-33" d="M 2597 2516 
Q 3050 2419 3304 2112 
Q 3559 1806 3559 1356 
Q 3559 666 3084 287 
Q 2609 -91 1734 -91 
Q 1441 -91 1130 -33 
Q 819 25 488 141 
L 488 750 
Q 750 597 1062 519 
Q 1375 441 1716 441 
Q 2309 441 2620 675 
Q 2931 909 2931 1356 
Q 2931 1769 2642 2001 
Q 2353 2234 1838 2234 
L 1294 2234 
L 1294 2753 
L 1863 2753 
Q 2328 2753 2575 2939 
Q 2822 3125 2822 3475 
Q 2822 3834 2567 4026 
Q 2313 4219 1838 4219 
Q 1578 4219 1281 4162 
Q 984 4106 628 3988 
L 628 4550 
Q 988 4650 1302 4700 
Q 1616 4750 1894 4750 
Q 2613 4750 3031 4423 
Q 3450 4097 3450 3541 
Q 3450 3153 3228 2886 
Q 3006 2619 2597 2516 
z
" transform="scale(0.015625)"/>
       </defs>
       <use xlink:href="#DejaVuSans-33"/>
       <use xlink:href="#DejaVuSans-30" x="63.623047"/>
      </g>
     </g>
    </g>
    <g id="xtick_5">
     <g id="line2d_9">
      <path d="M 251.639037 378 
L 251.639037 51.84 
" clip-path="url(#pc928dfb613)" style="fill: none; stroke: #b0b0b0; stroke-width: 0.8; stroke-linecap: square"/>
     </g>
     <g id="line2d_10">
      <g>
       <use xlink:href="#m46fa6b22d1" x="251.639037" y="378" style="stroke: #000000; stroke-width: 0.8"/>
      </g>
     </g>
     <g id="text_5">
      <!-- 40 -->
      <g transform="translate(245.276537 392.598437)scale(0.1 -0.1)">
       <defs>
        <path id="DejaVuSans-34" d="M 2419 4116 
L 825 1625 
L 2419 1625 
L 2419 4116 
z
M 2253 4666 
L 3047 4666 
L 3047 1625 
L 3713 1625 
L 3713 1100 
L 3047 1100 
L 3047 0 
L 2419 0 
L 2419 1100 
L 313 1100 
L 313 1709 
L 2253 4666 
z
" transform="scale(0.015625)"/>
       </defs>
       <use xlink:href="#DejaVuSans-34"/>
       <use xlink:href="#DejaVuSans-30" x="63.623047"/>
      </g>
     </g>
    </g>
    <g id="xtick_6">
     <g id="line2d_11">
      <path d="M 301.371658 378 
L 301.371658 51.84 
" clip-path="url(#pc928dfb613)" style="fill: none; stroke: #b0b0b0; stroke-width: 0.8; stroke-linecap: square"/>
     </g>
     <g id="line2d_12">
      <g>
       <use xlink:href="#m46fa6b22d1" x="301.371658" y="378" style="stroke: #000000; stroke-width: 0.8"/>
      </g>
     </g>
     <g id="text_6">
      <!-- 50 -->
      <g transform="translate(295.009158 392.598437)scale(0.1 -0.1)">
       <defs>
        <path id="DejaVuSans-35" d="M 691 4666 
L 3169 4666 
L 3169 4134 
L 1269 4134 
L 1269 2991 
Q 1406 3038 1543 3061 
Q 1681 3084 1819 3084 
Q 2600 3084 3056 2656 
Q 3513 2228 3513 1497 
Q 3513 744 3044 326 
Q 2575 -91 1722 -91 
Q 1428 -91 1123 -41 
Q 819 9 494 109 
L 494 744 
Q 775 591 1075 516 
Q 1375 441 1709 441 
Q 2250 441 2565 725 
Q 2881 1009 2881 1497 
Q 2881 1984 2565 2268 
Q 2250 2553 1709 2553 
Q 1456 2553 1204 2497 
Q 953 2441 691 2322 
L 691 4666 
z
" transform="scale(0.015625)"/>
       </defs>
       <use xlink:href="#DejaVuSans-35"/>
       <use xlink:href="#DejaVuSans-30" x="63.623047"/>
      </g>
     </g>
    </g>
    <g id="text_7">
     <!-- Epochs -->
     <g transform="translate(166.584375 406.276563)scale(0.1 -0.1)">
      <defs>
       <path id="DejaVuSans-45" d="M 628 4666 
L 3578 4666 
L 3578 4134 
L 1259 4134 
L 1259 2753 
L 3481 2753 
L 3481 2222 
L 1259 2222 
L 1259 531 
L 3634 531 
L 3634 0 
L 628 0 
L 628 4666 
z
" transform="scale(0.015625)"/>
       <path id="DejaVuSans-70" d="M 1159 525 
L 1159 -1331 
L 581 -1331 
L 581 3500 
L 1159 3500 
L 1159 2969 
Q 1341 3281 1617 3432 
Q 1894 3584 2278 3584 
Q 2916 3584 3314 3078 
Q 3713 2572 3713 1747 
Q 3713 922 3314 415 
Q 2916 -91 2278 -91 
Q 1894 -91 1617 61 
Q 1341 213 1159 525 
z
M 3116 1747 
Q 3116 2381 2855 2742 
Q 2594 3103 2138 3103 
Q 1681 3103 1420 2742 
Q 1159 2381 1159 1747 
Q 1159 1113 1420 752 
Q 1681 391 2138 391 
Q 2594 391 2855 752 
Q 3116 1113 3116 1747 
z
" transform="scale(0.015625)"/>
       <path id="DejaVuSans-6f" d="M 1959 3097 
Q 1497 3097 1228 2736 
Q 959 2375 959 1747 
Q 959 1119 1226 758 
Q 1494 397 1959 397 
Q 2419 397 2687 759 
Q 2956 1122 2956 1747 
Q 2956 2369 2687 2733 
Q 2419 3097 1959 3097 
z
M 1959 3584 
Q 2709 3584 3137 3096 
Q 3566 2609 3566 1747 
Q 3566 888 3137 398 
Q 2709 -91 1959 -91 
Q 1206 -91 779 398 
Q 353 888 353 1747 
Q 353 2609 779 3096 
Q 1206 3584 1959 3584 
z
" transform="scale(0.015625)"/>
       <path id="DejaVuSans-63" d="M 3122 3366 
L 3122 2828 
Q 2878 2963 2633 3030 
Q 2388 3097 2138 3097 
Q 1578 3097 1268 2742 
Q 959 2388 959 1747 
Q 959 1106 1268 751 
Q 1578 397 2138 397 
Q 2388 397 2633 464 
Q 2878 531 3122 666 
L 3122 134 
Q 2881 22 2623 -34 
Q 2366 -91 2075 -91 
Q 1284 -91 818 406 
Q 353 903 353 1747 
Q 353 2603 823 3093 
Q 1294 3584 2113 3584 
Q 2378 3584 2631 3529 
Q 2884 3475 3122 3366 
z
" transform="scale(0.015625)"/>
       <path id="DejaVuSans-68" d="M 3513 2113 
L 3513 0 
L 2938 0 
L 2938 2094 
Q 2938 2591 2744 2837 
Q 2550 3084 2163 3084 
Q 1697 3084 1428 2787 
Q 1159 2491 1159 1978 
L 1159 0 
L 581 0 
L 581 4863 
L 1159 4863 
L 1159 2956 
Q 1366 3272 1645 3428 
Q 1925 3584 2291 3584 
Q 2894 3584 3203 3211 
Q 3513 2838 3513 2113 
z
" transform="scale(0.015625)"/>
       <path id="DejaVuSans-73" d="M 2834 3397 
L 2834 2853 
Q 2591 2978 2328 3040 
Q 2066 3103 1784 3103 
Q 1356 3103 1142 2972 
Q 928 2841 928 2578 
Q 928 2378 1081 2264 
Q 1234 2150 1697 2047 
L 1894 2003 
Q 2506 1872 2764 1633 
Q 3022 1394 3022 966 
Q 3022 478 2636 193 
Q 2250 -91 1575 -91 
Q 1294 -91 989 -36 
Q 684 19 347 128 
L 347 722 
Q 666 556 975 473 
Q 1284 391 1588 391 
Q 1994 391 2212 530 
Q 2431 669 2431 922 
Q 2431 1156 2273 1281 
Q 2116 1406 1581 1522 
L 1381 1569 
Q 847 1681 609 1914 
Q 372 2147 372 2553 
Q 372 3047 722 3315 
Q 1072 3584 1716 3584 
Q 2034 3584 2315 3537 
Q 2597 3491 2834 3397 
z
" transform="scale(0.015625)"/>
      </defs>
      <use xlink:href="#DejaVuSans-45"/>
      <use xlink:href="#DejaVuSans-70" x="63.183594"/>
      <use xlink:href="#DejaVuSans-6f" x="126.660156"/>
      <use xlink:href="#DejaVuSans-63" x="187.841797"/>
      <use xlink:href="#DejaVuSans-68" x="242.822266"/>
      <use xlink:href="#DejaVuSans-73" x="306.201172"/>
     </g>
    </g>
   </g>
   <g id="matplotlib.axis_2">
    <g id="ytick_1">
     <g id="line2d_13">
      <path d="M 45 364.008852 
L 324 364.008852 
" clip-path="url(#pc928dfb613)" style="fill: none; stroke: #b0b0b0; stroke-width: 0.8; stroke-linecap: square"/>
     </g>
     <g id="line2d_14">
      <defs>
       <path id="m226ead518e" d="M 0 0 
L -3.5 0 
" style="stroke: #000000; stroke-width: 0.8"/>
      </defs>
      <g>
       <use xlink:href="#m226ead518e" x="45" y="364.008852" style="stroke: #000000; stroke-width: 0.8"/>
      </g>
     </g>
     <g id="text_8">
      <!-- 0.4 -->
      <g transform="translate(22.096875 367.808071)scale(0.1 -0.1)">
       <defs>
        <path id="DejaVuSans-2e" d="M 684 794 
L 1344 794 
L 1344 0 
L 684 0 
L 684 794 
z
" transform="scale(0.015625)"/>
       </defs>
       <use xlink:href="#DejaVuSans-30"/>
       <use xlink:href="#DejaVuSans-2e" x="63.623047"/>
       <use xlink:href="#DejaVuSans-34" x="95.410156"/>
      </g>
     </g>
    </g>
    <g id="ytick_2">
     <g id="line2d_15">
      <path d="M 45 327.283105 
L 324 327.283105 
" clip-path="url(#pc928dfb613)" style="fill: none; stroke: #b0b0b0; stroke-width: 0.8; stroke-linecap: square"/>
     </g>
     <g id="line2d_16">
      <g>
       <use xlink:href="#m226ead518e" x="45" y="327.283105" style="stroke: #000000; stroke-width: 0.8"/>
      </g>
     </g>
     <g id="text_9">
      <!-- 0.5 -->
      <g transform="translate(22.096875 331.082324)scale(0.1 -0.1)">
       <use xlink:href="#DejaVuSans-30"/>
       <use xlink:href="#DejaVuSans-2e" x="63.623047"/>
       <use xlink:href="#DejaVuSans-35" x="95.410156"/>
      </g>
     </g>
    </g>
    <g id="ytick_3">
     <g id="line2d_17">
      <path d="M 45 290.557358 
L 324 290.557358 
" clip-path="url(#pc928dfb613)" style="fill: none; stroke: #b0b0b0; stroke-width: 0.8; stroke-linecap: square"/>
     </g>
     <g id="line2d_18">
      <g>
       <use xlink:href="#m226ead518e" x="45" y="290.557358" style="stroke: #000000; stroke-width: 0.8"/>
      </g>
     </g>
     <g id="text_10">
      <!-- 0.6 -->
      <g transform="translate(22.096875 294.356576)scale(0.1 -0.1)">
       <defs>
        <path id="DejaVuSans-36" d="M 2113 2584 
Q 1688 2584 1439 2293 
Q 1191 2003 1191 1497 
Q 1191 994 1439 701 
Q 1688 409 2113 409 
Q 2538 409 2786 701 
Q 3034 994 3034 1497 
Q 3034 2003 2786 2293 
Q 2538 2584 2113 2584 
z
M 3366 4563 
L 3366 3988 
Q 3128 4100 2886 4159 
Q 2644 4219 2406 4219 
Q 1781 4219 1451 3797 
Q 1122 3375 1075 2522 
Q 1259 2794 1537 2939 
Q 1816 3084 2150 3084 
Q 2853 3084 3261 2657 
Q 3669 2231 3669 1497 
Q 3669 778 3244 343 
Q 2819 -91 2113 -91 
Q 1303 -91 875 529 
Q 447 1150 447 2328 
Q 447 3434 972 4092 
Q 1497 4750 2381 4750 
Q 2619 4750 2861 4703 
Q 3103 4656 3366 4563 
z
" transform="scale(0.015625)"/>
       </defs>
       <use xlink:href="#DejaVuSans-30"/>
       <use xlink:href="#DejaVuSans-2e" x="63.623047"/>
       <use xlink:href="#DejaVuSans-36" x="95.410156"/>
      </g>
     </g>
    </g>
    <g id="ytick_4">
     <g id="line2d_19">
      <path d="M 45 253.83161 
L 324 253.83161 
" clip-path="url(#pc928dfb613)" style="fill: none; stroke: #b0b0b0; stroke-width: 0.8; stroke-linecap: square"/>
     </g>
     <g id="line2d_20">
      <g>
       <use xlink:href="#m226ead518e" x="45" y="253.83161" style="stroke: #000000; stroke-width: 0.8"/>
      </g>
     </g>
     <g id="text_11">
      <!-- 0.7 -->
      <g transform="translate(22.096875 257.630829)scale(0.1 -0.1)">
       <defs>
        <path id="DejaVuSans-37" d="M 525 4666 
L 3525 4666 
L 3525 4397 
L 1831 0 
L 1172 0 
L 2766 4134 
L 525 4134 
L 525 4666 
z
" transform="scale(0.015625)"/>
       </defs>
       <use xlink:href="#DejaVuSans-30"/>
       <use xlink:href="#DejaVuSans-2e" x="63.623047"/>
       <use xlink:href="#DejaVuSans-37" x="95.410156"/>
      </g>
     </g>
    </g>
    <g id="ytick_5">
     <g id="line2d_21">
      <path d="M 45 217.105863 
L 324 217.105863 
" clip-path="url(#pc928dfb613)" style="fill: none; stroke: #b0b0b0; stroke-width: 0.8; stroke-linecap: square"/>
     </g>
     <g id="line2d_22">
      <g>
       <use xlink:href="#m226ead518e" x="45" y="217.105863" style="stroke: #000000; stroke-width: 0.8"/>
      </g>
     </g>
     <g id="text_12">
      <!-- 0.8 -->
      <g transform="translate(22.096875 220.905082)scale(0.1 -0.1)">
       <defs>
        <path id="DejaVuSans-38" d="M 2034 2216 
Q 1584 2216 1326 1975 
Q 1069 1734 1069 1313 
Q 1069 891 1326 650 
Q 1584 409 2034 409 
Q 2484 409 2743 651 
Q 3003 894 3003 1313 
Q 3003 1734 2745 1975 
Q 2488 2216 2034 2216 
z
M 1403 2484 
Q 997 2584 770 2862 
Q 544 3141 544 3541 
Q 544 4100 942 4425 
Q 1341 4750 2034 4750 
Q 2731 4750 3128 4425 
Q 3525 4100 3525 3541 
Q 3525 3141 3298 2862 
Q 3072 2584 2669 2484 
Q 3125 2378 3379 2068 
Q 3634 1759 3634 1313 
Q 3634 634 3220 271 
Q 2806 -91 2034 -91 
Q 1263 -91 848 271 
Q 434 634 434 1313 
Q 434 1759 690 2068 
Q 947 2378 1403 2484 
z
M 1172 3481 
Q 1172 3119 1398 2916 
Q 1625 2713 2034 2713 
Q 2441 2713 2670 2916 
Q 2900 3119 2900 3481 
Q 2900 3844 2670 4047 
Q 2441 4250 2034 4250 
Q 1625 4250 1398 4047 
Q 1172 3844 1172 3481 
z
" transform="scale(0.015625)"/>
       </defs>
       <use xlink:href="#DejaVuSans-30"/>
       <use xlink:href="#DejaVuSans-2e" x="63.623047"/>
       <use xlink:href="#DejaVuSans-38" x="95.410156"/>
      </g>
     </g>
    </g>
    <g id="ytick_6">
     <g id="line2d_23">
      <path d="M 45 180.380116 
L 324 180.380116 
" clip-path="url(#pc928dfb613)" style="fill: none; stroke: #b0b0b0; stroke-width: 0.8; stroke-linecap: square"/>
     </g>
     <g id="line2d_24">
      <g>
       <use xlink:href="#m226ead518e" x="45" y="180.380116" style="stroke: #000000; stroke-width: 0.8"/>
      </g>
     </g>
     <g id="text_13">
      <!-- 0.9 -->
      <g transform="translate(22.096875 184.179334)scale(0.1 -0.1)">
       <defs>
        <path id="DejaVuSans-39" d="M 703 97 
L 703 672 
Q 941 559 1184 500 
Q 1428 441 1663 441 
Q 2288 441 2617 861 
Q 2947 1281 2994 2138 
Q 2813 1869 2534 1725 
Q 2256 1581 1919 1581 
Q 1219 1581 811 2004 
Q 403 2428 403 3163 
Q 403 3881 828 4315 
Q 1253 4750 1959 4750 
Q 2769 4750 3195 4129 
Q 3622 3509 3622 2328 
Q 3622 1225 3098 567 
Q 2575 -91 1691 -91 
Q 1453 -91 1209 -44 
Q 966 3 703 97 
z
M 1959 2075 
Q 2384 2075 2632 2365 
Q 2881 2656 2881 3163 
Q 2881 3666 2632 3958 
Q 2384 4250 1959 4250 
Q 1534 4250 1286 3958 
Q 1038 3666 1038 3163 
Q 1038 2656 1286 2365 
Q 1534 2075 1959 2075 
z
" transform="scale(0.015625)"/>
       </defs>
       <use xlink:href="#DejaVuSans-30"/>
       <use xlink:href="#DejaVuSans-2e" x="63.623047"/>
       <use xlink:href="#DejaVuSans-39" x="95.410156"/>
      </g>
     </g>
    </g>
    <g id="ytick_7">
     <g id="line2d_25">
      <path d="M 45 143.654368 
L 324 143.654368 
" clip-path="url(#pc928dfb613)" style="fill: none; stroke: #b0b0b0; stroke-width: 0.8; stroke-linecap: square"/>
     </g>
     <g id="line2d_26">
      <g>
       <use xlink:href="#m226ead518e" x="45" y="143.654368" style="stroke: #000000; stroke-width: 0.8"/>
      </g>
     </g>
     <g id="text_14">
      <!-- 1.0 -->
      <g transform="translate(22.096875 147.453587)scale(0.1 -0.1)">
       <use xlink:href="#DejaVuSans-31"/>
       <use xlink:href="#DejaVuSans-2e" x="63.623047"/>
       <use xlink:href="#DejaVuSans-30" x="95.410156"/>
      </g>
     </g>
    </g>
    <g id="ytick_8">
     <g id="line2d_27">
      <path d="M 45 106.928621 
L 324 106.928621 
" clip-path="url(#pc928dfb613)" style="fill: none; stroke: #b0b0b0; stroke-width: 0.8; stroke-linecap: square"/>
     </g>
     <g id="line2d_28">
      <g>
       <use xlink:href="#m226ead518e" x="45" y="106.928621" style="stroke: #000000; stroke-width: 0.8"/>
      </g>
     </g>
     <g id="text_15">
      <!-- 1.1 -->
      <g transform="translate(22.096875 110.72784)scale(0.1 -0.1)">
       <use xlink:href="#DejaVuSans-31"/>
       <use xlink:href="#DejaVuSans-2e" x="63.623047"/>
       <use xlink:href="#DejaVuSans-31" x="95.410156"/>
      </g>
     </g>
    </g>
    <g id="ytick_9">
     <g id="line2d_29">
      <path d="M 45 70.202874 
L 324 70.202874 
" clip-path="url(#pc928dfb613)" style="fill: none; stroke: #b0b0b0; stroke-width: 0.8; stroke-linecap: square"/>
     </g>
     <g id="line2d_30">
      <g>
       <use xlink:href="#m226ead518e" x="45" y="70.202874" style="stroke: #000000; stroke-width: 0.8"/>
      </g>
     </g>
     <g id="text_16">
      <!-- 1.2 -->
      <g transform="translate(22.096875 74.002092)scale(0.1 -0.1)">
       <use xlink:href="#DejaVuSans-31"/>
       <use xlink:href="#DejaVuSans-2e" x="63.623047"/>
       <use xlink:href="#DejaVuSans-32" x="95.410156"/>
      </g>
     </g>
    </g>
    <g id="text_17">
     <!-- Cross Entropy Loss ($\bar{x} \pm s \div \sqrt{N}$) -->
     <g transform="translate(15.996875 293.82)rotate(-90)scale(0.1 -0.1)">
      <defs>
       <path id="DejaVuSans-43" d="M 4122 4306 
L 4122 3641 
Q 3803 3938 3442 4084 
Q 3081 4231 2675 4231 
Q 1875 4231 1450 3742 
Q 1025 3253 1025 2328 
Q 1025 1406 1450 917 
Q 1875 428 2675 428 
Q 3081 428 3442 575 
Q 3803 722 4122 1019 
L 4122 359 
Q 3791 134 3420 21 
Q 3050 -91 2638 -91 
Q 1578 -91 968 557 
Q 359 1206 359 2328 
Q 359 3453 968 4101 
Q 1578 4750 2638 4750 
Q 3056 4750 3426 4639 
Q 3797 4528 4122 4306 
z
" transform="scale(0.015625)"/>
       <path id="DejaVuSans-72" d="M 2631 2963 
Q 2534 3019 2420 3045 
Q 2306 3072 2169 3072 
Q 1681 3072 1420 2755 
Q 1159 2438 1159 1844 
L 1159 0 
L 581 0 
L 581 3500 
L 1159 3500 
L 1159 2956 
Q 1341 3275 1631 3429 
Q 1922 3584 2338 3584 
Q 2397 3584 2469 3576 
Q 2541 3569 2628 3553 
L 2631 2963 
z
" transform="scale(0.015625)"/>
       <path id="DejaVuSans-20" transform="scale(0.015625)"/>
       <path id="DejaVuSans-6e" d="M 3513 2113 
L 3513 0 
L 2938 0 
L 2938 2094 
Q 2938 2591 2744 2837 
Q 2550 3084 2163 3084 
Q 1697 3084 1428 2787 
Q 1159 2491 1159 1978 
L 1159 0 
L 581 0 
L 581 3500 
L 1159 3500 
L 1159 2956 
Q 1366 3272 1645 3428 
Q 1925 3584 2291 3584 
Q 2894 3584 3203 3211 
Q 3513 2838 3513 2113 
z
" transform="scale(0.015625)"/>
       <path id="DejaVuSans-74" d="M 1172 4494 
L 1172 3500 
L 2356 3500 
L 2356 3053 
L 1172 3053 
L 1172 1153 
Q 1172 725 1289 603 
Q 1406 481 1766 481 
L 2356 481 
L 2356 0 
L 1766 0 
Q 1100 0 847 248 
Q 594 497 594 1153 
L 594 3053 
L 172 3053 
L 172 3500 
L 594 3500 
L 594 4494 
L 1172 4494 
z
" transform="scale(0.015625)"/>
       <path id="DejaVuSans-79" d="M 2059 -325 
Q 1816 -950 1584 -1140 
Q 1353 -1331 966 -1331 
L 506 -1331 
L 506 -850 
L 844 -850 
Q 1081 -850 1212 -737 
Q 1344 -625 1503 -206 
L 1606 56 
L 191 3500 
L 800 3500 
L 1894 763 
L 2988 3500 
L 3597 3500 
L 2059 -325 
z
" transform="scale(0.015625)"/>
       <path id="DejaVuSans-4c" d="M 628 4666 
L 1259 4666 
L 1259 531 
L 3531 531 
L 3531 0 
L 628 0 
L 628 4666 
z
" transform="scale(0.015625)"/>
       <path id="DejaVuSans-28" d="M 1984 4856 
Q 1566 4138 1362 3434 
Q 1159 2731 1159 2009 
Q 1159 1288 1364 580 
Q 1569 -128 1984 -844 
L 1484 -844 
Q 1016 -109 783 600 
Q 550 1309 550 2009 
Q 550 2706 781 3412 
Q 1013 4119 1484 4856 
L 1984 4856 
z
" transform="scale(0.015625)"/>
       <path id="DejaVuSans-304" d="M -2518 4769 
L -650 4769 
L -650 4306 
L -2518 4306 
L -2518 4769 
z
" transform="scale(0.015625)"/>
       <path id="DejaVuSans-Oblique-78" d="M 3841 3500 
L 2234 1784 
L 3219 0 
L 2559 0 
L 1819 1388 
L 531 0 
L -166 0 
L 1556 1844 
L 641 3500 
L 1300 3500 
L 1972 2234 
L 3144 3500 
L 3841 3500 
z
" transform="scale(0.015625)"/>
       <path id="DejaVuSans-b1" d="M 2944 4013 
L 2944 2803 
L 4684 2803 
L 4684 2272 
L 2944 2272 
L 2944 1063 
L 2419 1063 
L 2419 2272 
L 678 2272 
L 678 2803 
L 2419 2803 
L 2419 4013 
L 2944 4013 
z
M 678 531 
L 4684 531 
L 4684 0 
L 678 0 
L 678 531 
z
" transform="scale(0.015625)"/>
       <path id="DejaVuSans-Oblique-73" d="M 3200 3397 
L 3091 2853 
Q 2863 2978 2609 3040 
Q 2356 3103 2088 3103 
Q 1634 3103 1373 2948 
Q 1113 2794 1113 2528 
Q 1113 2219 1719 2053 
Q 1766 2041 1788 2034 
L 1972 1978 
Q 2547 1819 2739 1644 
Q 2931 1469 2931 1166 
Q 2931 609 2489 259 
Q 2047 -91 1331 -91 
Q 1053 -91 747 -37 
Q 441 16 72 128 
L 184 722 
Q 500 559 806 475 
Q 1113 391 1394 391 
Q 1816 391 2080 572 
Q 2344 753 2344 1031 
Q 2344 1331 1650 1516 
L 1591 1531 
L 1394 1581 
Q 956 1697 753 1886 
Q 550 2075 550 2369 
Q 550 2928 970 3256 
Q 1391 3584 2113 3584 
Q 2397 3584 2667 3537 
Q 2938 3491 3200 3397 
z
" transform="scale(0.015625)"/>
       <path id="DejaVuSans-f7" d="M 2297 3547 
L 3066 3547 
L 3066 2778 
L 2297 2778 
L 2297 3547 
z
M 2297 1234 
L 3066 1234 
L 3066 469 
L 2297 469 
L 2297 1234 
z
M 678 2272 
L 4684 2272 
L 4684 1741 
L 678 1741 
L 678 2272 
z
" transform="scale(0.015625)"/>
       <path id="STIXSizeOneSym-Regular-221a" d="M 6970 9933 
L 3373 -1888 
L 3104 -1888 
L 1626 2918 
Q 1555 3149 1465 3251 
Q 1376 3354 1229 3354 
Q 1011 3354 794 3181 
L 717 3309 
L 1766 4115 
L 1926 4115 
L 3379 -602 
L 3405 -602 
L 6605 9933 
L 6970 9933 
z
" transform="scale(0.015625)"/>
       <path id="DejaVuSans-Oblique-4e" d="M 1081 4666 
L 1931 4666 
L 3219 666 
L 4000 4666 
L 4616 4666 
L 3706 0 
L 2853 0 
L 1569 4025 
L 788 0 
L 172 0 
L 1081 4666 
z
" transform="scale(0.015625)"/>
       <path id="DejaVuSans-29" d="M 513 4856 
L 1013 4856 
Q 1481 4119 1714 3412 
Q 1947 2706 1947 2009 
Q 1947 1309 1714 600 
Q 1481 -109 1013 -844 
L 513 -844 
Q 928 -128 1133 580 
Q 1338 1288 1338 2009 
Q 1338 2731 1133 3434 
Q 928 4138 513 4856 
z
" transform="scale(0.015625)"/>
      </defs>
      <use xlink:href="#DejaVuSans-43" transform="translate(0 0.578125)"/>
      <use xlink:href="#DejaVuSans-72" transform="translate(69.824219 0.578125)"/>
      <use xlink:href="#DejaVuSans-6f" transform="translate(110.9375 0.578125)"/>
      <use xlink:href="#DejaVuSans-73" transform="translate(172.119141 0.578125)"/>
      <use xlink:href="#DejaVuSans-73" transform="translate(224.21875 0.578125)"/>
      <use xlink:href="#DejaVuSans-20" transform="translate(276.318359 0.578125)"/>
      <use xlink:href="#DejaVuSans-45" transform="translate(308.105469 0.578125)"/>
      <use xlink:href="#DejaVuSans-6e" transform="translate(371.289062 0.578125)"/>
      <use xlink:href="#DejaVuSans-74" transform="translate(434.667969 0.578125)"/>
      <use xlink:href="#DejaVuSans-72" transform="translate(473.876953 0.578125)"/>
      <use xlink:href="#DejaVuSans-6f" transform="translate(514.990234 0.578125)"/>
      <use xlink:href="#DejaVuSans-70" transform="translate(576.171875 0.578125)"/>
      <use xlink:href="#DejaVuSans-79" transform="translate(639.648438 0.578125)"/>
      <use xlink:href="#DejaVuSans-20" transform="translate(698.828125 0.578125)"/>
      <use xlink:href="#DejaVuSans-4c" transform="translate(730.615234 0.578125)"/>
      <use xlink:href="#DejaVuSans-6f" transform="translate(786.328125 0.578125)"/>
      <use xlink:href="#DejaVuSans-73" transform="translate(847.509766 0.578125)"/>
      <use xlink:href="#DejaVuSans-73" transform="translate(899.609375 0.578125)"/>
      <use xlink:href="#DejaVuSans-20" transform="translate(951.708984 0.578125)"/>
      <use xlink:href="#DejaVuSans-28" transform="translate(983.496094 0.578125)"/>
      <use xlink:href="#DejaVuSans-304" transform="translate(1084.648438 0.484375)"/>
      <use xlink:href="#DejaVuSans-Oblique-78" transform="translate(1022.509766 0.578125)"/>
      <use xlink:href="#DejaVuSans-b1" transform="translate(1101.171875 0.578125)"/>
      <use xlink:href="#DejaVuSans-Oblique-73" transform="translate(1204.443359 0.578125)"/>
      <use xlink:href="#DejaVuSans-f7" transform="translate(1276.025391 0.578125)"/>
      <use xlink:href="#STIXSizeOneSym-Regular-221a" transform="translate(1379.296875 17.09375)scale(0.563912)"/>
      <use xlink:href="#DejaVuSans-Oblique-4e" transform="translate(1451.385239 0.84375)"/>
      <use xlink:href="#DejaVuSans-29" transform="translate(1538.689926 0.578125)"/>
      <path d="M 1438.885239 97.5 
L 1438.885239 103.75 
L 1538.689926 103.75 
L 1538.689926 97.5 
L 1438.885239 97.5 
z
"/>
     </g>
    </g>
   </g>
   <g id="line2d_31">
    <path d="M 57.681818 3.705922 
L 62.65508 130.346293 
L 67.628342 181.954495 
L 72.601604 210.699255 
L 77.574866 229.979944 
L 82.548128 243.717103 
L 87.52139 254.070195 
L 92.494652 262.19018 
L 97.467914 268.46528 
L 102.441176 273.433371 
L 107.414439 277.413359 
L 112.387701 280.69758 
L 117.360963 283.929851 
L 122.334225 286.459415 
L 127.307487 288.549469 
L 132.280749 289.954357 
L 137.254011 291.575205 
L 142.227273 292.638855 
L 147.200535 294.306915 
L 152.173797 294.930027 
L 157.147059 296.003863 
L 162.120321 296.839606 
L 167.093583 297.08623 
L 172.066845 297.374397 
L 177.040107 297.837745 
L 182.013369 298.036281 
L 186.986631 298.528882 
L 191.959893 298.434425 
L 196.933155 298.374165 
L 201.906417 298.281604 
L 206.879679 298.205467 
L 211.852941 298.125824 
L 216.826203 298.070492 
L 221.799465 297.714395 
" clip-path="url(#pc928dfb613)" style="fill: none; stroke: #1f77b4; stroke-width: 1.5; stroke-linecap: square"/>
   </g>
   <g id="line2d_32">
    <path d="M 57.681818 83.102398 
L 62.65508 200.678392 
L 67.628342 245.056307 
L 72.601604 267.68653 
L 77.574866 282.869432 
L 82.548128 294.253353 
L 87.52139 302.61275 
L 92.494652 308.092806 
L 97.467914 314.243583 
L 102.441176 317.962044 
L 107.414439 321.900295 
L 112.387701 324.704559 
L 117.360963 326.966623 
L 122.334225 329.307075 
L 127.307487 330.984076 
L 132.280749 332.537321 
L 137.254011 333.836792 
L 142.227273 335.625139 
L 147.200535 336.203502 
L 152.173797 337.749283 
L 157.147059 338.347854 
L 162.120321 338.577484 
L 167.093583 339.703368 
L 172.066845 340.117149 
L 177.040107 339.271937 
L 182.013369 340.136499 
L 186.986631 341.208916 
L 191.959893 341.622212 
L 196.933155 341.687943 
L 201.906417 341.987524 
L 206.879679 342.044843 
L 211.852941 341.893591 
L 216.826203 341.356366 
L 221.799465 341.272834 
L 226.772727 341.555594 
" clip-path="url(#pc928dfb613)" style="fill: none; stroke: #ff7f0e; stroke-width: 1.5; stroke-linecap: square"/>
   </g>
   <g id="line2d_33">
    <path d="M 60.65755 -1 
L 62.65508 45.892152 
L 67.628342 94.722115 
L 72.601604 122.301102 
L 77.574866 141.112106 
L 82.548128 157.303964 
L 87.52139 164.309723 
L 92.494652 174.114657 
L 97.467914 180.948081 
L 102.441176 186.295729 
L 107.414439 192.0907 
L 112.387701 194.721098 
L 117.360963 199.22551 
L 122.334225 200.584934 
L 127.307487 202.750225 
L 132.280749 204.510325 
L 137.254011 207.394208 
L 142.227273 208.59058 
L 147.200535 208.684704 
L 152.173797 210.492643 
L 157.147059 210.4922 
L 162.120321 212.433514 
L 167.093583 213.13961 
L 172.066845 212.834254 
L 177.040107 213.232796 
L 182.013369 214.760163 
L 186.986631 214.093723 
L 191.959893 215.964917 
L 196.933155 215.734539 
L 201.906417 215.729675 
L 206.879679 214.863042 
L 211.852941 214.945663 
" clip-path="url(#pc928dfb613)" style="fill: none; stroke: #2ca02c; stroke-width: 1.5; stroke-linecap: square"/>
   </g>
   <g id="line2d_34">
    <path d="M 57.681818 36.497377 
L 62.65508 159.663177 
L 67.628342 206.150087 
L 72.601604 232.94827 
L 77.574866 249.643621 
L 82.548128 261.521826 
L 87.52139 269.992219 
L 92.494652 278.095079 
L 97.467914 283.333459 
L 102.441176 287.039338 
L 107.414439 290.789466 
L 112.387701 294.337886 
L 117.360963 296.156917 
L 122.334225 297.939391 
L 127.307487 300.051903 
L 132.280749 301.152817 
L 137.254011 302.038328 
L 142.227273 303.63344 
L 147.200535 303.642378 
L 152.173797 303.93058 
L 157.147059 304.753604 
L 162.120321 304.908335 
L 167.093583 304.455148 
L 172.066845 304.406181 
L 177.040107 304.477547 
L 182.013369 304.252606 
L 186.986631 304.272882 
" clip-path="url(#pc928dfb613)" style="fill: none; stroke: #d62728; stroke-width: 1.5; stroke-linecap: square"/>
   </g>
   <g id="line2d_35">
    <path d="M 57.681818 100.532304 
L 62.65508 161.029256 
L 67.628342 184.311906 
L 72.601604 197.387928 
L 77.574866 205.111705 
L 82.548128 212.000984 
L 87.52139 217.611147 
L 92.494652 218.20891 
L 97.467914 222.54851 
L 102.441176 223.875717 
L 107.414439 226.347139 
L 112.387701 229.007811 
L 117.360963 227.343278 
L 122.334225 231.643784 
L 127.307487 230.463544 
L 132.280749 230.462278 
L 137.254011 228.900981 
L 142.227273 230.748208 
L 147.200535 228.093009 
L 152.173797 231.446208 
L 157.147059 229.504217 
" clip-path="url(#pc928dfb613)" style="fill: none; stroke-dasharray: 5.55,2.4; stroke-dashoffset: 0; stroke: #9467bd; stroke-width: 1.5"/>
   </g>
   <g id="line2d_36">
    <path d="M 57.681818 11.437412 
L 62.65508 138.2235 
L 67.628342 182.47393 
L 72.601604 205.211031 
L 77.574866 224.977333 
L 82.548128 234.652959 
L 87.52139 244.044258 
L 92.494652 247.306545 
L 97.467914 256.942718 
L 102.441176 256.104395 
L 107.414439 262.164024 
L 112.387701 265.310466 
L 117.360963 265.625858 
L 122.334225 266.574574 
L 127.307487 269.919205 
L 132.280749 269.892278 
L 137.254011 272.084891 
L 142.227273 272.763961 
L 147.200535 273.349532 
L 152.173797 276.419329 
L 157.147059 272.516202 
L 162.120321 276.660568 
L 167.093583 275.050541 
L 172.066845 277.564063 
L 177.040107 275.629449 
L 182.013369 275.413987 
L 186.986631 278.737953 
L 191.959893 276.984585 
L 196.933155 276.315189 
L 201.906417 275.670627 
L 206.879679 276.093642 
" clip-path="url(#pc928dfb613)" style="fill: none; stroke-dasharray: 5.55,2.4; stroke-dashoffset: 0; stroke: #8c564b; stroke-width: 1.5"/>
   </g>
   <g id="line2d_37">
    <path d="M 66.441284 -1 
L 67.628342 18.364108 
L 72.601604 63.257297 
L 77.574866 94.947263 
L 82.548128 116.173485 
L 87.52139 133.599211 
L 92.494652 145.709882 
L 97.467914 156.274447 
L 102.441176 164.76216 
L 107.414439 172.030101 
L 112.387701 177.650973 
L 117.360963 182.364546 
L 122.334225 186.574567 
L 127.307487 190.211269 
L 132.280749 193.496483 
L 137.254011 195.675853 
L 142.227273 198.311998 
L 147.200535 200.695058 
L 152.173797 202.489548 
L 157.147059 203.20136 
L 162.120321 205.016091 
L 167.093583 206.282198 
L 172.066845 206.994968 
L 177.040107 207.780777 
L 182.013369 208.75416 
L 186.986631 209.751148 
L 191.959893 209.486079 
L 196.933155 210.575333 
L 201.906417 211.407326 
L 206.879679 210.979443 
L 211.852941 211.495294 
L 216.826203 211.844722 
L 221.799465 211.364922 
" clip-path="url(#pc928dfb613)" style="fill: none; stroke-dasharray: 5.55,2.4; stroke-dashoffset: 0; stroke: #e377c2; stroke-width: 1.5"/>
   </g>
   <g id="line2d_38">
    <path d="M 59.669935 -1 
L 62.65508 87.704781 
L 67.628342 149.824989 
L 72.601604 185.293149 
L 77.574866 209.095314 
L 82.548128 226.054361 
L 87.52139 239.331962 
L 92.494652 249.815496 
L 97.467914 257.663747 
L 102.441176 264.313627 
L 107.414439 269.739468 
L 112.387701 275.373673 
L 117.360963 279.438321 
L 122.334225 283.549354 
L 127.307487 287.038477 
L 132.280749 289.959382 
L 137.254011 292.786142 
L 142.227273 294.80493 
L 147.200535 297.686918 
L 152.173797 299.6929 
L 157.147059 301.377447 
L 162.120321 302.840755 
L 167.093583 303.869491 
L 172.066845 305.438585 
L 177.040107 306.286476 
L 182.013369 307.497431 
L 186.986631 308.197692 
L 191.959893 309.453353 
L 196.933155 310.690232 
L 201.906417 310.940767 
L 206.879679 312.181377 
L 211.852941 312.621684 
L 216.826203 313.479641 
L 221.799465 314.099775 
L 226.772727 313.964165 
L 231.745989 315.603024 
L 236.719251 314.486417 
L 241.692513 315.762168 
L 246.665775 316.352138 
L 251.639037 316.506418 
L 256.612299 317.630731 
L 261.585561 317.433298 
L 266.558824 317.4489 
L 271.532086 317.871102 
L 276.505348 317.822893 
L 281.47861 318.771743 
L 286.451872 319.209295 
L 291.425134 318.624334 
L 296.398396 318.72182 
L 301.371658 319.19943 
L 306.34492 319.245599 
L 311.318182 319.778344 
" clip-path="url(#pc928dfb613)" style="fill: none; stroke-dasharray: 5.55,2.4; stroke-dashoffset: 0; stroke: #7f7f7f; stroke-width: 1.5"/>
   </g>
   <g id="patch_3">
    <path d="M 45 378 
L 45 51.84 
" style="fill: none; stroke: #000000; stroke-width: 0.8; stroke-linejoin: miter; stroke-linecap: square"/>
   </g>
   <g id="patch_4">
    <path d="M 324 378 
L 324 51.84 
" style="fill: none; stroke: #000000; stroke-width: 0.8; stroke-linejoin: miter; stroke-linecap: square"/>
   </g>
   <g id="patch_5">
    <path d="M 45 378 
L 324 378 
" style="fill: none; stroke: #000000; stroke-width: 0.8; stroke-linejoin: miter; stroke-linecap: square"/>
   </g>
   <g id="patch_6">
    <path d="M 45 51.84 
L 324 51.84 
" style="fill: none; stroke: #000000; stroke-width: 0.8; stroke-linejoin: miter; stroke-linecap: square"/>
   </g>
   <g id="legend_1">
    <g id="patch_7">
     <path d="M 200.907812 178.93375 
L 317 178.93375 
Q 319 178.93375 319 176.93375 
L 319 58.84 
Q 319 56.84 317 56.84 
L 200.907812 56.84 
Q 198.907812 56.84 198.907812 58.84 
L 198.907812 176.93375 
Q 198.907812 178.93375 200.907812 178.93375 
z
" style="fill: #ffffff; opacity: 0.8; stroke: #cccccc; stroke-linejoin: miter"/>
    </g>
    <g id="line2d_39">
     <path d="M 202.907812 64.938437 
L 212.907812 64.938437 
L 222.907812 64.938437 
" style="fill: none; stroke: #1f77b4; stroke-width: 1.5; stroke-linecap: square"/>
    </g>
    <g id="text_18">
     <!-- vit_b_16 -->
     <g transform="translate(230.907812 68.438437)scale(0.1 -0.1)">
      <defs>
       <path id="DejaVuSans-76" d="M 191 3500 
L 800 3500 
L 1894 563 
L 2988 3500 
L 3597 3500 
L 2284 0 
L 1503 0 
L 191 3500 
z
" transform="scale(0.015625)"/>
       <path id="DejaVuSans-69" d="M 603 3500 
L 1178 3500 
L 1178 0 
L 603 0 
L 603 3500 
z
M 603 4863 
L 1178 4863 
L 1178 4134 
L 603 4134 
L 603 4863 
z
" transform="scale(0.015625)"/>
       <path id="DejaVuSans-5f" d="M 3263 -1063 
L 3263 -1509 
L -63 -1509 
L -63 -1063 
L 3263 -1063 
z
" transform="scale(0.015625)"/>
       <path id="DejaVuSans-62" d="M 3116 1747 
Q 3116 2381 2855 2742 
Q 2594 3103 2138 3103 
Q 1681 3103 1420 2742 
Q 1159 2381 1159 1747 
Q 1159 1113 1420 752 
Q 1681 391 2138 391 
Q 2594 391 2855 752 
Q 3116 1113 3116 1747 
z
M 1159 2969 
Q 1341 3281 1617 3432 
Q 1894 3584 2278 3584 
Q 2916 3584 3314 3078 
Q 3713 2572 3713 1747 
Q 3713 922 3314 415 
Q 2916 -91 2278 -91 
Q 1894 -91 1617 61 
Q 1341 213 1159 525 
L 1159 0 
L 581 0 
L 581 4863 
L 1159 4863 
L 1159 2969 
z
" transform="scale(0.015625)"/>
      </defs>
      <use xlink:href="#DejaVuSans-76"/>
      <use xlink:href="#DejaVuSans-69" x="59.179688"/>
      <use xlink:href="#DejaVuSans-74" x="86.962891"/>
      <use xlink:href="#DejaVuSans-5f" x="126.171875"/>
      <use xlink:href="#DejaVuSans-62" x="176.171875"/>
      <use xlink:href="#DejaVuSans-5f" x="239.648438"/>
      <use xlink:href="#DejaVuSans-31" x="289.648438"/>
      <use xlink:href="#DejaVuSans-36" x="353.271484"/>
     </g>
    </g>
    <g id="line2d_40">
     <path d="M 202.907812 79.894687 
L 212.907812 79.894687 
L 222.907812 79.894687 
" style="fill: none; stroke: #ff7f0e; stroke-width: 1.5; stroke-linecap: square"/>
    </g>
    <g id="text_19">
     <!-- swin_b -->
     <g transform="translate(230.907812 83.394687)scale(0.1 -0.1)">
      <defs>
       <path id="DejaVuSans-77" d="M 269 3500 
L 844 3500 
L 1563 769 
L 2278 3500 
L 2956 3500 
L 3675 769 
L 4391 3500 
L 4966 3500 
L 4050 0 
L 3372 0 
L 2619 2869 
L 1863 0 
L 1184 0 
L 269 3500 
z
" transform="scale(0.015625)"/>
      </defs>
      <use xlink:href="#DejaVuSans-73"/>
      <use xlink:href="#DejaVuSans-77" x="52.099609"/>
      <use xlink:href="#DejaVuSans-69" x="133.886719"/>
      <use xlink:href="#DejaVuSans-6e" x="161.669922"/>
      <use xlink:href="#DejaVuSans-5f" x="225.048828"/>
      <use xlink:href="#DejaVuSans-62" x="275.048828"/>
     </g>
    </g>
    <g id="line2d_41">
     <path d="M 202.907812 94.850937 
L 212.907812 94.850937 
L 222.907812 94.850937 
" style="fill: none; stroke: #2ca02c; stroke-width: 1.5; stroke-linecap: square"/>
    </g>
    <g id="text_20">
     <!-- beit_b_16 -->
     <g transform="translate(230.907812 98.350937)scale(0.1 -0.1)">
      <defs>
       <path id="DejaVuSans-65" d="M 3597 1894 
L 3597 1613 
L 953 1613 
Q 991 1019 1311 708 
Q 1631 397 2203 397 
Q 2534 397 2845 478 
Q 3156 559 3463 722 
L 3463 178 
Q 3153 47 2828 -22 
Q 2503 -91 2169 -91 
Q 1331 -91 842 396 
Q 353 884 353 1716 
Q 353 2575 817 3079 
Q 1281 3584 2069 3584 
Q 2775 3584 3186 3129 
Q 3597 2675 3597 1894 
z
M 3022 2063 
Q 3016 2534 2758 2815 
Q 2500 3097 2075 3097 
Q 1594 3097 1305 2825 
Q 1016 2553 972 2059 
L 3022 2063 
z
" transform="scale(0.015625)"/>
      </defs>
      <use xlink:href="#DejaVuSans-62"/>
      <use xlink:href="#DejaVuSans-65" x="63.476562"/>
      <use xlink:href="#DejaVuSans-69" x="125"/>
      <use xlink:href="#DejaVuSans-74" x="152.783203"/>
      <use xlink:href="#DejaVuSans-5f" x="191.992188"/>
      <use xlink:href="#DejaVuSans-62" x="241.992188"/>
      <use xlink:href="#DejaVuSans-5f" x="305.46875"/>
      <use xlink:href="#DejaVuSans-31" x="355.46875"/>
      <use xlink:href="#DejaVuSans-36" x="419.091797"/>
     </g>
    </g>
    <g id="line2d_42">
     <path d="M 202.907812 109.807187 
L 212.907812 109.807187 
L 222.907812 109.807187 
" style="fill: none; stroke: #d62728; stroke-width: 1.5; stroke-linecap: square"/>
    </g>
    <g id="text_21">
     <!-- deit_b_16 -->
     <g transform="translate(230.907812 113.307187)scale(0.1 -0.1)">
      <defs>
       <path id="DejaVuSans-64" d="M 2906 2969 
L 2906 4863 
L 3481 4863 
L 3481 0 
L 2906 0 
L 2906 525 
Q 2725 213 2448 61 
Q 2172 -91 1784 -91 
Q 1150 -91 751 415 
Q 353 922 353 1747 
Q 353 2572 751 3078 
Q 1150 3584 1784 3584 
Q 2172 3584 2448 3432 
Q 2725 3281 2906 2969 
z
M 947 1747 
Q 947 1113 1208 752 
Q 1469 391 1925 391 
Q 2381 391 2643 752 
Q 2906 1113 2906 1747 
Q 2906 2381 2643 2742 
Q 2381 3103 1925 3103 
Q 1469 3103 1208 2742 
Q 947 2381 947 1747 
z
" transform="scale(0.015625)"/>
      </defs>
      <use xlink:href="#DejaVuSans-64"/>
      <use xlink:href="#DejaVuSans-65" x="63.476562"/>
      <use xlink:href="#DejaVuSans-69" x="125"/>
      <use xlink:href="#DejaVuSans-74" x="152.783203"/>
      <use xlink:href="#DejaVuSans-5f" x="191.992188"/>
      <use xlink:href="#DejaVuSans-62" x="241.992188"/>
      <use xlink:href="#DejaVuSans-5f" x="305.46875"/>
      <use xlink:href="#DejaVuSans-31" x="355.46875"/>
      <use xlink:href="#DejaVuSans-36" x="419.091797"/>
     </g>
    </g>
    <g id="line2d_43">
     <path d="M 202.907812 124.763437 
L 212.907812 124.763437 
L 222.907812 124.763437 
" style="fill: none; stroke-dasharray: 5.55,2.4; stroke-dashoffset: 0; stroke: #9467bd; stroke-width: 1.5"/>
    </g>
    <g id="text_22">
     <!-- vgg19 -->
     <g transform="translate(230.907812 128.263437)scale(0.1 -0.1)">
      <defs>
       <path id="DejaVuSans-67" d="M 2906 1791 
Q 2906 2416 2648 2759 
Q 2391 3103 1925 3103 
Q 1463 3103 1205 2759 
Q 947 2416 947 1791 
Q 947 1169 1205 825 
Q 1463 481 1925 481 
Q 2391 481 2648 825 
Q 2906 1169 2906 1791 
z
M 3481 434 
Q 3481 -459 3084 -895 
Q 2688 -1331 1869 -1331 
Q 1566 -1331 1297 -1286 
Q 1028 -1241 775 -1147 
L 775 -588 
Q 1028 -725 1275 -790 
Q 1522 -856 1778 -856 
Q 2344 -856 2625 -561 
Q 2906 -266 2906 331 
L 2906 616 
Q 2728 306 2450 153 
Q 2172 0 1784 0 
Q 1141 0 747 490 
Q 353 981 353 1791 
Q 353 2603 747 3093 
Q 1141 3584 1784 3584 
Q 2172 3584 2450 3431 
Q 2728 3278 2906 2969 
L 2906 3500 
L 3481 3500 
L 3481 434 
z
" transform="scale(0.015625)"/>
      </defs>
      <use xlink:href="#DejaVuSans-76"/>
      <use xlink:href="#DejaVuSans-67" x="59.179688"/>
      <use xlink:href="#DejaVuSans-67" x="122.65625"/>
      <use xlink:href="#DejaVuSans-31" x="186.132812"/>
      <use xlink:href="#DejaVuSans-39" x="249.755859"/>
     </g>
    </g>
    <g id="line2d_44">
     <path d="M 202.907812 139.441562 
L 212.907812 139.441562 
L 222.907812 139.441562 
" style="fill: none; stroke-dasharray: 5.55,2.4; stroke-dashoffset: 0; stroke: #8c564b; stroke-width: 1.5"/>
    </g>
    <g id="text_23">
     <!-- resnet50 -->
     <g transform="translate(230.907812 142.941562)scale(0.1 -0.1)">
      <use xlink:href="#DejaVuSans-72"/>
      <use xlink:href="#DejaVuSans-65" x="38.863281"/>
      <use xlink:href="#DejaVuSans-73" x="100.386719"/>
      <use xlink:href="#DejaVuSans-6e" x="152.486328"/>
      <use xlink:href="#DejaVuSans-65" x="215.865234"/>
      <use xlink:href="#DejaVuSans-74" x="277.388672"/>
      <use xlink:href="#DejaVuSans-35" x="316.597656"/>
      <use xlink:href="#DejaVuSans-30" x="380.220703"/>
     </g>
    </g>
    <g id="line2d_45">
     <path d="M 202.907812 154.119687 
L 212.907812 154.119687 
L 222.907812 154.119687 
" style="fill: none; stroke-dasharray: 5.55,2.4; stroke-dashoffset: 0; stroke: #e377c2; stroke-width: 1.5"/>
    </g>
    <g id="text_24">
     <!-- efficientnetv2_m -->
     <g transform="translate(230.907812 157.619687)scale(0.1 -0.1)">
      <defs>
       <path id="DejaVuSans-66" d="M 2375 4863 
L 2375 4384 
L 1825 4384 
Q 1516 4384 1395 4259 
Q 1275 4134 1275 3809 
L 1275 3500 
L 2222 3500 
L 2222 3053 
L 1275 3053 
L 1275 0 
L 697 0 
L 697 3053 
L 147 3053 
L 147 3500 
L 697 3500 
L 697 3744 
Q 697 4328 969 4595 
Q 1241 4863 1831 4863 
L 2375 4863 
z
" transform="scale(0.015625)"/>
       <path id="DejaVuSans-6d" d="M 3328 2828 
Q 3544 3216 3844 3400 
Q 4144 3584 4550 3584 
Q 5097 3584 5394 3201 
Q 5691 2819 5691 2113 
L 5691 0 
L 5113 0 
L 5113 2094 
Q 5113 2597 4934 2840 
Q 4756 3084 4391 3084 
Q 3944 3084 3684 2787 
Q 3425 2491 3425 1978 
L 3425 0 
L 2847 0 
L 2847 2094 
Q 2847 2600 2669 2842 
Q 2491 3084 2119 3084 
Q 1678 3084 1418 2786 
Q 1159 2488 1159 1978 
L 1159 0 
L 581 0 
L 581 3500 
L 1159 3500 
L 1159 2956 
Q 1356 3278 1631 3431 
Q 1906 3584 2284 3584 
Q 2666 3584 2933 3390 
Q 3200 3197 3328 2828 
z
" transform="scale(0.015625)"/>
      </defs>
      <use xlink:href="#DejaVuSans-65"/>
      <use xlink:href="#DejaVuSans-66" x="61.523438"/>
      <use xlink:href="#DejaVuSans-66" x="96.728516"/>
      <use xlink:href="#DejaVuSans-69" x="131.933594"/>
      <use xlink:href="#DejaVuSans-63" x="159.716797"/>
      <use xlink:href="#DejaVuSans-69" x="214.697266"/>
      <use xlink:href="#DejaVuSans-65" x="242.480469"/>
      <use xlink:href="#DejaVuSans-6e" x="304.003906"/>
      <use xlink:href="#DejaVuSans-74" x="367.382812"/>
      <use xlink:href="#DejaVuSans-6e" x="406.591797"/>
      <use xlink:href="#DejaVuSans-65" x="469.970703"/>
      <use xlink:href="#DejaVuSans-74" x="531.494141"/>
      <use xlink:href="#DejaVuSans-76" x="570.703125"/>
      <use xlink:href="#DejaVuSans-32" x="629.882812"/>
      <use xlink:href="#DejaVuSans-5f" x="693.505859"/>
      <use xlink:href="#DejaVuSans-6d" x="743.505859"/>
     </g>
    </g>
    <g id="line2d_46">
     <path d="M 202.907812 169.075937 
L 212.907812 169.075937 
L 222.907812 169.075937 
" style="fill: none; stroke-dasharray: 5.55,2.4; stroke-dashoffset: 0; stroke: #7f7f7f; stroke-width: 1.5"/>
    </g>
    <g id="text_25">
     <!-- convnext_b -->
     <g transform="translate(230.907812 172.575937)scale(0.1 -0.1)">
      <defs>
       <path id="DejaVuSans-78" d="M 3513 3500 
L 2247 1797 
L 3578 0 
L 2900 0 
L 1881 1375 
L 863 0 
L 184 0 
L 1544 1831 
L 300 3500 
L 978 3500 
L 1906 2253 
L 2834 3500 
L 3513 3500 
z
" transform="scale(0.015625)"/>
      </defs>
      <use xlink:href="#DejaVuSans-63"/>
      <use xlink:href="#DejaVuSans-6f" x="54.980469"/>
      <use xlink:href="#DejaVuSans-6e" x="116.162109"/>
      <use xlink:href="#DejaVuSans-76" x="179.541016"/>
      <use xlink:href="#DejaVuSans-6e" x="238.720703"/>
      <use xlink:href="#DejaVuSans-65" x="302.099609"/>
      <use xlink:href="#DejaVuSans-78" x="361.873047"/>
      <use xlink:href="#DejaVuSans-74" x="421.052734"/>
      <use xlink:href="#DejaVuSans-5f" x="460.261719"/>
      <use xlink:href="#DejaVuSans-62" x="510.261719"/>
     </g>
    </g>
   </g>
  </g>
 </g>
 <defs>
  <clipPath id="pc928dfb613">
   <rect x="45" y="51.84" width="279" height="326.16"/>
  </clipPath>
 </defs>
</svg>
