<?xml version="1.0" encoding="utf-8" standalone="no"?>
<!DOCTYPE svg PUBLIC "-//W3C//DTD SVG 1.1//EN"
  "http://www.w3.org/Graphics/SVG/1.1/DTD/svg11.dtd">
<svg xmlns:xlink="http://www.w3.org/1999/xlink" width="288pt" height="324pt" viewBox="0 0 288 324" xmlns="http://www.w3.org/2000/svg" version="1.1">
 <metadata>
  <rdf:RDF xmlns:dc="http://purl.org/dc/elements/1.1/" xmlns:cc="http://creativecommons.org/ns#" xmlns:rdf="http://www.w3.org/1999/02/22-rdf-syntax-ns#">
   <cc:Work>
    <dc:type rdf:resource="http://purl.org/dc/dcmitype/StillImage"/>
    <dc:date>2022-06-15T09:21:55.876297</dc:date>
    <dc:format>image/svg+xml</dc:format>
    <dc:creator>
     <cc:Agent>
      <dc:title>Matplotlib v3.5.2, https://matplotlib.org/</dc:title>
     </cc:Agent>
    </dc:creator>
   </cc:Work>
  </rdf:RDF>
 </metadata>
 <defs>
  <style type="text/css">*{stroke-linejoin: round; stroke-linecap: butt}</style>
 </defs>
 <g id="figure_1">
  <g id="patch_1">
   <path d="M 0 324 
L 288 324 
L 288 0 
L 0 0 
L 0 324 
z
" style="fill: none"/>
  </g>
  <g id="axes_1">
   <g id="patch_2">
    <path d="M 36 283.5 
L 259.2 283.5 
L 259.2 38.88 
L 36 38.88 
z
" style="fill: #ffffff"/>
   </g>
   <g id="PolyCollection_1">
    <path d="M 46.145455 267.881419 
L 46.145455 278.054081 
L 52.909091 224.321967 
L 59.672727 200.64323 
L 66.436364 187.850249 
L 73.2 180.119456 
L 79.963636 177.07446 
L 86.727273 170.716048 
L 93.490909 167.061499 
L 100.254545 164.562409 
L 107.018182 164.555498 
L 113.781818 163.485471 
L 120.545455 163.54392 
L 127.309091 165.133601 
L 134.072727 159.971897 
L 140.836364 161.469585 
L 147.6 161.302019 
L 154.363636 159.29023 
L 161.127273 162.039375 
L 167.890909 156.503593 
L 174.654545 160.079102 
L 181.418182 159.177558 
L 188.181818 159.583676 
L 194.945455 161.449248 
L 201.709091 158.492336 
L 208.472727 159.054054 
L 215.236364 160.832516 
L 222 157.602261 
L 228.763636 157.882372 
L 235.527273 157.71006 
L 242.290909 156.106214 
L 249.054545 157.654837 
L 249.054545 150.455663 
L 249.054545 150.455663 
L 242.290909 150.305536 
L 235.527273 149.04144 
L 228.763636 150.567878 
L 222 149.828739 
L 215.236364 152.713984 
L 208.472727 150.415446 
L 201.709091 149.957914 
L 194.945455 150.058752 
L 188.181818 150.905074 
L 181.418182 150.291942 
L 174.654545 150.409648 
L 167.890909 149.228657 
L 161.127273 153.885375 
L 154.363636 150.51902 
L 147.6 150.885481 
L 140.836364 152.416665 
L 134.072727 151.536103 
L 127.309091 155.207899 
L 120.545455 154.07958 
L 113.781818 153.458529 
L 107.018182 157.824502 
L 100.254545 158.836841 
L 93.490909 158.376251 
L 86.727273 161.856452 
L 79.963636 170.78679 
L 73.2 174.536794 
L 66.436364 180.735751 
L 59.672727 193.08427 
L 52.909091 212.893533 
L 46.145455 267.881419 
z
" clip-path="url(#p9653c1a3b4)" style="fill: #1f77b4; fill-opacity: 0.2"/>
   </g>
   <g id="PolyCollection_2">
    <path d="M 46.145455 210.181555 
L 46.145455 213.104195 
L 52.909091 181.763007 
L 59.672727 167.587816 
L 66.436364 159.201963 
L 73.2 153.242419 
L 79.963636 149.686993 
L 86.727273 148.535256 
L 93.490909 143.722083 
L 100.254545 141.409646 
L 107.018182 140.043391 
L 113.781818 139.209296 
L 120.545455 136.944841 
L 127.309091 138.201536 
L 134.072727 135.839316 
L 140.836364 137.246708 
L 147.6 133.615394 
L 154.363636 133.280942 
L 161.127273 133.013773 
L 167.890909 132.530659 
L 174.654545 128.157723 
L 181.418182 132.547574 
L 188.181818 130.638789 
L 194.945455 130.66097 
L 201.709091 130.32709 
L 208.472727 129.083625 
L 215.236364 129.328297 
L 222 128.886943 
L 228.763636 127.495912 
L 235.527273 128.91375 
L 242.290909 128.35553 
L 242.290909 123.35647 
L 242.290909 123.35647 
L 235.527273 124.15725 
L 228.763636 123.876338 
L 222 126.222557 
L 215.236364 125.781203 
L 208.472727 124.666875 
L 201.709091 126.82091 
L 194.945455 126.14728 
L 188.181818 127.868211 
L 181.418182 131.395426 
L 174.654545 127.291527 
L 167.890909 128.694341 
L 161.127273 129.230477 
L 154.363636 128.963308 
L 147.6 129.987856 
L 140.836364 132.472042 
L 134.072727 131.840934 
L 127.309091 136.953214 
L 120.545455 134.132909 
L 113.781818 135.605704 
L 107.018182 137.489609 
L 100.254545 137.822104 
L 93.490909 139.246917 
L 86.727273 140.888994 
L 79.963636 142.795007 
L 73.2 148.073081 
L 66.436364 154.004787 
L 59.672727 163.625684 
L 52.909091 176.970243 
L 46.145455 210.181555 
z
" clip-path="url(#p9653c1a3b4)" style="fill: #ff7f0e; fill-opacity: 0.2"/>
   </g>
   <g id="PolyCollection_3">
    <path d="M 46.145455 252.026296 
L 46.145455 258.235454 
L 52.909091 214.626055 
L 59.672727 194.51793 
L 66.436364 189.54696 
L 73.2 185.347817 
L 79.963636 180.119456 
L 86.727273 177.194159 
L 93.490909 174.317341 
L 100.254545 174.445343 
L 107.018182 170.430923 
L 113.781818 170.113878 
L 120.545455 165.067132 
L 127.309091 167.455479 
L 134.072727 165.457041 
L 140.836364 167.455479 
L 147.6 161.406478 
L 154.363636 164.051201 
L 161.127273 162.741898 
L 167.890909 165.705127 
L 174.654545 163.319865 
L 181.418182 164.123147 
L 188.181818 161.19 
L 194.945455 164.881133 
L 201.709091 165.436875 
L 208.472727 162.703367 
L 215.236364 162.18907 
L 215.236364 155.77418 
L 215.236364 155.77418 
L 208.472727 158.997133 
L 201.709091 162.718875 
L 194.945455 156.479617 
L 188.181818 154.395 
L 181.418182 159.615853 
L 174.654545 157.701135 
L 167.890909 158.713373 
L 161.127273 158.958602 
L 154.363636 158.668549 
L 147.6 154.858022 
L 140.836364 162.399021 
L 134.072727 158.281959 
L 127.309091 162.399021 
L 120.545455 161.729618 
L 113.781818 163.477872 
L 107.018182 164.180077 
L 100.254545 165.941407 
L 93.490909 171.505409 
L 86.727273 170.327341 
L 79.963636 174.536794 
L 73.2 178.821433 
L 66.436364 184.81479 
L 59.672727 190.03632 
L 52.909091 206.960945 
L 46.145455 252.026296 
z
" clip-path="url(#p9653c1a3b4)" style="fill: #2ca02c; fill-opacity: 0.2"/>
   </g>
   <g id="PolyCollection_4">
    <path d="M 46.145455 243.034512 
L 46.145455 251.258988 
L 52.909091 212.616008 
L 59.672727 198.159682 
L 66.436364 185.011656 
L 73.2 180.725625 
L 79.963636 178.86664 
L 86.727273 174.434707 
L 93.490909 174.677409 
L 100.254545 173.453456 
L 107.018182 172.409464 
L 113.781818 166.946061 
L 120.545455 163.43314 
L 127.309091 165.962971 
L 134.072727 168.208453 
L 140.836364 163.56825 
L 147.6 158.098045 
L 154.363636 165.11407 
L 161.127273 164.048219 
L 167.890909 159.838066 
L 174.654545 163.338768 
L 181.418182 163.247919 
L 188.181818 157.996665 
L 194.945455 163.261174 
L 201.709091 158.309179 
L 201.709091 156.256571 
L 201.709091 156.256571 
L 194.945455 155.721326 
L 188.181818 152.492085 
L 181.418182 155.055081 
L 174.654545 159.041232 
L 167.890909 155.746934 
L 161.127273 156.293281 
L 154.363636 158.28518 
L 147.6 153.070205 
L 140.836364 159.49125 
L 134.072727 159.267797 
L 127.309091 159.814529 
L 120.545455 157.58786 
L 113.781818 162.568689 
L 107.018182 164.919536 
L 100.254545 163.196044 
L 93.490909 167.747841 
L 86.727273 166.631543 
L 79.963636 171.37286 
L 73.2 174.949875 
L 66.436364 175.760094 
L 59.672727 193.189568 
L 52.909091 204.214492 
L 46.145455 243.034512 
z
" clip-path="url(#p9653c1a3b4)" style="fill: #d62728; fill-opacity: 0.2"/>
   </g>
   <g id="PolyCollection_5">
    <path d="M 46.145455 251.5751 
L 46.145455 259.0264 
L 52.909091 204.529228 
L 59.672727 195.511816 
L 66.436364 181.225428 
L 73.2 182.321784 
L 79.963636 177.121565 
L 86.727273 173.469493 
L 93.490909 167.520647 
L 100.254545 162.760872 
L 107.018182 166.116375 
L 113.781818 159.848435 
L 120.545455 162.205708 
L 127.309091 161.254398 
L 134.072727 161.299889 
L 140.836364 166.799566 
L 147.6 160.5105 
L 154.363636 157.566488 
L 161.127273 159.875504 
L 167.890909 159.661125 
L 174.654545 157.652097 
L 181.418182 159.240827 
L 188.181818 158.547093 
L 194.945455 156.343839 
L 201.709091 158.376922 
L 208.472727 161.999265 
L 215.236364 156.777107 
L 222 161.470912 
L 222 157.851338 
L 222 157.851338 
L 215.236364 153.032143 
L 208.472727 156.643485 
L 201.709091 154.829828 
L 194.945455 151.766661 
L 188.181818 156.358407 
L 181.418182 154.305673 
L 174.654545 154.195653 
L 167.890909 155.244375 
L 161.127273 153.670996 
L 154.363636 154.281262 
L 147.6 157.7925 
L 140.836364 158.977934 
L 134.072727 154.624861 
L 127.309091 156.708852 
L 120.545455 158.135792 
L 113.781818 154.037815 
L 107.018182 160.340625 
L 100.254545 158.939628 
L 93.490909 163.013353 
L 86.727273 166.577507 
L 79.963636 172.438435 
L 73.2 175.392216 
L 66.436364 176.828322 
L 59.672727 191.420684 
L 52.909091 201.089522 
L 46.145455 251.5751 
z
" clip-path="url(#p9653c1a3b4)" style="fill: #9467bd; fill-opacity: 0.2"/>
   </g>
   <g id="matplotlib.axis_1">
    <g id="xtick_1">
     <g id="line2d_1">
      <path d="M 39.381818 283.5 
L 39.381818 38.88 
" clip-path="url(#p9653c1a3b4)" style="fill: none; stroke: #b0b0b0; stroke-width: 0.8; stroke-linecap: square"/>
     </g>
     <g id="line2d_2">
      <defs>
       <path id="m2fcf599924" d="M 0 0 
L 0 3.5 
" style="stroke: #000000; stroke-width: 0.8"/>
      </defs>
      <g>
       <use xlink:href="#m2fcf599924" x="39.381818" y="283.5" style="stroke: #000000; stroke-width: 0.8"/>
      </g>
     </g>
     <g id="text_1">
      <!-- 0 -->
      <g transform="translate(36.200568 298.098437)scale(0.1 -0.1)">
       <defs>
        <path id="DejaVuSans-30" d="M 2034 4250 
Q 1547 4250 1301 3770 
Q 1056 3291 1056 2328 
Q 1056 1369 1301 889 
Q 1547 409 2034 409 
Q 2525 409 2770 889 
Q 3016 1369 3016 2328 
Q 3016 3291 2770 3770 
Q 2525 4250 2034 4250 
z
M 2034 4750 
Q 2819 4750 3233 4129 
Q 3647 3509 3647 2328 
Q 3647 1150 3233 529 
Q 2819 -91 2034 -91 
Q 1250 -91 836 529 
Q 422 1150 422 2328 
Q 422 3509 836 4129 
Q 1250 4750 2034 4750 
z
" transform="scale(0.015625)"/>
       </defs>
       <use xlink:href="#DejaVuSans-30"/>
      </g>
     </g>
    </g>
    <g id="xtick_2">
     <g id="line2d_3">
      <path d="M 73.2 283.5 
L 73.2 38.88 
" clip-path="url(#p9653c1a3b4)" style="fill: none; stroke: #b0b0b0; stroke-width: 0.8; stroke-linecap: square"/>
     </g>
     <g id="line2d_4">
      <g>
       <use xlink:href="#m2fcf599924" x="73.2" y="283.5" style="stroke: #000000; stroke-width: 0.8"/>
      </g>
     </g>
     <g id="text_2">
      <!-- 5 -->
      <g transform="translate(70.01875 298.098437)scale(0.1 -0.1)">
       <defs>
        <path id="DejaVuSans-35" d="M 691 4666 
L 3169 4666 
L 3169 4134 
L 1269 4134 
L 1269 2991 
Q 1406 3038 1543 3061 
Q 1681 3084 1819 3084 
Q 2600 3084 3056 2656 
Q 3513 2228 3513 1497 
Q 3513 744 3044 326 
Q 2575 -91 1722 -91 
Q 1428 -91 1123 -41 
Q 819 9 494 109 
L 494 744 
Q 775 591 1075 516 
Q 1375 441 1709 441 
Q 2250 441 2565 725 
Q 2881 1009 2881 1497 
Q 2881 1984 2565 2268 
Q 2250 2553 1709 2553 
Q 1456 2553 1204 2497 
Q 953 2441 691 2322 
L 691 4666 
z
" transform="scale(0.015625)"/>
       </defs>
       <use xlink:href="#DejaVuSans-35"/>
      </g>
     </g>
    </g>
    <g id="xtick_3">
     <g id="line2d_5">
      <path d="M 107.018182 283.5 
L 107.018182 38.88 
" clip-path="url(#p9653c1a3b4)" style="fill: none; stroke: #b0b0b0; stroke-width: 0.8; stroke-linecap: square"/>
     </g>
     <g id="line2d_6">
      <g>
       <use xlink:href="#m2fcf599924" x="107.018182" y="283.5" style="stroke: #000000; stroke-width: 0.8"/>
      </g>
     </g>
     <g id="text_3">
      <!-- 10 -->
      <g transform="translate(100.655682 298.098437)scale(0.1 -0.1)">
       <defs>
        <path id="DejaVuSans-31" d="M 794 531 
L 1825 531 
L 1825 4091 
L 703 3866 
L 703 4441 
L 1819 4666 
L 2450 4666 
L 2450 531 
L 3481 531 
L 3481 0 
L 794 0 
L 794 531 
z
" transform="scale(0.015625)"/>
       </defs>
       <use xlink:href="#DejaVuSans-31"/>
       <use xlink:href="#DejaVuSans-30" x="63.623047"/>
      </g>
     </g>
    </g>
    <g id="xtick_4">
     <g id="line2d_7">
      <path d="M 140.836364 283.5 
L 140.836364 38.88 
" clip-path="url(#p9653c1a3b4)" style="fill: none; stroke: #b0b0b0; stroke-width: 0.8; stroke-linecap: square"/>
     </g>
     <g id="line2d_8">
      <g>
       <use xlink:href="#m2fcf599924" x="140.836364" y="283.5" style="stroke: #000000; stroke-width: 0.8"/>
      </g>
     </g>
     <g id="text_4">
      <!-- 15 -->
      <g transform="translate(134.473864 298.098437)scale(0.1 -0.1)">
       <use xlink:href="#DejaVuSans-31"/>
       <use xlink:href="#DejaVuSans-35" x="63.623047"/>
      </g>
     </g>
    </g>
    <g id="xtick_5">
     <g id="line2d_9">
      <path d="M 174.654545 283.5 
L 174.654545 38.88 
" clip-path="url(#p9653c1a3b4)" style="fill: none; stroke: #b0b0b0; stroke-width: 0.8; stroke-linecap: square"/>
     </g>
     <g id="line2d_10">
      <g>
       <use xlink:href="#m2fcf599924" x="174.654545" y="283.5" style="stroke: #000000; stroke-width: 0.8"/>
      </g>
     </g>
     <g id="text_5">
      <!-- 20 -->
      <g transform="translate(168.292045 298.098437)scale(0.1 -0.1)">
       <defs>
        <path id="DejaVuSans-32" d="M 1228 531 
L 3431 531 
L 3431 0 
L 469 0 
L 469 531 
Q 828 903 1448 1529 
Q 2069 2156 2228 2338 
Q 2531 2678 2651 2914 
Q 2772 3150 2772 3378 
Q 2772 3750 2511 3984 
Q 2250 4219 1831 4219 
Q 1534 4219 1204 4116 
Q 875 4013 500 3803 
L 500 4441 
Q 881 4594 1212 4672 
Q 1544 4750 1819 4750 
Q 2544 4750 2975 4387 
Q 3406 4025 3406 3419 
Q 3406 3131 3298 2873 
Q 3191 2616 2906 2266 
Q 2828 2175 2409 1742 
Q 1991 1309 1228 531 
z
" transform="scale(0.015625)"/>
       </defs>
       <use xlink:href="#DejaVuSans-32"/>
       <use xlink:href="#DejaVuSans-30" x="63.623047"/>
      </g>
     </g>
    </g>
    <g id="xtick_6">
     <g id="line2d_11">
      <path d="M 208.472727 283.5 
L 208.472727 38.88 
" clip-path="url(#p9653c1a3b4)" style="fill: none; stroke: #b0b0b0; stroke-width: 0.8; stroke-linecap: square"/>
     </g>
     <g id="line2d_12">
      <g>
       <use xlink:href="#m2fcf599924" x="208.472727" y="283.5" style="stroke: #000000; stroke-width: 0.8"/>
      </g>
     </g>
     <g id="text_6">
      <!-- 25 -->
      <g transform="translate(202.110227 298.098437)scale(0.1 -0.1)">
       <use xlink:href="#DejaVuSans-32"/>
       <use xlink:href="#DejaVuSans-35" x="63.623047"/>
      </g>
     </g>
    </g>
    <g id="xtick_7">
     <g id="line2d_13">
      <path d="M 242.290909 283.5 
L 242.290909 38.88 
" clip-path="url(#p9653c1a3b4)" style="fill: none; stroke: #b0b0b0; stroke-width: 0.8; stroke-linecap: square"/>
     </g>
     <g id="line2d_14">
      <g>
       <use xlink:href="#m2fcf599924" x="242.290909" y="283.5" style="stroke: #000000; stroke-width: 0.8"/>
      </g>
     </g>
     <g id="text_7">
      <!-- 30 -->
      <g transform="translate(235.928409 298.098437)scale(0.1 -0.1)">
       <defs>
        <path id="DejaVuSans-33" d="M 2597 2516 
Q 3050 2419 3304 2112 
Q 3559 1806 3559 1356 
Q 3559 666 3084 287 
Q 2609 -91 1734 -91 
Q 1441 -91 1130 -33 
Q 819 25 488 141 
L 488 750 
Q 750 597 1062 519 
Q 1375 441 1716 441 
Q 2309 441 2620 675 
Q 2931 909 2931 1356 
Q 2931 1769 2642 2001 
Q 2353 2234 1838 2234 
L 1294 2234 
L 1294 2753 
L 1863 2753 
Q 2328 2753 2575 2939 
Q 2822 3125 2822 3475 
Q 2822 3834 2567 4026 
Q 2313 4219 1838 4219 
Q 1578 4219 1281 4162 
Q 984 4106 628 3988 
L 628 4550 
Q 988 4650 1302 4700 
Q 1616 4750 1894 4750 
Q 2613 4750 3031 4423 
Q 3450 4097 3450 3541 
Q 3450 3153 3228 2886 
Q 3006 2619 2597 2516 
z
" transform="scale(0.015625)"/>
       </defs>
       <use xlink:href="#DejaVuSans-33"/>
       <use xlink:href="#DejaVuSans-30" x="63.623047"/>
      </g>
     </g>
    </g>
    <g id="text_8">
     <!-- Epochs -->
     <g transform="translate(129.684375 311.776563)scale(0.1 -0.1)">
      <defs>
       <path id="DejaVuSans-45" d="M 628 4666 
L 3578 4666 
L 3578 4134 
L 1259 4134 
L 1259 2753 
L 3481 2753 
L 3481 2222 
L 1259 2222 
L 1259 531 
L 3634 531 
L 3634 0 
L 628 0 
L 628 4666 
z
" transform="scale(0.015625)"/>
       <path id="DejaVuSans-70" d="M 1159 525 
L 1159 -1331 
L 581 -1331 
L 581 3500 
L 1159 3500 
L 1159 2969 
Q 1341 3281 1617 3432 
Q 1894 3584 2278 3584 
Q 2916 3584 3314 3078 
Q 3713 2572 3713 1747 
Q 3713 922 3314 415 
Q 2916 -91 2278 -91 
Q 1894 -91 1617 61 
Q 1341 213 1159 525 
z
M 3116 1747 
Q 3116 2381 2855 2742 
Q 2594 3103 2138 3103 
Q 1681 3103 1420 2742 
Q 1159 2381 1159 1747 
Q 1159 1113 1420 752 
Q 1681 391 2138 391 
Q 2594 391 2855 752 
Q 3116 1113 3116 1747 
z
" transform="scale(0.015625)"/>
       <path id="DejaVuSans-6f" d="M 1959 3097 
Q 1497 3097 1228 2736 
Q 959 2375 959 1747 
Q 959 1119 1226 758 
Q 1494 397 1959 397 
Q 2419 397 2687 759 
Q 2956 1122 2956 1747 
Q 2956 2369 2687 2733 
Q 2419 3097 1959 3097 
z
M 1959 3584 
Q 2709 3584 3137 3096 
Q 3566 2609 3566 1747 
Q 3566 888 3137 398 
Q 2709 -91 1959 -91 
Q 1206 -91 779 398 
Q 353 888 353 1747 
Q 353 2609 779 3096 
Q 1206 3584 1959 3584 
z
" transform="scale(0.015625)"/>
       <path id="DejaVuSans-63" d="M 3122 3366 
L 3122 2828 
Q 2878 2963 2633 3030 
Q 2388 3097 2138 3097 
Q 1578 3097 1268 2742 
Q 959 2388 959 1747 
Q 959 1106 1268 751 
Q 1578 397 2138 397 
Q 2388 397 2633 464 
Q 2878 531 3122 666 
L 3122 134 
Q 2881 22 2623 -34 
Q 2366 -91 2075 -91 
Q 1284 -91 818 406 
Q 353 903 353 1747 
Q 353 2603 823 3093 
Q 1294 3584 2113 3584 
Q 2378 3584 2631 3529 
Q 2884 3475 3122 3366 
z
" transform="scale(0.015625)"/>
       <path id="DejaVuSans-68" d="M 3513 2113 
L 3513 0 
L 2938 0 
L 2938 2094 
Q 2938 2591 2744 2837 
Q 2550 3084 2163 3084 
Q 1697 3084 1428 2787 
Q 1159 2491 1159 1978 
L 1159 0 
L 581 0 
L 581 4863 
L 1159 4863 
L 1159 2956 
Q 1366 3272 1645 3428 
Q 1925 3584 2291 3584 
Q 2894 3584 3203 3211 
Q 3513 2838 3513 2113 
z
" transform="scale(0.015625)"/>
       <path id="DejaVuSans-73" d="M 2834 3397 
L 2834 2853 
Q 2591 2978 2328 3040 
Q 2066 3103 1784 3103 
Q 1356 3103 1142 2972 
Q 928 2841 928 2578 
Q 928 2378 1081 2264 
Q 1234 2150 1697 2047 
L 1894 2003 
Q 2506 1872 2764 1633 
Q 3022 1394 3022 966 
Q 3022 478 2636 193 
Q 2250 -91 1575 -91 
Q 1294 -91 989 -36 
Q 684 19 347 128 
L 347 722 
Q 666 556 975 473 
Q 1284 391 1588 391 
Q 1994 391 2212 530 
Q 2431 669 2431 922 
Q 2431 1156 2273 1281 
Q 2116 1406 1581 1522 
L 1381 1569 
Q 847 1681 609 1914 
Q 372 2147 372 2553 
Q 372 3047 722 3315 
Q 1072 3584 1716 3584 
Q 2034 3584 2315 3537 
Q 2597 3491 2834 3397 
z
" transform="scale(0.015625)"/>
      </defs>
      <use xlink:href="#DejaVuSans-45"/>
      <use xlink:href="#DejaVuSans-70" x="63.183594"/>
      <use xlink:href="#DejaVuSans-6f" x="126.660156"/>
      <use xlink:href="#DejaVuSans-63" x="187.841797"/>
      <use xlink:href="#DejaVuSans-68" x="242.822266"/>
      <use xlink:href="#DejaVuSans-73" x="306.201172"/>
     </g>
    </g>
   </g>
   <g id="matplotlib.axis_2">
    <g id="ytick_1">
     <g id="line2d_15">
      <path d="M 36 283.5 
L 259.2 283.5 
" clip-path="url(#p9653c1a3b4)" style="fill: none; stroke: #b0b0b0; stroke-width: 0.8; stroke-linecap: square"/>
     </g>
     <g id="line2d_16">
      <defs>
       <path id="mb599f368b8" d="M 0 0 
L -3.5 0 
" style="stroke: #000000; stroke-width: 0.8"/>
      </defs>
      <g>
       <use xlink:href="#mb599f368b8" x="36" y="283.5" style="stroke: #000000; stroke-width: 0.8"/>
      </g>
     </g>
     <g id="text_9">
      <!-- 0.70 -->
      <g transform="translate(6.734375 287.299219)scale(0.1 -0.1)">
       <defs>
        <path id="DejaVuSans-2e" d="M 684 794 
L 1344 794 
L 1344 0 
L 684 0 
L 684 794 
z
" transform="scale(0.015625)"/>
        <path id="DejaVuSans-37" d="M 525 4666 
L 3525 4666 
L 3525 4397 
L 1831 0 
L 1172 0 
L 2766 4134 
L 525 4134 
L 525 4666 
z
" transform="scale(0.015625)"/>
       </defs>
       <use xlink:href="#DejaVuSans-30"/>
       <use xlink:href="#DejaVuSans-2e" x="63.623047"/>
       <use xlink:href="#DejaVuSans-37" x="95.410156"/>
       <use xlink:href="#DejaVuSans-30" x="159.033203"/>
      </g>
     </g>
    </g>
    <g id="ytick_2">
     <g id="line2d_17">
      <path d="M 36 242.73 
L 259.2 242.73 
" clip-path="url(#p9653c1a3b4)" style="fill: none; stroke: #b0b0b0; stroke-width: 0.8; stroke-linecap: square"/>
     </g>
     <g id="line2d_18">
      <g>
       <use xlink:href="#mb599f368b8" x="36" y="242.73" style="stroke: #000000; stroke-width: 0.8"/>
      </g>
     </g>
     <g id="text_10">
      <!-- 0.75 -->
      <g transform="translate(6.734375 246.529219)scale(0.1 -0.1)">
       <use xlink:href="#DejaVuSans-30"/>
       <use xlink:href="#DejaVuSans-2e" x="63.623047"/>
       <use xlink:href="#DejaVuSans-37" x="95.410156"/>
       <use xlink:href="#DejaVuSans-35" x="159.033203"/>
      </g>
     </g>
    </g>
    <g id="ytick_3">
     <g id="line2d_19">
      <path d="M 36 201.96 
L 259.2 201.96 
" clip-path="url(#p9653c1a3b4)" style="fill: none; stroke: #b0b0b0; stroke-width: 0.8; stroke-linecap: square"/>
     </g>
     <g id="line2d_20">
      <g>
       <use xlink:href="#mb599f368b8" x="36" y="201.96" style="stroke: #000000; stroke-width: 0.8"/>
      </g>
     </g>
     <g id="text_11">
      <!-- 0.80 -->
      <g transform="translate(6.734375 205.759219)scale(0.1 -0.1)">
       <defs>
        <path id="DejaVuSans-38" d="M 2034 2216 
Q 1584 2216 1326 1975 
Q 1069 1734 1069 1313 
Q 1069 891 1326 650 
Q 1584 409 2034 409 
Q 2484 409 2743 651 
Q 3003 894 3003 1313 
Q 3003 1734 2745 1975 
Q 2488 2216 2034 2216 
z
M 1403 2484 
Q 997 2584 770 2862 
Q 544 3141 544 3541 
Q 544 4100 942 4425 
Q 1341 4750 2034 4750 
Q 2731 4750 3128 4425 
Q 3525 4100 3525 3541 
Q 3525 3141 3298 2862 
Q 3072 2584 2669 2484 
Q 3125 2378 3379 2068 
Q 3634 1759 3634 1313 
Q 3634 634 3220 271 
Q 2806 -91 2034 -91 
Q 1263 -91 848 271 
Q 434 634 434 1313 
Q 434 1759 690 2068 
Q 947 2378 1403 2484 
z
M 1172 3481 
Q 1172 3119 1398 2916 
Q 1625 2713 2034 2713 
Q 2441 2713 2670 2916 
Q 2900 3119 2900 3481 
Q 2900 3844 2670 4047 
Q 2441 4250 2034 4250 
Q 1625 4250 1398 4047 
Q 1172 3844 1172 3481 
z
" transform="scale(0.015625)"/>
       </defs>
       <use xlink:href="#DejaVuSans-30"/>
       <use xlink:href="#DejaVuSans-2e" x="63.623047"/>
       <use xlink:href="#DejaVuSans-38" x="95.410156"/>
       <use xlink:href="#DejaVuSans-30" x="159.033203"/>
      </g>
     </g>
    </g>
    <g id="ytick_4">
     <g id="line2d_21">
      <path d="M 36 161.19 
L 259.2 161.19 
" clip-path="url(#p9653c1a3b4)" style="fill: none; stroke: #b0b0b0; stroke-width: 0.8; stroke-linecap: square"/>
     </g>
     <g id="line2d_22">
      <g>
       <use xlink:href="#mb599f368b8" x="36" y="161.19" style="stroke: #000000; stroke-width: 0.8"/>
      </g>
     </g>
     <g id="text_12">
      <!-- 0.85 -->
      <g transform="translate(6.734375 164.989219)scale(0.1 -0.1)">
       <use xlink:href="#DejaVuSans-30"/>
       <use xlink:href="#DejaVuSans-2e" x="63.623047"/>
       <use xlink:href="#DejaVuSans-38" x="95.410156"/>
       <use xlink:href="#DejaVuSans-35" x="159.033203"/>
      </g>
     </g>
    </g>
    <g id="ytick_5">
     <g id="line2d_23">
      <path d="M 36 120.42 
L 259.2 120.42 
" clip-path="url(#p9653c1a3b4)" style="fill: none; stroke: #b0b0b0; stroke-width: 0.8; stroke-linecap: square"/>
     </g>
     <g id="line2d_24">
      <g>
       <use xlink:href="#mb599f368b8" x="36" y="120.42" style="stroke: #000000; stroke-width: 0.8"/>
      </g>
     </g>
     <g id="text_13">
      <!-- 0.90 -->
      <g transform="translate(6.734375 124.219219)scale(0.1 -0.1)">
       <defs>
        <path id="DejaVuSans-39" d="M 703 97 
L 703 672 
Q 941 559 1184 500 
Q 1428 441 1663 441 
Q 2288 441 2617 861 
Q 2947 1281 2994 2138 
Q 2813 1869 2534 1725 
Q 2256 1581 1919 1581 
Q 1219 1581 811 2004 
Q 403 2428 403 3163 
Q 403 3881 828 4315 
Q 1253 4750 1959 4750 
Q 2769 4750 3195 4129 
Q 3622 3509 3622 2328 
Q 3622 1225 3098 567 
Q 2575 -91 1691 -91 
Q 1453 -91 1209 -44 
Q 966 3 703 97 
z
M 1959 2075 
Q 2384 2075 2632 2365 
Q 2881 2656 2881 3163 
Q 2881 3666 2632 3958 
Q 2384 4250 1959 4250 
Q 1534 4250 1286 3958 
Q 1038 3666 1038 3163 
Q 1038 2656 1286 2365 
Q 1534 2075 1959 2075 
z
" transform="scale(0.015625)"/>
       </defs>
       <use xlink:href="#DejaVuSans-30"/>
       <use xlink:href="#DejaVuSans-2e" x="63.623047"/>
       <use xlink:href="#DejaVuSans-39" x="95.410156"/>
       <use xlink:href="#DejaVuSans-30" x="159.033203"/>
      </g>
     </g>
    </g>
    <g id="ytick_6">
     <g id="line2d_25">
      <path d="M 36 79.65 
L 259.2 79.65 
" clip-path="url(#p9653c1a3b4)" style="fill: none; stroke: #b0b0b0; stroke-width: 0.8; stroke-linecap: square"/>
     </g>
     <g id="line2d_26">
      <g>
       <use xlink:href="#mb599f368b8" x="36" y="79.65" style="stroke: #000000; stroke-width: 0.8"/>
      </g>
     </g>
     <g id="text_14">
      <!-- 0.95 -->
      <g transform="translate(6.734375 83.449219)scale(0.1 -0.1)">
       <use xlink:href="#DejaVuSans-30"/>
       <use xlink:href="#DejaVuSans-2e" x="63.623047"/>
       <use xlink:href="#DejaVuSans-39" x="95.410156"/>
       <use xlink:href="#DejaVuSans-35" x="159.033203"/>
      </g>
     </g>
    </g>
    <g id="ytick_7">
     <g id="line2d_27">
      <path d="M 36 38.88 
L 259.2 38.88 
" clip-path="url(#p9653c1a3b4)" style="fill: none; stroke: #b0b0b0; stroke-width: 0.8; stroke-linecap: square"/>
     </g>
     <g id="line2d_28">
      <g>
       <use xlink:href="#mb599f368b8" x="36" y="38.88" style="stroke: #000000; stroke-width: 0.8"/>
      </g>
     </g>
     <g id="text_15">
      <!-- 1.00 -->
      <g transform="translate(6.734375 42.679219)scale(0.1 -0.1)">
       <use xlink:href="#DejaVuSans-31"/>
       <use xlink:href="#DejaVuSans-2e" x="63.623047"/>
       <use xlink:href="#DejaVuSans-30" x="95.410156"/>
       <use xlink:href="#DejaVuSans-30" x="159.033203"/>
      </g>
     </g>
    </g>
    <g id="text_16">
     <!-- Accuracy ($\bar{x} \pm s \div \sqrt{N}$) -->
     <g transform="translate(0.634375 215.44)rotate(-90)scale(0.1 -0.1)">
      <defs>
       <path id="DejaVuSans-41" d="M 2188 4044 
L 1331 1722 
L 3047 1722 
L 2188 4044 
z
M 1831 4666 
L 2547 4666 
L 4325 0 
L 3669 0 
L 3244 1197 
L 1141 1197 
L 716 0 
L 50 0 
L 1831 4666 
z
" transform="scale(0.015625)"/>
       <path id="DejaVuSans-75" d="M 544 1381 
L 544 3500 
L 1119 3500 
L 1119 1403 
Q 1119 906 1312 657 
Q 1506 409 1894 409 
Q 2359 409 2629 706 
Q 2900 1003 2900 1516 
L 2900 3500 
L 3475 3500 
L 3475 0 
L 2900 0 
L 2900 538 
Q 2691 219 2414 64 
Q 2138 -91 1772 -91 
Q 1169 -91 856 284 
Q 544 659 544 1381 
z
M 1991 3584 
L 1991 3584 
z
" transform="scale(0.015625)"/>
       <path id="DejaVuSans-72" d="M 2631 2963 
Q 2534 3019 2420 3045 
Q 2306 3072 2169 3072 
Q 1681 3072 1420 2755 
Q 1159 2438 1159 1844 
L 1159 0 
L 581 0 
L 581 3500 
L 1159 3500 
L 1159 2956 
Q 1341 3275 1631 3429 
Q 1922 3584 2338 3584 
Q 2397 3584 2469 3576 
Q 2541 3569 2628 3553 
L 2631 2963 
z
" transform="scale(0.015625)"/>
       <path id="DejaVuSans-61" d="M 2194 1759 
Q 1497 1759 1228 1600 
Q 959 1441 959 1056 
Q 959 750 1161 570 
Q 1363 391 1709 391 
Q 2188 391 2477 730 
Q 2766 1069 2766 1631 
L 2766 1759 
L 2194 1759 
z
M 3341 1997 
L 3341 0 
L 2766 0 
L 2766 531 
Q 2569 213 2275 61 
Q 1981 -91 1556 -91 
Q 1019 -91 701 211 
Q 384 513 384 1019 
Q 384 1609 779 1909 
Q 1175 2209 1959 2209 
L 2766 2209 
L 2766 2266 
Q 2766 2663 2505 2880 
Q 2244 3097 1772 3097 
Q 1472 3097 1187 3025 
Q 903 2953 641 2809 
L 641 3341 
Q 956 3463 1253 3523 
Q 1550 3584 1831 3584 
Q 2591 3584 2966 3190 
Q 3341 2797 3341 1997 
z
" transform="scale(0.015625)"/>
       <path id="DejaVuSans-79" d="M 2059 -325 
Q 1816 -950 1584 -1140 
Q 1353 -1331 966 -1331 
L 506 -1331 
L 506 -850 
L 844 -850 
Q 1081 -850 1212 -737 
Q 1344 -625 1503 -206 
L 1606 56 
L 191 3500 
L 800 3500 
L 1894 763 
L 2988 3500 
L 3597 3500 
L 2059 -325 
z
" transform="scale(0.015625)"/>
       <path id="DejaVuSans-20" transform="scale(0.015625)"/>
       <path id="DejaVuSans-28" d="M 1984 4856 
Q 1566 4138 1362 3434 
Q 1159 2731 1159 2009 
Q 1159 1288 1364 580 
Q 1569 -128 1984 -844 
L 1484 -844 
Q 1016 -109 783 600 
Q 550 1309 550 2009 
Q 550 2706 781 3412 
Q 1013 4119 1484 4856 
L 1984 4856 
z
" transform="scale(0.015625)"/>
       <path id="DejaVuSans-304" d="M -2518 4769 
L -650 4769 
L -650 4306 
L -2518 4306 
L -2518 4769 
z
" transform="scale(0.015625)"/>
       <path id="DejaVuSans-Oblique-78" d="M 3841 3500 
L 2234 1784 
L 3219 0 
L 2559 0 
L 1819 1388 
L 531 0 
L -166 0 
L 1556 1844 
L 641 3500 
L 1300 3500 
L 1972 2234 
L 3144 3500 
L 3841 3500 
z
" transform="scale(0.015625)"/>
       <path id="DejaVuSans-b1" d="M 2944 4013 
L 2944 2803 
L 4684 2803 
L 4684 2272 
L 2944 2272 
L 2944 1063 
L 2419 1063 
L 2419 2272 
L 678 2272 
L 678 2803 
L 2419 2803 
L 2419 4013 
L 2944 4013 
z
M 678 531 
L 4684 531 
L 4684 0 
L 678 0 
L 678 531 
z
" transform="scale(0.015625)"/>
       <path id="DejaVuSans-Oblique-73" d="M 3200 3397 
L 3091 2853 
Q 2863 2978 2609 3040 
Q 2356 3103 2088 3103 
Q 1634 3103 1373 2948 
Q 1113 2794 1113 2528 
Q 1113 2219 1719 2053 
Q 1766 2041 1788 2034 
L 1972 1978 
Q 2547 1819 2739 1644 
Q 2931 1469 2931 1166 
Q 2931 609 2489 259 
Q 2047 -91 1331 -91 
Q 1053 -91 747 -37 
Q 441 16 72 128 
L 184 722 
Q 500 559 806 475 
Q 1113 391 1394 391 
Q 1816 391 2080 572 
Q 2344 753 2344 1031 
Q 2344 1331 1650 1516 
L 1591 1531 
L 1394 1581 
Q 956 1697 753 1886 
Q 550 2075 550 2369 
Q 550 2928 970 3256 
Q 1391 3584 2113 3584 
Q 2397 3584 2667 3537 
Q 2938 3491 3200 3397 
z
" transform="scale(0.015625)"/>
       <path id="DejaVuSans-f7" d="M 2297 3547 
L 3066 3547 
L 3066 2778 
L 2297 2778 
L 2297 3547 
z
M 2297 1234 
L 3066 1234 
L 3066 469 
L 2297 469 
L 2297 1234 
z
M 678 2272 
L 4684 2272 
L 4684 1741 
L 678 1741 
L 678 2272 
z
" transform="scale(0.015625)"/>
       <path id="STIXSizeOneSym-Regular-221a" d="M 6970 9933 
L 3373 -1888 
L 3104 -1888 
L 1626 2918 
Q 1555 3149 1465 3251 
Q 1376 3354 1229 3354 
Q 1011 3354 794 3181 
L 717 3309 
L 1766 4115 
L 1926 4115 
L 3379 -602 
L 3405 -602 
L 6605 9933 
L 6970 9933 
z
" transform="scale(0.015625)"/>
       <path id="DejaVuSans-Oblique-4e" d="M 1081 4666 
L 1931 4666 
L 3219 666 
L 4000 4666 
L 4616 4666 
L 3706 0 
L 2853 0 
L 1569 4025 
L 788 0 
L 172 0 
L 1081 4666 
z
" transform="scale(0.015625)"/>
       <path id="DejaVuSans-29" d="M 513 4856 
L 1013 4856 
Q 1481 4119 1714 3412 
Q 1947 2706 1947 2009 
Q 1947 1309 1714 600 
Q 1481 -109 1013 -844 
L 513 -844 
Q 928 -128 1133 580 
Q 1338 1288 1338 2009 
Q 1338 2731 1133 3434 
Q 928 4138 513 4856 
z
" transform="scale(0.015625)"/>
      </defs>
      <use xlink:href="#DejaVuSans-41" transform="translate(0 0.578125)"/>
      <use xlink:href="#DejaVuSans-63" transform="translate(68.408203 0.578125)"/>
      <use xlink:href="#DejaVuSans-63" transform="translate(123.388672 0.578125)"/>
      <use xlink:href="#DejaVuSans-75" transform="translate(178.369141 0.578125)"/>
      <use xlink:href="#DejaVuSans-72" transform="translate(241.748047 0.578125)"/>
      <use xlink:href="#DejaVuSans-61" transform="translate(282.861328 0.578125)"/>
      <use xlink:href="#DejaVuSans-63" transform="translate(344.140625 0.578125)"/>
      <use xlink:href="#DejaVuSans-79" transform="translate(399.121094 0.578125)"/>
      <use xlink:href="#DejaVuSans-20" transform="translate(458.300781 0.578125)"/>
      <use xlink:href="#DejaVuSans-28" transform="translate(490.087891 0.578125)"/>
      <use xlink:href="#DejaVuSans-304" transform="translate(591.240234 0.484375)"/>
      <use xlink:href="#DejaVuSans-Oblique-78" transform="translate(529.101562 0.578125)"/>
      <use xlink:href="#DejaVuSans-b1" transform="translate(607.763672 0.578125)"/>
      <use xlink:href="#DejaVuSans-Oblique-73" transform="translate(711.035156 0.578125)"/>
      <use xlink:href="#DejaVuSans-f7" transform="translate(782.617188 0.578125)"/>
      <use xlink:href="#STIXSizeOneSym-Regular-221a" transform="translate(885.888672 17.09375)scale(0.563912)"/>
      <use xlink:href="#DejaVuSans-Oblique-4e" transform="translate(957.977036 0.84375)"/>
      <use xlink:href="#DejaVuSans-29" transform="translate(1045.281723 0.578125)"/>
      <path d="M 945.477036 97.5 
L 945.477036 103.75 
L 1045.281723 103.75 
L 1045.281723 97.5 
L 945.477036 97.5 
z
"/>
     </g>
    </g>
   </g>
   <g id="line2d_29">
    <path d="M 46.145455 272.96775 
L 52.909091 218.60775 
L 59.672727 196.86375 
L 66.436364 184.293 
L 73.2 177.328125 
L 79.963636 173.930625 
L 86.727273 166.28625 
L 93.490909 162.718875 
L 100.254545 161.699625 
L 107.018182 161.19 
L 113.781818 158.472 
L 120.545455 158.81175 
L 127.309091 160.17075 
L 134.072727 155.754 
L 140.836364 156.943125 
L 147.6 156.09375 
L 154.363636 154.904625 
L 161.127273 157.962375 
L 167.890909 152.866125 
L 174.654545 155.244375 
L 181.418182 154.73475 
L 188.181818 155.244375 
L 194.945455 155.754 
L 201.709091 154.225125 
L 208.472727 154.73475 
L 215.236364 156.77325 
L 222 153.7155 
L 228.763636 154.225125 
L 235.527273 153.37575 
L 242.290909 153.205875 
L 249.054545 154.05525 
" clip-path="url(#p9653c1a3b4)" style="fill: none; stroke: #1f77b4; stroke-width: 1.5; stroke-linecap: square"/>
   </g>
   <g id="line2d_30">
    <path d="M 46.145455 211.642875 
L 52.909091 179.366625 
L 59.672727 165.60675 
L 66.436364 156.603375 
L 73.2 150.65775 
L 79.963636 146.241 
L 86.727273 144.712125 
L 93.490909 141.4845 
L 100.254545 139.615875 
L 107.018182 138.7665 
L 113.781818 137.4075 
L 120.545455 135.538875 
L 127.309091 137.577375 
L 134.072727 133.840125 
L 140.836364 134.859375 
L 147.6 131.801625 
L 154.363636 131.122125 
L 161.127273 131.122125 
L 167.890909 130.6125 
L 174.654545 127.724625 
L 181.418182 131.9715 
L 188.181818 129.2535 
L 194.945455 128.404125 
L 201.709091 128.574 
L 208.472727 126.87525 
L 215.236364 127.55475 
L 222 127.55475 
L 228.763636 125.686125 
L 235.527273 126.5355 
L 242.290909 125.856 
" clip-path="url(#p9653c1a3b4)" style="fill: none; stroke: #ff7f0e; stroke-width: 1.5; stroke-linecap: square"/>
   </g>
   <g id="line2d_31">
    <path d="M 46.145455 255.130875 
L 52.909091 210.7935 
L 59.672727 192.277125 
L 66.436364 187.180875 
L 73.2 182.084625 
L 79.963636 177.328125 
L 86.727273 173.76075 
L 93.490909 172.911375 
L 100.254545 170.193375 
L 107.018182 167.3055 
L 113.781818 166.795875 
L 120.545455 163.398375 
L 127.309091 164.92725 
L 134.072727 161.8695 
L 140.836364 164.92725 
L 147.6 158.13225 
L 154.363636 161.359875 
L 161.127273 160.85025 
L 167.890909 162.20925 
L 174.654545 160.5105 
L 181.418182 161.8695 
L 188.181818 157.7925 
L 194.945455 160.680375 
L 201.709091 164.077875 
L 208.472727 160.85025 
L 215.236364 158.981625 
" clip-path="url(#p9653c1a3b4)" style="fill: none; stroke-dasharray: 5.55,2.4; stroke-dashoffset: 0; stroke: #2ca02c; stroke-width: 1.5"/>
   </g>
   <g id="line2d_32">
    <path d="M 46.145455 247.14675 
L 52.909091 208.41525 
L 59.672727 195.674625 
L 66.436364 180.385875 
L 73.2 177.83775 
L 79.963636 175.11975 
L 86.727273 170.533125 
L 93.490909 171.212625 
L 100.254545 168.32475 
L 107.018182 168.6645 
L 113.781818 164.757375 
L 120.545455 160.5105 
L 127.309091 162.88875 
L 134.072727 163.738125 
L 140.836364 161.52975 
L 147.6 155.584125 
L 154.363636 161.699625 
L 161.127273 160.17075 
L 167.890909 157.7925 
L 174.654545 161.19 
L 181.418182 159.1515 
L 188.181818 155.244375 
L 194.945455 159.49125 
L 201.709091 157.282875 
" clip-path="url(#p9653c1a3b4)" style="fill: none; stroke-dasharray: 5.55,2.4; stroke-dashoffset: 0; stroke: #d62728; stroke-width: 1.5"/>
   </g>
   <g id="line2d_33">
    <path d="M 46.145455 255.30075 
L 52.909091 202.809375 
L 59.672727 193.46625 
L 66.436364 179.026875 
L 73.2 178.857 
L 79.963636 174.78 
L 86.727273 170.0235 
L 93.490909 165.267 
L 100.254545 160.85025 
L 107.018182 163.2285 
L 113.781818 156.943125 
L 120.545455 160.17075 
L 127.309091 158.981625 
L 134.072727 157.962375 
L 140.836364 162.88875 
L 147.6 159.1515 
L 154.363636 155.923875 
L 161.127273 156.77325 
L 167.890909 157.45275 
L 174.654545 155.923875 
L 181.418182 156.77325 
L 188.181818 157.45275 
L 194.945455 154.05525 
L 201.709091 156.603375 
L 208.472727 159.321375 
L 215.236364 154.904625 
L 222 159.661125 
" clip-path="url(#p9653c1a3b4)" style="fill: none; stroke-dasharray: 5.55,2.4; stroke-dashoffset: 0; stroke: #9467bd; stroke-width: 1.5"/>
   </g>
   <g id="patch_3">
    <path d="M 36 283.5 
L 36 38.88 
" style="fill: none; stroke: #000000; stroke-width: 0.8; stroke-linejoin: miter; stroke-linecap: square"/>
   </g>
   <g id="patch_4">
    <path d="M 259.2 283.5 
L 259.2 38.88 
" style="fill: none; stroke: #000000; stroke-width: 0.8; stroke-linejoin: miter; stroke-linecap: square"/>
   </g>
   <g id="patch_5">
    <path d="M 36 283.5 
L 259.2 283.5 
" style="fill: none; stroke: #000000; stroke-width: 0.8; stroke-linejoin: miter; stroke-linecap: square"/>
   </g>
   <g id="patch_6">
    <path d="M 36 38.88 
L 259.2 38.88 
" style="fill: none; stroke: #000000; stroke-width: 0.8; stroke-linejoin: miter; stroke-linecap: square"/>
   </g>
   <g id="legend_1">
    <g id="patch_7">
     <path d="M 169.453125 120.826875 
L 252.2 120.826875 
Q 254.2 120.826875 254.2 118.826875 
L 254.2 45.88 
Q 254.2 43.88 252.2 43.88 
L 169.453125 43.88 
Q 167.453125 43.88 167.453125 45.88 
L 167.453125 118.826875 
Q 167.453125 120.826875 169.453125 120.826875 
z
" style="fill: #ffffff; opacity: 0.6; stroke: #cccccc; stroke-linejoin: miter"/>
    </g>
    <g id="line2d_34">
     <path d="M 171.453125 51.978437 
L 181.453125 51.978437 
L 191.453125 51.978437 
" style="fill: none; stroke: #1f77b4; stroke-width: 1.5; stroke-linecap: square"/>
    </g>
    <g id="text_17">
     <!-- vit_b_16 -->
     <g transform="translate(199.453125 55.478437)scale(0.1 -0.1)">
      <defs>
       <path id="DejaVuSans-76" d="M 191 3500 
L 800 3500 
L 1894 563 
L 2988 3500 
L 3597 3500 
L 2284 0 
L 1503 0 
L 191 3500 
z
" transform="scale(0.015625)"/>
       <path id="DejaVuSans-69" d="M 603 3500 
L 1178 3500 
L 1178 0 
L 603 0 
L 603 3500 
z
M 603 4863 
L 1178 4863 
L 1178 4134 
L 603 4134 
L 603 4863 
z
" transform="scale(0.015625)"/>
       <path id="DejaVuSans-74" d="M 1172 4494 
L 1172 3500 
L 2356 3500 
L 2356 3053 
L 1172 3053 
L 1172 1153 
Q 1172 725 1289 603 
Q 1406 481 1766 481 
L 2356 481 
L 2356 0 
L 1766 0 
Q 1100 0 847 248 
Q 594 497 594 1153 
L 594 3053 
L 172 3053 
L 172 3500 
L 594 3500 
L 594 4494 
L 1172 4494 
z
" transform="scale(0.015625)"/>
       <path id="DejaVuSans-5f" d="M 3263 -1063 
L 3263 -1509 
L -63 -1509 
L -63 -1063 
L 3263 -1063 
z
" transform="scale(0.015625)"/>
       <path id="DejaVuSans-62" d="M 3116 1747 
Q 3116 2381 2855 2742 
Q 2594 3103 2138 3103 
Q 1681 3103 1420 2742 
Q 1159 2381 1159 1747 
Q 1159 1113 1420 752 
Q 1681 391 2138 391 
Q 2594 391 2855 752 
Q 3116 1113 3116 1747 
z
M 1159 2969 
Q 1341 3281 1617 3432 
Q 1894 3584 2278 3584 
Q 2916 3584 3314 3078 
Q 3713 2572 3713 1747 
Q 3713 922 3314 415 
Q 2916 -91 2278 -91 
Q 1894 -91 1617 61 
Q 1341 213 1159 525 
L 1159 0 
L 581 0 
L 581 4863 
L 1159 4863 
L 1159 2969 
z
" transform="scale(0.015625)"/>
       <path id="DejaVuSans-36" d="M 2113 2584 
Q 1688 2584 1439 2293 
Q 1191 2003 1191 1497 
Q 1191 994 1439 701 
Q 1688 409 2113 409 
Q 2538 409 2786 701 
Q 3034 994 3034 1497 
Q 3034 2003 2786 2293 
Q 2538 2584 2113 2584 
z
M 3366 4563 
L 3366 3988 
Q 3128 4100 2886 4159 
Q 2644 4219 2406 4219 
Q 1781 4219 1451 3797 
Q 1122 3375 1075 2522 
Q 1259 2794 1537 2939 
Q 1816 3084 2150 3084 
Q 2853 3084 3261 2657 
Q 3669 2231 3669 1497 
Q 3669 778 3244 343 
Q 2819 -91 2113 -91 
Q 1303 -91 875 529 
Q 447 1150 447 2328 
Q 447 3434 972 4092 
Q 1497 4750 2381 4750 
Q 2619 4750 2861 4703 
Q 3103 4656 3366 4563 
z
" transform="scale(0.015625)"/>
      </defs>
      <use xlink:href="#DejaVuSans-76"/>
      <use xlink:href="#DejaVuSans-69" x="59.179688"/>
      <use xlink:href="#DejaVuSans-74" x="86.962891"/>
      <use xlink:href="#DejaVuSans-5f" x="126.171875"/>
      <use xlink:href="#DejaVuSans-62" x="176.171875"/>
      <use xlink:href="#DejaVuSans-5f" x="239.648438"/>
      <use xlink:href="#DejaVuSans-31" x="289.648438"/>
      <use xlink:href="#DejaVuSans-36" x="353.271484"/>
     </g>
    </g>
    <g id="line2d_35">
     <path d="M 171.453125 66.934687 
L 181.453125 66.934687 
L 191.453125 66.934687 
" style="fill: none; stroke: #ff7f0e; stroke-width: 1.5; stroke-linecap: square"/>
    </g>
    <g id="text_18">
     <!-- swin_b -->
     <g transform="translate(199.453125 70.434687)scale(0.1 -0.1)">
      <defs>
       <path id="DejaVuSans-77" d="M 269 3500 
L 844 3500 
L 1563 769 
L 2278 3500 
L 2956 3500 
L 3675 769 
L 4391 3500 
L 4966 3500 
L 4050 0 
L 3372 0 
L 2619 2869 
L 1863 0 
L 1184 0 
L 269 3500 
z
" transform="scale(0.015625)"/>
       <path id="DejaVuSans-6e" d="M 3513 2113 
L 3513 0 
L 2938 0 
L 2938 2094 
Q 2938 2591 2744 2837 
Q 2550 3084 2163 3084 
Q 1697 3084 1428 2787 
Q 1159 2491 1159 1978 
L 1159 0 
L 581 0 
L 581 3500 
L 1159 3500 
L 1159 2956 
Q 1366 3272 1645 3428 
Q 1925 3584 2291 3584 
Q 2894 3584 3203 3211 
Q 3513 2838 3513 2113 
z
" transform="scale(0.015625)"/>
      </defs>
      <use xlink:href="#DejaVuSans-73"/>
      <use xlink:href="#DejaVuSans-77" x="52.099609"/>
      <use xlink:href="#DejaVuSans-69" x="133.886719"/>
      <use xlink:href="#DejaVuSans-6e" x="161.669922"/>
      <use xlink:href="#DejaVuSans-5f" x="225.048828"/>
      <use xlink:href="#DejaVuSans-62" x="275.048828"/>
     </g>
    </g>
    <g id="line2d_36">
     <path d="M 171.453125 81.890937 
L 181.453125 81.890937 
L 191.453125 81.890937 
" style="fill: none; stroke-dasharray: 5.55,2.4; stroke-dashoffset: 0; stroke: #2ca02c; stroke-width: 1.5"/>
    </g>
    <g id="text_19">
     <!-- resnet50 -->
     <g transform="translate(199.453125 85.390937)scale(0.1 -0.1)">
      <defs>
       <path id="DejaVuSans-65" d="M 3597 1894 
L 3597 1613 
L 953 1613 
Q 991 1019 1311 708 
Q 1631 397 2203 397 
Q 2534 397 2845 478 
Q 3156 559 3463 722 
L 3463 178 
Q 3153 47 2828 -22 
Q 2503 -91 2169 -91 
Q 1331 -91 842 396 
Q 353 884 353 1716 
Q 353 2575 817 3079 
Q 1281 3584 2069 3584 
Q 2775 3584 3186 3129 
Q 3597 2675 3597 1894 
z
M 3022 2063 
Q 3016 2534 2758 2815 
Q 2500 3097 2075 3097 
Q 1594 3097 1305 2825 
Q 1016 2553 972 2059 
L 3022 2063 
z
" transform="scale(0.015625)"/>
      </defs>
      <use xlink:href="#DejaVuSans-72"/>
      <use xlink:href="#DejaVuSans-65" x="38.863281"/>
      <use xlink:href="#DejaVuSans-73" x="100.386719"/>
      <use xlink:href="#DejaVuSans-6e" x="152.486328"/>
      <use xlink:href="#DejaVuSans-65" x="215.865234"/>
      <use xlink:href="#DejaVuSans-74" x="277.388672"/>
      <use xlink:href="#DejaVuSans-35" x="316.597656"/>
      <use xlink:href="#DejaVuSans-30" x="380.220703"/>
     </g>
    </g>
    <g id="line2d_37">
     <path d="M 171.453125 96.569062 
L 181.453125 96.569062 
L 191.453125 96.569062 
" style="fill: none; stroke-dasharray: 5.55,2.4; stroke-dashoffset: 0; stroke: #d62728; stroke-width: 1.5"/>
    </g>
    <g id="text_20">
     <!-- resnet101 -->
     <g transform="translate(199.453125 100.069062)scale(0.1 -0.1)">
      <use xlink:href="#DejaVuSans-72"/>
      <use xlink:href="#DejaVuSans-65" x="38.863281"/>
      <use xlink:href="#DejaVuSans-73" x="100.386719"/>
      <use xlink:href="#DejaVuSans-6e" x="152.486328"/>
      <use xlink:href="#DejaVuSans-65" x="215.865234"/>
      <use xlink:href="#DejaVuSans-74" x="277.388672"/>
      <use xlink:href="#DejaVuSans-31" x="316.597656"/>
      <use xlink:href="#DejaVuSans-30" x="380.220703"/>
      <use xlink:href="#DejaVuSans-31" x="443.84375"/>
     </g>
    </g>
    <g id="line2d_38">
     <path d="M 171.453125 111.247187 
L 181.453125 111.247187 
L 191.453125 111.247187 
" style="fill: none; stroke-dasharray: 5.55,2.4; stroke-dashoffset: 0; stroke: #9467bd; stroke-width: 1.5"/>
    </g>
    <g id="text_21">
     <!-- resnet152 -->
     <g transform="translate(199.453125 114.747187)scale(0.1 -0.1)">
      <use xlink:href="#DejaVuSans-72"/>
      <use xlink:href="#DejaVuSans-65" x="38.863281"/>
      <use xlink:href="#DejaVuSans-73" x="100.386719"/>
      <use xlink:href="#DejaVuSans-6e" x="152.486328"/>
      <use xlink:href="#DejaVuSans-65" x="215.865234"/>
      <use xlink:href="#DejaVuSans-74" x="277.388672"/>
      <use xlink:href="#DejaVuSans-31" x="316.597656"/>
      <use xlink:href="#DejaVuSans-35" x="380.220703"/>
      <use xlink:href="#DejaVuSans-32" x="443.84375"/>
     </g>
    </g>
   </g>
  </g>
 </g>
 <defs>
  <clipPath id="p9653c1a3b4">
   <rect x="36" y="38.88" width="223.2" height="244.62"/>
  </clipPath>
 </defs>
</svg>
