<?xml version="1.0" encoding="UTF-8"?>
<!-- Created with Inkscape (http://www.inkscape.org/) -->
<svg width="5cm" height="5cm" version="1.1" viewBox="0 0 50 50" xmlns="http://www.w3.org/2000/svg">
 <g fill="none" stroke="#262c42" stroke-width=".7">
  <path d="m45 33.333c-10 0-10 8.3333-20 8.3333 10 1e-6 10-16.667 20-16.667"/>
  <path d="m25 41.666c10 1e-6 10-25 20-25"/>
  <path d="m25 33.333h20"/>
  <path d="m25 33.333c10 0 10-8.3333 20-8.3333"/>
  <path d="m25 33.333c10 0 10-16.667 20-16.667"/>
  <path d="m25 25c10 1e-6 10 8.3333 20 8.3333"/>
  <path d="m25 25h20"/>
  <path d="m25 25c10 1e-6 10-8.3333 20-8.3333"/>
  <path d="m25 16.667c10 0 10 16.667 20 16.667"/>
  <path d="m25 16.667c10 0 10 8.3333 20 8.3333"/>
  <path d="m25 16.667h20"/>
  <path d="m45 33.333c-10 0-10-25-20-25 10 0 10 16.667 20 16.667"/>
  <path d="m25 8.3333c10 0 10 8.3333 20 8.3333"/>
 </g>
 <g fill="none" stroke="#262c42" stroke-width=".7">
  <path d="m5 41.666h20"/>
  <path d="m5 41.666c10 1e-6 10-8.3333 20-8.3333"/>
  <path d="m5 41.666c10 1e-6 10-16.667 20-16.667"/>
  <path d="m5 41.666c10 1e-6 10-25 20-25"/>
  <path d="m5 41.666c10 1e-6 10-33.333 20-33.333"/>
  <path d="m5 33.333c10 0 10 8.3333 20 8.3333"/>
  <path d="m5 33.333h20"/>
  <path d="m5 33.333c10 0 10-8.3333 20-8.3333"/>
  <path d="m5 33.333c10 0 10-16.667 20-16.667"/>
  <path d="m5 33.333c10 0 10-25 20-25"/>
  <path d="m5 25c10 1e-6 10 16.667 20 16.667"/>
  <path d="m5 25c10 1e-6 10 8.3333 20 8.3333"/>
  <path d="m5 25h20"/>
  <path d="m5 25c10 1e-6 10-8.3333 20-8.3333"/>
  <path d="m5 25c10 1e-6 10-16.667 20-16.667"/>
  <path d="m5 16.667c10 0 10 25 20 25"/>
  <path d="m5 16.667c10 0 10 16.667 20 16.667"/>
  <path d="m5 16.667c10 0 10 8.3333 20 8.3333"/>
  <path d="m5 16.667h20"/>
  <path d="m5 16.667c10 0 10-8.3333 20-8.3333"/>
  <path d="m5 8.3333h20"/>
  <path d="m5 8.3333c10 0 10 8.3333 20 8.3333"/>
  <path d="m5 8.3333c10 0 10 16.667 20 16.667"/>
  <path d="m5 8.3333c10 0 10 25 20 25"/>
  <path d="m5 8.3333c10 0 10 33.333 20 33.333"/>
 </g>
 <g fill="#0f1428" stroke-width=".12013">
  <circle cx="5" cy="8.3333" r="2.2702"/>
  <circle cx="5" cy="16.667" r="2.2702"/>
  <circle cx="5" cy="25" r="2.2702"/>
  <circle cx="5" cy="33.333" r="2.2702"/>
  <circle cx="5" cy="41.666" r="2.2702"/>
  <circle cx="25" cy="8.3333" r="2.2702"/>
  <circle cx="25" cy="16.667" r="2.2702"/>
  <circle cx="25" cy="25" r="2.2702"/>
  <circle cx="25" cy="33.333" r="2.2702"/>
  <circle cx="25" cy="41.666" r="2.2702"/>
  <circle cx="45" cy="16.667" r="2.2702"/>
  <circle cx="45" cy="25" r="2.2702"/>
  <circle cx="45" cy="33.333" r="2.2702"/>
 </g>
</svg>
