<?xml version="1.0" encoding="utf-8" standalone="no"?>
<!DOCTYPE svg PUBLIC "-//W3C//DTD SVG 1.1//EN"
  "http://www.w3.org/Graphics/SVG/1.1/DTD/svg11.dtd">
<svg xmlns:xlink="http://www.w3.org/1999/xlink" width="360pt" height="432pt" viewBox="0 0 360 432" xmlns="http://www.w3.org/2000/svg" version="1.1">
 <metadata>
  <rdf:RDF xmlns:dc="http://purl.org/dc/elements/1.1/" xmlns:cc="http://creativecommons.org/ns#" xmlns:rdf="http://www.w3.org/1999/02/22-rdf-syntax-ns#">
   <cc:Work>
    <dc:type rdf:resource="http://purl.org/dc/dcmitype/StillImage"/>
    <dc:date>2022-05-27T11:25:30.601423</dc:date>
    <dc:format>image/svg+xml</dc:format>
    <dc:creator>
     <cc:Agent>
      <dc:title>Matplotlib v3.5.2, https://matplotlib.org/</dc:title>
     </cc:Agent>
    </dc:creator>
   </cc:Work>
  </rdf:RDF>
 </metadata>
 <defs>
  <style type="text/css">*{stroke-linejoin: round; stroke-linecap: butt}</style>
 </defs>
 <g id="figure_1">
  <g id="patch_1">
   <path d="M 0 432 
L 360 432 
L 360 0 
L 0 0 
L 0 432 
z
" style="fill: none"/>
  </g>
  <g id="axes_1">
   <g id="patch_2">
    <path d="M 45 378 
L 324 378 
L 324 51.84 
L 45 51.84 
z
" style="fill: #ffffff"/>
   </g>
   <g id="PolyCollection_1">
    <path d="M 57.681818 84.090968 
L 57.681818 96.335932 
L 67.437063 222.934421 
L 77.192308 255.729866 
L 86.947552 273.706719 
L 96.702797 290.66165 
L 106.458042 281.987154 
L 116.213287 292.521607 
L 125.968531 315.251501 
L 135.723776 310.941438 
L 145.479021 299.046945 
L 155.234266 306.175706 
L 164.98951 321.324908 
L 174.744755 324.357946 
L 184.5 324.050699 
L 194.255245 327.392511 
L 204.01049 331.862471 
L 213.765734 331.424575 
L 223.520979 329.485284 
L 233.276224 328.095743 
L 243.031469 334.421301 
L 252.786713 333.893481 
L 262.541958 326.056859 
L 262.541958 313.799577 
L 262.541958 313.799577 
L 252.786713 315.859134 
L 243.031469 321.829787 
L 233.276224 310.039681 
L 223.520979 305.490315 
L 213.765734 319.312903 
L 204.01049 326.684582 
L 194.255245 316.127404 
L 184.5 306.329263 
L 174.744755 304.336891 
L 164.98951 301.160431 
L 155.234266 280.810082 
L 145.479021 276.473056 
L 135.723776 282.776407 
L 125.968531 285.027017 
L 116.213287 270.995304 
L 106.458042 251.770855 
L 96.702797 280.636865 
L 86.947552 249.628248 
L 77.192308 238.706661 
L 67.437063 202.906324 
L 57.681818 84.090968 
z
" clip-path="url(#p9c1b062ce2)" style="fill: #1f77b4; fill-opacity: 0.2"/>
   </g>
   <g id="PolyCollection_2">
    <path d="M 57.681818 233.90013 
L 57.681818 266.066923 
L 67.437063 325.532255 
L 77.192308 320.912612 
L 86.947552 338.198032 
L 96.702797 351.566377 
L 106.458042 332.194766 
L 116.213287 337.717794 
L 125.968531 349.584175 
L 135.723776 354.588876 
L 145.479021 350.99258 
L 155.234266 341.700283 
L 164.98951 348.966553 
L 174.744755 358.800362 
L 184.5 356.089584 
L 194.255245 364.004332 
L 194.255245 335.101376 
L 194.255245 335.101376 
L 184.5 336.659577 
L 174.744755 327.86064 
L 164.98951 333.941514 
L 155.234266 330.309104 
L 145.479021 323.395626 
L 135.723776 334.846126 
L 125.968531 341.540817 
L 116.213287 319.269598 
L 106.458042 313.907994 
L 96.702797 311.479562 
L 86.947552 334.377147 
L 77.192308 319.064812 
L 67.437063 294.448803 
L 57.681818 233.90013 
z
" clip-path="url(#p9c1b062ce2)" style="fill: #ff7f0e; fill-opacity: 0.2"/>
   </g>
   <g id="PolyCollection_3">
    <path d="M 57.681818 165.261606 
L 57.681818 212.766071 
L 67.437063 239.235116 
L 77.192308 290.698634 
L 86.947552 320.406535 
L 96.702797 284.574285 
L 106.458042 281.00939 
L 116.213287 277.970994 
L 125.968531 319.007999 
L 135.723776 316.61246 
L 145.479021 325.388476 
L 155.234266 311.320097 
L 164.98951 314.130508 
L 174.744755 333.749336 
L 184.5 327.835111 
L 194.255245 330.213336 
L 204.01049 338.476038 
L 213.765734 341.546134 
L 213.765734 316.577927 
L 213.765734 316.577927 
L 204.01049 315.24614 
L 194.255245 311.92068 
L 184.5 311.803397 
L 174.744755 312.231037 
L 164.98951 279.243685 
L 155.234266 299.689818 
L 145.479021 296.065865 
L 135.723776 281.738095 
L 125.968531 306.603475 
L 116.213287 266.810104 
L 106.458042 248.105598 
L 96.702797 259.661365 
L 86.947552 275.257686 
L 77.192308 254.349586 
L 67.437063 212.847416 
L 57.681818 165.261606 
z
" clip-path="url(#p9c1b062ce2)" style="fill: #2ca02c; fill-opacity: 0.2"/>
   </g>
   <g id="PolyCollection_4">
    <path d="M 57.681818 175.83342 
L 57.681818 204.938041 
L 67.437063 270.626818 
L 77.192308 286.850827 
L 86.947552 285.768096 
L 96.702797 303.394209 
L 106.458042 281.710345 
L 116.213287 306.58389 
L 125.968531 294.338144 
L 135.723776 300.10968 
L 145.479021 309.534355 
L 155.234266 312.230221 
L 164.98951 322.984969 
L 174.744755 330.022368 
L 184.5 328.828383 
L 194.255245 319.006469 
L 204.01049 333.283167 
L 213.765734 324.699424 
L 213.765734 300.471762 
L 213.765734 300.471762 
L 204.01049 299.25665 
L 194.255245 282.062352 
L 184.5 301.041403 
L 174.744755 295.687512 
L 164.98951 296.029067 
L 155.234266 270.318833 
L 145.479021 292.050871 
L 135.723776 289.873733 
L 125.968531 259.887073 
L 116.213287 297.41908 
L 106.458042 250.200743 
L 96.702797 275.33391 
L 86.947552 273.386798 
L 77.192308 257.170368 
L 67.437063 213.043036 
L 57.681818 175.83342 
z
" clip-path="url(#p9c1b062ce2)" style="fill: #d62728; fill-opacity: 0.2"/>
   </g>
   <g id="PolyCollection_5">
    <path d="M 57.681818 112.723173 
L 57.681818 124.68458 
L 67.437063 227.786165 
L 77.192308 249.724087 
L 86.947552 271.881691 
L 96.702797 253.005145 
L 106.458042 297.028244 
L 116.213287 299.203874 
L 125.968531 302.52801 
L 135.723776 281.952968 
L 145.479021 266.036375 
L 155.234266 304.916221 
L 164.98951 320.057716 
L 174.744755 324.415328 
L 184.5 304.365717 
L 194.255245 320.955315 
L 204.01049 325.605157 
L 213.765734 320.093668 
L 223.520979 323.295934 
L 233.276224 325.889543 
L 243.031469 328.414942 
L 252.786713 324.594146 
L 262.541958 330.295976 
L 272.297203 331.910576 
L 282.052448 330.456985 
L 291.807692 326.41147 
L 301.562937 329.940805 
L 311.318182 328.852641 
L 311.318182 314.96564 
L 311.318182 314.96564 
L 301.562937 312.695274 
L 291.807692 313.710833 
L 282.052448 313.421663 
L 272.297203 313.780981 
L 262.541958 311.071606 
L 252.786713 311.396125 
L 243.031469 310.02453 
L 233.276224 305.925721 
L 223.520979 313.402503 
L 213.765734 315.672638 
L 204.01049 308.947159 
L 194.255245 304.027347 
L 184.5 299.038042 
L 174.744755 301.905828 
L 164.98951 303.893052 
L 155.234266 262.739851 
L 145.479021 230.276629 
L 135.723776 264.144507 
L 125.968531 269.328969 
L 116.213287 286.940384 
L 106.458042 261.93336 
L 96.702797 242.371084 
L 86.947552 250.377617 
L 77.192308 234.654648 
L 67.437063 181.730165 
L 57.681818 112.723173 
z
" clip-path="url(#p9c1b062ce2)" style="fill: #9467bd; fill-opacity: 0.2"/>
   </g>
   <g id="PolyCollection_6">
    <path d="M 57.681818 218.446137 
L 57.681818 227.504838 
L 67.437063 280.315854 
L 77.192308 293.746425 
L 86.947552 302.553407 
L 96.702797 284.526627 
L 106.458042 301.705237 
L 116.213287 308.841373 
L 125.968531 317.019153 
L 135.723776 320.158803 
L 145.479021 315.170045 
L 155.234266 328.899077 
L 164.98951 322.111745 
L 174.744755 322.924635 
L 184.5 333.186625 
L 194.255245 343.937103 
L 204.01049 348.6151 
L 213.765734 335.124782 
L 223.520979 337.607967 
L 233.276224 345.794395 
L 233.276224 323.035182 
L 233.276224 323.035182 
L 223.520979 322.721936 
L 213.765734 318.584125 
L 204.01049 318.134831 
L 194.255245 309.238027 
L 184.5 317.5415 
L 174.744755 309.461991 
L 164.98951 316.383133 
L 155.234266 308.974185 
L 145.479021 278.216419 
L 135.723776 296.926384 
L 125.968531 275.854369 
L 116.213287 291.629902 
L 106.458042 272.655616 
L 96.702797 271.242879 
L 86.947552 274.719829 
L 77.192308 281.390161 
L 67.437063 259.140032 
L 57.681818 218.446137 
z
" clip-path="url(#p9c1b062ce2)" style="fill: #8c564b; fill-opacity: 0.2"/>
   </g>
   <g id="PolyCollection_7">
    <path d="M 57.681818 188.943792 
L 57.681818 193.094461 
L 67.437063 315.127794 
L 77.192308 331.36942 
L 86.947552 331.486645 
L 96.702797 335.131823 
L 106.458042 339.325139 
L 116.213287 321.290443 
L 125.968531 344.99425 
L 135.723776 336.767667 
L 145.479021 332.991218 
L 155.234266 341.620132 
L 164.98951 335.598401 
L 174.744755 338.320651 
L 184.5 335.172472 
L 184.5 312.773028 
L 184.5 312.773028 
L 174.744755 299.751435 
L 164.98951 310.005357 
L 155.234266 315.411568 
L 145.479021 317.977879 
L 135.723776 305.757872 
L 125.968531 307.191734 
L 116.213287 310.734604 
L 106.458042 315.846462 
L 96.702797 310.334338 
L 86.947552 329.177482 
L 77.192308 327.499119 
L 67.437063 288.989991 
L 57.681818 188.943792 
z
" clip-path="url(#p9c1b062ce2)" style="fill: #e377c2; fill-opacity: 0.2"/>
   </g>
   <g id="PolyCollection_8">
    <path d="M 57.681818 269.726589 
L 57.681818 282.144505 
L 67.437063 346.315851 
L 77.192308 351.742426 
L 86.947552 354.284032 
L 96.702797 359.97156 
L 106.458042 355.79834 
L 116.213287 354.933136 
L 125.968531 341.633636 
L 135.723776 339.587328 
L 145.479021 363.665269 
L 155.234266 354.13613 
L 164.98951 354.433993 
L 174.744755 352.916504 
L 184.5 345.656962 
L 184.5 337.519702 
L 184.5 337.519702 
L 174.744755 334.497893 
L 164.98951 334.861633 
L 155.234266 331.844549 
L 145.479021 339.496104 
L 135.723776 327.817267 
L 125.968531 334.991683 
L 116.213287 294.127092 
L 106.458042 317.704097 
L 96.702797 350.154881 
L 86.947552 350.181706 
L 77.192308 345.612959 
L 67.437063 313.956934 
L 57.681818 269.726589 
z
" clip-path="url(#p9c1b062ce2)" style="fill: #7f7f7f; fill-opacity: 0.2"/>
   </g>
   <g id="matplotlib.axis_1">
    <g id="xtick_1">
     <g id="line2d_1">
      <path d="M 47.926573 378 
L 47.926573 51.84 
" clip-path="url(#p9c1b062ce2)" style="fill: none; stroke: #b0b0b0; stroke-width: 0.8; stroke-linecap: square"/>
     </g>
     <g id="line2d_2">
      <defs>
       <path id="mce96730d2b" d="M 0 0 
L 0 3.5 
" style="stroke: #000000; stroke-width: 0.8"/>
      </defs>
      <g>
       <use xlink:href="#mce96730d2b" x="47.926573" y="378" style="stroke: #000000; stroke-width: 0.8"/>
      </g>
     </g>
     <g id="text_1">
      <!-- 0 -->
      <g transform="translate(44.745323 392.598437)scale(0.1 -0.1)">
       <defs>
        <path id="DejaVuSans-30" d="M 2034 4250 
Q 1547 4250 1301 3770 
Q 1056 3291 1056 2328 
Q 1056 1369 1301 889 
Q 1547 409 2034 409 
Q 2525 409 2770 889 
Q 3016 1369 3016 2328 
Q 3016 3291 2770 3770 
Q 2525 4250 2034 4250 
z
M 2034 4750 
Q 2819 4750 3233 4129 
Q 3647 3509 3647 2328 
Q 3647 1150 3233 529 
Q 2819 -91 2034 -91 
Q 1250 -91 836 529 
Q 422 1150 422 2328 
Q 422 3509 836 4129 
Q 1250 4750 2034 4750 
z
" transform="scale(0.015625)"/>
       </defs>
       <use xlink:href="#DejaVuSans-30"/>
      </g>
     </g>
    </g>
    <g id="xtick_2">
     <g id="line2d_3">
      <path d="M 96.702797 378 
L 96.702797 51.84 
" clip-path="url(#p9c1b062ce2)" style="fill: none; stroke: #b0b0b0; stroke-width: 0.8; stroke-linecap: square"/>
     </g>
     <g id="line2d_4">
      <g>
       <use xlink:href="#mce96730d2b" x="96.702797" y="378" style="stroke: #000000; stroke-width: 0.8"/>
      </g>
     </g>
     <g id="text_2">
      <!-- 5 -->
      <g transform="translate(93.521547 392.598437)scale(0.1 -0.1)">
       <defs>
        <path id="DejaVuSans-35" d="M 691 4666 
L 3169 4666 
L 3169 4134 
L 1269 4134 
L 1269 2991 
Q 1406 3038 1543 3061 
Q 1681 3084 1819 3084 
Q 2600 3084 3056 2656 
Q 3513 2228 3513 1497 
Q 3513 744 3044 326 
Q 2575 -91 1722 -91 
Q 1428 -91 1123 -41 
Q 819 9 494 109 
L 494 744 
Q 775 591 1075 516 
Q 1375 441 1709 441 
Q 2250 441 2565 725 
Q 2881 1009 2881 1497 
Q 2881 1984 2565 2268 
Q 2250 2553 1709 2553 
Q 1456 2553 1204 2497 
Q 953 2441 691 2322 
L 691 4666 
z
" transform="scale(0.015625)"/>
       </defs>
       <use xlink:href="#DejaVuSans-35"/>
      </g>
     </g>
    </g>
    <g id="xtick_3">
     <g id="line2d_5">
      <path d="M 145.479021 378 
L 145.479021 51.84 
" clip-path="url(#p9c1b062ce2)" style="fill: none; stroke: #b0b0b0; stroke-width: 0.8; stroke-linecap: square"/>
     </g>
     <g id="line2d_6">
      <g>
       <use xlink:href="#mce96730d2b" x="145.479021" y="378" style="stroke: #000000; stroke-width: 0.8"/>
      </g>
     </g>
     <g id="text_3">
      <!-- 10 -->
      <g transform="translate(139.116521 392.598437)scale(0.1 -0.1)">
       <defs>
        <path id="DejaVuSans-31" d="M 794 531 
L 1825 531 
L 1825 4091 
L 703 3866 
L 703 4441 
L 1819 4666 
L 2450 4666 
L 2450 531 
L 3481 531 
L 3481 0 
L 794 0 
L 794 531 
z
" transform="scale(0.015625)"/>
       </defs>
       <use xlink:href="#DejaVuSans-31"/>
       <use xlink:href="#DejaVuSans-30" x="63.623047"/>
      </g>
     </g>
    </g>
    <g id="xtick_4">
     <g id="line2d_7">
      <path d="M 194.255245 378 
L 194.255245 51.84 
" clip-path="url(#p9c1b062ce2)" style="fill: none; stroke: #b0b0b0; stroke-width: 0.8; stroke-linecap: square"/>
     </g>
     <g id="line2d_8">
      <g>
       <use xlink:href="#mce96730d2b" x="194.255245" y="378" style="stroke: #000000; stroke-width: 0.8"/>
      </g>
     </g>
     <g id="text_4">
      <!-- 15 -->
      <g transform="translate(187.892745 392.598437)scale(0.1 -0.1)">
       <use xlink:href="#DejaVuSans-31"/>
       <use xlink:href="#DejaVuSans-35" x="63.623047"/>
      </g>
     </g>
    </g>
    <g id="xtick_5">
     <g id="line2d_9">
      <path d="M 243.031469 378 
L 243.031469 51.84 
" clip-path="url(#p9c1b062ce2)" style="fill: none; stroke: #b0b0b0; stroke-width: 0.8; stroke-linecap: square"/>
     </g>
     <g id="line2d_10">
      <g>
       <use xlink:href="#mce96730d2b" x="243.031469" y="378" style="stroke: #000000; stroke-width: 0.8"/>
      </g>
     </g>
     <g id="text_5">
      <!-- 20 -->
      <g transform="translate(236.668969 392.598437)scale(0.1 -0.1)">
       <defs>
        <path id="DejaVuSans-32" d="M 1228 531 
L 3431 531 
L 3431 0 
L 469 0 
L 469 531 
Q 828 903 1448 1529 
Q 2069 2156 2228 2338 
Q 2531 2678 2651 2914 
Q 2772 3150 2772 3378 
Q 2772 3750 2511 3984 
Q 2250 4219 1831 4219 
Q 1534 4219 1204 4116 
Q 875 4013 500 3803 
L 500 4441 
Q 881 4594 1212 4672 
Q 1544 4750 1819 4750 
Q 2544 4750 2975 4387 
Q 3406 4025 3406 3419 
Q 3406 3131 3298 2873 
Q 3191 2616 2906 2266 
Q 2828 2175 2409 1742 
Q 1991 1309 1228 531 
z
" transform="scale(0.015625)"/>
       </defs>
       <use xlink:href="#DejaVuSans-32"/>
       <use xlink:href="#DejaVuSans-30" x="63.623047"/>
      </g>
     </g>
    </g>
    <g id="xtick_6">
     <g id="line2d_11">
      <path d="M 291.807692 378 
L 291.807692 51.84 
" clip-path="url(#p9c1b062ce2)" style="fill: none; stroke: #b0b0b0; stroke-width: 0.8; stroke-linecap: square"/>
     </g>
     <g id="line2d_12">
      <g>
       <use xlink:href="#mce96730d2b" x="291.807692" y="378" style="stroke: #000000; stroke-width: 0.8"/>
      </g>
     </g>
     <g id="text_6">
      <!-- 25 -->
      <g transform="translate(285.445192 392.598437)scale(0.1 -0.1)">
       <use xlink:href="#DejaVuSans-32"/>
       <use xlink:href="#DejaVuSans-35" x="63.623047"/>
      </g>
     </g>
    </g>
    <g id="text_7">
     <!-- Epochs -->
     <g transform="translate(166.584375 406.276563)scale(0.1 -0.1)">
      <defs>
       <path id="DejaVuSans-45" d="M 628 4666 
L 3578 4666 
L 3578 4134 
L 1259 4134 
L 1259 2753 
L 3481 2753 
L 3481 2222 
L 1259 2222 
L 1259 531 
L 3634 531 
L 3634 0 
L 628 0 
L 628 4666 
z
" transform="scale(0.015625)"/>
       <path id="DejaVuSans-70" d="M 1159 525 
L 1159 -1331 
L 581 -1331 
L 581 3500 
L 1159 3500 
L 1159 2969 
Q 1341 3281 1617 3432 
Q 1894 3584 2278 3584 
Q 2916 3584 3314 3078 
Q 3713 2572 3713 1747 
Q 3713 922 3314 415 
Q 2916 -91 2278 -91 
Q 1894 -91 1617 61 
Q 1341 213 1159 525 
z
M 3116 1747 
Q 3116 2381 2855 2742 
Q 2594 3103 2138 3103 
Q 1681 3103 1420 2742 
Q 1159 2381 1159 1747 
Q 1159 1113 1420 752 
Q 1681 391 2138 391 
Q 2594 391 2855 752 
Q 3116 1113 3116 1747 
z
" transform="scale(0.015625)"/>
       <path id="DejaVuSans-6f" d="M 1959 3097 
Q 1497 3097 1228 2736 
Q 959 2375 959 1747 
Q 959 1119 1226 758 
Q 1494 397 1959 397 
Q 2419 397 2687 759 
Q 2956 1122 2956 1747 
Q 2956 2369 2687 2733 
Q 2419 3097 1959 3097 
z
M 1959 3584 
Q 2709 3584 3137 3096 
Q 3566 2609 3566 1747 
Q 3566 888 3137 398 
Q 2709 -91 1959 -91 
Q 1206 -91 779 398 
Q 353 888 353 1747 
Q 353 2609 779 3096 
Q 1206 3584 1959 3584 
z
" transform="scale(0.015625)"/>
       <path id="DejaVuSans-63" d="M 3122 3366 
L 3122 2828 
Q 2878 2963 2633 3030 
Q 2388 3097 2138 3097 
Q 1578 3097 1268 2742 
Q 959 2388 959 1747 
Q 959 1106 1268 751 
Q 1578 397 2138 397 
Q 2388 397 2633 464 
Q 2878 531 3122 666 
L 3122 134 
Q 2881 22 2623 -34 
Q 2366 -91 2075 -91 
Q 1284 -91 818 406 
Q 353 903 353 1747 
Q 353 2603 823 3093 
Q 1294 3584 2113 3584 
Q 2378 3584 2631 3529 
Q 2884 3475 3122 3366 
z
" transform="scale(0.015625)"/>
       <path id="DejaVuSans-68" d="M 3513 2113 
L 3513 0 
L 2938 0 
L 2938 2094 
Q 2938 2591 2744 2837 
Q 2550 3084 2163 3084 
Q 1697 3084 1428 2787 
Q 1159 2491 1159 1978 
L 1159 0 
L 581 0 
L 581 4863 
L 1159 4863 
L 1159 2956 
Q 1366 3272 1645 3428 
Q 1925 3584 2291 3584 
Q 2894 3584 3203 3211 
Q 3513 2838 3513 2113 
z
" transform="scale(0.015625)"/>
       <path id="DejaVuSans-73" d="M 2834 3397 
L 2834 2853 
Q 2591 2978 2328 3040 
Q 2066 3103 1784 3103 
Q 1356 3103 1142 2972 
Q 928 2841 928 2578 
Q 928 2378 1081 2264 
Q 1234 2150 1697 2047 
L 1894 2003 
Q 2506 1872 2764 1633 
Q 3022 1394 3022 966 
Q 3022 478 2636 193 
Q 2250 -91 1575 -91 
Q 1294 -91 989 -36 
Q 684 19 347 128 
L 347 722 
Q 666 556 975 473 
Q 1284 391 1588 391 
Q 1994 391 2212 530 
Q 2431 669 2431 922 
Q 2431 1156 2273 1281 
Q 2116 1406 1581 1522 
L 1381 1569 
Q 847 1681 609 1914 
Q 372 2147 372 2553 
Q 372 3047 722 3315 
Q 1072 3584 1716 3584 
Q 2034 3584 2315 3537 
Q 2597 3491 2834 3397 
z
" transform="scale(0.015625)"/>
      </defs>
      <use xlink:href="#DejaVuSans-45"/>
      <use xlink:href="#DejaVuSans-70" x="63.183594"/>
      <use xlink:href="#DejaVuSans-6f" x="126.660156"/>
      <use xlink:href="#DejaVuSans-63" x="187.841797"/>
      <use xlink:href="#DejaVuSans-68" x="242.822266"/>
      <use xlink:href="#DejaVuSans-73" x="306.201172"/>
     </g>
    </g>
   </g>
   <g id="matplotlib.axis_2">
    <g id="ytick_1">
     <g id="line2d_13">
      <path d="M 45 350.058312 
L 324 350.058312 
" clip-path="url(#p9c1b062ce2)" style="fill: none; stroke: #b0b0b0; stroke-width: 0.8; stroke-linecap: square"/>
     </g>
     <g id="line2d_14">
      <defs>
       <path id="m3b13b223a5" d="M 0 0 
L -3.5 0 
" style="stroke: #000000; stroke-width: 0.8"/>
      </defs>
      <g>
       <use xlink:href="#m3b13b223a5" x="45" y="350.058312" style="stroke: #000000; stroke-width: 0.8"/>
      </g>
     </g>
     <g id="text_8">
      <!-- 0.90 -->
      <g transform="translate(15.734375 353.857531)scale(0.1 -0.1)">
       <defs>
        <path id="DejaVuSans-2e" d="M 684 794 
L 1344 794 
L 1344 0 
L 684 0 
L 684 794 
z
" transform="scale(0.015625)"/>
        <path id="DejaVuSans-39" d="M 703 97 
L 703 672 
Q 941 559 1184 500 
Q 1428 441 1663 441 
Q 2288 441 2617 861 
Q 2947 1281 2994 2138 
Q 2813 1869 2534 1725 
Q 2256 1581 1919 1581 
Q 1219 1581 811 2004 
Q 403 2428 403 3163 
Q 403 3881 828 4315 
Q 1253 4750 1959 4750 
Q 2769 4750 3195 4129 
Q 3622 3509 3622 2328 
Q 3622 1225 3098 567 
Q 2575 -91 1691 -91 
Q 1453 -91 1209 -44 
Q 966 3 703 97 
z
M 1959 2075 
Q 2384 2075 2632 2365 
Q 2881 2656 2881 3163 
Q 2881 3666 2632 3958 
Q 2384 4250 1959 4250 
Q 1534 4250 1286 3958 
Q 1038 3666 1038 3163 
Q 1038 2656 1286 2365 
Q 1534 2075 1959 2075 
z
" transform="scale(0.015625)"/>
       </defs>
       <use xlink:href="#DejaVuSans-30"/>
       <use xlink:href="#DejaVuSans-2e" x="63.623047"/>
       <use xlink:href="#DejaVuSans-39" x="95.410156"/>
       <use xlink:href="#DejaVuSans-30" x="159.033203"/>
      </g>
     </g>
    </g>
    <g id="ytick_2">
     <g id="line2d_15">
      <path d="M 45 307.455696 
L 324 307.455696 
" clip-path="url(#p9c1b062ce2)" style="fill: none; stroke: #b0b0b0; stroke-width: 0.8; stroke-linecap: square"/>
     </g>
     <g id="line2d_16">
      <g>
       <use xlink:href="#m3b13b223a5" x="45" y="307.455696" style="stroke: #000000; stroke-width: 0.8"/>
      </g>
     </g>
     <g id="text_9">
      <!-- 0.95 -->
      <g transform="translate(15.734375 311.254915)scale(0.1 -0.1)">
       <use xlink:href="#DejaVuSans-30"/>
       <use xlink:href="#DejaVuSans-2e" x="63.623047"/>
       <use xlink:href="#DejaVuSans-39" x="95.410156"/>
       <use xlink:href="#DejaVuSans-35" x="159.033203"/>
      </g>
     </g>
    </g>
    <g id="ytick_3">
     <g id="line2d_17">
      <path d="M 45 264.85308 
L 324 264.85308 
" clip-path="url(#p9c1b062ce2)" style="fill: none; stroke: #b0b0b0; stroke-width: 0.8; stroke-linecap: square"/>
     </g>
     <g id="line2d_18">
      <g>
       <use xlink:href="#m3b13b223a5" x="45" y="264.85308" style="stroke: #000000; stroke-width: 0.8"/>
      </g>
     </g>
     <g id="text_10">
      <!-- 1.00 -->
      <g transform="translate(15.734375 268.652299)scale(0.1 -0.1)">
       <use xlink:href="#DejaVuSans-31"/>
       <use xlink:href="#DejaVuSans-2e" x="63.623047"/>
       <use xlink:href="#DejaVuSans-30" x="95.410156"/>
       <use xlink:href="#DejaVuSans-30" x="159.033203"/>
      </g>
     </g>
    </g>
    <g id="ytick_4">
     <g id="line2d_19">
      <path d="M 45 222.250464 
L 324 222.250464 
" clip-path="url(#p9c1b062ce2)" style="fill: none; stroke: #b0b0b0; stroke-width: 0.8; stroke-linecap: square"/>
     </g>
     <g id="line2d_20">
      <g>
       <use xlink:href="#m3b13b223a5" x="45" y="222.250464" style="stroke: #000000; stroke-width: 0.8"/>
      </g>
     </g>
     <g id="text_11">
      <!-- 1.05 -->
      <g transform="translate(15.734375 226.049683)scale(0.1 -0.1)">
       <use xlink:href="#DejaVuSans-31"/>
       <use xlink:href="#DejaVuSans-2e" x="63.623047"/>
       <use xlink:href="#DejaVuSans-30" x="95.410156"/>
       <use xlink:href="#DejaVuSans-35" x="159.033203"/>
      </g>
     </g>
    </g>
    <g id="ytick_5">
     <g id="line2d_21">
      <path d="M 45 179.647848 
L 324 179.647848 
" clip-path="url(#p9c1b062ce2)" style="fill: none; stroke: #b0b0b0; stroke-width: 0.8; stroke-linecap: square"/>
     </g>
     <g id="line2d_22">
      <g>
       <use xlink:href="#m3b13b223a5" x="45" y="179.647848" style="stroke: #000000; stroke-width: 0.8"/>
      </g>
     </g>
     <g id="text_12">
      <!-- 1.10 -->
      <g transform="translate(15.734375 183.447067)scale(0.1 -0.1)">
       <use xlink:href="#DejaVuSans-31"/>
       <use xlink:href="#DejaVuSans-2e" x="63.623047"/>
       <use xlink:href="#DejaVuSans-31" x="95.410156"/>
       <use xlink:href="#DejaVuSans-30" x="159.033203"/>
      </g>
     </g>
    </g>
    <g id="ytick_6">
     <g id="line2d_23">
      <path d="M 45 137.045232 
L 324 137.045232 
" clip-path="url(#p9c1b062ce2)" style="fill: none; stroke: #b0b0b0; stroke-width: 0.8; stroke-linecap: square"/>
     </g>
     <g id="line2d_24">
      <g>
       <use xlink:href="#m3b13b223a5" x="45" y="137.045232" style="stroke: #000000; stroke-width: 0.8"/>
      </g>
     </g>
     <g id="text_13">
      <!-- 1.15 -->
      <g transform="translate(15.734375 140.844451)scale(0.1 -0.1)">
       <use xlink:href="#DejaVuSans-31"/>
       <use xlink:href="#DejaVuSans-2e" x="63.623047"/>
       <use xlink:href="#DejaVuSans-31" x="95.410156"/>
       <use xlink:href="#DejaVuSans-35" x="159.033203"/>
      </g>
     </g>
    </g>
    <g id="ytick_7">
     <g id="line2d_25">
      <path d="M 45 94.442616 
L 324 94.442616 
" clip-path="url(#p9c1b062ce2)" style="fill: none; stroke: #b0b0b0; stroke-width: 0.8; stroke-linecap: square"/>
     </g>
     <g id="line2d_26">
      <g>
       <use xlink:href="#m3b13b223a5" x="45" y="94.442616" style="stroke: #000000; stroke-width: 0.8"/>
      </g>
     </g>
     <g id="text_14">
      <!-- 1.20 -->
      <g transform="translate(15.734375 98.241835)scale(0.1 -0.1)">
       <use xlink:href="#DejaVuSans-31"/>
       <use xlink:href="#DejaVuSans-2e" x="63.623047"/>
       <use xlink:href="#DejaVuSans-32" x="95.410156"/>
       <use xlink:href="#DejaVuSans-30" x="159.033203"/>
      </g>
     </g>
    </g>
    <g id="ytick_8">
     <g id="line2d_27">
      <path d="M 45 51.84 
L 324 51.84 
" clip-path="url(#p9c1b062ce2)" style="fill: none; stroke: #b0b0b0; stroke-width: 0.8; stroke-linecap: square"/>
     </g>
     <g id="line2d_28">
      <g>
       <use xlink:href="#m3b13b223a5" x="45" y="51.84" style="stroke: #000000; stroke-width: 0.8"/>
      </g>
     </g>
     <g id="text_15">
      <!-- 1.25 -->
      <g transform="translate(15.734375 55.639219)scale(0.1 -0.1)">
       <use xlink:href="#DejaVuSans-31"/>
       <use xlink:href="#DejaVuSans-2e" x="63.623047"/>
       <use xlink:href="#DejaVuSans-32" x="95.410156"/>
       <use xlink:href="#DejaVuSans-35" x="159.033203"/>
      </g>
     </g>
    </g>
    <g id="text_16">
     <!-- Cross Entropy Loss ($Q_2$ with $Q_1 - Q_3$ range) -->
     <g transform="translate(9.634375 322.97)rotate(-90)scale(0.1 -0.1)">
      <defs>
       <path id="DejaVuSans-43" d="M 4122 4306 
L 4122 3641 
Q 3803 3938 3442 4084 
Q 3081 4231 2675 4231 
Q 1875 4231 1450 3742 
Q 1025 3253 1025 2328 
Q 1025 1406 1450 917 
Q 1875 428 2675 428 
Q 3081 428 3442 575 
Q 3803 722 4122 1019 
L 4122 359 
Q 3791 134 3420 21 
Q 3050 -91 2638 -91 
Q 1578 -91 968 557 
Q 359 1206 359 2328 
Q 359 3453 968 4101 
Q 1578 4750 2638 4750 
Q 3056 4750 3426 4639 
Q 3797 4528 4122 4306 
z
" transform="scale(0.015625)"/>
       <path id="DejaVuSans-72" d="M 2631 2963 
Q 2534 3019 2420 3045 
Q 2306 3072 2169 3072 
Q 1681 3072 1420 2755 
Q 1159 2438 1159 1844 
L 1159 0 
L 581 0 
L 581 3500 
L 1159 3500 
L 1159 2956 
Q 1341 3275 1631 3429 
Q 1922 3584 2338 3584 
Q 2397 3584 2469 3576 
Q 2541 3569 2628 3553 
L 2631 2963 
z
" transform="scale(0.015625)"/>
       <path id="DejaVuSans-20" transform="scale(0.015625)"/>
       <path id="DejaVuSans-6e" d="M 3513 2113 
L 3513 0 
L 2938 0 
L 2938 2094 
Q 2938 2591 2744 2837 
Q 2550 3084 2163 3084 
Q 1697 3084 1428 2787 
Q 1159 2491 1159 1978 
L 1159 0 
L 581 0 
L 581 3500 
L 1159 3500 
L 1159 2956 
Q 1366 3272 1645 3428 
Q 1925 3584 2291 3584 
Q 2894 3584 3203 3211 
Q 3513 2838 3513 2113 
z
" transform="scale(0.015625)"/>
       <path id="DejaVuSans-74" d="M 1172 4494 
L 1172 3500 
L 2356 3500 
L 2356 3053 
L 1172 3053 
L 1172 1153 
Q 1172 725 1289 603 
Q 1406 481 1766 481 
L 2356 481 
L 2356 0 
L 1766 0 
Q 1100 0 847 248 
Q 594 497 594 1153 
L 594 3053 
L 172 3053 
L 172 3500 
L 594 3500 
L 594 4494 
L 1172 4494 
z
" transform="scale(0.015625)"/>
       <path id="DejaVuSans-79" d="M 2059 -325 
Q 1816 -950 1584 -1140 
Q 1353 -1331 966 -1331 
L 506 -1331 
L 506 -850 
L 844 -850 
Q 1081 -850 1212 -737 
Q 1344 -625 1503 -206 
L 1606 56 
L 191 3500 
L 800 3500 
L 1894 763 
L 2988 3500 
L 3597 3500 
L 2059 -325 
z
" transform="scale(0.015625)"/>
       <path id="DejaVuSans-4c" d="M 628 4666 
L 1259 4666 
L 1259 531 
L 3531 531 
L 3531 0 
L 628 0 
L 628 4666 
z
" transform="scale(0.015625)"/>
       <path id="DejaVuSans-28" d="M 1984 4856 
Q 1566 4138 1362 3434 
Q 1159 2731 1159 2009 
Q 1159 1288 1364 580 
Q 1569 -128 1984 -844 
L 1484 -844 
Q 1016 -109 783 600 
Q 550 1309 550 2009 
Q 550 2706 781 3412 
Q 1013 4119 1484 4856 
L 1984 4856 
z
" transform="scale(0.015625)"/>
       <path id="DejaVuSans-Oblique-51" d="M 2309 -84 
Q 2275 -88 2237 -89 
Q 2200 -91 2125 -91 
Q 1250 -91 756 411 
Q 263 913 263 1797 
Q 263 2319 452 2844 
Q 641 3369 978 3788 
Q 1369 4269 1858 4509 
Q 2347 4750 2938 4750 
Q 3794 4750 4287 4245 
Q 4781 3741 4781 2869 
Q 4781 1928 4265 1147 
Q 3750 366 2919 44 
L 3553 -825 
L 2847 -825 
L 2309 -84 
z
M 2919 4238 
Q 2400 4238 2003 3986 
Q 1606 3734 1313 3219 
Q 1125 2891 1026 2522 
Q 928 2153 928 1778 
Q 928 1128 1239 775 
Q 1550 422 2119 422 
Q 2631 422 3032 676 
Q 3434 931 3719 1434 
Q 3909 1772 4009 2142 
Q 4109 2513 4109 2881 
Q 4109 3528 3796 3883 
Q 3484 4238 2919 4238 
z
" transform="scale(0.015625)"/>
       <path id="DejaVuSans-77" d="M 269 3500 
L 844 3500 
L 1563 769 
L 2278 3500 
L 2956 3500 
L 3675 769 
L 4391 3500 
L 4966 3500 
L 4050 0 
L 3372 0 
L 2619 2869 
L 1863 0 
L 1184 0 
L 269 3500 
z
" transform="scale(0.015625)"/>
       <path id="DejaVuSans-69" d="M 603 3500 
L 1178 3500 
L 1178 0 
L 603 0 
L 603 3500 
z
M 603 4863 
L 1178 4863 
L 1178 4134 
L 603 4134 
L 603 4863 
z
" transform="scale(0.015625)"/>
       <path id="DejaVuSans-2212" d="M 678 2272 
L 4684 2272 
L 4684 1741 
L 678 1741 
L 678 2272 
z
" transform="scale(0.015625)"/>
       <path id="DejaVuSans-33" d="M 2597 2516 
Q 3050 2419 3304 2112 
Q 3559 1806 3559 1356 
Q 3559 666 3084 287 
Q 2609 -91 1734 -91 
Q 1441 -91 1130 -33 
Q 819 25 488 141 
L 488 750 
Q 750 597 1062 519 
Q 1375 441 1716 441 
Q 2309 441 2620 675 
Q 2931 909 2931 1356 
Q 2931 1769 2642 2001 
Q 2353 2234 1838 2234 
L 1294 2234 
L 1294 2753 
L 1863 2753 
Q 2328 2753 2575 2939 
Q 2822 3125 2822 3475 
Q 2822 3834 2567 4026 
Q 2313 4219 1838 4219 
Q 1578 4219 1281 4162 
Q 984 4106 628 3988 
L 628 4550 
Q 988 4650 1302 4700 
Q 1616 4750 1894 4750 
Q 2613 4750 3031 4423 
Q 3450 4097 3450 3541 
Q 3450 3153 3228 2886 
Q 3006 2619 2597 2516 
z
" transform="scale(0.015625)"/>
       <path id="DejaVuSans-61" d="M 2194 1759 
Q 1497 1759 1228 1600 
Q 959 1441 959 1056 
Q 959 750 1161 570 
Q 1363 391 1709 391 
Q 2188 391 2477 730 
Q 2766 1069 2766 1631 
L 2766 1759 
L 2194 1759 
z
M 3341 1997 
L 3341 0 
L 2766 0 
L 2766 531 
Q 2569 213 2275 61 
Q 1981 -91 1556 -91 
Q 1019 -91 701 211 
Q 384 513 384 1019 
Q 384 1609 779 1909 
Q 1175 2209 1959 2209 
L 2766 2209 
L 2766 2266 
Q 2766 2663 2505 2880 
Q 2244 3097 1772 3097 
Q 1472 3097 1187 3025 
Q 903 2953 641 2809 
L 641 3341 
Q 956 3463 1253 3523 
Q 1550 3584 1831 3584 
Q 2591 3584 2966 3190 
Q 3341 2797 3341 1997 
z
" transform="scale(0.015625)"/>
       <path id="DejaVuSans-67" d="M 2906 1791 
Q 2906 2416 2648 2759 
Q 2391 3103 1925 3103 
Q 1463 3103 1205 2759 
Q 947 2416 947 1791 
Q 947 1169 1205 825 
Q 1463 481 1925 481 
Q 2391 481 2648 825 
Q 2906 1169 2906 1791 
z
M 3481 434 
Q 3481 -459 3084 -895 
Q 2688 -1331 1869 -1331 
Q 1566 -1331 1297 -1286 
Q 1028 -1241 775 -1147 
L 775 -588 
Q 1028 -725 1275 -790 
Q 1522 -856 1778 -856 
Q 2344 -856 2625 -561 
Q 2906 -266 2906 331 
L 2906 616 
Q 2728 306 2450 153 
Q 2172 0 1784 0 
Q 1141 0 747 490 
Q 353 981 353 1791 
Q 353 2603 747 3093 
Q 1141 3584 1784 3584 
Q 2172 3584 2450 3431 
Q 2728 3278 2906 2969 
L 2906 3500 
L 3481 3500 
L 3481 434 
z
" transform="scale(0.015625)"/>
       <path id="DejaVuSans-65" d="M 3597 1894 
L 3597 1613 
L 953 1613 
Q 991 1019 1311 708 
Q 1631 397 2203 397 
Q 2534 397 2845 478 
Q 3156 559 3463 722 
L 3463 178 
Q 3153 47 2828 -22 
Q 2503 -91 2169 -91 
Q 1331 -91 842 396 
Q 353 884 353 1716 
Q 353 2575 817 3079 
Q 1281 3584 2069 3584 
Q 2775 3584 3186 3129 
Q 3597 2675 3597 1894 
z
M 3022 2063 
Q 3016 2534 2758 2815 
Q 2500 3097 2075 3097 
Q 1594 3097 1305 2825 
Q 1016 2553 972 2059 
L 3022 2063 
z
" transform="scale(0.015625)"/>
       <path id="DejaVuSans-29" d="M 513 4856 
L 1013 4856 
Q 1481 4119 1714 3412 
Q 1947 2706 1947 2009 
Q 1947 1309 1714 600 
Q 1481 -109 1013 -844 
L 513 -844 
Q 928 -128 1133 580 
Q 1338 1288 1338 2009 
Q 1338 2731 1133 3434 
Q 928 4138 513 4856 
z
" transform="scale(0.015625)"/>
      </defs>
      <use xlink:href="#DejaVuSans-43" transform="translate(0 0.015625)"/>
      <use xlink:href="#DejaVuSans-72" transform="translate(69.824219 0.015625)"/>
      <use xlink:href="#DejaVuSans-6f" transform="translate(110.9375 0.015625)"/>
      <use xlink:href="#DejaVuSans-73" transform="translate(172.119141 0.015625)"/>
      <use xlink:href="#DejaVuSans-73" transform="translate(224.21875 0.015625)"/>
      <use xlink:href="#DejaVuSans-20" transform="translate(276.318359 0.015625)"/>
      <use xlink:href="#DejaVuSans-45" transform="translate(308.105469 0.015625)"/>
      <use xlink:href="#DejaVuSans-6e" transform="translate(371.289062 0.015625)"/>
      <use xlink:href="#DejaVuSans-74" transform="translate(434.667969 0.015625)"/>
      <use xlink:href="#DejaVuSans-72" transform="translate(473.876953 0.015625)"/>
      <use xlink:href="#DejaVuSans-6f" transform="translate(514.990234 0.015625)"/>
      <use xlink:href="#DejaVuSans-70" transform="translate(576.171875 0.015625)"/>
      <use xlink:href="#DejaVuSans-79" transform="translate(639.648438 0.015625)"/>
      <use xlink:href="#DejaVuSans-20" transform="translate(698.828125 0.015625)"/>
      <use xlink:href="#DejaVuSans-4c" transform="translate(730.615234 0.015625)"/>
      <use xlink:href="#DejaVuSans-6f" transform="translate(786.328125 0.015625)"/>
      <use xlink:href="#DejaVuSans-73" transform="translate(847.509766 0.015625)"/>
      <use xlink:href="#DejaVuSans-73" transform="translate(899.609375 0.015625)"/>
      <use xlink:href="#DejaVuSans-20" transform="translate(951.708984 0.015625)"/>
      <use xlink:href="#DejaVuSans-28" transform="translate(983.496094 0.015625)"/>
      <use xlink:href="#DejaVuSans-Oblique-51" transform="translate(1022.509766 0.015625)"/>
      <use xlink:href="#DejaVuSans-32" transform="translate(1101.220703 -16.390625)scale(0.7)"/>
      <use xlink:href="#DejaVuSans-20" transform="translate(1148.491211 0.015625)"/>
      <use xlink:href="#DejaVuSans-77" transform="translate(1180.27832 0.015625)"/>
      <use xlink:href="#DejaVuSans-69" transform="translate(1262.06543 0.015625)"/>
      <use xlink:href="#DejaVuSans-74" transform="translate(1289.848633 0.015625)"/>
      <use xlink:href="#DejaVuSans-68" transform="translate(1329.057617 0.015625)"/>
      <use xlink:href="#DejaVuSans-20" transform="translate(1392.436523 0.015625)"/>
      <use xlink:href="#DejaVuSans-Oblique-51" transform="translate(1424.223633 0.015625)"/>
      <use xlink:href="#DejaVuSans-31" transform="translate(1502.93457 -16.390625)scale(0.7)"/>
      <use xlink:href="#DejaVuSans-2212" transform="translate(1569.6875 0.015625)"/>
      <use xlink:href="#DejaVuSans-Oblique-51" transform="translate(1672.958984 0.015625)"/>
      <use xlink:href="#DejaVuSans-33" transform="translate(1751.669922 -16.390625)scale(0.7)"/>
      <use xlink:href="#DejaVuSans-20" transform="translate(1798.94043 0.015625)"/>
      <use xlink:href="#DejaVuSans-72" transform="translate(1830.727539 0.015625)"/>
      <use xlink:href="#DejaVuSans-61" transform="translate(1871.84082 0.015625)"/>
      <use xlink:href="#DejaVuSans-6e" transform="translate(1933.120117 0.015625)"/>
      <use xlink:href="#DejaVuSans-67" transform="translate(1996.499023 0.015625)"/>
      <use xlink:href="#DejaVuSans-65" transform="translate(2059.975586 0.015625)"/>
      <use xlink:href="#DejaVuSans-29" transform="translate(2121.499023 0.015625)"/>
     </g>
    </g>
   </g>
   <g id="line2d_29">
    <path d="M 57.681818 95.722059 
L 67.437063 214.947071 
L 77.192308 245.210992 
L 86.947552 266.852294 
L 96.702797 282.245969 
L 106.458042 265.484387 
L 116.213287 290.997113 
L 125.968531 299.121191 
L 135.723776 297.736083 
L 145.479021 281.794745 
L 155.234266 305.353466 
L 164.98951 312.77768 
L 174.744755 316.161659 
L 184.5 321.148385 
L 194.255245 322.42519 
L 204.01049 327.194102 
L 213.765734 328.229164 
L 223.520979 327.058234 
L 233.276224 321.51925 
L 243.031469 332.16647 
L 252.786713 324.450958 
L 262.541958 323.147269 
" clip-path="url(#p9c1b062ce2)" style="fill: none; stroke: #1f77b4; stroke-width: 1.5; stroke-linecap: square"/>
   </g>
   <g id="line2d_30">
    <path d="M 57.681818 263.677246 
L 67.437063 313.36341 
L 77.192308 319.632205 
L 86.947552 335.010484 
L 96.702797 335.986899 
L 106.458042 326.431597 
L 116.213287 335.795107 
L 125.968531 342.275344 
L 135.723776 338.892954 
L 145.479021 334.430962 
L 155.234266 338.774372 
L 164.98951 347.912414 
L 174.744755 345.745189 
L 184.5 337.125348 
L 194.255245 342.142932 
" clip-path="url(#p9c1b062ce2)" style="fill: none; stroke: #ff7f0e; stroke-width: 1.5; stroke-linecap: square"/>
   </g>
   <g id="line2d_31">
    <path d="M 57.681818 190.549281 
L 67.437063 218.195569 
L 77.192308 280.913473 
L 86.947552 291.871704 
L 96.702797 281.105714 
L 106.458042 258.49613 
L 116.213287 273.591854 
L 125.968531 308.129664 
L 135.723776 301.284409 
L 145.479021 310.697682 
L 155.234266 308.401264 
L 164.98951 304.083024 
L 174.744755 315.131261 
L 184.5 320.514302 
L 194.255245 315.586425 
L 204.01049 322.109543 
L 213.765734 339.595918 
" clip-path="url(#p9c1b062ce2)" style="fill: none; stroke: #2ca02c; stroke-width: 1.5; stroke-linecap: square"/>
   </g>
   <g id="line2d_32">
    <path d="M 57.681818 190.556073 
L 67.437063 224.281886 
L 77.192308 265.542052 
L 86.947552 282.855735 
L 96.702797 295.895958 
L 106.458042 258.781076 
L 116.213287 300.075238 
L 125.968531 281.357419 
L 135.723776 290.306063 
L 145.479021 305.992413 
L 155.234266 293.502913 
L 164.98951 311.35475 
L 174.744755 309.047065 
L 184.5 316.092854 
L 194.255245 301.053047 
L 204.01049 324.273939 
L 213.765734 315.963074 
" clip-path="url(#p9c1b062ce2)" style="fill: none; stroke: #d62728; stroke-width: 1.5; stroke-linecap: square"/>
   </g>
   <g id="line2d_33">
    <path d="M 57.681818 121.37105 
L 67.437063 212.795823 
L 77.192308 249.369524 
L 86.947552 258.059314 
L 96.702797 247.971785 
L 106.458042 274.16416 
L 116.213287 295.098952 
L 125.968531 293.813537 
L 135.723776 280.460828 
L 145.479021 261.833978 
L 155.234266 292.272379 
L 164.98951 304.404558 
L 174.744755 319.011551 
L 184.5 299.952173 
L 194.255245 311.830956 
L 204.01049 310.761954 
L 213.765734 318.475255 
L 223.520979 318.081653 
L 233.276224 307.625436 
L 243.031469 324.072595 
L 252.786713 316.562486 
L 262.541958 318.573802 
L 272.297203 322.073962 
L 282.052448 323.709414 
L 291.807692 325.164368 
L 301.562937 324.892248 
L 311.318182 323.458022 
" clip-path="url(#p9c1b062ce2)" style="fill: none; stroke-dasharray: 5.55,2.4; stroke-dashoffset: 0; stroke: #9467bd; stroke-width: 1.5"/>
   </g>
   <g id="line2d_34">
    <path d="M 57.681818 223.434047 
L 67.437063 275.527059 
L 77.192308 291.079289 
L 86.947552 293.476763 
L 96.702797 273.66855 
L 106.458042 288.265646 
L 116.213287 306.586916 
L 125.968531 314.377256 
L 135.723776 307.138052 
L 145.479021 304.345368 
L 155.234266 328.54885 
L 164.98951 316.97782 
L 174.744755 319.267416 
L 184.5 325.959488 
L 194.255245 331.727214 
L 204.01049 332.611112 
L 213.765734 335.111857 
L 223.520979 330.258487 
L 233.276224 329.748657 
" clip-path="url(#p9c1b062ce2)" style="fill: none; stroke-dasharray: 5.55,2.4; stroke-dashoffset: 0; stroke: #8c564b; stroke-width: 1.5"/>
   </g>
   <g id="line2d_35">
    <path d="M 57.681818 191.756671 
L 67.437063 295.617297 
L 77.192308 327.561468 
L 86.947552 329.507217 
L 96.702797 327.821837 
L 106.458042 335.957616 
L 116.213287 311.99571 
L 125.968531 331.348039 
L 135.723776 314.715367 
L 145.479021 324.409062 
L 155.234266 319.146351 
L 164.98951 311.485607 
L 174.744755 313.35479 
L 184.5 313.868543 
" clip-path="url(#p9c1b062ce2)" style="fill: none; stroke-dasharray: 5.55,2.4; stroke-dashoffset: 0; stroke: #e377c2; stroke-width: 1.5"/>
   </g>
   <g id="line2d_36">
    <path d="M 57.681818 275.174607 
L 67.437063 320.807178 
L 77.192308 350.90843 
L 86.947552 352.658813 
L 96.702797 356.76928 
L 106.458042 344.835106 
L 116.213287 329.466025 
L 125.968531 340.7261 
L 135.723776 338.017949 
L 145.479021 339.735373 
L 155.234266 352.248206 
L 164.98951 350.990774 
L 174.744755 347.375911 
L 184.5 340.869653 
" clip-path="url(#p9c1b062ce2)" style="fill: none; stroke-dasharray: 5.55,2.4; stroke-dashoffset: 0; stroke: #7f7f7f; stroke-width: 1.5"/>
   </g>
   <g id="patch_3">
    <path d="M 45 378 
L 45 51.84 
" style="fill: none; stroke: #000000; stroke-width: 0.8; stroke-linejoin: miter; stroke-linecap: square"/>
   </g>
   <g id="patch_4">
    <path d="M 324 378 
L 324 51.84 
" style="fill: none; stroke: #000000; stroke-width: 0.8; stroke-linejoin: miter; stroke-linecap: square"/>
   </g>
   <g id="patch_5">
    <path d="M 45 378 
L 324 378 
" style="fill: none; stroke: #000000; stroke-width: 0.8; stroke-linejoin: miter; stroke-linecap: square"/>
   </g>
   <g id="patch_6">
    <path d="M 45 51.84 
L 324 51.84 
" style="fill: none; stroke: #000000; stroke-width: 0.8; stroke-linejoin: miter; stroke-linecap: square"/>
   </g>
   <g id="legend_1">
    <g id="patch_7">
     <path d="M 206.728125 178.93375 
L 317 178.93375 
Q 319 178.93375 319 176.93375 
L 319 58.84 
Q 319 56.84 317 56.84 
L 206.728125 56.84 
Q 204.728125 56.84 204.728125 58.84 
L 204.728125 176.93375 
Q 204.728125 178.93375 206.728125 178.93375 
z
" style="fill: #ffffff; opacity: 0.8; stroke: #cccccc; stroke-linejoin: miter"/>
    </g>
    <g id="line2d_37">
     <path d="M 208.728125 64.938437 
L 218.728125 64.938437 
L 228.728125 64.938437 
" style="fill: none; stroke: #1f77b4; stroke-width: 1.5; stroke-linecap: square"/>
    </g>
    <g id="text_17">
     <!-- vit_t_16 -->
     <g transform="translate(236.728125 68.438437)scale(0.1 -0.1)">
      <defs>
       <path id="DejaVuSans-76" d="M 191 3500 
L 800 3500 
L 1894 563 
L 2988 3500 
L 3597 3500 
L 2284 0 
L 1503 0 
L 191 3500 
z
" transform="scale(0.015625)"/>
       <path id="DejaVuSans-5f" d="M 3263 -1063 
L 3263 -1509 
L -63 -1509 
L -63 -1063 
L 3263 -1063 
z
" transform="scale(0.015625)"/>
       <path id="DejaVuSans-36" d="M 2113 2584 
Q 1688 2584 1439 2293 
Q 1191 2003 1191 1497 
Q 1191 994 1439 701 
Q 1688 409 2113 409 
Q 2538 409 2786 701 
Q 3034 994 3034 1497 
Q 3034 2003 2786 2293 
Q 2538 2584 2113 2584 
z
M 3366 4563 
L 3366 3988 
Q 3128 4100 2886 4159 
Q 2644 4219 2406 4219 
Q 1781 4219 1451 3797 
Q 1122 3375 1075 2522 
Q 1259 2794 1537 2939 
Q 1816 3084 2150 3084 
Q 2853 3084 3261 2657 
Q 3669 2231 3669 1497 
Q 3669 778 3244 343 
Q 2819 -91 2113 -91 
Q 1303 -91 875 529 
Q 447 1150 447 2328 
Q 447 3434 972 4092 
Q 1497 4750 2381 4750 
Q 2619 4750 2861 4703 
Q 3103 4656 3366 4563 
z
" transform="scale(0.015625)"/>
      </defs>
      <use xlink:href="#DejaVuSans-76"/>
      <use xlink:href="#DejaVuSans-69" x="59.179688"/>
      <use xlink:href="#DejaVuSans-74" x="86.962891"/>
      <use xlink:href="#DejaVuSans-5f" x="126.171875"/>
      <use xlink:href="#DejaVuSans-74" x="176.171875"/>
      <use xlink:href="#DejaVuSans-5f" x="215.380859"/>
      <use xlink:href="#DejaVuSans-31" x="265.380859"/>
      <use xlink:href="#DejaVuSans-36" x="329.003906"/>
     </g>
    </g>
    <g id="line2d_38">
     <path d="M 208.728125 79.894687 
L 218.728125 79.894687 
L 228.728125 79.894687 
" style="fill: none; stroke: #ff7f0e; stroke-width: 1.5; stroke-linecap: square"/>
    </g>
    <g id="text_18">
     <!-- swin_t -->
     <g transform="translate(236.728125 83.394687)scale(0.1 -0.1)">
      <use xlink:href="#DejaVuSans-73"/>
      <use xlink:href="#DejaVuSans-77" x="52.099609"/>
      <use xlink:href="#DejaVuSans-69" x="133.886719"/>
      <use xlink:href="#DejaVuSans-6e" x="161.669922"/>
      <use xlink:href="#DejaVuSans-5f" x="225.048828"/>
      <use xlink:href="#DejaVuSans-74" x="275.048828"/>
     </g>
    </g>
    <g id="line2d_39">
     <path d="M 208.728125 94.850937 
L 218.728125 94.850937 
L 228.728125 94.850937 
" style="fill: none; stroke: #2ca02c; stroke-width: 1.5; stroke-linecap: square"/>
    </g>
    <g id="text_19">
     <!-- beit_b_16 -->
     <g transform="translate(236.728125 98.350937)scale(0.1 -0.1)">
      <defs>
       <path id="DejaVuSans-62" d="M 3116 1747 
Q 3116 2381 2855 2742 
Q 2594 3103 2138 3103 
Q 1681 3103 1420 2742 
Q 1159 2381 1159 1747 
Q 1159 1113 1420 752 
Q 1681 391 2138 391 
Q 2594 391 2855 752 
Q 3116 1113 3116 1747 
z
M 1159 2969 
Q 1341 3281 1617 3432 
Q 1894 3584 2278 3584 
Q 2916 3584 3314 3078 
Q 3713 2572 3713 1747 
Q 3713 922 3314 415 
Q 2916 -91 2278 -91 
Q 1894 -91 1617 61 
Q 1341 213 1159 525 
L 1159 0 
L 581 0 
L 581 4863 
L 1159 4863 
L 1159 2969 
z
" transform="scale(0.015625)"/>
      </defs>
      <use xlink:href="#DejaVuSans-62"/>
      <use xlink:href="#DejaVuSans-65" x="63.476562"/>
      <use xlink:href="#DejaVuSans-69" x="125"/>
      <use xlink:href="#DejaVuSans-74" x="152.783203"/>
      <use xlink:href="#DejaVuSans-5f" x="191.992188"/>
      <use xlink:href="#DejaVuSans-62" x="241.992188"/>
      <use xlink:href="#DejaVuSans-5f" x="305.46875"/>
      <use xlink:href="#DejaVuSans-31" x="355.46875"/>
      <use xlink:href="#DejaVuSans-36" x="419.091797"/>
     </g>
    </g>
    <g id="line2d_40">
     <path d="M 208.728125 109.807187 
L 218.728125 109.807187 
L 228.728125 109.807187 
" style="fill: none; stroke: #d62728; stroke-width: 1.5; stroke-linecap: square"/>
    </g>
    <g id="text_20">
     <!-- deit_t_16 -->
     <g transform="translate(236.728125 113.307187)scale(0.1 -0.1)">
      <defs>
       <path id="DejaVuSans-64" d="M 2906 2969 
L 2906 4863 
L 3481 4863 
L 3481 0 
L 2906 0 
L 2906 525 
Q 2725 213 2448 61 
Q 2172 -91 1784 -91 
Q 1150 -91 751 415 
Q 353 922 353 1747 
Q 353 2572 751 3078 
Q 1150 3584 1784 3584 
Q 2172 3584 2448 3432 
Q 2725 3281 2906 2969 
z
M 947 1747 
Q 947 1113 1208 752 
Q 1469 391 1925 391 
Q 2381 391 2643 752 
Q 2906 1113 2906 1747 
Q 2906 2381 2643 2742 
Q 2381 3103 1925 3103 
Q 1469 3103 1208 2742 
Q 947 2381 947 1747 
z
" transform="scale(0.015625)"/>
      </defs>
      <use xlink:href="#DejaVuSans-64"/>
      <use xlink:href="#DejaVuSans-65" x="63.476562"/>
      <use xlink:href="#DejaVuSans-69" x="125"/>
      <use xlink:href="#DejaVuSans-74" x="152.783203"/>
      <use xlink:href="#DejaVuSans-5f" x="191.992188"/>
      <use xlink:href="#DejaVuSans-74" x="241.992188"/>
      <use xlink:href="#DejaVuSans-5f" x="281.201172"/>
      <use xlink:href="#DejaVuSans-31" x="331.201172"/>
      <use xlink:href="#DejaVuSans-36" x="394.824219"/>
     </g>
    </g>
    <g id="line2d_41">
     <path d="M 208.728125 124.763437 
L 218.728125 124.763437 
L 228.728125 124.763437 
" style="fill: none; stroke-dasharray: 5.55,2.4; stroke-dashoffset: 0; stroke: #9467bd; stroke-width: 1.5"/>
    </g>
    <g id="text_21">
     <!-- vgg19 -->
     <g transform="translate(236.728125 128.263437)scale(0.1 -0.1)">
      <use xlink:href="#DejaVuSans-76"/>
      <use xlink:href="#DejaVuSans-67" x="59.179688"/>
      <use xlink:href="#DejaVuSans-67" x="122.65625"/>
      <use xlink:href="#DejaVuSans-31" x="186.132812"/>
      <use xlink:href="#DejaVuSans-39" x="249.755859"/>
     </g>
    </g>
    <g id="line2d_42">
     <path d="M 208.728125 139.441562 
L 218.728125 139.441562 
L 228.728125 139.441562 
" style="fill: none; stroke-dasharray: 5.55,2.4; stroke-dashoffset: 0; stroke: #8c564b; stroke-width: 1.5"/>
    </g>
    <g id="text_22">
     <!-- resnet50 -->
     <g transform="translate(236.728125 142.941562)scale(0.1 -0.1)">
      <use xlink:href="#DejaVuSans-72"/>
      <use xlink:href="#DejaVuSans-65" x="38.863281"/>
      <use xlink:href="#DejaVuSans-73" x="100.386719"/>
      <use xlink:href="#DejaVuSans-6e" x="152.486328"/>
      <use xlink:href="#DejaVuSans-65" x="215.865234"/>
      <use xlink:href="#DejaVuSans-74" x="277.388672"/>
      <use xlink:href="#DejaVuSans-35" x="316.597656"/>
      <use xlink:href="#DejaVuSans-30" x="380.220703"/>
     </g>
    </g>
    <g id="line2d_43">
     <path d="M 208.728125 154.119687 
L 218.728125 154.119687 
L 228.728125 154.119687 
" style="fill: none; stroke-dasharray: 5.55,2.4; stroke-dashoffset: 0; stroke: #e377c2; stroke-width: 1.5"/>
    </g>
    <g id="text_23">
     <!-- efficientnetv2_t -->
     <g transform="translate(236.728125 157.619687)scale(0.1 -0.1)">
      <defs>
       <path id="DejaVuSans-66" d="M 2375 4863 
L 2375 4384 
L 1825 4384 
Q 1516 4384 1395 4259 
Q 1275 4134 1275 3809 
L 1275 3500 
L 2222 3500 
L 2222 3053 
L 1275 3053 
L 1275 0 
L 697 0 
L 697 3053 
L 147 3053 
L 147 3500 
L 697 3500 
L 697 3744 
Q 697 4328 969 4595 
Q 1241 4863 1831 4863 
L 2375 4863 
z
" transform="scale(0.015625)"/>
      </defs>
      <use xlink:href="#DejaVuSans-65"/>
      <use xlink:href="#DejaVuSans-66" x="61.523438"/>
      <use xlink:href="#DejaVuSans-66" x="96.728516"/>
      <use xlink:href="#DejaVuSans-69" x="131.933594"/>
      <use xlink:href="#DejaVuSans-63" x="159.716797"/>
      <use xlink:href="#DejaVuSans-69" x="214.697266"/>
      <use xlink:href="#DejaVuSans-65" x="242.480469"/>
      <use xlink:href="#DejaVuSans-6e" x="304.003906"/>
      <use xlink:href="#DejaVuSans-74" x="367.382812"/>
      <use xlink:href="#DejaVuSans-6e" x="406.591797"/>
      <use xlink:href="#DejaVuSans-65" x="469.970703"/>
      <use xlink:href="#DejaVuSans-74" x="531.494141"/>
      <use xlink:href="#DejaVuSans-76" x="570.703125"/>
      <use xlink:href="#DejaVuSans-32" x="629.882812"/>
      <use xlink:href="#DejaVuSans-5f" x="693.505859"/>
      <use xlink:href="#DejaVuSans-74" x="743.505859"/>
     </g>
    </g>
    <g id="line2d_44">
     <path d="M 208.728125 169.075937 
L 218.728125 169.075937 
L 228.728125 169.075937 
" style="fill: none; stroke-dasharray: 5.55,2.4; stroke-dashoffset: 0; stroke: #7f7f7f; stroke-width: 1.5"/>
    </g>
    <g id="text_24">
     <!-- convnext_t -->
     <g transform="translate(236.728125 172.575937)scale(0.1 -0.1)">
      <defs>
       <path id="DejaVuSans-78" d="M 3513 3500 
L 2247 1797 
L 3578 0 
L 2900 0 
L 1881 1375 
L 863 0 
L 184 0 
L 1544 1831 
L 300 3500 
L 978 3500 
L 1906 2253 
L 2834 3500 
L 3513 3500 
z
" transform="scale(0.015625)"/>
      </defs>
      <use xlink:href="#DejaVuSans-63"/>
      <use xlink:href="#DejaVuSans-6f" x="54.980469"/>
      <use xlink:href="#DejaVuSans-6e" x="116.162109"/>
      <use xlink:href="#DejaVuSans-76" x="179.541016"/>
      <use xlink:href="#DejaVuSans-6e" x="238.720703"/>
      <use xlink:href="#DejaVuSans-65" x="302.099609"/>
      <use xlink:href="#DejaVuSans-78" x="361.873047"/>
      <use xlink:href="#DejaVuSans-74" x="421.052734"/>
      <use xlink:href="#DejaVuSans-5f" x="460.261719"/>
      <use xlink:href="#DejaVuSans-74" x="510.261719"/>
     </g>
    </g>
   </g>
  </g>
 </g>
 <defs>
  <clipPath id="p9c1b062ce2">
   <rect x="45" y="51.84" width="279" height="326.16"/>
  </clipPath>
 </defs>
</svg>
