<?xml version="1.0" encoding="utf-8" standalone="no"?>
<!DOCTYPE svg PUBLIC "-//W3C//DTD SVG 1.1//EN"
  "http://www.w3.org/Graphics/SVG/1.1/DTD/svg11.dtd">
<svg xmlns:xlink="http://www.w3.org/1999/xlink" width="288pt" height="324pt" viewBox="0 0 288 324" xmlns="http://www.w3.org/2000/svg" version="1.1">
 <metadata>
  <rdf:RDF xmlns:dc="http://purl.org/dc/elements/1.1/" xmlns:cc="http://creativecommons.org/ns#" xmlns:rdf="http://www.w3.org/1999/02/22-rdf-syntax-ns#">
   <cc:Work>
    <dc:type rdf:resource="http://purl.org/dc/dcmitype/StillImage"/>
    <dc:date>2022-06-07T15:02:12.216598</dc:date>
    <dc:format>image/svg+xml</dc:format>
    <dc:creator>
     <cc:Agent>
      <dc:title>Matplotlib v3.5.2, https://matplotlib.org/</dc:title>
     </cc:Agent>
    </dc:creator>
   </cc:Work>
  </rdf:RDF>
 </metadata>
 <defs>
  <style type="text/css">*{stroke-linejoin: round; stroke-linecap: butt}</style>
 </defs>
 <g id="figure_1">
  <g id="patch_1">
   <path d="M 0 324 
L 288 324 
L 288 0 
L 0 0 
L 0 324 
z
" style="fill: none"/>
  </g>
  <g id="axes_1">
   <g id="patch_2">
    <path d="M 36 283.5 
L 259.2 283.5 
L 259.2 38.88 
L 36 38.88 
z
" style="fill: #ffffff"/>
   </g>
   <g id="PolyCollection_1">
    <path d="M 46.145455 332.416357 
L 46.145455 342.718228 
L 49.003329 266.468518 
L 51.861204 237.94887 
L 54.719078 208.524426 
L 57.576953 190.568892 
L 60.434827 181.178984 
L 63.292702 169.983763 
L 66.150576 164.017386 
L 69.008451 157.872959 
L 71.866325 151.964427 
L 74.7242 147.375218 
L 77.582074 146.880951 
L 80.439949 146.181075 
L 83.297823 140.20422 
L 86.155698 139.977041 
L 89.013572 137.736157 
L 91.871447 135.567533 
L 94.729321 137.022537 
L 97.587196 133.063111 
L 100.44507 132.54734 
L 103.302945 129.359755 
L 106.160819 131.949775 
L 109.018694 130.066131 
L 111.876569 128.915929 
L 114.734443 128.920991 
L 117.592318 129.073544 
L 120.450192 128.927815 
L 123.308067 126.611861 
L 126.165941 129.460402 
L 129.023816 126.325255 
L 131.88169 126.685334 
L 134.739565 125.418615 
L 137.597439 125.160881 
L 140.455314 126.595541 
L 143.313188 124.259533 
L 146.171063 123.154404 
L 149.028937 124.027862 
L 151.886812 123.298655 
L 154.744686 121.941453 
L 157.602561 123.860953 
L 160.460435 121.589621 
L 163.31831 121.309866 
L 166.176184 120.740236 
L 169.034059 119.429714 
L 171.891933 120.963973 
L 174.749808 121.047231 
L 177.607682 122.007867 
L 180.465557 119.34233 
L 183.323431 120.554846 
L 183.323431 110.500354 
L 183.323431 110.500354 
L 180.465557 110.709301 
L 177.607682 111.054471 
L 174.749808 111.011538 
L 171.891933 111.596581 
L 169.034059 111.123701 
L 166.176184 111.820318 
L 163.31831 113.257826 
L 160.460435 111.472717 
L 157.602561 112.713878 
L 154.744686 113.128024 
L 151.886812 113.777961 
L 149.028937 112.546969 
L 146.171063 111.413288 
L 143.313188 112.817083 
L 140.455314 114.495351 
L 137.597439 114.926442 
L 134.739565 113.163354 
L 131.88169 115.409127 
L 129.023816 112.758499 
L 126.165941 116.146552 
L 123.308067 113.977247 
L 120.450192 115.67557 
L 117.592318 115.028056 
L 114.734443 117.689532 
L 111.876569 115.687455 
L 109.018694 120.558669 
L 106.160819 122.187517 
L 103.302945 120.76326 
L 100.44507 122.593522 
L 97.587196 122.579535 
L 94.729321 123.637955 
L 91.871447 124.591174 
L 89.013572 127.440397 
L 86.155698 128.712005 
L 83.297823 131.997318 
L 80.439949 135.554371 
L 77.582074 135.356279 
L 74.7242 137.370936 
L 71.866325 139.304927 
L 69.008451 145.439226 
L 66.150576 151.839414 
L 63.292702 157.414083 
L 60.434827 169.802739 
L 57.576953 178.978862 
L 54.719078 196.650035 
L 51.861204 222.421899 
L 49.003329 255.119974 
L 46.145455 332.416357 
z
" clip-path="url(#p0b81a9c99a)" style="fill: #1f77b4; fill-opacity: 0.2"/>
   </g>
   <g id="PolyCollection_2">
    <path d="M 46.145455 271.911641 
L 46.145455 278.278574 
L 49.003329 215.415817 
L 51.861204 188.137924 
L 54.719078 161.116806 
L 57.576953 148.8903 
L 60.434827 136.969925 
L 63.292702 132.878182 
L 66.150576 124.57364 
L 69.008451 119.415037 
L 71.866325 118.764048 
L 74.7242 112.775307 
L 77.582074 112.155007 
L 80.439949 106.590454 
L 83.297823 105.039971 
L 86.155698 105.041468 
L 89.013572 105.686698 
L 91.871447 102.087138 
L 94.729321 98.601862 
L 97.587196 97.450788 
L 100.44507 98.806989 
L 103.302945 98.343269 
L 106.160819 97.396148 
L 109.018694 96.448701 
L 111.876569 96.69617 
L 114.734443 98.523653 
L 117.592318 96.537437 
L 120.450192 96.974984 
L 123.308067 93.769923 
L 126.165941 95.095976 
L 129.023816 91.687599 
L 131.88169 92.216946 
L 134.739565 94.686082 
L 137.597439 93.093602 
L 140.455314 94.969164 
L 143.313188 90.326526 
L 146.171063 90.03431 
L 149.028937 91.050428 
L 151.886812 88.728803 
L 154.744686 88.952569 
L 157.602561 90.174254 
L 160.460435 93.995475 
L 163.31831 91.070422 
L 166.176184 88.206361 
L 169.034059 91.707564 
L 171.891933 91.65205 
L 174.749808 90.562023 
L 177.607682 90.113697 
L 180.465557 89.431314 
L 183.323431 89.328381 
L 186.181306 90.022876 
L 189.039181 88.634802 
L 191.897055 88.731971 
L 194.75493 85.325309 
L 197.612804 88.250766 
L 200.470679 86.99274 
L 203.328553 87.159312 
L 203.328553 78.162103 
L 203.328553 78.162103 
L 200.470679 80.335814 
L 197.612804 80.583142 
L 194.75493 77.487183 
L 191.897055 81.105506 
L 189.039181 80.70089 
L 186.181306 80.818171 
L 183.323431 83.519804 
L 180.465557 80.406163 
L 177.607682 81.229133 
L 174.749808 81.784377 
L 171.891933 83.203273 
L 169.034059 83.147759 
L 166.176184 82.132901 
L 163.31831 81.275978 
L 160.460435 83.368771 
L 157.602561 80.666792 
L 154.744686 80.884908 
L 151.886812 82.614027 
L 149.028937 83.804895 
L 146.171063 83.817444 
L 143.313188 84.528797 
L 140.455314 86.409359 
L 137.597439 83.267075 
L 134.739565 85.688872 
L 131.88169 85.147301 
L 129.023816 85.676647 
L 126.165941 86.282547 
L 123.308067 85.601461 
L 120.450192 89.92317 
L 117.592318 88.353578 
L 114.734443 87.370932 
L 111.876569 90.201984 
L 109.018694 87.940529 
L 106.160819 89.502006 
L 103.302945 89.558454 
L 100.44507 90.600088 
L 97.587196 89.94915 
L 94.729321 90.30343 
L 91.871447 92.337785 
L 89.013572 96.766779 
L 86.155698 96.408439 
L 83.297823 97.413506 
L 80.439949 98.873731 
L 77.582074 102.341301 
L 74.7242 100.215647 
L 71.866325 108.77866 
L 69.008451 108.127671 
L 66.150576 115.513683 
L 63.292702 124.771603 
L 60.434827 124.694136 
L 57.576953 138.364777 
L 54.719078 154.739994 
L 51.861204 177.897337 
L 49.003329 206.819322 
L 46.145455 271.911641 
z
" clip-path="url(#p0b81a9c99a)" style="fill: #ff7f0e; fill-opacity: 0.2"/>
   </g>
   <g id="PolyCollection_3">
    <path d="M 46.145455 422.29356 
L 46.145455 431.978133 
L 49.003329 370.542943 
L 51.861204 329.802751 
L 54.719078 304.040496 
L 57.576953 291.644194 
L 60.434827 277.633379 
L 63.292702 264.971517 
L 66.150576 265.007814 
L 69.008451 250.7451 
L 71.866325 242.613022 
L 74.7242 236.761619 
L 77.582074 240.489591 
L 80.439949 236.47417 
L 83.297823 239.224741 
L 86.155698 231.687887 
L 89.013572 228.750458 
L 91.871447 215.604552 
L 94.729321 222.524554 
L 97.587196 215.698714 
L 100.44507 218.629183 
L 103.302945 215.360302 
L 106.160819 210.388928 
L 109.018694 211.712715 
L 111.876569 208.968129 
L 114.734443 203.511348 
L 117.592318 200.078308 
L 120.450192 204.948046 
L 123.308067 195.224163 
L 126.165941 200.304048 
L 129.023816 196.740276 
L 131.88169 195.699288 
L 134.739565 194.410232 
L 137.597439 196.520009 
L 140.455314 191.964928 
L 143.313188 196.597055 
L 146.171063 193.211069 
L 149.028937 193.503303 
L 151.886812 195.659083 
L 154.744686 190.743487 
L 157.602561 189.167218 
L 160.460435 186.692834 
L 163.31831 189.602857 
L 166.176184 186.915954 
L 169.034059 193.023938 
L 171.891933 184.848048 
L 174.749808 188.809004 
L 177.607682 182.023697 
L 180.465557 185.74592 
L 183.323431 187.602855 
L 186.181306 191.2049 
L 189.039181 192.805731 
L 191.897055 181.174485 
L 194.75493 186.865261 
L 197.612804 181.553712 
L 197.612804 176.95478 
L 197.612804 176.95478 
L 194.75493 181.177139 
L 191.897055 175.828653 
L 189.039181 183.265223 
L 186.181306 179.346423 
L 183.323431 178.432407 
L 180.465557 179.787557 
L 177.607682 175.481226 
L 174.749808 181.240535 
L 171.891933 179.681859 
L 169.034059 185.555939 
L 166.176184 178.617523 
L 163.31831 183.959174 
L 160.460435 182.85492 
L 157.602561 183.391243 
L 154.744686 185.327467 
L 151.886812 187.436856 
L 149.028937 188.087282 
L 146.171063 185.870593 
L 143.313188 188.506022 
L 140.455314 186.113164 
L 137.597439 185.572361 
L 134.739565 184.169645 
L 131.88169 188.902004 
L 129.023816 191.875293 
L 126.165941 190.31866 
L 123.308067 187.369991 
L 120.450192 198.721062 
L 117.592318 195.562246 
L 114.734443 197.648837 
L 111.876569 198.715256 
L 109.018694 199.483162 
L 106.160819 203.817657 
L 103.302945 201.355206 
L 100.44507 204.10774 
L 97.587196 204.027501 
L 94.729321 209.746276 
L 91.871447 209.13951 
L 89.013572 221.082834 
L 86.155698 220.654329 
L 83.297823 226.163874 
L 80.439949 226.907307 
L 77.582074 224.39724 
L 74.7242 226.619858 
L 71.866325 233.31307 
L 69.008451 236.722038 
L 66.150576 245.541417 
L 63.292702 248.588422 
L 60.434827 261.517575 
L 57.576953 275.606699 
L 54.719078 285.288919 
L 51.861204 308.199772 
L 49.003329 350.755826 
L 46.145455 422.29356 
z
" clip-path="url(#p0b81a9c99a)" style="fill: #2ca02c; fill-opacity: 0.2"/>
   </g>
   <g id="PolyCollection_4">
    <path d="M 46.145455 272.991076 
L 46.145455 292.252678 
L 49.003329 225.49891 
L 51.861204 202.171232 
L 54.719078 175.193217 
L 57.576953 156.979996 
L 60.434827 149.82631 
L 63.292702 142.733076 
L 66.150576 130.236719 
L 69.008451 125.500225 
L 71.866325 123.383813 
L 74.7242 119.876665 
L 77.582074 115.030831 
L 80.439949 114.338124 
L 83.297823 111.361804 
L 86.155698 110.919362 
L 89.013572 108.577437 
L 91.871447 106.751821 
L 94.729321 104.676111 
L 97.587196 102.893883 
L 100.44507 105.125825 
L 103.302945 100.745825 
L 106.160819 101.936483 
L 109.018694 98.817907 
L 111.876569 100.448459 
L 114.734443 100.26484 
L 117.592318 101.194037 
L 120.450192 99.863449 
L 123.308067 98.50301 
L 126.165941 100.736559 
L 129.023816 97.107104 
L 131.88169 96.364884 
L 134.739565 96.963981 
L 137.597439 96.15903 
L 140.455314 95.562665 
L 143.313188 96.550276 
L 146.171063 95.036501 
L 149.028937 97.612865 
L 151.886812 96.842269 
L 154.744686 97.066963 
L 157.602561 95.29238 
L 160.460435 95.548007 
L 163.31831 96.070888 
L 166.176184 93.865693 
L 166.176184 82.494984 
L 166.176184 82.494984 
L 163.31831 84.805851 
L 160.460435 84.826947 
L 157.602561 85.082574 
L 154.744686 85.315129 
L 151.886812 84.034469 
L 149.028937 87.779935 
L 146.171063 83.833099 
L 143.313188 85.330031 
L 140.455314 84.812289 
L 137.597439 84.215924 
L 134.739565 83.912757 
L 131.88169 85.515424 
L 129.023816 83.769635 
L 126.165941 87.165164 
L 123.308067 85.384437 
L 120.450192 87.536489 
L 117.592318 88.714824 
L 114.734443 88.138667 
L 111.876569 86.951479 
L 109.018694 84.567754 
L 106.160819 90.983087 
L 103.302945 88.661252 
L 100.44507 91.306236 
L 97.587196 92.032825 
L 94.729321 94.766659 
L 91.871447 95.199871 
L 89.013572 95.883179 
L 86.155698 99.060884 
L 83.297823 101.127366 
L 80.439949 102.165322 
L 77.582074 102.476184 
L 74.7242 106.662474 
L 71.866325 111.685664 
L 69.008451 114.085314 
L 66.150576 117.879158 
L 63.292702 124.450617 
L 60.434827 134.919844 
L 57.576953 139.808988 
L 54.719078 155.717121 
L 51.861204 185.942553 
L 49.003329 213.295121 
L 46.145455 272.991076 
z
" clip-path="url(#p0b81a9c99a)" style="fill: #d62728; fill-opacity: 0.2"/>
   </g>
   <g id="PolyCollection_5">
    <path d="M 46.145455 280.404899 
L 46.145455 291.86384 
L 49.003329 247.932614 
L 51.861204 229.942328 
L 54.719078 222.675093 
L 57.576953 209.446738 
L 60.434827 198.146572 
L 63.292702 196.949797 
L 66.150576 192.761875 
L 69.008451 189.326115 
L 71.866325 186.416528 
L 74.7242 180.562681 
L 77.582074 179.433368 
L 80.439949 181.439619 
L 83.297823 175.345658 
L 86.155698 175.427568 
L 89.013572 174.829448 
L 91.871447 176.03537 
L 94.729321 175.839479 
L 97.587196 171.003958 
L 100.44507 169.637429 
L 103.302945 170.589978 
L 106.160819 168.359041 
L 109.018694 168.942059 
L 111.876569 169.252661 
L 114.734443 166.084908 
L 117.592318 162.05993 
L 120.450192 165.556431 
L 123.308067 162.444462 
L 123.308067 158.430185 
L 123.308067 158.430185 
L 120.450192 155.819999 
L 117.592318 156.305793 
L 114.734443 159.807584 
L 111.876569 158.145185 
L 109.018694 155.445079 
L 106.160819 159.038805 
L 103.302945 161.32393 
L 100.44507 164.785402 
L 97.587196 163.418873 
L 94.729321 169.622613 
L 91.871447 166.416014 
L 89.013572 166.116583 
L 86.155698 168.52917 
L 83.297823 166.603942 
L 80.439949 171.549242 
L 77.582074 172.05014 
L 74.7242 172.927965 
L 71.866325 177.10981 
L 69.008451 179.719855 
L 66.150576 185.818002 
L 63.292702 186.647926 
L 60.434827 193.479705 
L 57.576953 195.727723 
L 54.719078 213.10823 
L 51.861204 217.883826 
L 49.003329 237.527386 
L 46.145455 280.404899 
z
" clip-path="url(#p0b81a9c99a)" style="fill: #9467bd; fill-opacity: 0.2"/>
   </g>
   <g id="PolyCollection_6">
    <path d="M 46.145455 277.083188 
L 46.145455 288.66235 
L 49.003329 224.033435 
L 51.861204 191.934411 
L 54.719078 178.853602 
L 57.576953 170.090963 
L 60.434827 156.761522 
L 63.292702 151.605575 
L 66.150576 147.006392 
L 69.008451 141.757442 
L 71.866325 137.848643 
L 74.7242 137.191767 
L 77.582074 134.775505 
L 80.439949 133.192286 
L 83.297823 129.303016 
L 86.155698 127.561447 
L 89.013572 128.41196 
L 91.871447 126.261357 
L 94.729321 124.703538 
L 97.587196 124.217709 
L 100.44507 128.41196 
L 103.302945 121.875467 
L 106.160819 119.920723 
L 109.018694 124.030848 
L 111.876569 120.119064 
L 114.734443 120.840583 
L 117.592318 118.86613 
L 120.450192 124.929085 
L 123.308067 118.202176 
L 126.165941 118.864603 
L 129.023816 116.35915 
L 131.88169 120.03843 
L 134.739565 117.655998 
L 137.597439 116.673065 
L 140.455314 124.832946 
L 143.313188 121.889681 
L 146.171063 122.429646 
L 149.028937 120.602839 
L 149.028937 113.964853 
L 149.028937 113.964853 
L 146.171063 116.152323 
L 143.313188 116.190503 
L 140.455314 117.763301 
L 137.597439 111.873212 
L 134.739565 113.900986 
L 131.88169 114.027478 
L 129.023816 112.688912 
L 126.165941 114.197736 
L 123.308067 113.856593 
L 120.450192 118.168946 
L 117.592318 114.697994 
L 114.734443 117.239601 
L 111.876569 115.452197 
L 109.018694 120.572536 
L 106.160819 113.6434 
L 103.302945 119.71721 
L 100.44507 123.718194 
L 97.587196 121.891029 
L 94.729321 120.401631 
L 91.871447 122.858089 
L 89.013572 123.718194 
L 86.155698 124.066922 
L 83.297823 125.336061 
L 80.439949 128.471775 
L 77.582074 130.401048 
L 74.7242 133.504418 
L 71.866325 130.338619 
L 69.008451 134.960158 
L 66.150576 141.252254 
L 63.292702 144.179841 
L 60.434827 150.564939 
L 57.576953 167.342575 
L 54.719078 175.640613 
L 51.861204 184.136543 
L 49.003329 214.760596 
L 46.145455 277.083188 
z
" clip-path="url(#p0b81a9c99a)" style="fill: #8c564b; fill-opacity: 0.2"/>
   </g>
   <g id="PolyCollection_7">
    <path d="M 46.145455 321.298807 
L 46.145455 338.782239 
L 49.003329 275.675765 
L 51.861204 255.478186 
L 54.719078 240.775392 
L 57.576953 231.339141 
L 60.434827 222.678169 
L 63.292702 216.164573 
L 66.150576 211.388015 
L 69.008451 203.193436 
L 71.866325 199.065755 
L 74.7242 197.901705 
L 77.582074 195.318312 
L 80.439949 193.7191 
L 83.297823 191.958976 
L 86.155698 191.019936 
L 89.013572 188.403622 
L 91.871447 190.063465 
L 94.729321 186.938761 
L 97.587196 187.772019 
L 100.44507 185.368519 
L 103.302945 182.887096 
L 106.160819 182.300615 
L 109.018694 182.422587 
L 111.876569 182.884137 
L 114.734443 181.933191 
L 117.592318 182.384694 
L 120.450192 181.541435 
L 123.308067 181.347676 
L 126.165941 182.04714 
L 129.023816 179.303188 
L 131.88169 181.434079 
L 134.739565 182.497358 
L 137.597439 181.52701 
L 140.455314 179.408105 
L 143.313188 180.350673 
L 146.171063 179.551819 
L 149.028937 180.643105 
L 151.886812 182.68854 
L 154.744686 182.283362 
L 157.602561 180.681402 
L 160.460435 181.670023 
L 163.31831 181.319763 
L 166.176184 181.358221 
L 169.034059 180.903656 
L 171.891933 181.61165 
L 174.749808 179.319976 
L 177.607682 179.447083 
L 180.465557 180.802493 
L 183.323431 180.479322 
L 186.181306 179.538739 
L 189.039181 182.707291 
L 191.897055 179.02739 
L 194.75493 180.238927 
L 194.75493 175.258857 
L 194.75493 175.258857 
L 191.897055 172.456118 
L 189.039181 174.295848 
L 186.181306 172.948338 
L 183.323431 173.011324 
L 180.465557 172.688153 
L 177.607682 173.541779 
L 174.749808 170.156394 
L 171.891933 171.377212 
L 169.034059 171.583421 
L 166.176184 173.135994 
L 163.31831 173.174452 
L 160.460435 174.329547 
L 157.602561 172.30746 
L 154.744686 173.716207 
L 151.886812 174.314598 
L 149.028937 171.843972 
L 146.171063 173.437043 
L 143.313188 173.139974 
L 140.455314 171.071833 
L 137.597439 172.967206 
L 134.739565 174.003996 
L 131.88169 173.060137 
L 129.023816 172.18032 
L 126.165941 173.450645 
L 123.308067 172.142971 
L 120.450192 173.95635 
L 117.592318 174.11666 
L 114.734443 173.062809 
L 111.876569 173.115433 
L 109.018694 174.078767 
L 106.160819 175.204308 
L 103.302945 173.614258 
L 100.44507 178.15782 
L 97.587196 180.270381 
L 94.729321 179.598285 
L 91.871447 182.494996 
L 89.013572 182.649485 
L 86.155698 185.051018 
L 83.297823 185.115547 
L 80.439949 188.373269 
L 77.582074 190.788334 
L 74.7242 194.728141 
L 71.866325 195.57123 
L 69.008451 199.472102 
L 66.150576 203.320354 
L 63.292702 208.579488 
L 60.434827 214.610508 
L 57.576953 220.50129 
L 54.719078 231.136424 
L 51.861204 247.544275 
L 49.003329 272.005527 
L 46.145455 321.298807 
z
" clip-path="url(#p0b81a9c99a)" style="fill: #e377c2; fill-opacity: 0.2"/>
   </g>
   <g id="PolyCollection_8">
    <path d="M 46.145455 293.742251 
L 46.145455 307.629995 
L 49.003329 237.495265 
L 51.861204 209.831605 
L 54.719078 193.02337 
L 57.576953 179.069839 
L 60.434827 165.683866 
L 63.292702 150.102128 
L 66.150576 150.398145 
L 69.008451 141.49768 
L 71.866325 136.573168 
L 74.7242 129.828462 
L 77.582074 128.85797 
L 80.439949 127.012544 
L 83.297823 123.622726 
L 86.155698 120.384973 
L 89.013572 115.869388 
L 91.871447 113.028077 
L 94.729321 112.944045 
L 97.587196 109.896273 
L 100.44507 112.08593 
L 103.302945 109.28137 
L 106.160819 103.73197 
L 109.018694 104.052283 
L 111.876569 106.337945 
L 114.734443 102.923537 
L 117.592318 101.159533 
L 120.450192 102.060912 
L 123.308067 98.293439 
L 126.165941 98.810673 
L 129.023816 97.768219 
L 131.88169 94.06264 
L 134.739565 93.590746 
L 137.597439 96.665147 
L 140.455314 92.838295 
L 143.313188 94.397383 
L 146.171063 96.284295 
L 149.028937 95.694542 
L 151.886812 93.426604 
L 154.744686 89.836811 
L 157.602561 90.230615 
L 160.460435 90.064757 
L 163.31831 91.759403 
L 166.176184 89.91237 
L 169.034059 89.711714 
L 171.891933 91.12384 
L 174.749808 87.329693 
L 177.607682 88.09932 
L 180.465557 85.61961 
L 183.323431 86.337193 
L 186.181306 87.243342 
L 189.039181 86.607126 
L 191.897055 88.164627 
L 194.75493 87.037134 
L 197.612804 85.922308 
L 200.470679 83.925605 
L 203.328553 84.762956 
L 206.186428 85.362467 
L 209.044302 84.442976 
L 211.902177 83.616956 
L 214.760051 84.175697 
L 217.617926 86.41572 
L 220.4758 84.02898 
L 223.333675 83.941948 
L 226.191549 85.019536 
L 229.049424 81.297249 
L 231.907298 81.334476 
L 234.765173 79.59076 
L 237.623047 82.130264 
L 240.480922 81.150122 
L 243.338796 83.904086 
L 246.196671 80.722934 
L 249.054545 79.135639 
L 249.054545 74.142945 
L 249.054545 74.142945 
L 246.196671 76.569927 
L 243.338796 75.395914 
L 240.480922 75.13917 
L 237.623047 76.667952 
L 234.765173 71.680686 
L 231.907298 73.951247 
L 229.049424 76.497397 
L 226.191549 79.298311 
L 223.333675 76.863405 
L 220.4758 77.278158 
L 217.617926 78.905695 
L 214.760051 77.633226 
L 211.902177 75.683044 
L 209.044302 78.369516 
L 206.186428 79.457164 
L 203.328553 78.049536 
L 200.470679 77.883318 
L 197.612804 81.908031 
L 194.75493 79.287851 
L 191.897055 80.167496 
L 189.039181 79.717859 
L 186.181306 80.085212 
L 183.323431 80.991361 
L 180.465557 80.20359 
L 177.607682 82.741726 
L 174.749808 81.00243 
L 171.891933 83.229698 
L 169.034059 83.638255 
L 166.176184 83.437599 
L 163.31831 84.601274 
L 160.460435 84.288782 
L 157.602561 83.621139 
L 154.744686 85.520297 
L 151.886812 86.446565 
L 149.028937 88.192904 
L 146.171063 91.617428 
L 143.313188 86.479355 
L 140.455314 88.038443 
L 137.597439 87.724083 
L 134.739565 86.784208 
L 131.88169 88.319452 
L 129.023816 90.133504 
L 126.165941 91.599974 
L 123.308067 92.117207 
L 120.450192 93.869365 
L 117.592318 93.26539 
L 114.734443 94.512094 
L 111.876569 94.108393 
L 109.018694 94.888701 
L 106.160819 95.209014 
L 103.302945 97.186383 
L 100.44507 100.905024 
L 97.587196 99.582188 
L 94.729321 102.054047 
L 91.871447 102.973585 
L 89.013572 108.160827 
L 86.155698 113.680935 
L 83.297823 116.464597 
L 80.439949 118.092625 
L 77.582074 120.261476 
L 74.7242 123.305262 
L 71.866325 129.10517 
L 69.008451 135.721705 
L 66.150576 141.372994 
L 63.292702 143.676149 
L 60.434827 157.197918 
L 57.576953 163.381545 
L 54.719078 182.545799 
L 51.861204 202.869626 
L 49.003329 231.907628 
L 46.145455 293.742251 
z
" clip-path="url(#p0b81a9c99a)" style="fill: #7f7f7f; fill-opacity: 0.2"/>
   </g>
   <g id="matplotlib.axis_1">
    <g id="xtick_1">
     <g id="line2d_1">
      <path d="M 43.28758 283.5 
L 43.28758 38.88 
" clip-path="url(#p0b81a9c99a)" style="fill: none; stroke: #b0b0b0; stroke-width: 0.8; stroke-linecap: square"/>
     </g>
     <g id="line2d_2">
      <defs>
       <path id="mbe987cc1cb" d="M 0 0 
L 0 3.5 
" style="stroke: #000000; stroke-width: 0.8"/>
      </defs>
      <g>
       <use xlink:href="#mbe987cc1cb" x="43.28758" y="283.5" style="stroke: #000000; stroke-width: 0.8"/>
      </g>
     </g>
     <g id="text_1">
      <!-- 0 -->
      <g transform="translate(40.10633 298.098437)scale(0.1 -0.1)">
       <defs>
        <path id="DejaVuSans-30" d="M 2034 4250 
Q 1547 4250 1301 3770 
Q 1056 3291 1056 2328 
Q 1056 1369 1301 889 
Q 1547 409 2034 409 
Q 2525 409 2770 889 
Q 3016 1369 3016 2328 
Q 3016 3291 2770 3770 
Q 2525 4250 2034 4250 
z
M 2034 4750 
Q 2819 4750 3233 4129 
Q 3647 3509 3647 2328 
Q 3647 1150 3233 529 
Q 2819 -91 2034 -91 
Q 1250 -91 836 529 
Q 422 1150 422 2328 
Q 422 3509 836 4129 
Q 1250 4750 2034 4750 
z
" transform="scale(0.015625)"/>
       </defs>
       <use xlink:href="#DejaVuSans-30"/>
      </g>
     </g>
    </g>
    <g id="xtick_2">
     <g id="line2d_3">
      <path d="M 100.44507 283.5 
L 100.44507 38.88 
" clip-path="url(#p0b81a9c99a)" style="fill: none; stroke: #b0b0b0; stroke-width: 0.8; stroke-linecap: square"/>
     </g>
     <g id="line2d_4">
      <g>
       <use xlink:href="#mbe987cc1cb" x="100.44507" y="283.5" style="stroke: #000000; stroke-width: 0.8"/>
      </g>
     </g>
     <g id="text_2">
      <!-- 20 -->
      <g transform="translate(94.08257 298.098437)scale(0.1 -0.1)">
       <defs>
        <path id="DejaVuSans-32" d="M 1228 531 
L 3431 531 
L 3431 0 
L 469 0 
L 469 531 
Q 828 903 1448 1529 
Q 2069 2156 2228 2338 
Q 2531 2678 2651 2914 
Q 2772 3150 2772 3378 
Q 2772 3750 2511 3984 
Q 2250 4219 1831 4219 
Q 1534 4219 1204 4116 
Q 875 4013 500 3803 
L 500 4441 
Q 881 4594 1212 4672 
Q 1544 4750 1819 4750 
Q 2544 4750 2975 4387 
Q 3406 4025 3406 3419 
Q 3406 3131 3298 2873 
Q 3191 2616 2906 2266 
Q 2828 2175 2409 1742 
Q 1991 1309 1228 531 
z
" transform="scale(0.015625)"/>
       </defs>
       <use xlink:href="#DejaVuSans-32"/>
       <use xlink:href="#DejaVuSans-30" x="63.623047"/>
      </g>
     </g>
    </g>
    <g id="xtick_3">
     <g id="line2d_5">
      <path d="M 157.602561 283.5 
L 157.602561 38.88 
" clip-path="url(#p0b81a9c99a)" style="fill: none; stroke: #b0b0b0; stroke-width: 0.8; stroke-linecap: square"/>
     </g>
     <g id="line2d_6">
      <g>
       <use xlink:href="#mbe987cc1cb" x="157.602561" y="283.5" style="stroke: #000000; stroke-width: 0.8"/>
      </g>
     </g>
     <g id="text_3">
      <!-- 40 -->
      <g transform="translate(151.240061 298.098437)scale(0.1 -0.1)">
       <defs>
        <path id="DejaVuSans-34" d="M 2419 4116 
L 825 1625 
L 2419 1625 
L 2419 4116 
z
M 2253 4666 
L 3047 4666 
L 3047 1625 
L 3713 1625 
L 3713 1100 
L 3047 1100 
L 3047 0 
L 2419 0 
L 2419 1100 
L 313 1100 
L 313 1709 
L 2253 4666 
z
" transform="scale(0.015625)"/>
       </defs>
       <use xlink:href="#DejaVuSans-34"/>
       <use xlink:href="#DejaVuSans-30" x="63.623047"/>
      </g>
     </g>
    </g>
    <g id="xtick_4">
     <g id="line2d_7">
      <path d="M 214.760051 283.5 
L 214.760051 38.88 
" clip-path="url(#p0b81a9c99a)" style="fill: none; stroke: #b0b0b0; stroke-width: 0.8; stroke-linecap: square"/>
     </g>
     <g id="line2d_8">
      <g>
       <use xlink:href="#mbe987cc1cb" x="214.760051" y="283.5" style="stroke: #000000; stroke-width: 0.8"/>
      </g>
     </g>
     <g id="text_4">
      <!-- 60 -->
      <g transform="translate(208.397551 298.098437)scale(0.1 -0.1)">
       <defs>
        <path id="DejaVuSans-36" d="M 2113 2584 
Q 1688 2584 1439 2293 
Q 1191 2003 1191 1497 
Q 1191 994 1439 701 
Q 1688 409 2113 409 
Q 2538 409 2786 701 
Q 3034 994 3034 1497 
Q 3034 2003 2786 2293 
Q 2538 2584 2113 2584 
z
M 3366 4563 
L 3366 3988 
Q 3128 4100 2886 4159 
Q 2644 4219 2406 4219 
Q 1781 4219 1451 3797 
Q 1122 3375 1075 2522 
Q 1259 2794 1537 2939 
Q 1816 3084 2150 3084 
Q 2853 3084 3261 2657 
Q 3669 2231 3669 1497 
Q 3669 778 3244 343 
Q 2819 -91 2113 -91 
Q 1303 -91 875 529 
Q 447 1150 447 2328 
Q 447 3434 972 4092 
Q 1497 4750 2381 4750 
Q 2619 4750 2861 4703 
Q 3103 4656 3366 4563 
z
" transform="scale(0.015625)"/>
       </defs>
       <use xlink:href="#DejaVuSans-36"/>
       <use xlink:href="#DejaVuSans-30" x="63.623047"/>
      </g>
     </g>
    </g>
    <g id="text_5">
     <!-- Epochs -->
     <g transform="translate(129.684375 311.776563)scale(0.1 -0.1)">
      <defs>
       <path id="DejaVuSans-45" d="M 628 4666 
L 3578 4666 
L 3578 4134 
L 1259 4134 
L 1259 2753 
L 3481 2753 
L 3481 2222 
L 1259 2222 
L 1259 531 
L 3634 531 
L 3634 0 
L 628 0 
L 628 4666 
z
" transform="scale(0.015625)"/>
       <path id="DejaVuSans-70" d="M 1159 525 
L 1159 -1331 
L 581 -1331 
L 581 3500 
L 1159 3500 
L 1159 2969 
Q 1341 3281 1617 3432 
Q 1894 3584 2278 3584 
Q 2916 3584 3314 3078 
Q 3713 2572 3713 1747 
Q 3713 922 3314 415 
Q 2916 -91 2278 -91 
Q 1894 -91 1617 61 
Q 1341 213 1159 525 
z
M 3116 1747 
Q 3116 2381 2855 2742 
Q 2594 3103 2138 3103 
Q 1681 3103 1420 2742 
Q 1159 2381 1159 1747 
Q 1159 1113 1420 752 
Q 1681 391 2138 391 
Q 2594 391 2855 752 
Q 3116 1113 3116 1747 
z
" transform="scale(0.015625)"/>
       <path id="DejaVuSans-6f" d="M 1959 3097 
Q 1497 3097 1228 2736 
Q 959 2375 959 1747 
Q 959 1119 1226 758 
Q 1494 397 1959 397 
Q 2419 397 2687 759 
Q 2956 1122 2956 1747 
Q 2956 2369 2687 2733 
Q 2419 3097 1959 3097 
z
M 1959 3584 
Q 2709 3584 3137 3096 
Q 3566 2609 3566 1747 
Q 3566 888 3137 398 
Q 2709 -91 1959 -91 
Q 1206 -91 779 398 
Q 353 888 353 1747 
Q 353 2609 779 3096 
Q 1206 3584 1959 3584 
z
" transform="scale(0.015625)"/>
       <path id="DejaVuSans-63" d="M 3122 3366 
L 3122 2828 
Q 2878 2963 2633 3030 
Q 2388 3097 2138 3097 
Q 1578 3097 1268 2742 
Q 959 2388 959 1747 
Q 959 1106 1268 751 
Q 1578 397 2138 397 
Q 2388 397 2633 464 
Q 2878 531 3122 666 
L 3122 134 
Q 2881 22 2623 -34 
Q 2366 -91 2075 -91 
Q 1284 -91 818 406 
Q 353 903 353 1747 
Q 353 2603 823 3093 
Q 1294 3584 2113 3584 
Q 2378 3584 2631 3529 
Q 2884 3475 3122 3366 
z
" transform="scale(0.015625)"/>
       <path id="DejaVuSans-68" d="M 3513 2113 
L 3513 0 
L 2938 0 
L 2938 2094 
Q 2938 2591 2744 2837 
Q 2550 3084 2163 3084 
Q 1697 3084 1428 2787 
Q 1159 2491 1159 1978 
L 1159 0 
L 581 0 
L 581 4863 
L 1159 4863 
L 1159 2956 
Q 1366 3272 1645 3428 
Q 1925 3584 2291 3584 
Q 2894 3584 3203 3211 
Q 3513 2838 3513 2113 
z
" transform="scale(0.015625)"/>
       <path id="DejaVuSans-73" d="M 2834 3397 
L 2834 2853 
Q 2591 2978 2328 3040 
Q 2066 3103 1784 3103 
Q 1356 3103 1142 2972 
Q 928 2841 928 2578 
Q 928 2378 1081 2264 
Q 1234 2150 1697 2047 
L 1894 2003 
Q 2506 1872 2764 1633 
Q 3022 1394 3022 966 
Q 3022 478 2636 193 
Q 2250 -91 1575 -91 
Q 1294 -91 989 -36 
Q 684 19 347 128 
L 347 722 
Q 666 556 975 473 
Q 1284 391 1588 391 
Q 1994 391 2212 530 
Q 2431 669 2431 922 
Q 2431 1156 2273 1281 
Q 2116 1406 1581 1522 
L 1381 1569 
Q 847 1681 609 1914 
Q 372 2147 372 2553 
Q 372 3047 722 3315 
Q 1072 3584 1716 3584 
Q 2034 3584 2315 3537 
Q 2597 3491 2834 3397 
z
" transform="scale(0.015625)"/>
      </defs>
      <use xlink:href="#DejaVuSans-45"/>
      <use xlink:href="#DejaVuSans-70" x="63.183594"/>
      <use xlink:href="#DejaVuSans-6f" x="126.660156"/>
      <use xlink:href="#DejaVuSans-63" x="187.841797"/>
      <use xlink:href="#DejaVuSans-68" x="242.822266"/>
      <use xlink:href="#DejaVuSans-73" x="306.201172"/>
     </g>
    </g>
   </g>
   <g id="matplotlib.axis_2">
    <g id="ytick_1">
     <g id="line2d_9">
      <path d="M 36 283.5 
L 259.2 283.5 
" clip-path="url(#p0b81a9c99a)" style="fill: none; stroke: #b0b0b0; stroke-width: 0.8; stroke-linecap: square"/>
     </g>
     <g id="line2d_10">
      <defs>
       <path id="meb3faf0d85" d="M 0 0 
L -3.5 0 
" style="stroke: #000000; stroke-width: 0.8"/>
      </defs>
      <g>
       <use xlink:href="#meb3faf0d85" x="36" y="283.5" style="stroke: #000000; stroke-width: 0.8"/>
      </g>
     </g>
     <g id="text_6">
      <!-- 0.65 -->
      <g transform="translate(6.734375 287.299219)scale(0.1 -0.1)">
       <defs>
        <path id="DejaVuSans-2e" d="M 684 794 
L 1344 794 
L 1344 0 
L 684 0 
L 684 794 
z
" transform="scale(0.015625)"/>
        <path id="DejaVuSans-35" d="M 691 4666 
L 3169 4666 
L 3169 4134 
L 1269 4134 
L 1269 2991 
Q 1406 3038 1543 3061 
Q 1681 3084 1819 3084 
Q 2600 3084 3056 2656 
Q 3513 2228 3513 1497 
Q 3513 744 3044 326 
Q 2575 -91 1722 -91 
Q 1428 -91 1123 -41 
Q 819 9 494 109 
L 494 744 
Q 775 591 1075 516 
Q 1375 441 1709 441 
Q 2250 441 2565 725 
Q 2881 1009 2881 1497 
Q 2881 1984 2565 2268 
Q 2250 2553 1709 2553 
Q 1456 2553 1204 2497 
Q 953 2441 691 2322 
L 691 4666 
z
" transform="scale(0.015625)"/>
       </defs>
       <use xlink:href="#DejaVuSans-30"/>
       <use xlink:href="#DejaVuSans-2e" x="63.623047"/>
       <use xlink:href="#DejaVuSans-36" x="95.410156"/>
       <use xlink:href="#DejaVuSans-35" x="159.033203"/>
      </g>
     </g>
    </g>
    <g id="ytick_2">
     <g id="line2d_11">
      <path d="M 36 242.73 
L 259.2 242.73 
" clip-path="url(#p0b81a9c99a)" style="fill: none; stroke: #b0b0b0; stroke-width: 0.8; stroke-linecap: square"/>
     </g>
     <g id="line2d_12">
      <g>
       <use xlink:href="#meb3faf0d85" x="36" y="242.73" style="stroke: #000000; stroke-width: 0.8"/>
      </g>
     </g>
     <g id="text_7">
      <!-- 0.70 -->
      <g transform="translate(6.734375 246.529219)scale(0.1 -0.1)">
       <defs>
        <path id="DejaVuSans-37" d="M 525 4666 
L 3525 4666 
L 3525 4397 
L 1831 0 
L 1172 0 
L 2766 4134 
L 525 4134 
L 525 4666 
z
" transform="scale(0.015625)"/>
       </defs>
       <use xlink:href="#DejaVuSans-30"/>
       <use xlink:href="#DejaVuSans-2e" x="63.623047"/>
       <use xlink:href="#DejaVuSans-37" x="95.410156"/>
       <use xlink:href="#DejaVuSans-30" x="159.033203"/>
      </g>
     </g>
    </g>
    <g id="ytick_3">
     <g id="line2d_13">
      <path d="M 36 201.96 
L 259.2 201.96 
" clip-path="url(#p0b81a9c99a)" style="fill: none; stroke: #b0b0b0; stroke-width: 0.8; stroke-linecap: square"/>
     </g>
     <g id="line2d_14">
      <g>
       <use xlink:href="#meb3faf0d85" x="36" y="201.96" style="stroke: #000000; stroke-width: 0.8"/>
      </g>
     </g>
     <g id="text_8">
      <!-- 0.75 -->
      <g transform="translate(6.734375 205.759219)scale(0.1 -0.1)">
       <use xlink:href="#DejaVuSans-30"/>
       <use xlink:href="#DejaVuSans-2e" x="63.623047"/>
       <use xlink:href="#DejaVuSans-37" x="95.410156"/>
       <use xlink:href="#DejaVuSans-35" x="159.033203"/>
      </g>
     </g>
    </g>
    <g id="ytick_4">
     <g id="line2d_15">
      <path d="M 36 161.19 
L 259.2 161.19 
" clip-path="url(#p0b81a9c99a)" style="fill: none; stroke: #b0b0b0; stroke-width: 0.8; stroke-linecap: square"/>
     </g>
     <g id="line2d_16">
      <g>
       <use xlink:href="#meb3faf0d85" x="36" y="161.19" style="stroke: #000000; stroke-width: 0.8"/>
      </g>
     </g>
     <g id="text_9">
      <!-- 0.80 -->
      <g transform="translate(6.734375 164.989219)scale(0.1 -0.1)">
       <defs>
        <path id="DejaVuSans-38" d="M 2034 2216 
Q 1584 2216 1326 1975 
Q 1069 1734 1069 1313 
Q 1069 891 1326 650 
Q 1584 409 2034 409 
Q 2484 409 2743 651 
Q 3003 894 3003 1313 
Q 3003 1734 2745 1975 
Q 2488 2216 2034 2216 
z
M 1403 2484 
Q 997 2584 770 2862 
Q 544 3141 544 3541 
Q 544 4100 942 4425 
Q 1341 4750 2034 4750 
Q 2731 4750 3128 4425 
Q 3525 4100 3525 3541 
Q 3525 3141 3298 2862 
Q 3072 2584 2669 2484 
Q 3125 2378 3379 2068 
Q 3634 1759 3634 1313 
Q 3634 634 3220 271 
Q 2806 -91 2034 -91 
Q 1263 -91 848 271 
Q 434 634 434 1313 
Q 434 1759 690 2068 
Q 947 2378 1403 2484 
z
M 1172 3481 
Q 1172 3119 1398 2916 
Q 1625 2713 2034 2713 
Q 2441 2713 2670 2916 
Q 2900 3119 2900 3481 
Q 2900 3844 2670 4047 
Q 2441 4250 2034 4250 
Q 1625 4250 1398 4047 
Q 1172 3844 1172 3481 
z
" transform="scale(0.015625)"/>
       </defs>
       <use xlink:href="#DejaVuSans-30"/>
       <use xlink:href="#DejaVuSans-2e" x="63.623047"/>
       <use xlink:href="#DejaVuSans-38" x="95.410156"/>
       <use xlink:href="#DejaVuSans-30" x="159.033203"/>
      </g>
     </g>
    </g>
    <g id="ytick_5">
     <g id="line2d_17">
      <path d="M 36 120.42 
L 259.2 120.42 
" clip-path="url(#p0b81a9c99a)" style="fill: none; stroke: #b0b0b0; stroke-width: 0.8; stroke-linecap: square"/>
     </g>
     <g id="line2d_18">
      <g>
       <use xlink:href="#meb3faf0d85" x="36" y="120.42" style="stroke: #000000; stroke-width: 0.8"/>
      </g>
     </g>
     <g id="text_10">
      <!-- 0.85 -->
      <g transform="translate(6.734375 124.219219)scale(0.1 -0.1)">
       <use xlink:href="#DejaVuSans-30"/>
       <use xlink:href="#DejaVuSans-2e" x="63.623047"/>
       <use xlink:href="#DejaVuSans-38" x="95.410156"/>
       <use xlink:href="#DejaVuSans-35" x="159.033203"/>
      </g>
     </g>
    </g>
    <g id="ytick_6">
     <g id="line2d_19">
      <path d="M 36 79.65 
L 259.2 79.65 
" clip-path="url(#p0b81a9c99a)" style="fill: none; stroke: #b0b0b0; stroke-width: 0.8; stroke-linecap: square"/>
     </g>
     <g id="line2d_20">
      <g>
       <use xlink:href="#meb3faf0d85" x="36" y="79.65" style="stroke: #000000; stroke-width: 0.8"/>
      </g>
     </g>
     <g id="text_11">
      <!-- 0.90 -->
      <g transform="translate(6.734375 83.449219)scale(0.1 -0.1)">
       <defs>
        <path id="DejaVuSans-39" d="M 703 97 
L 703 672 
Q 941 559 1184 500 
Q 1428 441 1663 441 
Q 2288 441 2617 861 
Q 2947 1281 2994 2138 
Q 2813 1869 2534 1725 
Q 2256 1581 1919 1581 
Q 1219 1581 811 2004 
Q 403 2428 403 3163 
Q 403 3881 828 4315 
Q 1253 4750 1959 4750 
Q 2769 4750 3195 4129 
Q 3622 3509 3622 2328 
Q 3622 1225 3098 567 
Q 2575 -91 1691 -91 
Q 1453 -91 1209 -44 
Q 966 3 703 97 
z
M 1959 2075 
Q 2384 2075 2632 2365 
Q 2881 2656 2881 3163 
Q 2881 3666 2632 3958 
Q 2384 4250 1959 4250 
Q 1534 4250 1286 3958 
Q 1038 3666 1038 3163 
Q 1038 2656 1286 2365 
Q 1534 2075 1959 2075 
z
" transform="scale(0.015625)"/>
       </defs>
       <use xlink:href="#DejaVuSans-30"/>
       <use xlink:href="#DejaVuSans-2e" x="63.623047"/>
       <use xlink:href="#DejaVuSans-39" x="95.410156"/>
       <use xlink:href="#DejaVuSans-30" x="159.033203"/>
      </g>
     </g>
    </g>
    <g id="ytick_7">
     <g id="line2d_21">
      <path d="M 36 38.88 
L 259.2 38.88 
" clip-path="url(#p0b81a9c99a)" style="fill: none; stroke: #b0b0b0; stroke-width: 0.8; stroke-linecap: square"/>
     </g>
     <g id="line2d_22">
      <g>
       <use xlink:href="#meb3faf0d85" x="36" y="38.88" style="stroke: #000000; stroke-width: 0.8"/>
      </g>
     </g>
     <g id="text_12">
      <!-- 0.95 -->
      <g transform="translate(6.734375 42.679219)scale(0.1 -0.1)">
       <use xlink:href="#DejaVuSans-30"/>
       <use xlink:href="#DejaVuSans-2e" x="63.623047"/>
       <use xlink:href="#DejaVuSans-39" x="95.410156"/>
       <use xlink:href="#DejaVuSans-35" x="159.033203"/>
      </g>
     </g>
    </g>
    <g id="text_13">
     <!-- Accuracy ($\bar{x} \pm s \div \sqrt{N}$) -->
     <g transform="translate(0.634375 215.44)rotate(-90)scale(0.1 -0.1)">
      <defs>
       <path id="DejaVuSans-41" d="M 2188 4044 
L 1331 1722 
L 3047 1722 
L 2188 4044 
z
M 1831 4666 
L 2547 4666 
L 4325 0 
L 3669 0 
L 3244 1197 
L 1141 1197 
L 716 0 
L 50 0 
L 1831 4666 
z
" transform="scale(0.015625)"/>
       <path id="DejaVuSans-75" d="M 544 1381 
L 544 3500 
L 1119 3500 
L 1119 1403 
Q 1119 906 1312 657 
Q 1506 409 1894 409 
Q 2359 409 2629 706 
Q 2900 1003 2900 1516 
L 2900 3500 
L 3475 3500 
L 3475 0 
L 2900 0 
L 2900 538 
Q 2691 219 2414 64 
Q 2138 -91 1772 -91 
Q 1169 -91 856 284 
Q 544 659 544 1381 
z
M 1991 3584 
L 1991 3584 
z
" transform="scale(0.015625)"/>
       <path id="DejaVuSans-72" d="M 2631 2963 
Q 2534 3019 2420 3045 
Q 2306 3072 2169 3072 
Q 1681 3072 1420 2755 
Q 1159 2438 1159 1844 
L 1159 0 
L 581 0 
L 581 3500 
L 1159 3500 
L 1159 2956 
Q 1341 3275 1631 3429 
Q 1922 3584 2338 3584 
Q 2397 3584 2469 3576 
Q 2541 3569 2628 3553 
L 2631 2963 
z
" transform="scale(0.015625)"/>
       <path id="DejaVuSans-61" d="M 2194 1759 
Q 1497 1759 1228 1600 
Q 959 1441 959 1056 
Q 959 750 1161 570 
Q 1363 391 1709 391 
Q 2188 391 2477 730 
Q 2766 1069 2766 1631 
L 2766 1759 
L 2194 1759 
z
M 3341 1997 
L 3341 0 
L 2766 0 
L 2766 531 
Q 2569 213 2275 61 
Q 1981 -91 1556 -91 
Q 1019 -91 701 211 
Q 384 513 384 1019 
Q 384 1609 779 1909 
Q 1175 2209 1959 2209 
L 2766 2209 
L 2766 2266 
Q 2766 2663 2505 2880 
Q 2244 3097 1772 3097 
Q 1472 3097 1187 3025 
Q 903 2953 641 2809 
L 641 3341 
Q 956 3463 1253 3523 
Q 1550 3584 1831 3584 
Q 2591 3584 2966 3190 
Q 3341 2797 3341 1997 
z
" transform="scale(0.015625)"/>
       <path id="DejaVuSans-79" d="M 2059 -325 
Q 1816 -950 1584 -1140 
Q 1353 -1331 966 -1331 
L 506 -1331 
L 506 -850 
L 844 -850 
Q 1081 -850 1212 -737 
Q 1344 -625 1503 -206 
L 1606 56 
L 191 3500 
L 800 3500 
L 1894 763 
L 2988 3500 
L 3597 3500 
L 2059 -325 
z
" transform="scale(0.015625)"/>
       <path id="DejaVuSans-20" transform="scale(0.015625)"/>
       <path id="DejaVuSans-28" d="M 1984 4856 
Q 1566 4138 1362 3434 
Q 1159 2731 1159 2009 
Q 1159 1288 1364 580 
Q 1569 -128 1984 -844 
L 1484 -844 
Q 1016 -109 783 600 
Q 550 1309 550 2009 
Q 550 2706 781 3412 
Q 1013 4119 1484 4856 
L 1984 4856 
z
" transform="scale(0.015625)"/>
       <path id="DejaVuSans-304" d="M -2518 4769 
L -650 4769 
L -650 4306 
L -2518 4306 
L -2518 4769 
z
" transform="scale(0.015625)"/>
       <path id="DejaVuSans-Oblique-78" d="M 3841 3500 
L 2234 1784 
L 3219 0 
L 2559 0 
L 1819 1388 
L 531 0 
L -166 0 
L 1556 1844 
L 641 3500 
L 1300 3500 
L 1972 2234 
L 3144 3500 
L 3841 3500 
z
" transform="scale(0.015625)"/>
       <path id="DejaVuSans-b1" d="M 2944 4013 
L 2944 2803 
L 4684 2803 
L 4684 2272 
L 2944 2272 
L 2944 1063 
L 2419 1063 
L 2419 2272 
L 678 2272 
L 678 2803 
L 2419 2803 
L 2419 4013 
L 2944 4013 
z
M 678 531 
L 4684 531 
L 4684 0 
L 678 0 
L 678 531 
z
" transform="scale(0.015625)"/>
       <path id="DejaVuSans-Oblique-73" d="M 3200 3397 
L 3091 2853 
Q 2863 2978 2609 3040 
Q 2356 3103 2088 3103 
Q 1634 3103 1373 2948 
Q 1113 2794 1113 2528 
Q 1113 2219 1719 2053 
Q 1766 2041 1788 2034 
L 1972 1978 
Q 2547 1819 2739 1644 
Q 2931 1469 2931 1166 
Q 2931 609 2489 259 
Q 2047 -91 1331 -91 
Q 1053 -91 747 -37 
Q 441 16 72 128 
L 184 722 
Q 500 559 806 475 
Q 1113 391 1394 391 
Q 1816 391 2080 572 
Q 2344 753 2344 1031 
Q 2344 1331 1650 1516 
L 1591 1531 
L 1394 1581 
Q 956 1697 753 1886 
Q 550 2075 550 2369 
Q 550 2928 970 3256 
Q 1391 3584 2113 3584 
Q 2397 3584 2667 3537 
Q 2938 3491 3200 3397 
z
" transform="scale(0.015625)"/>
       <path id="DejaVuSans-f7" d="M 2297 3547 
L 3066 3547 
L 3066 2778 
L 2297 2778 
L 2297 3547 
z
M 2297 1234 
L 3066 1234 
L 3066 469 
L 2297 469 
L 2297 1234 
z
M 678 2272 
L 4684 2272 
L 4684 1741 
L 678 1741 
L 678 2272 
z
" transform="scale(0.015625)"/>
       <path id="STIXSizeOneSym-Regular-221a" d="M 6970 9933 
L 3373 -1888 
L 3104 -1888 
L 1626 2918 
Q 1555 3149 1465 3251 
Q 1376 3354 1229 3354 
Q 1011 3354 794 3181 
L 717 3309 
L 1766 4115 
L 1926 4115 
L 3379 -602 
L 3405 -602 
L 6605 9933 
L 6970 9933 
z
" transform="scale(0.015625)"/>
       <path id="DejaVuSans-Oblique-4e" d="M 1081 4666 
L 1931 4666 
L 3219 666 
L 4000 4666 
L 4616 4666 
L 3706 0 
L 2853 0 
L 1569 4025 
L 788 0 
L 172 0 
L 1081 4666 
z
" transform="scale(0.015625)"/>
       <path id="DejaVuSans-29" d="M 513 4856 
L 1013 4856 
Q 1481 4119 1714 3412 
Q 1947 2706 1947 2009 
Q 1947 1309 1714 600 
Q 1481 -109 1013 -844 
L 513 -844 
Q 928 -128 1133 580 
Q 1338 1288 1338 2009 
Q 1338 2731 1133 3434 
Q 928 4138 513 4856 
z
" transform="scale(0.015625)"/>
      </defs>
      <use xlink:href="#DejaVuSans-41" transform="translate(0 0.578125)"/>
      <use xlink:href="#DejaVuSans-63" transform="translate(68.408203 0.578125)"/>
      <use xlink:href="#DejaVuSans-63" transform="translate(123.388672 0.578125)"/>
      <use xlink:href="#DejaVuSans-75" transform="translate(178.369141 0.578125)"/>
      <use xlink:href="#DejaVuSans-72" transform="translate(241.748047 0.578125)"/>
      <use xlink:href="#DejaVuSans-61" transform="translate(282.861328 0.578125)"/>
      <use xlink:href="#DejaVuSans-63" transform="translate(344.140625 0.578125)"/>
      <use xlink:href="#DejaVuSans-79" transform="translate(399.121094 0.578125)"/>
      <use xlink:href="#DejaVuSans-20" transform="translate(458.300781 0.578125)"/>
      <use xlink:href="#DejaVuSans-28" transform="translate(490.087891 0.578125)"/>
      <use xlink:href="#DejaVuSans-304" transform="translate(591.240234 0.484375)"/>
      <use xlink:href="#DejaVuSans-Oblique-78" transform="translate(529.101562 0.578125)"/>
      <use xlink:href="#DejaVuSans-b1" transform="translate(607.763672 0.578125)"/>
      <use xlink:href="#DejaVuSans-Oblique-73" transform="translate(711.035156 0.578125)"/>
      <use xlink:href="#DejaVuSans-f7" transform="translate(782.617188 0.578125)"/>
      <use xlink:href="#STIXSizeOneSym-Regular-221a" transform="translate(885.888672 17.09375)scale(0.563912)"/>
      <use xlink:href="#DejaVuSans-Oblique-4e" transform="translate(957.977036 0.84375)"/>
      <use xlink:href="#DejaVuSans-29" transform="translate(1045.281723 0.578125)"/>
      <path d="M 945.477036 97.5 
L 945.477036 103.75 
L 1045.281723 103.75 
L 1045.281723 97.5 
L 945.477036 97.5 
z
"/>
     </g>
    </g>
   </g>
   <g id="line2d_23">
    <path d="M 46.613272 325 
L 49.003329 260.794246 
L 51.861204 230.185385 
L 54.719078 202.587231 
L 57.576953 184.773877 
L 60.434827 175.490862 
L 63.292702 163.698923 
L 66.150576 157.9284 
L 69.008451 151.656092 
L 71.866325 145.634677 
L 74.7242 142.373077 
L 77.582074 141.118615 
L 80.439949 140.867723 
L 83.297823 136.100769 
L 86.155698 134.344523 
L 89.013572 132.588277 
L 91.871447 130.079354 
L 94.729321 130.330246 
L 97.587196 127.821323 
L 100.44507 127.570431 
L 103.302945 125.061508 
L 106.160819 127.068646 
L 109.018694 125.3124 
L 111.876569 122.301692 
L 114.734443 123.305262 
L 117.592318 122.0508 
L 120.450192 122.301692 
L 123.308067 120.294554 
L 126.165941 122.803477 
L 129.023816 119.541877 
L 131.88169 121.047231 
L 134.739565 119.290985 
L 137.597439 120.043662 
L 140.455314 120.545446 
L 143.313188 118.538308 
L 146.171063 117.283846 
L 149.028937 118.287415 
L 151.886812 118.538308 
L 154.744686 117.534738 
L 157.602561 118.287415 
L 160.460435 116.531169 
L 163.31831 117.283846 
L 166.176184 116.280277 
L 169.034059 115.276708 
L 171.891933 116.280277 
L 174.749808 116.029385 
L 177.607682 116.531169 
L 180.465557 115.025815 
L 183.323431 115.5276 
" clip-path="url(#p0b81a9c99a)" style="fill: none; stroke: #1f77b4; stroke-width: 1.5; stroke-linecap: square"/>
   </g>
   <g id="line2d_24">
    <path d="M 46.145455 275.095108 
L 49.003329 211.117569 
L 51.861204 183.017631 
L 54.719078 157.9284 
L 57.576953 143.627538 
L 60.434827 130.832031 
L 63.292702 128.824892 
L 66.150576 120.043662 
L 69.008451 113.771354 
L 71.866325 113.771354 
L 74.7242 106.495477 
L 77.582074 107.248154 
L 80.439949 102.732092 
L 83.297823 101.226738 
L 86.155698 100.724954 
L 89.013572 101.226738 
L 91.871447 97.212462 
L 94.729321 94.452646 
L 97.587196 93.699969 
L 100.44507 94.703538 
L 103.302945 93.950862 
L 106.160819 93.449077 
L 109.018694 92.194615 
L 111.876569 93.449077 
L 114.734443 92.947292 
L 117.592318 92.445508 
L 120.450192 93.449077 
L 123.308067 89.685692 
L 126.165941 90.689262 
L 129.023816 88.682123 
L 131.88169 88.682123 
L 134.739565 90.187477 
L 137.597439 88.180338 
L 140.455314 90.689262 
L 143.313188 87.427662 
L 146.171063 86.925877 
L 149.028937 87.427662 
L 151.886812 85.671415 
L 154.744686 84.918738 
L 157.602561 85.420523 
L 160.460435 88.682123 
L 163.31831 86.1732 
L 166.176184 85.169631 
L 169.034059 87.427662 
L 171.891933 87.427662 
L 174.749808 86.1732 
L 177.607682 85.671415 
L 180.465557 84.918738 
L 183.323431 86.424092 
L 186.181306 85.420523 
L 189.039181 84.667846 
L 191.897055 84.918738 
L 194.75493 81.406246 
L 197.612804 84.416954 
L 200.470679 83.664277 
L 203.328553 82.660708 
" clip-path="url(#p0b81a9c99a)" style="fill: none; stroke: #ff7f0e; stroke-width: 1.5; stroke-linecap: square"/>
   </g>
   <g id="line2d_25">
    <path d="M 51.449573 325 
L 51.861204 319.001262 
L 54.719078 294.664708 
L 57.576953 283.625446 
L 60.434827 269.575477 
L 63.292702 256.779969 
L 66.150576 255.274615 
L 69.008451 243.733569 
L 71.866325 237.963046 
L 74.7242 231.690738 
L 77.582074 232.443415 
L 80.439949 231.690738 
L 83.297823 232.694308 
L 86.155698 226.171108 
L 89.013572 224.916646 
L 91.871447 212.372031 
L 94.729321 216.135415 
L 97.587196 209.863108 
L 100.44507 211.368462 
L 103.302945 208.357754 
L 106.160819 207.103292 
L 109.018694 205.597938 
L 111.876569 203.841692 
L 114.734443 200.580092 
L 117.592318 197.820277 
L 120.450192 201.834554 
L 123.308067 191.297077 
L 126.165941 195.311354 
L 129.023816 194.307785 
L 131.88169 192.300646 
L 134.739565 189.289938 
L 137.597439 191.046185 
L 140.455314 189.039046 
L 143.313188 192.551538 
L 146.171063 189.540831 
L 149.028937 190.795292 
L 151.886812 191.547969 
L 154.744686 188.035477 
L 157.602561 186.279231 
L 160.460435 184.773877 
L 163.31831 186.781015 
L 166.176184 182.766738 
L 169.034059 189.289938 
L 171.891933 182.264954 
L 174.749808 185.024769 
L 177.607682 178.752462 
L 180.465557 182.766738 
L 183.323431 183.017631 
L 186.181306 185.275662 
L 189.039181 188.035477 
L 191.897055 178.501569 
L 194.75493 184.0212 
L 197.612804 179.254246 
" clip-path="url(#p0b81a9c99a)" style="fill: none; stroke: #2ca02c; stroke-width: 1.5; stroke-linecap: square"/>
   </g>
   <g id="line2d_26">
    <path d="M 46.145455 282.621877 
L 49.003329 219.397015 
L 51.861204 194.056892 
L 54.719078 165.455169 
L 57.576953 148.394492 
L 60.434827 142.373077 
L 63.292702 133.591846 
L 66.150576 124.057938 
L 69.008451 119.792769 
L 71.866325 117.534738 
L 74.7242 113.269569 
L 77.582074 108.753508 
L 80.439949 108.251723 
L 83.297823 106.244585 
L 86.155698 104.990123 
L 89.013572 102.230308 
L 91.871447 100.975846 
L 94.729321 99.721385 
L 97.587196 97.463354 
L 100.44507 98.216031 
L 103.302945 94.703538 
L 106.160819 96.459785 
L 109.018694 91.692831 
L 111.876569 93.699969 
L 114.734443 94.201754 
L 117.592318 94.954431 
L 120.450192 93.699969 
L 123.308067 91.943723 
L 126.165941 93.950862 
L 129.023816 90.438369 
L 131.88169 90.940154 
L 134.739565 90.438369 
L 137.597439 90.187477 
L 140.455314 90.187477 
L 143.313188 90.940154 
L 146.171063 89.4348 
L 149.028937 92.6964 
L 151.886812 90.438369 
L 154.744686 91.191046 
L 157.602561 90.187477 
L 160.460435 90.187477 
L 163.31831 90.438369 
L 166.176184 88.180338 
" clip-path="url(#p0b81a9c99a)" style="fill: none; stroke: #d62728; stroke-width: 1.5; stroke-linecap: square"/>
   </g>
   <g id="line2d_27">
    <path d="M 46.145455 286.134369 
L 49.003329 242.73 
L 51.861204 223.913077 
L 54.719078 217.891662 
L 57.576953 202.587231 
L 60.434827 195.813138 
L 63.292702 191.798862 
L 66.150576 189.289938 
L 69.008451 184.522985 
L 71.866325 181.763169 
L 74.7242 176.745323 
L 77.582074 175.741754 
L 80.439949 176.494431 
L 83.297823 170.9748 
L 86.155698 171.978369 
L 89.013572 170.473015 
L 91.871447 171.225692 
L 94.729321 172.731046 
L 97.587196 167.211415 
L 100.44507 167.211415 
L 103.302945 165.956954 
L 106.160819 163.698923 
L 109.018694 162.193569 
L 111.876569 163.698923 
L 114.734443 162.946246 
L 117.592318 159.182862 
L 120.450192 160.688215 
L 123.308067 160.437323 
" clip-path="url(#p0b81a9c99a)" style="fill: none; stroke-dasharray: 5.55,2.4; stroke-dashoffset: 0; stroke: #9467bd; stroke-width: 1.5"/>
   </g>
   <g id="line2d_28">
    <path d="M 46.145455 282.872769 
L 49.003329 219.397015 
L 51.861204 188.035477 
L 54.719078 177.247108 
L 57.576953 168.716769 
L 60.434827 153.663231 
L 63.292702 147.892708 
L 66.150576 144.129323 
L 69.008451 138.3588 
L 71.866325 134.093631 
L 74.7242 135.348092 
L 77.582074 132.588277 
L 80.439949 130.832031 
L 83.297823 127.319538 
L 86.155698 125.814185 
L 89.013572 126.065077 
L 91.871447 124.559723 
L 94.729321 122.552585 
L 97.587196 123.054369 
L 100.44507 126.065077 
L 103.302945 120.796338 
L 106.160819 116.782062 
L 109.018694 122.301692 
L 111.876569 117.785631 
L 114.734443 119.040092 
L 117.592318 116.782062 
L 120.450192 121.549015 
L 123.308067 116.029385 
L 126.165941 116.531169 
L 129.023816 114.524031 
L 131.88169 117.032954 
L 134.739565 115.778492 
L 137.597439 114.273138 
L 140.455314 121.298123 
L 143.313188 119.040092 
L 146.171063 119.290985 
L 149.028937 117.283846 
" clip-path="url(#p0b81a9c99a)" style="fill: none; stroke-dasharray: 5.55,2.4; stroke-dashoffset: 0; stroke: #8c564b; stroke-width: 1.5"/>
   </g>
   <g id="line2d_29">
    <path d="M 46.401775 325 
L 49.003329 273.840646 
L 51.861204 251.511231 
L 54.719078 235.955908 
L 57.576953 225.920215 
L 60.434827 218.644338 
L 63.292702 212.372031 
L 66.150576 207.354185 
L 69.008451 201.332769 
L 71.866325 197.318492 
L 74.7242 196.314923 
L 77.582074 193.053323 
L 80.439949 191.046185 
L 83.297823 188.537262 
L 86.155698 188.035477 
L 89.013572 185.526554 
L 91.871447 186.279231 
L 94.729321 183.268523 
L 97.587196 184.0212 
L 100.44507 181.763169 
L 103.302945 178.250677 
L 106.160819 178.752462 
L 109.018694 178.250677 
L 111.876569 177.999785 
L 114.734443 177.498 
L 117.592318 178.250677 
L 120.450192 177.748892 
L 123.308067 176.745323 
L 126.165941 177.748892 
L 129.023816 175.741754 
L 131.88169 177.247108 
L 134.739565 178.250677 
L 137.597439 177.247108 
L 140.455314 175.239969 
L 143.313188 176.745323 
L 146.171063 176.494431 
L 149.028937 176.243538 
L 151.886812 178.501569 
L 154.744686 177.999785 
L 157.602561 176.494431 
L 160.460435 177.999785 
L 163.31831 177.247108 
L 166.176184 177.247108 
L 169.034059 176.243538 
L 171.891933 176.494431 
L 174.749808 174.738185 
L 177.607682 176.494431 
L 180.465557 176.745323 
L 183.323431 176.745323 
L 186.181306 176.243538 
L 189.039181 178.501569 
L 191.897055 175.741754 
L 194.75493 177.748892 
" clip-path="url(#p0b81a9c99a)" style="fill: none; stroke-dasharray: 5.55,2.4; stroke-dashoffset: 0; stroke: #e377c2; stroke-width: 1.5"/>
   </g>
   <g id="line2d_30">
    <path d="M 46.145455 300.686123 
L 49.003329 234.701446 
L 51.861204 206.350615 
L 54.719078 187.784585 
L 57.576953 171.225692 
L 60.434827 161.440892 
L 63.292702 146.889138 
L 66.150576 145.885569 
L 69.008451 138.609692 
L 71.866325 132.839169 
L 74.7242 126.566862 
L 77.582074 124.559723 
L 80.439949 122.552585 
L 83.297823 120.043662 
L 86.155698 117.032954 
L 89.013572 112.015108 
L 91.871447 108.000831 
L 94.729321 107.499046 
L 97.587196 104.739231 
L 100.44507 106.495477 
L 103.302945 103.233877 
L 106.160819 99.470492 
L 109.018694 99.470492 
L 111.876569 100.223169 
L 114.734443 98.717815 
L 117.592318 97.212462 
L 120.450192 97.965138 
L 123.308067 95.205323 
L 126.165941 95.205323 
L 129.023816 93.950862 
L 131.88169 91.191046 
L 134.739565 90.187477 
L 137.597439 92.194615 
L 140.455314 90.438369 
L 143.313188 90.438369 
L 146.171063 93.950862 
L 149.028937 91.943723 
L 151.886812 89.936585 
L 154.744686 87.678554 
L 157.602561 86.925877 
L 160.460435 87.176769 
L 163.31831 88.180338 
L 166.176184 86.674985 
L 169.034059 86.674985 
L 171.891933 87.176769 
L 174.749808 84.166062 
L 177.607682 85.420523 
L 180.465557 82.9116 
L 183.323431 83.664277 
L 186.181306 83.664277 
L 189.039181 83.162492 
L 191.897055 84.166062 
L 194.75493 83.162492 
L 197.612804 83.915169 
L 200.470679 80.904462 
L 203.328553 81.406246 
L 206.186428 82.409815 
L 209.044302 81.406246 
L 211.902177 79.65 
L 214.760051 80.904462 
L 217.617926 82.660708 
L 220.4758 80.653569 
L 223.333675 80.402677 
L 226.191549 82.158923 
L 229.049424 78.897323 
L 231.907298 77.642862 
L 234.765173 75.635723 
L 237.623047 79.399108 
L 240.480922 78.144646 
L 243.338796 79.65 
L 246.196671 78.646431 
L 249.054545 76.639292 
" clip-path="url(#p0b81a9c99a)" style="fill: none; stroke-dasharray: 5.55,2.4; stroke-dashoffset: 0; stroke: #7f7f7f; stroke-width: 1.5"/>
   </g>
   <g id="patch_3">
    <path d="M 36 283.5 
L 36 38.88 
" style="fill: none; stroke: #000000; stroke-width: 0.8; stroke-linejoin: miter; stroke-linecap: square"/>
   </g>
   <g id="patch_4">
    <path d="M 259.2 283.5 
L 259.2 38.88 
" style="fill: none; stroke: #000000; stroke-width: 0.8; stroke-linejoin: miter; stroke-linecap: square"/>
   </g>
   <g id="patch_5">
    <path d="M 36 283.5 
L 259.2 283.5 
" style="fill: none; stroke: #000000; stroke-width: 0.8; stroke-linejoin: miter; stroke-linecap: square"/>
   </g>
   <g id="patch_6">
    <path d="M 36 38.88 
L 259.2 38.88 
" style="fill: none; stroke: #000000; stroke-width: 0.8; stroke-linejoin: miter; stroke-linecap: square"/>
   </g>
   <g id="legend_1">
    <g id="patch_7">
     <path d="M 136.107812 278.5 
L 252.2 278.5 
Q 254.2 278.5 254.2 276.5 
L 254.2 158.40625 
Q 254.2 156.40625 252.2 156.40625 
L 136.107812 156.40625 
Q 134.107812 156.40625 134.107812 158.40625 
L 134.107812 276.5 
Q 134.107812 278.5 136.107812 278.5 
z
" style="fill: #ffffff; opacity: 0.6; stroke: #cccccc; stroke-linejoin: miter"/>
    </g>
    <g id="line2d_31">
     <path d="M 138.107812 164.504687 
L 148.107812 164.504687 
L 158.107812 164.504687 
" style="fill: none; stroke: #1f77b4; stroke-width: 1.5; stroke-linecap: square"/>
    </g>
    <g id="text_14">
     <!-- vit_b_16 -->
     <g transform="translate(166.107812 168.004687)scale(0.1 -0.1)">
      <defs>
       <path id="DejaVuSans-76" d="M 191 3500 
L 800 3500 
L 1894 563 
L 2988 3500 
L 3597 3500 
L 2284 0 
L 1503 0 
L 191 3500 
z
" transform="scale(0.015625)"/>
       <path id="DejaVuSans-69" d="M 603 3500 
L 1178 3500 
L 1178 0 
L 603 0 
L 603 3500 
z
M 603 4863 
L 1178 4863 
L 1178 4134 
L 603 4134 
L 603 4863 
z
" transform="scale(0.015625)"/>
       <path id="DejaVuSans-74" d="M 1172 4494 
L 1172 3500 
L 2356 3500 
L 2356 3053 
L 1172 3053 
L 1172 1153 
Q 1172 725 1289 603 
Q 1406 481 1766 481 
L 2356 481 
L 2356 0 
L 1766 0 
Q 1100 0 847 248 
Q 594 497 594 1153 
L 594 3053 
L 172 3053 
L 172 3500 
L 594 3500 
L 594 4494 
L 1172 4494 
z
" transform="scale(0.015625)"/>
       <path id="DejaVuSans-5f" d="M 3263 -1063 
L 3263 -1509 
L -63 -1509 
L -63 -1063 
L 3263 -1063 
z
" transform="scale(0.015625)"/>
       <path id="DejaVuSans-62" d="M 3116 1747 
Q 3116 2381 2855 2742 
Q 2594 3103 2138 3103 
Q 1681 3103 1420 2742 
Q 1159 2381 1159 1747 
Q 1159 1113 1420 752 
Q 1681 391 2138 391 
Q 2594 391 2855 752 
Q 3116 1113 3116 1747 
z
M 1159 2969 
Q 1341 3281 1617 3432 
Q 1894 3584 2278 3584 
Q 2916 3584 3314 3078 
Q 3713 2572 3713 1747 
Q 3713 922 3314 415 
Q 2916 -91 2278 -91 
Q 1894 -91 1617 61 
Q 1341 213 1159 525 
L 1159 0 
L 581 0 
L 581 4863 
L 1159 4863 
L 1159 2969 
z
" transform="scale(0.015625)"/>
       <path id="DejaVuSans-31" d="M 794 531 
L 1825 531 
L 1825 4091 
L 703 3866 
L 703 4441 
L 1819 4666 
L 2450 4666 
L 2450 531 
L 3481 531 
L 3481 0 
L 794 0 
L 794 531 
z
" transform="scale(0.015625)"/>
      </defs>
      <use xlink:href="#DejaVuSans-76"/>
      <use xlink:href="#DejaVuSans-69" x="59.179688"/>
      <use xlink:href="#DejaVuSans-74" x="86.962891"/>
      <use xlink:href="#DejaVuSans-5f" x="126.171875"/>
      <use xlink:href="#DejaVuSans-62" x="176.171875"/>
      <use xlink:href="#DejaVuSans-5f" x="239.648438"/>
      <use xlink:href="#DejaVuSans-31" x="289.648438"/>
      <use xlink:href="#DejaVuSans-36" x="353.271484"/>
     </g>
    </g>
    <g id="line2d_32">
     <path d="M 138.107812 179.460938 
L 148.107812 179.460938 
L 158.107812 179.460938 
" style="fill: none; stroke: #ff7f0e; stroke-width: 1.5; stroke-linecap: square"/>
    </g>
    <g id="text_15">
     <!-- swin_b -->
     <g transform="translate(166.107812 182.960938)scale(0.1 -0.1)">
      <defs>
       <path id="DejaVuSans-77" d="M 269 3500 
L 844 3500 
L 1563 769 
L 2278 3500 
L 2956 3500 
L 3675 769 
L 4391 3500 
L 4966 3500 
L 4050 0 
L 3372 0 
L 2619 2869 
L 1863 0 
L 1184 0 
L 269 3500 
z
" transform="scale(0.015625)"/>
       <path id="DejaVuSans-6e" d="M 3513 2113 
L 3513 0 
L 2938 0 
L 2938 2094 
Q 2938 2591 2744 2837 
Q 2550 3084 2163 3084 
Q 1697 3084 1428 2787 
Q 1159 2491 1159 1978 
L 1159 0 
L 581 0 
L 581 3500 
L 1159 3500 
L 1159 2956 
Q 1366 3272 1645 3428 
Q 1925 3584 2291 3584 
Q 2894 3584 3203 3211 
Q 3513 2838 3513 2113 
z
" transform="scale(0.015625)"/>
      </defs>
      <use xlink:href="#DejaVuSans-73"/>
      <use xlink:href="#DejaVuSans-77" x="52.099609"/>
      <use xlink:href="#DejaVuSans-69" x="133.886719"/>
      <use xlink:href="#DejaVuSans-6e" x="161.669922"/>
      <use xlink:href="#DejaVuSans-5f" x="225.048828"/>
      <use xlink:href="#DejaVuSans-62" x="275.048828"/>
     </g>
    </g>
    <g id="line2d_33">
     <path d="M 138.107812 194.417188 
L 148.107812 194.417188 
L 158.107812 194.417188 
" style="fill: none; stroke: #2ca02c; stroke-width: 1.5; stroke-linecap: square"/>
    </g>
    <g id="text_16">
     <!-- beit_b_16 -->
     <g transform="translate(166.107812 197.917188)scale(0.1 -0.1)">
      <defs>
       <path id="DejaVuSans-65" d="M 3597 1894 
L 3597 1613 
L 953 1613 
Q 991 1019 1311 708 
Q 1631 397 2203 397 
Q 2534 397 2845 478 
Q 3156 559 3463 722 
L 3463 178 
Q 3153 47 2828 -22 
Q 2503 -91 2169 -91 
Q 1331 -91 842 396 
Q 353 884 353 1716 
Q 353 2575 817 3079 
Q 1281 3584 2069 3584 
Q 2775 3584 3186 3129 
Q 3597 2675 3597 1894 
z
M 3022 2063 
Q 3016 2534 2758 2815 
Q 2500 3097 2075 3097 
Q 1594 3097 1305 2825 
Q 1016 2553 972 2059 
L 3022 2063 
z
" transform="scale(0.015625)"/>
      </defs>
      <use xlink:href="#DejaVuSans-62"/>
      <use xlink:href="#DejaVuSans-65" x="63.476562"/>
      <use xlink:href="#DejaVuSans-69" x="125"/>
      <use xlink:href="#DejaVuSans-74" x="152.783203"/>
      <use xlink:href="#DejaVuSans-5f" x="191.992188"/>
      <use xlink:href="#DejaVuSans-62" x="241.992188"/>
      <use xlink:href="#DejaVuSans-5f" x="305.46875"/>
      <use xlink:href="#DejaVuSans-31" x="355.46875"/>
      <use xlink:href="#DejaVuSans-36" x="419.091797"/>
     </g>
    </g>
    <g id="line2d_34">
     <path d="M 138.107812 209.373437 
L 148.107812 209.373437 
L 158.107812 209.373437 
" style="fill: none; stroke: #d62728; stroke-width: 1.5; stroke-linecap: square"/>
    </g>
    <g id="text_17">
     <!-- deit_b_16 -->
     <g transform="translate(166.107812 212.873437)scale(0.1 -0.1)">
      <defs>
       <path id="DejaVuSans-64" d="M 2906 2969 
L 2906 4863 
L 3481 4863 
L 3481 0 
L 2906 0 
L 2906 525 
Q 2725 213 2448 61 
Q 2172 -91 1784 -91 
Q 1150 -91 751 415 
Q 353 922 353 1747 
Q 353 2572 751 3078 
Q 1150 3584 1784 3584 
Q 2172 3584 2448 3432 
Q 2725 3281 2906 2969 
z
M 947 1747 
Q 947 1113 1208 752 
Q 1469 391 1925 391 
Q 2381 391 2643 752 
Q 2906 1113 2906 1747 
Q 2906 2381 2643 2742 
Q 2381 3103 1925 3103 
Q 1469 3103 1208 2742 
Q 947 2381 947 1747 
z
" transform="scale(0.015625)"/>
      </defs>
      <use xlink:href="#DejaVuSans-64"/>
      <use xlink:href="#DejaVuSans-65" x="63.476562"/>
      <use xlink:href="#DejaVuSans-69" x="125"/>
      <use xlink:href="#DejaVuSans-74" x="152.783203"/>
      <use xlink:href="#DejaVuSans-5f" x="191.992188"/>
      <use xlink:href="#DejaVuSans-62" x="241.992188"/>
      <use xlink:href="#DejaVuSans-5f" x="305.46875"/>
      <use xlink:href="#DejaVuSans-31" x="355.46875"/>
      <use xlink:href="#DejaVuSans-36" x="419.091797"/>
     </g>
    </g>
    <g id="line2d_35">
     <path d="M 138.107812 224.329687 
L 148.107812 224.329687 
L 158.107812 224.329687 
" style="fill: none; stroke-dasharray: 5.55,2.4; stroke-dashoffset: 0; stroke: #9467bd; stroke-width: 1.5"/>
    </g>
    <g id="text_18">
     <!-- vgg19 -->
     <g transform="translate(166.107812 227.829687)scale(0.1 -0.1)">
      <defs>
       <path id="DejaVuSans-67" d="M 2906 1791 
Q 2906 2416 2648 2759 
Q 2391 3103 1925 3103 
Q 1463 3103 1205 2759 
Q 947 2416 947 1791 
Q 947 1169 1205 825 
Q 1463 481 1925 481 
Q 2391 481 2648 825 
Q 2906 1169 2906 1791 
z
M 3481 434 
Q 3481 -459 3084 -895 
Q 2688 -1331 1869 -1331 
Q 1566 -1331 1297 -1286 
Q 1028 -1241 775 -1147 
L 775 -588 
Q 1028 -725 1275 -790 
Q 1522 -856 1778 -856 
Q 2344 -856 2625 -561 
Q 2906 -266 2906 331 
L 2906 616 
Q 2728 306 2450 153 
Q 2172 0 1784 0 
Q 1141 0 747 490 
Q 353 981 353 1791 
Q 353 2603 747 3093 
Q 1141 3584 1784 3584 
Q 2172 3584 2450 3431 
Q 2728 3278 2906 2969 
L 2906 3500 
L 3481 3500 
L 3481 434 
z
" transform="scale(0.015625)"/>
      </defs>
      <use xlink:href="#DejaVuSans-76"/>
      <use xlink:href="#DejaVuSans-67" x="59.179688"/>
      <use xlink:href="#DejaVuSans-67" x="122.65625"/>
      <use xlink:href="#DejaVuSans-31" x="186.132812"/>
      <use xlink:href="#DejaVuSans-39" x="249.755859"/>
     </g>
    </g>
    <g id="line2d_36">
     <path d="M 138.107812 239.007812 
L 148.107812 239.007812 
L 158.107812 239.007812 
" style="fill: none; stroke-dasharray: 5.55,2.4; stroke-dashoffset: 0; stroke: #8c564b; stroke-width: 1.5"/>
    </g>
    <g id="text_19">
     <!-- resnet50 -->
     <g transform="translate(166.107812 242.507812)scale(0.1 -0.1)">
      <use xlink:href="#DejaVuSans-72"/>
      <use xlink:href="#DejaVuSans-65" x="38.863281"/>
      <use xlink:href="#DejaVuSans-73" x="100.386719"/>
      <use xlink:href="#DejaVuSans-6e" x="152.486328"/>
      <use xlink:href="#DejaVuSans-65" x="215.865234"/>
      <use xlink:href="#DejaVuSans-74" x="277.388672"/>
      <use xlink:href="#DejaVuSans-35" x="316.597656"/>
      <use xlink:href="#DejaVuSans-30" x="380.220703"/>
     </g>
    </g>
    <g id="line2d_37">
     <path d="M 138.107812 253.685938 
L 148.107812 253.685938 
L 158.107812 253.685938 
" style="fill: none; stroke-dasharray: 5.55,2.4; stroke-dashoffset: 0; stroke: #e377c2; stroke-width: 1.5"/>
    </g>
    <g id="text_20">
     <!-- efficientnetv2_m -->
     <g transform="translate(166.107812 257.185938)scale(0.1 -0.1)">
      <defs>
       <path id="DejaVuSans-66" d="M 2375 4863 
L 2375 4384 
L 1825 4384 
Q 1516 4384 1395 4259 
Q 1275 4134 1275 3809 
L 1275 3500 
L 2222 3500 
L 2222 3053 
L 1275 3053 
L 1275 0 
L 697 0 
L 697 3053 
L 147 3053 
L 147 3500 
L 697 3500 
L 697 3744 
Q 697 4328 969 4595 
Q 1241 4863 1831 4863 
L 2375 4863 
z
" transform="scale(0.015625)"/>
       <path id="DejaVuSans-6d" d="M 3328 2828 
Q 3544 3216 3844 3400 
Q 4144 3584 4550 3584 
Q 5097 3584 5394 3201 
Q 5691 2819 5691 2113 
L 5691 0 
L 5113 0 
L 5113 2094 
Q 5113 2597 4934 2840 
Q 4756 3084 4391 3084 
Q 3944 3084 3684 2787 
Q 3425 2491 3425 1978 
L 3425 0 
L 2847 0 
L 2847 2094 
Q 2847 2600 2669 2842 
Q 2491 3084 2119 3084 
Q 1678 3084 1418 2786 
Q 1159 2488 1159 1978 
L 1159 0 
L 581 0 
L 581 3500 
L 1159 3500 
L 1159 2956 
Q 1356 3278 1631 3431 
Q 1906 3584 2284 3584 
Q 2666 3584 2933 3390 
Q 3200 3197 3328 2828 
z
" transform="scale(0.015625)"/>
      </defs>
      <use xlink:href="#DejaVuSans-65"/>
      <use xlink:href="#DejaVuSans-66" x="61.523438"/>
      <use xlink:href="#DejaVuSans-66" x="96.728516"/>
      <use xlink:href="#DejaVuSans-69" x="131.933594"/>
      <use xlink:href="#DejaVuSans-63" x="159.716797"/>
      <use xlink:href="#DejaVuSans-69" x="214.697266"/>
      <use xlink:href="#DejaVuSans-65" x="242.480469"/>
      <use xlink:href="#DejaVuSans-6e" x="304.003906"/>
      <use xlink:href="#DejaVuSans-74" x="367.382812"/>
      <use xlink:href="#DejaVuSans-6e" x="406.591797"/>
      <use xlink:href="#DejaVuSans-65" x="469.970703"/>
      <use xlink:href="#DejaVuSans-74" x="531.494141"/>
      <use xlink:href="#DejaVuSans-76" x="570.703125"/>
      <use xlink:href="#DejaVuSans-32" x="629.882812"/>
      <use xlink:href="#DejaVuSans-5f" x="693.505859"/>
      <use xlink:href="#DejaVuSans-6d" x="743.505859"/>
     </g>
    </g>
    <g id="line2d_38">
     <path d="M 138.107812 268.642187 
L 148.107812 268.642187 
L 158.107812 268.642187 
" style="fill: none; stroke-dasharray: 5.55,2.4; stroke-dashoffset: 0; stroke: #7f7f7f; stroke-width: 1.5"/>
    </g>
    <g id="text_21">
     <!-- convnext_b -->
     <g transform="translate(166.107812 272.142187)scale(0.1 -0.1)">
      <defs>
       <path id="DejaVuSans-78" d="M 3513 3500 
L 2247 1797 
L 3578 0 
L 2900 0 
L 1881 1375 
L 863 0 
L 184 0 
L 1544 1831 
L 300 3500 
L 978 3500 
L 1906 2253 
L 2834 3500 
L 3513 3500 
z
" transform="scale(0.015625)"/>
      </defs>
      <use xlink:href="#DejaVuSans-63"/>
      <use xlink:href="#DejaVuSans-6f" x="54.980469"/>
      <use xlink:href="#DejaVuSans-6e" x="116.162109"/>
      <use xlink:href="#DejaVuSans-76" x="179.541016"/>
      <use xlink:href="#DejaVuSans-6e" x="238.720703"/>
      <use xlink:href="#DejaVuSans-65" x="302.099609"/>
      <use xlink:href="#DejaVuSans-78" x="361.873047"/>
      <use xlink:href="#DejaVuSans-74" x="421.052734"/>
      <use xlink:href="#DejaVuSans-5f" x="460.261719"/>
      <use xlink:href="#DejaVuSans-62" x="510.261719"/>
     </g>
    </g>
   </g>
  </g>
 </g>
 <defs>
  <clipPath id="p0b81a9c99a">
   <rect x="36" y="38.88" width="223.2" height="244.62"/>
  </clipPath>
 </defs>
</svg>
