<?xml version="1.0" encoding="utf-8" standalone="no"?>
<!DOCTYPE svg PUBLIC "-//W3C//DTD SVG 1.1//EN"
  "http://www.w3.org/Graphics/SVG/1.1/DTD/svg11.dtd">
<svg xmlns:xlink="http://www.w3.org/1999/xlink" width="360pt" height="432pt" viewBox="0 0 360 432" xmlns="http://www.w3.org/2000/svg" version="1.1">
 <metadata>
  <rdf:RDF xmlns:dc="http://purl.org/dc/elements/1.1/" xmlns:cc="http://creativecommons.org/ns#" xmlns:rdf="http://www.w3.org/1999/02/22-rdf-syntax-ns#">
   <cc:Work>
    <dc:type rdf:resource="http://purl.org/dc/dcmitype/StillImage"/>
    <dc:date>2022-05-21T09:42:33.122698</dc:date>
    <dc:format>image/svg+xml</dc:format>
    <dc:creator>
     <cc:Agent>
      <dc:title>Matplotlib v3.5.2, https://matplotlib.org/</dc:title>
     </cc:Agent>
    </dc:creator>
   </cc:Work>
  </rdf:RDF>
 </metadata>
 <defs>
  <style type="text/css">*{stroke-linejoin: round; stroke-linecap: butt}</style>
 </defs>
 <g id="figure_1">
  <g id="patch_1">
   <path d="M 0 432 
L 360 432 
L 360 0 
L 0 0 
L 0 432 
z
" style="fill: none"/>
  </g>
  <g id="axes_1">
   <g id="patch_2">
    <path d="M 45 378 
L 324 378 
L 324 51.84 
L 45 51.84 
z
" style="fill: #ffffff"/>
   </g>
   <g id="PolyCollection_1">
    <path d="M 57.681818 443.221809 
L 57.681818 456.957637 
L 61.254161 355.291358 
L 64.826504 317.26516 
L 68.398848 278.032569 
L 71.971191 254.091856 
L 75.543534 241.571978 
L 79.115877 226.645017 
L 82.68822 218.689848 
L 86.260563 210.497278 
L 89.832907 202.619236 
L 93.40525 196.50029 
L 96.977593 195.841269 
L 100.549936 194.9081 
L 104.122279 186.93896 
L 107.694622 186.636055 
L 111.266965 183.648209 
L 114.839309 180.756711 
L 118.411652 182.696716 
L 121.983995 177.417482 
L 125.556338 176.729787 
L 129.128681 172.479673 
L 132.701024 175.933034 
L 136.273367 173.421508 
L 139.845711 171.887906 
L 143.418054 171.894655 
L 146.990397 172.098059 
L 150.56274 171.903753 
L 154.135083 168.815814 
L 157.707426 172.613869 
L 161.27977 168.433674 
L 164.852113 168.913779 
L 168.424456 167.22482 
L 171.996799 166.881174 
L 175.569142 168.794055 
L 179.141485 165.679377 
L 182.713828 164.205873 
L 186.286172 165.370483 
L 189.858515 164.398206 
L 193.430858 162.588604 
L 197.003201 165.147937 
L 200.575544 162.119495 
L 204.147887 161.746489 
L 207.72023 160.986982 
L 211.292574 159.239619 
L 214.864917 161.285298 
L 218.43726 161.396308 
L 222.009603 162.677156 
L 225.581946 159.123106 
L 229.154289 160.739794 
L 229.154289 147.333806 
L 229.154289 147.333806 
L 225.581946 147.612401 
L 222.009603 148.072628 
L 218.43726 148.015385 
L 214.864917 148.795441 
L 211.292574 148.164935 
L 207.72023 149.093757 
L 204.147887 151.010434 
L 200.575544 148.63029 
L 197.003201 150.285171 
L 193.430858 150.837365 
L 189.858515 151.703948 
L 186.286172 150.062625 
L 182.713828 148.55105 
L 179.141485 150.422777 
L 175.569142 152.660468 
L 171.996799 153.235257 
L 168.424456 150.884472 
L 164.852113 153.878837 
L 161.27977 150.344665 
L 157.707426 154.862069 
L 154.135083 151.969663 
L 150.56274 154.234093 
L 146.990397 153.370741 
L 143.418054 156.919376 
L 139.845711 154.24994 
L 136.273367 160.744892 
L 132.701024 162.916689 
L 129.128681 161.017681 
L 125.556338 163.458029 
L 121.983995 163.43938 
L 118.411652 164.850607 
L 114.839309 166.121566 
L 111.266965 169.92053 
L 107.694622 171.616006 
L 104.122279 175.996424 
L 100.549936 180.739162 
L 96.977593 180.475039 
L 93.40525 183.161248 
L 89.832907 185.739903 
L 86.260563 193.918968 
L 82.68822 202.452552 
L 79.115877 209.885444 
L 75.543534 226.403653 
L 71.971191 238.638483 
L 68.398848 262.200047 
L 64.826504 296.562532 
L 61.254161 340.159965 
L 57.681818 443.221809 
z
" clip-path="url(#pde23398121)" style="fill: #1f77b4; fill-opacity: 0.2"/>
   </g>
   <g id="PolyCollection_2">
    <path d="M 57.681818 362.548855 
L 57.681818 371.038099 
L 61.254161 287.221089 
L 64.826504 250.850566 
L 68.398848 214.822408 
L 71.971191 198.5204 
L 75.543534 182.626567 
L 79.115877 177.170909 
L 82.68822 166.098187 
L 86.260563 159.220049 
L 89.832907 158.352064 
L 93.40525 150.367076 
L 96.977593 149.540009 
L 100.549936 142.120605 
L 104.122279 140.053295 
L 107.694622 140.055291 
L 111.266965 140.915597 
L 114.839309 136.116184 
L 118.411652 131.469149 
L 121.983995 129.934384 
L 125.556338 131.742652 
L 129.128681 131.124358 
L 132.701024 129.861531 
L 136.273367 128.598269 
L 139.845711 128.928227 
L 143.418054 131.36487 
L 146.990397 128.716583 
L 150.56274 129.299979 
L 154.135083 125.026564 
L 157.707426 126.794635 
L 161.27977 122.250132 
L 164.852113 122.955927 
L 168.424456 126.248109 
L 171.996799 124.124802 
L 175.569142 126.625552 
L 179.141485 120.435369 
L 182.713828 120.045747 
L 186.286172 121.400571 
L 189.858515 118.305071 
L 193.430858 118.603425 
L 197.003201 120.232338 
L 200.575544 125.3273 
L 204.147887 121.42723 
L 207.72023 117.608481 
L 211.292574 122.276752 
L 214.864917 122.202734 
L 218.43726 120.749364 
L 222.009603 120.151596 
L 225.581946 119.241752 
L 229.154289 119.104508 
L 232.726633 120.030501 
L 236.298976 118.179736 
L 239.871319 118.309295 
L 243.443662 113.767079 
L 247.016005 117.667688 
L 250.588348 115.990319 
L 254.160691 116.212417 
L 254.160691 104.216137 
L 254.160691 104.216137 
L 250.588348 107.114419 
L 247.016005 107.444189 
L 243.443662 103.316244 
L 239.871319 108.140674 
L 236.298976 107.601187 
L 232.726633 107.757561 
L 229.154289 111.359738 
L 225.581946 107.208217 
L 222.009603 108.305511 
L 218.43726 109.045836 
L 214.864917 110.937697 
L 211.292574 110.863679 
L 207.72023 109.510535 
L 204.147887 108.36797 
L 200.575544 111.158362 
L 197.003201 107.555723 
L 193.430858 107.846544 
L 189.858515 110.152036 
L 186.286172 111.73986 
L 182.713828 111.756592 
L 179.141485 112.705062 
L 175.569142 115.212479 
L 171.996799 111.022767 
L 168.424456 114.25183 
L 164.852113 113.529734 
L 161.27977 114.235529 
L 157.707426 115.043396 
L 154.135083 114.135282 
L 150.56274 119.897559 
L 146.990397 117.804771 
L 143.418054 116.494576 
L 139.845711 120.269312 
L 136.273367 117.254039 
L 132.701024 119.336008 
L 129.128681 119.411273 
L 125.556338 120.800117 
L 121.983995 119.9322 
L 118.411652 120.404574 
L 114.839309 123.117046 
L 111.266965 129.022372 
L 107.694622 128.544586 
L 104.122279 129.884674 
L 100.549936 131.831641 
L 96.977593 136.455068 
L 93.40525 133.620863 
L 89.832907 145.038213 
L 86.260563 144.170228 
L 82.68822 154.018244 
L 79.115877 166.362137 
L 75.543534 166.258848 
L 71.971191 184.486369 
L 68.398848 206.319992 
L 64.826504 237.19645 
L 61.254161 275.759096 
L 57.681818 362.548855 
z
" clip-path="url(#pde23398121)" style="fill: #ff7f0e; fill-opacity: 0.2"/>
   </g>
   <g id="PolyCollection_3">
    <path d="M 57.681818 563.058079 
L 57.681818 575.970844 
L 61.254161 494.057258 
L 64.826504 439.737001 
L 68.398848 405.387329 
L 71.971191 388.858925 
L 75.543534 370.177838 
L 79.115877 353.295356 
L 82.68822 353.343752 
L 86.260563 334.3268 
L 89.832907 323.48403 
L 93.40525 315.682159 
L 96.977593 320.652788 
L 100.549936 315.298893 
L 104.122279 318.966321 
L 107.694622 308.917182 
L 111.266965 305.000611 
L 114.839309 287.472736 
L 118.411652 296.699406 
L 121.983995 287.598285 
L 125.556338 291.505577 
L 129.128681 287.147069 
L 132.701024 280.518571 
L 136.273367 282.28362 
L 139.845711 278.624172 
L 143.418054 271.348464 
L 146.990397 266.771077 
L 150.56274 273.264061 
L 154.135083 260.298884 
L 157.707426 267.072064 
L 161.27977 262.320368 
L 164.852113 260.932384 
L 168.424456 259.213643 
L 171.996799 262.026678 
L 175.569142 255.953237 
L 179.141485 262.129407 
L 182.713828 257.614758 
L 186.286172 258.004403 
L 189.858515 260.878777 
L 193.430858 254.32465 
L 197.003201 252.222957 
L 200.575544 248.923779 
L 204.147887 252.803809 
L 207.72023 249.221272 
L 211.292574 257.36525 
L 214.864917 246.464064 
L 218.43726 251.745338 
L 222.009603 242.698263 
L 225.581946 247.661226 
L 229.154289 250.13714 
L 232.726633 254.939867 
L 236.298976 257.074308 
L 239.871319 241.56598 
L 243.443662 249.153681 
L 247.016005 242.071616 
L 247.016005 235.939707 
L 247.016005 235.939707 
L 243.443662 241.569519 
L 239.871319 234.438205 
L 236.298976 244.353631 
L 232.726633 239.128564 
L 229.154289 237.909875 
L 225.581946 239.716743 
L 222.009603 233.974968 
L 218.43726 241.654046 
L 214.864917 239.575813 
L 211.292574 247.407919 
L 207.72023 238.156697 
L 204.147887 245.278899 
L 200.575544 243.80656 
L 197.003201 244.521658 
L 193.430858 247.103289 
L 189.858515 249.915807 
L 186.286172 250.783043 
L 182.713828 247.827457 
L 179.141485 251.341362 
L 175.569142 248.150886 
L 171.996799 247.429814 
L 168.424456 245.559527 
L 164.852113 251.869339 
L 161.27977 255.833725 
L 157.707426 253.758213 
L 154.135083 249.826655 
L 150.56274 264.961416 
L 146.990397 260.749662 
L 143.418054 263.531782 
L 139.845711 264.953674 
L 136.273367 265.97755 
L 132.701024 271.756875 
L 129.128681 268.473608 
L 125.556338 272.143654 
L 121.983995 272.036669 
L 118.411652 279.661702 
L 114.839309 278.852679 
L 111.266965 294.777112 
L 107.694622 294.205772 
L 104.122279 301.551833 
L 100.549936 302.543076 
L 96.977593 299.19632 
L 93.40525 302.159811 
L 89.832907 311.084093 
L 86.260563 315.629384 
L 82.68822 327.388555 
L 79.115877 331.451229 
L 75.543534 348.6901 
L 71.971191 367.475598 
L 68.398848 380.385225 
L 64.826504 410.93303 
L 61.254161 467.674434 
L 57.681818 563.058079 
z
" clip-path="url(#pde23398121)" style="fill: #2ca02c; fill-opacity: 0.2"/>
   </g>
   <g id="PolyCollection_4">
    <path d="M 57.681818 363.988101 
L 57.681818 389.670237 
L 61.254161 300.665214 
L 64.826504 269.561643 
L 68.398848 233.590956 
L 71.971191 209.306662 
L 75.543534 199.768413 
L 79.115877 190.310767 
L 82.68822 173.648958 
L 86.260563 167.333633 
L 89.832907 164.51175 
L 93.40525 159.835553 
L 96.977593 153.374442 
L 100.549936 152.450832 
L 104.122279 148.482405 
L 107.694622 147.892482 
L 111.266965 144.769916 
L 114.839309 142.335761 
L 118.411652 139.568148 
L 121.983995 137.191844 
L 125.556338 140.167767 
L 129.128681 134.327767 
L 132.701024 135.91531 
L 136.273367 131.75721 
L 139.845711 133.931279 
L 143.418054 133.686454 
L 146.990397 134.925383 
L 150.56274 133.151265 
L 154.135083 131.337346 
L 157.707426 134.315412 
L 161.27977 129.476138 
L 164.852113 128.486512 
L 168.424456 129.285308 
L 171.996799 128.21204 
L 175.569142 127.416887 
L 179.141485 128.733702 
L 182.713828 126.715335 
L 186.286172 130.150487 
L 189.858515 129.123026 
L 193.430858 129.422618 
L 197.003201 127.056507 
L 200.575544 127.397343 
L 204.147887 128.094517 
L 207.72023 125.154258 
L 207.72023 109.993312 
L 207.72023 109.993312 
L 204.147887 113.074468 
L 200.575544 113.102596 
L 197.003201 113.443432 
L 193.430858 113.753505 
L 189.858515 112.045959 
L 186.286172 117.039913 
L 182.713828 111.777465 
L 179.141485 113.773375 
L 175.569142 113.083051 
L 171.996799 112.287898 
L 168.424456 111.883676 
L 164.852113 114.020565 
L 161.27977 111.692846 
L 157.707426 116.220218 
L 154.135083 113.845915 
L 150.56274 116.715319 
L 146.990397 118.286432 
L 143.418054 117.518223 
L 139.845711 115.935306 
L 136.273367 112.757006 
L 132.701024 121.310782 
L 129.128681 118.215002 
L 125.556338 121.741648 
L 121.983995 122.710433 
L 118.411652 126.355545 
L 114.839309 126.933162 
L 111.266965 127.844238 
L 107.694622 132.081179 
L 104.122279 134.836487 
L 100.549936 136.220429 
L 96.977593 136.634912 
L 93.40525 142.216632 
L 89.832907 148.914219 
L 86.260563 152.113752 
L 82.68822 157.172211 
L 79.115877 165.934156 
L 75.543534 179.893125 
L 71.971191 186.411984 
L 68.398848 207.622828 
L 64.826504 247.923403 
L 61.254161 284.393494 
L 57.681818 363.988101 
z
" clip-path="url(#pde23398121)" style="fill: #d62728; fill-opacity: 0.2"/>
   </g>
   <g id="PolyCollection_5">
    <path d="M 57.681818 373.873198 
L 57.681818 389.151787 
L 61.254161 330.576818 
L 64.826504 306.58977 
L 68.398848 296.900124 
L 71.971191 279.262318 
L 75.543534 264.195429 
L 79.115877 262.59973 
L 82.68822 257.015833 
L 86.260563 252.434819 
L 89.832907 248.555371 
L 93.40525 240.750241 
L 96.977593 239.244491 
L 100.549936 241.919492 
L 104.122279 233.794211 
L 107.694622 233.903424 
L 111.266965 233.105931 
L 114.839309 234.713827 
L 118.411652 234.452639 
L 121.983995 228.005277 
L 125.556338 226.183238 
L 129.128681 227.453304 
L 132.701024 224.478721 
L 136.273367 225.256079 
L 139.845711 225.670215 
L 143.418054 221.446544 
L 146.990397 216.079907 
L 150.56274 220.741908 
L 154.135083 216.592615 
L 154.135083 211.240246 
L 154.135083 211.240246 
L 150.56274 207.759999 
L 146.990397 208.407724 
L 143.418054 213.076779 
L 139.845711 210.860247 
L 136.273367 207.260106 
L 132.701024 212.05174 
L 129.128681 215.098573 
L 125.556338 219.71387 
L 121.983995 217.891831 
L 118.411652 226.163484 
L 114.839309 221.888019 
L 111.266965 221.488777 
L 107.694622 224.70556 
L 104.122279 222.138589 
L 100.549936 228.732323 
L 96.977593 229.400186 
L 93.40525 230.570621 
L 89.832907 236.146414 
L 86.260563 239.626473 
L 82.68822 247.757336 
L 79.115877 248.863901 
L 75.543534 257.97294 
L 71.971191 260.970297 
L 68.398848 284.144307 
L 64.826504 290.511768 
L 61.254161 316.703182 
L 57.681818 373.873198 
z
" clip-path="url(#pde23398121)" style="fill: #9467bd; fill-opacity: 0.2"/>
   </g>
   <g id="PolyCollection_6">
    <path d="M 57.681818 369.444251 
L 57.681818 384.883134 
L 61.254161 298.711246 
L 64.826504 255.912548 
L 68.398848 238.47147 
L 71.971191 226.787951 
L 75.543534 209.015363 
L 79.115877 202.140766 
L 82.68822 196.008522 
L 86.260563 189.009922 
L 89.832907 183.798191 
L 93.40525 182.922356 
L 96.977593 179.700674 
L 100.549936 177.589715 
L 104.122279 172.404022 
L 107.694622 170.08193 
L 111.266965 171.215946 
L 114.839309 168.348477 
L 118.411652 166.271384 
L 121.983995 165.623612 
L 125.556338 171.215946 
L 129.128681 162.500623 
L 132.701024 159.894298 
L 136.273367 165.374464 
L 139.845711 160.158752 
L 143.418054 161.120778 
L 146.990397 158.488173 
L 150.56274 166.572113 
L 154.135083 157.602901 
L 157.707426 158.486137 
L 161.27977 155.145533 
L 164.852113 160.05124 
L 168.424456 156.874665 
L 171.996799 155.564086 
L 175.569142 166.443927 
L 179.141485 162.519575 
L 182.713828 163.239529 
L 186.286172 160.803786 
L 186.286172 151.953137 
L 186.286172 151.953137 
L 182.713828 154.869764 
L 179.141485 154.920671 
L 175.569142 157.017734 
L 171.996799 149.164283 
L 168.424456 151.867982 
L 164.852113 152.036637 
L 161.27977 150.251882 
L 157.707426 152.263648 
L 154.135083 151.808791 
L 150.56274 157.558594 
L 146.990397 152.930658 
L 143.418054 156.319468 
L 139.845711 153.936263 
L 136.273367 160.763382 
L 132.701024 151.524533 
L 129.128681 159.622946 
L 125.556338 164.957592 
L 121.983995 162.521373 
L 118.411652 160.535508 
L 114.839309 163.810785 
L 111.266965 164.957592 
L 107.694622 165.422563 
L 104.122279 167.114747 
L 100.549936 171.295701 
L 96.977593 173.868065 
L 93.40525 178.005891 
L 89.832907 173.784825 
L 86.260563 179.946878 
L 82.68822 188.336339 
L 79.115877 192.239787 
L 75.543534 200.753252 
L 71.971191 223.123434 
L 68.398848 234.187484 
L 64.826504 245.51539 
L 61.254161 286.347462 
L 57.681818 369.444251 
z
" clip-path="url(#pde23398121)" style="fill: #8c564b; fill-opacity: 0.2"/>
   </g>
   <g id="PolyCollection_7">
    <path d="M 57.681818 428.39841 
L 57.681818 451.709652 
L 61.254161 367.567687 
L 64.826504 340.637582 
L 68.398848 321.033855 
L 71.971191 308.452188 
L 75.543534 296.904225 
L 79.115877 288.219431 
L 82.68822 281.850687 
L 86.260563 270.924582 
L 89.832907 265.421007 
L 93.40525 263.86894 
L 96.977593 260.424416 
L 100.549936 258.292134 
L 104.122279 255.945302 
L 107.694622 254.693247 
L 111.266965 251.20483 
L 114.839309 253.417954 
L 118.411652 249.251681 
L 121.983995 250.362692 
L 125.556338 247.158025 
L 129.128681 243.849462 
L 132.701024 243.067486 
L 136.273367 243.230116 
L 139.845711 243.845515 
L 143.418054 242.577588 
L 146.990397 243.179592 
L 150.56274 242.055246 
L 154.135083 241.796901 
L 157.707426 242.729519 
L 161.27977 239.070917 
L 164.852113 241.912105 
L 168.424456 243.329811 
L 171.996799 242.036013 
L 175.569142 239.210807 
L 179.141485 240.467563 
L 182.713828 239.402425 
L 186.286172 240.857474 
L 189.858515 243.58472 
L 193.430858 243.044483 
L 197.003201 240.908536 
L 200.575544 242.226697 
L 204.147887 241.759684 
L 207.72023 241.810962 
L 211.292574 241.204875 
L 214.864917 242.148866 
L 218.43726 239.093301 
L 222.009603 239.262777 
L 225.581946 241.069991 
L 229.154289 240.639096 
L 232.726633 239.384986 
L 236.298976 243.609721 
L 239.871319 238.703186 
L 243.443662 240.31857 
L 243.443662 233.678476 
L 243.443662 233.678476 
L 239.871319 229.941491 
L 236.298976 232.394464 
L 232.726633 230.597783 
L 229.154289 230.681765 
L 225.581946 230.250871 
L 222.009603 231.389039 
L 218.43726 226.875192 
L 214.864917 228.502949 
L 211.292574 228.777894 
L 207.72023 230.847992 
L 204.147887 230.89927 
L 200.575544 232.439395 
L 197.003201 229.74328 
L 193.430858 231.62161 
L 189.858515 232.419464 
L 186.286172 229.125296 
L 182.713828 231.24939 
L 179.141485 230.853298 
L 175.569142 228.095778 
L 171.996799 230.622941 
L 168.424456 232.005328 
L 164.852113 230.746849 
L 161.27977 229.57376 
L 157.707426 231.267527 
L 154.135083 229.523961 
L 150.56274 231.9418 
L 146.990397 232.155547 
L 143.418054 230.750412 
L 139.845711 230.820577 
L 136.273367 232.105023 
L 132.701024 233.605745 
L 129.128681 231.485677 
L 125.556338 237.54376 
L 121.983995 240.360508 
L 118.411652 239.46438 
L 114.839309 243.326662 
L 111.266965 243.532647 
L 107.694622 246.734691 
L 104.122279 246.820729 
L 100.549936 251.164358 
L 96.977593 254.384445 
L 93.40525 259.637521 
L 89.832907 260.761639 
L 86.260563 265.962803 
L 82.68822 271.093806 
L 79.115877 278.105984 
L 75.543534 286.147344 
L 71.971191 294.00172 
L 68.398848 308.181898 
L 64.826504 330.059033 
L 61.254161 362.674036 
L 57.681818 428.39841 
z
" clip-path="url(#pde23398121)" style="fill: #e377c2; fill-opacity: 0.2"/>
   </g>
   <g id="PolyCollection_8">
    <path d="M 57.681818 391.656334 
L 57.681818 410.173327 
L 61.254161 316.660353 
L 64.826504 279.775473 
L 68.398848 257.364493 
L 71.971191 238.759786 
L 75.543534 220.911822 
L 79.115877 200.13617 
L 82.68822 200.53086 
L 86.260563 188.663573 
L 89.832907 182.097558 
L 93.40525 173.104615 
L 96.977593 171.810627 
L 100.549936 169.350058 
L 104.122279 164.830302 
L 107.694622 160.513297 
L 111.266965 154.492518 
L 114.839309 150.704102 
L 118.411652 150.59206 
L 121.983995 146.528364 
L 125.556338 149.447906 
L 129.128681 145.708494 
L 132.701024 138.309294 
L 136.273367 138.736378 
L 139.845711 141.783927 
L 143.418054 137.231382 
L 146.990397 134.879377 
L 150.56274 136.081216 
L 154.135083 131.057919 
L 157.707426 131.747563 
L 161.27977 130.357625 
L 164.852113 125.416853 
L 168.424456 124.787661 
L 171.996799 128.886863 
L 175.569142 123.784394 
L 179.141485 125.863177 
L 182.713828 128.37906 
L 186.286172 127.592723 
L 189.858515 124.568805 
L 193.430858 119.782415 
L 197.003201 120.307487 
L 200.575544 120.086342 
L 204.147887 122.345871 
L 207.72023 119.883161 
L 211.292574 119.615619 
L 214.864917 121.498454 
L 218.43726 116.439591 
L 222.009603 117.46576 
L 225.581946 114.15948 
L 229.154289 115.116257 
L 232.726633 116.324456 
L 236.298976 115.476168 
L 239.871319 117.552836 
L 243.443662 116.049512 
L 247.016005 114.563077 
L 250.588348 111.900807 
L 254.160691 113.017275 
L 257.733035 113.816623 
L 261.305378 112.590635 
L 264.877721 111.489274 
L 268.450064 112.234263 
L 272.022407 115.22096 
L 275.59475 112.03864 
L 279.167093 111.922598 
L 282.739437 113.359381 
L 286.31178 108.396332 
L 289.884123 108.445968 
L 293.456466 106.121013 
L 297.028809 109.507018 
L 300.601152 108.200163 
L 304.173496 111.872115 
L 307.745839 107.630579 
L 311.318182 105.514186 
L 311.318182 98.85726 
L 311.318182 98.85726 
L 307.745839 102.093237 
L 304.173496 100.527885 
L 300.601152 100.18556 
L 297.028809 102.223935 
L 293.456466 95.574248 
L 289.884123 98.601663 
L 286.31178 101.996529 
L 282.739437 105.731081 
L 279.167093 102.484541 
L 275.59475 103.037545 
L 272.022407 105.207594 
L 268.450064 103.510968 
L 264.877721 100.910726 
L 261.305378 104.492688 
L 257.733035 105.942885 
L 254.160691 104.066048 
L 250.588348 103.844424 
L 247.016005 109.210708 
L 243.443662 105.717134 
L 239.871319 106.889995 
L 236.298976 106.290478 
L 232.726633 106.780283 
L 229.154289 107.988482 
L 225.581946 106.93812 
L 222.009603 110.322302 
L 218.43726 108.00324 
L 214.864917 110.972931 
L 211.292574 111.517673 
L 207.72023 111.250132 
L 204.147887 112.801698 
L 200.575544 112.385043 
L 197.003201 111.494851 
L 193.430858 114.027062 
L 189.858515 115.262087 
L 186.286172 117.590539 
L 182.713828 122.156571 
L 179.141485 115.305807 
L 175.569142 117.384591 
L 171.996799 116.965444 
L 168.424456 115.712277 
L 164.852113 117.75927 
L 161.27977 120.178005 
L 157.707426 122.133298 
L 154.135083 122.822942 
L 150.56274 125.159153 
L 146.990397 124.353854 
L 143.418054 126.016125 
L 139.845711 125.477857 
L 136.273367 126.518269 
L 132.701024 126.945352 
L 129.128681 129.581845 
L 125.556338 134.540032 
L 121.983995 132.776251 
L 118.411652 136.072063 
L 114.839309 137.298113 
L 111.266965 144.214436 
L 107.694622 151.57458 
L 104.122279 155.286129 
L 100.549936 157.456834 
L 96.977593 160.348634 
L 93.40525 164.407015 
L 89.832907 172.140227 
L 86.260563 180.962273 
L 82.68822 188.497325 
L 79.115877 191.568199 
L 75.543534 209.597225 
L 71.971191 217.84206 
L 68.398848 243.394399 
L 64.826504 270.492835 
L 61.254161 309.21017 
L 57.681818 391.656334 
z
" clip-path="url(#pde23398121)" style="fill: #7f7f7f; fill-opacity: 0.2"/>
   </g>
   <g id="matplotlib.axis_1">
    <g id="xtick_1">
     <g id="line2d_1">
      <path d="M 54.109475 378 
L 54.109475 51.84 
" clip-path="url(#pde23398121)" style="fill: none; stroke: #b0b0b0; stroke-width: 0.8; stroke-linecap: square"/>
     </g>
     <g id="line2d_2">
      <defs>
       <path id="m5b0a033b77" d="M 0 0 
L 0 3.5 
" style="stroke: #000000; stroke-width: 0.8"/>
      </defs>
      <g>
       <use xlink:href="#m5b0a033b77" x="54.109475" y="378" style="stroke: #000000; stroke-width: 0.8"/>
      </g>
     </g>
     <g id="text_1">
      <!-- 0 -->
      <g transform="translate(50.928225 392.598437)scale(0.1 -0.1)">
       <defs>
        <path id="DejaVuSans-30" d="M 2034 4250 
Q 1547 4250 1301 3770 
Q 1056 3291 1056 2328 
Q 1056 1369 1301 889 
Q 1547 409 2034 409 
Q 2525 409 2770 889 
Q 3016 1369 3016 2328 
Q 3016 3291 2770 3770 
Q 2525 4250 2034 4250 
z
M 2034 4750 
Q 2819 4750 3233 4129 
Q 3647 3509 3647 2328 
Q 3647 1150 3233 529 
Q 2819 -91 2034 -91 
Q 1250 -91 836 529 
Q 422 1150 422 2328 
Q 422 3509 836 4129 
Q 1250 4750 2034 4750 
z
" transform="scale(0.015625)"/>
       </defs>
       <use xlink:href="#DejaVuSans-30"/>
      </g>
     </g>
    </g>
    <g id="xtick_2">
     <g id="line2d_3">
      <path d="M 89.832907 378 
L 89.832907 51.84 
" clip-path="url(#pde23398121)" style="fill: none; stroke: #b0b0b0; stroke-width: 0.8; stroke-linecap: square"/>
     </g>
     <g id="line2d_4">
      <g>
       <use xlink:href="#m5b0a033b77" x="89.832907" y="378" style="stroke: #000000; stroke-width: 0.8"/>
      </g>
     </g>
     <g id="text_2">
      <!-- 10 -->
      <g transform="translate(83.470407 392.598437)scale(0.1 -0.1)">
       <defs>
        <path id="DejaVuSans-31" d="M 794 531 
L 1825 531 
L 1825 4091 
L 703 3866 
L 703 4441 
L 1819 4666 
L 2450 4666 
L 2450 531 
L 3481 531 
L 3481 0 
L 794 0 
L 794 531 
z
" transform="scale(0.015625)"/>
       </defs>
       <use xlink:href="#DejaVuSans-31"/>
       <use xlink:href="#DejaVuSans-30" x="63.623047"/>
      </g>
     </g>
    </g>
    <g id="xtick_3">
     <g id="line2d_5">
      <path d="M 125.556338 378 
L 125.556338 51.84 
" clip-path="url(#pde23398121)" style="fill: none; stroke: #b0b0b0; stroke-width: 0.8; stroke-linecap: square"/>
     </g>
     <g id="line2d_6">
      <g>
       <use xlink:href="#m5b0a033b77" x="125.556338" y="378" style="stroke: #000000; stroke-width: 0.8"/>
      </g>
     </g>
     <g id="text_3">
      <!-- 20 -->
      <g transform="translate(119.193838 392.598437)scale(0.1 -0.1)">
       <defs>
        <path id="DejaVuSans-32" d="M 1228 531 
L 3431 531 
L 3431 0 
L 469 0 
L 469 531 
Q 828 903 1448 1529 
Q 2069 2156 2228 2338 
Q 2531 2678 2651 2914 
Q 2772 3150 2772 3378 
Q 2772 3750 2511 3984 
Q 2250 4219 1831 4219 
Q 1534 4219 1204 4116 
Q 875 4013 500 3803 
L 500 4441 
Q 881 4594 1212 4672 
Q 1544 4750 1819 4750 
Q 2544 4750 2975 4387 
Q 3406 4025 3406 3419 
Q 3406 3131 3298 2873 
Q 3191 2616 2906 2266 
Q 2828 2175 2409 1742 
Q 1991 1309 1228 531 
z
" transform="scale(0.015625)"/>
       </defs>
       <use xlink:href="#DejaVuSans-32"/>
       <use xlink:href="#DejaVuSans-30" x="63.623047"/>
      </g>
     </g>
    </g>
    <g id="xtick_4">
     <g id="line2d_7">
      <path d="M 161.27977 378 
L 161.27977 51.84 
" clip-path="url(#pde23398121)" style="fill: none; stroke: #b0b0b0; stroke-width: 0.8; stroke-linecap: square"/>
     </g>
     <g id="line2d_8">
      <g>
       <use xlink:href="#m5b0a033b77" x="161.27977" y="378" style="stroke: #000000; stroke-width: 0.8"/>
      </g>
     </g>
     <g id="text_4">
      <!-- 30 -->
      <g transform="translate(154.91727 392.598437)scale(0.1 -0.1)">
       <defs>
        <path id="DejaVuSans-33" d="M 2597 2516 
Q 3050 2419 3304 2112 
Q 3559 1806 3559 1356 
Q 3559 666 3084 287 
Q 2609 -91 1734 -91 
Q 1441 -91 1130 -33 
Q 819 25 488 141 
L 488 750 
Q 750 597 1062 519 
Q 1375 441 1716 441 
Q 2309 441 2620 675 
Q 2931 909 2931 1356 
Q 2931 1769 2642 2001 
Q 2353 2234 1838 2234 
L 1294 2234 
L 1294 2753 
L 1863 2753 
Q 2328 2753 2575 2939 
Q 2822 3125 2822 3475 
Q 2822 3834 2567 4026 
Q 2313 4219 1838 4219 
Q 1578 4219 1281 4162 
Q 984 4106 628 3988 
L 628 4550 
Q 988 4650 1302 4700 
Q 1616 4750 1894 4750 
Q 2613 4750 3031 4423 
Q 3450 4097 3450 3541 
Q 3450 3153 3228 2886 
Q 3006 2619 2597 2516 
z
" transform="scale(0.015625)"/>
       </defs>
       <use xlink:href="#DejaVuSans-33"/>
       <use xlink:href="#DejaVuSans-30" x="63.623047"/>
      </g>
     </g>
    </g>
    <g id="xtick_5">
     <g id="line2d_9">
      <path d="M 197.003201 378 
L 197.003201 51.84 
" clip-path="url(#pde23398121)" style="fill: none; stroke: #b0b0b0; stroke-width: 0.8; stroke-linecap: square"/>
     </g>
     <g id="line2d_10">
      <g>
       <use xlink:href="#m5b0a033b77" x="197.003201" y="378" style="stroke: #000000; stroke-width: 0.8"/>
      </g>
     </g>
     <g id="text_5">
      <!-- 40 -->
      <g transform="translate(190.640701 392.598437)scale(0.1 -0.1)">
       <defs>
        <path id="DejaVuSans-34" d="M 2419 4116 
L 825 1625 
L 2419 1625 
L 2419 4116 
z
M 2253 4666 
L 3047 4666 
L 3047 1625 
L 3713 1625 
L 3713 1100 
L 3047 1100 
L 3047 0 
L 2419 0 
L 2419 1100 
L 313 1100 
L 313 1709 
L 2253 4666 
z
" transform="scale(0.015625)"/>
       </defs>
       <use xlink:href="#DejaVuSans-34"/>
       <use xlink:href="#DejaVuSans-30" x="63.623047"/>
      </g>
     </g>
    </g>
    <g id="xtick_6">
     <g id="line2d_11">
      <path d="M 232.726633 378 
L 232.726633 51.84 
" clip-path="url(#pde23398121)" style="fill: none; stroke: #b0b0b0; stroke-width: 0.8; stroke-linecap: square"/>
     </g>
     <g id="line2d_12">
      <g>
       <use xlink:href="#m5b0a033b77" x="232.726633" y="378" style="stroke: #000000; stroke-width: 0.8"/>
      </g>
     </g>
     <g id="text_6">
      <!-- 50 -->
      <g transform="translate(226.364133 392.598437)scale(0.1 -0.1)">
       <defs>
        <path id="DejaVuSans-35" d="M 691 4666 
L 3169 4666 
L 3169 4134 
L 1269 4134 
L 1269 2991 
Q 1406 3038 1543 3061 
Q 1681 3084 1819 3084 
Q 2600 3084 3056 2656 
Q 3513 2228 3513 1497 
Q 3513 744 3044 326 
Q 2575 -91 1722 -91 
Q 1428 -91 1123 -41 
Q 819 9 494 109 
L 494 744 
Q 775 591 1075 516 
Q 1375 441 1709 441 
Q 2250 441 2565 725 
Q 2881 1009 2881 1497 
Q 2881 1984 2565 2268 
Q 2250 2553 1709 2553 
Q 1456 2553 1204 2497 
Q 953 2441 691 2322 
L 691 4666 
z
" transform="scale(0.015625)"/>
       </defs>
       <use xlink:href="#DejaVuSans-35"/>
       <use xlink:href="#DejaVuSans-30" x="63.623047"/>
      </g>
     </g>
    </g>
    <g id="xtick_7">
     <g id="line2d_13">
      <path d="M 268.450064 378 
L 268.450064 51.84 
" clip-path="url(#pde23398121)" style="fill: none; stroke: #b0b0b0; stroke-width: 0.8; stroke-linecap: square"/>
     </g>
     <g id="line2d_14">
      <g>
       <use xlink:href="#m5b0a033b77" x="268.450064" y="378" style="stroke: #000000; stroke-width: 0.8"/>
      </g>
     </g>
     <g id="text_7">
      <!-- 60 -->
      <g transform="translate(262.087564 392.598437)scale(0.1 -0.1)">
       <defs>
        <path id="DejaVuSans-36" d="M 2113 2584 
Q 1688 2584 1439 2293 
Q 1191 2003 1191 1497 
Q 1191 994 1439 701 
Q 1688 409 2113 409 
Q 2538 409 2786 701 
Q 3034 994 3034 1497 
Q 3034 2003 2786 2293 
Q 2538 2584 2113 2584 
z
M 3366 4563 
L 3366 3988 
Q 3128 4100 2886 4159 
Q 2644 4219 2406 4219 
Q 1781 4219 1451 3797 
Q 1122 3375 1075 2522 
Q 1259 2794 1537 2939 
Q 1816 3084 2150 3084 
Q 2853 3084 3261 2657 
Q 3669 2231 3669 1497 
Q 3669 778 3244 343 
Q 2819 -91 2113 -91 
Q 1303 -91 875 529 
Q 447 1150 447 2328 
Q 447 3434 972 4092 
Q 1497 4750 2381 4750 
Q 2619 4750 2861 4703 
Q 3103 4656 3366 4563 
z
" transform="scale(0.015625)"/>
       </defs>
       <use xlink:href="#DejaVuSans-36"/>
       <use xlink:href="#DejaVuSans-30" x="63.623047"/>
      </g>
     </g>
    </g>
    <g id="xtick_8">
     <g id="line2d_15">
      <path d="M 304.173496 378 
L 304.173496 51.84 
" clip-path="url(#pde23398121)" style="fill: none; stroke: #b0b0b0; stroke-width: 0.8; stroke-linecap: square"/>
     </g>
     <g id="line2d_16">
      <g>
       <use xlink:href="#m5b0a033b77" x="304.173496" y="378" style="stroke: #000000; stroke-width: 0.8"/>
      </g>
     </g>
     <g id="text_8">
      <!-- 70 -->
      <g transform="translate(297.810996 392.598437)scale(0.1 -0.1)">
       <defs>
        <path id="DejaVuSans-37" d="M 525 4666 
L 3525 4666 
L 3525 4397 
L 1831 0 
L 1172 0 
L 2766 4134 
L 525 4134 
L 525 4666 
z
" transform="scale(0.015625)"/>
       </defs>
       <use xlink:href="#DejaVuSans-37"/>
       <use xlink:href="#DejaVuSans-30" x="63.623047"/>
      </g>
     </g>
    </g>
    <g id="text_9">
     <!-- Epochs -->
     <g transform="translate(166.584375 406.276563)scale(0.1 -0.1)">
      <defs>
       <path id="DejaVuSans-45" d="M 628 4666 
L 3578 4666 
L 3578 4134 
L 1259 4134 
L 1259 2753 
L 3481 2753 
L 3481 2222 
L 1259 2222 
L 1259 531 
L 3634 531 
L 3634 0 
L 628 0 
L 628 4666 
z
" transform="scale(0.015625)"/>
       <path id="DejaVuSans-70" d="M 1159 525 
L 1159 -1331 
L 581 -1331 
L 581 3500 
L 1159 3500 
L 1159 2969 
Q 1341 3281 1617 3432 
Q 1894 3584 2278 3584 
Q 2916 3584 3314 3078 
Q 3713 2572 3713 1747 
Q 3713 922 3314 415 
Q 2916 -91 2278 -91 
Q 1894 -91 1617 61 
Q 1341 213 1159 525 
z
M 3116 1747 
Q 3116 2381 2855 2742 
Q 2594 3103 2138 3103 
Q 1681 3103 1420 2742 
Q 1159 2381 1159 1747 
Q 1159 1113 1420 752 
Q 1681 391 2138 391 
Q 2594 391 2855 752 
Q 3116 1113 3116 1747 
z
" transform="scale(0.015625)"/>
       <path id="DejaVuSans-6f" d="M 1959 3097 
Q 1497 3097 1228 2736 
Q 959 2375 959 1747 
Q 959 1119 1226 758 
Q 1494 397 1959 397 
Q 2419 397 2687 759 
Q 2956 1122 2956 1747 
Q 2956 2369 2687 2733 
Q 2419 3097 1959 3097 
z
M 1959 3584 
Q 2709 3584 3137 3096 
Q 3566 2609 3566 1747 
Q 3566 888 3137 398 
Q 2709 -91 1959 -91 
Q 1206 -91 779 398 
Q 353 888 353 1747 
Q 353 2609 779 3096 
Q 1206 3584 1959 3584 
z
" transform="scale(0.015625)"/>
       <path id="DejaVuSans-63" d="M 3122 3366 
L 3122 2828 
Q 2878 2963 2633 3030 
Q 2388 3097 2138 3097 
Q 1578 3097 1268 2742 
Q 959 2388 959 1747 
Q 959 1106 1268 751 
Q 1578 397 2138 397 
Q 2388 397 2633 464 
Q 2878 531 3122 666 
L 3122 134 
Q 2881 22 2623 -34 
Q 2366 -91 2075 -91 
Q 1284 -91 818 406 
Q 353 903 353 1747 
Q 353 2603 823 3093 
Q 1294 3584 2113 3584 
Q 2378 3584 2631 3529 
Q 2884 3475 3122 3366 
z
" transform="scale(0.015625)"/>
       <path id="DejaVuSans-68" d="M 3513 2113 
L 3513 0 
L 2938 0 
L 2938 2094 
Q 2938 2591 2744 2837 
Q 2550 3084 2163 3084 
Q 1697 3084 1428 2787 
Q 1159 2491 1159 1978 
L 1159 0 
L 581 0 
L 581 4863 
L 1159 4863 
L 1159 2956 
Q 1366 3272 1645 3428 
Q 1925 3584 2291 3584 
Q 2894 3584 3203 3211 
Q 3513 2838 3513 2113 
z
" transform="scale(0.015625)"/>
       <path id="DejaVuSans-73" d="M 2834 3397 
L 2834 2853 
Q 2591 2978 2328 3040 
Q 2066 3103 1784 3103 
Q 1356 3103 1142 2972 
Q 928 2841 928 2578 
Q 928 2378 1081 2264 
Q 1234 2150 1697 2047 
L 1894 2003 
Q 2506 1872 2764 1633 
Q 3022 1394 3022 966 
Q 3022 478 2636 193 
Q 2250 -91 1575 -91 
Q 1294 -91 989 -36 
Q 684 19 347 128 
L 347 722 
Q 666 556 975 473 
Q 1284 391 1588 391 
Q 1994 391 2212 530 
Q 2431 669 2431 922 
Q 2431 1156 2273 1281 
Q 2116 1406 1581 1522 
L 1381 1569 
Q 847 1681 609 1914 
Q 372 2147 372 2553 
Q 372 3047 722 3315 
Q 1072 3584 1716 3584 
Q 2034 3584 2315 3537 
Q 2597 3491 2834 3397 
z
" transform="scale(0.015625)"/>
      </defs>
      <use xlink:href="#DejaVuSans-45"/>
      <use xlink:href="#DejaVuSans-70" x="63.183594"/>
      <use xlink:href="#DejaVuSans-6f" x="126.660156"/>
      <use xlink:href="#DejaVuSans-63" x="187.841797"/>
      <use xlink:href="#DejaVuSans-68" x="242.822266"/>
      <use xlink:href="#DejaVuSans-73" x="306.201172"/>
     </g>
    </g>
   </g>
   <g id="matplotlib.axis_2">
    <g id="ytick_1">
     <g id="line2d_17">
      <path d="M 45 378 
L 324 378 
" clip-path="url(#pde23398121)" style="fill: none; stroke: #b0b0b0; stroke-width: 0.8; stroke-linecap: square"/>
     </g>
     <g id="line2d_18">
      <defs>
       <path id="m094b0c6912" d="M 0 0 
L -3.5 0 
" style="stroke: #000000; stroke-width: 0.8"/>
      </defs>
      <g>
       <use xlink:href="#m094b0c6912" x="45" y="378" style="stroke: #000000; stroke-width: 0.8"/>
      </g>
     </g>
     <g id="text_10">
      <!-- 0.65 -->
      <g transform="translate(15.734375 381.799219)scale(0.1 -0.1)">
       <defs>
        <path id="DejaVuSans-2e" d="M 684 794 
L 1344 794 
L 1344 0 
L 684 0 
L 684 794 
z
" transform="scale(0.015625)"/>
       </defs>
       <use xlink:href="#DejaVuSans-30"/>
       <use xlink:href="#DejaVuSans-2e" x="63.623047"/>
       <use xlink:href="#DejaVuSans-36" x="95.410156"/>
       <use xlink:href="#DejaVuSans-35" x="159.033203"/>
      </g>
     </g>
    </g>
    <g id="ytick_2">
     <g id="line2d_19">
      <path d="M 45 323.64 
L 324 323.64 
" clip-path="url(#pde23398121)" style="fill: none; stroke: #b0b0b0; stroke-width: 0.8; stroke-linecap: square"/>
     </g>
     <g id="line2d_20">
      <g>
       <use xlink:href="#m094b0c6912" x="45" y="323.64" style="stroke: #000000; stroke-width: 0.8"/>
      </g>
     </g>
     <g id="text_11">
      <!-- 0.70 -->
      <g transform="translate(15.734375 327.439219)scale(0.1 -0.1)">
       <use xlink:href="#DejaVuSans-30"/>
       <use xlink:href="#DejaVuSans-2e" x="63.623047"/>
       <use xlink:href="#DejaVuSans-37" x="95.410156"/>
       <use xlink:href="#DejaVuSans-30" x="159.033203"/>
      </g>
     </g>
    </g>
    <g id="ytick_3">
     <g id="line2d_21">
      <path d="M 45 269.28 
L 324 269.28 
" clip-path="url(#pde23398121)" style="fill: none; stroke: #b0b0b0; stroke-width: 0.8; stroke-linecap: square"/>
     </g>
     <g id="line2d_22">
      <g>
       <use xlink:href="#m094b0c6912" x="45" y="269.28" style="stroke: #000000; stroke-width: 0.8"/>
      </g>
     </g>
     <g id="text_12">
      <!-- 0.75 -->
      <g transform="translate(15.734375 273.079219)scale(0.1 -0.1)">
       <use xlink:href="#DejaVuSans-30"/>
       <use xlink:href="#DejaVuSans-2e" x="63.623047"/>
       <use xlink:href="#DejaVuSans-37" x="95.410156"/>
       <use xlink:href="#DejaVuSans-35" x="159.033203"/>
      </g>
     </g>
    </g>
    <g id="ytick_4">
     <g id="line2d_23">
      <path d="M 45 214.92 
L 324 214.92 
" clip-path="url(#pde23398121)" style="fill: none; stroke: #b0b0b0; stroke-width: 0.8; stroke-linecap: square"/>
     </g>
     <g id="line2d_24">
      <g>
       <use xlink:href="#m094b0c6912" x="45" y="214.92" style="stroke: #000000; stroke-width: 0.8"/>
      </g>
     </g>
     <g id="text_13">
      <!-- 0.80 -->
      <g transform="translate(15.734375 218.719219)scale(0.1 -0.1)">
       <defs>
        <path id="DejaVuSans-38" d="M 2034 2216 
Q 1584 2216 1326 1975 
Q 1069 1734 1069 1313 
Q 1069 891 1326 650 
Q 1584 409 2034 409 
Q 2484 409 2743 651 
Q 3003 894 3003 1313 
Q 3003 1734 2745 1975 
Q 2488 2216 2034 2216 
z
M 1403 2484 
Q 997 2584 770 2862 
Q 544 3141 544 3541 
Q 544 4100 942 4425 
Q 1341 4750 2034 4750 
Q 2731 4750 3128 4425 
Q 3525 4100 3525 3541 
Q 3525 3141 3298 2862 
Q 3072 2584 2669 2484 
Q 3125 2378 3379 2068 
Q 3634 1759 3634 1313 
Q 3634 634 3220 271 
Q 2806 -91 2034 -91 
Q 1263 -91 848 271 
Q 434 634 434 1313 
Q 434 1759 690 2068 
Q 947 2378 1403 2484 
z
M 1172 3481 
Q 1172 3119 1398 2916 
Q 1625 2713 2034 2713 
Q 2441 2713 2670 2916 
Q 2900 3119 2900 3481 
Q 2900 3844 2670 4047 
Q 2441 4250 2034 4250 
Q 1625 4250 1398 4047 
Q 1172 3844 1172 3481 
z
" transform="scale(0.015625)"/>
       </defs>
       <use xlink:href="#DejaVuSans-30"/>
       <use xlink:href="#DejaVuSans-2e" x="63.623047"/>
       <use xlink:href="#DejaVuSans-38" x="95.410156"/>
       <use xlink:href="#DejaVuSans-30" x="159.033203"/>
      </g>
     </g>
    </g>
    <g id="ytick_5">
     <g id="line2d_25">
      <path d="M 45 160.56 
L 324 160.56 
" clip-path="url(#pde23398121)" style="fill: none; stroke: #b0b0b0; stroke-width: 0.8; stroke-linecap: square"/>
     </g>
     <g id="line2d_26">
      <g>
       <use xlink:href="#m094b0c6912" x="45" y="160.56" style="stroke: #000000; stroke-width: 0.8"/>
      </g>
     </g>
     <g id="text_14">
      <!-- 0.85 -->
      <g transform="translate(15.734375 164.359219)scale(0.1 -0.1)">
       <use xlink:href="#DejaVuSans-30"/>
       <use xlink:href="#DejaVuSans-2e" x="63.623047"/>
       <use xlink:href="#DejaVuSans-38" x="95.410156"/>
       <use xlink:href="#DejaVuSans-35" x="159.033203"/>
      </g>
     </g>
    </g>
    <g id="ytick_6">
     <g id="line2d_27">
      <path d="M 45 106.2 
L 324 106.2 
" clip-path="url(#pde23398121)" style="fill: none; stroke: #b0b0b0; stroke-width: 0.8; stroke-linecap: square"/>
     </g>
     <g id="line2d_28">
      <g>
       <use xlink:href="#m094b0c6912" x="45" y="106.2" style="stroke: #000000; stroke-width: 0.8"/>
      </g>
     </g>
     <g id="text_15">
      <!-- 0.90 -->
      <g transform="translate(15.734375 109.999219)scale(0.1 -0.1)">
       <defs>
        <path id="DejaVuSans-39" d="M 703 97 
L 703 672 
Q 941 559 1184 500 
Q 1428 441 1663 441 
Q 2288 441 2617 861 
Q 2947 1281 2994 2138 
Q 2813 1869 2534 1725 
Q 2256 1581 1919 1581 
Q 1219 1581 811 2004 
Q 403 2428 403 3163 
Q 403 3881 828 4315 
Q 1253 4750 1959 4750 
Q 2769 4750 3195 4129 
Q 3622 3509 3622 2328 
Q 3622 1225 3098 567 
Q 2575 -91 1691 -91 
Q 1453 -91 1209 -44 
Q 966 3 703 97 
z
M 1959 2075 
Q 2384 2075 2632 2365 
Q 2881 2656 2881 3163 
Q 2881 3666 2632 3958 
Q 2384 4250 1959 4250 
Q 1534 4250 1286 3958 
Q 1038 3666 1038 3163 
Q 1038 2656 1286 2365 
Q 1534 2075 1959 2075 
z
" transform="scale(0.015625)"/>
       </defs>
       <use xlink:href="#DejaVuSans-30"/>
       <use xlink:href="#DejaVuSans-2e" x="63.623047"/>
       <use xlink:href="#DejaVuSans-39" x="95.410156"/>
       <use xlink:href="#DejaVuSans-30" x="159.033203"/>
      </g>
     </g>
    </g>
    <g id="ytick_7">
     <g id="line2d_29">
      <path d="M 45 51.84 
L 324 51.84 
" clip-path="url(#pde23398121)" style="fill: none; stroke: #b0b0b0; stroke-width: 0.8; stroke-linecap: square"/>
     </g>
     <g id="line2d_30">
      <g>
       <use xlink:href="#m094b0c6912" x="45" y="51.84" style="stroke: #000000; stroke-width: 0.8"/>
      </g>
     </g>
     <g id="text_16">
      <!-- 0.95 -->
      <g transform="translate(15.734375 55.639219)scale(0.1 -0.1)">
       <use xlink:href="#DejaVuSans-30"/>
       <use xlink:href="#DejaVuSans-2e" x="63.623047"/>
       <use xlink:href="#DejaVuSans-39" x="95.410156"/>
       <use xlink:href="#DejaVuSans-35" x="159.033203"/>
      </g>
     </g>
    </g>
    <g id="text_17">
     <!-- Accuracy ($\bar{x} \pm s \div \sqrt{N}$) -->
     <g transform="translate(9.634375 269.17)rotate(-90)scale(0.1 -0.1)">
      <defs>
       <path id="DejaVuSans-41" d="M 2188 4044 
L 1331 1722 
L 3047 1722 
L 2188 4044 
z
M 1831 4666 
L 2547 4666 
L 4325 0 
L 3669 0 
L 3244 1197 
L 1141 1197 
L 716 0 
L 50 0 
L 1831 4666 
z
" transform="scale(0.015625)"/>
       <path id="DejaVuSans-75" d="M 544 1381 
L 544 3500 
L 1119 3500 
L 1119 1403 
Q 1119 906 1312 657 
Q 1506 409 1894 409 
Q 2359 409 2629 706 
Q 2900 1003 2900 1516 
L 2900 3500 
L 3475 3500 
L 3475 0 
L 2900 0 
L 2900 538 
Q 2691 219 2414 64 
Q 2138 -91 1772 -91 
Q 1169 -91 856 284 
Q 544 659 544 1381 
z
M 1991 3584 
L 1991 3584 
z
" transform="scale(0.015625)"/>
       <path id="DejaVuSans-72" d="M 2631 2963 
Q 2534 3019 2420 3045 
Q 2306 3072 2169 3072 
Q 1681 3072 1420 2755 
Q 1159 2438 1159 1844 
L 1159 0 
L 581 0 
L 581 3500 
L 1159 3500 
L 1159 2956 
Q 1341 3275 1631 3429 
Q 1922 3584 2338 3584 
Q 2397 3584 2469 3576 
Q 2541 3569 2628 3553 
L 2631 2963 
z
" transform="scale(0.015625)"/>
       <path id="DejaVuSans-61" d="M 2194 1759 
Q 1497 1759 1228 1600 
Q 959 1441 959 1056 
Q 959 750 1161 570 
Q 1363 391 1709 391 
Q 2188 391 2477 730 
Q 2766 1069 2766 1631 
L 2766 1759 
L 2194 1759 
z
M 3341 1997 
L 3341 0 
L 2766 0 
L 2766 531 
Q 2569 213 2275 61 
Q 1981 -91 1556 -91 
Q 1019 -91 701 211 
Q 384 513 384 1019 
Q 384 1609 779 1909 
Q 1175 2209 1959 2209 
L 2766 2209 
L 2766 2266 
Q 2766 2663 2505 2880 
Q 2244 3097 1772 3097 
Q 1472 3097 1187 3025 
Q 903 2953 641 2809 
L 641 3341 
Q 956 3463 1253 3523 
Q 1550 3584 1831 3584 
Q 2591 3584 2966 3190 
Q 3341 2797 3341 1997 
z
" transform="scale(0.015625)"/>
       <path id="DejaVuSans-79" d="M 2059 -325 
Q 1816 -950 1584 -1140 
Q 1353 -1331 966 -1331 
L 506 -1331 
L 506 -850 
L 844 -850 
Q 1081 -850 1212 -737 
Q 1344 -625 1503 -206 
L 1606 56 
L 191 3500 
L 800 3500 
L 1894 763 
L 2988 3500 
L 3597 3500 
L 2059 -325 
z
" transform="scale(0.015625)"/>
       <path id="DejaVuSans-20" transform="scale(0.015625)"/>
       <path id="DejaVuSans-28" d="M 1984 4856 
Q 1566 4138 1362 3434 
Q 1159 2731 1159 2009 
Q 1159 1288 1364 580 
Q 1569 -128 1984 -844 
L 1484 -844 
Q 1016 -109 783 600 
Q 550 1309 550 2009 
Q 550 2706 781 3412 
Q 1013 4119 1484 4856 
L 1984 4856 
z
" transform="scale(0.015625)"/>
       <path id="DejaVuSans-304" d="M -2518 4769 
L -650 4769 
L -650 4306 
L -2518 4306 
L -2518 4769 
z
" transform="scale(0.015625)"/>
       <path id="DejaVuSans-Oblique-78" d="M 3841 3500 
L 2234 1784 
L 3219 0 
L 2559 0 
L 1819 1388 
L 531 0 
L -166 0 
L 1556 1844 
L 641 3500 
L 1300 3500 
L 1972 2234 
L 3144 3500 
L 3841 3500 
z
" transform="scale(0.015625)"/>
       <path id="DejaVuSans-b1" d="M 2944 4013 
L 2944 2803 
L 4684 2803 
L 4684 2272 
L 2944 2272 
L 2944 1063 
L 2419 1063 
L 2419 2272 
L 678 2272 
L 678 2803 
L 2419 2803 
L 2419 4013 
L 2944 4013 
z
M 678 531 
L 4684 531 
L 4684 0 
L 678 0 
L 678 531 
z
" transform="scale(0.015625)"/>
       <path id="DejaVuSans-Oblique-73" d="M 3200 3397 
L 3091 2853 
Q 2863 2978 2609 3040 
Q 2356 3103 2088 3103 
Q 1634 3103 1373 2948 
Q 1113 2794 1113 2528 
Q 1113 2219 1719 2053 
Q 1766 2041 1788 2034 
L 1972 1978 
Q 2547 1819 2739 1644 
Q 2931 1469 2931 1166 
Q 2931 609 2489 259 
Q 2047 -91 1331 -91 
Q 1053 -91 747 -37 
Q 441 16 72 128 
L 184 722 
Q 500 559 806 475 
Q 1113 391 1394 391 
Q 1816 391 2080 572 
Q 2344 753 2344 1031 
Q 2344 1331 1650 1516 
L 1591 1531 
L 1394 1581 
Q 956 1697 753 1886 
Q 550 2075 550 2369 
Q 550 2928 970 3256 
Q 1391 3584 2113 3584 
Q 2397 3584 2667 3537 
Q 2938 3491 3200 3397 
z
" transform="scale(0.015625)"/>
       <path id="DejaVuSans-f7" d="M 2297 3547 
L 3066 3547 
L 3066 2778 
L 2297 2778 
L 2297 3547 
z
M 2297 1234 
L 3066 1234 
L 3066 469 
L 2297 469 
L 2297 1234 
z
M 678 2272 
L 4684 2272 
L 4684 1741 
L 678 1741 
L 678 2272 
z
" transform="scale(0.015625)"/>
       <path id="STIXSizeOneSym-Regular-221a" d="M 6970 9933 
L 3373 -1888 
L 3104 -1888 
L 1626 2918 
Q 1555 3149 1465 3251 
Q 1376 3354 1229 3354 
Q 1011 3354 794 3181 
L 717 3309 
L 1766 4115 
L 1926 4115 
L 3379 -602 
L 3405 -602 
L 6605 9933 
L 6970 9933 
z
" transform="scale(0.015625)"/>
       <path id="DejaVuSans-Oblique-4e" d="M 1081 4666 
L 1931 4666 
L 3219 666 
L 4000 4666 
L 4616 4666 
L 3706 0 
L 2853 0 
L 1569 4025 
L 788 0 
L 172 0 
L 1081 4666 
z
" transform="scale(0.015625)"/>
       <path id="DejaVuSans-29" d="M 513 4856 
L 1013 4856 
Q 1481 4119 1714 3412 
Q 1947 2706 1947 2009 
Q 1947 1309 1714 600 
Q 1481 -109 1013 -844 
L 513 -844 
Q 928 -128 1133 580 
Q 1338 1288 1338 2009 
Q 1338 2731 1133 3434 
Q 928 4138 513 4856 
z
" transform="scale(0.015625)"/>
      </defs>
      <use xlink:href="#DejaVuSans-41" transform="translate(0 0.578125)"/>
      <use xlink:href="#DejaVuSans-63" transform="translate(68.408203 0.578125)"/>
      <use xlink:href="#DejaVuSans-63" transform="translate(123.388672 0.578125)"/>
      <use xlink:href="#DejaVuSans-75" transform="translate(178.369141 0.578125)"/>
      <use xlink:href="#DejaVuSans-72" transform="translate(241.748047 0.578125)"/>
      <use xlink:href="#DejaVuSans-61" transform="translate(282.861328 0.578125)"/>
      <use xlink:href="#DejaVuSans-63" transform="translate(344.140625 0.578125)"/>
      <use xlink:href="#DejaVuSans-79" transform="translate(399.121094 0.578125)"/>
      <use xlink:href="#DejaVuSans-20" transform="translate(458.300781 0.578125)"/>
      <use xlink:href="#DejaVuSans-28" transform="translate(490.087891 0.578125)"/>
      <use xlink:href="#DejaVuSans-304" transform="translate(591.240234 0.484375)"/>
      <use xlink:href="#DejaVuSans-Oblique-78" transform="translate(529.101562 0.578125)"/>
      <use xlink:href="#DejaVuSans-b1" transform="translate(607.763672 0.578125)"/>
      <use xlink:href="#DejaVuSans-Oblique-73" transform="translate(711.035156 0.578125)"/>
      <use xlink:href="#DejaVuSans-f7" transform="translate(782.617188 0.578125)"/>
      <use xlink:href="#STIXSizeOneSym-Regular-221a" transform="translate(885.888672 17.09375)scale(0.563912)"/>
      <use xlink:href="#DejaVuSans-Oblique-4e" transform="translate(957.977036 0.84375)"/>
      <use xlink:href="#DejaVuSans-29" transform="translate(1045.281723 0.578125)"/>
      <path d="M 945.477036 97.5 
L 945.477036 103.75 
L 1045.281723 103.75 
L 1045.281723 97.5 
L 945.477036 97.5 
z
"/>
     </g>
    </g>
   </g>
   <g id="line2d_31">
    <path d="M 58.278222 433 
L 61.254161 347.725662 
L 64.826504 306.913846 
L 68.398848 270.116308 
L 71.971191 246.365169 
L 75.543534 233.987815 
L 79.115877 218.265231 
L 82.68822 210.5712 
L 86.260563 202.208123 
L 89.832907 194.179569 
L 93.40525 189.830769 
L 96.977593 188.158154 
L 100.549936 187.823631 
L 104.122279 181.467692 
L 107.694622 179.126031 
L 111.266965 176.784369 
L 114.839309 173.439138 
L 118.411652 173.773662 
L 121.983995 170.428431 
L 125.556338 170.093908 
L 129.128681 166.748677 
L 132.701024 169.424862 
L 136.273367 167.0832 
L 139.845711 163.068923 
L 143.418054 164.407015 
L 146.990397 162.7344 
L 150.56274 163.068923 
L 154.135083 160.392738 
L 157.707426 163.737969 
L 161.27977 159.389169 
L 164.852113 161.396308 
L 168.424456 159.054646 
L 171.996799 160.058215 
L 175.569142 160.727262 
L 179.141485 158.051077 
L 182.713828 156.378462 
L 186.286172 157.716554 
L 189.858515 158.051077 
L 193.430858 156.712985 
L 197.003201 157.716554 
L 200.575544 155.374892 
L 204.147887 156.378462 
L 207.72023 155.040369 
L 211.292574 153.702277 
L 214.864917 155.040369 
L 218.43726 154.705846 
L 222.009603 155.374892 
L 225.581946 153.367754 
L 229.154289 154.0368 
" clip-path="url(#pde23398121)" style="fill: none; stroke: #1f77b4; stroke-width: 1.5; stroke-linecap: square"/>
   </g>
   <g id="line2d_32">
    <path d="M 57.681818 366.793477 
L 61.254161 281.490092 
L 64.826504 244.023508 
L 68.398848 210.5712 
L 71.971191 191.503385 
L 75.543534 174.442708 
L 79.115877 171.766523 
L 82.68822 160.058215 
L 86.260563 151.695138 
L 89.832907 151.695138 
L 93.40525 141.993969 
L 96.977593 142.997538 
L 100.549936 136.976123 
L 104.122279 134.968985 
L 107.694622 134.299938 
L 111.266965 134.968985 
L 114.839309 129.616615 
L 118.411652 125.936862 
L 121.983995 124.933292 
L 125.556338 126.271385 
L 129.128681 125.267815 
L 132.701024 124.598769 
L 136.273367 122.926154 
L 139.845711 124.598769 
L 143.418054 123.929723 
L 146.990397 123.260677 
L 150.56274 124.598769 
L 154.135083 119.580923 
L 157.707426 120.919015 
L 161.27977 118.242831 
L 164.852113 118.242831 
L 168.424456 120.249969 
L 171.996799 117.573785 
L 175.569142 120.919015 
L 179.141485 116.570215 
L 182.713828 115.901169 
L 186.286172 116.570215 
L 189.858515 114.228554 
L 193.430858 113.224985 
L 197.003201 113.894031 
L 200.575544 118.242831 
L 204.147887 114.8976 
L 207.72023 113.559508 
L 211.292574 116.570215 
L 214.864917 116.570215 
L 218.43726 114.8976 
L 222.009603 114.228554 
L 225.581946 113.224985 
L 229.154289 115.232123 
L 232.726633 113.894031 
L 236.298976 112.890462 
L 239.871319 113.224985 
L 243.443662 108.541662 
L 247.016005 112.555938 
L 250.588348 111.552369 
L 254.160691 110.214277 
" clip-path="url(#pde23398121)" style="fill: none; stroke: #ff7f0e; stroke-width: 1.5; stroke-linecap: square"/>
   </g>
   <g id="line2d_33">
    <path d="M 64.33341 433 
L 64.826504 425.335015 
L 68.398848 392.886277 
L 71.971191 378.167262 
L 75.543534 359.433969 
L 79.115877 342.373292 
L 82.68822 340.366154 
L 86.260563 324.978092 
L 89.832907 317.284062 
L 93.40525 308.920985 
L 96.977593 309.924554 
L 100.549936 308.920985 
L 104.122279 310.259077 
L 107.694622 301.561477 
L 111.266965 299.888862 
L 114.839309 283.162708 
L 118.411652 288.180554 
L 121.983995 279.817477 
L 125.556338 281.824615 
L 129.128681 277.810338 
L 132.701024 276.137723 
L 136.273367 274.130585 
L 139.845711 271.788923 
L 143.418054 267.440123 
L 146.990397 263.760369 
L 150.56274 269.112738 
L 154.135083 255.062769 
L 157.707426 260.415138 
L 161.27977 259.077046 
L 164.852113 256.400862 
L 168.424456 252.386585 
L 171.996799 254.728246 
L 175.569142 252.052062 
L 179.141485 256.735385 
L 182.713828 252.721108 
L 186.286172 254.393723 
L 189.858515 255.397292 
L 193.430858 250.713969 
L 197.003201 248.372308 
L 200.575544 246.365169 
L 204.147887 249.041354 
L 207.72023 243.688985 
L 211.292574 252.386585 
L 214.864917 243.019938 
L 218.43726 246.699692 
L 222.009603 238.336615 
L 225.581946 243.688985 
L 229.154289 244.023508 
L 232.726633 247.034215 
L 236.298976 250.713969 
L 239.871319 238.002092 
L 243.443662 245.3616 
L 247.016005 239.005662 
" clip-path="url(#pde23398121)" style="fill: none; stroke: #2ca02c; stroke-width: 1.5; stroke-linecap: square"/>
   </g>
   <g id="line2d_34">
    <path d="M 57.681818 376.829169 
L 61.254161 292.529354 
L 64.826504 258.742523 
L 68.398848 220.606892 
L 71.971191 197.859323 
L 75.543534 189.830769 
L 79.115877 178.122462 
L 82.68822 165.410585 
L 86.260563 159.723692 
L 89.832907 156.712985 
L 93.40525 151.026092 
L 96.977593 145.004677 
L 100.549936 144.335631 
L 104.122279 141.659446 
L 107.694622 139.986831 
L 111.266965 136.307077 
L 114.839309 134.634462 
L 118.411652 132.961846 
L 121.983995 129.951138 
L 125.556338 130.954708 
L 129.128681 126.271385 
L 132.701024 128.613046 
L 136.273367 122.257108 
L 139.845711 124.933292 
L 143.418054 125.602338 
L 146.990397 126.605908 
L 150.56274 124.933292 
L 154.135083 122.591631 
L 157.707426 125.267815 
L 161.27977 120.584492 
L 164.852113 121.253538 
L 168.424456 120.584492 
L 171.996799 120.249969 
L 175.569142 120.249969 
L 179.141485 121.253538 
L 182.713828 119.2464 
L 186.286172 123.5952 
L 189.858515 120.584492 
L 193.430858 121.588062 
L 197.003201 120.249969 
L 200.575544 120.249969 
L 204.147887 120.584492 
L 207.72023 117.573785 
" clip-path="url(#pde23398121)" style="fill: none; stroke: #d62728; stroke-width: 1.5; stroke-linecap: square"/>
   </g>
   <g id="line2d_35">
    <path d="M 57.681818 381.512492 
L 61.254161 323.64 
L 64.826504 298.550769 
L 68.398848 290.522215 
L 71.971191 270.116308 
L 75.543534 261.084185 
L 79.115877 255.731815 
L 82.68822 252.386585 
L 86.260563 246.030646 
L 89.832907 242.350892 
L 93.40525 235.660431 
L 96.977593 234.322338 
L 100.549936 235.325908 
L 104.122279 227.9664 
L 107.694622 229.304492 
L 111.266965 227.297354 
L 114.839309 228.300923 
L 118.411652 230.308062 
L 121.983995 222.948554 
L 125.556338 222.948554 
L 129.128681 221.275938 
L 132.701024 218.265231 
L 136.273367 216.258092 
L 139.845711 218.265231 
L 143.418054 217.261662 
L 146.990397 212.243815 
L 150.56274 214.250954 
L 154.135083 213.916431 
" clip-path="url(#pde23398121)" style="fill: none; stroke-dasharray: 5.55,2.4; stroke-dashoffset: 0; stroke: #9467bd; stroke-width: 1.5"/>
   </g>
   <g id="line2d_36">
    <path d="M 57.681818 377.163692 
L 61.254161 292.529354 
L 64.826504 250.713969 
L 68.398848 236.329477 
L 71.971191 224.955692 
L 75.543534 204.884308 
L 79.115877 197.190277 
L 82.68822 192.172431 
L 86.260563 184.4784 
L 89.832907 178.791508 
L 93.40525 180.464123 
L 96.977593 176.784369 
L 100.549936 174.442708 
L 104.122279 169.759385 
L 107.694622 167.752246 
L 111.266965 168.086769 
L 114.839309 166.079631 
L 118.411652 163.403446 
L 121.983995 164.072492 
L 125.556338 168.086769 
L 129.128681 161.061785 
L 132.701024 155.709415 
L 136.273367 163.068923 
L 139.845711 157.047508 
L 143.418054 158.720123 
L 146.990397 155.709415 
L 150.56274 162.065354 
L 154.135083 154.705846 
L 157.707426 155.374892 
L 161.27977 152.698708 
L 164.852113 156.043938 
L 168.424456 154.371323 
L 171.996799 152.364185 
L 175.569142 161.730831 
L 179.141485 158.720123 
L 182.713828 159.054646 
L 186.286172 156.378462 
" clip-path="url(#pde23398121)" style="fill: none; stroke-dasharray: 5.55,2.4; stroke-dashoffset: 0; stroke: #8c564b; stroke-width: 1.5"/>
   </g>
   <g id="line2d_37">
    <path d="M 58.01811 433 
L 61.254161 365.120862 
L 64.826504 335.348308 
L 68.398848 314.607877 
L 71.971191 301.226954 
L 75.543534 291.525785 
L 79.115877 283.162708 
L 82.68822 276.472246 
L 86.260563 268.443692 
L 89.832907 263.091323 
L 93.40525 261.753231 
L 96.977593 257.404431 
L 100.549936 254.728246 
L 104.122279 251.383015 
L 107.694622 250.713969 
L 111.266965 247.368738 
L 114.839309 248.372308 
L 118.411652 244.358031 
L 121.983995 245.3616 
L 125.556338 242.350892 
L 129.128681 237.667569 
L 132.701024 238.336615 
L 136.273367 237.667569 
L 139.845711 237.333046 
L 143.418054 236.664 
L 146.990397 237.667569 
L 150.56274 236.998523 
L 154.135083 235.660431 
L 157.707426 236.998523 
L 161.27977 234.322338 
L 164.852113 236.329477 
L 168.424456 237.667569 
L 171.996799 236.329477 
L 175.569142 233.653292 
L 179.141485 235.660431 
L 182.713828 235.325908 
L 186.286172 234.991385 
L 189.858515 238.002092 
L 193.430858 237.333046 
L 197.003201 235.325908 
L 200.575544 237.333046 
L 204.147887 236.329477 
L 207.72023 236.329477 
L 211.292574 234.991385 
L 214.864917 235.325908 
L 218.43726 232.984246 
L 222.009603 235.325908 
L 225.581946 235.660431 
L 229.154289 235.660431 
L 232.726633 234.991385 
L 236.298976 238.002092 
L 239.871319 234.322338 
L 243.443662 236.998523 
" clip-path="url(#pde23398121)" style="fill: none; stroke-dasharray: 5.55,2.4; stroke-dashoffset: 0; stroke: #e377c2; stroke-width: 1.5"/>
   </g>
   <g id="line2d_38">
    <path d="M 57.681818 400.914831 
L 61.254161 312.935262 
L 64.826504 275.134154 
L 68.398848 250.379446 
L 71.971191 228.300923 
L 75.543534 215.254523 
L 79.115877 195.852185 
L 82.68822 194.514092 
L 86.260563 184.812923 
L 89.832907 177.118892 
L 93.40525 168.755815 
L 96.977593 166.079631 
L 100.549936 163.403446 
L 104.122279 160.058215 
L 107.694622 156.043938 
L 111.266965 149.353477 
L 114.839309 144.001108 
L 118.411652 143.332062 
L 121.983995 139.652308 
L 125.556338 141.993969 
L 129.128681 137.645169 
L 132.701024 132.627323 
L 136.273367 132.627323 
L 139.845711 133.630892 
L 143.418054 131.623754 
L 146.990397 129.616615 
L 150.56274 130.620185 
L 154.135083 126.940431 
L 157.707426 126.940431 
L 161.27977 125.267815 
L 164.852113 121.588062 
L 168.424456 120.249969 
L 171.996799 122.926154 
L 175.569142 120.584492 
L 179.141485 120.584492 
L 182.713828 125.267815 
L 186.286172 122.591631 
L 189.858515 119.915446 
L 193.430858 116.904738 
L 197.003201 115.901169 
L 200.575544 116.235692 
L 204.147887 117.573785 
L 207.72023 115.566646 
L 211.292574 115.566646 
L 214.864917 116.235692 
L 218.43726 112.221415 
L 222.009603 113.894031 
L 225.581946 110.5488 
L 229.154289 111.552369 
L 232.726633 111.552369 
L 236.298976 110.883323 
L 239.871319 112.221415 
L 243.443662 110.883323 
L 247.016005 111.886892 
L 250.588348 107.872615 
L 254.160691 108.541662 
L 257.733035 109.879754 
L 261.305378 108.541662 
L 264.877721 106.2 
L 268.450064 107.872615 
L 272.022407 110.214277 
L 275.59475 107.538092 
L 279.167093 107.203569 
L 282.739437 109.545231 
L 286.31178 105.196431 
L 289.884123 103.523815 
L 293.456466 100.847631 
L 297.028809 105.865477 
L 300.601152 104.192862 
L 304.173496 106.2 
L 307.745839 104.861908 
L 311.318182 102.185723 
" clip-path="url(#pde23398121)" style="fill: none; stroke-dasharray: 5.55,2.4; stroke-dashoffset: 0; stroke: #7f7f7f; stroke-width: 1.5"/>
   </g>
   <g id="patch_3">
    <path d="M 45 378 
L 45 51.84 
" style="fill: none; stroke: #000000; stroke-width: 0.8; stroke-linejoin: miter; stroke-linecap: square"/>
   </g>
   <g id="patch_4">
    <path d="M 324 378 
L 324 51.84 
" style="fill: none; stroke: #000000; stroke-width: 0.8; stroke-linejoin: miter; stroke-linecap: square"/>
   </g>
   <g id="patch_5">
    <path d="M 45 378 
L 324 378 
" style="fill: none; stroke: #000000; stroke-width: 0.8; stroke-linejoin: miter; stroke-linecap: square"/>
   </g>
   <g id="patch_6">
    <path d="M 45 51.84 
L 324 51.84 
" style="fill: none; stroke: #000000; stroke-width: 0.8; stroke-linejoin: miter; stroke-linecap: square"/>
   </g>
   <g id="legend_1">
    <g id="patch_7">
     <path d="M 200.907812 373 
L 317 373 
Q 319 373 319 371 
L 319 252.90625 
Q 319 250.90625 317 250.90625 
L 200.907812 250.90625 
Q 198.907812 250.90625 198.907812 252.90625 
L 198.907812 371 
Q 198.907812 373 200.907812 373 
z
" style="fill: #ffffff; opacity: 0.8; stroke: #cccccc; stroke-linejoin: miter"/>
    </g>
    <g id="line2d_39">
     <path d="M 202.907812 259.004687 
L 212.907812 259.004687 
L 222.907812 259.004687 
" style="fill: none; stroke: #1f77b4; stroke-width: 1.5; stroke-linecap: square"/>
    </g>
    <g id="text_18">
     <!-- vit_b_16 -->
     <g transform="translate(230.907812 262.504687)scale(0.1 -0.1)">
      <defs>
       <path id="DejaVuSans-76" d="M 191 3500 
L 800 3500 
L 1894 563 
L 2988 3500 
L 3597 3500 
L 2284 0 
L 1503 0 
L 191 3500 
z
" transform="scale(0.015625)"/>
       <path id="DejaVuSans-69" d="M 603 3500 
L 1178 3500 
L 1178 0 
L 603 0 
L 603 3500 
z
M 603 4863 
L 1178 4863 
L 1178 4134 
L 603 4134 
L 603 4863 
z
" transform="scale(0.015625)"/>
       <path id="DejaVuSans-74" d="M 1172 4494 
L 1172 3500 
L 2356 3500 
L 2356 3053 
L 1172 3053 
L 1172 1153 
Q 1172 725 1289 603 
Q 1406 481 1766 481 
L 2356 481 
L 2356 0 
L 1766 0 
Q 1100 0 847 248 
Q 594 497 594 1153 
L 594 3053 
L 172 3053 
L 172 3500 
L 594 3500 
L 594 4494 
L 1172 4494 
z
" transform="scale(0.015625)"/>
       <path id="DejaVuSans-5f" d="M 3263 -1063 
L 3263 -1509 
L -63 -1509 
L -63 -1063 
L 3263 -1063 
z
" transform="scale(0.015625)"/>
       <path id="DejaVuSans-62" d="M 3116 1747 
Q 3116 2381 2855 2742 
Q 2594 3103 2138 3103 
Q 1681 3103 1420 2742 
Q 1159 2381 1159 1747 
Q 1159 1113 1420 752 
Q 1681 391 2138 391 
Q 2594 391 2855 752 
Q 3116 1113 3116 1747 
z
M 1159 2969 
Q 1341 3281 1617 3432 
Q 1894 3584 2278 3584 
Q 2916 3584 3314 3078 
Q 3713 2572 3713 1747 
Q 3713 922 3314 415 
Q 2916 -91 2278 -91 
Q 1894 -91 1617 61 
Q 1341 213 1159 525 
L 1159 0 
L 581 0 
L 581 4863 
L 1159 4863 
L 1159 2969 
z
" transform="scale(0.015625)"/>
      </defs>
      <use xlink:href="#DejaVuSans-76"/>
      <use xlink:href="#DejaVuSans-69" x="59.179688"/>
      <use xlink:href="#DejaVuSans-74" x="86.962891"/>
      <use xlink:href="#DejaVuSans-5f" x="126.171875"/>
      <use xlink:href="#DejaVuSans-62" x="176.171875"/>
      <use xlink:href="#DejaVuSans-5f" x="239.648438"/>
      <use xlink:href="#DejaVuSans-31" x="289.648438"/>
      <use xlink:href="#DejaVuSans-36" x="353.271484"/>
     </g>
    </g>
    <g id="line2d_40">
     <path d="M 202.907812 273.960938 
L 212.907812 273.960938 
L 222.907812 273.960938 
" style="fill: none; stroke: #ff7f0e; stroke-width: 1.5; stroke-linecap: square"/>
    </g>
    <g id="text_19">
     <!-- swin_b -->
     <g transform="translate(230.907812 277.460938)scale(0.1 -0.1)">
      <defs>
       <path id="DejaVuSans-77" d="M 269 3500 
L 844 3500 
L 1563 769 
L 2278 3500 
L 2956 3500 
L 3675 769 
L 4391 3500 
L 4966 3500 
L 4050 0 
L 3372 0 
L 2619 2869 
L 1863 0 
L 1184 0 
L 269 3500 
z
" transform="scale(0.015625)"/>
       <path id="DejaVuSans-6e" d="M 3513 2113 
L 3513 0 
L 2938 0 
L 2938 2094 
Q 2938 2591 2744 2837 
Q 2550 3084 2163 3084 
Q 1697 3084 1428 2787 
Q 1159 2491 1159 1978 
L 1159 0 
L 581 0 
L 581 3500 
L 1159 3500 
L 1159 2956 
Q 1366 3272 1645 3428 
Q 1925 3584 2291 3584 
Q 2894 3584 3203 3211 
Q 3513 2838 3513 2113 
z
" transform="scale(0.015625)"/>
      </defs>
      <use xlink:href="#DejaVuSans-73"/>
      <use xlink:href="#DejaVuSans-77" x="52.099609"/>
      <use xlink:href="#DejaVuSans-69" x="133.886719"/>
      <use xlink:href="#DejaVuSans-6e" x="161.669922"/>
      <use xlink:href="#DejaVuSans-5f" x="225.048828"/>
      <use xlink:href="#DejaVuSans-62" x="275.048828"/>
     </g>
    </g>
    <g id="line2d_41">
     <path d="M 202.907812 288.917188 
L 212.907812 288.917188 
L 222.907812 288.917188 
" style="fill: none; stroke: #2ca02c; stroke-width: 1.5; stroke-linecap: square"/>
    </g>
    <g id="text_20">
     <!-- beit_b_16 -->
     <g transform="translate(230.907812 292.417188)scale(0.1 -0.1)">
      <defs>
       <path id="DejaVuSans-65" d="M 3597 1894 
L 3597 1613 
L 953 1613 
Q 991 1019 1311 708 
Q 1631 397 2203 397 
Q 2534 397 2845 478 
Q 3156 559 3463 722 
L 3463 178 
Q 3153 47 2828 -22 
Q 2503 -91 2169 -91 
Q 1331 -91 842 396 
Q 353 884 353 1716 
Q 353 2575 817 3079 
Q 1281 3584 2069 3584 
Q 2775 3584 3186 3129 
Q 3597 2675 3597 1894 
z
M 3022 2063 
Q 3016 2534 2758 2815 
Q 2500 3097 2075 3097 
Q 1594 3097 1305 2825 
Q 1016 2553 972 2059 
L 3022 2063 
z
" transform="scale(0.015625)"/>
      </defs>
      <use xlink:href="#DejaVuSans-62"/>
      <use xlink:href="#DejaVuSans-65" x="63.476562"/>
      <use xlink:href="#DejaVuSans-69" x="125"/>
      <use xlink:href="#DejaVuSans-74" x="152.783203"/>
      <use xlink:href="#DejaVuSans-5f" x="191.992188"/>
      <use xlink:href="#DejaVuSans-62" x="241.992188"/>
      <use xlink:href="#DejaVuSans-5f" x="305.46875"/>
      <use xlink:href="#DejaVuSans-31" x="355.46875"/>
      <use xlink:href="#DejaVuSans-36" x="419.091797"/>
     </g>
    </g>
    <g id="line2d_42">
     <path d="M 202.907812 303.873438 
L 212.907812 303.873438 
L 222.907812 303.873438 
" style="fill: none; stroke: #d62728; stroke-width: 1.5; stroke-linecap: square"/>
    </g>
    <g id="text_21">
     <!-- deit_b_16 -->
     <g transform="translate(230.907812 307.373438)scale(0.1 -0.1)">
      <defs>
       <path id="DejaVuSans-64" d="M 2906 2969 
L 2906 4863 
L 3481 4863 
L 3481 0 
L 2906 0 
L 2906 525 
Q 2725 213 2448 61 
Q 2172 -91 1784 -91 
Q 1150 -91 751 415 
Q 353 922 353 1747 
Q 353 2572 751 3078 
Q 1150 3584 1784 3584 
Q 2172 3584 2448 3432 
Q 2725 3281 2906 2969 
z
M 947 1747 
Q 947 1113 1208 752 
Q 1469 391 1925 391 
Q 2381 391 2643 752 
Q 2906 1113 2906 1747 
Q 2906 2381 2643 2742 
Q 2381 3103 1925 3103 
Q 1469 3103 1208 2742 
Q 947 2381 947 1747 
z
" transform="scale(0.015625)"/>
      </defs>
      <use xlink:href="#DejaVuSans-64"/>
      <use xlink:href="#DejaVuSans-65" x="63.476562"/>
      <use xlink:href="#DejaVuSans-69" x="125"/>
      <use xlink:href="#DejaVuSans-74" x="152.783203"/>
      <use xlink:href="#DejaVuSans-5f" x="191.992188"/>
      <use xlink:href="#DejaVuSans-62" x="241.992188"/>
      <use xlink:href="#DejaVuSans-5f" x="305.46875"/>
      <use xlink:href="#DejaVuSans-31" x="355.46875"/>
      <use xlink:href="#DejaVuSans-36" x="419.091797"/>
     </g>
    </g>
    <g id="line2d_43">
     <path d="M 202.907812 318.829687 
L 212.907812 318.829687 
L 222.907812 318.829687 
" style="fill: none; stroke-dasharray: 5.55,2.4; stroke-dashoffset: 0; stroke: #9467bd; stroke-width: 1.5"/>
    </g>
    <g id="text_22">
     <!-- vgg19 -->
     <g transform="translate(230.907812 322.329687)scale(0.1 -0.1)">
      <defs>
       <path id="DejaVuSans-67" d="M 2906 1791 
Q 2906 2416 2648 2759 
Q 2391 3103 1925 3103 
Q 1463 3103 1205 2759 
Q 947 2416 947 1791 
Q 947 1169 1205 825 
Q 1463 481 1925 481 
Q 2391 481 2648 825 
Q 2906 1169 2906 1791 
z
M 3481 434 
Q 3481 -459 3084 -895 
Q 2688 -1331 1869 -1331 
Q 1566 -1331 1297 -1286 
Q 1028 -1241 775 -1147 
L 775 -588 
Q 1028 -725 1275 -790 
Q 1522 -856 1778 -856 
Q 2344 -856 2625 -561 
Q 2906 -266 2906 331 
L 2906 616 
Q 2728 306 2450 153 
Q 2172 0 1784 0 
Q 1141 0 747 490 
Q 353 981 353 1791 
Q 353 2603 747 3093 
Q 1141 3584 1784 3584 
Q 2172 3584 2450 3431 
Q 2728 3278 2906 2969 
L 2906 3500 
L 3481 3500 
L 3481 434 
z
" transform="scale(0.015625)"/>
      </defs>
      <use xlink:href="#DejaVuSans-76"/>
      <use xlink:href="#DejaVuSans-67" x="59.179688"/>
      <use xlink:href="#DejaVuSans-67" x="122.65625"/>
      <use xlink:href="#DejaVuSans-31" x="186.132812"/>
      <use xlink:href="#DejaVuSans-39" x="249.755859"/>
     </g>
    </g>
    <g id="line2d_44">
     <path d="M 202.907812 333.507812 
L 212.907812 333.507812 
L 222.907812 333.507812 
" style="fill: none; stroke-dasharray: 5.55,2.4; stroke-dashoffset: 0; stroke: #8c564b; stroke-width: 1.5"/>
    </g>
    <g id="text_23">
     <!-- resnet50 -->
     <g transform="translate(230.907812 337.007812)scale(0.1 -0.1)">
      <use xlink:href="#DejaVuSans-72"/>
      <use xlink:href="#DejaVuSans-65" x="38.863281"/>
      <use xlink:href="#DejaVuSans-73" x="100.386719"/>
      <use xlink:href="#DejaVuSans-6e" x="152.486328"/>
      <use xlink:href="#DejaVuSans-65" x="215.865234"/>
      <use xlink:href="#DejaVuSans-74" x="277.388672"/>
      <use xlink:href="#DejaVuSans-35" x="316.597656"/>
      <use xlink:href="#DejaVuSans-30" x="380.220703"/>
     </g>
    </g>
    <g id="line2d_45">
     <path d="M 202.907812 348.185938 
L 212.907812 348.185938 
L 222.907812 348.185938 
" style="fill: none; stroke-dasharray: 5.55,2.4; stroke-dashoffset: 0; stroke: #e377c2; stroke-width: 1.5"/>
    </g>
    <g id="text_24">
     <!-- efficientnetv2_m -->
     <g transform="translate(230.907812 351.685938)scale(0.1 -0.1)">
      <defs>
       <path id="DejaVuSans-66" d="M 2375 4863 
L 2375 4384 
L 1825 4384 
Q 1516 4384 1395 4259 
Q 1275 4134 1275 3809 
L 1275 3500 
L 2222 3500 
L 2222 3053 
L 1275 3053 
L 1275 0 
L 697 0 
L 697 3053 
L 147 3053 
L 147 3500 
L 697 3500 
L 697 3744 
Q 697 4328 969 4595 
Q 1241 4863 1831 4863 
L 2375 4863 
z
" transform="scale(0.015625)"/>
       <path id="DejaVuSans-6d" d="M 3328 2828 
Q 3544 3216 3844 3400 
Q 4144 3584 4550 3584 
Q 5097 3584 5394 3201 
Q 5691 2819 5691 2113 
L 5691 0 
L 5113 0 
L 5113 2094 
Q 5113 2597 4934 2840 
Q 4756 3084 4391 3084 
Q 3944 3084 3684 2787 
Q 3425 2491 3425 1978 
L 3425 0 
L 2847 0 
L 2847 2094 
Q 2847 2600 2669 2842 
Q 2491 3084 2119 3084 
Q 1678 3084 1418 2786 
Q 1159 2488 1159 1978 
L 1159 0 
L 581 0 
L 581 3500 
L 1159 3500 
L 1159 2956 
Q 1356 3278 1631 3431 
Q 1906 3584 2284 3584 
Q 2666 3584 2933 3390 
Q 3200 3197 3328 2828 
z
" transform="scale(0.015625)"/>
      </defs>
      <use xlink:href="#DejaVuSans-65"/>
      <use xlink:href="#DejaVuSans-66" x="61.523438"/>
      <use xlink:href="#DejaVuSans-66" x="96.728516"/>
      <use xlink:href="#DejaVuSans-69" x="131.933594"/>
      <use xlink:href="#DejaVuSans-63" x="159.716797"/>
      <use xlink:href="#DejaVuSans-69" x="214.697266"/>
      <use xlink:href="#DejaVuSans-65" x="242.480469"/>
      <use xlink:href="#DejaVuSans-6e" x="304.003906"/>
      <use xlink:href="#DejaVuSans-74" x="367.382812"/>
      <use xlink:href="#DejaVuSans-6e" x="406.591797"/>
      <use xlink:href="#DejaVuSans-65" x="469.970703"/>
      <use xlink:href="#DejaVuSans-74" x="531.494141"/>
      <use xlink:href="#DejaVuSans-76" x="570.703125"/>
      <use xlink:href="#DejaVuSans-32" x="629.882812"/>
      <use xlink:href="#DejaVuSans-5f" x="693.505859"/>
      <use xlink:href="#DejaVuSans-6d" x="743.505859"/>
     </g>
    </g>
    <g id="line2d_46">
     <path d="M 202.907812 363.142187 
L 212.907812 363.142187 
L 222.907812 363.142187 
" style="fill: none; stroke-dasharray: 5.55,2.4; stroke-dashoffset: 0; stroke: #7f7f7f; stroke-width: 1.5"/>
    </g>
    <g id="text_25">
     <!-- convnext_b -->
     <g transform="translate(230.907812 366.642187)scale(0.1 -0.1)">
      <defs>
       <path id="DejaVuSans-78" d="M 3513 3500 
L 2247 1797 
L 3578 0 
L 2900 0 
L 1881 1375 
L 863 0 
L 184 0 
L 1544 1831 
L 300 3500 
L 978 3500 
L 1906 2253 
L 2834 3500 
L 3513 3500 
z
" transform="scale(0.015625)"/>
      </defs>
      <use xlink:href="#DejaVuSans-63"/>
      <use xlink:href="#DejaVuSans-6f" x="54.980469"/>
      <use xlink:href="#DejaVuSans-6e" x="116.162109"/>
      <use xlink:href="#DejaVuSans-76" x="179.541016"/>
      <use xlink:href="#DejaVuSans-6e" x="238.720703"/>
      <use xlink:href="#DejaVuSans-65" x="302.099609"/>
      <use xlink:href="#DejaVuSans-78" x="361.873047"/>
      <use xlink:href="#DejaVuSans-74" x="421.052734"/>
      <use xlink:href="#DejaVuSans-5f" x="460.261719"/>
      <use xlink:href="#DejaVuSans-62" x="510.261719"/>
     </g>
    </g>
   </g>
  </g>
 </g>
 <defs>
  <clipPath id="pde23398121">
   <rect x="45" y="51.84" width="279" height="326.16"/>
  </clipPath>
 </defs>
</svg>
