<?xml version="1.0" encoding="utf-8" standalone="no"?>
<!DOCTYPE svg PUBLIC "-//W3C//DTD SVG 1.1//EN"
  "http://www.w3.org/Graphics/SVG/1.1/DTD/svg11.dtd">
<svg xmlns:xlink="http://www.w3.org/1999/xlink" width="360pt" height="432pt" viewBox="0 0 360 432" xmlns="http://www.w3.org/2000/svg" version="1.1">
 <metadata>
  <rdf:RDF xmlns:dc="http://purl.org/dc/elements/1.1/" xmlns:cc="http://creativecommons.org/ns#" xmlns:rdf="http://www.w3.org/1999/02/22-rdf-syntax-ns#">
   <cc:Work>
    <dc:type rdf:resource="http://purl.org/dc/dcmitype/StillImage"/>
    <dc:date>2022-05-21T09:39:23.215488</dc:date>
    <dc:format>image/svg+xml</dc:format>
    <dc:creator>
     <cc:Agent>
      <dc:title>Matplotlib v3.5.2, https://matplotlib.org/</dc:title>
     </cc:Agent>
    </dc:creator>
   </cc:Work>
  </rdf:RDF>
 </metadata>
 <defs>
  <style type="text/css">*{stroke-linejoin: round; stroke-linecap: butt}</style>
 </defs>
 <g id="figure_1">
  <g id="patch_1">
   <path d="M 0 432 
L 360 432 
L 360 0 
L 0 0 
L 0 432 
z
" style="fill: none"/>
  </g>
  <g id="axes_1">
   <g id="patch_2">
    <path d="M 45 378 
L 324 378 
L 324 51.84 
L 45 51.84 
z
" style="fill: #ffffff"/>
   </g>
   <g id="PolyCollection_1">
    <path d="M 57.681818 -99.116306 
L 57.681818 -90.536839 
L 61.254161 65.627829 
L 64.826504 127.947833 
L 68.398848 163.120927 
L 71.971191 186.831553 
L 75.543534 204.49016 
L 79.115877 218.257176 
L 82.68822 228.323114 
L 86.260563 237.603877 
L 89.832907 244.60748 
L 93.40525 250.782098 
L 96.977593 256.161512 
L 100.549936 260.497351 
L 104.122279 265.092522 
L 107.694622 268.862529 
L 111.266965 271.896356 
L 114.839309 274.166516 
L 118.411652 276.590551 
L 121.983995 279.185848 
L 125.556338 280.772667 
L 129.128681 282.901201 
L 132.701024 284.854834 
L 136.273367 286.037705 
L 139.845711 287.926317 
L 143.418054 289.087916 
L 146.990397 289.513876 
L 150.56274 290.800609 
L 154.135083 291.890427 
L 157.707426 292.680647 
L 161.27977 292.722926 
L 164.852113 294.034421 
L 168.424456 294.895447 
L 171.996799 294.880165 
L 175.569142 295.810314 
L 179.141485 296.218928 
L 182.713828 296.894092 
L 186.286172 297.129338 
L 189.858515 297.378756 
L 193.430858 297.848803 
L 197.003201 298.141005 
L 200.575544 298.410761 
L 204.147887 299.004671 
L 207.72023 299.329127 
L 211.292574 299.246871 
L 214.864917 299.30984 
L 218.43726 299.616362 
L 222.009603 300.029657 
L 225.581946 300.202116 
L 229.154289 300.306182 
L 229.154289 285.782793 
L 229.154289 285.782793 
L 225.581946 286.026322 
L 222.009603 285.723951 
L 218.43726 285.89484 
L 214.864917 285.717789 
L 211.292574 285.949345 
L 207.72023 285.85497 
L 204.147887 285.598532 
L 200.575544 285.434261 
L 197.003201 284.749619 
L 193.430858 284.718599 
L 189.858515 284.675494 
L 186.286172 284.365621 
L 182.713828 284.279593 
L 179.141485 283.66174 
L 175.569142 283.413088 
L 171.996799 282.882352 
L 168.424456 282.72523 
L 164.852113 282.106217 
L 161.27977 280.921049 
L 157.707426 280.436497 
L 154.135083 279.773758 
L 150.56274 278.924526 
L 146.990397 277.517453 
L 143.418054 277.434313 
L 139.845711 276.421322 
L 136.273367 274.919174 
L 132.701024 273.838247 
L 129.128681 271.89894 
L 125.556338 270.240366 
L 121.983995 268.343153 
L 118.411652 266.073153 
L 114.839309 263.64443 
L 111.266965 261.416918 
L 107.694622 258.840123 
L 104.122279 254.625233 
L 100.549936 250.448398 
L 96.977593 246.567846 
L 93.40525 241.572189 
L 89.832907 235.255509 
L 86.260563 228.194324 
L 82.68822 219.395944 
L 79.115877 208.838131 
L 75.543534 195.685684 
L 71.971191 177.845405 
L 68.398848 154.517459 
L 64.826504 118.925721 
L 61.254161 56.612738 
L 57.681818 -99.116306 
z
" clip-path="url(#p8d13c50971)" style="fill: #1f77b4; fill-opacity: 0.2"/>
   </g>
   <g id="PolyCollection_2">
    <path d="M 57.681818 -26.714725 
L 57.681818 -18.723549 
L 61.254161 129.096009 
L 64.826504 187.613883 
L 68.398848 220.32234 
L 71.971191 241.177422 
L 75.543534 256.087159 
L 79.115877 267.85626 
L 82.68822 276.932152 
L 86.260563 285.06851 
L 89.832907 291.381333 
L 93.40525 297.004185 
L 96.977593 300.573316 
L 100.549936 305.230047 
L 104.122279 308.940648 
L 107.694622 311.858124 
L 111.266965 314.771446 
L 114.839309 316.995527 
L 118.411652 319.810184 
L 121.983995 321.525462 
L 125.556338 323.428759 
L 129.128681 325.108248 
L 132.701024 327.241767 
L 136.273367 327.661642 
L 139.845711 329.304668 
L 143.418054 330.3326 
L 146.990397 331.247848 
L 150.56274 331.346925 
L 154.135083 333.684799 
L 157.707426 334.209433 
L 161.27977 334.34705 
L 164.852113 335.377466 
L 168.424456 335.910634 
L 171.996799 337.235627 
L 175.569142 337.020267 
L 179.141485 337.568814 
L 182.713828 337.76891 
L 186.286172 339.321863 
L 189.858515 339.049781 
L 193.430858 339.968568 
L 197.003201 339.96475 
L 200.575544 340.054254 
L 204.147887 340.617764 
L 207.72023 341.371504 
L 211.292574 340.933236 
L 214.864917 341.820353 
L 218.43726 341.673266 
L 222.009603 342.270872 
L 225.581946 342.070755 
L 229.154289 342.881854 
L 232.726633 342.904265 
L 236.298976 343.416898 
L 239.871319 343.247697 
L 243.443662 343.653485 
L 247.016005 344.391955 
L 250.588348 343.801895 
L 254.160691 343.53922 
L 254.160691 333.472073 
L 254.160691 333.472073 
L 250.588348 333.861554 
L 247.016005 334.651244 
L 243.443662 334.281222 
L 239.871319 333.415377 
L 236.298976 333.563932 
L 232.726633 333.133233 
L 229.154289 333.948984 
L 225.581946 332.692179 
L 222.009603 332.978633 
L 218.43726 332.386557 
L 214.864917 332.450167 
L 211.292574 331.839582 
L 207.72023 332.010436 
L 204.147887 330.757267 
L 200.575544 330.40616 
L 197.003201 330.181133 
L 193.430858 330.555453 
L 189.858515 330.547836 
L 186.286172 330.550619 
L 182.713828 329.285724 
L 179.141485 329.00199 
L 175.569142 327.654885 
L 171.996799 328.149529 
L 168.424456 326.909385 
L 164.852113 327.407987 
L 161.27977 325.676965 
L 157.707426 324.946169 
L 154.135083 324.612266 
L 150.56274 322.724977 
L 146.990397 323.362024 
L 143.418054 322.003307 
L 139.845711 321.410849 
L 136.273367 320.164414 
L 132.701024 319.091603 
L 129.128681 316.395551 
L 125.556338 315.203408 
L 121.983995 313.849283 
L 118.411652 311.533904 
L 114.839309 309.16498 
L 111.266965 307.187534 
L 107.694622 303.844701 
L 104.122279 301.415764 
L 100.549936 297.647078 
L 96.977593 293.394546 
L 93.40525 288.831492 
L 89.832907 283.188616 
L 86.260563 277.566738 
L 82.68822 269.351853 
L 79.115877 259.348952 
L 75.543534 248.458395 
L 71.971191 232.926058 
L 68.398848 211.86574 
L 64.826504 178.240929 
L 61.254161 120.793187 
L 57.681818 -26.714725 
z
" clip-path="url(#p8d13c50971)" style="fill: #ff7f0e; fill-opacity: 0.2"/>
   </g>
   <g id="PolyCollection_3">
    <path d="M 57.681818 -170.902617 
L 57.681818 -156.014525 
L 61.254161 -46.051361 
L 64.826504 5.829848 
L 68.398848 37.753809 
L 71.971191 61.340715 
L 75.543534 79.265465 
L 79.115877 94.782438 
L 82.68822 104.600081 
L 86.260563 114.764843 
L 89.832907 122.308318 
L 93.40525 129.242341 
L 96.977593 134.875438 
L 100.549936 139.368106 
L 104.122279 141.30613 
L 107.694622 150.216133 
L 111.266965 153.212614 
L 114.839309 157.818751 
L 118.411652 161.201863 
L 121.983995 165.401117 
L 125.556338 167.121062 
L 129.128681 169.417654 
L 132.701024 170.741672 
L 136.273367 173.442912 
L 139.845711 176.972157 
L 143.418054 178.026948 
L 146.990397 182.361064 
L 150.56274 181.953329 
L 154.135083 184.589099 
L 157.707426 186.211847 
L 161.27977 186.756556 
L 164.852113 190.579189 
L 168.424456 189.25153 
L 171.996799 192.151024 
L 175.569142 193.15896 
L 179.141485 192.016463 
L 182.713828 193.347558 
L 186.286172 193.944111 
L 189.858515 195.771363 
L 193.430858 198.840433 
L 197.003201 198.680545 
L 200.575544 197.939201 
L 204.147887 199.924877 
L 207.72023 201.784738 
L 211.292574 200.166931 
L 214.864917 200.818258 
L 218.43726 202.907604 
L 222.009603 203.062365 
L 225.581946 203.316181 
L 229.154289 204.026193 
L 232.726633 203.435842 
L 236.298976 202.655077 
L 239.871319 203.626909 
L 243.443662 205.944189 
L 247.016005 207.477941 
L 247.016005 191.282046 
L 247.016005 191.282046 
L 243.443662 189.743462 
L 239.871319 188.602946 
L 236.298976 185.976256 
L 232.726633 187.751717 
L 229.154289 189.179696 
L 225.581946 188.788934 
L 222.009603 188.828149 
L 218.43726 187.676311 
L 214.864917 185.739881 
L 211.292574 184.749115 
L 207.72023 185.454175 
L 204.147887 184.393017 
L 200.575544 185.348421 
L 197.003201 184.61378 
L 193.430858 183.526445 
L 189.858515 181.540224 
L 186.286172 179.801431 
L 182.713828 178.953193 
L 179.141485 177.796588 
L 175.569142 178.669818 
L 171.996799 177.616599 
L 168.424456 175.900582 
L 164.852113 175.037714 
L 161.27977 174.196418 
L 157.707426 171.635081 
L 154.135083 171.783416 
L 150.56274 168.337913 
L 146.990397 168.633412 
L 143.418054 166.231308 
L 139.845711 161.847736 
L 136.273367 160.262086 
L 132.701024 156.794544 
L 129.128681 153.776043 
L 125.556338 153.371278 
L 121.983995 152.058365 
L 118.411652 147.643155 
L 114.839309 145.961477 
L 111.266965 139.209876 
L 107.694622 136.090267 
L 104.122279 129.680511 
L 100.549936 126.016449 
L 96.977593 121.073193 
L 93.40525 116.161257 
L 89.832907 109.731763 
L 86.260563 99.488135 
L 82.68822 89.39626 
L 79.115877 80.343693 
L 75.543534 65.596068 
L 71.971191 45.272973 
L 68.398848 20.73725 
L 64.826504 -12.003193 
L 61.254161 -63.680079 
L 57.681818 -170.902617 
z
" clip-path="url(#p8d13c50971)" style="fill: #2ca02c; fill-opacity: 0.2"/>
   </g>
   <g id="PolyCollection_4">
    <path d="M 57.681818 -43.209484 
L 57.681818 -29.829267 
L 61.254161 126.256711 
L 64.826504 185.788418 
L 68.398848 219.141315 
L 71.971191 240.258152 
L 75.543534 256.136423 
L 79.115877 267.976354 
L 82.68822 277.266202 
L 86.260563 284.73901 
L 89.832907 290.649734 
L 93.40525 296.434027 
L 96.977593 301.020481 
L 100.549936 304.612475 
L 104.122279 308.922351 
L 107.694622 311.581406 
L 111.266965 314.32764 
L 114.839309 316.766648 
L 118.411652 318.705188 
L 121.983995 320.952197 
L 125.556338 322.463252 
L 129.128681 324.488844 
L 132.701024 325.020857 
L 136.273367 327.284666 
L 139.845711 328.22123 
L 143.418054 329.505431 
L 146.990397 330.201371 
L 150.56274 331.091272 
L 154.135083 332.130483 
L 157.707426 332.73382 
L 161.27977 333.310895 
L 164.852113 333.688258 
L 168.424456 334.569797 
L 171.996799 335.262447 
L 175.569142 335.759096 
L 179.141485 335.623286 
L 182.713828 336.819261 
L 186.286172 336.826548 
L 189.858515 337.210386 
L 193.430858 337.073013 
L 197.003201 337.623864 
L 200.575544 337.900547 
L 204.147887 337.956502 
L 207.72023 338.137904 
L 207.72023 323.477033 
L 207.72023 323.477033 
L 204.147887 323.640926 
L 200.575544 323.594909 
L 197.003201 323.414025 
L 193.430858 323.225378 
L 189.858515 323.268948 
L 186.286172 322.890441 
L 182.713828 323.025841 
L 179.141485 321.877317 
L 175.569142 322.347295 
L 171.996799 321.843403 
L 168.424456 321.358943 
L 164.852113 320.294437 
L 161.27977 320.091602 
L 157.707426 319.733917 
L 154.135083 319.184423 
L 150.56274 318.813522 
L 146.990397 317.481986 
L 143.418054 317.234047 
L 139.845711 315.881789 
L 136.273367 314.92704 
L 132.701024 313.332991 
L 129.128681 312.377133 
L 125.556338 310.248569 
L 121.983995 309.085684 
L 118.411652 307.045209 
L 114.839309 304.673269 
L 111.266965 302.540166 
L 107.694622 300.107438 
L 104.122279 296.950778 
L 100.549936 293.725856 
L 96.977593 289.54666 
L 93.40525 284.863825 
L 89.832907 279.777803 
L 86.260563 273.218647 
L 82.68822 265.792691 
L 79.115877 256.325486 
L 75.543534 244.212888 
L 71.971191 228.071791 
L 68.398848 205.609378 
L 64.826504 171.913934 
L 61.254161 112.747442 
L 57.681818 -43.209484 
z
" clip-path="url(#p8d13c50971)" style="fill: #d62728; fill-opacity: 0.2"/>
   </g>
   <g id="PolyCollection_5">
    <path d="M 57.681818 40.231398 
L 57.681818 46.221209 
L 61.254161 121.435786 
L 64.826504 152.35612 
L 68.398848 172.864163 
L 71.971191 186.39437 
L 75.543534 196.104973 
L 79.115877 203.985966 
L 82.68822 209.705167 
L 86.260563 214.435049 
L 89.832907 219.901551 
L 93.40525 222.995183 
L 96.977593 226.017961 
L 100.549936 227.586467 
L 104.122279 231.131392 
L 107.694622 233.839436 
L 111.266965 235.042522 
L 114.839309 236.133969 
L 118.411652 237.030377 
L 121.983995 239.958761 
L 125.556338 238.738893 
L 129.128681 239.645339 
L 132.701024 241.098761 
L 136.273367 242.952854 
L 139.845711 243.631109 
L 143.418054 244.786647 
L 146.990397 244.269156 
L 150.56274 242.783505 
L 154.135083 246.814059 
L 154.135083 238.5379 
L 154.135083 238.5379 
L 150.56274 236.490812 
L 146.990397 237.246634 
L 143.418054 236.867093 
L 139.845711 235.440411 
L 136.273367 234.234142 
L 132.701024 233.222951 
L 129.128681 233.157138 
L 125.556338 231.090156 
L 121.983995 231.247943 
L 118.411652 230.49332 
L 114.839309 227.10947 
L 111.266965 225.750706 
L 107.694622 224.161196 
L 104.122279 221.144179 
L 100.549936 218.826972 
L 96.977593 217.344453 
L 93.40525 213.918469 
L 89.832907 211.083593 
L 86.260563 206.586991 
L 82.68822 200.709084 
L 79.115877 195.196482 
L 75.543534 187.878226 
L 71.971191 178.852811 
L 68.398848 164.704611 
L 64.826504 147.217233 
L 61.254161 114.508656 
L 57.681818 40.231398 
z
" clip-path="url(#p8d13c50971)" style="fill: #9467bd; fill-opacity: 0.2"/>
   </g>
   <g id="PolyCollection_6">
    <path d="M 57.681818 -70.366786 
L 57.681818 -62.522128 
L 61.254161 102.629587 
L 64.826504 162.618945 
L 68.398848 192.724396 
L 71.971191 211.691869 
L 75.543534 225.98076 
L 79.115877 236.324327 
L 82.68822 245.428353 
L 86.260563 252.750416 
L 89.832907 259.235617 
L 93.40525 261.703304 
L 96.977593 265.437683 
L 100.549936 271.16661 
L 104.122279 272.969086 
L 107.694622 276.359615 
L 111.266965 279.821187 
L 114.839309 280.963839 
L 118.411652 281.997056 
L 121.983995 281.189249 
L 125.556338 284.330426 
L 129.128681 286.466908 
L 132.701024 288.012315 
L 136.273367 286.013996 
L 139.845711 288.921957 
L 143.418054 288.307199 
L 146.990397 290.851507 
L 150.56274 289.225869 
L 154.135083 291.211319 
L 157.707426 293.509346 
L 161.27977 293.031492 
L 164.852113 294.105723 
L 168.424456 293.376167 
L 171.996799 293.736012 
L 175.569142 293.777029 
L 179.141485 294.45248 
L 182.713828 294.116698 
L 186.286172 294.682509 
L 186.286172 284.302176 
L 186.286172 284.302176 
L 182.713828 283.730042 
L 179.141485 284.221363 
L 175.569142 283.546661 
L 171.996799 283.826356 
L 168.424456 284.636589 
L 164.852113 283.722857 
L 161.27977 282.714392 
L 157.707426 283.169629 
L 154.135083 282.076782 
L 150.56274 280.208373 
L 146.990397 281.515678 
L 143.418054 281.357028 
L 139.845711 280.874003 
L 136.273367 278.676969 
L 132.701024 280.848198 
L 129.128681 278.780483 
L 125.556338 275.938854 
L 121.983995 274.615003 
L 118.411652 273.159515 
L 114.839309 274.247421 
L 111.266965 272.474072 
L 107.694622 270.168433 
L 104.122279 266.78618 
L 100.549936 265.050667 
L 96.977593 259.820907 
L 93.40525 256.478984 
L 89.832907 252.827703 
L 86.260563 246.724986 
L 82.68822 239.286327 
L 79.115877 229.377635 
L 75.543534 220.485017 
L 71.971191 205.420312 
L 68.398848 188.052359 
L 64.826504 156.210439 
L 61.254161 95.44607 
L 57.681818 -70.366786 
z
" clip-path="url(#p8d13c50971)" style="fill: #8c564b; fill-opacity: 0.2"/>
   </g>
   <g id="PolyCollection_7">
    <path d="M 57.681818 -280.794934 
L 57.681818 -271.714959 
L 61.254161 -75.417212 
L 64.826504 11.221004 
L 68.398848 59.757461 
L 71.971191 91.780931 
L 75.543534 113.927429 
L 79.115877 130.425984 
L 82.68822 144.128394 
L 86.260563 154.480585 
L 89.832907 162.489711 
L 93.40525 169.445016 
L 96.977593 175.488671 
L 100.549936 180.89648 
L 104.122279 185.844562 
L 107.694622 188.931629 
L 111.266965 192.181186 
L 114.839309 194.882638 
L 118.411652 197.749691 
L 121.983995 199.750489 
L 125.556338 202.010811 
L 129.128681 203.334622 
L 132.701024 205.272031 
L 136.273367 207.287546 
L 139.845711 208.329827 
L 143.418054 208.932991 
L 146.990397 210.661646 
L 150.56274 211.235663 
L 154.135083 211.917846 
L 157.707426 212.639465 
L 161.27977 213.462844 
L 164.852113 213.727486 
L 168.424456 214.375344 
L 171.996799 215.078381 
L 175.569142 216.632526 
L 179.141485 216.293257 
L 182.713828 215.862106 
L 186.286172 216.778744 
L 189.858515 216.726996 
L 193.430858 217.694898 
L 197.003201 217.404783 
L 200.575544 217.049197 
L 204.147887 217.371676 
L 207.72023 218.136171 
L 211.292574 218.453654 
L 214.864917 218.863076 
L 218.43726 219.204883 
L 222.009603 219.199893 
L 225.581946 218.935511 
L 229.154289 218.838521 
L 232.726633 219.184522 
L 236.298976 218.745768 
L 239.871319 219.218554 
L 243.443662 218.659623 
L 243.443662 208.911825 
L 243.443662 208.911825 
L 239.871319 209.662226 
L 236.298976 209.073698 
L 232.726633 209.361826 
L 229.154289 208.755319 
L 225.581946 209.915908 
L 222.009603 210.591239 
L 218.43726 210.249596 
L 214.864917 209.548164 
L 211.292574 209.349138 
L 207.72023 208.78655 
L 204.147887 207.287333 
L 200.575544 207.154797 
L 197.003201 208.260427 
L 193.430858 208.390942 
L 189.858515 208.205964 
L 186.286172 208.428795 
L 182.713828 207.514712 
L 179.141485 206.669581 
L 175.569142 207.242846 
L 171.996799 206.064493 
L 168.424456 205.029061 
L 164.852113 205.065361 
L 161.27977 205.348272 
L 157.707426 203.937957 
L 154.135083 203.044922 
L 150.56274 202.58098 
L 146.990397 201.455338 
L 143.418054 200.810142 
L 139.845711 198.995654 
L 136.273367 198.81928 
L 132.701024 197.148918 
L 129.128681 194.672313 
L 125.556338 193.912261 
L 121.983995 191.638513 
L 118.411652 188.734503 
L 114.839309 185.342955 
L 111.266965 183.683741 
L 107.694622 180.520169 
L 104.122279 176.868852 
L 100.549936 172.623541 
L 96.977593 166.670373 
L 93.40525 160.562737 
L 89.832907 153.944558 
L 86.260563 145.182328 
L 82.68822 135.06651 
L 79.115877 121.303039 
L 75.543534 105.015655 
L 71.971191 82.684482 
L 68.398848 50.607171 
L 64.826504 1.564668 
L 61.254161 -85.173452 
L 57.681818 -280.794934 
z
" clip-path="url(#p8d13c50971)" style="fill: #e377c2; fill-opacity: 0.2"/>
   </g>
   <g id="PolyCollection_8">
    <path d="M 57.681818 -139.098633 
L 57.681818 -133.938372 
L 61.254161 48.215486 
L 64.826504 125.055707 
L 68.398848 167.705048 
L 71.971191 195.308242 
L 75.543534 215.155609 
L 79.115877 231.130371 
L 82.68822 242.523097 
L 86.260563 253.79959 
L 89.832907 261.840644 
L 93.40525 268.850383 
L 96.977593 275.097407 
L 100.549936 280.633031 
L 104.122279 285.580071 
L 107.694622 289.378225 
L 111.266965 293.550014 
L 114.839309 297.130675 
L 118.411652 300.391403 
L 121.983995 303.080839 
L 125.556338 305.796245 
L 129.128681 307.893971 
L 132.701024 310.347559 
L 136.273367 312.625627 
L 139.845711 314.796767 
L 143.418054 315.69183 
L 146.990397 318.205763 
L 150.56274 319.366205 
L 154.135083 320.800734 
L 157.707426 322.309901 
L 161.27977 323.473405 
L 164.852113 325.293096 
L 168.424456 326.191815 
L 171.996799 326.528575 
L 175.569142 328.264439 
L 179.141485 328.388369 
L 182.713828 329.461875 
L 186.286172 330.228197 
L 189.858515 331.921052 
L 193.430858 332.771349 
L 197.003201 333.342587 
L 200.575544 334.74306 
L 204.147887 335.009702 
L 207.72023 335.212203 
L 211.292574 336.170054 
L 214.864917 336.406235 
L 218.43726 336.808554 
L 222.009603 337.665194 
L 225.581946 337.396495 
L 229.154289 338.59806 
L 232.726633 339.698153 
L 236.298976 340.935076 
L 239.871319 340.153832 
L 243.443662 340.704629 
L 247.016005 340.727146 
L 250.588348 341.343716 
L 254.160691 342.183769 
L 257.733035 341.830399 
L 261.305378 342.578738 
L 264.877721 342.860314 
L 268.450064 343.117271 
L 272.022407 343.762898 
L 275.59475 343.509742 
L 279.167093 343.91245 
L 282.739437 344.503575 
L 286.31178 345.851749 
L 289.884123 345.367135 
L 293.456466 346.203264 
L 297.028809 346.066421 
L 300.601152 345.686583 
L 304.173496 346.436448 
L 307.745839 346.628813 
L 311.318182 346.602922 
L 311.318182 336.942298 
L 311.318182 336.942298 
L 307.745839 336.446559 
L 304.173496 336.615622 
L 300.601152 335.954367 
L 297.028809 336.163088 
L 293.456466 336.453365 
L 289.884123 335.867033 
L 286.31178 336.369848 
L 282.739437 335.244558 
L 279.167093 334.954269 
L 275.59475 334.224378 
L 272.022407 334.192035 
L 268.450064 334.10848 
L 264.877721 333.871817 
L 261.305378 333.990281 
L 257.733035 333.391479 
L 254.160691 333.121204 
L 250.588348 332.443785 
L 247.016005 332.219341 
L 243.443662 331.550282 
L 239.871319 331.495357 
L 236.298976 331.699531 
L 232.726633 330.467525 
L 229.154289 329.923759 
L 225.581946 329.052571 
L 222.009603 328.499614 
L 218.43726 328.689902 
L 214.864917 327.577746 
L 211.292574 327.683971 
L 207.72023 326.407672 
L 204.147887 326.402077 
L 200.575544 326.201559 
L 197.003201 325.335466 
L 193.430858 323.985893 
L 189.858515 324.068797 
L 186.286172 322.134748 
L 182.713828 321.826904 
L 179.141485 320.257832 
L 175.569142 320.082696 
L 171.996799 318.9371 
L 168.424456 318.030261 
L 164.852113 316.891845 
L 161.27977 316.19549 
L 157.707426 314.83072 
L 154.135083 313.325713 
L 150.56274 311.922021 
L 146.990397 310.408122 
L 143.418054 308.305471 
L 139.845711 307.091648 
L 136.273367 304.951471 
L 132.701024 302.980887 
L 129.128681 300.57292 
L 125.556338 298.007031 
L 121.983995 295.173459 
L 118.411652 292.932245 
L 114.839309 289.233719 
L 111.266965 285.953997 
L 107.694622 282.374467 
L 104.122279 277.423965 
L 100.549936 273.205884 
L 96.977593 267.845964 
L 93.40525 261.365898 
L 89.832907 254.852451 
L 86.260563 246.734084 
L 82.68822 235.333491 
L 79.115877 223.962502 
L 75.543534 207.605715 
L 71.971191 187.99901 
L 68.398848 161.085899 
L 64.826504 118.276752 
L 61.254161 42.284837 
L 57.681818 -139.098633 
z
" clip-path="url(#p8d13c50971)" style="fill: #7f7f7f; fill-opacity: 0.2"/>
   </g>
   <g id="matplotlib.axis_1">
    <g id="xtick_1">
     <g id="line2d_1">
      <path d="M 54.109475 378 
L 54.109475 51.84 
" clip-path="url(#p8d13c50971)" style="fill: none; stroke: #b0b0b0; stroke-width: 0.8; stroke-linecap: square"/>
     </g>
     <g id="line2d_2">
      <defs>
       <path id="mfcf0b47143" d="M 0 0 
L 0 3.5 
" style="stroke: #000000; stroke-width: 0.8"/>
      </defs>
      <g>
       <use xlink:href="#mfcf0b47143" x="54.109475" y="378" style="stroke: #000000; stroke-width: 0.8"/>
      </g>
     </g>
     <g id="text_1">
      <!-- 0 -->
      <g transform="translate(50.928225 392.598437)scale(0.1 -0.1)">
       <defs>
        <path id="DejaVuSans-30" d="M 2034 4250 
Q 1547 4250 1301 3770 
Q 1056 3291 1056 2328 
Q 1056 1369 1301 889 
Q 1547 409 2034 409 
Q 2525 409 2770 889 
Q 3016 1369 3016 2328 
Q 3016 3291 2770 3770 
Q 2525 4250 2034 4250 
z
M 2034 4750 
Q 2819 4750 3233 4129 
Q 3647 3509 3647 2328 
Q 3647 1150 3233 529 
Q 2819 -91 2034 -91 
Q 1250 -91 836 529 
Q 422 1150 422 2328 
Q 422 3509 836 4129 
Q 1250 4750 2034 4750 
z
" transform="scale(0.015625)"/>
       </defs>
       <use xlink:href="#DejaVuSans-30"/>
      </g>
     </g>
    </g>
    <g id="xtick_2">
     <g id="line2d_3">
      <path d="M 89.832907 378 
L 89.832907 51.84 
" clip-path="url(#p8d13c50971)" style="fill: none; stroke: #b0b0b0; stroke-width: 0.8; stroke-linecap: square"/>
     </g>
     <g id="line2d_4">
      <g>
       <use xlink:href="#mfcf0b47143" x="89.832907" y="378" style="stroke: #000000; stroke-width: 0.8"/>
      </g>
     </g>
     <g id="text_2">
      <!-- 10 -->
      <g transform="translate(83.470407 392.598437)scale(0.1 -0.1)">
       <defs>
        <path id="DejaVuSans-31" d="M 794 531 
L 1825 531 
L 1825 4091 
L 703 3866 
L 703 4441 
L 1819 4666 
L 2450 4666 
L 2450 531 
L 3481 531 
L 3481 0 
L 794 0 
L 794 531 
z
" transform="scale(0.015625)"/>
       </defs>
       <use xlink:href="#DejaVuSans-31"/>
       <use xlink:href="#DejaVuSans-30" x="63.623047"/>
      </g>
     </g>
    </g>
    <g id="xtick_3">
     <g id="line2d_5">
      <path d="M 125.556338 378 
L 125.556338 51.84 
" clip-path="url(#p8d13c50971)" style="fill: none; stroke: #b0b0b0; stroke-width: 0.8; stroke-linecap: square"/>
     </g>
     <g id="line2d_6">
      <g>
       <use xlink:href="#mfcf0b47143" x="125.556338" y="378" style="stroke: #000000; stroke-width: 0.8"/>
      </g>
     </g>
     <g id="text_3">
      <!-- 20 -->
      <g transform="translate(119.193838 392.598437)scale(0.1 -0.1)">
       <defs>
        <path id="DejaVuSans-32" d="M 1228 531 
L 3431 531 
L 3431 0 
L 469 0 
L 469 531 
Q 828 903 1448 1529 
Q 2069 2156 2228 2338 
Q 2531 2678 2651 2914 
Q 2772 3150 2772 3378 
Q 2772 3750 2511 3984 
Q 2250 4219 1831 4219 
Q 1534 4219 1204 4116 
Q 875 4013 500 3803 
L 500 4441 
Q 881 4594 1212 4672 
Q 1544 4750 1819 4750 
Q 2544 4750 2975 4387 
Q 3406 4025 3406 3419 
Q 3406 3131 3298 2873 
Q 3191 2616 2906 2266 
Q 2828 2175 2409 1742 
Q 1991 1309 1228 531 
z
" transform="scale(0.015625)"/>
       </defs>
       <use xlink:href="#DejaVuSans-32"/>
       <use xlink:href="#DejaVuSans-30" x="63.623047"/>
      </g>
     </g>
    </g>
    <g id="xtick_4">
     <g id="line2d_7">
      <path d="M 161.27977 378 
L 161.27977 51.84 
" clip-path="url(#p8d13c50971)" style="fill: none; stroke: #b0b0b0; stroke-width: 0.8; stroke-linecap: square"/>
     </g>
     <g id="line2d_8">
      <g>
       <use xlink:href="#mfcf0b47143" x="161.27977" y="378" style="stroke: #000000; stroke-width: 0.8"/>
      </g>
     </g>
     <g id="text_4">
      <!-- 30 -->
      <g transform="translate(154.91727 392.598437)scale(0.1 -0.1)">
       <defs>
        <path id="DejaVuSans-33" d="M 2597 2516 
Q 3050 2419 3304 2112 
Q 3559 1806 3559 1356 
Q 3559 666 3084 287 
Q 2609 -91 1734 -91 
Q 1441 -91 1130 -33 
Q 819 25 488 141 
L 488 750 
Q 750 597 1062 519 
Q 1375 441 1716 441 
Q 2309 441 2620 675 
Q 2931 909 2931 1356 
Q 2931 1769 2642 2001 
Q 2353 2234 1838 2234 
L 1294 2234 
L 1294 2753 
L 1863 2753 
Q 2328 2753 2575 2939 
Q 2822 3125 2822 3475 
Q 2822 3834 2567 4026 
Q 2313 4219 1838 4219 
Q 1578 4219 1281 4162 
Q 984 4106 628 3988 
L 628 4550 
Q 988 4650 1302 4700 
Q 1616 4750 1894 4750 
Q 2613 4750 3031 4423 
Q 3450 4097 3450 3541 
Q 3450 3153 3228 2886 
Q 3006 2619 2597 2516 
z
" transform="scale(0.015625)"/>
       </defs>
       <use xlink:href="#DejaVuSans-33"/>
       <use xlink:href="#DejaVuSans-30" x="63.623047"/>
      </g>
     </g>
    </g>
    <g id="xtick_5">
     <g id="line2d_9">
      <path d="M 197.003201 378 
L 197.003201 51.84 
" clip-path="url(#p8d13c50971)" style="fill: none; stroke: #b0b0b0; stroke-width: 0.8; stroke-linecap: square"/>
     </g>
     <g id="line2d_10">
      <g>
       <use xlink:href="#mfcf0b47143" x="197.003201" y="378" style="stroke: #000000; stroke-width: 0.8"/>
      </g>
     </g>
     <g id="text_5">
      <!-- 40 -->
      <g transform="translate(190.640701 392.598437)scale(0.1 -0.1)">
       <defs>
        <path id="DejaVuSans-34" d="M 2419 4116 
L 825 1625 
L 2419 1625 
L 2419 4116 
z
M 2253 4666 
L 3047 4666 
L 3047 1625 
L 3713 1625 
L 3713 1100 
L 3047 1100 
L 3047 0 
L 2419 0 
L 2419 1100 
L 313 1100 
L 313 1709 
L 2253 4666 
z
" transform="scale(0.015625)"/>
       </defs>
       <use xlink:href="#DejaVuSans-34"/>
       <use xlink:href="#DejaVuSans-30" x="63.623047"/>
      </g>
     </g>
    </g>
    <g id="xtick_6">
     <g id="line2d_11">
      <path d="M 232.726633 378 
L 232.726633 51.84 
" clip-path="url(#p8d13c50971)" style="fill: none; stroke: #b0b0b0; stroke-width: 0.8; stroke-linecap: square"/>
     </g>
     <g id="line2d_12">
      <g>
       <use xlink:href="#mfcf0b47143" x="232.726633" y="378" style="stroke: #000000; stroke-width: 0.8"/>
      </g>
     </g>
     <g id="text_6">
      <!-- 50 -->
      <g transform="translate(226.364133 392.598437)scale(0.1 -0.1)">
       <defs>
        <path id="DejaVuSans-35" d="M 691 4666 
L 3169 4666 
L 3169 4134 
L 1269 4134 
L 1269 2991 
Q 1406 3038 1543 3061 
Q 1681 3084 1819 3084 
Q 2600 3084 3056 2656 
Q 3513 2228 3513 1497 
Q 3513 744 3044 326 
Q 2575 -91 1722 -91 
Q 1428 -91 1123 -41 
Q 819 9 494 109 
L 494 744 
Q 775 591 1075 516 
Q 1375 441 1709 441 
Q 2250 441 2565 725 
Q 2881 1009 2881 1497 
Q 2881 1984 2565 2268 
Q 2250 2553 1709 2553 
Q 1456 2553 1204 2497 
Q 953 2441 691 2322 
L 691 4666 
z
" transform="scale(0.015625)"/>
       </defs>
       <use xlink:href="#DejaVuSans-35"/>
       <use xlink:href="#DejaVuSans-30" x="63.623047"/>
      </g>
     </g>
    </g>
    <g id="xtick_7">
     <g id="line2d_13">
      <path d="M 268.450064 378 
L 268.450064 51.84 
" clip-path="url(#p8d13c50971)" style="fill: none; stroke: #b0b0b0; stroke-width: 0.8; stroke-linecap: square"/>
     </g>
     <g id="line2d_14">
      <g>
       <use xlink:href="#mfcf0b47143" x="268.450064" y="378" style="stroke: #000000; stroke-width: 0.8"/>
      </g>
     </g>
     <g id="text_7">
      <!-- 60 -->
      <g transform="translate(262.087564 392.598437)scale(0.1 -0.1)">
       <defs>
        <path id="DejaVuSans-36" d="M 2113 2584 
Q 1688 2584 1439 2293 
Q 1191 2003 1191 1497 
Q 1191 994 1439 701 
Q 1688 409 2113 409 
Q 2538 409 2786 701 
Q 3034 994 3034 1497 
Q 3034 2003 2786 2293 
Q 2538 2584 2113 2584 
z
M 3366 4563 
L 3366 3988 
Q 3128 4100 2886 4159 
Q 2644 4219 2406 4219 
Q 1781 4219 1451 3797 
Q 1122 3375 1075 2522 
Q 1259 2794 1537 2939 
Q 1816 3084 2150 3084 
Q 2853 3084 3261 2657 
Q 3669 2231 3669 1497 
Q 3669 778 3244 343 
Q 2819 -91 2113 -91 
Q 1303 -91 875 529 
Q 447 1150 447 2328 
Q 447 3434 972 4092 
Q 1497 4750 2381 4750 
Q 2619 4750 2861 4703 
Q 3103 4656 3366 4563 
z
" transform="scale(0.015625)"/>
       </defs>
       <use xlink:href="#DejaVuSans-36"/>
       <use xlink:href="#DejaVuSans-30" x="63.623047"/>
      </g>
     </g>
    </g>
    <g id="xtick_8">
     <g id="line2d_15">
      <path d="M 304.173496 378 
L 304.173496 51.84 
" clip-path="url(#p8d13c50971)" style="fill: none; stroke: #b0b0b0; stroke-width: 0.8; stroke-linecap: square"/>
     </g>
     <g id="line2d_16">
      <g>
       <use xlink:href="#mfcf0b47143" x="304.173496" y="378" style="stroke: #000000; stroke-width: 0.8"/>
      </g>
     </g>
     <g id="text_8">
      <!-- 70 -->
      <g transform="translate(297.810996 392.598437)scale(0.1 -0.1)">
       <defs>
        <path id="DejaVuSans-37" d="M 525 4666 
L 3525 4666 
L 3525 4397 
L 1831 0 
L 1172 0 
L 2766 4134 
L 525 4134 
L 525 4666 
z
" transform="scale(0.015625)"/>
       </defs>
       <use xlink:href="#DejaVuSans-37"/>
       <use xlink:href="#DejaVuSans-30" x="63.623047"/>
      </g>
     </g>
    </g>
    <g id="text_9">
     <!-- Epochs -->
     <g transform="translate(166.584375 406.276563)scale(0.1 -0.1)">
      <defs>
       <path id="DejaVuSans-45" d="M 628 4666 
L 3578 4666 
L 3578 4134 
L 1259 4134 
L 1259 2753 
L 3481 2753 
L 3481 2222 
L 1259 2222 
L 1259 531 
L 3634 531 
L 3634 0 
L 628 0 
L 628 4666 
z
" transform="scale(0.015625)"/>
       <path id="DejaVuSans-70" d="M 1159 525 
L 1159 -1331 
L 581 -1331 
L 581 3500 
L 1159 3500 
L 1159 2969 
Q 1341 3281 1617 3432 
Q 1894 3584 2278 3584 
Q 2916 3584 3314 3078 
Q 3713 2572 3713 1747 
Q 3713 922 3314 415 
Q 2916 -91 2278 -91 
Q 1894 -91 1617 61 
Q 1341 213 1159 525 
z
M 3116 1747 
Q 3116 2381 2855 2742 
Q 2594 3103 2138 3103 
Q 1681 3103 1420 2742 
Q 1159 2381 1159 1747 
Q 1159 1113 1420 752 
Q 1681 391 2138 391 
Q 2594 391 2855 752 
Q 3116 1113 3116 1747 
z
" transform="scale(0.015625)"/>
       <path id="DejaVuSans-6f" d="M 1959 3097 
Q 1497 3097 1228 2736 
Q 959 2375 959 1747 
Q 959 1119 1226 758 
Q 1494 397 1959 397 
Q 2419 397 2687 759 
Q 2956 1122 2956 1747 
Q 2956 2369 2687 2733 
Q 2419 3097 1959 3097 
z
M 1959 3584 
Q 2709 3584 3137 3096 
Q 3566 2609 3566 1747 
Q 3566 888 3137 398 
Q 2709 -91 1959 -91 
Q 1206 -91 779 398 
Q 353 888 353 1747 
Q 353 2609 779 3096 
Q 1206 3584 1959 3584 
z
" transform="scale(0.015625)"/>
       <path id="DejaVuSans-63" d="M 3122 3366 
L 3122 2828 
Q 2878 2963 2633 3030 
Q 2388 3097 2138 3097 
Q 1578 3097 1268 2742 
Q 959 2388 959 1747 
Q 959 1106 1268 751 
Q 1578 397 2138 397 
Q 2388 397 2633 464 
Q 2878 531 3122 666 
L 3122 134 
Q 2881 22 2623 -34 
Q 2366 -91 2075 -91 
Q 1284 -91 818 406 
Q 353 903 353 1747 
Q 353 2603 823 3093 
Q 1294 3584 2113 3584 
Q 2378 3584 2631 3529 
Q 2884 3475 3122 3366 
z
" transform="scale(0.015625)"/>
       <path id="DejaVuSans-68" d="M 3513 2113 
L 3513 0 
L 2938 0 
L 2938 2094 
Q 2938 2591 2744 2837 
Q 2550 3084 2163 3084 
Q 1697 3084 1428 2787 
Q 1159 2491 1159 1978 
L 1159 0 
L 581 0 
L 581 4863 
L 1159 4863 
L 1159 2956 
Q 1366 3272 1645 3428 
Q 1925 3584 2291 3584 
Q 2894 3584 3203 3211 
Q 3513 2838 3513 2113 
z
" transform="scale(0.015625)"/>
       <path id="DejaVuSans-73" d="M 2834 3397 
L 2834 2853 
Q 2591 2978 2328 3040 
Q 2066 3103 1784 3103 
Q 1356 3103 1142 2972 
Q 928 2841 928 2578 
Q 928 2378 1081 2264 
Q 1234 2150 1697 2047 
L 1894 2003 
Q 2506 1872 2764 1633 
Q 3022 1394 3022 966 
Q 3022 478 2636 193 
Q 2250 -91 1575 -91 
Q 1294 -91 989 -36 
Q 684 19 347 128 
L 347 722 
Q 666 556 975 473 
Q 1284 391 1588 391 
Q 1994 391 2212 530 
Q 2431 669 2431 922 
Q 2431 1156 2273 1281 
Q 2116 1406 1581 1522 
L 1381 1569 
Q 847 1681 609 1914 
Q 372 2147 372 2553 
Q 372 3047 722 3315 
Q 1072 3584 1716 3584 
Q 2034 3584 2315 3537 
Q 2597 3491 2834 3397 
z
" transform="scale(0.015625)"/>
      </defs>
      <use xlink:href="#DejaVuSans-45"/>
      <use xlink:href="#DejaVuSans-70" x="63.183594"/>
      <use xlink:href="#DejaVuSans-6f" x="126.660156"/>
      <use xlink:href="#DejaVuSans-63" x="187.841797"/>
      <use xlink:href="#DejaVuSans-68" x="242.822266"/>
      <use xlink:href="#DejaVuSans-73" x="306.201172"/>
     </g>
    </g>
   </g>
   <g id="matplotlib.axis_2">
    <g id="ytick_1">
     <g id="line2d_17">
      <path d="M 45 318.58228 
L 324 318.58228 
" clip-path="url(#p8d13c50971)" style="fill: none; stroke: #b0b0b0; stroke-width: 0.8; stroke-linecap: square"/>
     </g>
     <g id="line2d_18">
      <defs>
       <path id="m9572c68824" d="M 0 0 
L -3.5 0 
" style="stroke: #000000; stroke-width: 0.8"/>
      </defs>
      <g>
       <use xlink:href="#m9572c68824" x="45" y="318.58228" style="stroke: #000000; stroke-width: 0.8"/>
      </g>
     </g>
     <g id="text_10">
      <!-- 0.4 -->
      <g transform="translate(22.096875 322.381499)scale(0.1 -0.1)">
       <defs>
        <path id="DejaVuSans-2e" d="M 684 794 
L 1344 794 
L 1344 0 
L 684 0 
L 684 794 
z
" transform="scale(0.015625)"/>
       </defs>
       <use xlink:href="#DejaVuSans-30"/>
       <use xlink:href="#DejaVuSans-2e" x="63.623047"/>
       <use xlink:href="#DejaVuSans-34" x="95.410156"/>
      </g>
     </g>
    </g>
    <g id="ytick_2">
     <g id="line2d_19">
      <path d="M 45 255.819391 
L 324 255.819391 
" clip-path="url(#p8d13c50971)" style="fill: none; stroke: #b0b0b0; stroke-width: 0.8; stroke-linecap: square"/>
     </g>
     <g id="line2d_20">
      <g>
       <use xlink:href="#m9572c68824" x="45" y="255.819391" style="stroke: #000000; stroke-width: 0.8"/>
      </g>
     </g>
     <g id="text_11">
      <!-- 0.6 -->
      <g transform="translate(22.096875 259.61861)scale(0.1 -0.1)">
       <use xlink:href="#DejaVuSans-30"/>
       <use xlink:href="#DejaVuSans-2e" x="63.623047"/>
       <use xlink:href="#DejaVuSans-36" x="95.410156"/>
      </g>
     </g>
    </g>
    <g id="ytick_3">
     <g id="line2d_21">
      <path d="M 45 193.056501 
L 324 193.056501 
" clip-path="url(#p8d13c50971)" style="fill: none; stroke: #b0b0b0; stroke-width: 0.8; stroke-linecap: square"/>
     </g>
     <g id="line2d_22">
      <g>
       <use xlink:href="#m9572c68824" x="45" y="193.056501" style="stroke: #000000; stroke-width: 0.8"/>
      </g>
     </g>
     <g id="text_12">
      <!-- 0.8 -->
      <g transform="translate(22.096875 196.85572)scale(0.1 -0.1)">
       <defs>
        <path id="DejaVuSans-38" d="M 2034 2216 
Q 1584 2216 1326 1975 
Q 1069 1734 1069 1313 
Q 1069 891 1326 650 
Q 1584 409 2034 409 
Q 2484 409 2743 651 
Q 3003 894 3003 1313 
Q 3003 1734 2745 1975 
Q 2488 2216 2034 2216 
z
M 1403 2484 
Q 997 2584 770 2862 
Q 544 3141 544 3541 
Q 544 4100 942 4425 
Q 1341 4750 2034 4750 
Q 2731 4750 3128 4425 
Q 3525 4100 3525 3541 
Q 3525 3141 3298 2862 
Q 3072 2584 2669 2484 
Q 3125 2378 3379 2068 
Q 3634 1759 3634 1313 
Q 3634 634 3220 271 
Q 2806 -91 2034 -91 
Q 1263 -91 848 271 
Q 434 634 434 1313 
Q 434 1759 690 2068 
Q 947 2378 1403 2484 
z
M 1172 3481 
Q 1172 3119 1398 2916 
Q 1625 2713 2034 2713 
Q 2441 2713 2670 2916 
Q 2900 3119 2900 3481 
Q 2900 3844 2670 4047 
Q 2441 4250 2034 4250 
Q 1625 4250 1398 4047 
Q 1172 3844 1172 3481 
z
" transform="scale(0.015625)"/>
       </defs>
       <use xlink:href="#DejaVuSans-30"/>
       <use xlink:href="#DejaVuSans-2e" x="63.623047"/>
       <use xlink:href="#DejaVuSans-38" x="95.410156"/>
      </g>
     </g>
    </g>
    <g id="ytick_4">
     <g id="line2d_23">
      <path d="M 45 130.293612 
L 324 130.293612 
" clip-path="url(#p8d13c50971)" style="fill: none; stroke: #b0b0b0; stroke-width: 0.8; stroke-linecap: square"/>
     </g>
     <g id="line2d_24">
      <g>
       <use xlink:href="#m9572c68824" x="45" y="130.293612" style="stroke: #000000; stroke-width: 0.8"/>
      </g>
     </g>
     <g id="text_13">
      <!-- 1.0 -->
      <g transform="translate(22.096875 134.092831)scale(0.1 -0.1)">
       <use xlink:href="#DejaVuSans-31"/>
       <use xlink:href="#DejaVuSans-2e" x="63.623047"/>
       <use xlink:href="#DejaVuSans-30" x="95.410156"/>
      </g>
     </g>
    </g>
    <g id="ytick_5">
     <g id="line2d_25">
      <path d="M 45 67.530722 
L 324 67.530722 
" clip-path="url(#p8d13c50971)" style="fill: none; stroke: #b0b0b0; stroke-width: 0.8; stroke-linecap: square"/>
     </g>
     <g id="line2d_26">
      <g>
       <use xlink:href="#m9572c68824" x="45" y="67.530722" style="stroke: #000000; stroke-width: 0.8"/>
      </g>
     </g>
     <g id="text_14">
      <!-- 1.2 -->
      <g transform="translate(22.096875 71.329941)scale(0.1 -0.1)">
       <use xlink:href="#DejaVuSans-31"/>
       <use xlink:href="#DejaVuSans-2e" x="63.623047"/>
       <use xlink:href="#DejaVuSans-32" x="95.410156"/>
      </g>
     </g>
    </g>
    <g id="text_15">
     <!-- Cross Entropy Loss ($\bar{x} \pm s \div \sqrt{N}$) -->
     <g transform="translate(15.996875 293.82)rotate(-90)scale(0.1 -0.1)">
      <defs>
       <path id="DejaVuSans-43" d="M 4122 4306 
L 4122 3641 
Q 3803 3938 3442 4084 
Q 3081 4231 2675 4231 
Q 1875 4231 1450 3742 
Q 1025 3253 1025 2328 
Q 1025 1406 1450 917 
Q 1875 428 2675 428 
Q 3081 428 3442 575 
Q 3803 722 4122 1019 
L 4122 359 
Q 3791 134 3420 21 
Q 3050 -91 2638 -91 
Q 1578 -91 968 557 
Q 359 1206 359 2328 
Q 359 3453 968 4101 
Q 1578 4750 2638 4750 
Q 3056 4750 3426 4639 
Q 3797 4528 4122 4306 
z
" transform="scale(0.015625)"/>
       <path id="DejaVuSans-72" d="M 2631 2963 
Q 2534 3019 2420 3045 
Q 2306 3072 2169 3072 
Q 1681 3072 1420 2755 
Q 1159 2438 1159 1844 
L 1159 0 
L 581 0 
L 581 3500 
L 1159 3500 
L 1159 2956 
Q 1341 3275 1631 3429 
Q 1922 3584 2338 3584 
Q 2397 3584 2469 3576 
Q 2541 3569 2628 3553 
L 2631 2963 
z
" transform="scale(0.015625)"/>
       <path id="DejaVuSans-20" transform="scale(0.015625)"/>
       <path id="DejaVuSans-6e" d="M 3513 2113 
L 3513 0 
L 2938 0 
L 2938 2094 
Q 2938 2591 2744 2837 
Q 2550 3084 2163 3084 
Q 1697 3084 1428 2787 
Q 1159 2491 1159 1978 
L 1159 0 
L 581 0 
L 581 3500 
L 1159 3500 
L 1159 2956 
Q 1366 3272 1645 3428 
Q 1925 3584 2291 3584 
Q 2894 3584 3203 3211 
Q 3513 2838 3513 2113 
z
" transform="scale(0.015625)"/>
       <path id="DejaVuSans-74" d="M 1172 4494 
L 1172 3500 
L 2356 3500 
L 2356 3053 
L 1172 3053 
L 1172 1153 
Q 1172 725 1289 603 
Q 1406 481 1766 481 
L 2356 481 
L 2356 0 
L 1766 0 
Q 1100 0 847 248 
Q 594 497 594 1153 
L 594 3053 
L 172 3053 
L 172 3500 
L 594 3500 
L 594 4494 
L 1172 4494 
z
" transform="scale(0.015625)"/>
       <path id="DejaVuSans-79" d="M 2059 -325 
Q 1816 -950 1584 -1140 
Q 1353 -1331 966 -1331 
L 506 -1331 
L 506 -850 
L 844 -850 
Q 1081 -850 1212 -737 
Q 1344 -625 1503 -206 
L 1606 56 
L 191 3500 
L 800 3500 
L 1894 763 
L 2988 3500 
L 3597 3500 
L 2059 -325 
z
" transform="scale(0.015625)"/>
       <path id="DejaVuSans-4c" d="M 628 4666 
L 1259 4666 
L 1259 531 
L 3531 531 
L 3531 0 
L 628 0 
L 628 4666 
z
" transform="scale(0.015625)"/>
       <path id="DejaVuSans-28" d="M 1984 4856 
Q 1566 4138 1362 3434 
Q 1159 2731 1159 2009 
Q 1159 1288 1364 580 
Q 1569 -128 1984 -844 
L 1484 -844 
Q 1016 -109 783 600 
Q 550 1309 550 2009 
Q 550 2706 781 3412 
Q 1013 4119 1484 4856 
L 1984 4856 
z
" transform="scale(0.015625)"/>
       <path id="DejaVuSans-304" d="M -2518 4769 
L -650 4769 
L -650 4306 
L -2518 4306 
L -2518 4769 
z
" transform="scale(0.015625)"/>
       <path id="DejaVuSans-Oblique-78" d="M 3841 3500 
L 2234 1784 
L 3219 0 
L 2559 0 
L 1819 1388 
L 531 0 
L -166 0 
L 1556 1844 
L 641 3500 
L 1300 3500 
L 1972 2234 
L 3144 3500 
L 3841 3500 
z
" transform="scale(0.015625)"/>
       <path id="DejaVuSans-b1" d="M 2944 4013 
L 2944 2803 
L 4684 2803 
L 4684 2272 
L 2944 2272 
L 2944 1063 
L 2419 1063 
L 2419 2272 
L 678 2272 
L 678 2803 
L 2419 2803 
L 2419 4013 
L 2944 4013 
z
M 678 531 
L 4684 531 
L 4684 0 
L 678 0 
L 678 531 
z
" transform="scale(0.015625)"/>
       <path id="DejaVuSans-Oblique-73" d="M 3200 3397 
L 3091 2853 
Q 2863 2978 2609 3040 
Q 2356 3103 2088 3103 
Q 1634 3103 1373 2948 
Q 1113 2794 1113 2528 
Q 1113 2219 1719 2053 
Q 1766 2041 1788 2034 
L 1972 1978 
Q 2547 1819 2739 1644 
Q 2931 1469 2931 1166 
Q 2931 609 2489 259 
Q 2047 -91 1331 -91 
Q 1053 -91 747 -37 
Q 441 16 72 128 
L 184 722 
Q 500 559 806 475 
Q 1113 391 1394 391 
Q 1816 391 2080 572 
Q 2344 753 2344 1031 
Q 2344 1331 1650 1516 
L 1591 1531 
L 1394 1581 
Q 956 1697 753 1886 
Q 550 2075 550 2369 
Q 550 2928 970 3256 
Q 1391 3584 2113 3584 
Q 2397 3584 2667 3537 
Q 2938 3491 3200 3397 
z
" transform="scale(0.015625)"/>
       <path id="DejaVuSans-f7" d="M 2297 3547 
L 3066 3547 
L 3066 2778 
L 2297 2778 
L 2297 3547 
z
M 2297 1234 
L 3066 1234 
L 3066 469 
L 2297 469 
L 2297 1234 
z
M 678 2272 
L 4684 2272 
L 4684 1741 
L 678 1741 
L 678 2272 
z
" transform="scale(0.015625)"/>
       <path id="STIXSizeOneSym-Regular-221a" d="M 6970 9933 
L 3373 -1888 
L 3104 -1888 
L 1626 2918 
Q 1555 3149 1465 3251 
Q 1376 3354 1229 3354 
Q 1011 3354 794 3181 
L 717 3309 
L 1766 4115 
L 1926 4115 
L 3379 -602 
L 3405 -602 
L 6605 9933 
L 6970 9933 
z
" transform="scale(0.015625)"/>
       <path id="DejaVuSans-Oblique-4e" d="M 1081 4666 
L 1931 4666 
L 3219 666 
L 4000 4666 
L 4616 4666 
L 3706 0 
L 2853 0 
L 1569 4025 
L 788 0 
L 172 0 
L 1081 4666 
z
" transform="scale(0.015625)"/>
       <path id="DejaVuSans-29" d="M 513 4856 
L 1013 4856 
Q 1481 4119 1714 3412 
Q 1947 2706 1947 2009 
Q 1947 1309 1714 600 
Q 1481 -109 1013 -844 
L 513 -844 
Q 928 -128 1133 580 
Q 1338 1288 1338 2009 
Q 1338 2731 1133 3434 
Q 928 4138 513 4856 
z
" transform="scale(0.015625)"/>
      </defs>
      <use xlink:href="#DejaVuSans-43" transform="translate(0 0.578125)"/>
      <use xlink:href="#DejaVuSans-72" transform="translate(69.824219 0.578125)"/>
      <use xlink:href="#DejaVuSans-6f" transform="translate(110.9375 0.578125)"/>
      <use xlink:href="#DejaVuSans-73" transform="translate(172.119141 0.578125)"/>
      <use xlink:href="#DejaVuSans-73" transform="translate(224.21875 0.578125)"/>
      <use xlink:href="#DejaVuSans-20" transform="translate(276.318359 0.578125)"/>
      <use xlink:href="#DejaVuSans-45" transform="translate(308.105469 0.578125)"/>
      <use xlink:href="#DejaVuSans-6e" transform="translate(371.289062 0.578125)"/>
      <use xlink:href="#DejaVuSans-74" transform="translate(434.667969 0.578125)"/>
      <use xlink:href="#DejaVuSans-72" transform="translate(473.876953 0.578125)"/>
      <use xlink:href="#DejaVuSans-6f" transform="translate(514.990234 0.578125)"/>
      <use xlink:href="#DejaVuSans-70" transform="translate(576.171875 0.578125)"/>
      <use xlink:href="#DejaVuSans-79" transform="translate(639.648438 0.578125)"/>
      <use xlink:href="#DejaVuSans-20" transform="translate(698.828125 0.578125)"/>
      <use xlink:href="#DejaVuSans-4c" transform="translate(730.615234 0.578125)"/>
      <use xlink:href="#DejaVuSans-6f" transform="translate(786.328125 0.578125)"/>
      <use xlink:href="#DejaVuSans-73" transform="translate(847.509766 0.578125)"/>
      <use xlink:href="#DejaVuSans-73" transform="translate(899.609375 0.578125)"/>
      <use xlink:href="#DejaVuSans-20" transform="translate(951.708984 0.578125)"/>
      <use xlink:href="#DejaVuSans-28" transform="translate(983.496094 0.578125)"/>
      <use xlink:href="#DejaVuSans-304" transform="translate(1084.648438 0.484375)"/>
      <use xlink:href="#DejaVuSans-Oblique-78" transform="translate(1022.509766 0.578125)"/>
      <use xlink:href="#DejaVuSans-b1" transform="translate(1101.171875 0.578125)"/>
      <use xlink:href="#DejaVuSans-Oblique-73" transform="translate(1204.443359 0.578125)"/>
      <use xlink:href="#DejaVuSans-f7" transform="translate(1276.025391 0.578125)"/>
      <use xlink:href="#STIXSizeOneSym-Regular-221a" transform="translate(1379.296875 17.09375)scale(0.563912)"/>
      <use xlink:href="#DejaVuSans-Oblique-4e" transform="translate(1451.385239 0.84375)"/>
      <use xlink:href="#DejaVuSans-29" transform="translate(1538.689926 0.578125)"/>
      <path d="M 1438.885239 97.5 
L 1438.885239 103.75 
L 1538.689926 103.75 
L 1538.689926 97.5 
L 1438.885239 97.5 
z
"/>
     </g>
    </g>
   </g>
   <g id="line2d_27">
    <path d="M 59.831145 -1 
L 61.254161 61.120284 
L 64.826504 123.436777 
L 68.398848 158.819193 
L 71.971191 182.338479 
L 75.543534 200.087922 
L 79.115877 213.547653 
L 82.68822 223.859529 
L 86.260563 232.899101 
L 89.832907 239.931494 
L 93.40525 246.177143 
L 96.977593 251.364679 
L 100.549936 255.472875 
L 104.122279 259.858877 
L 107.694622 263.851326 
L 111.266965 266.656637 
L 114.839309 268.905473 
L 118.411652 271.331852 
L 121.983995 273.764501 
L 125.556338 275.506517 
L 129.128681 277.40007 
L 132.701024 279.34654 
L 136.273367 280.478439 
L 139.845711 282.17382 
L 143.418054 283.261115 
L 146.990397 283.515664 
L 150.56274 284.862567 
L 154.135083 285.832092 
L 157.707426 286.558572 
L 161.27977 286.821987 
L 164.852113 288.070319 
L 168.424456 288.810339 
L 171.996799 288.881258 
L 175.569142 289.611701 
L 179.141485 289.940334 
L 182.713828 290.586843 
L 186.286172 290.747479 
L 189.858515 291.027125 
L 193.430858 291.283701 
L 197.003201 291.445312 
L 200.575544 291.922511 
L 204.147887 292.301601 
L 207.72023 292.592049 
L 211.292574 292.598108 
L 214.864917 292.513815 
L 218.43726 292.755601 
L 222.009603 292.876804 
L 225.581946 293.114219 
L 229.154289 293.044488 
" clip-path="url(#p8d13c50971)" style="fill: none; stroke: #1f77b4; stroke-width: 1.5; stroke-linecap: square"/>
   </g>
   <g id="line2d_28">
    <path d="M 58.207257 -1 
L 61.254161 124.944598 
L 64.826504 182.927406 
L 68.398848 216.09404 
L 71.971191 237.05174 
L 75.543534 252.272777 
L 79.115877 263.602606 
L 82.68822 273.142003 
L 86.260563 281.317624 
L 89.832907 287.284975 
L 93.40525 292.917839 
L 96.977593 296.983931 
L 100.549936 301.438563 
L 104.122279 305.178206 
L 107.694622 307.851413 
L 111.266965 310.97949 
L 114.839309 313.080253 
L 118.411652 315.672044 
L 121.983995 317.687372 
L 125.556338 319.316084 
L 129.128681 320.7519 
L 132.701024 323.166685 
L 136.273367 323.913028 
L 139.845711 325.357758 
L 143.418054 326.167954 
L 146.990397 327.304936 
L 150.56274 327.035951 
L 154.135083 329.148533 
L 157.707426 329.577801 
L 161.27977 330.012007 
L 164.852113 331.392727 
L 168.424456 331.41001 
L 171.996799 332.692578 
L 175.569142 332.337576 
L 179.141485 333.285402 
L 182.713828 333.527317 
L 186.286172 334.936241 
L 189.858515 334.798808 
L 193.430858 335.262011 
L 197.003201 335.072941 
L 200.575544 335.230207 
L 204.147887 335.687516 
L 207.72023 336.69097 
L 211.292574 336.386409 
L 214.864917 337.13526 
L 218.43726 337.029912 
L 222.009603 337.624752 
L 225.581946 337.381467 
L 229.154289 338.415419 
L 232.726633 338.018749 
L 236.298976 338.490415 
L 239.871319 338.331537 
L 243.443662 338.967354 
L 247.016005 339.521599 
L 250.588348 338.831725 
L 254.160691 338.505646 
" clip-path="url(#p8d13c50971)" style="fill: none; stroke: #ff7f0e; stroke-width: 1.5; stroke-linecap: square"/>
   </g>
   <g id="line2d_29">
    <path d="M 65.057058 -1 
L 68.398848 29.24553 
L 71.971191 53.306844 
L 75.543534 72.430766 
L 79.115877 87.563066 
L 82.68822 96.998171 
L 86.260563 107.126489 
L 89.832907 116.020041 
L 93.40525 122.701799 
L 96.977593 127.974315 
L 100.549936 132.692277 
L 104.122279 135.49332 
L 107.694622 143.1532 
L 111.266965 146.211245 
L 114.839309 151.890114 
L 118.411652 154.422509 
L 121.983995 158.729741 
L 125.556338 160.24617 
L 129.128681 161.596849 
L 132.701024 163.768108 
L 136.273367 166.852499 
L 139.845711 169.409946 
L 143.418054 172.129128 
L 146.990397 175.497238 
L 150.56274 175.145621 
L 154.135083 178.186257 
L 157.707426 178.923464 
L 161.27977 180.476487 
L 164.852113 182.808451 
L 168.424456 182.576056 
L 171.996799 184.883811 
L 175.569142 185.914389 
L 179.141485 184.906525 
L 182.713828 186.150376 
L 186.286172 186.872771 
L 189.858515 188.655793 
L 193.430858 191.183439 
L 197.003201 191.647162 
L 200.575544 191.643811 
L 204.147887 192.158947 
L 207.72023 193.619457 
L 211.292574 192.458023 
L 214.864917 193.27907 
L 218.43726 195.291958 
L 222.009603 195.945257 
L 225.581946 196.052557 
L 229.154289 196.602944 
L 232.726633 195.59378 
L 236.298976 194.315667 
L 239.871319 196.114927 
L 243.443662 197.843825 
L 247.016005 199.379993 
" clip-path="url(#p8d13c50971)" style="fill: none; stroke: #2ca02c; stroke-width: 1.5; stroke-linecap: square"/>
   </g>
   <g id="line2d_30">
    <path d="M 58.495087 -1 
L 61.254161 119.502076 
L 64.826504 178.851176 
L 68.398848 212.375347 
L 71.971191 234.164972 
L 75.543534 250.174655 
L 79.115877 262.15092 
L 82.68822 271.529446 
L 86.260563 278.978829 
L 89.832907 285.213768 
L 93.40525 290.648926 
L 96.977593 295.283571 
L 100.549936 299.169165 
L 104.122279 302.936564 
L 107.694622 305.844422 
L 111.266965 308.433903 
L 114.839309 310.719958 
L 118.411652 312.875199 
L 121.983995 315.01894 
L 125.556338 316.35591 
L 129.128681 318.432989 
L 132.701024 319.176924 
L 136.273367 321.105853 
L 139.845711 322.051509 
L 143.418054 323.369739 
L 146.990397 323.841679 
L 150.56274 324.952397 
L 154.135083 325.657453 
L 157.707426 326.233868 
L 161.27977 326.701248 
L 164.852113 326.991347 
L 168.424456 327.96437 
L 171.996799 328.552925 
L 175.569142 329.053196 
L 179.141485 328.750302 
L 182.713828 329.922551 
L 186.286172 329.858495 
L 189.858515 330.239667 
L 193.430858 330.149195 
L 197.003201 330.518945 
L 200.575544 330.747728 
L 204.147887 330.798714 
L 207.72023 330.807468 
" clip-path="url(#p8d13c50971)" style="fill: none; stroke: #d62728; stroke-width: 1.5; stroke-linecap: square"/>
   </g>
   <g id="line2d_31">
    <path d="M 57.681818 43.226304 
L 61.254161 117.972221 
L 64.826504 149.786676 
L 68.398848 168.784387 
L 71.971191 182.62359 
L 75.543534 191.9916 
L 79.115877 199.591224 
L 82.68822 205.207125 
L 86.260563 210.51102 
L 89.832907 215.492572 
L 93.40525 218.456826 
L 96.977593 221.681207 
L 100.549936 223.20672 
L 104.122279 226.137785 
L 107.694622 229.000316 
L 111.266965 230.396614 
L 114.839309 231.62172 
L 118.411652 233.761849 
L 121.983995 235.603352 
L 125.556338 234.914525 
L 129.128681 236.401238 
L 132.701024 237.160856 
L 136.273367 238.593498 
L 139.845711 239.53576 
L 143.418054 240.82687 
L 146.990397 240.757895 
L 150.56274 239.637158 
L 154.135083 242.675979 
" clip-path="url(#p8d13c50971)" style="fill: none; stroke-dasharray: 5.55,2.4; stroke-dashoffset: 0; stroke: #9467bd; stroke-width: 1.5"/>
   </g>
   <g id="line2d_32">
    <path d="M 59.094598 -1 
L 61.254161 99.037828 
L 64.826504 159.414692 
L 68.398848 190.388377 
L 71.971191 208.55609 
L 75.543534 223.232889 
L 79.115877 232.850981 
L 82.68822 242.35734 
L 86.260563 249.737701 
L 89.832907 256.03166 
L 93.40525 259.091144 
L 96.977593 262.629295 
L 100.549936 268.108638 
L 104.122279 269.877633 
L 107.694622 273.264024 
L 111.266965 276.147629 
L 114.839309 277.60563 
L 118.411652 277.578285 
L 121.983995 277.902126 
L 125.556338 280.13464 
L 129.128681 282.623695 
L 132.701024 284.430257 
L 136.273367 282.345482 
L 139.845711 284.89798 
L 143.418054 284.832113 
L 146.990397 286.183592 
L 150.56274 284.717121 
L 154.135083 286.64405 
L 157.707426 288.339488 
L 161.27977 287.872942 
L 164.852113 288.91429 
L 168.424456 289.006378 
L 171.996799 288.781184 
L 175.569142 288.661845 
L 179.141485 289.336922 
L 182.713828 288.92337 
L 186.286172 289.492343 
" clip-path="url(#p8d13c50971)" style="fill: none; stroke-dasharray: 5.55,2.4; stroke-dashoffset: 0; stroke: #8c564b; stroke-width: 1.5"/>
   </g>
   <g id="line2d_33">
    <path d="M 64.521852 -1 
L 64.826504 6.392836 
L 68.398848 55.182316 
L 71.971191 87.232707 
L 75.543534 109.471542 
L 79.115877 125.864512 
L 82.68822 139.597452 
L 86.260563 149.831456 
L 89.832907 158.217134 
L 93.40525 165.003876 
L 96.977593 171.079522 
L 100.549936 176.760011 
L 104.122279 181.356707 
L 107.694622 184.725899 
L 111.266965 187.932463 
L 114.839309 190.112796 
L 118.411652 193.242097 
L 121.983995 195.694501 
L 125.556338 197.961536 
L 129.128681 199.003468 
L 132.701024 201.210475 
L 136.273367 203.053413 
L 139.845711 203.66274 
L 143.418054 204.871566 
L 146.990397 206.058492 
L 150.56274 206.908322 
L 154.135083 207.481384 
L 157.707426 208.288711 
L 161.27977 209.405558 
L 164.852113 209.396424 
L 168.424456 209.702202 
L 171.996799 210.571437 
L 175.569142 211.937686 
L 179.141485 211.481419 
L 182.713828 211.688409 
L 186.286172 212.60377 
L 189.858515 212.46648 
L 193.430858 213.04292 
L 197.003201 212.832605 
L 200.575544 212.101997 
L 204.147887 212.329505 
L 207.72023 213.461361 
L 211.292574 213.901396 
L 214.864917 214.20562 
L 218.43726 214.72724 
L 222.009603 214.895566 
L 225.581946 214.42571 
L 229.154289 213.79692 
L 232.726633 214.273174 
L 236.298976 213.909733 
L 239.871319 214.44039 
L 243.443662 213.785724 
" clip-path="url(#p8d13c50971)" style="fill: none; stroke-dasharray: 5.55,2.4; stroke-dashoffset: 0; stroke: #e377c2; stroke-width: 1.5"/>
   </g>
   <g id="line2d_34">
    <path d="M 60.345196 -1 
L 61.254161 45.250161 
L 64.826504 121.66623 
L 68.398848 164.395474 
L 71.971191 191.653626 
L 75.543534 211.380662 
L 79.115877 227.546437 
L 82.68822 238.928294 
L 86.260563 250.266837 
L 89.832907 258.346548 
L 93.40525 265.10814 
L 96.977593 271.471686 
L 100.549936 276.919457 
L 104.122279 281.502018 
L 107.694622 285.876346 
L 111.266965 289.752006 
L 114.839309 293.182197 
L 118.411652 296.661824 
L 121.983995 299.127149 
L 125.556338 301.901638 
L 129.128681 304.233445 
L 132.701024 306.664223 
L 136.273367 308.788549 
L 139.845711 310.944208 
L 143.418054 311.998651 
L 146.990397 314.306942 
L 150.56274 315.644113 
L 154.135083 317.063224 
L 157.707426 318.570311 
L 161.27977 319.834447 
L 164.852113 321.09247 
L 168.424456 322.111038 
L 171.996799 322.732837 
L 175.569142 324.173567 
L 179.141485 324.323101 
L 182.713828 325.64439 
L 186.286172 326.181472 
L 189.858515 327.994925 
L 193.430858 328.378621 
L 197.003201 329.339027 
L 200.575544 330.47231 
L 204.147887 330.705889 
L 207.72023 330.809937 
L 211.292574 331.927013 
L 214.864917 331.99199 
L 218.43726 332.749228 
L 222.009603 333.082404 
L 225.581946 333.224533 
L 229.154289 334.26091 
L 232.726633 335.082839 
L 236.298976 336.317303 
L 239.871319 335.824594 
L 243.443662 336.127456 
L 247.016005 336.473243 
L 250.588348 336.89375 
L 254.160691 337.652486 
L 257.733035 337.610939 
L 261.305378 338.28451 
L 264.877721 338.366066 
L 268.450064 338.612876 
L 272.022407 338.977467 
L 275.59475 338.86706 
L 279.167093 339.433359 
L 282.739437 339.874067 
L 286.31178 341.110799 
L 289.884123 340.617084 
L 293.456466 341.328315 
L 297.028809 341.114755 
L 300.601152 340.820475 
L 304.173496 341.526035 
L 307.745839 341.537686 
L 311.318182 341.77261 
" clip-path="url(#p8d13c50971)" style="fill: none; stroke-dasharray: 5.55,2.4; stroke-dashoffset: 0; stroke: #7f7f7f; stroke-width: 1.5"/>
   </g>
   <g id="patch_3">
    <path d="M 45 378 
L 45 51.84 
" style="fill: none; stroke: #000000; stroke-width: 0.8; stroke-linejoin: miter; stroke-linecap: square"/>
   </g>
   <g id="patch_4">
    <path d="M 324 378 
L 324 51.84 
" style="fill: none; stroke: #000000; stroke-width: 0.8; stroke-linejoin: miter; stroke-linecap: square"/>
   </g>
   <g id="patch_5">
    <path d="M 45 378 
L 324 378 
" style="fill: none; stroke: #000000; stroke-width: 0.8; stroke-linejoin: miter; stroke-linecap: square"/>
   </g>
   <g id="patch_6">
    <path d="M 45 51.84 
L 324 51.84 
" style="fill: none; stroke: #000000; stroke-width: 0.8; stroke-linejoin: miter; stroke-linecap: square"/>
   </g>
   <g id="legend_1">
    <g id="patch_7">
     <path d="M 200.907812 178.93375 
L 317 178.93375 
Q 319 178.93375 319 176.93375 
L 319 58.84 
Q 319 56.84 317 56.84 
L 200.907812 56.84 
Q 198.907812 56.84 198.907812 58.84 
L 198.907812 176.93375 
Q 198.907812 178.93375 200.907812 178.93375 
z
" style="fill: #ffffff; opacity: 0.8; stroke: #cccccc; stroke-linejoin: miter"/>
    </g>
    <g id="line2d_35">
     <path d="M 202.907812 64.938437 
L 212.907812 64.938437 
L 222.907812 64.938437 
" style="fill: none; stroke: #1f77b4; stroke-width: 1.5; stroke-linecap: square"/>
    </g>
    <g id="text_16">
     <!-- vit_b_16 -->
     <g transform="translate(230.907812 68.438437)scale(0.1 -0.1)">
      <defs>
       <path id="DejaVuSans-76" d="M 191 3500 
L 800 3500 
L 1894 563 
L 2988 3500 
L 3597 3500 
L 2284 0 
L 1503 0 
L 191 3500 
z
" transform="scale(0.015625)"/>
       <path id="DejaVuSans-69" d="M 603 3500 
L 1178 3500 
L 1178 0 
L 603 0 
L 603 3500 
z
M 603 4863 
L 1178 4863 
L 1178 4134 
L 603 4134 
L 603 4863 
z
" transform="scale(0.015625)"/>
       <path id="DejaVuSans-5f" d="M 3263 -1063 
L 3263 -1509 
L -63 -1509 
L -63 -1063 
L 3263 -1063 
z
" transform="scale(0.015625)"/>
       <path id="DejaVuSans-62" d="M 3116 1747 
Q 3116 2381 2855 2742 
Q 2594 3103 2138 3103 
Q 1681 3103 1420 2742 
Q 1159 2381 1159 1747 
Q 1159 1113 1420 752 
Q 1681 391 2138 391 
Q 2594 391 2855 752 
Q 3116 1113 3116 1747 
z
M 1159 2969 
Q 1341 3281 1617 3432 
Q 1894 3584 2278 3584 
Q 2916 3584 3314 3078 
Q 3713 2572 3713 1747 
Q 3713 922 3314 415 
Q 2916 -91 2278 -91 
Q 1894 -91 1617 61 
Q 1341 213 1159 525 
L 1159 0 
L 581 0 
L 581 4863 
L 1159 4863 
L 1159 2969 
z
" transform="scale(0.015625)"/>
      </defs>
      <use xlink:href="#DejaVuSans-76"/>
      <use xlink:href="#DejaVuSans-69" x="59.179688"/>
      <use xlink:href="#DejaVuSans-74" x="86.962891"/>
      <use xlink:href="#DejaVuSans-5f" x="126.171875"/>
      <use xlink:href="#DejaVuSans-62" x="176.171875"/>
      <use xlink:href="#DejaVuSans-5f" x="239.648438"/>
      <use xlink:href="#DejaVuSans-31" x="289.648438"/>
      <use xlink:href="#DejaVuSans-36" x="353.271484"/>
     </g>
    </g>
    <g id="line2d_36">
     <path d="M 202.907812 79.894687 
L 212.907812 79.894687 
L 222.907812 79.894687 
" style="fill: none; stroke: #ff7f0e; stroke-width: 1.5; stroke-linecap: square"/>
    </g>
    <g id="text_17">
     <!-- swin_b -->
     <g transform="translate(230.907812 83.394687)scale(0.1 -0.1)">
      <defs>
       <path id="DejaVuSans-77" d="M 269 3500 
L 844 3500 
L 1563 769 
L 2278 3500 
L 2956 3500 
L 3675 769 
L 4391 3500 
L 4966 3500 
L 4050 0 
L 3372 0 
L 2619 2869 
L 1863 0 
L 1184 0 
L 269 3500 
z
" transform="scale(0.015625)"/>
      </defs>
      <use xlink:href="#DejaVuSans-73"/>
      <use xlink:href="#DejaVuSans-77" x="52.099609"/>
      <use xlink:href="#DejaVuSans-69" x="133.886719"/>
      <use xlink:href="#DejaVuSans-6e" x="161.669922"/>
      <use xlink:href="#DejaVuSans-5f" x="225.048828"/>
      <use xlink:href="#DejaVuSans-62" x="275.048828"/>
     </g>
    </g>
    <g id="line2d_37">
     <path d="M 202.907812 94.850937 
L 212.907812 94.850937 
L 222.907812 94.850937 
" style="fill: none; stroke: #2ca02c; stroke-width: 1.5; stroke-linecap: square"/>
    </g>
    <g id="text_18">
     <!-- beit_b_16 -->
     <g transform="translate(230.907812 98.350937)scale(0.1 -0.1)">
      <defs>
       <path id="DejaVuSans-65" d="M 3597 1894 
L 3597 1613 
L 953 1613 
Q 991 1019 1311 708 
Q 1631 397 2203 397 
Q 2534 397 2845 478 
Q 3156 559 3463 722 
L 3463 178 
Q 3153 47 2828 -22 
Q 2503 -91 2169 -91 
Q 1331 -91 842 396 
Q 353 884 353 1716 
Q 353 2575 817 3079 
Q 1281 3584 2069 3584 
Q 2775 3584 3186 3129 
Q 3597 2675 3597 1894 
z
M 3022 2063 
Q 3016 2534 2758 2815 
Q 2500 3097 2075 3097 
Q 1594 3097 1305 2825 
Q 1016 2553 972 2059 
L 3022 2063 
z
" transform="scale(0.015625)"/>
      </defs>
      <use xlink:href="#DejaVuSans-62"/>
      <use xlink:href="#DejaVuSans-65" x="63.476562"/>
      <use xlink:href="#DejaVuSans-69" x="125"/>
      <use xlink:href="#DejaVuSans-74" x="152.783203"/>
      <use xlink:href="#DejaVuSans-5f" x="191.992188"/>
      <use xlink:href="#DejaVuSans-62" x="241.992188"/>
      <use xlink:href="#DejaVuSans-5f" x="305.46875"/>
      <use xlink:href="#DejaVuSans-31" x="355.46875"/>
      <use xlink:href="#DejaVuSans-36" x="419.091797"/>
     </g>
    </g>
    <g id="line2d_38">
     <path d="M 202.907812 109.807187 
L 212.907812 109.807187 
L 222.907812 109.807187 
" style="fill: none; stroke: #d62728; stroke-width: 1.5; stroke-linecap: square"/>
    </g>
    <g id="text_19">
     <!-- deit_b_16 -->
     <g transform="translate(230.907812 113.307187)scale(0.1 -0.1)">
      <defs>
       <path id="DejaVuSans-64" d="M 2906 2969 
L 2906 4863 
L 3481 4863 
L 3481 0 
L 2906 0 
L 2906 525 
Q 2725 213 2448 61 
Q 2172 -91 1784 -91 
Q 1150 -91 751 415 
Q 353 922 353 1747 
Q 353 2572 751 3078 
Q 1150 3584 1784 3584 
Q 2172 3584 2448 3432 
Q 2725 3281 2906 2969 
z
M 947 1747 
Q 947 1113 1208 752 
Q 1469 391 1925 391 
Q 2381 391 2643 752 
Q 2906 1113 2906 1747 
Q 2906 2381 2643 2742 
Q 2381 3103 1925 3103 
Q 1469 3103 1208 2742 
Q 947 2381 947 1747 
z
" transform="scale(0.015625)"/>
      </defs>
      <use xlink:href="#DejaVuSans-64"/>
      <use xlink:href="#DejaVuSans-65" x="63.476562"/>
      <use xlink:href="#DejaVuSans-69" x="125"/>
      <use xlink:href="#DejaVuSans-74" x="152.783203"/>
      <use xlink:href="#DejaVuSans-5f" x="191.992188"/>
      <use xlink:href="#DejaVuSans-62" x="241.992188"/>
      <use xlink:href="#DejaVuSans-5f" x="305.46875"/>
      <use xlink:href="#DejaVuSans-31" x="355.46875"/>
      <use xlink:href="#DejaVuSans-36" x="419.091797"/>
     </g>
    </g>
    <g id="line2d_39">
     <path d="M 202.907812 124.763437 
L 212.907812 124.763437 
L 222.907812 124.763437 
" style="fill: none; stroke-dasharray: 5.55,2.4; stroke-dashoffset: 0; stroke: #9467bd; stroke-width: 1.5"/>
    </g>
    <g id="text_20">
     <!-- vgg19 -->
     <g transform="translate(230.907812 128.263437)scale(0.1 -0.1)">
      <defs>
       <path id="DejaVuSans-67" d="M 2906 1791 
Q 2906 2416 2648 2759 
Q 2391 3103 1925 3103 
Q 1463 3103 1205 2759 
Q 947 2416 947 1791 
Q 947 1169 1205 825 
Q 1463 481 1925 481 
Q 2391 481 2648 825 
Q 2906 1169 2906 1791 
z
M 3481 434 
Q 3481 -459 3084 -895 
Q 2688 -1331 1869 -1331 
Q 1566 -1331 1297 -1286 
Q 1028 -1241 775 -1147 
L 775 -588 
Q 1028 -725 1275 -790 
Q 1522 -856 1778 -856 
Q 2344 -856 2625 -561 
Q 2906 -266 2906 331 
L 2906 616 
Q 2728 306 2450 153 
Q 2172 0 1784 0 
Q 1141 0 747 490 
Q 353 981 353 1791 
Q 353 2603 747 3093 
Q 1141 3584 1784 3584 
Q 2172 3584 2450 3431 
Q 2728 3278 2906 2969 
L 2906 3500 
L 3481 3500 
L 3481 434 
z
" transform="scale(0.015625)"/>
       <path id="DejaVuSans-39" d="M 703 97 
L 703 672 
Q 941 559 1184 500 
Q 1428 441 1663 441 
Q 2288 441 2617 861 
Q 2947 1281 2994 2138 
Q 2813 1869 2534 1725 
Q 2256 1581 1919 1581 
Q 1219 1581 811 2004 
Q 403 2428 403 3163 
Q 403 3881 828 4315 
Q 1253 4750 1959 4750 
Q 2769 4750 3195 4129 
Q 3622 3509 3622 2328 
Q 3622 1225 3098 567 
Q 2575 -91 1691 -91 
Q 1453 -91 1209 -44 
Q 966 3 703 97 
z
M 1959 2075 
Q 2384 2075 2632 2365 
Q 2881 2656 2881 3163 
Q 2881 3666 2632 3958 
Q 2384 4250 1959 4250 
Q 1534 4250 1286 3958 
Q 1038 3666 1038 3163 
Q 1038 2656 1286 2365 
Q 1534 2075 1959 2075 
z
" transform="scale(0.015625)"/>
      </defs>
      <use xlink:href="#DejaVuSans-76"/>
      <use xlink:href="#DejaVuSans-67" x="59.179688"/>
      <use xlink:href="#DejaVuSans-67" x="122.65625"/>
      <use xlink:href="#DejaVuSans-31" x="186.132812"/>
      <use xlink:href="#DejaVuSans-39" x="249.755859"/>
     </g>
    </g>
    <g id="line2d_40">
     <path d="M 202.907812 139.441562 
L 212.907812 139.441562 
L 222.907812 139.441562 
" style="fill: none; stroke-dasharray: 5.55,2.4; stroke-dashoffset: 0; stroke: #8c564b; stroke-width: 1.5"/>
    </g>
    <g id="text_21">
     <!-- resnet50 -->
     <g transform="translate(230.907812 142.941562)scale(0.1 -0.1)">
      <use xlink:href="#DejaVuSans-72"/>
      <use xlink:href="#DejaVuSans-65" x="38.863281"/>
      <use xlink:href="#DejaVuSans-73" x="100.386719"/>
      <use xlink:href="#DejaVuSans-6e" x="152.486328"/>
      <use xlink:href="#DejaVuSans-65" x="215.865234"/>
      <use xlink:href="#DejaVuSans-74" x="277.388672"/>
      <use xlink:href="#DejaVuSans-35" x="316.597656"/>
      <use xlink:href="#DejaVuSans-30" x="380.220703"/>
     </g>
    </g>
    <g id="line2d_41">
     <path d="M 202.907812 154.119687 
L 212.907812 154.119687 
L 222.907812 154.119687 
" style="fill: none; stroke-dasharray: 5.55,2.4; stroke-dashoffset: 0; stroke: #e377c2; stroke-width: 1.5"/>
    </g>
    <g id="text_22">
     <!-- efficientnetv2_m -->
     <g transform="translate(230.907812 157.619687)scale(0.1 -0.1)">
      <defs>
       <path id="DejaVuSans-66" d="M 2375 4863 
L 2375 4384 
L 1825 4384 
Q 1516 4384 1395 4259 
Q 1275 4134 1275 3809 
L 1275 3500 
L 2222 3500 
L 2222 3053 
L 1275 3053 
L 1275 0 
L 697 0 
L 697 3053 
L 147 3053 
L 147 3500 
L 697 3500 
L 697 3744 
Q 697 4328 969 4595 
Q 1241 4863 1831 4863 
L 2375 4863 
z
" transform="scale(0.015625)"/>
       <path id="DejaVuSans-6d" d="M 3328 2828 
Q 3544 3216 3844 3400 
Q 4144 3584 4550 3584 
Q 5097 3584 5394 3201 
Q 5691 2819 5691 2113 
L 5691 0 
L 5113 0 
L 5113 2094 
Q 5113 2597 4934 2840 
Q 4756 3084 4391 3084 
Q 3944 3084 3684 2787 
Q 3425 2491 3425 1978 
L 3425 0 
L 2847 0 
L 2847 2094 
Q 2847 2600 2669 2842 
Q 2491 3084 2119 3084 
Q 1678 3084 1418 2786 
Q 1159 2488 1159 1978 
L 1159 0 
L 581 0 
L 581 3500 
L 1159 3500 
L 1159 2956 
Q 1356 3278 1631 3431 
Q 1906 3584 2284 3584 
Q 2666 3584 2933 3390 
Q 3200 3197 3328 2828 
z
" transform="scale(0.015625)"/>
      </defs>
      <use xlink:href="#DejaVuSans-65"/>
      <use xlink:href="#DejaVuSans-66" x="61.523438"/>
      <use xlink:href="#DejaVuSans-66" x="96.728516"/>
      <use xlink:href="#DejaVuSans-69" x="131.933594"/>
      <use xlink:href="#DejaVuSans-63" x="159.716797"/>
      <use xlink:href="#DejaVuSans-69" x="214.697266"/>
      <use xlink:href="#DejaVuSans-65" x="242.480469"/>
      <use xlink:href="#DejaVuSans-6e" x="304.003906"/>
      <use xlink:href="#DejaVuSans-74" x="367.382812"/>
      <use xlink:href="#DejaVuSans-6e" x="406.591797"/>
      <use xlink:href="#DejaVuSans-65" x="469.970703"/>
      <use xlink:href="#DejaVuSans-74" x="531.494141"/>
      <use xlink:href="#DejaVuSans-76" x="570.703125"/>
      <use xlink:href="#DejaVuSans-32" x="629.882812"/>
      <use xlink:href="#DejaVuSans-5f" x="693.505859"/>
      <use xlink:href="#DejaVuSans-6d" x="743.505859"/>
     </g>
    </g>
    <g id="line2d_42">
     <path d="M 202.907812 169.075937 
L 212.907812 169.075937 
L 222.907812 169.075937 
" style="fill: none; stroke-dasharray: 5.55,2.4; stroke-dashoffset: 0; stroke: #7f7f7f; stroke-width: 1.5"/>
    </g>
    <g id="text_23">
     <!-- convnext_b -->
     <g transform="translate(230.907812 172.575937)scale(0.1 -0.1)">
      <defs>
       <path id="DejaVuSans-78" d="M 3513 3500 
L 2247 1797 
L 3578 0 
L 2900 0 
L 1881 1375 
L 863 0 
L 184 0 
L 1544 1831 
L 300 3500 
L 978 3500 
L 1906 2253 
L 2834 3500 
L 3513 3500 
z
" transform="scale(0.015625)"/>
      </defs>
      <use xlink:href="#DejaVuSans-63"/>
      <use xlink:href="#DejaVuSans-6f" x="54.980469"/>
      <use xlink:href="#DejaVuSans-6e" x="116.162109"/>
      <use xlink:href="#DejaVuSans-76" x="179.541016"/>
      <use xlink:href="#DejaVuSans-6e" x="238.720703"/>
      <use xlink:href="#DejaVuSans-65" x="302.099609"/>
      <use xlink:href="#DejaVuSans-78" x="361.873047"/>
      <use xlink:href="#DejaVuSans-74" x="421.052734"/>
      <use xlink:href="#DejaVuSans-5f" x="460.261719"/>
      <use xlink:href="#DejaVuSans-62" x="510.261719"/>
     </g>
    </g>
   </g>
  </g>
 </g>
 <defs>
  <clipPath id="p8d13c50971">
   <rect x="45" y="51.84" width="279" height="326.16"/>
  </clipPath>
 </defs>
</svg>
