<?xml version="1.0" encoding="utf-8" standalone="no"?>
<!DOCTYPE svg PUBLIC "-//W3C//DTD SVG 1.1//EN"
  "http://www.w3.org/Graphics/SVG/1.1/DTD/svg11.dtd">
<svg xmlns:xlink="http://www.w3.org/1999/xlink" width="360pt" height="432pt" viewBox="0 0 360 432" xmlns="http://www.w3.org/2000/svg" version="1.1">
 <metadata>
  <rdf:RDF xmlns:dc="http://purl.org/dc/elements/1.1/" xmlns:cc="http://creativecommons.org/ns#" xmlns:rdf="http://www.w3.org/1999/02/22-rdf-syntax-ns#">
   <cc:Work>
    <dc:type rdf:resource="http://purl.org/dc/dcmitype/StillImage"/>
    <dc:date>2022-05-21T09:39:43.642911</dc:date>
    <dc:format>image/svg+xml</dc:format>
    <dc:creator>
     <cc:Agent>
      <dc:title>Matplotlib v3.5.2, https://matplotlib.org/</dc:title>
     </cc:Agent>
    </dc:creator>
   </cc:Work>
  </rdf:RDF>
 </metadata>
 <defs>
  <style type="text/css">*{stroke-linejoin: round; stroke-linecap: butt}</style>
 </defs>
 <g id="figure_1">
  <g id="patch_1">
   <path d="M 0 432 
L 360 432 
L 360 0 
L 0 0 
L 0 432 
z
" style="fill: none"/>
  </g>
  <g id="axes_1">
   <g id="patch_2">
    <path d="M 45 378 
L 324 378 
L 324 51.84 
L 45 51.84 
z
" style="fill: #ffffff"/>
   </g>
   <g id="PolyCollection_1">
    <path d="M 57.681818 -94.75492 
L 57.681818 -90.678896 
L 61.254161 67.502263 
L 64.826504 129.47878 
L 68.398848 163.274929 
L 71.971191 186.903667 
L 75.543534 204.809721 
L 79.115877 218.29282 
L 82.68822 228.84532 
L 86.260563 237.572535 
L 89.832907 244.620324 
L 93.40525 250.136931 
L 96.977593 256.356096 
L 100.549936 260.708964 
L 104.122279 265.495197 
L 107.694622 269.215003 
L 111.266965 272.084709 
L 114.839309 274.381147 
L 118.411652 278.559979 
L 121.983995 281.046355 
L 125.556338 283.473489 
L 129.128681 284.902612 
L 132.701024 287.960732 
L 136.273367 289.685767 
L 139.845711 291.821503 
L 143.418054 292.954677 
L 146.990397 293.145117 
L 150.56274 295.168722 
L 154.135083 295.988194 
L 157.707426 297.784364 
L 161.27977 297.645727 
L 164.852113 299.293322 
L 168.424456 300.29324 
L 171.996799 299.94844 
L 175.569142 301.156864 
L 179.141485 301.966506 
L 182.713828 301.787998 
L 186.286172 302.066959 
L 189.858515 302.092632 
L 193.430858 302.800523 
L 197.003201 302.84783 
L 200.575544 301.870412 
L 204.147887 303.644856 
L 207.72023 304.255246 
L 211.292574 303.932926 
L 214.864917 303.539578 
L 218.43726 304.047699 
L 222.009603 304.273628 
L 225.581946 304.037838 
L 229.154289 304.6765 
L 229.154289 282.120564 
L 229.154289 282.120564 
L 225.581946 283.15006 
L 222.009603 281.877404 
L 218.43726 282.711754 
L 214.864917 282.242196 
L 211.292574 283.16355 
L 207.72023 282.728895 
L 204.147887 281.959747 
L 200.575544 282.243299 
L 197.003201 280.992833 
L 193.430858 280.407843 
L 189.858515 281.379052 
L 186.286172 281.042232 
L 182.713828 280.117066 
L 179.141485 280.355045 
L 175.569142 279.509325 
L 171.996799 279.644597 
L 168.424456 278.549586 
L 164.852113 278.320116 
L 161.27977 276.149544 
L 157.707426 276.775492 
L 154.135083 275.149779 
L 150.56274 274.935858 
L 146.990397 273.615112 
L 143.418054 272.088448 
L 139.845711 272.227416 
L 136.273367 269.457274 
L 132.701024 268.398856 
L 129.128681 266.212379 
L 125.556338 265.364665 
L 121.983995 261.571136 
L 118.411652 259.759785 
L 114.839309 257.909862 
L 111.266965 254.645113 
L 107.694622 251.599439 
L 104.122279 247.60298 
L 100.549936 245.223356 
L 96.977593 241.61294 
L 93.40525 238.04512 
L 89.832907 233.007506 
L 86.260563 226.246862 
L 82.68822 219.626664 
L 79.115877 210.052202 
L 75.543534 198.890412 
L 71.971191 181.031665 
L 68.398848 157.61323 
L 64.826504 121.790779 
L 61.254161 59.9327 
L 57.681818 -94.75492 
z
" clip-path="url(#p96017a2612)" style="fill: #1f77b4; fill-opacity: 0.2"/>
   </g>
   <g id="PolyCollection_2">
    <path d="M 57.681818 -23.099648 
L 57.681818 -19.39474 
L 61.254161 129.082157 
L 64.826504 187.415902 
L 68.398848 222.49974 
L 71.971191 243.202864 
L 75.543534 257.978188 
L 79.115877 269.324584 
L 82.68822 277.790439 
L 86.260563 284.875774 
L 89.832907 291.667503 
L 93.40525 295.516497 
L 96.977593 299.91531 
L 100.549936 302.723043 
L 104.122279 305.510559 
L 107.694622 309.890864 
L 111.266965 311.941561 
L 114.839309 314.307448 
L 118.411652 316.136485 
L 121.983995 318.120994 
L 125.556338 318.692007 
L 129.128681 320.174423 
L 132.701024 321.826618 
L 136.273367 323.660171 
L 139.845711 323.933635 
L 143.418054 324.296618 
L 146.990397 326.079035 
L 150.56274 325.230451 
L 154.135083 326.925716 
L 157.707426 327.737217 
L 161.27977 328.356092 
L 164.852113 329.080014 
L 168.424456 329.025885 
L 171.996799 330.916381 
L 175.569142 329.899233 
L 179.141485 330.877289 
L 182.713828 331.690519 
L 186.286172 332.502433 
L 189.858515 332.645626 
L 193.430858 333.498381 
L 197.003201 333.474357 
L 200.575544 332.985554 
L 204.147887 333.828361 
L 207.72023 333.687658 
L 211.292574 333.319901 
L 214.864917 333.828382 
L 218.43726 334.345218 
L 222.009603 335.41477 
L 225.581946 335.526277 
L 229.154289 334.872627 
L 232.726633 333.918301 
L 236.298976 335.823015 
L 239.871319 335.574163 
L 243.443662 336.140024 
L 247.016005 336.718433 
L 250.588348 335.033712 
L 254.160691 335.089848 
L 254.160691 332.289856 
L 254.160691 332.289856 
L 250.588348 334.173253 
L 247.016005 335.316393 
L 243.443662 334.688978 
L 239.871319 333.302999 
L 236.298976 334.796317 
L 232.726633 333.67382 
L 229.154289 334.128944 
L 225.581946 333.481321 
L 222.009603 332.575109 
L 218.43726 332.910671 
L 214.864917 332.497316 
L 211.292574 331.292689 
L 207.72023 332.778202 
L 204.147887 330.65327 
L 200.575544 329.783786 
L 197.003201 330.907872 
L 193.430858 331.729647 
L 189.858515 330.186794 
L 186.286172 331.554576 
L 182.713828 329.663923 
L 179.141485 328.34693 
L 175.569142 328.449125 
L 171.996799 327.828436 
L 168.424456 328.031893 
L 164.852113 328.693115 
L 161.27977 325.961937 
L 157.707426 326.201471 
L 154.135083 325.65338 
L 150.56274 322.391366 
L 146.990397 322.664476 
L 143.418054 323.741475 
L 139.845711 323.06287 
L 136.273367 320.694245 
L 132.701024 319.590157 
L 129.128681 318.495104 
L 125.556338 316.824966 
L 121.983995 315.204713 
L 118.411652 313.220159 
L 114.839309 311.482485 
L 111.266965 308.714401 
L 107.694622 305.262402 
L 104.122279 302.151339 
L 100.549936 297.351165 
L 96.977593 294.969586 
L 93.40525 291.150245 
L 89.832907 284.535912 
L 86.260563 278.802116 
L 82.68822 271.210541 
L 79.115877 261.952156 
L 75.543534 250.393756 
L 71.971191 237.62703 
L 68.398848 215.303977 
L 64.826504 182.174162 
L 61.254161 124.740054 
L 57.681818 -23.099648 
z
" clip-path="url(#p96017a2612)" style="fill: #ff7f0e; fill-opacity: 0.2"/>
   </g>
   <g id="PolyCollection_3">
    <path d="M 57.681818 -173.834625 
L 57.681818 -150.22757 
L 61.254161 -41.189939 
L 64.826504 7.975261 
L 68.398848 43.225168 
L 71.971191 62.549982 
L 75.543534 79.042477 
L 79.115877 96.390959 
L 82.68822 104.627573 
L 86.260563 118.852591 
L 89.832907 123.356817 
L 93.40525 132.200694 
L 96.977593 140.11233 
L 100.549936 140.740749 
L 104.122279 142.589571 
L 107.694622 152.344465 
L 111.266965 157.888504 
L 114.839309 164.441608 
L 118.411652 165.712517 
L 121.983995 170.373684 
L 125.556338 171.155085 
L 129.128681 176.482169 
L 132.701024 174.998223 
L 136.273367 177.619312 
L 139.845711 180.937004 
L 143.418054 181.147921 
L 146.990397 187.535417 
L 150.56274 188.060853 
L 154.135083 186.274919 
L 157.707426 188.778347 
L 161.27977 190.852822 
L 164.852113 197.405243 
L 168.424456 189.157389 
L 171.996799 198.30674 
L 175.569142 196.666791 
L 179.141485 197.877199 
L 182.713828 195.016841 
L 186.286172 200.88805 
L 189.858515 201.6322 
L 193.430858 204.773758 
L 197.003201 202.180289 
L 200.575544 202.377756 
L 204.147887 204.06954 
L 207.72023 208.782542 
L 211.292574 207.247598 
L 214.864917 209.242449 
L 218.43726 209.292161 
L 222.009603 209.374115 
L 225.581946 207.971564 
L 229.154289 211.087264 
L 232.726633 211.081453 
L 236.298976 210.618156 
L 239.871319 210.165103 
L 243.443662 214.562574 
L 247.016005 212.934913 
L 247.016005 190.849949 
L 247.016005 190.849949 
L 243.443662 190.465703 
L 239.871319 189.03642 
L 236.298976 182.71697 
L 232.726633 188.086312 
L 229.154289 192.347964 
L 225.581946 187.04471 
L 222.009603 187.660642 
L 218.43726 186.932154 
L 214.864917 186.389278 
L 211.292574 184.810719 
L 207.72023 184.98436 
L 204.147887 184.38376 
L 200.575544 185.282669 
L 197.003201 185.920596 
L 193.430858 183.516165 
L 189.858515 181.814711 
L 186.286172 177.074429 
L 182.713828 179.498585 
L 179.141485 174.862517 
L 175.569142 174.515863 
L 171.996799 176.748706 
L 168.424456 176.286599 
L 164.852113 170.677573 
L 161.27977 170.873727 
L 157.707426 169.459155 
L 154.135083 168.92064 
L 150.56274 166.39619 
L 146.990397 166.681227 
L 143.418054 164.573606 
L 139.845711 159.712928 
L 136.273367 153.810096 
L 132.701024 152.610087 
L 129.128681 147.617485 
L 125.556338 144.818147 
L 121.983995 145.719296 
L 118.411652 143.310804 
L 114.839309 141.331393 
L 111.266965 133.528928 
L 107.694622 130.164646 
L 104.122279 126.13515 
L 100.549936 122.436254 
L 96.977593 115.353628 
L 93.40525 108.642431 
L 89.832907 103.700376 
L 86.260563 91.682511 
L 82.68822 85.304241 
L 79.115877 74.014336 
L 75.543534 61.06145 
L 71.971191 41.504004 
L 68.398848 14.43308 
L 64.826504 -14.34404 
L 61.254161 -68.47625 
L 57.681818 -173.834625 
z
" clip-path="url(#p96017a2612)" style="fill: #2ca02c; fill-opacity: 0.2"/>
   </g>
   <g id="PolyCollection_4">
    <path d="M 57.681818 -32.019138 
L 57.681818 -27.92447 
L 61.254161 125.025029 
L 64.826504 182.821668 
L 68.398848 215.39928 
L 71.971191 237.707474 
L 75.543534 252.160406 
L 79.115877 263.73132 
L 82.68822 272.85289 
L 86.260563 279.367829 
L 89.832907 286.485668 
L 93.40525 290.579777 
L 96.977593 294.111188 
L 100.549936 298.886417 
L 104.122279 302.345364 
L 107.694622 306.177487 
L 111.266965 307.746454 
L 114.839309 311.060095 
L 118.411652 312.946829 
L 121.983995 314.440229 
L 125.556338 316.053583 
L 129.128681 317.598772 
L 132.701024 318.738664 
L 136.273367 319.877277 
L 139.845711 321.259697 
L 143.418054 322.591411 
L 146.990397 323.481534 
L 150.56274 323.810185 
L 154.135083 324.639307 
L 157.707426 326.442885 
L 161.27977 326.17796 
L 164.852113 326.534365 
L 168.424456 327.487765 
L 171.996799 327.759824 
L 175.569142 328.321973 
L 179.141485 328.581245 
L 182.713828 329.561124 
L 186.286172 329.274567 
L 189.858515 329.802896 
L 193.430858 330.41848 
L 197.003201 329.989976 
L 200.575544 330.072612 
L 204.147887 330.277697 
L 207.72023 329.921288 
L 207.72023 319.9425 
L 207.72023 319.9425 
L 204.147887 319.88979 
L 200.575544 320.078853 
L 197.003201 320.140996 
L 193.430858 319.241577 
L 189.858515 319.787778 
L 186.286172 319.617401 
L 182.713828 320.283171 
L 179.141485 318.16103 
L 175.569142 319.137276 
L 171.996799 319.141425 
L 168.424456 318.478349 
L 164.852113 318.25369 
L 161.27977 318.371487 
L 157.707426 317.049689 
L 154.135083 317.079838 
L 150.56274 316.672898 
L 146.990397 315.256989 
L 143.418054 315.51248 
L 139.845711 314.56577 
L 136.273367 314.089914 
L 132.701024 312.109036 
L 129.128681 310.226195 
L 125.556338 308.957238 
L 121.983995 308.689436 
L 118.411652 306.254149 
L 114.839309 305.012603 
L 111.266965 302.409364 
L 107.694622 301.188426 
L 104.122279 298.29754 
L 100.549936 294.347983 
L 96.977593 292.104338 
L 93.40525 286.421914 
L 89.832907 282.015284 
L 86.260563 275.673288 
L 82.68822 268.863024 
L 79.115877 259.985875 
L 75.543534 247.681219 
L 71.971191 233.52664 
L 68.398848 211.635061 
L 64.826504 179.229161 
L 61.254161 122.367118 
L 57.681818 -32.019138 
z
" clip-path="url(#p96017a2612)" style="fill: #d62728; fill-opacity: 0.2"/>
   </g>
   <g id="PolyCollection_5">
    <path d="M 57.681818 38.248185 
L 57.681818 48.31738 
L 61.254161 117.457726 
L 64.826504 151.14539 
L 68.398848 167.292989 
L 71.971191 180.974295 
L 75.543534 194.921068 
L 79.115877 201.638853 
L 82.68822 210.439406 
L 86.260563 211.905017 
L 89.832907 219.258088 
L 93.40525 224.460897 
L 96.977593 223.047812 
L 100.549936 229.254806 
L 104.122279 231.43493 
L 107.694622 231.641485 
L 111.266965 231.329014 
L 114.839309 235.805604 
L 118.411652 237.292999 
L 121.983995 244.734447 
L 125.556338 239.119285 
L 129.128681 237.052549 
L 132.701024 242.806935 
L 136.273367 244.96133 
L 139.845711 247.056477 
L 143.418054 247.679138 
L 146.990397 244.36154 
L 150.56274 243.452909 
L 154.135083 250.011972 
L 154.135083 239.039927 
L 154.135083 239.039927 
L 150.56274 235.252381 
L 146.990397 238.284343 
L 143.418054 236.319618 
L 139.845711 235.5356 
L 136.273367 231.269817 
L 132.701024 232.076 
L 129.128681 230.834519 
L 125.556338 230.605324 
L 121.983995 230.336566 
L 118.411652 229.875009 
L 114.839309 230.644848 
L 111.266965 229.109805 
L 107.694622 228.714922 
L 104.122279 220.041756 
L 100.549936 219.964539 
L 96.977593 219.390571 
L 93.40525 214.22279 
L 89.832907 212.325417 
L 86.260563 207.062864 
L 82.68822 202.468555 
L 79.115877 195.014054 
L 75.543534 185.92616 
L 71.971191 177.74336 
L 68.398848 163.592702 
L 64.826504 145.489263 
L 61.254161 114.280112 
L 57.681818 38.248185 
z
" clip-path="url(#p96017a2612)" style="fill: #9467bd; fill-opacity: 0.2"/>
   </g>
   <g id="PolyCollection_6">
    <path d="M 57.681818 -71.370686 
L 57.681818 -58.27343 
L 61.254161 103.509783 
L 64.826504 161.719272 
L 68.398848 193.088747 
L 71.971191 214.059093 
L 75.543534 225.193866 
L 79.115877 239.033894 
L 82.68822 246.801568 
L 86.260563 252.346519 
L 89.832907 259.894828 
L 93.40525 263.501387 
L 96.977593 264.906491 
L 100.549936 272.856463 
L 104.122279 272.195763 
L 107.694622 273.010175 
L 111.266965 278.935276 
L 114.839309 278.490085 
L 118.411652 281.339896 
L 121.983995 281.955815 
L 125.556338 282.656753 
L 129.128681 282.780023 
L 132.701024 285.122209 
L 136.273367 284.771792 
L 139.845711 288.616572 
L 143.418054 290.007533 
L 146.990397 286.412887 
L 150.56274 285.362585 
L 154.135083 290.87918 
L 157.707426 289.826699 
L 161.27977 293.20517 
L 164.852113 292.972842 
L 168.424456 288.107096 
L 171.996799 287.496966 
L 175.569142 288.278202 
L 179.141485 290.804931 
L 182.713828 292.16266 
L 186.286172 292.873743 
L 186.286172 281.898333 
L 186.286172 281.898333 
L 182.713828 281.937715 
L 179.141485 283.88517 
L 175.569142 283.951931 
L 171.996799 281.472914 
L 168.424456 283.880848 
L 164.852113 279.379412 
L 161.27977 278.540811 
L 157.707426 280.317243 
L 154.135083 279.53937 
L 150.56274 279.337315 
L 146.990397 279.191506 
L 143.418054 278.987636 
L 139.845711 277.218879 
L 136.273367 277.804493 
L 132.701024 279.925654 
L 129.128681 278.421006 
L 125.556338 273.171045 
L 121.983995 272.605039 
L 118.411652 272.772622 
L 114.839309 271.51333 
L 111.266965 269.593009 
L 107.694622 267.775894 
L 104.122279 264.654376 
L 100.549936 262.588914 
L 96.977593 260.242627 
L 93.40525 254.024995 
L 89.832907 253.97865 
L 86.260563 246.177665 
L 82.68822 238.072945 
L 79.115877 231.235519 
L 75.543534 220.297439 
L 71.971191 203.210112 
L 68.398848 187.974176 
L 64.826504 159.968676 
L 61.254161 92.047806 
L 57.681818 -71.370686 
z
" clip-path="url(#p96017a2612)" style="fill: #8c564b; fill-opacity: 0.2"/>
   </g>
   <g id="PolyCollection_7">
    <path d="M 57.681818 -279.664907 
L 57.681818 -272.451846 
L 61.254161 -75.275268 
L 64.826504 13.399099 
L 68.398848 62.052586 
L 71.971191 92.38607 
L 75.543534 113.430679 
L 79.115877 129.760898 
L 82.68822 143.471733 
L 86.260563 154.509176 
L 89.832907 164.02643 
L 93.40525 169.829623 
L 96.977593 176.188182 
L 100.549936 181.536507 
L 104.122279 188.099668 
L 107.694622 190.661938 
L 111.266965 194.778118 
L 114.839309 196.910872 
L 118.411652 199.92834 
L 121.983995 202.165873 
L 125.556338 204.715796 
L 129.128681 206.351964 
L 132.701024 207.994297 
L 136.273367 210.787645 
L 139.845711 210.466942 
L 143.418054 211.404824 
L 146.990397 213.584326 
L 150.56274 214.323118 
L 154.135083 214.080215 
L 157.707426 214.789482 
L 161.27977 215.738097 
L 164.852113 216.481205 
L 168.424456 217.669626 
L 171.996799 217.234784 
L 175.569142 218.331862 
L 179.141485 219.155678 
L 182.713828 217.467747 
L 186.286172 219.549896 
L 189.858515 218.296902 
L 193.430858 219.739361 
L 197.003201 220.201518 
L 200.575544 219.431069 
L 204.147887 219.366322 
L 207.72023 220.352893 
L 211.292574 220.885985 
L 214.864917 220.688359 
L 218.43726 222.849129 
L 222.009603 221.661074 
L 225.581946 221.562521 
L 229.154289 220.652347 
L 232.726633 222.447266 
L 236.298976 221.795466 
L 239.871319 221.821686 
L 243.443662 221.323645 
L 243.443662 203.984034 
L 243.443662 203.984034 
L 239.871319 204.801202 
L 236.298976 202.373489 
L 232.726633 204.82996 
L 229.154289 201.321063 
L 225.581946 203.251304 
L 222.009603 204.595355 
L 218.43726 204.256092 
L 214.864917 203.782552 
L 211.292574 202.90606 
L 207.72023 202.386672 
L 204.147887 200.890637 
L 200.575544 199.853637 
L 197.003201 202.396931 
L 193.430858 202.788921 
L 189.858515 202.415365 
L 186.286172 202.5733 
L 182.713828 201.498666 
L 179.141485 199.960383 
L 175.569142 200.72038 
L 171.996799 200.579928 
L 168.424456 199.706877 
L 164.852113 199.922255 
L 161.27977 199.290359 
L 157.707426 200.008998 
L 154.135083 199.182145 
L 150.56274 198.824075 
L 146.990397 198.154344 
L 143.418054 196.844709 
L 139.845711 195.172572 
L 136.273367 194.487084 
L 132.701024 193.131254 
L 129.128681 191.752159 
L 125.556338 190.953203 
L 121.983995 189.343401 
L 118.411652 187.454135 
L 114.839309 185.347438 
L 111.266965 183.567476 
L 107.694622 181.363684 
L 104.122279 176.981883 
L 100.549936 173.907609 
L 96.977593 169.769028 
L 93.40525 164.808677 
L 89.832907 158.576076 
L 86.260563 150.734911 
L 82.68822 140.857083 
L 79.115877 125.986816 
L 75.543534 108.985653 
L 71.971191 86.805084 
L 68.398848 52.926766 
L 64.826504 4.601457 
L 61.254161 -81.248443 
L 57.681818 -279.664907 
z
" clip-path="url(#p96017a2612)" style="fill: #e377c2; fill-opacity: 0.2"/>
   </g>
   <g id="PolyCollection_8">
    <path d="M 57.681818 -137.917124 
L 57.681818 -133.99331 
L 61.254161 48.717862 
L 64.826504 125.582363 
L 68.398848 167.55848 
L 71.971191 195.694457 
L 75.543534 216.111029 
L 79.115877 232.381654 
L 82.68822 242.996912 
L 86.260563 253.371346 
L 89.832907 262.108416 
L 93.40525 269.053961 
L 96.977593 275.997902 
L 100.549936 281.772252 
L 104.122279 286.748215 
L 107.694622 289.85113 
L 111.266965 294.69342 
L 114.839309 299.550274 
L 118.411652 301.516577 
L 121.983995 304.840094 
L 125.556338 308.453303 
L 129.128681 310.595612 
L 132.701024 312.085272 
L 136.273367 315.391776 
L 139.845711 317.988967 
L 143.418054 318.276903 
L 146.990397 320.943107 
L 150.56274 322.088769 
L 154.135083 323.980388 
L 157.707426 325.453983 
L 161.27977 325.833425 
L 164.852113 327.9507 
L 168.424456 328.802536 
L 171.996799 329.28793 
L 175.569142 330.175576 
L 179.141485 330.808268 
L 182.713828 330.492367 
L 186.286172 332.449372 
L 189.858515 332.736036 
L 193.430858 334.295903 
L 197.003201 334.898384 
L 200.575544 335.710127 
L 204.147887 335.420168 
L 207.72023 335.775577 
L 211.292574 336.761553 
L 214.864917 336.931227 
L 218.43726 337.413779 
L 222.009603 337.40867 
L 225.581946 337.320257 
L 229.154289 338.579258 
L 232.726633 340.151369 
L 236.298976 340.622048 
L 239.871319 341.240035 
L 243.443662 341.823505 
L 247.016005 341.828509 
L 250.588348 340.824319 
L 254.160691 342.590847 
L 257.733035 343.040395 
L 261.305378 342.503854 
L 264.877721 342.562333 
L 268.450064 343.20157 
L 272.022407 343.684066 
L 275.59475 343.108616 
L 279.167093 344.01476 
L 282.739437 344.326359 
L 286.31178 345.326699 
L 289.884123 344.900583 
L 293.456466 345.553488 
L 297.028809 344.836971 
L 300.601152 344.62752 
L 304.173496 346.682623 
L 307.745839 344.925659 
L 311.318182 346.407895 
L 311.318182 335.589463 
L 311.318182 335.589463 
L 307.745839 336.055559 
L 304.173496 335.208302 
L 300.601152 335.296721 
L 297.028809 334.623112 
L 293.456466 334.637912 
L 289.884123 334.085759 
L 286.31178 334.741928 
L 282.739437 333.122097 
L 279.167093 332.288102 
L 275.59475 330.948294 
L 272.022407 329.580602 
L 268.450064 330.677267 
L 264.877721 331.486345 
L 261.305378 331.646048 
L 257.733035 330.425313 
L 254.160691 332.012325 
L 250.588348 330.886661 
L 247.016005 330.063479 
L 243.443662 327.408591 
L 239.871319 327.911562 
L 236.298976 328.81452 
L 232.726633 325.809841 
L 229.154289 326.534756 
L 225.581946 326.251441 
L 222.009603 325.55215 
L 218.43726 325.456028 
L 214.864917 323.203369 
L 211.292574 324.290396 
L 207.72023 321.546243 
L 204.147887 321.153315 
L 200.575544 321.353877 
L 197.003201 320.025764 
L 193.430858 319.410521 
L 189.858515 319.19841 
L 186.286172 317.127528 
L 182.713828 317.344447 
L 179.141485 316.092735 
L 175.569142 314.610079 
L 171.996799 313.740541 
L 168.424456 313.814381 
L 164.852113 311.061315 
L 161.27977 312.000126 
L 157.707426 310.154493 
L 154.135083 309.31682 
L 150.56274 307.688533 
L 146.990397 304.660838 
L 143.418054 304.70328 
L 139.845711 303.96442 
L 136.273367 302.015888 
L 132.701024 300.15718 
L 129.128681 297.681075 
L 125.556338 296.451341 
L 121.983995 293.019917 
L 118.411652 290.508034 
L 114.839309 286.488008 
L 111.266965 285.898065 
L 107.694622 281.043518 
L 104.122279 276.911839 
L 100.549936 272.363621 
L 96.977593 268.954709 
L 93.40525 262.073844 
L 89.832907 256.632062 
L 86.260563 248.283632 
L 82.68822 239.333023 
L 79.115877 228.045974 
L 75.543534 212.617264 
L 71.971191 193.257591 
L 68.398848 165.035693 
L 64.826504 120.835942 
L 61.254161 39.660453 
L 57.681818 -137.917124 
z
" clip-path="url(#p96017a2612)" style="fill: #7f7f7f; fill-opacity: 0.2"/>
   </g>
   <g id="matplotlib.axis_1">
    <g id="xtick_1">
     <g id="line2d_1">
      <path d="M 54.109475 378 
L 54.109475 51.84 
" clip-path="url(#p96017a2612)" style="fill: none; stroke: #b0b0b0; stroke-width: 0.8; stroke-linecap: square"/>
     </g>
     <g id="line2d_2">
      <defs>
       <path id="m1595ad8142" d="M 0 0 
L 0 3.5 
" style="stroke: #000000; stroke-width: 0.8"/>
      </defs>
      <g>
       <use xlink:href="#m1595ad8142" x="54.109475" y="378" style="stroke: #000000; stroke-width: 0.8"/>
      </g>
     </g>
     <g id="text_1">
      <!-- 0 -->
      <g transform="translate(50.928225 392.598437)scale(0.1 -0.1)">
       <defs>
        <path id="DejaVuSans-30" d="M 2034 4250 
Q 1547 4250 1301 3770 
Q 1056 3291 1056 2328 
Q 1056 1369 1301 889 
Q 1547 409 2034 409 
Q 2525 409 2770 889 
Q 3016 1369 3016 2328 
Q 3016 3291 2770 3770 
Q 2525 4250 2034 4250 
z
M 2034 4750 
Q 2819 4750 3233 4129 
Q 3647 3509 3647 2328 
Q 3647 1150 3233 529 
Q 2819 -91 2034 -91 
Q 1250 -91 836 529 
Q 422 1150 422 2328 
Q 422 3509 836 4129 
Q 1250 4750 2034 4750 
z
" transform="scale(0.015625)"/>
       </defs>
       <use xlink:href="#DejaVuSans-30"/>
      </g>
     </g>
    </g>
    <g id="xtick_2">
     <g id="line2d_3">
      <path d="M 89.832907 378 
L 89.832907 51.84 
" clip-path="url(#p96017a2612)" style="fill: none; stroke: #b0b0b0; stroke-width: 0.8; stroke-linecap: square"/>
     </g>
     <g id="line2d_4">
      <g>
       <use xlink:href="#m1595ad8142" x="89.832907" y="378" style="stroke: #000000; stroke-width: 0.8"/>
      </g>
     </g>
     <g id="text_2">
      <!-- 10 -->
      <g transform="translate(83.470407 392.598437)scale(0.1 -0.1)">
       <defs>
        <path id="DejaVuSans-31" d="M 794 531 
L 1825 531 
L 1825 4091 
L 703 3866 
L 703 4441 
L 1819 4666 
L 2450 4666 
L 2450 531 
L 3481 531 
L 3481 0 
L 794 0 
L 794 531 
z
" transform="scale(0.015625)"/>
       </defs>
       <use xlink:href="#DejaVuSans-31"/>
       <use xlink:href="#DejaVuSans-30" x="63.623047"/>
      </g>
     </g>
    </g>
    <g id="xtick_3">
     <g id="line2d_5">
      <path d="M 125.556338 378 
L 125.556338 51.84 
" clip-path="url(#p96017a2612)" style="fill: none; stroke: #b0b0b0; stroke-width: 0.8; stroke-linecap: square"/>
     </g>
     <g id="line2d_6">
      <g>
       <use xlink:href="#m1595ad8142" x="125.556338" y="378" style="stroke: #000000; stroke-width: 0.8"/>
      </g>
     </g>
     <g id="text_3">
      <!-- 20 -->
      <g transform="translate(119.193838 392.598437)scale(0.1 -0.1)">
       <defs>
        <path id="DejaVuSans-32" d="M 1228 531 
L 3431 531 
L 3431 0 
L 469 0 
L 469 531 
Q 828 903 1448 1529 
Q 2069 2156 2228 2338 
Q 2531 2678 2651 2914 
Q 2772 3150 2772 3378 
Q 2772 3750 2511 3984 
Q 2250 4219 1831 4219 
Q 1534 4219 1204 4116 
Q 875 4013 500 3803 
L 500 4441 
Q 881 4594 1212 4672 
Q 1544 4750 1819 4750 
Q 2544 4750 2975 4387 
Q 3406 4025 3406 3419 
Q 3406 3131 3298 2873 
Q 3191 2616 2906 2266 
Q 2828 2175 2409 1742 
Q 1991 1309 1228 531 
z
" transform="scale(0.015625)"/>
       </defs>
       <use xlink:href="#DejaVuSans-32"/>
       <use xlink:href="#DejaVuSans-30" x="63.623047"/>
      </g>
     </g>
    </g>
    <g id="xtick_4">
     <g id="line2d_7">
      <path d="M 161.27977 378 
L 161.27977 51.84 
" clip-path="url(#p96017a2612)" style="fill: none; stroke: #b0b0b0; stroke-width: 0.8; stroke-linecap: square"/>
     </g>
     <g id="line2d_8">
      <g>
       <use xlink:href="#m1595ad8142" x="161.27977" y="378" style="stroke: #000000; stroke-width: 0.8"/>
      </g>
     </g>
     <g id="text_4">
      <!-- 30 -->
      <g transform="translate(154.91727 392.598437)scale(0.1 -0.1)">
       <defs>
        <path id="DejaVuSans-33" d="M 2597 2516 
Q 3050 2419 3304 2112 
Q 3559 1806 3559 1356 
Q 3559 666 3084 287 
Q 2609 -91 1734 -91 
Q 1441 -91 1130 -33 
Q 819 25 488 141 
L 488 750 
Q 750 597 1062 519 
Q 1375 441 1716 441 
Q 2309 441 2620 675 
Q 2931 909 2931 1356 
Q 2931 1769 2642 2001 
Q 2353 2234 1838 2234 
L 1294 2234 
L 1294 2753 
L 1863 2753 
Q 2328 2753 2575 2939 
Q 2822 3125 2822 3475 
Q 2822 3834 2567 4026 
Q 2313 4219 1838 4219 
Q 1578 4219 1281 4162 
Q 984 4106 628 3988 
L 628 4550 
Q 988 4650 1302 4700 
Q 1616 4750 1894 4750 
Q 2613 4750 3031 4423 
Q 3450 4097 3450 3541 
Q 3450 3153 3228 2886 
Q 3006 2619 2597 2516 
z
" transform="scale(0.015625)"/>
       </defs>
       <use xlink:href="#DejaVuSans-33"/>
       <use xlink:href="#DejaVuSans-30" x="63.623047"/>
      </g>
     </g>
    </g>
    <g id="xtick_5">
     <g id="line2d_9">
      <path d="M 197.003201 378 
L 197.003201 51.84 
" clip-path="url(#p96017a2612)" style="fill: none; stroke: #b0b0b0; stroke-width: 0.8; stroke-linecap: square"/>
     </g>
     <g id="line2d_10">
      <g>
       <use xlink:href="#m1595ad8142" x="197.003201" y="378" style="stroke: #000000; stroke-width: 0.8"/>
      </g>
     </g>
     <g id="text_5">
      <!-- 40 -->
      <g transform="translate(190.640701 392.598437)scale(0.1 -0.1)">
       <defs>
        <path id="DejaVuSans-34" d="M 2419 4116 
L 825 1625 
L 2419 1625 
L 2419 4116 
z
M 2253 4666 
L 3047 4666 
L 3047 1625 
L 3713 1625 
L 3713 1100 
L 3047 1100 
L 3047 0 
L 2419 0 
L 2419 1100 
L 313 1100 
L 313 1709 
L 2253 4666 
z
" transform="scale(0.015625)"/>
       </defs>
       <use xlink:href="#DejaVuSans-34"/>
       <use xlink:href="#DejaVuSans-30" x="63.623047"/>
      </g>
     </g>
    </g>
    <g id="xtick_6">
     <g id="line2d_11">
      <path d="M 232.726633 378 
L 232.726633 51.84 
" clip-path="url(#p96017a2612)" style="fill: none; stroke: #b0b0b0; stroke-width: 0.8; stroke-linecap: square"/>
     </g>
     <g id="line2d_12">
      <g>
       <use xlink:href="#m1595ad8142" x="232.726633" y="378" style="stroke: #000000; stroke-width: 0.8"/>
      </g>
     </g>
     <g id="text_6">
      <!-- 50 -->
      <g transform="translate(226.364133 392.598437)scale(0.1 -0.1)">
       <defs>
        <path id="DejaVuSans-35" d="M 691 4666 
L 3169 4666 
L 3169 4134 
L 1269 4134 
L 1269 2991 
Q 1406 3038 1543 3061 
Q 1681 3084 1819 3084 
Q 2600 3084 3056 2656 
Q 3513 2228 3513 1497 
Q 3513 744 3044 326 
Q 2575 -91 1722 -91 
Q 1428 -91 1123 -41 
Q 819 9 494 109 
L 494 744 
Q 775 591 1075 516 
Q 1375 441 1709 441 
Q 2250 441 2565 725 
Q 2881 1009 2881 1497 
Q 2881 1984 2565 2268 
Q 2250 2553 1709 2553 
Q 1456 2553 1204 2497 
Q 953 2441 691 2322 
L 691 4666 
z
" transform="scale(0.015625)"/>
       </defs>
       <use xlink:href="#DejaVuSans-35"/>
       <use xlink:href="#DejaVuSans-30" x="63.623047"/>
      </g>
     </g>
    </g>
    <g id="xtick_7">
     <g id="line2d_13">
      <path d="M 268.450064 378 
L 268.450064 51.84 
" clip-path="url(#p96017a2612)" style="fill: none; stroke: #b0b0b0; stroke-width: 0.8; stroke-linecap: square"/>
     </g>
     <g id="line2d_14">
      <g>
       <use xlink:href="#m1595ad8142" x="268.450064" y="378" style="stroke: #000000; stroke-width: 0.8"/>
      </g>
     </g>
     <g id="text_7">
      <!-- 60 -->
      <g transform="translate(262.087564 392.598437)scale(0.1 -0.1)">
       <defs>
        <path id="DejaVuSans-36" d="M 2113 2584 
Q 1688 2584 1439 2293 
Q 1191 2003 1191 1497 
Q 1191 994 1439 701 
Q 1688 409 2113 409 
Q 2538 409 2786 701 
Q 3034 994 3034 1497 
Q 3034 2003 2786 2293 
Q 2538 2584 2113 2584 
z
M 3366 4563 
L 3366 3988 
Q 3128 4100 2886 4159 
Q 2644 4219 2406 4219 
Q 1781 4219 1451 3797 
Q 1122 3375 1075 2522 
Q 1259 2794 1537 2939 
Q 1816 3084 2150 3084 
Q 2853 3084 3261 2657 
Q 3669 2231 3669 1497 
Q 3669 778 3244 343 
Q 2819 -91 2113 -91 
Q 1303 -91 875 529 
Q 447 1150 447 2328 
Q 447 3434 972 4092 
Q 1497 4750 2381 4750 
Q 2619 4750 2861 4703 
Q 3103 4656 3366 4563 
z
" transform="scale(0.015625)"/>
       </defs>
       <use xlink:href="#DejaVuSans-36"/>
       <use xlink:href="#DejaVuSans-30" x="63.623047"/>
      </g>
     </g>
    </g>
    <g id="xtick_8">
     <g id="line2d_15">
      <path d="M 304.173496 378 
L 304.173496 51.84 
" clip-path="url(#p96017a2612)" style="fill: none; stroke: #b0b0b0; stroke-width: 0.8; stroke-linecap: square"/>
     </g>
     <g id="line2d_16">
      <g>
       <use xlink:href="#m1595ad8142" x="304.173496" y="378" style="stroke: #000000; stroke-width: 0.8"/>
      </g>
     </g>
     <g id="text_8">
      <!-- 70 -->
      <g transform="translate(297.810996 392.598437)scale(0.1 -0.1)">
       <defs>
        <path id="DejaVuSans-37" d="M 525 4666 
L 3525 4666 
L 3525 4397 
L 1831 0 
L 1172 0 
L 2766 4134 
L 525 4134 
L 525 4666 
z
" transform="scale(0.015625)"/>
       </defs>
       <use xlink:href="#DejaVuSans-37"/>
       <use xlink:href="#DejaVuSans-30" x="63.623047"/>
      </g>
     </g>
    </g>
    <g id="text_9">
     <!-- Epochs -->
     <g transform="translate(166.584375 406.276563)scale(0.1 -0.1)">
      <defs>
       <path id="DejaVuSans-45" d="M 628 4666 
L 3578 4666 
L 3578 4134 
L 1259 4134 
L 1259 2753 
L 3481 2753 
L 3481 2222 
L 1259 2222 
L 1259 531 
L 3634 531 
L 3634 0 
L 628 0 
L 628 4666 
z
" transform="scale(0.015625)"/>
       <path id="DejaVuSans-70" d="M 1159 525 
L 1159 -1331 
L 581 -1331 
L 581 3500 
L 1159 3500 
L 1159 2969 
Q 1341 3281 1617 3432 
Q 1894 3584 2278 3584 
Q 2916 3584 3314 3078 
Q 3713 2572 3713 1747 
Q 3713 922 3314 415 
Q 2916 -91 2278 -91 
Q 1894 -91 1617 61 
Q 1341 213 1159 525 
z
M 3116 1747 
Q 3116 2381 2855 2742 
Q 2594 3103 2138 3103 
Q 1681 3103 1420 2742 
Q 1159 2381 1159 1747 
Q 1159 1113 1420 752 
Q 1681 391 2138 391 
Q 2594 391 2855 752 
Q 3116 1113 3116 1747 
z
" transform="scale(0.015625)"/>
       <path id="DejaVuSans-6f" d="M 1959 3097 
Q 1497 3097 1228 2736 
Q 959 2375 959 1747 
Q 959 1119 1226 758 
Q 1494 397 1959 397 
Q 2419 397 2687 759 
Q 2956 1122 2956 1747 
Q 2956 2369 2687 2733 
Q 2419 3097 1959 3097 
z
M 1959 3584 
Q 2709 3584 3137 3096 
Q 3566 2609 3566 1747 
Q 3566 888 3137 398 
Q 2709 -91 1959 -91 
Q 1206 -91 779 398 
Q 353 888 353 1747 
Q 353 2609 779 3096 
Q 1206 3584 1959 3584 
z
" transform="scale(0.015625)"/>
       <path id="DejaVuSans-63" d="M 3122 3366 
L 3122 2828 
Q 2878 2963 2633 3030 
Q 2388 3097 2138 3097 
Q 1578 3097 1268 2742 
Q 959 2388 959 1747 
Q 959 1106 1268 751 
Q 1578 397 2138 397 
Q 2388 397 2633 464 
Q 2878 531 3122 666 
L 3122 134 
Q 2881 22 2623 -34 
Q 2366 -91 2075 -91 
Q 1284 -91 818 406 
Q 353 903 353 1747 
Q 353 2603 823 3093 
Q 1294 3584 2113 3584 
Q 2378 3584 2631 3529 
Q 2884 3475 3122 3366 
z
" transform="scale(0.015625)"/>
       <path id="DejaVuSans-68" d="M 3513 2113 
L 3513 0 
L 2938 0 
L 2938 2094 
Q 2938 2591 2744 2837 
Q 2550 3084 2163 3084 
Q 1697 3084 1428 2787 
Q 1159 2491 1159 1978 
L 1159 0 
L 581 0 
L 581 4863 
L 1159 4863 
L 1159 2956 
Q 1366 3272 1645 3428 
Q 1925 3584 2291 3584 
Q 2894 3584 3203 3211 
Q 3513 2838 3513 2113 
z
" transform="scale(0.015625)"/>
       <path id="DejaVuSans-73" d="M 2834 3397 
L 2834 2853 
Q 2591 2978 2328 3040 
Q 2066 3103 1784 3103 
Q 1356 3103 1142 2972 
Q 928 2841 928 2578 
Q 928 2378 1081 2264 
Q 1234 2150 1697 2047 
L 1894 2003 
Q 2506 1872 2764 1633 
Q 3022 1394 3022 966 
Q 3022 478 2636 193 
Q 2250 -91 1575 -91 
Q 1294 -91 989 -36 
Q 684 19 347 128 
L 347 722 
Q 666 556 975 473 
Q 1284 391 1588 391 
Q 1994 391 2212 530 
Q 2431 669 2431 922 
Q 2431 1156 2273 1281 
Q 2116 1406 1581 1522 
L 1381 1569 
Q 847 1681 609 1914 
Q 372 2147 372 2553 
Q 372 3047 722 3315 
Q 1072 3584 1716 3584 
Q 2034 3584 2315 3537 
Q 2597 3491 2834 3397 
z
" transform="scale(0.015625)"/>
      </defs>
      <use xlink:href="#DejaVuSans-45"/>
      <use xlink:href="#DejaVuSans-70" x="63.183594"/>
      <use xlink:href="#DejaVuSans-6f" x="126.660156"/>
      <use xlink:href="#DejaVuSans-63" x="187.841797"/>
      <use xlink:href="#DejaVuSans-68" x="242.822266"/>
      <use xlink:href="#DejaVuSans-73" x="306.201172"/>
     </g>
    </g>
   </g>
   <g id="matplotlib.axis_2">
    <g id="ytick_1">
     <g id="line2d_17">
      <path d="M 45 318.039005 
L 324 318.039005 
" clip-path="url(#p96017a2612)" style="fill: none; stroke: #b0b0b0; stroke-width: 0.8; stroke-linecap: square"/>
     </g>
     <g id="line2d_18">
      <defs>
       <path id="m3be32d0582" d="M 0 0 
L -3.5 0 
" style="stroke: #000000; stroke-width: 0.8"/>
      </defs>
      <g>
       <use xlink:href="#m3be32d0582" x="45" y="318.039005" style="stroke: #000000; stroke-width: 0.8"/>
      </g>
     </g>
     <g id="text_10">
      <!-- 0.4 -->
      <g transform="translate(22.096875 321.838223)scale(0.1 -0.1)">
       <defs>
        <path id="DejaVuSans-2e" d="M 684 794 
L 1344 794 
L 1344 0 
L 684 0 
L 684 794 
z
" transform="scale(0.015625)"/>
       </defs>
       <use xlink:href="#DejaVuSans-30"/>
       <use xlink:href="#DejaVuSans-2e" x="63.623047"/>
       <use xlink:href="#DejaVuSans-34" x="95.410156"/>
      </g>
     </g>
    </g>
    <g id="ytick_2">
     <g id="line2d_19">
      <path d="M 45 255.403945 
L 324 255.403945 
" clip-path="url(#p96017a2612)" style="fill: none; stroke: #b0b0b0; stroke-width: 0.8; stroke-linecap: square"/>
     </g>
     <g id="line2d_20">
      <g>
       <use xlink:href="#m3be32d0582" x="45" y="255.403945" style="stroke: #000000; stroke-width: 0.8"/>
      </g>
     </g>
     <g id="text_11">
      <!-- 0.6 -->
      <g transform="translate(22.096875 259.203164)scale(0.1 -0.1)">
       <use xlink:href="#DejaVuSans-30"/>
       <use xlink:href="#DejaVuSans-2e" x="63.623047"/>
       <use xlink:href="#DejaVuSans-36" x="95.410156"/>
      </g>
     </g>
    </g>
    <g id="ytick_3">
     <g id="line2d_21">
      <path d="M 45 192.768885 
L 324 192.768885 
" clip-path="url(#p96017a2612)" style="fill: none; stroke: #b0b0b0; stroke-width: 0.8; stroke-linecap: square"/>
     </g>
     <g id="line2d_22">
      <g>
       <use xlink:href="#m3be32d0582" x="45" y="192.768885" style="stroke: #000000; stroke-width: 0.8"/>
      </g>
     </g>
     <g id="text_12">
      <!-- 0.8 -->
      <g transform="translate(22.096875 196.568104)scale(0.1 -0.1)">
       <defs>
        <path id="DejaVuSans-38" d="M 2034 2216 
Q 1584 2216 1326 1975 
Q 1069 1734 1069 1313 
Q 1069 891 1326 650 
Q 1584 409 2034 409 
Q 2484 409 2743 651 
Q 3003 894 3003 1313 
Q 3003 1734 2745 1975 
Q 2488 2216 2034 2216 
z
M 1403 2484 
Q 997 2584 770 2862 
Q 544 3141 544 3541 
Q 544 4100 942 4425 
Q 1341 4750 2034 4750 
Q 2731 4750 3128 4425 
Q 3525 4100 3525 3541 
Q 3525 3141 3298 2862 
Q 3072 2584 2669 2484 
Q 3125 2378 3379 2068 
Q 3634 1759 3634 1313 
Q 3634 634 3220 271 
Q 2806 -91 2034 -91 
Q 1263 -91 848 271 
Q 434 634 434 1313 
Q 434 1759 690 2068 
Q 947 2378 1403 2484 
z
M 1172 3481 
Q 1172 3119 1398 2916 
Q 1625 2713 2034 2713 
Q 2441 2713 2670 2916 
Q 2900 3119 2900 3481 
Q 2900 3844 2670 4047 
Q 2441 4250 2034 4250 
Q 1625 4250 1398 4047 
Q 1172 3844 1172 3481 
z
" transform="scale(0.015625)"/>
       </defs>
       <use xlink:href="#DejaVuSans-30"/>
       <use xlink:href="#DejaVuSans-2e" x="63.623047"/>
       <use xlink:href="#DejaVuSans-38" x="95.410156"/>
      </g>
     </g>
    </g>
    <g id="ytick_4">
     <g id="line2d_23">
      <path d="M 45 130.133825 
L 324 130.133825 
" clip-path="url(#p96017a2612)" style="fill: none; stroke: #b0b0b0; stroke-width: 0.8; stroke-linecap: square"/>
     </g>
     <g id="line2d_24">
      <g>
       <use xlink:href="#m3be32d0582" x="45" y="130.133825" style="stroke: #000000; stroke-width: 0.8"/>
      </g>
     </g>
     <g id="text_13">
      <!-- 1.0 -->
      <g transform="translate(22.096875 133.933044)scale(0.1 -0.1)">
       <use xlink:href="#DejaVuSans-31"/>
       <use xlink:href="#DejaVuSans-2e" x="63.623047"/>
       <use xlink:href="#DejaVuSans-30" x="95.410156"/>
      </g>
     </g>
    </g>
    <g id="ytick_5">
     <g id="line2d_25">
      <path d="M 45 67.498765 
L 324 67.498765 
" clip-path="url(#p96017a2612)" style="fill: none; stroke: #b0b0b0; stroke-width: 0.8; stroke-linecap: square"/>
     </g>
     <g id="line2d_26">
      <g>
       <use xlink:href="#m3be32d0582" x="45" y="67.498765" style="stroke: #000000; stroke-width: 0.8"/>
      </g>
     </g>
     <g id="text_14">
      <!-- 1.2 -->
      <g transform="translate(22.096875 71.297984)scale(0.1 -0.1)">
       <use xlink:href="#DejaVuSans-31"/>
       <use xlink:href="#DejaVuSans-2e" x="63.623047"/>
       <use xlink:href="#DejaVuSans-32" x="95.410156"/>
      </g>
     </g>
    </g>
    <g id="text_15">
     <!-- Cross Entropy Loss ($Q_2$ with $Q_1 - Q_3$ range) -->
     <g transform="translate(15.996875 322.97)rotate(-90)scale(0.1 -0.1)">
      <defs>
       <path id="DejaVuSans-43" d="M 4122 4306 
L 4122 3641 
Q 3803 3938 3442 4084 
Q 3081 4231 2675 4231 
Q 1875 4231 1450 3742 
Q 1025 3253 1025 2328 
Q 1025 1406 1450 917 
Q 1875 428 2675 428 
Q 3081 428 3442 575 
Q 3803 722 4122 1019 
L 4122 359 
Q 3791 134 3420 21 
Q 3050 -91 2638 -91 
Q 1578 -91 968 557 
Q 359 1206 359 2328 
Q 359 3453 968 4101 
Q 1578 4750 2638 4750 
Q 3056 4750 3426 4639 
Q 3797 4528 4122 4306 
z
" transform="scale(0.015625)"/>
       <path id="DejaVuSans-72" d="M 2631 2963 
Q 2534 3019 2420 3045 
Q 2306 3072 2169 3072 
Q 1681 3072 1420 2755 
Q 1159 2438 1159 1844 
L 1159 0 
L 581 0 
L 581 3500 
L 1159 3500 
L 1159 2956 
Q 1341 3275 1631 3429 
Q 1922 3584 2338 3584 
Q 2397 3584 2469 3576 
Q 2541 3569 2628 3553 
L 2631 2963 
z
" transform="scale(0.015625)"/>
       <path id="DejaVuSans-20" transform="scale(0.015625)"/>
       <path id="DejaVuSans-6e" d="M 3513 2113 
L 3513 0 
L 2938 0 
L 2938 2094 
Q 2938 2591 2744 2837 
Q 2550 3084 2163 3084 
Q 1697 3084 1428 2787 
Q 1159 2491 1159 1978 
L 1159 0 
L 581 0 
L 581 3500 
L 1159 3500 
L 1159 2956 
Q 1366 3272 1645 3428 
Q 1925 3584 2291 3584 
Q 2894 3584 3203 3211 
Q 3513 2838 3513 2113 
z
" transform="scale(0.015625)"/>
       <path id="DejaVuSans-74" d="M 1172 4494 
L 1172 3500 
L 2356 3500 
L 2356 3053 
L 1172 3053 
L 1172 1153 
Q 1172 725 1289 603 
Q 1406 481 1766 481 
L 2356 481 
L 2356 0 
L 1766 0 
Q 1100 0 847 248 
Q 594 497 594 1153 
L 594 3053 
L 172 3053 
L 172 3500 
L 594 3500 
L 594 4494 
L 1172 4494 
z
" transform="scale(0.015625)"/>
       <path id="DejaVuSans-79" d="M 2059 -325 
Q 1816 -950 1584 -1140 
Q 1353 -1331 966 -1331 
L 506 -1331 
L 506 -850 
L 844 -850 
Q 1081 -850 1212 -737 
Q 1344 -625 1503 -206 
L 1606 56 
L 191 3500 
L 800 3500 
L 1894 763 
L 2988 3500 
L 3597 3500 
L 2059 -325 
z
" transform="scale(0.015625)"/>
       <path id="DejaVuSans-4c" d="M 628 4666 
L 1259 4666 
L 1259 531 
L 3531 531 
L 3531 0 
L 628 0 
L 628 4666 
z
" transform="scale(0.015625)"/>
       <path id="DejaVuSans-28" d="M 1984 4856 
Q 1566 4138 1362 3434 
Q 1159 2731 1159 2009 
Q 1159 1288 1364 580 
Q 1569 -128 1984 -844 
L 1484 -844 
Q 1016 -109 783 600 
Q 550 1309 550 2009 
Q 550 2706 781 3412 
Q 1013 4119 1484 4856 
L 1984 4856 
z
" transform="scale(0.015625)"/>
       <path id="DejaVuSans-Oblique-51" d="M 2309 -84 
Q 2275 -88 2237 -89 
Q 2200 -91 2125 -91 
Q 1250 -91 756 411 
Q 263 913 263 1797 
Q 263 2319 452 2844 
Q 641 3369 978 3788 
Q 1369 4269 1858 4509 
Q 2347 4750 2938 4750 
Q 3794 4750 4287 4245 
Q 4781 3741 4781 2869 
Q 4781 1928 4265 1147 
Q 3750 366 2919 44 
L 3553 -825 
L 2847 -825 
L 2309 -84 
z
M 2919 4238 
Q 2400 4238 2003 3986 
Q 1606 3734 1313 3219 
Q 1125 2891 1026 2522 
Q 928 2153 928 1778 
Q 928 1128 1239 775 
Q 1550 422 2119 422 
Q 2631 422 3032 676 
Q 3434 931 3719 1434 
Q 3909 1772 4009 2142 
Q 4109 2513 4109 2881 
Q 4109 3528 3796 3883 
Q 3484 4238 2919 4238 
z
" transform="scale(0.015625)"/>
       <path id="DejaVuSans-77" d="M 269 3500 
L 844 3500 
L 1563 769 
L 2278 3500 
L 2956 3500 
L 3675 769 
L 4391 3500 
L 4966 3500 
L 4050 0 
L 3372 0 
L 2619 2869 
L 1863 0 
L 1184 0 
L 269 3500 
z
" transform="scale(0.015625)"/>
       <path id="DejaVuSans-69" d="M 603 3500 
L 1178 3500 
L 1178 0 
L 603 0 
L 603 3500 
z
M 603 4863 
L 1178 4863 
L 1178 4134 
L 603 4134 
L 603 4863 
z
" transform="scale(0.015625)"/>
       <path id="DejaVuSans-2212" d="M 678 2272 
L 4684 2272 
L 4684 1741 
L 678 1741 
L 678 2272 
z
" transform="scale(0.015625)"/>
       <path id="DejaVuSans-61" d="M 2194 1759 
Q 1497 1759 1228 1600 
Q 959 1441 959 1056 
Q 959 750 1161 570 
Q 1363 391 1709 391 
Q 2188 391 2477 730 
Q 2766 1069 2766 1631 
L 2766 1759 
L 2194 1759 
z
M 3341 1997 
L 3341 0 
L 2766 0 
L 2766 531 
Q 2569 213 2275 61 
Q 1981 -91 1556 -91 
Q 1019 -91 701 211 
Q 384 513 384 1019 
Q 384 1609 779 1909 
Q 1175 2209 1959 2209 
L 2766 2209 
L 2766 2266 
Q 2766 2663 2505 2880 
Q 2244 3097 1772 3097 
Q 1472 3097 1187 3025 
Q 903 2953 641 2809 
L 641 3341 
Q 956 3463 1253 3523 
Q 1550 3584 1831 3584 
Q 2591 3584 2966 3190 
Q 3341 2797 3341 1997 
z
" transform="scale(0.015625)"/>
       <path id="DejaVuSans-67" d="M 2906 1791 
Q 2906 2416 2648 2759 
Q 2391 3103 1925 3103 
Q 1463 3103 1205 2759 
Q 947 2416 947 1791 
Q 947 1169 1205 825 
Q 1463 481 1925 481 
Q 2391 481 2648 825 
Q 2906 1169 2906 1791 
z
M 3481 434 
Q 3481 -459 3084 -895 
Q 2688 -1331 1869 -1331 
Q 1566 -1331 1297 -1286 
Q 1028 -1241 775 -1147 
L 775 -588 
Q 1028 -725 1275 -790 
Q 1522 -856 1778 -856 
Q 2344 -856 2625 -561 
Q 2906 -266 2906 331 
L 2906 616 
Q 2728 306 2450 153 
Q 2172 0 1784 0 
Q 1141 0 747 490 
Q 353 981 353 1791 
Q 353 2603 747 3093 
Q 1141 3584 1784 3584 
Q 2172 3584 2450 3431 
Q 2728 3278 2906 2969 
L 2906 3500 
L 3481 3500 
L 3481 434 
z
" transform="scale(0.015625)"/>
       <path id="DejaVuSans-65" d="M 3597 1894 
L 3597 1613 
L 953 1613 
Q 991 1019 1311 708 
Q 1631 397 2203 397 
Q 2534 397 2845 478 
Q 3156 559 3463 722 
L 3463 178 
Q 3153 47 2828 -22 
Q 2503 -91 2169 -91 
Q 1331 -91 842 396 
Q 353 884 353 1716 
Q 353 2575 817 3079 
Q 1281 3584 2069 3584 
Q 2775 3584 3186 3129 
Q 3597 2675 3597 1894 
z
M 3022 2063 
Q 3016 2534 2758 2815 
Q 2500 3097 2075 3097 
Q 1594 3097 1305 2825 
Q 1016 2553 972 2059 
L 3022 2063 
z
" transform="scale(0.015625)"/>
       <path id="DejaVuSans-29" d="M 513 4856 
L 1013 4856 
Q 1481 4119 1714 3412 
Q 1947 2706 1947 2009 
Q 1947 1309 1714 600 
Q 1481 -109 1013 -844 
L 513 -844 
Q 928 -128 1133 580 
Q 1338 1288 1338 2009 
Q 1338 2731 1133 3434 
Q 928 4138 513 4856 
z
" transform="scale(0.015625)"/>
      </defs>
      <use xlink:href="#DejaVuSans-43" transform="translate(0 0.015625)"/>
      <use xlink:href="#DejaVuSans-72" transform="translate(69.824219 0.015625)"/>
      <use xlink:href="#DejaVuSans-6f" transform="translate(110.9375 0.015625)"/>
      <use xlink:href="#DejaVuSans-73" transform="translate(172.119141 0.015625)"/>
      <use xlink:href="#DejaVuSans-73" transform="translate(224.21875 0.015625)"/>
      <use xlink:href="#DejaVuSans-20" transform="translate(276.318359 0.015625)"/>
      <use xlink:href="#DejaVuSans-45" transform="translate(308.105469 0.015625)"/>
      <use xlink:href="#DejaVuSans-6e" transform="translate(371.289062 0.015625)"/>
      <use xlink:href="#DejaVuSans-74" transform="translate(434.667969 0.015625)"/>
      <use xlink:href="#DejaVuSans-72" transform="translate(473.876953 0.015625)"/>
      <use xlink:href="#DejaVuSans-6f" transform="translate(514.990234 0.015625)"/>
      <use xlink:href="#DejaVuSans-70" transform="translate(576.171875 0.015625)"/>
      <use xlink:href="#DejaVuSans-79" transform="translate(639.648438 0.015625)"/>
      <use xlink:href="#DejaVuSans-20" transform="translate(698.828125 0.015625)"/>
      <use xlink:href="#DejaVuSans-4c" transform="translate(730.615234 0.015625)"/>
      <use xlink:href="#DejaVuSans-6f" transform="translate(786.328125 0.015625)"/>
      <use xlink:href="#DejaVuSans-73" transform="translate(847.509766 0.015625)"/>
      <use xlink:href="#DejaVuSans-73" transform="translate(899.609375 0.015625)"/>
      <use xlink:href="#DejaVuSans-20" transform="translate(951.708984 0.015625)"/>
      <use xlink:href="#DejaVuSans-28" transform="translate(983.496094 0.015625)"/>
      <use xlink:href="#DejaVuSans-Oblique-51" transform="translate(1022.509766 0.015625)"/>
      <use xlink:href="#DejaVuSans-32" transform="translate(1101.220703 -16.390625)scale(0.7)"/>
      <use xlink:href="#DejaVuSans-20" transform="translate(1148.491211 0.015625)"/>
      <use xlink:href="#DejaVuSans-77" transform="translate(1180.27832 0.015625)"/>
      <use xlink:href="#DejaVuSans-69" transform="translate(1262.06543 0.015625)"/>
      <use xlink:href="#DejaVuSans-74" transform="translate(1289.848633 0.015625)"/>
      <use xlink:href="#DejaVuSans-68" transform="translate(1329.057617 0.015625)"/>
      <use xlink:href="#DejaVuSans-20" transform="translate(1392.436523 0.015625)"/>
      <use xlink:href="#DejaVuSans-Oblique-51" transform="translate(1424.223633 0.015625)"/>
      <use xlink:href="#DejaVuSans-31" transform="translate(1502.93457 -16.390625)scale(0.7)"/>
      <use xlink:href="#DejaVuSans-2212" transform="translate(1569.6875 0.015625)"/>
      <use xlink:href="#DejaVuSans-Oblique-51" transform="translate(1672.958984 0.015625)"/>
      <use xlink:href="#DejaVuSans-33" transform="translate(1751.669922 -16.390625)scale(0.7)"/>
      <use xlink:href="#DejaVuSans-20" transform="translate(1798.94043 0.015625)"/>
      <use xlink:href="#DejaVuSans-72" transform="translate(1830.727539 0.015625)"/>
      <use xlink:href="#DejaVuSans-61" transform="translate(1871.84082 0.015625)"/>
      <use xlink:href="#DejaVuSans-6e" transform="translate(1933.120117 0.015625)"/>
      <use xlink:href="#DejaVuSans-67" transform="translate(1996.499023 0.015625)"/>
      <use xlink:href="#DejaVuSans-65" transform="translate(2059.975586 0.015625)"/>
      <use xlink:href="#DejaVuSans-29" transform="translate(2121.499023 0.015625)"/>
     </g>
    </g>
   </g>
   <g id="line2d_27">
    <path d="M 59.739611 -1 
L 61.254161 65.937268 
L 64.826504 127.108864 
L 68.398848 161.414548 
L 71.971191 183.772668 
L 75.543534 200.046886 
L 79.115877 214.509851 
L 82.68822 223.98257 
L 86.260563 235.269933 
L 89.832907 241.910292 
L 93.40525 249.156436 
L 96.977593 253.62712 
L 100.549936 259.824352 
L 104.122279 263.990346 
L 107.694622 268.671242 
L 111.266965 270.246312 
L 114.839309 272.811189 
L 118.411652 274.858196 
L 121.983995 277.458798 
L 125.556338 278.098511 
L 129.128681 281.537048 
L 132.701024 282.945902 
L 136.273367 283.422363 
L 139.845711 285.602698 
L 143.418054 286.790744 
L 146.990397 287.209496 
L 150.56274 288.166749 
L 154.135083 289.798874 
L 157.707426 289.648 
L 161.27977 289.317031 
L 164.852113 291.379834 
L 168.424456 291.888817 
L 171.996799 292.074627 
L 175.569142 292.696931 
L 179.141485 292.08052 
L 182.713828 293.959465 
L 186.286172 294.384551 
L 189.858515 294.39855 
L 193.430858 295.127415 
L 197.003201 295.121364 
L 200.575544 296.29358 
L 204.147887 295.635207 
L 207.72023 296.638519 
L 211.292574 295.588137 
L 214.864917 296.350128 
L 218.43726 296.611933 
L 222.009603 296.801183 
L 225.581946 296.893687 
L 229.154289 296.848242 
" clip-path="url(#p96017a2612)" style="fill: none; stroke: #1f77b4; stroke-width: 1.5; stroke-linecap: square"/>
   </g>
   <g id="line2d_28">
    <path d="M 58.163662 -1 
L 61.254161 126.081421 
L 64.826504 186.810607 
L 68.398848 217.399392 
L 71.971191 238.286817 
L 75.543534 253.341727 
L 79.115877 264.227482 
L 82.68822 273.732747 
L 86.260563 281.515468 
L 89.832907 288.126349 
L 93.40525 291.283687 
L 96.977593 296.732996 
L 100.549936 301.102629 
L 104.122279 304.695433 
L 107.694622 308.102946 
L 111.266965 310.823992 
L 114.839309 311.853528 
L 118.411652 314.119453 
L 121.983995 316.003637 
L 125.556338 318.226391 
L 129.128681 319.862505 
L 132.701024 321.212315 
L 136.273367 322.92261 
L 139.845711 323.450698 
L 143.418054 324.160982 
L 146.990397 325.632995 
L 150.56274 324.78602 
L 154.135083 326.369598 
L 157.707426 326.876082 
L 161.27977 327.896824 
L 164.852113 328.744158 
L 168.424456 328.613637 
L 171.996799 330.459223 
L 175.569142 329.574586 
L 179.141485 329.543297 
L 182.713828 330.699218 
L 186.286172 332.115898 
L 189.858515 331.897108 
L 193.430858 332.287917 
L 197.003201 332.799947 
L 200.575544 332.973013 
L 204.147887 332.956112 
L 207.72023 333.208268 
L 211.292574 332.982734 
L 214.864917 333.65357 
L 218.43726 333.355678 
L 222.009603 333.779886 
L 225.581946 333.707247 
L 229.154289 334.725425 
L 232.726633 333.749135 
L 236.298976 335.112886 
L 239.871319 333.621782 
L 243.443662 335.314594 
L 247.016005 336.206962 
L 250.588348 334.395475 
L 254.160691 334.826074 
" clip-path="url(#p96017a2612)" style="fill: none; stroke: #ff7f0e; stroke-width: 1.5; stroke-linecap: square"/>
   </g>
   <g id="line2d_29">
    <path d="M 66.045504 -1 
L 68.398848 23.241464 
L 71.971191 47.160658 
L 75.543534 68.44975 
L 79.115877 83.443309 
L 82.68822 94.967406 
L 86.260563 103.983038 
L 89.832907 113.347258 
L 93.40525 124.830541 
L 96.977593 123.668277 
L 100.549936 131.678048 
L 104.122279 136.129596 
L 107.694622 144.387683 
L 111.266965 147.17756 
L 114.839309 147.837945 
L 118.411652 151.693352 
L 121.983995 158.273908 
L 125.556338 162.223442 
L 129.128681 160.520079 
L 132.701024 159.885977 
L 136.273367 166.10128 
L 139.845711 167.456547 
L 143.418054 167.751686 
L 146.990397 173.765668 
L 150.56274 171.90006 
L 154.135083 177.308437 
L 157.707426 174.249583 
L 161.27977 177.414479 
L 164.852113 177.60303 
L 168.424456 178.302678 
L 171.996799 176.828634 
L 175.569142 181.30725 
L 179.141485 179.800169 
L 182.713828 180.472661 
L 186.286172 177.6252 
L 189.858515 183.835848 
L 193.430858 185.404664 
L 197.003201 186.383358 
L 200.575544 187.58302 
L 204.147887 188.795712 
L 207.72023 188.839917 
L 211.292574 185.234561 
L 214.864917 189.037018 
L 218.43726 188.197818 
L 222.009603 190.912118 
L 225.581946 192.975341 
L 229.154289 193.308465 
L 232.726633 191.556041 
L 236.298976 187.192137 
L 239.871319 190.435527 
L 243.443662 191.017956 
L 247.016005 196.627789 
" clip-path="url(#p96017a2612)" style="fill: none; stroke: #2ca02c; stroke-width: 1.5; stroke-linecap: square"/>
   </g>
   <g id="line2d_30">
    <path d="M 58.379833 -1 
L 61.254161 122.918036 
L 64.826504 182.634053 
L 68.398848 214.746977 
L 71.971191 236.227627 
L 75.543534 250.732918 
L 79.115877 262.981501 
L 82.68822 271.37316 
L 86.260563 277.472591 
L 89.832907 282.752676 
L 93.40525 288.761605 
L 96.977593 292.815566 
L 100.549936 297.716961 
L 104.122279 300.387079 
L 107.694622 301.709215 
L 111.266965 305.790427 
L 114.839309 306.167679 
L 118.411652 309.304289 
L 121.983995 310.741099 
L 125.556338 311.966905 
L 129.128681 314.262678 
L 132.701024 315.17152 
L 136.273367 315.350506 
L 139.845711 316.840267 
L 143.418054 318.165588 
L 146.990397 318.064156 
L 150.56274 320.403051 
L 154.135083 319.534776 
L 157.707426 320.208586 
L 161.27977 320.984973 
L 164.852113 320.859422 
L 168.424456 321.554992 
L 171.996799 321.879379 
L 175.569142 322.366518 
L 179.141485 322.067288 
L 182.713828 322.921017 
L 186.286172 322.649892 
L 189.858515 322.803652 
L 193.430858 323.580868 
L 197.003201 322.86615 
L 200.575544 323.042726 
L 204.147887 323.987797 
L 207.72023 323.287564 
" clip-path="url(#p96017a2612)" style="fill: none; stroke: #d62728; stroke-width: 1.5; stroke-linecap: square"/>
   </g>
   <g id="line2d_31">
    <path d="M 57.681818 40.090194 
L 61.254161 117.160257 
L 64.826504 151.091434 
L 68.398848 167.043056 
L 71.971191 179.323615 
L 75.543534 191.088224 
L 79.115877 196.249237 
L 82.68822 203.173817 
L 86.260563 211.422274 
L 89.832907 213.597162 
L 93.40525 216.840411 
L 96.977593 222.369332 
L 100.549936 223.496209 
L 104.122279 228.153918 
L 107.694622 230.17774 
L 111.266965 230.729643 
L 114.839309 232.160511 
L 118.411652 230.439158 
L 121.983995 233.228004 
L 125.556338 233.653271 
L 129.128681 236.859097 
L 132.701024 236.491101 
L 136.273367 240.073651 
L 139.845711 240.722087 
L 143.418054 242.023981 
L 146.990397 240.969695 
L 150.56274 240.748241 
L 154.135083 242.461525 
" clip-path="url(#p96017a2612)" style="fill: none; stroke-dasharray: 5.55,2.4; stroke-dashoffset: 0; stroke: #9467bd; stroke-width: 1.5"/>
   </g>
   <g id="line2d_32">
    <path d="M 59.104585 -1 
L 61.254161 99.695647 
L 64.826504 160.856311 
L 68.398848 189.891412 
L 71.971191 209.529651 
L 75.543534 223.310211 
L 79.115877 231.873118 
L 82.68822 242.967139 
L 86.260563 247.40869 
L 89.832907 254.253572 
L 93.40525 256.637672 
L 96.977593 261.145544 
L 100.549936 263.567506 
L 104.122279 265.773536 
L 107.694622 271.101508 
L 111.266965 272.131404 
L 114.839309 274.728843 
L 118.411652 272.854602 
L 121.983995 273.972431 
L 125.556338 276.134026 
L 129.128681 278.769099 
L 132.701024 280.591842 
L 136.273367 279.171321 
L 139.845711 282.641443 
L 143.418054 280.211775 
L 146.990397 281.547676 
L 150.56274 279.912975 
L 154.135083 281.14929 
L 157.707426 282.695468 
L 161.27977 282.109637 
L 164.852113 284.038546 
L 168.424456 284.312664 
L 171.996799 284.026084 
L 175.569142 284.658194 
L 179.141485 284.572148 
L 182.713828 283.810472 
L 186.286172 285.050679 
" clip-path="url(#p96017a2612)" style="fill: none; stroke-dasharray: 5.55,2.4; stroke-dashoffset: 0; stroke: #8c564b; stroke-width: 1.5"/>
   </g>
   <g id="line2d_33">
    <path d="M 64.442762 -1 
L 64.826504 8.597566 
L 68.398848 56.500568 
L 71.971191 90.244495 
L 75.543534 112.441756 
L 79.115877 129.363793 
L 82.68822 141.265107 
L 86.260563 151.523687 
L 89.832907 159.263956 
L 93.40525 167.518732 
L 96.977593 173.660548 
L 100.549936 179.832818 
L 104.122279 184.388176 
L 107.694622 188.360779 
L 111.266965 190.442916 
L 114.839309 194.283273 
L 118.411652 196.948988 
L 121.983995 199.113551 
L 125.556338 202.240813 
L 129.128681 203.478689 
L 132.701024 206.115581 
L 136.273367 206.85115 
L 139.845711 209.509602 
L 143.418054 210.335792 
L 146.990397 211.478893 
L 150.56274 211.455707 
L 154.135083 212.566711 
L 157.707426 213.579746 
L 161.27977 214.361534 
L 164.852113 214.881 
L 168.424456 214.473424 
L 171.996799 215.720069 
L 175.569142 217.383914 
L 179.141485 217.359996 
L 182.713828 216.991509 
L 186.286172 218.054977 
L 189.858515 217.903774 
L 193.430858 218.48994 
L 197.003201 218.009104 
L 200.575544 218.626618 
L 204.147887 218.899949 
L 207.72023 219.978913 
L 211.292574 219.015067 
L 214.864917 219.747881 
L 218.43726 218.86232 
L 222.009603 219.558037 
L 225.581946 219.336732 
L 229.154289 220.418566 
L 232.726633 219.28813 
L 236.298976 219.161234 
L 239.871319 219.296816 
L 243.443662 219.314897 
" clip-path="url(#p96017a2612)" style="fill: none; stroke-dasharray: 5.55,2.4; stroke-dashoffset: 0; stroke: #e377c2; stroke-width: 1.5"/>
   </g>
   <g id="line2d_34">
    <path d="M 60.321917 -1 
L 61.254161 46.288427 
L 64.826504 122.625032 
L 68.398848 166.13894 
L 71.971191 194.73577 
L 75.543534 213.46091 
L 79.115877 229.686823 
L 82.68822 240.848048 
L 86.260563 252.925314 
L 89.832907 261.727373 
L 93.40525 268.542612 
L 96.977593 273.495423 
L 100.549936 280.983268 
L 104.122279 286.350807 
L 107.694622 289.508994 
L 111.266965 294.486444 
L 114.839309 297.297596 
L 118.411652 300.681695 
L 121.983995 302.057624 
L 125.556338 304.731446 
L 129.128681 306.265135 
L 132.701024 309.312261 
L 136.273367 311.444388 
L 139.845711 312.403538 
L 143.418054 313.464654 
L 146.990397 316.119593 
L 150.56274 317.034276 
L 154.135083 318.537155 
L 157.707426 319.184267 
L 161.27977 321.812062 
L 164.852113 322.448438 
L 168.424456 322.959719 
L 171.996799 323.449656 
L 175.569142 325.4077 
L 179.141485 323.488485 
L 182.713828 325.585437 
L 186.286172 325.655378 
L 189.858515 328.619548 
L 193.430858 328.372012 
L 197.003201 329.254481 
L 200.575544 329.223891 
L 204.147887 330.863158 
L 207.72023 329.882365 
L 211.292574 329.988174 
L 214.864917 330.111698 
L 218.43726 330.631463 
L 222.009603 330.70115 
L 225.581946 331.136563 
L 229.154289 331.94182 
L 232.726633 333.112881 
L 236.298976 334.45877 
L 239.871319 333.931231 
L 243.443662 334.361352 
L 247.016005 333.224335 
L 250.588348 333.646066 
L 254.160691 334.02391 
L 257.733035 335.30062 
L 261.305378 335.791466 
L 264.877721 335.296271 
L 268.450064 336.623965 
L 272.022407 336.748352 
L 275.59475 335.994087 
L 279.167093 335.907408 
L 282.739437 336.768662 
L 286.31178 338.605053 
L 289.884123 336.018102 
L 293.456466 337.822319 
L 297.028809 338.203541 
L 300.601152 337.571004 
L 304.173496 337.90787 
L 307.745839 337.753184 
L 311.318182 337.463431 
" clip-path="url(#p96017a2612)" style="fill: none; stroke-dasharray: 5.55,2.4; stroke-dashoffset: 0; stroke: #7f7f7f; stroke-width: 1.5"/>
   </g>
   <g id="patch_3">
    <path d="M 45 378 
L 45 51.84 
" style="fill: none; stroke: #000000; stroke-width: 0.8; stroke-linejoin: miter; stroke-linecap: square"/>
   </g>
   <g id="patch_4">
    <path d="M 324 378 
L 324 51.84 
" style="fill: none; stroke: #000000; stroke-width: 0.8; stroke-linejoin: miter; stroke-linecap: square"/>
   </g>
   <g id="patch_5">
    <path d="M 45 378 
L 324 378 
" style="fill: none; stroke: #000000; stroke-width: 0.8; stroke-linejoin: miter; stroke-linecap: square"/>
   </g>
   <g id="patch_6">
    <path d="M 45 51.84 
L 324 51.84 
" style="fill: none; stroke: #000000; stroke-width: 0.8; stroke-linejoin: miter; stroke-linecap: square"/>
   </g>
   <g id="legend_1">
    <g id="patch_7">
     <path d="M 200.907812 178.93375 
L 317 178.93375 
Q 319 178.93375 319 176.93375 
L 319 58.84 
Q 319 56.84 317 56.84 
L 200.907812 56.84 
Q 198.907812 56.84 198.907812 58.84 
L 198.907812 176.93375 
Q 198.907812 178.93375 200.907812 178.93375 
z
" style="fill: #ffffff; opacity: 0.8; stroke: #cccccc; stroke-linejoin: miter"/>
    </g>
    <g id="line2d_35">
     <path d="M 202.907812 64.938437 
L 212.907812 64.938437 
L 222.907812 64.938437 
" style="fill: none; stroke: #1f77b4; stroke-width: 1.5; stroke-linecap: square"/>
    </g>
    <g id="text_16">
     <!-- vit_b_16 -->
     <g transform="translate(230.907812 68.438437)scale(0.1 -0.1)">
      <defs>
       <path id="DejaVuSans-76" d="M 191 3500 
L 800 3500 
L 1894 563 
L 2988 3500 
L 3597 3500 
L 2284 0 
L 1503 0 
L 191 3500 
z
" transform="scale(0.015625)"/>
       <path id="DejaVuSans-5f" d="M 3263 -1063 
L 3263 -1509 
L -63 -1509 
L -63 -1063 
L 3263 -1063 
z
" transform="scale(0.015625)"/>
       <path id="DejaVuSans-62" d="M 3116 1747 
Q 3116 2381 2855 2742 
Q 2594 3103 2138 3103 
Q 1681 3103 1420 2742 
Q 1159 2381 1159 1747 
Q 1159 1113 1420 752 
Q 1681 391 2138 391 
Q 2594 391 2855 752 
Q 3116 1113 3116 1747 
z
M 1159 2969 
Q 1341 3281 1617 3432 
Q 1894 3584 2278 3584 
Q 2916 3584 3314 3078 
Q 3713 2572 3713 1747 
Q 3713 922 3314 415 
Q 2916 -91 2278 -91 
Q 1894 -91 1617 61 
Q 1341 213 1159 525 
L 1159 0 
L 581 0 
L 581 4863 
L 1159 4863 
L 1159 2969 
z
" transform="scale(0.015625)"/>
      </defs>
      <use xlink:href="#DejaVuSans-76"/>
      <use xlink:href="#DejaVuSans-69" x="59.179688"/>
      <use xlink:href="#DejaVuSans-74" x="86.962891"/>
      <use xlink:href="#DejaVuSans-5f" x="126.171875"/>
      <use xlink:href="#DejaVuSans-62" x="176.171875"/>
      <use xlink:href="#DejaVuSans-5f" x="239.648438"/>
      <use xlink:href="#DejaVuSans-31" x="289.648438"/>
      <use xlink:href="#DejaVuSans-36" x="353.271484"/>
     </g>
    </g>
    <g id="line2d_36">
     <path d="M 202.907812 79.894687 
L 212.907812 79.894687 
L 222.907812 79.894687 
" style="fill: none; stroke: #ff7f0e; stroke-width: 1.5; stroke-linecap: square"/>
    </g>
    <g id="text_17">
     <!-- swin_b -->
     <g transform="translate(230.907812 83.394687)scale(0.1 -0.1)">
      <use xlink:href="#DejaVuSans-73"/>
      <use xlink:href="#DejaVuSans-77" x="52.099609"/>
      <use xlink:href="#DejaVuSans-69" x="133.886719"/>
      <use xlink:href="#DejaVuSans-6e" x="161.669922"/>
      <use xlink:href="#DejaVuSans-5f" x="225.048828"/>
      <use xlink:href="#DejaVuSans-62" x="275.048828"/>
     </g>
    </g>
    <g id="line2d_37">
     <path d="M 202.907812 94.850937 
L 212.907812 94.850937 
L 222.907812 94.850937 
" style="fill: none; stroke: #2ca02c; stroke-width: 1.5; stroke-linecap: square"/>
    </g>
    <g id="text_18">
     <!-- beit_b_16 -->
     <g transform="translate(230.907812 98.350937)scale(0.1 -0.1)">
      <use xlink:href="#DejaVuSans-62"/>
      <use xlink:href="#DejaVuSans-65" x="63.476562"/>
      <use xlink:href="#DejaVuSans-69" x="125"/>
      <use xlink:href="#DejaVuSans-74" x="152.783203"/>
      <use xlink:href="#DejaVuSans-5f" x="191.992188"/>
      <use xlink:href="#DejaVuSans-62" x="241.992188"/>
      <use xlink:href="#DejaVuSans-5f" x="305.46875"/>
      <use xlink:href="#DejaVuSans-31" x="355.46875"/>
      <use xlink:href="#DejaVuSans-36" x="419.091797"/>
     </g>
    </g>
    <g id="line2d_38">
     <path d="M 202.907812 109.807187 
L 212.907812 109.807187 
L 222.907812 109.807187 
" style="fill: none; stroke: #d62728; stroke-width: 1.5; stroke-linecap: square"/>
    </g>
    <g id="text_19">
     <!-- deit_b_16 -->
     <g transform="translate(230.907812 113.307187)scale(0.1 -0.1)">
      <defs>
       <path id="DejaVuSans-64" d="M 2906 2969 
L 2906 4863 
L 3481 4863 
L 3481 0 
L 2906 0 
L 2906 525 
Q 2725 213 2448 61 
Q 2172 -91 1784 -91 
Q 1150 -91 751 415 
Q 353 922 353 1747 
Q 353 2572 751 3078 
Q 1150 3584 1784 3584 
Q 2172 3584 2448 3432 
Q 2725 3281 2906 2969 
z
M 947 1747 
Q 947 1113 1208 752 
Q 1469 391 1925 391 
Q 2381 391 2643 752 
Q 2906 1113 2906 1747 
Q 2906 2381 2643 2742 
Q 2381 3103 1925 3103 
Q 1469 3103 1208 2742 
Q 947 2381 947 1747 
z
" transform="scale(0.015625)"/>
      </defs>
      <use xlink:href="#DejaVuSans-64"/>
      <use xlink:href="#DejaVuSans-65" x="63.476562"/>
      <use xlink:href="#DejaVuSans-69" x="125"/>
      <use xlink:href="#DejaVuSans-74" x="152.783203"/>
      <use xlink:href="#DejaVuSans-5f" x="191.992188"/>
      <use xlink:href="#DejaVuSans-62" x="241.992188"/>
      <use xlink:href="#DejaVuSans-5f" x="305.46875"/>
      <use xlink:href="#DejaVuSans-31" x="355.46875"/>
      <use xlink:href="#DejaVuSans-36" x="419.091797"/>
     </g>
    </g>
    <g id="line2d_39">
     <path d="M 202.907812 124.763437 
L 212.907812 124.763437 
L 222.907812 124.763437 
" style="fill: none; stroke-dasharray: 5.55,2.4; stroke-dashoffset: 0; stroke: #9467bd; stroke-width: 1.5"/>
    </g>
    <g id="text_20">
     <!-- vgg19 -->
     <g transform="translate(230.907812 128.263437)scale(0.1 -0.1)">
      <defs>
       <path id="DejaVuSans-39" d="M 703 97 
L 703 672 
Q 941 559 1184 500 
Q 1428 441 1663 441 
Q 2288 441 2617 861 
Q 2947 1281 2994 2138 
Q 2813 1869 2534 1725 
Q 2256 1581 1919 1581 
Q 1219 1581 811 2004 
Q 403 2428 403 3163 
Q 403 3881 828 4315 
Q 1253 4750 1959 4750 
Q 2769 4750 3195 4129 
Q 3622 3509 3622 2328 
Q 3622 1225 3098 567 
Q 2575 -91 1691 -91 
Q 1453 -91 1209 -44 
Q 966 3 703 97 
z
M 1959 2075 
Q 2384 2075 2632 2365 
Q 2881 2656 2881 3163 
Q 2881 3666 2632 3958 
Q 2384 4250 1959 4250 
Q 1534 4250 1286 3958 
Q 1038 3666 1038 3163 
Q 1038 2656 1286 2365 
Q 1534 2075 1959 2075 
z
" transform="scale(0.015625)"/>
      </defs>
      <use xlink:href="#DejaVuSans-76"/>
      <use xlink:href="#DejaVuSans-67" x="59.179688"/>
      <use xlink:href="#DejaVuSans-67" x="122.65625"/>
      <use xlink:href="#DejaVuSans-31" x="186.132812"/>
      <use xlink:href="#DejaVuSans-39" x="249.755859"/>
     </g>
    </g>
    <g id="line2d_40">
     <path d="M 202.907812 139.441562 
L 212.907812 139.441562 
L 222.907812 139.441562 
" style="fill: none; stroke-dasharray: 5.55,2.4; stroke-dashoffset: 0; stroke: #8c564b; stroke-width: 1.5"/>
    </g>
    <g id="text_21">
     <!-- resnet50 -->
     <g transform="translate(230.907812 142.941562)scale(0.1 -0.1)">
      <use xlink:href="#DejaVuSans-72"/>
      <use xlink:href="#DejaVuSans-65" x="38.863281"/>
      <use xlink:href="#DejaVuSans-73" x="100.386719"/>
      <use xlink:href="#DejaVuSans-6e" x="152.486328"/>
      <use xlink:href="#DejaVuSans-65" x="215.865234"/>
      <use xlink:href="#DejaVuSans-74" x="277.388672"/>
      <use xlink:href="#DejaVuSans-35" x="316.597656"/>
      <use xlink:href="#DejaVuSans-30" x="380.220703"/>
     </g>
    </g>
    <g id="line2d_41">
     <path d="M 202.907812 154.119687 
L 212.907812 154.119687 
L 222.907812 154.119687 
" style="fill: none; stroke-dasharray: 5.55,2.4; stroke-dashoffset: 0; stroke: #e377c2; stroke-width: 1.5"/>
    </g>
    <g id="text_22">
     <!-- efficientnetv2_m -->
     <g transform="translate(230.907812 157.619687)scale(0.1 -0.1)">
      <defs>
       <path id="DejaVuSans-66" d="M 2375 4863 
L 2375 4384 
L 1825 4384 
Q 1516 4384 1395 4259 
Q 1275 4134 1275 3809 
L 1275 3500 
L 2222 3500 
L 2222 3053 
L 1275 3053 
L 1275 0 
L 697 0 
L 697 3053 
L 147 3053 
L 147 3500 
L 697 3500 
L 697 3744 
Q 697 4328 969 4595 
Q 1241 4863 1831 4863 
L 2375 4863 
z
" transform="scale(0.015625)"/>
       <path id="DejaVuSans-6d" d="M 3328 2828 
Q 3544 3216 3844 3400 
Q 4144 3584 4550 3584 
Q 5097 3584 5394 3201 
Q 5691 2819 5691 2113 
L 5691 0 
L 5113 0 
L 5113 2094 
Q 5113 2597 4934 2840 
Q 4756 3084 4391 3084 
Q 3944 3084 3684 2787 
Q 3425 2491 3425 1978 
L 3425 0 
L 2847 0 
L 2847 2094 
Q 2847 2600 2669 2842 
Q 2491 3084 2119 3084 
Q 1678 3084 1418 2786 
Q 1159 2488 1159 1978 
L 1159 0 
L 581 0 
L 581 3500 
L 1159 3500 
L 1159 2956 
Q 1356 3278 1631 3431 
Q 1906 3584 2284 3584 
Q 2666 3584 2933 3390 
Q 3200 3197 3328 2828 
z
" transform="scale(0.015625)"/>
      </defs>
      <use xlink:href="#DejaVuSans-65"/>
      <use xlink:href="#DejaVuSans-66" x="61.523438"/>
      <use xlink:href="#DejaVuSans-66" x="96.728516"/>
      <use xlink:href="#DejaVuSans-69" x="131.933594"/>
      <use xlink:href="#DejaVuSans-63" x="159.716797"/>
      <use xlink:href="#DejaVuSans-69" x="214.697266"/>
      <use xlink:href="#DejaVuSans-65" x="242.480469"/>
      <use xlink:href="#DejaVuSans-6e" x="304.003906"/>
      <use xlink:href="#DejaVuSans-74" x="367.382812"/>
      <use xlink:href="#DejaVuSans-6e" x="406.591797"/>
      <use xlink:href="#DejaVuSans-65" x="469.970703"/>
      <use xlink:href="#DejaVuSans-74" x="531.494141"/>
      <use xlink:href="#DejaVuSans-76" x="570.703125"/>
      <use xlink:href="#DejaVuSans-32" x="629.882812"/>
      <use xlink:href="#DejaVuSans-5f" x="693.505859"/>
      <use xlink:href="#DejaVuSans-6d" x="743.505859"/>
     </g>
    </g>
    <g id="line2d_42">
     <path d="M 202.907812 169.075937 
L 212.907812 169.075937 
L 222.907812 169.075937 
" style="fill: none; stroke-dasharray: 5.55,2.4; stroke-dashoffset: 0; stroke: #7f7f7f; stroke-width: 1.5"/>
    </g>
    <g id="text_23">
     <!-- convnext_b -->
     <g transform="translate(230.907812 172.575937)scale(0.1 -0.1)">
      <defs>
       <path id="DejaVuSans-78" d="M 3513 3500 
L 2247 1797 
L 3578 0 
L 2900 0 
L 1881 1375 
L 863 0 
L 184 0 
L 1544 1831 
L 300 3500 
L 978 3500 
L 1906 2253 
L 2834 3500 
L 3513 3500 
z
" transform="scale(0.015625)"/>
      </defs>
      <use xlink:href="#DejaVuSans-63"/>
      <use xlink:href="#DejaVuSans-6f" x="54.980469"/>
      <use xlink:href="#DejaVuSans-6e" x="116.162109"/>
      <use xlink:href="#DejaVuSans-76" x="179.541016"/>
      <use xlink:href="#DejaVuSans-6e" x="238.720703"/>
      <use xlink:href="#DejaVuSans-65" x="302.099609"/>
      <use xlink:href="#DejaVuSans-78" x="361.873047"/>
      <use xlink:href="#DejaVuSans-74" x="421.052734"/>
      <use xlink:href="#DejaVuSans-5f" x="460.261719"/>
      <use xlink:href="#DejaVuSans-62" x="510.261719"/>
     </g>
    </g>
   </g>
  </g>
 </g>
 <defs>
  <clipPath id="p96017a2612">
   <rect x="45" y="51.84" width="279" height="326.16"/>
  </clipPath>
 </defs>
</svg>
