<?xml version="1.0" encoding="utf-8" standalone="no"?>
<!DOCTYPE svg PUBLIC "-//W3C//DTD SVG 1.1//EN"
  "http://www.w3.org/Graphics/SVG/1.1/DTD/svg11.dtd">
<svg xmlns:xlink="http://www.w3.org/1999/xlink" width="360pt" height="432pt" viewBox="0 0 360 432" xmlns="http://www.w3.org/2000/svg" version="1.1">
 <metadata>
  <rdf:RDF xmlns:dc="http://purl.org/dc/elements/1.1/" xmlns:cc="http://creativecommons.org/ns#" xmlns:rdf="http://www.w3.org/1999/02/22-rdf-syntax-ns#">
   <cc:Work>
    <dc:type rdf:resource="http://purl.org/dc/dcmitype/StillImage"/>
    <dc:date>2022-05-21T09:42:59.950142</dc:date>
    <dc:format>image/svg+xml</dc:format>
    <dc:creator>
     <cc:Agent>
      <dc:title>Matplotlib v3.5.2, https://matplotlib.org/</dc:title>
     </cc:Agent>
    </dc:creator>
   </cc:Work>
  </rdf:RDF>
 </metadata>
 <defs>
  <style type="text/css">*{stroke-linejoin: round; stroke-linecap: butt}</style>
 </defs>
 <g id="figure_1">
  <g id="patch_1">
   <path d="M 0 432 
L 360 432 
L 360 0 
L 0 0 
L 0 432 
z
" style="fill: none"/>
  </g>
  <g id="axes_1">
   <g id="patch_2">
    <path d="M 45 378 
L 324 378 
L 324 51.84 
L 45 51.84 
z
" style="fill: #ffffff"/>
   </g>
   <g id="PolyCollection_1">
    <path d="M 57.681818 444.068308 
L 57.681818 459.121846 
L 61.254161 353.747077 
L 64.826504 326.985231 
L 68.398848 285.169846 
L 71.971191 256.735385 
L 75.543534 236.664 
L 79.115877 223.283077 
L 82.68822 214.92 
L 86.260563 198.193846 
L 89.832907 196.521231 
L 93.40525 189.830769 
L 96.977593 191.503385 
L 100.549936 186.485538 
L 104.122279 178.122462 
L 107.694622 174.777231 
L 111.266965 176.449846 
L 114.839309 174.777231 
L 118.411652 176.449846 
L 121.983995 171.432 
L 125.556338 171.432 
L 129.128681 171.432 
L 132.701024 168.086769 
L 136.273367 171.432 
L 139.845711 169.759385 
L 143.418054 168.086769 
L 146.990397 169.759385 
L 150.56274 169.759385 
L 154.135083 161.396308 
L 157.707426 168.086769 
L 161.27977 163.068923 
L 164.852113 163.068923 
L 168.424456 161.396308 
L 171.996799 159.723692 
L 175.569142 161.396308 
L 179.141485 161.396308 
L 182.713828 153.033231 
L 186.286172 159.723692 
L 189.858515 154.705846 
L 193.430858 154.705846 
L 197.003201 164.741538 
L 200.575544 154.705846 
L 204.147887 158.051077 
L 207.72023 153.033231 
L 211.292574 154.705846 
L 214.864917 159.723692 
L 218.43726 156.378462 
L 222.009603 164.741538 
L 225.581946 154.705846 
L 229.154289 151.360615 
L 229.154289 146.342769 
L 229.154289 146.342769 
L 225.581946 148.015385 
L 222.009603 144.670154 
L 218.43726 144.670154 
L 214.864917 148.015385 
L 211.292574 146.342769 
L 207.72023 148.015385 
L 204.147887 149.688 
L 200.575544 146.342769 
L 197.003201 144.670154 
L 193.430858 149.688 
L 189.858515 149.688 
L 186.286172 146.342769 
L 182.713828 148.015385 
L 179.141485 146.342769 
L 175.569142 151.360615 
L 171.996799 151.360615 
L 168.424456 149.688 
L 164.852113 153.033231 
L 161.27977 146.342769 
L 157.707426 151.360615 
L 154.135083 153.033231 
L 150.56274 149.688 
L 146.990397 148.015385 
L 143.418054 156.378462 
L 139.845711 151.360615 
L 136.273367 158.051077 
L 132.701024 161.396308 
L 129.128681 161.396308 
L 125.556338 163.068923 
L 121.983995 161.396308 
L 118.411652 158.051077 
L 114.839309 164.741538 
L 111.266965 166.414154 
L 107.694622 173.104615 
L 104.122279 174.777231 
L 100.549936 176.449846 
L 96.977593 176.449846 
L 93.40525 181.467692 
L 89.832907 186.485538 
L 86.260563 191.503385 
L 82.68822 198.193846 
L 79.115877 204.884308 
L 75.543534 229.973538 
L 71.971191 238.336615 
L 68.398848 258.408 
L 64.826504 295.205538 
L 61.254161 347.056615 
L 57.681818 444.068308 
z
" clip-path="url(#p26948e4565)" style="fill: #1f77b4; fill-opacity: 0.2"/>
   </g>
   <g id="PolyCollection_2">
    <path d="M 57.681818 360.437538 
L 57.681818 372.145846 
L 61.254161 293.532923 
L 64.826504 245.027077 
L 68.398848 213.247385 
L 71.971191 199.866462 
L 75.543534 186.485538 
L 79.115877 178.122462 
L 82.68822 169.759385 
L 86.260563 164.741538 
L 89.832907 154.705846 
L 93.40525 154.705846 
L 96.977593 153.033231 
L 100.549936 146.342769 
L 104.122279 141.324923 
L 107.694622 142.997538 
L 111.266965 139.652308 
L 114.839309 127.944 
L 118.411652 131.289231 
L 121.983995 127.944 
L 125.556338 131.289231 
L 129.128681 122.926154 
L 132.701024 129.616615 
L 136.273367 127.944 
L 139.845711 129.616615 
L 143.418054 126.271385 
L 146.990397 126.271385 
L 150.56274 132.961846 
L 154.135083 121.253538 
L 157.707426 119.580923 
L 161.27977 117.908308 
L 164.852113 122.926154 
L 168.424456 124.598769 
L 171.996799 119.580923 
L 175.569142 121.253538 
L 179.141485 119.580923 
L 182.713828 114.563077 
L 186.286172 117.908308 
L 189.858515 116.235692 
L 193.430858 114.563077 
L 197.003201 116.235692 
L 200.575544 121.253538 
L 204.147887 114.563077 
L 207.72023 116.235692 
L 211.292574 119.580923 
L 214.864917 119.580923 
L 218.43726 116.235692 
L 222.009603 122.926154 
L 225.581946 114.563077 
L 229.154289 114.563077 
L 232.726633 116.235692 
L 236.298976 112.890462 
L 239.871319 116.235692 
L 243.443662 112.890462 
L 247.016005 114.563077 
L 250.588348 117.908308 
L 254.160691 116.235692 
L 254.160691 102.854769 
L 254.160691 102.854769 
L 250.588348 101.182154 
L 247.016005 104.527385 
L 243.443662 101.182154 
L 239.871319 106.2 
L 236.298976 106.2 
L 232.726633 106.2 
L 229.154289 112.890462 
L 225.581946 104.527385 
L 222.009603 106.2 
L 218.43726 106.2 
L 214.864917 114.563077 
L 211.292574 116.235692 
L 207.72023 109.545231 
L 204.147887 109.545231 
L 200.575544 106.2 
L 197.003201 109.545231 
L 193.430858 109.545231 
L 189.858515 111.217846 
L 186.286172 109.545231 
L 182.713828 112.890462 
L 179.141485 112.890462 
L 175.569142 117.908308 
L 171.996799 107.872615 
L 168.424456 116.235692 
L 164.852113 114.563077 
L 161.27977 112.890462 
L 157.707426 116.235692 
L 154.135083 114.563077 
L 150.56274 117.908308 
L 146.990397 114.563077 
L 143.418054 112.890462 
L 139.845711 116.235692 
L 136.273367 112.890462 
L 132.701024 116.235692 
L 129.128681 119.580923 
L 125.556338 122.926154 
L 121.983995 119.580923 
L 118.411652 116.235692 
L 114.839309 126.271385 
L 111.266965 124.598769 
L 107.694622 122.926154 
L 104.122279 127.944 
L 100.549936 131.289231 
L 96.977593 131.289231 
L 93.40525 124.598769 
L 89.832907 141.324923 
L 86.260563 136.307077 
L 82.68822 146.342769 
L 79.115877 159.723692 
L 75.543534 163.068923 
L 71.971191 181.467692 
L 68.398848 204.884308 
L 64.826504 234.991385 
L 61.254161 271.788923 
L 57.681818 360.437538 
z
" clip-path="url(#p26948e4565)" style="fill: #ff7f0e; fill-opacity: 0.2"/>
   </g>
   <g id="PolyCollection_3">
    <path d="M 57.681818 561.151385 
L 57.681818 577.877538 
L 61.254161 495.919385 
L 64.826504 450.758769 
L 68.398848 412.288615 
L 71.971191 387.199385 
L 75.543534 373.818462 
L 79.115877 355.419692 
L 82.68822 348.729231 
L 86.260563 345.384 
L 89.832907 318.622154 
L 93.40525 320.294769 
L 96.977593 308.586462 
L 100.549936 313.604308 
L 104.122279 315.276923 
L 107.694622 311.931692 
L 111.266965 311.931692 
L 114.839309 291.860308 
L 118.411652 290.187692 
L 121.983995 290.187692 
L 125.556338 280.152 
L 129.128681 293.532923 
L 132.701024 281.824615 
L 136.273367 273.461538 
L 139.845711 276.806769 
L 143.418054 270.116308 
L 146.990397 266.771077 
L 150.56274 276.806769 
L 154.135083 256.735385 
L 157.707426 263.425846 
L 161.27977 266.771077 
L 164.852113 260.080615 
L 168.424456 258.408 
L 171.996799 270.116308 
L 175.569142 256.735385 
L 179.141485 260.080615 
L 182.713828 260.080615 
L 186.286172 261.753231 
L 189.858515 263.425846 
L 193.430858 258.408 
L 197.003201 246.699692 
L 200.575544 248.372308 
L 204.147887 251.717538 
L 207.72023 245.027077 
L 211.292574 258.408 
L 214.864917 246.699692 
L 218.43726 251.717538 
L 222.009603 241.681846 
L 225.581946 250.044923 
L 229.154289 251.717538 
L 232.726633 253.390154 
L 236.298976 250.044923 
L 239.871319 245.027077 
L 243.443662 248.372308 
L 247.016005 240.009231 
L 247.016005 233.318769 
L 247.016005 233.318769 
L 243.443662 240.009231 
L 239.871319 229.973538 
L 236.298976 241.681846 
L 232.726633 236.664 
L 229.154289 238.336615 
L 225.581946 240.009231 
L 222.009603 236.664 
L 218.43726 236.664 
L 214.864917 238.336615 
L 211.292574 253.390154 
L 207.72023 238.336615 
L 204.147887 243.354462 
L 200.575544 243.354462 
L 197.003201 245.027077 
L 193.430858 243.354462 
L 189.858515 246.699692 
L 186.286172 248.372308 
L 182.713828 246.699692 
L 179.141485 255.062769 
L 175.569142 245.027077 
L 171.996799 243.354462 
L 168.424456 248.372308 
L 164.852113 251.717538 
L 161.27977 253.390154 
L 157.707426 250.044923 
L 154.135083 250.044923 
L 150.56274 260.080615 
L 146.990397 263.425846 
L 143.418054 260.080615 
L 139.845711 263.425846 
L 136.273367 265.098462 
L 132.701024 268.443692 
L 129.128681 260.080615 
L 125.556338 273.461538 
L 121.983995 270.116308 
L 118.411652 281.824615 
L 114.839309 275.134154 
L 111.266965 293.532923 
L 107.694622 286.842462 
L 104.122279 300.223385 
L 100.549936 296.878154 
L 96.977593 300.223385 
L 93.40525 303.568615 
L 89.832907 308.586462 
L 86.260563 310.259077 
L 82.68822 333.675692 
L 79.115877 328.657846 
L 75.543534 345.384 
L 71.971191 375.491077 
L 68.398848 368.800615 
L 64.826504 402.252923 
L 61.254161 462.467077 
L 57.681818 561.151385 
z
" clip-path="url(#p26948e4565)" style="fill: #2ca02c; fill-opacity: 0.2"/>
   </g>
   <g id="PolyCollection_4">
    <path d="M 57.681818 365.455385 
L 57.681818 368.800615 
L 61.254161 290.187692 
L 64.826504 258.408 
L 68.398848 224.955692 
L 71.971191 194.848615 
L 75.543534 193.176 
L 79.115877 181.467692 
L 82.68822 174.777231 
L 86.260563 159.723692 
L 89.832907 161.396308 
L 93.40525 154.705846 
L 96.977593 149.688 
L 100.549936 146.342769 
L 104.122279 148.015385 
L 107.694622 149.688 
L 111.266965 137.979692 
L 114.839309 132.961846 
L 118.411652 132.961846 
L 121.983995 134.634462 
L 125.556338 139.652308 
L 129.128681 134.634462 
L 132.701024 131.289231 
L 136.273367 129.616615 
L 139.845711 134.634462 
L 143.418054 126.271385 
L 146.990397 131.289231 
L 150.56274 131.289231 
L 154.135083 127.944 
L 157.707426 127.944 
L 161.27977 124.598769 
L 164.852113 126.271385 
L 168.424456 127.944 
L 171.996799 121.253538 
L 175.569142 121.253538 
L 179.141485 129.616615 
L 182.713828 119.580923 
L 186.286172 127.944 
L 189.858515 122.926154 
L 193.430858 126.271385 
L 197.003201 124.598769 
L 200.575544 121.253538 
L 204.147887 124.598769 
L 207.72023 122.926154 
L 207.72023 112.890462 
L 207.72023 112.890462 
L 204.147887 117.908308 
L 200.575544 119.580923 
L 197.003201 114.563077 
L 193.430858 116.235692 
L 189.858515 116.235692 
L 186.286172 117.908308 
L 182.713828 116.235692 
L 179.141485 116.235692 
L 175.569142 117.908308 
L 171.996799 111.217846 
L 168.424456 112.890462 
L 164.852113 112.890462 
L 161.27977 114.563077 
L 157.707426 116.235692 
L 154.135083 114.563077 
L 150.56274 117.908308 
L 146.990397 122.926154 
L 143.418054 119.580923 
L 139.845711 116.235692 
L 136.273367 116.235692 
L 132.701024 122.926154 
L 129.128681 116.235692 
L 125.556338 121.253538 
L 121.983995 127.944 
L 118.411652 126.271385 
L 114.839309 129.616615 
L 111.266965 131.289231 
L 107.694622 127.944 
L 104.122279 137.979692 
L 100.549936 129.616615 
L 96.977593 129.616615 
L 93.40525 141.324923 
L 89.832907 148.015385 
L 86.260563 153.033231 
L 82.68822 148.015385 
L 79.115877 158.051077 
L 75.543534 176.449846 
L 71.971191 188.158154 
L 68.398848 206.556923 
L 64.826504 245.027077 
L 61.254161 288.515077 
L 57.681818 365.455385 
z
" clip-path="url(#p26948e4565)" style="fill: #d62728; fill-opacity: 0.2"/>
   </g>
   <g id="PolyCollection_5">
    <path d="M 57.681818 370.473231 
L 57.681818 390.544615 
L 61.254161 325.312615 
L 64.826504 305.241231 
L 68.398848 298.550769 
L 71.971191 280.152 
L 75.543534 266.771077 
L 79.115877 261.753231 
L 82.68822 261.753231 
L 86.260563 253.390154 
L 89.832907 246.699692 
L 93.40525 245.027077 
L 96.977593 243.354462 
L 100.549936 243.354462 
L 104.122279 238.336615 
L 107.694622 234.991385 
L 111.266965 238.336615 
L 114.839309 226.628308 
L 118.411652 231.646154 
L 121.983995 233.318769 
L 125.556338 228.300923 
L 129.128681 231.646154 
L 132.701024 229.973538 
L 136.273367 229.973538 
L 139.845711 228.300923 
L 143.418054 224.955692 
L 146.990397 218.265231 
L 150.56274 223.283077 
L 154.135083 218.265231 
L 154.135083 208.229538 
L 154.135083 208.229538 
L 150.56274 204.884308 
L 146.990397 208.229538 
L 143.418054 208.229538 
L 139.845711 213.247385 
L 136.273367 198.193846 
L 132.701024 204.884308 
L 129.128681 208.229538 
L 125.556338 216.592615 
L 121.983995 214.92 
L 118.411652 226.628308 
L 114.839309 221.610462 
L 111.266965 218.265231 
L 107.694622 218.265231 
L 104.122279 219.937846 
L 100.549936 223.283077 
L 96.977593 224.955692 
L 93.40525 224.955692 
L 89.832907 234.991385 
L 86.260563 234.991385 
L 82.68822 248.372308 
L 79.115877 253.390154 
L 75.543534 255.062769 
L 71.971191 263.425846 
L 68.398848 280.152 
L 64.826504 295.205538 
L 61.254161 318.622154 
L 57.681818 370.473231 
z
" clip-path="url(#p26948e4565)" style="fill: #9467bd; fill-opacity: 0.2"/>
   </g>
   <g id="PolyCollection_6">
    <path d="M 57.681818 368.800615 
L 57.681818 378.836308 
L 61.254161 301.896 
L 64.826504 258.408 
L 68.398848 236.664 
L 71.971191 226.628308 
L 75.543534 209.902154 
L 79.115877 206.556923 
L 82.68822 199.866462 
L 86.260563 189.830769 
L 89.832907 183.140308 
L 93.40525 184.812923 
L 96.977593 181.467692 
L 100.549936 179.795077 
L 104.122279 173.104615 
L 107.694622 173.104615 
L 111.266965 171.432 
L 114.839309 169.759385 
L 118.411652 169.759385 
L 121.983995 166.414154 
L 125.556338 171.432 
L 129.128681 161.396308 
L 132.701024 159.723692 
L 136.273367 164.741538 
L 139.845711 163.068923 
L 143.418054 161.396308 
L 146.990397 159.723692 
L 150.56274 168.086769 
L 154.135083 159.723692 
L 157.707426 161.396308 
L 161.27977 158.051077 
L 164.852113 163.068923 
L 168.424456 159.723692 
L 171.996799 151.360615 
L 175.569142 164.741538 
L 179.141485 163.068923 
L 182.713828 164.741538 
L 186.286172 163.068923 
L 186.286172 151.360615 
L 186.286172 151.360615 
L 182.713828 159.723692 
L 179.141485 149.688 
L 175.569142 156.378462 
L 171.996799 149.688 
L 168.424456 153.033231 
L 164.852113 148.015385 
L 161.27977 148.015385 
L 157.707426 151.360615 
L 154.135083 149.688 
L 150.56274 163.068923 
L 146.990397 151.360615 
L 143.418054 154.705846 
L 139.845711 154.705846 
L 136.273367 159.723692 
L 132.701024 151.360615 
L 129.128681 159.723692 
L 125.556338 164.741538 
L 121.983995 161.396308 
L 118.411652 161.396308 
L 114.839309 163.068923 
L 111.266965 164.741538 
L 107.694622 164.741538 
L 104.122279 166.414154 
L 100.549936 169.759385 
L 96.977593 174.777231 
L 93.40525 179.795077 
L 89.832907 171.432 
L 86.260563 179.795077 
L 82.68822 186.485538 
L 79.115877 188.158154 
L 75.543534 199.866462 
L 71.971191 221.610462 
L 68.398848 234.991385 
L 64.826504 243.354462 
L 61.254161 285.169846 
L 57.681818 368.800615 
z
" clip-path="url(#p26948e4565)" style="fill: #8c564b; fill-opacity: 0.2"/>
   </g>
   <g id="PolyCollection_7">
    <path d="M 57.681818 439.050462 
L 57.681818 442.395692 
L 61.254161 367.128 
L 64.826504 335.348308 
L 68.398848 313.604308 
L 71.971191 310.259077 
L 75.543534 296.878154 
L 79.115877 288.515077 
L 82.68822 281.824615 
L 86.260563 270.116308 
L 89.832907 266.771077 
L 93.40525 265.098462 
L 96.977593 261.753231 
L 100.549936 253.390154 
L 104.122279 251.717538 
L 107.694622 253.390154 
L 111.266965 248.372308 
L 114.839309 245.027077 
L 118.411652 245.027077 
L 121.983995 243.354462 
L 125.556338 245.027077 
L 129.128681 241.681846 
L 132.701024 236.664 
L 136.273367 236.664 
L 139.845711 238.336615 
L 143.418054 236.664 
L 146.990397 240.009231 
L 150.56274 241.681846 
L 154.135083 238.336615 
L 157.707426 243.354462 
L 161.27977 240.009231 
L 164.852113 241.681846 
L 168.424456 240.009231 
L 171.996799 243.354462 
L 175.569142 240.009231 
L 179.141485 245.027077 
L 182.713828 238.336615 
L 186.286172 236.664 
L 189.858515 245.027077 
L 193.430858 240.009231 
L 197.003201 243.354462 
L 200.575544 240.009231 
L 204.147887 241.681846 
L 207.72023 243.354462 
L 211.292574 240.009231 
L 214.864917 240.009231 
L 218.43726 240.009231 
L 222.009603 240.009231 
L 225.581946 240.009231 
L 229.154289 241.681846 
L 232.726633 240.009231 
L 236.298976 243.354462 
L 239.871319 240.009231 
L 243.443662 245.027077 
L 243.443662 231.646154 
L 243.443662 231.646154 
L 239.871319 226.628308 
L 236.298976 231.646154 
L 232.726633 228.300923 
L 229.154289 228.300923 
L 225.581946 228.300923 
L 222.009603 231.646154 
L 218.43726 221.610462 
L 214.864917 221.610462 
L 211.292574 233.318769 
L 207.72023 224.955692 
L 204.147887 226.628308 
L 200.575544 233.318769 
L 197.003201 228.300923 
L 193.430858 233.318769 
L 189.858515 229.973538 
L 186.286172 224.955692 
L 182.713828 233.318769 
L 179.141485 228.300923 
L 175.569142 229.973538 
L 171.996799 229.973538 
L 168.424456 234.991385 
L 164.852113 228.300923 
L 161.27977 231.646154 
L 157.707426 229.973538 
L 154.135083 234.991385 
L 150.56274 231.646154 
L 146.990397 231.646154 
L 143.418054 229.973538 
L 139.845711 228.300923 
L 136.273367 233.318769 
L 132.701024 233.318769 
L 129.128681 228.300923 
L 125.556338 233.318769 
L 121.983995 240.009231 
L 118.411652 241.681846 
L 114.839309 243.354462 
L 111.266965 243.354462 
L 107.694622 245.027077 
L 104.122279 248.372308 
L 100.549936 250.044923 
L 96.977593 253.390154 
L 93.40525 258.408 
L 89.832907 258.408 
L 86.260563 266.771077 
L 82.68822 270.116308 
L 79.115877 278.479385 
L 75.543534 280.152 
L 71.971191 291.860308 
L 68.398848 310.259077 
L 64.826504 328.657846 
L 61.254161 363.782769 
L 57.681818 439.050462 
z
" clip-path="url(#p26948e4565)" style="fill: #e377c2; fill-opacity: 0.2"/>
   </g>
   <g id="PolyCollection_8">
    <path d="M 57.681818 390.544615 
L 57.681818 413.961231 
L 61.254161 313.604308 
L 64.826504 281.824615 
L 68.398848 258.408 
L 71.971191 241.681846 
L 75.543534 224.955692 
L 79.115877 198.193846 
L 82.68822 203.211692 
L 86.260563 186.485538 
L 89.832907 176.449846 
L 93.40525 173.104615 
L 96.977593 176.449846 
L 100.549936 163.068923 
L 104.122279 159.723692 
L 107.694622 154.705846 
L 111.266965 146.342769 
L 114.839309 144.670154 
L 118.411652 144.670154 
L 121.983995 137.979692 
L 125.556338 137.979692 
L 129.128681 137.979692 
L 132.701024 131.289231 
L 136.273367 131.289231 
L 139.845711 142.997538 
L 143.418054 131.289231 
L 146.990397 127.944 
L 150.56274 134.634462 
L 154.135083 132.961846 
L 157.707426 129.616615 
L 161.27977 132.961846 
L 164.852113 121.253538 
L 168.424456 117.908308 
L 171.996799 127.944 
L 175.569142 119.580923 
L 179.141485 122.926154 
L 182.713828 131.289231 
L 186.286172 121.253538 
L 189.858515 117.908308 
L 193.430858 116.235692 
L 197.003201 114.563077 
L 200.575544 114.563077 
L 204.147887 114.563077 
L 207.72023 116.235692 
L 211.292574 114.563077 
L 214.864917 116.235692 
L 218.43726 111.217846 
L 222.009603 111.217846 
L 225.581946 109.545231 
L 229.154289 112.890462 
L 232.726633 112.890462 
L 236.298976 111.217846 
L 239.871319 109.545231 
L 243.443662 109.545231 
L 247.016005 112.890462 
L 250.588348 107.872615 
L 254.160691 106.2 
L 257.733035 111.217846 
L 261.305378 106.2 
L 264.877721 106.2 
L 268.450064 106.2 
L 272.022407 107.872615 
L 275.59475 106.2 
L 279.167093 106.2 
L 282.739437 112.890462 
L 286.31178 107.872615 
L 289.884123 106.2 
L 293.456466 99.509538 
L 297.028809 107.872615 
L 300.601152 104.527385 
L 304.173496 109.545231 
L 307.745839 106.2 
L 311.318182 101.182154 
L 311.318182 99.509538 
L 311.318182 99.509538 
L 307.745839 102.854769 
L 304.173496 102.854769 
L 300.601152 102.854769 
L 297.028809 101.182154 
L 293.456466 92.819077 
L 289.884123 97.836923 
L 286.31178 101.182154 
L 282.739437 102.854769 
L 279.167093 102.854769 
L 275.59475 104.527385 
L 272.022407 104.527385 
L 268.450064 102.854769 
L 264.877721 99.509538 
L 261.305378 104.527385 
L 257.733035 104.527385 
L 254.160691 102.854769 
L 250.588348 102.854769 
L 247.016005 111.217846 
L 243.443662 107.872615 
L 239.871319 106.2 
L 236.298976 102.854769 
L 232.726633 104.527385 
L 229.154289 106.2 
L 225.581946 106.2 
L 222.009603 111.217846 
L 218.43726 107.872615 
L 214.864917 107.872615 
L 211.292574 109.545231 
L 207.72023 109.545231 
L 204.147887 112.890462 
L 200.575544 112.890462 
L 197.003201 111.217846 
L 193.430858 114.563077 
L 189.858515 116.235692 
L 186.286172 119.580923 
L 182.713828 121.253538 
L 179.141485 112.890462 
L 175.569142 117.908308 
L 171.996799 112.890462 
L 168.424456 114.563077 
L 164.852113 117.908308 
L 161.27977 117.908308 
L 157.707426 117.908308 
L 154.135083 119.580923 
L 150.56274 121.253538 
L 146.990397 122.926154 
L 143.418054 124.598769 
L 139.845711 122.926154 
L 136.273367 124.598769 
L 132.701024 126.271385 
L 129.128681 129.616615 
L 125.556338 132.961846 
L 121.983995 132.961846 
L 118.411652 136.307077 
L 114.839309 136.307077 
L 111.266965 142.997538 
L 107.694622 149.688 
L 104.122279 153.033231 
L 100.549936 156.378462 
L 96.977593 158.051077 
L 93.40525 163.068923 
L 89.832907 171.432 
L 86.260563 181.467692 
L 82.68822 189.830769 
L 79.115877 194.848615 
L 75.543534 206.556923 
L 71.971191 218.265231 
L 68.398848 241.681846 
L 64.826504 273.461538 
L 61.254161 311.931692 
L 57.681818 390.544615 
z
" clip-path="url(#p26948e4565)" style="fill: #7f7f7f; fill-opacity: 0.2"/>
   </g>
   <g id="matplotlib.axis_1">
    <g id="xtick_1">
     <g id="line2d_1">
      <path d="M 54.109475 378 
L 54.109475 51.84 
" clip-path="url(#p26948e4565)" style="fill: none; stroke: #b0b0b0; stroke-width: 0.8; stroke-linecap: square"/>
     </g>
     <g id="line2d_2">
      <defs>
       <path id="m0f16fa4dcd" d="M 0 0 
L 0 3.5 
" style="stroke: #000000; stroke-width: 0.8"/>
      </defs>
      <g>
       <use xlink:href="#m0f16fa4dcd" x="54.109475" y="378" style="stroke: #000000; stroke-width: 0.8"/>
      </g>
     </g>
     <g id="text_1">
      <!-- 0 -->
      <g transform="translate(50.928225 392.598437)scale(0.1 -0.1)">
       <defs>
        <path id="DejaVuSans-30" d="M 2034 4250 
Q 1547 4250 1301 3770 
Q 1056 3291 1056 2328 
Q 1056 1369 1301 889 
Q 1547 409 2034 409 
Q 2525 409 2770 889 
Q 3016 1369 3016 2328 
Q 3016 3291 2770 3770 
Q 2525 4250 2034 4250 
z
M 2034 4750 
Q 2819 4750 3233 4129 
Q 3647 3509 3647 2328 
Q 3647 1150 3233 529 
Q 2819 -91 2034 -91 
Q 1250 -91 836 529 
Q 422 1150 422 2328 
Q 422 3509 836 4129 
Q 1250 4750 2034 4750 
z
" transform="scale(0.015625)"/>
       </defs>
       <use xlink:href="#DejaVuSans-30"/>
      </g>
     </g>
    </g>
    <g id="xtick_2">
     <g id="line2d_3">
      <path d="M 89.832907 378 
L 89.832907 51.84 
" clip-path="url(#p26948e4565)" style="fill: none; stroke: #b0b0b0; stroke-width: 0.8; stroke-linecap: square"/>
     </g>
     <g id="line2d_4">
      <g>
       <use xlink:href="#m0f16fa4dcd" x="89.832907" y="378" style="stroke: #000000; stroke-width: 0.8"/>
      </g>
     </g>
     <g id="text_2">
      <!-- 10 -->
      <g transform="translate(83.470407 392.598437)scale(0.1 -0.1)">
       <defs>
        <path id="DejaVuSans-31" d="M 794 531 
L 1825 531 
L 1825 4091 
L 703 3866 
L 703 4441 
L 1819 4666 
L 2450 4666 
L 2450 531 
L 3481 531 
L 3481 0 
L 794 0 
L 794 531 
z
" transform="scale(0.015625)"/>
       </defs>
       <use xlink:href="#DejaVuSans-31"/>
       <use xlink:href="#DejaVuSans-30" x="63.623047"/>
      </g>
     </g>
    </g>
    <g id="xtick_3">
     <g id="line2d_5">
      <path d="M 125.556338 378 
L 125.556338 51.84 
" clip-path="url(#p26948e4565)" style="fill: none; stroke: #b0b0b0; stroke-width: 0.8; stroke-linecap: square"/>
     </g>
     <g id="line2d_6">
      <g>
       <use xlink:href="#m0f16fa4dcd" x="125.556338" y="378" style="stroke: #000000; stroke-width: 0.8"/>
      </g>
     </g>
     <g id="text_3">
      <!-- 20 -->
      <g transform="translate(119.193838 392.598437)scale(0.1 -0.1)">
       <defs>
        <path id="DejaVuSans-32" d="M 1228 531 
L 3431 531 
L 3431 0 
L 469 0 
L 469 531 
Q 828 903 1448 1529 
Q 2069 2156 2228 2338 
Q 2531 2678 2651 2914 
Q 2772 3150 2772 3378 
Q 2772 3750 2511 3984 
Q 2250 4219 1831 4219 
Q 1534 4219 1204 4116 
Q 875 4013 500 3803 
L 500 4441 
Q 881 4594 1212 4672 
Q 1544 4750 1819 4750 
Q 2544 4750 2975 4387 
Q 3406 4025 3406 3419 
Q 3406 3131 3298 2873 
Q 3191 2616 2906 2266 
Q 2828 2175 2409 1742 
Q 1991 1309 1228 531 
z
" transform="scale(0.015625)"/>
       </defs>
       <use xlink:href="#DejaVuSans-32"/>
       <use xlink:href="#DejaVuSans-30" x="63.623047"/>
      </g>
     </g>
    </g>
    <g id="xtick_4">
     <g id="line2d_7">
      <path d="M 161.27977 378 
L 161.27977 51.84 
" clip-path="url(#p26948e4565)" style="fill: none; stroke: #b0b0b0; stroke-width: 0.8; stroke-linecap: square"/>
     </g>
     <g id="line2d_8">
      <g>
       <use xlink:href="#m0f16fa4dcd" x="161.27977" y="378" style="stroke: #000000; stroke-width: 0.8"/>
      </g>
     </g>
     <g id="text_4">
      <!-- 30 -->
      <g transform="translate(154.91727 392.598437)scale(0.1 -0.1)">
       <defs>
        <path id="DejaVuSans-33" d="M 2597 2516 
Q 3050 2419 3304 2112 
Q 3559 1806 3559 1356 
Q 3559 666 3084 287 
Q 2609 -91 1734 -91 
Q 1441 -91 1130 -33 
Q 819 25 488 141 
L 488 750 
Q 750 597 1062 519 
Q 1375 441 1716 441 
Q 2309 441 2620 675 
Q 2931 909 2931 1356 
Q 2931 1769 2642 2001 
Q 2353 2234 1838 2234 
L 1294 2234 
L 1294 2753 
L 1863 2753 
Q 2328 2753 2575 2939 
Q 2822 3125 2822 3475 
Q 2822 3834 2567 4026 
Q 2313 4219 1838 4219 
Q 1578 4219 1281 4162 
Q 984 4106 628 3988 
L 628 4550 
Q 988 4650 1302 4700 
Q 1616 4750 1894 4750 
Q 2613 4750 3031 4423 
Q 3450 4097 3450 3541 
Q 3450 3153 3228 2886 
Q 3006 2619 2597 2516 
z
" transform="scale(0.015625)"/>
       </defs>
       <use xlink:href="#DejaVuSans-33"/>
       <use xlink:href="#DejaVuSans-30" x="63.623047"/>
      </g>
     </g>
    </g>
    <g id="xtick_5">
     <g id="line2d_9">
      <path d="M 197.003201 378 
L 197.003201 51.84 
" clip-path="url(#p26948e4565)" style="fill: none; stroke: #b0b0b0; stroke-width: 0.8; stroke-linecap: square"/>
     </g>
     <g id="line2d_10">
      <g>
       <use xlink:href="#m0f16fa4dcd" x="197.003201" y="378" style="stroke: #000000; stroke-width: 0.8"/>
      </g>
     </g>
     <g id="text_5">
      <!-- 40 -->
      <g transform="translate(190.640701 392.598437)scale(0.1 -0.1)">
       <defs>
        <path id="DejaVuSans-34" d="M 2419 4116 
L 825 1625 
L 2419 1625 
L 2419 4116 
z
M 2253 4666 
L 3047 4666 
L 3047 1625 
L 3713 1625 
L 3713 1100 
L 3047 1100 
L 3047 0 
L 2419 0 
L 2419 1100 
L 313 1100 
L 313 1709 
L 2253 4666 
z
" transform="scale(0.015625)"/>
       </defs>
       <use xlink:href="#DejaVuSans-34"/>
       <use xlink:href="#DejaVuSans-30" x="63.623047"/>
      </g>
     </g>
    </g>
    <g id="xtick_6">
     <g id="line2d_11">
      <path d="M 232.726633 378 
L 232.726633 51.84 
" clip-path="url(#p26948e4565)" style="fill: none; stroke: #b0b0b0; stroke-width: 0.8; stroke-linecap: square"/>
     </g>
     <g id="line2d_12">
      <g>
       <use xlink:href="#m0f16fa4dcd" x="232.726633" y="378" style="stroke: #000000; stroke-width: 0.8"/>
      </g>
     </g>
     <g id="text_6">
      <!-- 50 -->
      <g transform="translate(226.364133 392.598437)scale(0.1 -0.1)">
       <defs>
        <path id="DejaVuSans-35" d="M 691 4666 
L 3169 4666 
L 3169 4134 
L 1269 4134 
L 1269 2991 
Q 1406 3038 1543 3061 
Q 1681 3084 1819 3084 
Q 2600 3084 3056 2656 
Q 3513 2228 3513 1497 
Q 3513 744 3044 326 
Q 2575 -91 1722 -91 
Q 1428 -91 1123 -41 
Q 819 9 494 109 
L 494 744 
Q 775 591 1075 516 
Q 1375 441 1709 441 
Q 2250 441 2565 725 
Q 2881 1009 2881 1497 
Q 2881 1984 2565 2268 
Q 2250 2553 1709 2553 
Q 1456 2553 1204 2497 
Q 953 2441 691 2322 
L 691 4666 
z
" transform="scale(0.015625)"/>
       </defs>
       <use xlink:href="#DejaVuSans-35"/>
       <use xlink:href="#DejaVuSans-30" x="63.623047"/>
      </g>
     </g>
    </g>
    <g id="xtick_7">
     <g id="line2d_13">
      <path d="M 268.450064 378 
L 268.450064 51.84 
" clip-path="url(#p26948e4565)" style="fill: none; stroke: #b0b0b0; stroke-width: 0.8; stroke-linecap: square"/>
     </g>
     <g id="line2d_14">
      <g>
       <use xlink:href="#m0f16fa4dcd" x="268.450064" y="378" style="stroke: #000000; stroke-width: 0.8"/>
      </g>
     </g>
     <g id="text_7">
      <!-- 60 -->
      <g transform="translate(262.087564 392.598437)scale(0.1 -0.1)">
       <defs>
        <path id="DejaVuSans-36" d="M 2113 2584 
Q 1688 2584 1439 2293 
Q 1191 2003 1191 1497 
Q 1191 994 1439 701 
Q 1688 409 2113 409 
Q 2538 409 2786 701 
Q 3034 994 3034 1497 
Q 3034 2003 2786 2293 
Q 2538 2584 2113 2584 
z
M 3366 4563 
L 3366 3988 
Q 3128 4100 2886 4159 
Q 2644 4219 2406 4219 
Q 1781 4219 1451 3797 
Q 1122 3375 1075 2522 
Q 1259 2794 1537 2939 
Q 1816 3084 2150 3084 
Q 2853 3084 3261 2657 
Q 3669 2231 3669 1497 
Q 3669 778 3244 343 
Q 2819 -91 2113 -91 
Q 1303 -91 875 529 
Q 447 1150 447 2328 
Q 447 3434 972 4092 
Q 1497 4750 2381 4750 
Q 2619 4750 2861 4703 
Q 3103 4656 3366 4563 
z
" transform="scale(0.015625)"/>
       </defs>
       <use xlink:href="#DejaVuSans-36"/>
       <use xlink:href="#DejaVuSans-30" x="63.623047"/>
      </g>
     </g>
    </g>
    <g id="xtick_8">
     <g id="line2d_15">
      <path d="M 304.173496 378 
L 304.173496 51.84 
" clip-path="url(#p26948e4565)" style="fill: none; stroke: #b0b0b0; stroke-width: 0.8; stroke-linecap: square"/>
     </g>
     <g id="line2d_16">
      <g>
       <use xlink:href="#m0f16fa4dcd" x="304.173496" y="378" style="stroke: #000000; stroke-width: 0.8"/>
      </g>
     </g>
     <g id="text_8">
      <!-- 70 -->
      <g transform="translate(297.810996 392.598437)scale(0.1 -0.1)">
       <defs>
        <path id="DejaVuSans-37" d="M 525 4666 
L 3525 4666 
L 3525 4397 
L 1831 0 
L 1172 0 
L 2766 4134 
L 525 4134 
L 525 4666 
z
" transform="scale(0.015625)"/>
       </defs>
       <use xlink:href="#DejaVuSans-37"/>
       <use xlink:href="#DejaVuSans-30" x="63.623047"/>
      </g>
     </g>
    </g>
    <g id="text_9">
     <!-- Epochs -->
     <g transform="translate(166.584375 406.276563)scale(0.1 -0.1)">
      <defs>
       <path id="DejaVuSans-45" d="M 628 4666 
L 3578 4666 
L 3578 4134 
L 1259 4134 
L 1259 2753 
L 3481 2753 
L 3481 2222 
L 1259 2222 
L 1259 531 
L 3634 531 
L 3634 0 
L 628 0 
L 628 4666 
z
" transform="scale(0.015625)"/>
       <path id="DejaVuSans-70" d="M 1159 525 
L 1159 -1331 
L 581 -1331 
L 581 3500 
L 1159 3500 
L 1159 2969 
Q 1341 3281 1617 3432 
Q 1894 3584 2278 3584 
Q 2916 3584 3314 3078 
Q 3713 2572 3713 1747 
Q 3713 922 3314 415 
Q 2916 -91 2278 -91 
Q 1894 -91 1617 61 
Q 1341 213 1159 525 
z
M 3116 1747 
Q 3116 2381 2855 2742 
Q 2594 3103 2138 3103 
Q 1681 3103 1420 2742 
Q 1159 2381 1159 1747 
Q 1159 1113 1420 752 
Q 1681 391 2138 391 
Q 2594 391 2855 752 
Q 3116 1113 3116 1747 
z
" transform="scale(0.015625)"/>
       <path id="DejaVuSans-6f" d="M 1959 3097 
Q 1497 3097 1228 2736 
Q 959 2375 959 1747 
Q 959 1119 1226 758 
Q 1494 397 1959 397 
Q 2419 397 2687 759 
Q 2956 1122 2956 1747 
Q 2956 2369 2687 2733 
Q 2419 3097 1959 3097 
z
M 1959 3584 
Q 2709 3584 3137 3096 
Q 3566 2609 3566 1747 
Q 3566 888 3137 398 
Q 2709 -91 1959 -91 
Q 1206 -91 779 398 
Q 353 888 353 1747 
Q 353 2609 779 3096 
Q 1206 3584 1959 3584 
z
" transform="scale(0.015625)"/>
       <path id="DejaVuSans-63" d="M 3122 3366 
L 3122 2828 
Q 2878 2963 2633 3030 
Q 2388 3097 2138 3097 
Q 1578 3097 1268 2742 
Q 959 2388 959 1747 
Q 959 1106 1268 751 
Q 1578 397 2138 397 
Q 2388 397 2633 464 
Q 2878 531 3122 666 
L 3122 134 
Q 2881 22 2623 -34 
Q 2366 -91 2075 -91 
Q 1284 -91 818 406 
Q 353 903 353 1747 
Q 353 2603 823 3093 
Q 1294 3584 2113 3584 
Q 2378 3584 2631 3529 
Q 2884 3475 3122 3366 
z
" transform="scale(0.015625)"/>
       <path id="DejaVuSans-68" d="M 3513 2113 
L 3513 0 
L 2938 0 
L 2938 2094 
Q 2938 2591 2744 2837 
Q 2550 3084 2163 3084 
Q 1697 3084 1428 2787 
Q 1159 2491 1159 1978 
L 1159 0 
L 581 0 
L 581 4863 
L 1159 4863 
L 1159 2956 
Q 1366 3272 1645 3428 
Q 1925 3584 2291 3584 
Q 2894 3584 3203 3211 
Q 3513 2838 3513 2113 
z
" transform="scale(0.015625)"/>
       <path id="DejaVuSans-73" d="M 2834 3397 
L 2834 2853 
Q 2591 2978 2328 3040 
Q 2066 3103 1784 3103 
Q 1356 3103 1142 2972 
Q 928 2841 928 2578 
Q 928 2378 1081 2264 
Q 1234 2150 1697 2047 
L 1894 2003 
Q 2506 1872 2764 1633 
Q 3022 1394 3022 966 
Q 3022 478 2636 193 
Q 2250 -91 1575 -91 
Q 1294 -91 989 -36 
Q 684 19 347 128 
L 347 722 
Q 666 556 975 473 
Q 1284 391 1588 391 
Q 1994 391 2212 530 
Q 2431 669 2431 922 
Q 2431 1156 2273 1281 
Q 2116 1406 1581 1522 
L 1381 1569 
Q 847 1681 609 1914 
Q 372 2147 372 2553 
Q 372 3047 722 3315 
Q 1072 3584 1716 3584 
Q 2034 3584 2315 3537 
Q 2597 3491 2834 3397 
z
" transform="scale(0.015625)"/>
      </defs>
      <use xlink:href="#DejaVuSans-45"/>
      <use xlink:href="#DejaVuSans-70" x="63.183594"/>
      <use xlink:href="#DejaVuSans-6f" x="126.660156"/>
      <use xlink:href="#DejaVuSans-63" x="187.841797"/>
      <use xlink:href="#DejaVuSans-68" x="242.822266"/>
      <use xlink:href="#DejaVuSans-73" x="306.201172"/>
     </g>
    </g>
   </g>
   <g id="matplotlib.axis_2">
    <g id="ytick_1">
     <g id="line2d_17">
      <path d="M 45 378 
L 324 378 
" clip-path="url(#p26948e4565)" style="fill: none; stroke: #b0b0b0; stroke-width: 0.8; stroke-linecap: square"/>
     </g>
     <g id="line2d_18">
      <defs>
       <path id="m9642297142" d="M 0 0 
L -3.5 0 
" style="stroke: #000000; stroke-width: 0.8"/>
      </defs>
      <g>
       <use xlink:href="#m9642297142" x="45" y="378" style="stroke: #000000; stroke-width: 0.8"/>
      </g>
     </g>
     <g id="text_10">
      <!-- 0.65 -->
      <g transform="translate(15.734375 381.799219)scale(0.1 -0.1)">
       <defs>
        <path id="DejaVuSans-2e" d="M 684 794 
L 1344 794 
L 1344 0 
L 684 0 
L 684 794 
z
" transform="scale(0.015625)"/>
       </defs>
       <use xlink:href="#DejaVuSans-30"/>
       <use xlink:href="#DejaVuSans-2e" x="63.623047"/>
       <use xlink:href="#DejaVuSans-36" x="95.410156"/>
       <use xlink:href="#DejaVuSans-35" x="159.033203"/>
      </g>
     </g>
    </g>
    <g id="ytick_2">
     <g id="line2d_19">
      <path d="M 45 323.64 
L 324 323.64 
" clip-path="url(#p26948e4565)" style="fill: none; stroke: #b0b0b0; stroke-width: 0.8; stroke-linecap: square"/>
     </g>
     <g id="line2d_20">
      <g>
       <use xlink:href="#m9642297142" x="45" y="323.64" style="stroke: #000000; stroke-width: 0.8"/>
      </g>
     </g>
     <g id="text_11">
      <!-- 0.70 -->
      <g transform="translate(15.734375 327.439219)scale(0.1 -0.1)">
       <use xlink:href="#DejaVuSans-30"/>
       <use xlink:href="#DejaVuSans-2e" x="63.623047"/>
       <use xlink:href="#DejaVuSans-37" x="95.410156"/>
       <use xlink:href="#DejaVuSans-30" x="159.033203"/>
      </g>
     </g>
    </g>
    <g id="ytick_3">
     <g id="line2d_21">
      <path d="M 45 269.28 
L 324 269.28 
" clip-path="url(#p26948e4565)" style="fill: none; stroke: #b0b0b0; stroke-width: 0.8; stroke-linecap: square"/>
     </g>
     <g id="line2d_22">
      <g>
       <use xlink:href="#m9642297142" x="45" y="269.28" style="stroke: #000000; stroke-width: 0.8"/>
      </g>
     </g>
     <g id="text_12">
      <!-- 0.75 -->
      <g transform="translate(15.734375 273.079219)scale(0.1 -0.1)">
       <use xlink:href="#DejaVuSans-30"/>
       <use xlink:href="#DejaVuSans-2e" x="63.623047"/>
       <use xlink:href="#DejaVuSans-37" x="95.410156"/>
       <use xlink:href="#DejaVuSans-35" x="159.033203"/>
      </g>
     </g>
    </g>
    <g id="ytick_4">
     <g id="line2d_23">
      <path d="M 45 214.92 
L 324 214.92 
" clip-path="url(#p26948e4565)" style="fill: none; stroke: #b0b0b0; stroke-width: 0.8; stroke-linecap: square"/>
     </g>
     <g id="line2d_24">
      <g>
       <use xlink:href="#m9642297142" x="45" y="214.92" style="stroke: #000000; stroke-width: 0.8"/>
      </g>
     </g>
     <g id="text_13">
      <!-- 0.80 -->
      <g transform="translate(15.734375 218.719219)scale(0.1 -0.1)">
       <defs>
        <path id="DejaVuSans-38" d="M 2034 2216 
Q 1584 2216 1326 1975 
Q 1069 1734 1069 1313 
Q 1069 891 1326 650 
Q 1584 409 2034 409 
Q 2484 409 2743 651 
Q 3003 894 3003 1313 
Q 3003 1734 2745 1975 
Q 2488 2216 2034 2216 
z
M 1403 2484 
Q 997 2584 770 2862 
Q 544 3141 544 3541 
Q 544 4100 942 4425 
Q 1341 4750 2034 4750 
Q 2731 4750 3128 4425 
Q 3525 4100 3525 3541 
Q 3525 3141 3298 2862 
Q 3072 2584 2669 2484 
Q 3125 2378 3379 2068 
Q 3634 1759 3634 1313 
Q 3634 634 3220 271 
Q 2806 -91 2034 -91 
Q 1263 -91 848 271 
Q 434 634 434 1313 
Q 434 1759 690 2068 
Q 947 2378 1403 2484 
z
M 1172 3481 
Q 1172 3119 1398 2916 
Q 1625 2713 2034 2713 
Q 2441 2713 2670 2916 
Q 2900 3119 2900 3481 
Q 2900 3844 2670 4047 
Q 2441 4250 2034 4250 
Q 1625 4250 1398 4047 
Q 1172 3844 1172 3481 
z
" transform="scale(0.015625)"/>
       </defs>
       <use xlink:href="#DejaVuSans-30"/>
       <use xlink:href="#DejaVuSans-2e" x="63.623047"/>
       <use xlink:href="#DejaVuSans-38" x="95.410156"/>
       <use xlink:href="#DejaVuSans-30" x="159.033203"/>
      </g>
     </g>
    </g>
    <g id="ytick_5">
     <g id="line2d_25">
      <path d="M 45 160.56 
L 324 160.56 
" clip-path="url(#p26948e4565)" style="fill: none; stroke: #b0b0b0; stroke-width: 0.8; stroke-linecap: square"/>
     </g>
     <g id="line2d_26">
      <g>
       <use xlink:href="#m9642297142" x="45" y="160.56" style="stroke: #000000; stroke-width: 0.8"/>
      </g>
     </g>
     <g id="text_14">
      <!-- 0.85 -->
      <g transform="translate(15.734375 164.359219)scale(0.1 -0.1)">
       <use xlink:href="#DejaVuSans-30"/>
       <use xlink:href="#DejaVuSans-2e" x="63.623047"/>
       <use xlink:href="#DejaVuSans-38" x="95.410156"/>
       <use xlink:href="#DejaVuSans-35" x="159.033203"/>
      </g>
     </g>
    </g>
    <g id="ytick_6">
     <g id="line2d_27">
      <path d="M 45 106.2 
L 324 106.2 
" clip-path="url(#p26948e4565)" style="fill: none; stroke: #b0b0b0; stroke-width: 0.8; stroke-linecap: square"/>
     </g>
     <g id="line2d_28">
      <g>
       <use xlink:href="#m9642297142" x="45" y="106.2" style="stroke: #000000; stroke-width: 0.8"/>
      </g>
     </g>
     <g id="text_15">
      <!-- 0.90 -->
      <g transform="translate(15.734375 109.999219)scale(0.1 -0.1)">
       <defs>
        <path id="DejaVuSans-39" d="M 703 97 
L 703 672 
Q 941 559 1184 500 
Q 1428 441 1663 441 
Q 2288 441 2617 861 
Q 2947 1281 2994 2138 
Q 2813 1869 2534 1725 
Q 2256 1581 1919 1581 
Q 1219 1581 811 2004 
Q 403 2428 403 3163 
Q 403 3881 828 4315 
Q 1253 4750 1959 4750 
Q 2769 4750 3195 4129 
Q 3622 3509 3622 2328 
Q 3622 1225 3098 567 
Q 2575 -91 1691 -91 
Q 1453 -91 1209 -44 
Q 966 3 703 97 
z
M 1959 2075 
Q 2384 2075 2632 2365 
Q 2881 2656 2881 3163 
Q 2881 3666 2632 3958 
Q 2384 4250 1959 4250 
Q 1534 4250 1286 3958 
Q 1038 3666 1038 3163 
Q 1038 2656 1286 2365 
Q 1534 2075 1959 2075 
z
" transform="scale(0.015625)"/>
       </defs>
       <use xlink:href="#DejaVuSans-30"/>
       <use xlink:href="#DejaVuSans-2e" x="63.623047"/>
       <use xlink:href="#DejaVuSans-39" x="95.410156"/>
       <use xlink:href="#DejaVuSans-30" x="159.033203"/>
      </g>
     </g>
    </g>
    <g id="ytick_7">
     <g id="line2d_29">
      <path d="M 45 51.84 
L 324 51.84 
" clip-path="url(#p26948e4565)" style="fill: none; stroke: #b0b0b0; stroke-width: 0.8; stroke-linecap: square"/>
     </g>
     <g id="line2d_30">
      <g>
       <use xlink:href="#m9642297142" x="45" y="51.84" style="stroke: #000000; stroke-width: 0.8"/>
      </g>
     </g>
     <g id="text_16">
      <!-- 0.95 -->
      <g transform="translate(15.734375 55.639219)scale(0.1 -0.1)">
       <use xlink:href="#DejaVuSans-30"/>
       <use xlink:href="#DejaVuSans-2e" x="63.623047"/>
       <use xlink:href="#DejaVuSans-39" x="95.410156"/>
       <use xlink:href="#DejaVuSans-35" x="159.033203"/>
      </g>
     </g>
    </g>
    <g id="text_17">
     <!-- Accuracy ($Q_2$ with $Q_1 - Q_3$ range) -->
     <g transform="translate(9.634375 298.32)rotate(-90)scale(0.1 -0.1)">
      <defs>
       <path id="DejaVuSans-41" d="M 2188 4044 
L 1331 1722 
L 3047 1722 
L 2188 4044 
z
M 1831 4666 
L 2547 4666 
L 4325 0 
L 3669 0 
L 3244 1197 
L 1141 1197 
L 716 0 
L 50 0 
L 1831 4666 
z
" transform="scale(0.015625)"/>
       <path id="DejaVuSans-75" d="M 544 1381 
L 544 3500 
L 1119 3500 
L 1119 1403 
Q 1119 906 1312 657 
Q 1506 409 1894 409 
Q 2359 409 2629 706 
Q 2900 1003 2900 1516 
L 2900 3500 
L 3475 3500 
L 3475 0 
L 2900 0 
L 2900 538 
Q 2691 219 2414 64 
Q 2138 -91 1772 -91 
Q 1169 -91 856 284 
Q 544 659 544 1381 
z
M 1991 3584 
L 1991 3584 
z
" transform="scale(0.015625)"/>
       <path id="DejaVuSans-72" d="M 2631 2963 
Q 2534 3019 2420 3045 
Q 2306 3072 2169 3072 
Q 1681 3072 1420 2755 
Q 1159 2438 1159 1844 
L 1159 0 
L 581 0 
L 581 3500 
L 1159 3500 
L 1159 2956 
Q 1341 3275 1631 3429 
Q 1922 3584 2338 3584 
Q 2397 3584 2469 3576 
Q 2541 3569 2628 3553 
L 2631 2963 
z
" transform="scale(0.015625)"/>
       <path id="DejaVuSans-61" d="M 2194 1759 
Q 1497 1759 1228 1600 
Q 959 1441 959 1056 
Q 959 750 1161 570 
Q 1363 391 1709 391 
Q 2188 391 2477 730 
Q 2766 1069 2766 1631 
L 2766 1759 
L 2194 1759 
z
M 3341 1997 
L 3341 0 
L 2766 0 
L 2766 531 
Q 2569 213 2275 61 
Q 1981 -91 1556 -91 
Q 1019 -91 701 211 
Q 384 513 384 1019 
Q 384 1609 779 1909 
Q 1175 2209 1959 2209 
L 2766 2209 
L 2766 2266 
Q 2766 2663 2505 2880 
Q 2244 3097 1772 3097 
Q 1472 3097 1187 3025 
Q 903 2953 641 2809 
L 641 3341 
Q 956 3463 1253 3523 
Q 1550 3584 1831 3584 
Q 2591 3584 2966 3190 
Q 3341 2797 3341 1997 
z
" transform="scale(0.015625)"/>
       <path id="DejaVuSans-79" d="M 2059 -325 
Q 1816 -950 1584 -1140 
Q 1353 -1331 966 -1331 
L 506 -1331 
L 506 -850 
L 844 -850 
Q 1081 -850 1212 -737 
Q 1344 -625 1503 -206 
L 1606 56 
L 191 3500 
L 800 3500 
L 1894 763 
L 2988 3500 
L 3597 3500 
L 2059 -325 
z
" transform="scale(0.015625)"/>
       <path id="DejaVuSans-20" transform="scale(0.015625)"/>
       <path id="DejaVuSans-28" d="M 1984 4856 
Q 1566 4138 1362 3434 
Q 1159 2731 1159 2009 
Q 1159 1288 1364 580 
Q 1569 -128 1984 -844 
L 1484 -844 
Q 1016 -109 783 600 
Q 550 1309 550 2009 
Q 550 2706 781 3412 
Q 1013 4119 1484 4856 
L 1984 4856 
z
" transform="scale(0.015625)"/>
       <path id="DejaVuSans-Oblique-51" d="M 2309 -84 
Q 2275 -88 2237 -89 
Q 2200 -91 2125 -91 
Q 1250 -91 756 411 
Q 263 913 263 1797 
Q 263 2319 452 2844 
Q 641 3369 978 3788 
Q 1369 4269 1858 4509 
Q 2347 4750 2938 4750 
Q 3794 4750 4287 4245 
Q 4781 3741 4781 2869 
Q 4781 1928 4265 1147 
Q 3750 366 2919 44 
L 3553 -825 
L 2847 -825 
L 2309 -84 
z
M 2919 4238 
Q 2400 4238 2003 3986 
Q 1606 3734 1313 3219 
Q 1125 2891 1026 2522 
Q 928 2153 928 1778 
Q 928 1128 1239 775 
Q 1550 422 2119 422 
Q 2631 422 3032 676 
Q 3434 931 3719 1434 
Q 3909 1772 4009 2142 
Q 4109 2513 4109 2881 
Q 4109 3528 3796 3883 
Q 3484 4238 2919 4238 
z
" transform="scale(0.015625)"/>
       <path id="DejaVuSans-77" d="M 269 3500 
L 844 3500 
L 1563 769 
L 2278 3500 
L 2956 3500 
L 3675 769 
L 4391 3500 
L 4966 3500 
L 4050 0 
L 3372 0 
L 2619 2869 
L 1863 0 
L 1184 0 
L 269 3500 
z
" transform="scale(0.015625)"/>
       <path id="DejaVuSans-69" d="M 603 3500 
L 1178 3500 
L 1178 0 
L 603 0 
L 603 3500 
z
M 603 4863 
L 1178 4863 
L 1178 4134 
L 603 4134 
L 603 4863 
z
" transform="scale(0.015625)"/>
       <path id="DejaVuSans-74" d="M 1172 4494 
L 1172 3500 
L 2356 3500 
L 2356 3053 
L 1172 3053 
L 1172 1153 
Q 1172 725 1289 603 
Q 1406 481 1766 481 
L 2356 481 
L 2356 0 
L 1766 0 
Q 1100 0 847 248 
Q 594 497 594 1153 
L 594 3053 
L 172 3053 
L 172 3500 
L 594 3500 
L 594 4494 
L 1172 4494 
z
" transform="scale(0.015625)"/>
       <path id="DejaVuSans-2212" d="M 678 2272 
L 4684 2272 
L 4684 1741 
L 678 1741 
L 678 2272 
z
" transform="scale(0.015625)"/>
       <path id="DejaVuSans-6e" d="M 3513 2113 
L 3513 0 
L 2938 0 
L 2938 2094 
Q 2938 2591 2744 2837 
Q 2550 3084 2163 3084 
Q 1697 3084 1428 2787 
Q 1159 2491 1159 1978 
L 1159 0 
L 581 0 
L 581 3500 
L 1159 3500 
L 1159 2956 
Q 1366 3272 1645 3428 
Q 1925 3584 2291 3584 
Q 2894 3584 3203 3211 
Q 3513 2838 3513 2113 
z
" transform="scale(0.015625)"/>
       <path id="DejaVuSans-67" d="M 2906 1791 
Q 2906 2416 2648 2759 
Q 2391 3103 1925 3103 
Q 1463 3103 1205 2759 
Q 947 2416 947 1791 
Q 947 1169 1205 825 
Q 1463 481 1925 481 
Q 2391 481 2648 825 
Q 2906 1169 2906 1791 
z
M 3481 434 
Q 3481 -459 3084 -895 
Q 2688 -1331 1869 -1331 
Q 1566 -1331 1297 -1286 
Q 1028 -1241 775 -1147 
L 775 -588 
Q 1028 -725 1275 -790 
Q 1522 -856 1778 -856 
Q 2344 -856 2625 -561 
Q 2906 -266 2906 331 
L 2906 616 
Q 2728 306 2450 153 
Q 2172 0 1784 0 
Q 1141 0 747 490 
Q 353 981 353 1791 
Q 353 2603 747 3093 
Q 1141 3584 1784 3584 
Q 2172 3584 2450 3431 
Q 2728 3278 2906 2969 
L 2906 3500 
L 3481 3500 
L 3481 434 
z
" transform="scale(0.015625)"/>
       <path id="DejaVuSans-65" d="M 3597 1894 
L 3597 1613 
L 953 1613 
Q 991 1019 1311 708 
Q 1631 397 2203 397 
Q 2534 397 2845 478 
Q 3156 559 3463 722 
L 3463 178 
Q 3153 47 2828 -22 
Q 2503 -91 2169 -91 
Q 1331 -91 842 396 
Q 353 884 353 1716 
Q 353 2575 817 3079 
Q 1281 3584 2069 3584 
Q 2775 3584 3186 3129 
Q 3597 2675 3597 1894 
z
M 3022 2063 
Q 3016 2534 2758 2815 
Q 2500 3097 2075 3097 
Q 1594 3097 1305 2825 
Q 1016 2553 972 2059 
L 3022 2063 
z
" transform="scale(0.015625)"/>
       <path id="DejaVuSans-29" d="M 513 4856 
L 1013 4856 
Q 1481 4119 1714 3412 
Q 1947 2706 1947 2009 
Q 1947 1309 1714 600 
Q 1481 -109 1013 -844 
L 513 -844 
Q 928 -128 1133 580 
Q 1338 1288 1338 2009 
Q 1338 2731 1133 3434 
Q 928 4138 513 4856 
z
" transform="scale(0.015625)"/>
      </defs>
      <use xlink:href="#DejaVuSans-41" transform="translate(0 0.015625)"/>
      <use xlink:href="#DejaVuSans-63" transform="translate(68.408203 0.015625)"/>
      <use xlink:href="#DejaVuSans-63" transform="translate(123.388672 0.015625)"/>
      <use xlink:href="#DejaVuSans-75" transform="translate(178.369141 0.015625)"/>
      <use xlink:href="#DejaVuSans-72" transform="translate(241.748047 0.015625)"/>
      <use xlink:href="#DejaVuSans-61" transform="translate(282.861328 0.015625)"/>
      <use xlink:href="#DejaVuSans-63" transform="translate(344.140625 0.015625)"/>
      <use xlink:href="#DejaVuSans-79" transform="translate(399.121094 0.015625)"/>
      <use xlink:href="#DejaVuSans-20" transform="translate(458.300781 0.015625)"/>
      <use xlink:href="#DejaVuSans-28" transform="translate(490.087891 0.015625)"/>
      <use xlink:href="#DejaVuSans-Oblique-51" transform="translate(529.101562 0.015625)"/>
      <use xlink:href="#DejaVuSans-32" transform="translate(607.8125 -16.390625)scale(0.7)"/>
      <use xlink:href="#DejaVuSans-20" transform="translate(655.083008 0.015625)"/>
      <use xlink:href="#DejaVuSans-77" transform="translate(686.870117 0.015625)"/>
      <use xlink:href="#DejaVuSans-69" transform="translate(768.657227 0.015625)"/>
      <use xlink:href="#DejaVuSans-74" transform="translate(796.44043 0.015625)"/>
      <use xlink:href="#DejaVuSans-68" transform="translate(835.649414 0.015625)"/>
      <use xlink:href="#DejaVuSans-20" transform="translate(899.02832 0.015625)"/>
      <use xlink:href="#DejaVuSans-Oblique-51" transform="translate(930.81543 0.015625)"/>
      <use xlink:href="#DejaVuSans-31" transform="translate(1009.526367 -16.390625)scale(0.7)"/>
      <use xlink:href="#DejaVuSans-2212" transform="translate(1076.279297 0.015625)"/>
      <use xlink:href="#DejaVuSans-Oblique-51" transform="translate(1179.550781 0.015625)"/>
      <use xlink:href="#DejaVuSans-33" transform="translate(1258.261719 -16.390625)scale(0.7)"/>
      <use xlink:href="#DejaVuSans-20" transform="translate(1305.532227 0.015625)"/>
      <use xlink:href="#DejaVuSans-72" transform="translate(1337.319336 0.015625)"/>
      <use xlink:href="#DejaVuSans-61" transform="translate(1378.432617 0.015625)"/>
      <use xlink:href="#DejaVuSans-6e" transform="translate(1439.711914 0.015625)"/>
      <use xlink:href="#DejaVuSans-67" transform="translate(1503.09082 0.015625)"/>
      <use xlink:href="#DejaVuSans-65" transform="translate(1566.567383 0.015625)"/>
      <use xlink:href="#DejaVuSans-29" transform="translate(1628.09082 0.015625)"/>
     </g>
    </g>
   </g>
   <g id="line2d_31">
    <path d="M 58.340568 433 
L 61.254161 347.056615 
L 64.826504 310.259077 
L 68.398848 271.788923 
L 71.971191 245.027077 
L 75.543534 229.973538 
L 79.115877 221.610462 
L 82.68822 204.884308 
L 86.260563 194.848615 
L 89.832907 188.158154 
L 93.40525 186.485538 
L 96.977593 181.467692 
L 100.549936 184.812923 
L 104.122279 176.449846 
L 107.694622 174.777231 
L 111.266965 171.432 
L 114.839309 171.432 
L 118.411652 169.759385 
L 121.983995 166.414154 
L 125.556338 164.741538 
L 129.128681 161.396308 
L 132.701024 163.068923 
L 136.273367 161.396308 
L 139.845711 151.360615 
L 143.418054 158.051077 
L 146.990397 151.360615 
L 150.56274 153.033231 
L 154.135083 154.705846 
L 157.707426 154.705846 
L 161.27977 149.688 
L 164.852113 153.033231 
L 168.424456 149.688 
L 171.996799 153.033231 
L 175.569142 153.033231 
L 179.141485 149.688 
L 182.713828 153.033231 
L 186.286172 151.360615 
L 189.858515 153.033231 
L 193.430858 151.360615 
L 197.003201 153.033231 
L 200.575544 149.688 
L 204.147887 151.360615 
L 207.72023 151.360615 
L 211.292574 148.015385 
L 214.864917 151.360615 
L 218.43726 149.688 
L 222.009603 144.670154 
L 225.581946 148.015385 
L 229.154289 151.360615 
" clip-path="url(#p26948e4565)" style="fill: none; stroke: #1f77b4; stroke-width: 1.5; stroke-linecap: square"/>
   </g>
   <g id="line2d_32">
    <path d="M 57.681818 363.782769 
L 61.254161 283.497231 
L 64.826504 236.664 
L 68.398848 209.902154 
L 71.971191 189.830769 
L 75.543534 183.140308 
L 79.115877 178.122462 
L 82.68822 166.414154 
L 86.260563 158.051077 
L 89.832907 151.360615 
L 93.40525 149.688 
L 96.977593 142.997538 
L 100.549936 136.307077 
L 104.122279 131.289231 
L 107.694622 136.307077 
L 111.266965 134.634462 
L 114.839309 127.944 
L 118.411652 122.926154 
L 121.983995 127.944 
L 125.556338 124.598769 
L 129.128681 121.253538 
L 132.701024 124.598769 
L 136.273367 122.926154 
L 139.845711 124.598769 
L 143.418054 124.598769 
L 146.990397 119.580923 
L 150.56274 121.253538 
L 154.135083 119.580923 
L 157.707426 117.908308 
L 161.27977 117.908308 
L 164.852113 119.580923 
L 168.424456 117.908308 
L 171.996799 119.580923 
L 175.569142 117.908308 
L 179.141485 117.908308 
L 182.713828 114.563077 
L 186.286172 112.890462 
L 189.858515 112.890462 
L 193.430858 112.890462 
L 197.003201 109.545231 
L 200.575544 117.908308 
L 204.147887 114.563077 
L 207.72023 109.545231 
L 211.292574 119.580923 
L 214.864917 114.563077 
L 218.43726 112.890462 
L 222.009603 107.872615 
L 225.581946 112.890462 
L 229.154289 112.890462 
L 232.726633 114.563077 
L 236.298976 109.545231 
L 239.871319 114.563077 
L 243.443662 106.2 
L 247.016005 109.545231 
L 250.588348 114.563077 
L 254.160691 107.872615 
" clip-path="url(#p26948e4565)" style="fill: none; stroke: #ff7f0e; stroke-width: 1.5; stroke-linecap: square"/>
   </g>
   <g id="line2d_33">
    <path d="M 64.964345 433 
L 68.398848 407.270769 
L 71.971191 382.181538 
L 75.543534 367.128 
L 79.115877 340.366154 
L 82.68822 335.348308 
L 86.260563 325.312615 
L 89.832907 313.604308 
L 93.40525 305.241231 
L 96.977593 308.586462 
L 100.549936 308.586462 
L 104.122279 306.913846 
L 107.694622 300.223385 
L 111.266965 295.205538 
L 114.839309 278.479385 
L 118.411652 283.497231 
L 121.983995 270.116308 
L 125.556338 275.134154 
L 129.128681 280.152 
L 132.701024 273.461538 
L 136.273367 268.443692 
L 139.845711 268.443692 
L 143.418054 268.443692 
L 146.990397 263.425846 
L 150.56274 268.443692 
L 154.135083 253.390154 
L 157.707426 260.080615 
L 161.27977 256.735385 
L 164.852113 260.080615 
L 168.424456 250.044923 
L 171.996799 250.044923 
L 175.569142 248.372308 
L 179.141485 258.408 
L 182.713828 256.735385 
L 186.286172 253.390154 
L 189.858515 261.753231 
L 193.430858 248.372308 
L 197.003201 245.027077 
L 200.575544 245.027077 
L 204.147887 248.372308 
L 207.72023 241.681846 
L 211.292574 255.062769 
L 214.864917 243.354462 
L 218.43726 245.027077 
L 222.009603 240.009231 
L 225.581946 246.699692 
L 229.154289 248.372308 
L 232.726633 238.336615 
L 236.298976 246.699692 
L 239.871319 238.336615 
L 243.443662 243.354462 
L 247.016005 238.336615 
" clip-path="url(#p26948e4565)" style="fill: none; stroke: #2ca02c; stroke-width: 1.5; stroke-linecap: square"/>
   </g>
   <g id="line2d_34">
    <path d="M 57.681818 367.128 
L 61.254161 290.187692 
L 64.826504 256.735385 
L 68.398848 209.902154 
L 71.971191 189.830769 
L 75.543534 188.158154 
L 79.115877 171.432 
L 82.68822 168.086769 
L 86.260563 154.705846 
L 89.832907 154.705846 
L 93.40525 153.033231 
L 96.977593 146.342769 
L 100.549936 144.670154 
L 104.122279 141.324923 
L 107.694622 131.289231 
L 111.266965 131.289231 
L 114.839309 131.289231 
L 118.411652 132.961846 
L 121.983995 129.616615 
L 125.556338 129.616615 
L 129.128681 131.289231 
L 132.701024 127.944 
L 136.273367 121.253538 
L 139.845711 121.253538 
L 143.418054 126.271385 
L 146.990397 124.598769 
L 150.56274 126.271385 
L 154.135083 124.598769 
L 157.707426 124.598769 
L 161.27977 122.926154 
L 164.852113 121.253538 
L 168.424456 114.563077 
L 171.996799 116.235692 
L 175.569142 121.253538 
L 179.141485 119.580923 
L 182.713828 117.908308 
L 186.286172 122.926154 
L 189.858515 121.253538 
L 193.430858 121.253538 
L 197.003201 121.253538 
L 200.575544 119.580923 
L 204.147887 117.908308 
L 207.72023 116.235692 
" clip-path="url(#p26948e4565)" style="fill: none; stroke: #d62728; stroke-width: 1.5; stroke-linecap: square"/>
   </g>
   <g id="line2d_35">
    <path d="M 57.681818 385.526769 
L 61.254161 318.622154 
L 64.826504 303.568615 
L 68.398848 295.205538 
L 71.971191 268.443692 
L 75.543534 258.408 
L 79.115877 258.408 
L 82.68822 250.044923 
L 86.260563 243.354462 
L 89.832907 240.009231 
L 93.40525 236.664 
L 96.977593 234.991385 
L 100.549936 231.646154 
L 104.122279 226.628308 
L 107.694622 234.991385 
L 111.266965 229.973538 
L 114.839309 221.610462 
L 118.411652 228.300923 
L 121.983995 218.265231 
L 125.556338 223.283077 
L 129.128681 226.628308 
L 132.701024 219.937846 
L 136.273367 224.955692 
L 139.845711 219.937846 
L 143.418054 219.937846 
L 146.990397 213.247385 
L 150.56274 208.229538 
L 154.135083 213.247385 
" clip-path="url(#p26948e4565)" style="fill: none; stroke-dasharray: 5.55,2.4; stroke-dashoffset: 0; stroke: #9467bd; stroke-width: 1.5"/>
   </g>
   <g id="line2d_36">
    <path d="M 57.681818 377.163692 
L 61.254161 290.187692 
L 64.826504 246.699692 
L 68.398848 236.664 
L 71.971191 226.628308 
L 75.543534 201.539077 
L 79.115877 191.503385 
L 82.68822 191.503385 
L 86.260563 183.140308 
L 89.832907 173.104615 
L 93.40525 181.467692 
L 96.977593 174.777231 
L 100.549936 176.449846 
L 104.122279 171.432 
L 107.694622 166.414154 
L 111.266965 169.759385 
L 114.839309 163.068923 
L 118.411652 161.396308 
L 121.983995 164.741538 
L 125.556338 169.759385 
L 129.128681 159.723692 
L 132.701024 156.378462 
L 136.273367 159.723692 
L 139.845711 158.051077 
L 143.418054 158.051077 
L 146.990397 151.360615 
L 150.56274 164.741538 
L 154.135083 153.033231 
L 157.707426 154.705846 
L 161.27977 153.033231 
L 164.852113 161.396308 
L 168.424456 153.033231 
L 171.996799 149.688 
L 175.569142 163.068923 
L 179.141485 163.068923 
L 182.713828 161.396308 
L 186.286172 161.396308 
" clip-path="url(#p26948e4565)" style="fill: none; stroke-dasharray: 5.55,2.4; stroke-dashoffset: 0; stroke: #8c564b; stroke-width: 1.5"/>
   </g>
   <g id="line2d_37">
    <path d="M 58.04837 433 
L 61.254161 365.455385 
L 64.826504 332.003077 
L 68.398848 310.259077 
L 71.971191 301.896 
L 75.543534 295.205538 
L 79.115877 285.169846 
L 82.68822 278.479385 
L 86.260563 266.771077 
L 89.832907 265.098462 
L 93.40525 258.408 
L 96.977593 255.062769 
L 100.549936 253.390154 
L 104.122279 251.717538 
L 107.694622 246.699692 
L 111.266965 243.354462 
L 114.839309 243.354462 
L 118.411652 241.681846 
L 121.983995 240.009231 
L 125.556338 243.354462 
L 129.128681 231.646154 
L 132.701024 234.991385 
L 136.273367 234.991385 
L 139.845711 238.336615 
L 143.418054 234.991385 
L 146.990397 240.009231 
L 150.56274 234.991385 
L 154.135083 236.664 
L 157.707426 234.991385 
L 161.27977 231.646154 
L 164.852113 233.318769 
L 168.424456 234.991385 
L 171.996799 234.991385 
L 175.569142 231.646154 
L 179.141485 236.664 
L 182.713828 233.318769 
L 186.286172 236.664 
L 189.858515 240.009231 
L 193.430858 234.991385 
L 197.003201 236.664 
L 200.575544 236.664 
L 204.147887 240.009231 
L 207.72023 234.991385 
L 211.292574 233.318769 
L 214.864917 234.991385 
L 218.43726 233.318769 
L 222.009603 240.009231 
L 225.581946 238.336615 
L 229.154289 236.664 
L 232.726633 234.991385 
L 236.298976 238.336615 
L 239.871319 238.336615 
L 243.443662 233.318769 
" clip-path="url(#p26948e4565)" style="fill: none; stroke-dasharray: 5.55,2.4; stroke-dashoffset: 0; stroke: #e377c2; stroke-width: 1.5"/>
   </g>
   <g id="line2d_38">
    <path d="M 57.681818 398.907692 
L 61.254161 311.931692 
L 64.826504 276.806769 
L 68.398848 255.062769 
L 71.971191 234.991385 
L 75.543534 218.265231 
L 79.115877 196.521231 
L 82.68822 194.848615 
L 86.260563 183.140308 
L 89.832907 171.432 
L 93.40525 166.414154 
L 96.977593 158.051077 
L 100.549936 156.378462 
L 104.122279 158.051077 
L 107.694622 154.705846 
L 111.266965 144.670154 
L 114.839309 142.997538 
L 118.411652 139.652308 
L 121.983995 132.961846 
L 125.556338 136.307077 
L 129.128681 131.289231 
L 132.701024 127.944 
L 136.273367 127.944 
L 139.845711 129.616615 
L 143.418054 127.944 
L 146.990397 127.944 
L 150.56274 127.944 
L 154.135083 124.598769 
L 157.707426 127.944 
L 161.27977 119.580923 
L 164.852113 117.908308 
L 168.424456 117.908308 
L 171.996799 121.253538 
L 175.569142 117.908308 
L 179.141485 117.908308 
L 182.713828 124.598769 
L 186.286172 119.580923 
L 189.858515 116.235692 
L 193.430858 114.563077 
L 197.003201 112.890462 
L 200.575544 112.890462 
L 204.147887 114.563077 
L 207.72023 114.563077 
L 211.292574 112.890462 
L 214.864917 112.890462 
L 218.43726 111.217846 
L 222.009603 111.217846 
L 225.581946 107.872615 
L 229.154289 109.545231 
L 232.726633 106.2 
L 236.298976 109.545231 
L 239.871319 109.545231 
L 243.443662 109.545231 
L 247.016005 112.890462 
L 250.588348 106.2 
L 254.160691 104.527385 
L 257.733035 106.2 
L 261.305378 104.527385 
L 264.877721 102.854769 
L 268.450064 106.2 
L 272.022407 107.872615 
L 275.59475 104.527385 
L 279.167093 106.2 
L 282.739437 106.2 
L 286.31178 102.854769 
L 289.884123 99.509538 
L 293.456466 97.836923 
L 297.028809 106.2 
L 300.601152 102.854769 
L 304.173496 104.527385 
L 307.745839 102.854769 
L 311.318182 101.182154 
" clip-path="url(#p26948e4565)" style="fill: none; stroke-dasharray: 5.55,2.4; stroke-dashoffset: 0; stroke: #7f7f7f; stroke-width: 1.5"/>
   </g>
   <g id="patch_3">
    <path d="M 45 378 
L 45 51.84 
" style="fill: none; stroke: #000000; stroke-width: 0.8; stroke-linejoin: miter; stroke-linecap: square"/>
   </g>
   <g id="patch_4">
    <path d="M 324 378 
L 324 51.84 
" style="fill: none; stroke: #000000; stroke-width: 0.8; stroke-linejoin: miter; stroke-linecap: square"/>
   </g>
   <g id="patch_5">
    <path d="M 45 378 
L 324 378 
" style="fill: none; stroke: #000000; stroke-width: 0.8; stroke-linejoin: miter; stroke-linecap: square"/>
   </g>
   <g id="patch_6">
    <path d="M 45 51.84 
L 324 51.84 
" style="fill: none; stroke: #000000; stroke-width: 0.8; stroke-linejoin: miter; stroke-linecap: square"/>
   </g>
   <g id="legend_1">
    <g id="patch_7">
     <path d="M 200.907812 373 
L 317 373 
Q 319 373 319 371 
L 319 252.90625 
Q 319 250.90625 317 250.90625 
L 200.907812 250.90625 
Q 198.907812 250.90625 198.907812 252.90625 
L 198.907812 371 
Q 198.907812 373 200.907812 373 
z
" style="fill: #ffffff; opacity: 0.8; stroke: #cccccc; stroke-linejoin: miter"/>
    </g>
    <g id="line2d_39">
     <path d="M 202.907812 259.004687 
L 212.907812 259.004687 
L 222.907812 259.004687 
" style="fill: none; stroke: #1f77b4; stroke-width: 1.5; stroke-linecap: square"/>
    </g>
    <g id="text_18">
     <!-- vit_b_16 -->
     <g transform="translate(230.907812 262.504687)scale(0.1 -0.1)">
      <defs>
       <path id="DejaVuSans-76" d="M 191 3500 
L 800 3500 
L 1894 563 
L 2988 3500 
L 3597 3500 
L 2284 0 
L 1503 0 
L 191 3500 
z
" transform="scale(0.015625)"/>
       <path id="DejaVuSans-5f" d="M 3263 -1063 
L 3263 -1509 
L -63 -1509 
L -63 -1063 
L 3263 -1063 
z
" transform="scale(0.015625)"/>
       <path id="DejaVuSans-62" d="M 3116 1747 
Q 3116 2381 2855 2742 
Q 2594 3103 2138 3103 
Q 1681 3103 1420 2742 
Q 1159 2381 1159 1747 
Q 1159 1113 1420 752 
Q 1681 391 2138 391 
Q 2594 391 2855 752 
Q 3116 1113 3116 1747 
z
M 1159 2969 
Q 1341 3281 1617 3432 
Q 1894 3584 2278 3584 
Q 2916 3584 3314 3078 
Q 3713 2572 3713 1747 
Q 3713 922 3314 415 
Q 2916 -91 2278 -91 
Q 1894 -91 1617 61 
Q 1341 213 1159 525 
L 1159 0 
L 581 0 
L 581 4863 
L 1159 4863 
L 1159 2969 
z
" transform="scale(0.015625)"/>
      </defs>
      <use xlink:href="#DejaVuSans-76"/>
      <use xlink:href="#DejaVuSans-69" x="59.179688"/>
      <use xlink:href="#DejaVuSans-74" x="86.962891"/>
      <use xlink:href="#DejaVuSans-5f" x="126.171875"/>
      <use xlink:href="#DejaVuSans-62" x="176.171875"/>
      <use xlink:href="#DejaVuSans-5f" x="239.648438"/>
      <use xlink:href="#DejaVuSans-31" x="289.648438"/>
      <use xlink:href="#DejaVuSans-36" x="353.271484"/>
     </g>
    </g>
    <g id="line2d_40">
     <path d="M 202.907812 273.960938 
L 212.907812 273.960938 
L 222.907812 273.960938 
" style="fill: none; stroke: #ff7f0e; stroke-width: 1.5; stroke-linecap: square"/>
    </g>
    <g id="text_19">
     <!-- swin_b -->
     <g transform="translate(230.907812 277.460938)scale(0.1 -0.1)">
      <use xlink:href="#DejaVuSans-73"/>
      <use xlink:href="#DejaVuSans-77" x="52.099609"/>
      <use xlink:href="#DejaVuSans-69" x="133.886719"/>
      <use xlink:href="#DejaVuSans-6e" x="161.669922"/>
      <use xlink:href="#DejaVuSans-5f" x="225.048828"/>
      <use xlink:href="#DejaVuSans-62" x="275.048828"/>
     </g>
    </g>
    <g id="line2d_41">
     <path d="M 202.907812 288.917188 
L 212.907812 288.917188 
L 222.907812 288.917188 
" style="fill: none; stroke: #2ca02c; stroke-width: 1.5; stroke-linecap: square"/>
    </g>
    <g id="text_20">
     <!-- beit_b_16 -->
     <g transform="translate(230.907812 292.417188)scale(0.1 -0.1)">
      <use xlink:href="#DejaVuSans-62"/>
      <use xlink:href="#DejaVuSans-65" x="63.476562"/>
      <use xlink:href="#DejaVuSans-69" x="125"/>
      <use xlink:href="#DejaVuSans-74" x="152.783203"/>
      <use xlink:href="#DejaVuSans-5f" x="191.992188"/>
      <use xlink:href="#DejaVuSans-62" x="241.992188"/>
      <use xlink:href="#DejaVuSans-5f" x="305.46875"/>
      <use xlink:href="#DejaVuSans-31" x="355.46875"/>
      <use xlink:href="#DejaVuSans-36" x="419.091797"/>
     </g>
    </g>
    <g id="line2d_42">
     <path d="M 202.907812 303.873438 
L 212.907812 303.873438 
L 222.907812 303.873438 
" style="fill: none; stroke: #d62728; stroke-width: 1.5; stroke-linecap: square"/>
    </g>
    <g id="text_21">
     <!-- deit_b_16 -->
     <g transform="translate(230.907812 307.373438)scale(0.1 -0.1)">
      <defs>
       <path id="DejaVuSans-64" d="M 2906 2969 
L 2906 4863 
L 3481 4863 
L 3481 0 
L 2906 0 
L 2906 525 
Q 2725 213 2448 61 
Q 2172 -91 1784 -91 
Q 1150 -91 751 415 
Q 353 922 353 1747 
Q 353 2572 751 3078 
Q 1150 3584 1784 3584 
Q 2172 3584 2448 3432 
Q 2725 3281 2906 2969 
z
M 947 1747 
Q 947 1113 1208 752 
Q 1469 391 1925 391 
Q 2381 391 2643 752 
Q 2906 1113 2906 1747 
Q 2906 2381 2643 2742 
Q 2381 3103 1925 3103 
Q 1469 3103 1208 2742 
Q 947 2381 947 1747 
z
" transform="scale(0.015625)"/>
      </defs>
      <use xlink:href="#DejaVuSans-64"/>
      <use xlink:href="#DejaVuSans-65" x="63.476562"/>
      <use xlink:href="#DejaVuSans-69" x="125"/>
      <use xlink:href="#DejaVuSans-74" x="152.783203"/>
      <use xlink:href="#DejaVuSans-5f" x="191.992188"/>
      <use xlink:href="#DejaVuSans-62" x="241.992188"/>
      <use xlink:href="#DejaVuSans-5f" x="305.46875"/>
      <use xlink:href="#DejaVuSans-31" x="355.46875"/>
      <use xlink:href="#DejaVuSans-36" x="419.091797"/>
     </g>
    </g>
    <g id="line2d_43">
     <path d="M 202.907812 318.829687 
L 212.907812 318.829687 
L 222.907812 318.829687 
" style="fill: none; stroke-dasharray: 5.55,2.4; stroke-dashoffset: 0; stroke: #9467bd; stroke-width: 1.5"/>
    </g>
    <g id="text_22">
     <!-- vgg19 -->
     <g transform="translate(230.907812 322.329687)scale(0.1 -0.1)">
      <use xlink:href="#DejaVuSans-76"/>
      <use xlink:href="#DejaVuSans-67" x="59.179688"/>
      <use xlink:href="#DejaVuSans-67" x="122.65625"/>
      <use xlink:href="#DejaVuSans-31" x="186.132812"/>
      <use xlink:href="#DejaVuSans-39" x="249.755859"/>
     </g>
    </g>
    <g id="line2d_44">
     <path d="M 202.907812 333.507812 
L 212.907812 333.507812 
L 222.907812 333.507812 
" style="fill: none; stroke-dasharray: 5.55,2.4; stroke-dashoffset: 0; stroke: #8c564b; stroke-width: 1.5"/>
    </g>
    <g id="text_23">
     <!-- resnet50 -->
     <g transform="translate(230.907812 337.007812)scale(0.1 -0.1)">
      <use xlink:href="#DejaVuSans-72"/>
      <use xlink:href="#DejaVuSans-65" x="38.863281"/>
      <use xlink:href="#DejaVuSans-73" x="100.386719"/>
      <use xlink:href="#DejaVuSans-6e" x="152.486328"/>
      <use xlink:href="#DejaVuSans-65" x="215.865234"/>
      <use xlink:href="#DejaVuSans-74" x="277.388672"/>
      <use xlink:href="#DejaVuSans-35" x="316.597656"/>
      <use xlink:href="#DejaVuSans-30" x="380.220703"/>
     </g>
    </g>
    <g id="line2d_45">
     <path d="M 202.907812 348.185938 
L 212.907812 348.185938 
L 222.907812 348.185938 
" style="fill: none; stroke-dasharray: 5.55,2.4; stroke-dashoffset: 0; stroke: #e377c2; stroke-width: 1.5"/>
    </g>
    <g id="text_24">
     <!-- efficientnetv2_m -->
     <g transform="translate(230.907812 351.685938)scale(0.1 -0.1)">
      <defs>
       <path id="DejaVuSans-66" d="M 2375 4863 
L 2375 4384 
L 1825 4384 
Q 1516 4384 1395 4259 
Q 1275 4134 1275 3809 
L 1275 3500 
L 2222 3500 
L 2222 3053 
L 1275 3053 
L 1275 0 
L 697 0 
L 697 3053 
L 147 3053 
L 147 3500 
L 697 3500 
L 697 3744 
Q 697 4328 969 4595 
Q 1241 4863 1831 4863 
L 2375 4863 
z
" transform="scale(0.015625)"/>
       <path id="DejaVuSans-6d" d="M 3328 2828 
Q 3544 3216 3844 3400 
Q 4144 3584 4550 3584 
Q 5097 3584 5394 3201 
Q 5691 2819 5691 2113 
L 5691 0 
L 5113 0 
L 5113 2094 
Q 5113 2597 4934 2840 
Q 4756 3084 4391 3084 
Q 3944 3084 3684 2787 
Q 3425 2491 3425 1978 
L 3425 0 
L 2847 0 
L 2847 2094 
Q 2847 2600 2669 2842 
Q 2491 3084 2119 3084 
Q 1678 3084 1418 2786 
Q 1159 2488 1159 1978 
L 1159 0 
L 581 0 
L 581 3500 
L 1159 3500 
L 1159 2956 
Q 1356 3278 1631 3431 
Q 1906 3584 2284 3584 
Q 2666 3584 2933 3390 
Q 3200 3197 3328 2828 
z
" transform="scale(0.015625)"/>
      </defs>
      <use xlink:href="#DejaVuSans-65"/>
      <use xlink:href="#DejaVuSans-66" x="61.523438"/>
      <use xlink:href="#DejaVuSans-66" x="96.728516"/>
      <use xlink:href="#DejaVuSans-69" x="131.933594"/>
      <use xlink:href="#DejaVuSans-63" x="159.716797"/>
      <use xlink:href="#DejaVuSans-69" x="214.697266"/>
      <use xlink:href="#DejaVuSans-65" x="242.480469"/>
      <use xlink:href="#DejaVuSans-6e" x="304.003906"/>
      <use xlink:href="#DejaVuSans-74" x="367.382812"/>
      <use xlink:href="#DejaVuSans-6e" x="406.591797"/>
      <use xlink:href="#DejaVuSans-65" x="469.970703"/>
      <use xlink:href="#DejaVuSans-74" x="531.494141"/>
      <use xlink:href="#DejaVuSans-76" x="570.703125"/>
      <use xlink:href="#DejaVuSans-32" x="629.882812"/>
      <use xlink:href="#DejaVuSans-5f" x="693.505859"/>
      <use xlink:href="#DejaVuSans-6d" x="743.505859"/>
     </g>
    </g>
    <g id="line2d_46">
     <path d="M 202.907812 363.142187 
L 212.907812 363.142187 
L 222.907812 363.142187 
" style="fill: none; stroke-dasharray: 5.55,2.4; stroke-dashoffset: 0; stroke: #7f7f7f; stroke-width: 1.5"/>
    </g>
    <g id="text_25">
     <!-- convnext_b -->
     <g transform="translate(230.907812 366.642187)scale(0.1 -0.1)">
      <defs>
       <path id="DejaVuSans-78" d="M 3513 3500 
L 2247 1797 
L 3578 0 
L 2900 0 
L 1881 1375 
L 863 0 
L 184 0 
L 1544 1831 
L 300 3500 
L 978 3500 
L 1906 2253 
L 2834 3500 
L 3513 3500 
z
" transform="scale(0.015625)"/>
      </defs>
      <use xlink:href="#DejaVuSans-63"/>
      <use xlink:href="#DejaVuSans-6f" x="54.980469"/>
      <use xlink:href="#DejaVuSans-6e" x="116.162109"/>
      <use xlink:href="#DejaVuSans-76" x="179.541016"/>
      <use xlink:href="#DejaVuSans-6e" x="238.720703"/>
      <use xlink:href="#DejaVuSans-65" x="302.099609"/>
      <use xlink:href="#DejaVuSans-78" x="361.873047"/>
      <use xlink:href="#DejaVuSans-74" x="421.052734"/>
      <use xlink:href="#DejaVuSans-5f" x="460.261719"/>
      <use xlink:href="#DejaVuSans-62" x="510.261719"/>
     </g>
    </g>
   </g>
  </g>
 </g>
 <defs>
  <clipPath id="p26948e4565">
   <rect x="45" y="51.84" width="279" height="326.16"/>
  </clipPath>
 </defs>
</svg>
