<?xml version="1.0" encoding="utf-8" standalone="no"?>
<!DOCTYPE svg PUBLIC "-//W3C//DTD SVG 1.1//EN"
  "http://www.w3.org/Graphics/SVG/1.1/DTD/svg11.dtd">
<svg xmlns:xlink="http://www.w3.org/1999/xlink" width="864pt" height="288pt" viewBox="0 0 864 288" xmlns="http://www.w3.org/2000/svg" version="1.1">
 <metadata>
  <rdf:RDF xmlns:dc="http://purl.org/dc/elements/1.1/" xmlns:cc="http://creativecommons.org/ns#" xmlns:rdf="http://www.w3.org/1999/02/22-rdf-syntax-ns#">
   <cc:Work>
    <dc:type rdf:resource="http://purl.org/dc/dcmitype/StillImage"/>
    <dc:date>2022-06-24T14:55:51.091862</dc:date>
    <dc:format>image/svg+xml</dc:format>
    <dc:creator>
     <cc:Agent>
      <dc:title>Matplotlib v3.5.2, https://matplotlib.org/</dc:title>
     </cc:Agent>
    </dc:creator>
   </cc:Work>
  </rdf:RDF>
 </metadata>
 <defs>
  <style type="text/css">*{stroke-linejoin: round; stroke-linecap: butt}</style>
 </defs>
 <g id="figure_1">
  <g id="patch_1">
   <path d="M 0 288 
L 864 288 
L 864 0 
L 0 0 
L 0 288 
z
" style="fill: none"/>
  </g>
  <g id="axes_1">
   <g id="patch_2">
    <path d="M 108 252 
L 331.2 252 
L 331.2 34.56 
L 108 34.56 
z
" style="fill: #ffffff"/>
   </g>
   <g id="PolyCollection_1">
    <path d="M 119.21608 153.251902 
L 119.21608 162.904098 
L 130.432161 133.595728 
L 141.648241 138.034878 
L 152.864322 132.812935 
L 164.080402 128.890742 
L 175.296482 126.094517 
L 186.512563 110.882349 
L 197.728643 112.189075 
L 208.944724 108.84533 
L 220.160804 103.869 
L 231.376884 106.997727 
L 242.592965 109.244109 
L 253.809045 109.289237 
L 265.025126 104.658768 
L 276.241206 104.274975 
L 287.457286 104.591793 
L 287.457286 100.730207 
L 287.457286 100.730207 
L 276.241206 100.443025 
L 265.025126 100.361232 
L 253.809045 102.072763 
L 242.592965 101.815891 
L 231.376884 101.646273 
L 220.160804 100.245 
L 208.944724 103.72467 
L 197.728643 103.098925 
L 186.512563 103.197651 
L 175.296482 116.071483 
L 164.080402 119.919258 
L 152.864322 120.527065 
L 141.648241 127.989122 
L 130.432161 125.180272 
L 119.21608 153.251902 
z
" clip-path="url(#p07d80e36d3)" style="fill: #1f77b4; fill-opacity: 0.2"/>
   </g>
   <g id="PolyCollection_2">
    <path d="M 119.21608 126.852384 
L 119.21608 139.171616 
L 130.432161 113.748833 
L 141.648241 118.098097 
L 152.864322 114.068087 
L 164.080402 104.001698 
L 175.296482 102.734989 
L 186.512563 107.171319 
L 197.728643 96.014094 
L 208.944724 94.16693 
L 220.160804 94.441189 
L 231.376884 97.348949 
L 242.592965 91.722463 
L 253.809045 91.127271 
L 265.025126 91.111009 
L 265.025126 87.332991 
L 265.025126 87.332991 
L 253.809045 88.222729 
L 242.592965 88.533537 
L 231.376884 88.947051 
L 220.160804 89.136811 
L 208.944724 89.71307 
L 197.728643 92.093906 
L 186.512563 99.660681 
L 175.296482 98.963011 
L 164.080402 94.676302 
L 152.864322 104.541913 
L 141.648241 108.967903 
L 130.432161 107.881167 
L 119.21608 126.852384 
z
" clip-path="url(#p07d80e36d3)" style="fill: #ff7f0e; fill-opacity: 0.2"/>
   </g>
   <g id="PolyCollection_3">
    <path d="M 119.21608 148.835995 
L 119.21608 184.534005 
L 130.432161 160.879517 
L 141.648241 144.044801 
L 152.864322 142.188593 
L 164.080402 134.54869 
L 175.296482 126.731861 
L 186.512563 121.014319 
L 197.728643 119.760888 
L 208.944724 113.420613 
L 220.160804 110.090345 
L 231.376884 109.167958 
L 242.592965 111.765195 
L 253.809045 111.631035 
L 265.025126 111.82748 
L 276.241206 104.766784 
L 287.457286 103.293181 
L 298.673367 102.639946 
L 309.889447 103.572657 
L 321.105528 103.031717 
L 321.105528 97.156283 
L 321.105528 97.156283 
L 309.889447 97.521343 
L 298.673367 97.246054 
L 287.457286 97.196819 
L 276.241206 97.837216 
L 265.025126 99.83652 
L 253.809045 99.428965 
L 242.592965 99.596805 
L 231.376884 100.986042 
L 220.160804 100.667655 
L 208.944724 101.867387 
L 197.728643 104.889112 
L 186.512563 108.467681 
L 175.296482 122.984139 
L 164.080402 119.99931 
L 152.864322 128.969407 
L 141.648241 120.771199 
L 130.432161 131.720483 
L 119.21608 148.835995 
z
" clip-path="url(#p07d80e36d3)" style="fill: #2ca02c; fill-opacity: 0.2"/>
   </g>
   <g id="PolyCollection_4">
    <path d="M 119.21608 125.868041 
L 119.21608 135.625959 
L 130.432161 128.645998 
L 141.648241 109.397358 
L 152.864322 104.225706 
L 164.080402 113.272626 
L 175.296482 114.571698 
L 186.512563 105.586104 
L 197.728643 97.447301 
L 208.944724 97.357026 
L 220.160804 96.452751 
L 231.376884 96.628068 
L 242.592965 96.546578 
L 253.809045 96.311437 
L 253.809045 91.796563 
L 253.809045 91.796563 
L 242.592965 91.259422 
L 231.376884 91.781932 
L 220.160804 93.165249 
L 208.944724 93.770974 
L 197.728643 93.378699 
L 186.512563 99.433896 
L 175.296482 105.246302 
L 164.080402 107.753374 
L 152.864322 99.586294 
L 141.648241 104.984642 
L 130.432161 119.862002 
L 119.21608 125.868041 
z
" clip-path="url(#p07d80e36d3)" style="fill: #d62728; fill-opacity: 0.2"/>
   </g>
   <g id="PolyCollection_5">
    <path d="M 119.21608 174.377066 
L 119.21608 185.870934 
L 130.432161 158.862961 
L 141.648241 151.716097 
L 152.864322 141.215394 
L 164.080402 134.463791 
L 175.296482 132.614102 
L 186.512563 131.693347 
L 197.728643 118.22874 
L 208.944724 123.997867 
L 220.160804 114.331519 
L 231.376884 108.151419 
L 242.592965 115.451121 
L 253.809045 106.012904 
L 265.025126 104.984816 
L 276.241206 107.102205 
L 287.457286 107.152998 
L 298.673367 104.562041 
L 309.889447 106.03176 
L 321.105528 103.866094 
L 321.105528 99.945906 
L 321.105528 99.945906 
L 309.889447 102.00824 
L 298.673367 100.759959 
L 287.457286 101.491002 
L 276.241206 101.541795 
L 265.025126 101.243184 
L 253.809045 102.933096 
L 242.592965 104.064879 
L 231.376884 104.116581 
L 220.160804 110.620481 
L 208.944724 111.524133 
L 197.728643 111.25326 
L 186.512563 123.458653 
L 175.296482 126.765898 
L 164.080402 128.842209 
L 152.864322 134.472606 
L 141.648241 140.279903 
L 130.432161 145.515039 
L 119.21608 174.377066 
z
" clip-path="url(#p07d80e36d3)" style="fill: #9467bd; fill-opacity: 0.2"/>
   </g>
   <g id="PolyCollection_6">
    <path d="M 119.21608 139.536596 
L 119.21608 146.721404 
L 130.432161 132.682862 
L 141.648241 126.107626 
L 152.864322 116.652741 
L 164.080402 113.044346 
L 175.296482 113.437886 
L 186.512563 110.460016 
L 197.728643 109.001284 
L 208.944724 104.337497 
L 220.160804 105.121626 
L 231.376884 98.228928 
L 242.592965 98.243711 
L 253.809045 100.500999 
L 265.025126 98.478476 
L 276.241206 98.609963 
L 287.457286 96.80293 
L 298.673367 97.6124 
L 309.889447 97.330832 
L 309.889447 95.609168 
L 309.889447 95.609168 
L 298.673367 94.7236 
L 287.457286 94.92907 
L 276.241206 94.632037 
L 265.025126 97.179524 
L 253.809045 97.573001 
L 242.592965 95.602289 
L 231.376884 95.919072 
L 220.160804 98.690374 
L 208.944724 99.172503 
L 197.728643 102.360716 
L 186.512563 106.639984 
L 175.296482 109.098114 
L 164.080402 108.283654 
L 152.864322 109.809259 
L 141.648241 120.588374 
L 130.432161 128.509138 
L 119.21608 139.536596 
z
" clip-path="url(#p07d80e36d3)" style="fill: #8c564b; fill-opacity: 0.2"/>
   </g>
   <g id="PolyCollection_7">
    <path d="M 119.21608 126.789081 
L 119.21608 132.892919 
L 130.432161 115.228143 
L 141.648241 108.228062 
L 152.864322 107.847619 
L 164.080402 108.28546 
L 175.296482 107.004346 
L 186.512563 99.45532 
L 197.728643 97.444982 
L 208.944724 101.466439 
L 220.160804 101.838687 
L 231.376884 100.245 
L 242.592965 99.530067 
L 253.809045 101.588202 
L 253.809045 97.995798 
L 253.809045 97.995798 
L 242.592965 95.221933 
L 231.376884 96.621 
L 220.160804 98.349313 
L 208.944724 97.211561 
L 197.728643 93.079018 
L 186.512563 96.20268 
L 175.296482 102.243654 
L 164.080402 103.37854 
L 152.864322 105.628381 
L 141.648241 102.529938 
L 130.432161 108.515857 
L 119.21608 126.789081 
z
" clip-path="url(#p07d80e36d3)" style="fill: #e377c2; fill-opacity: 0.2"/>
   </g>
   <g id="PolyCollection_8">
    <path d="M 119.21608 130.164627 
L 119.21608 138.577373 
L 130.432161 117.641278 
L 141.648241 108.416663 
L 152.864322 105.418559 
L 164.080402 100.755162 
L 175.296482 100.970744 
L 186.512563 97.919109 
L 197.728643 92.91296 
L 208.944724 94.385456 
L 220.160804 92.997 
L 231.376884 92.021448 
L 242.592965 91.511938 
L 253.809045 91.532381 
L 253.809045 88.723619 
L 253.809045 88.723619 
L 242.592965 88.744062 
L 231.376884 89.140552 
L 220.160804 89.675 
L 208.944724 90.098544 
L 197.728643 88.24904 
L 186.512563 90.490891 
L 175.296482 97.103256 
L 164.080402 96.110838 
L 152.864322 99.903441 
L 141.648241 98.717337 
L 130.432161 112.142722 
L 119.21608 130.164627 
z
" clip-path="url(#p07d80e36d3)" style="fill: #7f7f7f; fill-opacity: 0.2"/>
   </g>
   <g id="matplotlib.axis_1">
    <g id="xtick_1">
     <g id="line2d_1">
      <path d="M 108 252 
L 108 34.56 
" clip-path="url(#p07d80e36d3)" style="fill: none; stroke: #b0b0b0; stroke-width: 0.8; stroke-linecap: square"/>
     </g>
     <g id="line2d_2">
      <defs>
       <path id="m73679ac11f" d="M 0 0 
L 0 3.5 
" style="stroke: #000000; stroke-width: 0.8"/>
      </defs>
      <g>
       <use xlink:href="#m73679ac11f" x="108" y="252" style="stroke: #000000; stroke-width: 0.8"/>
      </g>
     </g>
     <g id="text_1">
      <!-- 0 -->
      <g transform="translate(104.81875 266.598437)scale(0.1 -0.1)">
       <defs>
        <path id="DejaVuSans-30" d="M 2034 4250 
Q 1547 4250 1301 3770 
Q 1056 3291 1056 2328 
Q 1056 1369 1301 889 
Q 1547 409 2034 409 
Q 2525 409 2770 889 
Q 3016 1369 3016 2328 
Q 3016 3291 2770 3770 
Q 2525 4250 2034 4250 
z
M 2034 4750 
Q 2819 4750 3233 4129 
Q 3647 3509 3647 2328 
Q 3647 1150 3233 529 
Q 2819 -91 2034 -91 
Q 1250 -91 836 529 
Q 422 1150 422 2328 
Q 422 3509 836 4129 
Q 1250 4750 2034 4750 
z
" transform="scale(0.015625)"/>
       </defs>
       <use xlink:href="#DejaVuSans-30"/>
      </g>
     </g>
    </g>
    <g id="xtick_2">
     <g id="line2d_3">
      <path d="M 164.080402 252 
L 164.080402 34.56 
" clip-path="url(#p07d80e36d3)" style="fill: none; stroke: #b0b0b0; stroke-width: 0.8; stroke-linecap: square"/>
     </g>
     <g id="line2d_4">
      <g>
       <use xlink:href="#m73679ac11f" x="164.080402" y="252" style="stroke: #000000; stroke-width: 0.8"/>
      </g>
     </g>
     <g id="text_2">
      <!-- 5 -->
      <g transform="translate(160.899152 266.598437)scale(0.1 -0.1)">
       <defs>
        <path id="DejaVuSans-35" d="M 691 4666 
L 3169 4666 
L 3169 4134 
L 1269 4134 
L 1269 2991 
Q 1406 3038 1543 3061 
Q 1681 3084 1819 3084 
Q 2600 3084 3056 2656 
Q 3513 2228 3513 1497 
Q 3513 744 3044 326 
Q 2575 -91 1722 -91 
Q 1428 -91 1123 -41 
Q 819 9 494 109 
L 494 744 
Q 775 591 1075 516 
Q 1375 441 1709 441 
Q 2250 441 2565 725 
Q 2881 1009 2881 1497 
Q 2881 1984 2565 2268 
Q 2250 2553 1709 2553 
Q 1456 2553 1204 2497 
Q 953 2441 691 2322 
L 691 4666 
z
" transform="scale(0.015625)"/>
       </defs>
       <use xlink:href="#DejaVuSans-35"/>
      </g>
     </g>
    </g>
    <g id="xtick_3">
     <g id="line2d_5">
      <path d="M 220.160804 252 
L 220.160804 34.56 
" clip-path="url(#p07d80e36d3)" style="fill: none; stroke: #b0b0b0; stroke-width: 0.8; stroke-linecap: square"/>
     </g>
     <g id="line2d_6">
      <g>
       <use xlink:href="#m73679ac11f" x="220.160804" y="252" style="stroke: #000000; stroke-width: 0.8"/>
      </g>
     </g>
     <g id="text_3">
      <!-- 10 -->
      <g transform="translate(213.798304 266.598437)scale(0.1 -0.1)">
       <defs>
        <path id="DejaVuSans-31" d="M 794 531 
L 1825 531 
L 1825 4091 
L 703 3866 
L 703 4441 
L 1819 4666 
L 2450 4666 
L 2450 531 
L 3481 531 
L 3481 0 
L 794 0 
L 794 531 
z
" transform="scale(0.015625)"/>
       </defs>
       <use xlink:href="#DejaVuSans-31"/>
       <use xlink:href="#DejaVuSans-30" x="63.623047"/>
      </g>
     </g>
    </g>
    <g id="xtick_4">
     <g id="line2d_7">
      <path d="M 276.241206 252 
L 276.241206 34.56 
" clip-path="url(#p07d80e36d3)" style="fill: none; stroke: #b0b0b0; stroke-width: 0.8; stroke-linecap: square"/>
     </g>
     <g id="line2d_8">
      <g>
       <use xlink:href="#m73679ac11f" x="276.241206" y="252" style="stroke: #000000; stroke-width: 0.8"/>
      </g>
     </g>
     <g id="text_4">
      <!-- 15 -->
      <g transform="translate(269.878706 266.598437)scale(0.1 -0.1)">
       <use xlink:href="#DejaVuSans-31"/>
       <use xlink:href="#DejaVuSans-35" x="63.623047"/>
      </g>
     </g>
    </g>
    <g id="text_5">
     <!-- Type (epochs) -->
     <g transform="translate(184.79375 280.276563)scale(0.1 -0.1)">
      <defs>
       <path id="DejaVuSans-54" d="M -19 4666 
L 3928 4666 
L 3928 4134 
L 2272 4134 
L 2272 0 
L 1638 0 
L 1638 4134 
L -19 4134 
L -19 4666 
z
" transform="scale(0.015625)"/>
       <path id="DejaVuSans-79" d="M 2059 -325 
Q 1816 -950 1584 -1140 
Q 1353 -1331 966 -1331 
L 506 -1331 
L 506 -850 
L 844 -850 
Q 1081 -850 1212 -737 
Q 1344 -625 1503 -206 
L 1606 56 
L 191 3500 
L 800 3500 
L 1894 763 
L 2988 3500 
L 3597 3500 
L 2059 -325 
z
" transform="scale(0.015625)"/>
       <path id="DejaVuSans-70" d="M 1159 525 
L 1159 -1331 
L 581 -1331 
L 581 3500 
L 1159 3500 
L 1159 2969 
Q 1341 3281 1617 3432 
Q 1894 3584 2278 3584 
Q 2916 3584 3314 3078 
Q 3713 2572 3713 1747 
Q 3713 922 3314 415 
Q 2916 -91 2278 -91 
Q 1894 -91 1617 61 
Q 1341 213 1159 525 
z
M 3116 1747 
Q 3116 2381 2855 2742 
Q 2594 3103 2138 3103 
Q 1681 3103 1420 2742 
Q 1159 2381 1159 1747 
Q 1159 1113 1420 752 
Q 1681 391 2138 391 
Q 2594 391 2855 752 
Q 3116 1113 3116 1747 
z
" transform="scale(0.015625)"/>
       <path id="DejaVuSans-65" d="M 3597 1894 
L 3597 1613 
L 953 1613 
Q 991 1019 1311 708 
Q 1631 397 2203 397 
Q 2534 397 2845 478 
Q 3156 559 3463 722 
L 3463 178 
Q 3153 47 2828 -22 
Q 2503 -91 2169 -91 
Q 1331 -91 842 396 
Q 353 884 353 1716 
Q 353 2575 817 3079 
Q 1281 3584 2069 3584 
Q 2775 3584 3186 3129 
Q 3597 2675 3597 1894 
z
M 3022 2063 
Q 3016 2534 2758 2815 
Q 2500 3097 2075 3097 
Q 1594 3097 1305 2825 
Q 1016 2553 972 2059 
L 3022 2063 
z
" transform="scale(0.015625)"/>
       <path id="DejaVuSans-20" transform="scale(0.015625)"/>
       <path id="DejaVuSans-28" d="M 1984 4856 
Q 1566 4138 1362 3434 
Q 1159 2731 1159 2009 
Q 1159 1288 1364 580 
Q 1569 -128 1984 -844 
L 1484 -844 
Q 1016 -109 783 600 
Q 550 1309 550 2009 
Q 550 2706 781 3412 
Q 1013 4119 1484 4856 
L 1984 4856 
z
" transform="scale(0.015625)"/>
       <path id="DejaVuSans-6f" d="M 1959 3097 
Q 1497 3097 1228 2736 
Q 959 2375 959 1747 
Q 959 1119 1226 758 
Q 1494 397 1959 397 
Q 2419 397 2687 759 
Q 2956 1122 2956 1747 
Q 2956 2369 2687 2733 
Q 2419 3097 1959 3097 
z
M 1959 3584 
Q 2709 3584 3137 3096 
Q 3566 2609 3566 1747 
Q 3566 888 3137 398 
Q 2709 -91 1959 -91 
Q 1206 -91 779 398 
Q 353 888 353 1747 
Q 353 2609 779 3096 
Q 1206 3584 1959 3584 
z
" transform="scale(0.015625)"/>
       <path id="DejaVuSans-63" d="M 3122 3366 
L 3122 2828 
Q 2878 2963 2633 3030 
Q 2388 3097 2138 3097 
Q 1578 3097 1268 2742 
Q 959 2388 959 1747 
Q 959 1106 1268 751 
Q 1578 397 2138 397 
Q 2388 397 2633 464 
Q 2878 531 3122 666 
L 3122 134 
Q 2881 22 2623 -34 
Q 2366 -91 2075 -91 
Q 1284 -91 818 406 
Q 353 903 353 1747 
Q 353 2603 823 3093 
Q 1294 3584 2113 3584 
Q 2378 3584 2631 3529 
Q 2884 3475 3122 3366 
z
" transform="scale(0.015625)"/>
       <path id="DejaVuSans-68" d="M 3513 2113 
L 3513 0 
L 2938 0 
L 2938 2094 
Q 2938 2591 2744 2837 
Q 2550 3084 2163 3084 
Q 1697 3084 1428 2787 
Q 1159 2491 1159 1978 
L 1159 0 
L 581 0 
L 581 4863 
L 1159 4863 
L 1159 2956 
Q 1366 3272 1645 3428 
Q 1925 3584 2291 3584 
Q 2894 3584 3203 3211 
Q 3513 2838 3513 2113 
z
" transform="scale(0.015625)"/>
       <path id="DejaVuSans-73" d="M 2834 3397 
L 2834 2853 
Q 2591 2978 2328 3040 
Q 2066 3103 1784 3103 
Q 1356 3103 1142 2972 
Q 928 2841 928 2578 
Q 928 2378 1081 2264 
Q 1234 2150 1697 2047 
L 1894 2003 
Q 2506 1872 2764 1633 
Q 3022 1394 3022 966 
Q 3022 478 2636 193 
Q 2250 -91 1575 -91 
Q 1294 -91 989 -36 
Q 684 19 347 128 
L 347 722 
Q 666 556 975 473 
Q 1284 391 1588 391 
Q 1994 391 2212 530 
Q 2431 669 2431 922 
Q 2431 1156 2273 1281 
Q 2116 1406 1581 1522 
L 1381 1569 
Q 847 1681 609 1914 
Q 372 2147 372 2553 
Q 372 3047 722 3315 
Q 1072 3584 1716 3584 
Q 2034 3584 2315 3537 
Q 2597 3491 2834 3397 
z
" transform="scale(0.015625)"/>
       <path id="DejaVuSans-29" d="M 513 4856 
L 1013 4856 
Q 1481 4119 1714 3412 
Q 1947 2706 1947 2009 
Q 1947 1309 1714 600 
Q 1481 -109 1013 -844 
L 513 -844 
Q 928 -128 1133 580 
Q 1338 1288 1338 2009 
Q 1338 2731 1133 3434 
Q 928 4138 513 4856 
z
" transform="scale(0.015625)"/>
      </defs>
      <use xlink:href="#DejaVuSans-54"/>
      <use xlink:href="#DejaVuSans-79" x="45.458984"/>
      <use xlink:href="#DejaVuSans-70" x="104.638672"/>
      <use xlink:href="#DejaVuSans-65" x="168.115234"/>
      <use xlink:href="#DejaVuSans-20" x="229.638672"/>
      <use xlink:href="#DejaVuSans-28" x="261.425781"/>
      <use xlink:href="#DejaVuSans-65" x="300.439453"/>
      <use xlink:href="#DejaVuSans-70" x="361.962891"/>
      <use xlink:href="#DejaVuSans-6f" x="425.439453"/>
      <use xlink:href="#DejaVuSans-63" x="486.621094"/>
      <use xlink:href="#DejaVuSans-68" x="541.601562"/>
      <use xlink:href="#DejaVuSans-73" x="604.980469"/>
      <use xlink:href="#DejaVuSans-29" x="657.080078"/>
     </g>
    </g>
   </g>
   <g id="matplotlib.axis_2">
    <g id="ytick_1">
     <g id="line2d_9">
      <path d="M 108 252 
L 331.2 252 
" clip-path="url(#p07d80e36d3)" style="fill: none; stroke: #b0b0b0; stroke-width: 0.8; stroke-linecap: square"/>
     </g>
     <g id="line2d_10">
      <defs>
       <path id="md00d15dfc3" d="M 0 0 
L -3.5 0 
" style="stroke: #000000; stroke-width: 0.8"/>
      </defs>
      <g>
       <use xlink:href="#md00d15dfc3" x="108" y="252" style="stroke: #000000; stroke-width: 0.8"/>
      </g>
     </g>
     <g id="text_6">
      <!-- 0.70 -->
      <g transform="translate(78.734375 255.799219)scale(0.1 -0.1)">
       <defs>
        <path id="DejaVuSans-2e" d="M 684 794 
L 1344 794 
L 1344 0 
L 684 0 
L 684 794 
z
" transform="scale(0.015625)"/>
        <path id="DejaVuSans-37" d="M 525 4666 
L 3525 4666 
L 3525 4397 
L 1831 0 
L 1172 0 
L 2766 4134 
L 525 4134 
L 525 4666 
z
" transform="scale(0.015625)"/>
       </defs>
       <use xlink:href="#DejaVuSans-30"/>
       <use xlink:href="#DejaVuSans-2e" x="63.623047"/>
       <use xlink:href="#DejaVuSans-37" x="95.410156"/>
       <use xlink:href="#DejaVuSans-30" x="159.033203"/>
      </g>
     </g>
    </g>
    <g id="ytick_2">
     <g id="line2d_11">
      <path d="M 108 215.76 
L 331.2 215.76 
" clip-path="url(#p07d80e36d3)" style="fill: none; stroke: #b0b0b0; stroke-width: 0.8; stroke-linecap: square"/>
     </g>
     <g id="line2d_12">
      <g>
       <use xlink:href="#md00d15dfc3" x="108" y="215.76" style="stroke: #000000; stroke-width: 0.8"/>
      </g>
     </g>
     <g id="text_7">
      <!-- 0.75 -->
      <g transform="translate(78.734375 219.559219)scale(0.1 -0.1)">
       <use xlink:href="#DejaVuSans-30"/>
       <use xlink:href="#DejaVuSans-2e" x="63.623047"/>
       <use xlink:href="#DejaVuSans-37" x="95.410156"/>
       <use xlink:href="#DejaVuSans-35" x="159.033203"/>
      </g>
     </g>
    </g>
    <g id="ytick_3">
     <g id="line2d_13">
      <path d="M 108 179.52 
L 331.2 179.52 
" clip-path="url(#p07d80e36d3)" style="fill: none; stroke: #b0b0b0; stroke-width: 0.8; stroke-linecap: square"/>
     </g>
     <g id="line2d_14">
      <g>
       <use xlink:href="#md00d15dfc3" x="108" y="179.52" style="stroke: #000000; stroke-width: 0.8"/>
      </g>
     </g>
     <g id="text_8">
      <!-- 0.80 -->
      <g transform="translate(78.734375 183.319219)scale(0.1 -0.1)">
       <defs>
        <path id="DejaVuSans-38" d="M 2034 2216 
Q 1584 2216 1326 1975 
Q 1069 1734 1069 1313 
Q 1069 891 1326 650 
Q 1584 409 2034 409 
Q 2484 409 2743 651 
Q 3003 894 3003 1313 
Q 3003 1734 2745 1975 
Q 2488 2216 2034 2216 
z
M 1403 2484 
Q 997 2584 770 2862 
Q 544 3141 544 3541 
Q 544 4100 942 4425 
Q 1341 4750 2034 4750 
Q 2731 4750 3128 4425 
Q 3525 4100 3525 3541 
Q 3525 3141 3298 2862 
Q 3072 2584 2669 2484 
Q 3125 2378 3379 2068 
Q 3634 1759 3634 1313 
Q 3634 634 3220 271 
Q 2806 -91 2034 -91 
Q 1263 -91 848 271 
Q 434 634 434 1313 
Q 434 1759 690 2068 
Q 947 2378 1403 2484 
z
M 1172 3481 
Q 1172 3119 1398 2916 
Q 1625 2713 2034 2713 
Q 2441 2713 2670 2916 
Q 2900 3119 2900 3481 
Q 2900 3844 2670 4047 
Q 2441 4250 2034 4250 
Q 1625 4250 1398 4047 
Q 1172 3844 1172 3481 
z
" transform="scale(0.015625)"/>
       </defs>
       <use xlink:href="#DejaVuSans-30"/>
       <use xlink:href="#DejaVuSans-2e" x="63.623047"/>
       <use xlink:href="#DejaVuSans-38" x="95.410156"/>
       <use xlink:href="#DejaVuSans-30" x="159.033203"/>
      </g>
     </g>
    </g>
    <g id="ytick_4">
     <g id="line2d_15">
      <path d="M 108 143.28 
L 331.2 143.28 
" clip-path="url(#p07d80e36d3)" style="fill: none; stroke: #b0b0b0; stroke-width: 0.8; stroke-linecap: square"/>
     </g>
     <g id="line2d_16">
      <g>
       <use xlink:href="#md00d15dfc3" x="108" y="143.28" style="stroke: #000000; stroke-width: 0.8"/>
      </g>
     </g>
     <g id="text_9">
      <!-- 0.85 -->
      <g transform="translate(78.734375 147.079219)scale(0.1 -0.1)">
       <use xlink:href="#DejaVuSans-30"/>
       <use xlink:href="#DejaVuSans-2e" x="63.623047"/>
       <use xlink:href="#DejaVuSans-38" x="95.410156"/>
       <use xlink:href="#DejaVuSans-35" x="159.033203"/>
      </g>
     </g>
    </g>
    <g id="ytick_5">
     <g id="line2d_17">
      <path d="M 108 107.04 
L 331.2 107.04 
" clip-path="url(#p07d80e36d3)" style="fill: none; stroke: #b0b0b0; stroke-width: 0.8; stroke-linecap: square"/>
     </g>
     <g id="line2d_18">
      <g>
       <use xlink:href="#md00d15dfc3" x="108" y="107.04" style="stroke: #000000; stroke-width: 0.8"/>
      </g>
     </g>
     <g id="text_10">
      <!-- 0.90 -->
      <g transform="translate(78.734375 110.839219)scale(0.1 -0.1)">
       <defs>
        <path id="DejaVuSans-39" d="M 703 97 
L 703 672 
Q 941 559 1184 500 
Q 1428 441 1663 441 
Q 2288 441 2617 861 
Q 2947 1281 2994 2138 
Q 2813 1869 2534 1725 
Q 2256 1581 1919 1581 
Q 1219 1581 811 2004 
Q 403 2428 403 3163 
Q 403 3881 828 4315 
Q 1253 4750 1959 4750 
Q 2769 4750 3195 4129 
Q 3622 3509 3622 2328 
Q 3622 1225 3098 567 
Q 2575 -91 1691 -91 
Q 1453 -91 1209 -44 
Q 966 3 703 97 
z
M 1959 2075 
Q 2384 2075 2632 2365 
Q 2881 2656 2881 3163 
Q 2881 3666 2632 3958 
Q 2384 4250 1959 4250 
Q 1534 4250 1286 3958 
Q 1038 3666 1038 3163 
Q 1038 2656 1286 2365 
Q 1534 2075 1959 2075 
z
" transform="scale(0.015625)"/>
       </defs>
       <use xlink:href="#DejaVuSans-30"/>
       <use xlink:href="#DejaVuSans-2e" x="63.623047"/>
       <use xlink:href="#DejaVuSans-39" x="95.410156"/>
       <use xlink:href="#DejaVuSans-30" x="159.033203"/>
      </g>
     </g>
    </g>
    <g id="ytick_6">
     <g id="line2d_19">
      <path d="M 108 70.8 
L 331.2 70.8 
" clip-path="url(#p07d80e36d3)" style="fill: none; stroke: #b0b0b0; stroke-width: 0.8; stroke-linecap: square"/>
     </g>
     <g id="line2d_20">
      <g>
       <use xlink:href="#md00d15dfc3" x="108" y="70.8" style="stroke: #000000; stroke-width: 0.8"/>
      </g>
     </g>
     <g id="text_11">
      <!-- 0.95 -->
      <g transform="translate(78.734375 74.599219)scale(0.1 -0.1)">
       <use xlink:href="#DejaVuSans-30"/>
       <use xlink:href="#DejaVuSans-2e" x="63.623047"/>
       <use xlink:href="#DejaVuSans-39" x="95.410156"/>
       <use xlink:href="#DejaVuSans-35" x="159.033203"/>
      </g>
     </g>
    </g>
    <g id="ytick_7">
     <g id="line2d_21">
      <path d="M 108 34.56 
L 331.2 34.56 
" clip-path="url(#p07d80e36d3)" style="fill: none; stroke: #b0b0b0; stroke-width: 0.8; stroke-linecap: square"/>
     </g>
     <g id="line2d_22">
      <g>
       <use xlink:href="#md00d15dfc3" x="108" y="34.56" style="stroke: #000000; stroke-width: 0.8"/>
      </g>
     </g>
     <g id="text_12">
      <!-- 1.00 -->
      <g transform="translate(78.734375 38.359219)scale(0.1 -0.1)">
       <use xlink:href="#DejaVuSans-31"/>
       <use xlink:href="#DejaVuSans-2e" x="63.623047"/>
       <use xlink:href="#DejaVuSans-30" x="95.410156"/>
       <use xlink:href="#DejaVuSans-30" x="159.033203"/>
      </g>
     </g>
    </g>
    <g id="text_13">
     <!-- Validation accuracy ($\bar{x} \pm s \div \sqrt{N}$) -->
     <g transform="translate(72.634375 223.83)rotate(-90)scale(0.1 -0.1)">
      <defs>
       <path id="DejaVuSans-56" d="M 1831 0 
L 50 4666 
L 709 4666 
L 2188 738 
L 3669 4666 
L 4325 4666 
L 2547 0 
L 1831 0 
z
" transform="scale(0.015625)"/>
       <path id="DejaVuSans-61" d="M 2194 1759 
Q 1497 1759 1228 1600 
Q 959 1441 959 1056 
Q 959 750 1161 570 
Q 1363 391 1709 391 
Q 2188 391 2477 730 
Q 2766 1069 2766 1631 
L 2766 1759 
L 2194 1759 
z
M 3341 1997 
L 3341 0 
L 2766 0 
L 2766 531 
Q 2569 213 2275 61 
Q 1981 -91 1556 -91 
Q 1019 -91 701 211 
Q 384 513 384 1019 
Q 384 1609 779 1909 
Q 1175 2209 1959 2209 
L 2766 2209 
L 2766 2266 
Q 2766 2663 2505 2880 
Q 2244 3097 1772 3097 
Q 1472 3097 1187 3025 
Q 903 2953 641 2809 
L 641 3341 
Q 956 3463 1253 3523 
Q 1550 3584 1831 3584 
Q 2591 3584 2966 3190 
Q 3341 2797 3341 1997 
z
" transform="scale(0.015625)"/>
       <path id="DejaVuSans-6c" d="M 603 4863 
L 1178 4863 
L 1178 0 
L 603 0 
L 603 4863 
z
" transform="scale(0.015625)"/>
       <path id="DejaVuSans-69" d="M 603 3500 
L 1178 3500 
L 1178 0 
L 603 0 
L 603 3500 
z
M 603 4863 
L 1178 4863 
L 1178 4134 
L 603 4134 
L 603 4863 
z
" transform="scale(0.015625)"/>
       <path id="DejaVuSans-64" d="M 2906 2969 
L 2906 4863 
L 3481 4863 
L 3481 0 
L 2906 0 
L 2906 525 
Q 2725 213 2448 61 
Q 2172 -91 1784 -91 
Q 1150 -91 751 415 
Q 353 922 353 1747 
Q 353 2572 751 3078 
Q 1150 3584 1784 3584 
Q 2172 3584 2448 3432 
Q 2725 3281 2906 2969 
z
M 947 1747 
Q 947 1113 1208 752 
Q 1469 391 1925 391 
Q 2381 391 2643 752 
Q 2906 1113 2906 1747 
Q 2906 2381 2643 2742 
Q 2381 3103 1925 3103 
Q 1469 3103 1208 2742 
Q 947 2381 947 1747 
z
" transform="scale(0.015625)"/>
       <path id="DejaVuSans-74" d="M 1172 4494 
L 1172 3500 
L 2356 3500 
L 2356 3053 
L 1172 3053 
L 1172 1153 
Q 1172 725 1289 603 
Q 1406 481 1766 481 
L 2356 481 
L 2356 0 
L 1766 0 
Q 1100 0 847 248 
Q 594 497 594 1153 
L 594 3053 
L 172 3053 
L 172 3500 
L 594 3500 
L 594 4494 
L 1172 4494 
z
" transform="scale(0.015625)"/>
       <path id="DejaVuSans-6e" d="M 3513 2113 
L 3513 0 
L 2938 0 
L 2938 2094 
Q 2938 2591 2744 2837 
Q 2550 3084 2163 3084 
Q 1697 3084 1428 2787 
Q 1159 2491 1159 1978 
L 1159 0 
L 581 0 
L 581 3500 
L 1159 3500 
L 1159 2956 
Q 1366 3272 1645 3428 
Q 1925 3584 2291 3584 
Q 2894 3584 3203 3211 
Q 3513 2838 3513 2113 
z
" transform="scale(0.015625)"/>
       <path id="DejaVuSans-75" d="M 544 1381 
L 544 3500 
L 1119 3500 
L 1119 1403 
Q 1119 906 1312 657 
Q 1506 409 1894 409 
Q 2359 409 2629 706 
Q 2900 1003 2900 1516 
L 2900 3500 
L 3475 3500 
L 3475 0 
L 2900 0 
L 2900 538 
Q 2691 219 2414 64 
Q 2138 -91 1772 -91 
Q 1169 -91 856 284 
Q 544 659 544 1381 
z
M 1991 3584 
L 1991 3584 
z
" transform="scale(0.015625)"/>
       <path id="DejaVuSans-72" d="M 2631 2963 
Q 2534 3019 2420 3045 
Q 2306 3072 2169 3072 
Q 1681 3072 1420 2755 
Q 1159 2438 1159 1844 
L 1159 0 
L 581 0 
L 581 3500 
L 1159 3500 
L 1159 2956 
Q 1341 3275 1631 3429 
Q 1922 3584 2338 3584 
Q 2397 3584 2469 3576 
Q 2541 3569 2628 3553 
L 2631 2963 
z
" transform="scale(0.015625)"/>
       <path id="DejaVuSans-304" d="M -2518 4769 
L -650 4769 
L -650 4306 
L -2518 4306 
L -2518 4769 
z
" transform="scale(0.015625)"/>
       <path id="DejaVuSans-Oblique-78" d="M 3841 3500 
L 2234 1784 
L 3219 0 
L 2559 0 
L 1819 1388 
L 531 0 
L -166 0 
L 1556 1844 
L 641 3500 
L 1300 3500 
L 1972 2234 
L 3144 3500 
L 3841 3500 
z
" transform="scale(0.015625)"/>
       <path id="DejaVuSans-b1" d="M 2944 4013 
L 2944 2803 
L 4684 2803 
L 4684 2272 
L 2944 2272 
L 2944 1063 
L 2419 1063 
L 2419 2272 
L 678 2272 
L 678 2803 
L 2419 2803 
L 2419 4013 
L 2944 4013 
z
M 678 531 
L 4684 531 
L 4684 0 
L 678 0 
L 678 531 
z
" transform="scale(0.015625)"/>
       <path id="DejaVuSans-Oblique-73" d="M 3200 3397 
L 3091 2853 
Q 2863 2978 2609 3040 
Q 2356 3103 2088 3103 
Q 1634 3103 1373 2948 
Q 1113 2794 1113 2528 
Q 1113 2219 1719 2053 
Q 1766 2041 1788 2034 
L 1972 1978 
Q 2547 1819 2739 1644 
Q 2931 1469 2931 1166 
Q 2931 609 2489 259 
Q 2047 -91 1331 -91 
Q 1053 -91 747 -37 
Q 441 16 72 128 
L 184 722 
Q 500 559 806 475 
Q 1113 391 1394 391 
Q 1816 391 2080 572 
Q 2344 753 2344 1031 
Q 2344 1331 1650 1516 
L 1591 1531 
L 1394 1581 
Q 956 1697 753 1886 
Q 550 2075 550 2369 
Q 550 2928 970 3256 
Q 1391 3584 2113 3584 
Q 2397 3584 2667 3537 
Q 2938 3491 3200 3397 
z
" transform="scale(0.015625)"/>
       <path id="DejaVuSans-f7" d="M 2297 3547 
L 3066 3547 
L 3066 2778 
L 2297 2778 
L 2297 3547 
z
M 2297 1234 
L 3066 1234 
L 3066 469 
L 2297 469 
L 2297 1234 
z
M 678 2272 
L 4684 2272 
L 4684 1741 
L 678 1741 
L 678 2272 
z
" transform="scale(0.015625)"/>
       <path id="STIXSizeOneSym-Regular-221a" d="M 6970 9933 
L 3373 -1888 
L 3104 -1888 
L 1626 2918 
Q 1555 3149 1465 3251 
Q 1376 3354 1229 3354 
Q 1011 3354 794 3181 
L 717 3309 
L 1766 4115 
L 1926 4115 
L 3379 -602 
L 3405 -602 
L 6605 9933 
L 6970 9933 
z
" transform="scale(0.015625)"/>
       <path id="DejaVuSans-Oblique-4e" d="M 1081 4666 
L 1931 4666 
L 3219 666 
L 4000 4666 
L 4616 4666 
L 3706 0 
L 2853 0 
L 1569 4025 
L 788 0 
L 172 0 
L 1081 4666 
z
" transform="scale(0.015625)"/>
      </defs>
      <use xlink:href="#DejaVuSans-56" transform="translate(0 0.578125)"/>
      <use xlink:href="#DejaVuSans-61" transform="translate(68.408203 0.578125)"/>
      <use xlink:href="#DejaVuSans-6c" transform="translate(129.6875 0.578125)"/>
      <use xlink:href="#DejaVuSans-69" transform="translate(157.470703 0.578125)"/>
      <use xlink:href="#DejaVuSans-64" transform="translate(185.253906 0.578125)"/>
      <use xlink:href="#DejaVuSans-61" transform="translate(248.730469 0.578125)"/>
      <use xlink:href="#DejaVuSans-74" transform="translate(310.009766 0.578125)"/>
      <use xlink:href="#DejaVuSans-69" transform="translate(349.21875 0.578125)"/>
      <use xlink:href="#DejaVuSans-6f" transform="translate(377.001953 0.578125)"/>
      <use xlink:href="#DejaVuSans-6e" transform="translate(438.183594 0.578125)"/>
      <use xlink:href="#DejaVuSans-20" transform="translate(501.5625 0.578125)"/>
      <use xlink:href="#DejaVuSans-61" transform="translate(533.349609 0.578125)"/>
      <use xlink:href="#DejaVuSans-63" transform="translate(594.628906 0.578125)"/>
      <use xlink:href="#DejaVuSans-63" transform="translate(649.609375 0.578125)"/>
      <use xlink:href="#DejaVuSans-75" transform="translate(704.589844 0.578125)"/>
      <use xlink:href="#DejaVuSans-72" transform="translate(767.96875 0.578125)"/>
      <use xlink:href="#DejaVuSans-61" transform="translate(809.082031 0.578125)"/>
      <use xlink:href="#DejaVuSans-63" transform="translate(870.361328 0.578125)"/>
      <use xlink:href="#DejaVuSans-79" transform="translate(925.341797 0.578125)"/>
      <use xlink:href="#DejaVuSans-20" transform="translate(984.521484 0.578125)"/>
      <use xlink:href="#DejaVuSans-28" transform="translate(1016.308594 0.578125)"/>
      <use xlink:href="#DejaVuSans-304" transform="translate(1117.460938 0.484375)"/>
      <use xlink:href="#DejaVuSans-Oblique-78" transform="translate(1055.322266 0.578125)"/>
      <use xlink:href="#DejaVuSans-b1" transform="translate(1133.984375 0.578125)"/>
      <use xlink:href="#DejaVuSans-Oblique-73" transform="translate(1237.255859 0.578125)"/>
      <use xlink:href="#DejaVuSans-f7" transform="translate(1308.837891 0.578125)"/>
      <use xlink:href="#STIXSizeOneSym-Regular-221a" transform="translate(1412.109375 17.09375)scale(0.563912)"/>
      <use xlink:href="#DejaVuSans-Oblique-4e" transform="translate(1484.197739 0.84375)"/>
      <use xlink:href="#DejaVuSans-29" transform="translate(1571.502426 0.578125)"/>
      <path d="M 1471.697739 97.5 
L 1471.697739 103.75 
L 1571.502426 103.75 
L 1571.502426 97.5 
L 1471.697739 97.5 
z
"/>
     </g>
    </g>
   </g>
   <g id="line2d_23">
    <path d="M 119.21608 158.078 
L 130.432161 129.388 
L 141.648241 133.012 
L 152.864322 126.67 
L 164.080402 124.405 
L 175.296482 121.083 
L 186.512563 107.04 
L 197.728643 107.644 
L 208.944724 106.285 
L 220.160804 102.057 
L 231.376884 104.322 
L 242.592965 105.53 
L 253.809045 105.681 
L 265.025126 102.51 
L 276.241206 102.359 
L 287.457286 102.661 
" clip-path="url(#p07d80e36d3)" style="fill: none; stroke: #1f77b4; stroke-width: 1.5; stroke-linecap: square"/>
   </g>
   <g id="line2d_24">
    <path d="M 119.21608 133.012 
L 130.432161 110.815 
L 141.648241 113.533 
L 152.864322 109.305 
L 164.080402 99.339 
L 175.296482 100.849 
L 186.512563 103.416 
L 197.728643 94.054 
L 208.944724 91.94 
L 220.160804 91.789 
L 231.376884 93.148 
L 242.592965 90.128 
L 253.809045 89.675 
L 265.025126 89.222 
" clip-path="url(#p07d80e36d3)" style="fill: none; stroke: #ff7f0e; stroke-width: 1.5; stroke-linecap: square"/>
   </g>
   <g id="line2d_25">
    <path d="M 119.21608 166.685 
L 130.432161 146.3 
L 141.648241 132.408 
L 152.864322 135.579 
L 164.080402 127.274 
L 175.296482 124.858 
L 186.512563 114.741 
L 197.728643 112.325 
L 208.944724 107.644 
L 220.160804 105.379 
L 231.376884 105.077 
L 242.592965 105.681 
L 253.809045 105.53 
L 265.025126 105.832 
L 276.241206 101.302 
L 287.457286 100.245 
L 298.673367 99.943 
L 309.889447 100.547 
L 321.105528 100.094 
" clip-path="url(#p07d80e36d3)" style="fill: none; stroke: #2ca02c; stroke-width: 1.5; stroke-linecap: square"/>
   </g>
   <g id="line2d_26">
    <path d="M 119.21608 130.747 
L 130.432161 124.254 
L 141.648241 107.191 
L 152.864322 101.906 
L 164.080402 110.513 
L 175.296482 109.909 
L 186.512563 102.51 
L 197.728643 95.413 
L 208.944724 95.564 
L 220.160804 94.809 
L 231.376884 94.205 
L 242.592965 93.903 
L 253.809045 94.054 
" clip-path="url(#p07d80e36d3)" style="fill: none; stroke: #d62728; stroke-width: 1.5; stroke-linecap: square"/>
   </g>
   <g id="line2d_27">
    <path d="M 119.21608 180.124 
L 130.432161 152.189 
L 141.648241 145.998 
L 152.864322 137.844 
L 164.080402 131.653 
L 175.296482 129.69 
L 186.512563 127.576 
L 197.728643 114.741 
L 208.944724 117.761 
L 220.160804 112.476 
L 231.376884 106.134 
L 242.592965 109.758 
L 253.809045 104.473 
L 265.025126 103.114 
L 276.241206 104.322 
L 287.457286 104.322 
L 298.673367 102.661 
L 309.889447 104.02 
L 321.105528 101.906 
" clip-path="url(#p07d80e36d3)" style="fill: none; stroke-dasharray: 5.55,2.4; stroke-dashoffset: 0; stroke: #9467bd; stroke-width: 1.5"/>
   </g>
   <g id="line2d_28">
    <path d="M 119.21608 143.129 
L 130.432161 130.596 
L 141.648241 123.348 
L 152.864322 113.231 
L 164.080402 110.664 
L 175.296482 111.268 
L 186.512563 108.55 
L 197.728643 105.681 
L 208.944724 101.755 
L 220.160804 101.906 
L 231.376884 97.074 
L 242.592965 96.923 
L 253.809045 99.037 
L 265.025126 97.829 
L 276.241206 96.621 
L 287.457286 95.866 
L 298.673367 96.168 
L 309.889447 96.47 
" clip-path="url(#p07d80e36d3)" style="fill: none; stroke-dasharray: 5.55,2.4; stroke-dashoffset: 0; stroke: #8c564b; stroke-width: 1.5"/>
   </g>
   <g id="line2d_29">
    <path d="M 119.21608 129.841 
L 130.432161 111.872 
L 141.648241 105.379 
L 152.864322 106.738 
L 164.080402 105.832 
L 175.296482 104.624 
L 186.512563 97.829 
L 197.728643 95.262 
L 208.944724 99.339 
L 220.160804 100.094 
L 231.376884 98.433 
L 242.592965 97.376 
L 253.809045 99.792 
" clip-path="url(#p07d80e36d3)" style="fill: none; stroke-dasharray: 5.55,2.4; stroke-dashoffset: 0; stroke: #e377c2; stroke-width: 1.5"/>
   </g>
   <g id="line2d_30">
    <path d="M 119.21608 134.371 
L 130.432161 114.892 
L 141.648241 103.567 
L 152.864322 102.661 
L 164.080402 98.433 
L 175.296482 99.037 
L 186.512563 94.205 
L 197.728643 90.581 
L 208.944724 92.242 
L 220.160804 91.336 
L 231.376884 90.581 
L 242.592965 90.128 
L 253.809045 90.128 
" clip-path="url(#p07d80e36d3)" style="fill: none; stroke-dasharray: 5.55,2.4; stroke-dashoffset: 0; stroke: #7f7f7f; stroke-width: 1.5"/>
   </g>
   <g id="patch_3">
    <path d="M 108 252 
L 108 34.56 
" style="fill: none; stroke: #000000; stroke-width: 0.8; stroke-linejoin: miter; stroke-linecap: square"/>
   </g>
   <g id="patch_4">
    <path d="M 331.2 252 
L 331.2 34.56 
" style="fill: none; stroke: #000000; stroke-width: 0.8; stroke-linejoin: miter; stroke-linecap: square"/>
   </g>
   <g id="patch_5">
    <path d="M 108 252 
L 331.2 252 
" style="fill: none; stroke: #000000; stroke-width: 0.8; stroke-linejoin: miter; stroke-linecap: square"/>
   </g>
   <g id="patch_6">
    <path d="M 108 34.56 
L 331.2 34.56 
" style="fill: none; stroke: #000000; stroke-width: 0.8; stroke-linejoin: miter; stroke-linecap: square"/>
   </g>
  </g>
  <g id="axes_2">
   <g id="patch_7">
    <path d="M 331.2 252 
L 554.4 252 
L 554.4 34.56 
L 331.2 34.56 
z
" style="fill: #ffffff"/>
   </g>
   <g id="PolyCollection_9">
    <path d="M 339.390826 180.463295 
L 339.390826 184.911718 
L 347.581651 171.200077 
L 355.772477 157.593396 
L 363.963303 156.667876 
L 372.154128 151.493093 
L 380.344954 155.182958 
L 388.53578 146.175368 
L 396.726606 146.148527 
L 404.917431 146.040391 
L 413.108257 143.52706 
L 421.299083 139.906179 
L 429.489908 131.136733 
L 437.680734 130.404714 
L 445.87156 130.3279 
L 454.062385 129.48878 
L 462.253211 129.48878 
L 462.253211 121.483354 
L 462.253211 121.483354 
L 454.062385 121.483354 
L 445.87156 123.625417 
L 437.680734 123.548602 
L 429.489908 122.816583 
L 421.299083 125.59922 
L 413.108257 130.176591 
L 404.917431 134.743568 
L 396.726606 141.715741 
L 388.53578 139.080365 
L 380.344954 141.252209 
L 372.154128 142.706187 
L 363.963303 151.319374 
L 355.772477 144.431488 
L 347.581651 163.617815 
L 339.390826 180.463295 
z
" clip-path="url(#p4200c4eeb1)" style="fill: #1f77b4; fill-opacity: 0.2"/>
   </g>
   <g id="PolyCollection_10">
    <path d="M 339.390826 152.112969 
L 339.390826 158.110168 
L 347.581651 148.068078 
L 355.772477 132.301808 
L 363.963303 125.092587 
L 372.154128 124.566047 
L 380.344954 120.552061 
L 388.53578 120.169438 
L 396.726606 132.044373 
L 404.917431 124.495362 
L 413.108257 124.985096 
L 421.299083 116.241239 
L 429.489908 112.030079 
L 437.680734 111.921007 
L 445.87156 115.072588 
L 454.062385 115.493013 
L 462.253211 109.592697 
L 470.444037 109.107413 
L 478.634862 108.732389 
L 486.825688 108.71303 
L 495.016514 108.314407 
L 503.207339 107.996872 
L 511.398165 107.70435 
L 519.588991 108.439454 
L 519.588991 104.149955 
L 519.588991 104.149955 
L 511.398165 104.139763 
L 503.207339 103.847241 
L 495.016514 104.275001 
L 486.825688 104.249027 
L 478.634862 104.229668 
L 470.444037 104.227291 
L 462.253211 103.742007 
L 454.062385 106.039943 
L 445.87156 104.969777 
L 437.680734 104.767528 
L 429.489908 106.521694 
L 421.299083 107.900252 
L 413.108257 109.963182 
L 404.917431 110.452916 
L 396.726606 115.57393 
L 388.53578 110.679714 
L 380.344954 118.122695 
L 372.154128 121.561665 
L 363.963303 121.780421 
L 355.772477 122.396804 
L 347.581651 137.187655 
L 339.390826 152.112969 
z
" clip-path="url(#p4200c4eeb1)" style="fill: #ff7f0e; fill-opacity: 0.2"/>
   </g>
   <g id="PolyCollection_11">
    <path d="M 339.390826 217.766839 
L 339.390826 231.82658 
L 347.581651 181.236998 
L 355.772477 174.392314 
L 363.963303 163.8778 
L 372.154128 157.979119 
L 380.344954 156.440996 
L 388.53578 161.992952 
L 396.726606 158.193529 
L 404.917431 152.78481 
L 413.108257 141.879829 
L 421.299083 139.029639 
L 429.489908 142.554173 
L 437.680734 140.091907 
L 445.87156 138.638612 
L 454.062385 138.833973 
L 462.253211 138.538041 
L 470.444037 138.411376 
L 478.634862 138.411376 
L 486.825688 138.208796 
L 486.825688 132.88632 
L 486.825688 132.88632 
L 478.634862 133.056387 
L 470.444037 133.056387 
L 462.253211 132.929722 
L 454.062385 133.751734 
L 445.87156 133.947095 
L 437.680734 135.474982 
L 429.489908 136.739195 
L 421.299083 132.810773 
L 413.108257 135.550299 
L 404.917431 141.414471 
L 396.726606 147.930481 
L 388.53578 148.230185 
L 380.344954 147.447127 
L 372.154128 147.399596 
L 363.963303 152.307701 
L 355.772477 167.505887 
L 347.581651 175.567115 
L 339.390826 217.766839 
z
" clip-path="url(#p4200c4eeb1)" style="fill: #2ca02c; fill-opacity: 0.2"/>
   </g>
   <g id="PolyCollection_12">
    <path d="M 339.390826 160.874368 
L 339.390826 163.509386 
L 347.581651 149.926136 
L 355.772477 140.777542 
L 363.963303 140.981223 
L 372.154128 127.762791 
L 380.344954 132.581849 
L 388.53578 137.837288 
L 396.726606 136.166325 
L 404.917431 127.389314 
L 413.108257 129.62814 
L 421.299083 128.641294 
L 429.489908 131.918326 
L 437.680734 120.832199 
L 445.87156 121.023586 
L 454.062385 120.177698 
L 462.253211 120.817196 
L 470.444037 120.565193 
L 478.634862 121.218467 
L 478.634862 116.338345 
L 478.634862 116.338345 
L 470.444037 115.873676 
L 462.253211 115.994321 
L 454.062385 115.515875 
L 445.87156 117.278522 
L 437.680734 116.724613 
L 429.489908 121.289694 
L 421.299083 121.585544 
L 413.108257 119.480755 
L 404.917431 116.502511 
L 396.726606 124.494652 
L 388.53578 126.177519 
L 380.344954 128.079128 
L 372.154128 121.346103 
L 363.963303 132.349779 
L 355.772477 134.044052 
L 347.581651 141.664609 
L 339.390826 160.874368 
z
" clip-path="url(#p4200c4eeb1)" style="fill: #d62728; fill-opacity: 0.2"/>
   </g>
   <g id="PolyCollection_13">
    <path d="M 339.390826 230.681884 
L 339.390826 244.251587 
L 347.581651 196.113163 
L 355.772477 201.611174 
L 363.963303 191.0664 
L 372.154128 183.099929 
L 380.344954 171.133306 
L 388.53578 161.82853 
L 396.726606 158.82694 
L 404.917431 158.787464 
L 413.108257 163.176092 
L 421.299083 153.046447 
L 429.489908 149.727542 
L 437.680734 170.322321 
L 445.87156 152.752954 
L 454.062385 145.960025 
L 462.253211 138.653492 
L 470.444037 139.668338 
L 478.634862 134.530796 
L 486.825688 139.114578 
L 495.016514 133.517007 
L 503.207339 133.504644 
L 511.398165 133.060483 
L 519.588991 130.975961 
L 527.779817 131.049466 
L 535.970642 131.132241 
L 544.161468 131.25044 
L 544.161468 125.311411 
L 544.161468 125.311411 
L 535.970642 124.311666 
L 527.779817 125.139737 
L 519.588991 124.467947 
L 511.398165 125.364607 
L 503.207339 125.665742 
L 495.016514 125.280731 
L 486.825688 131.980538 
L 478.634862 129.111364 
L 470.444037 134.035313 
L 462.253211 135.050159 
L 454.062385 135.56923 
L 445.87156 143.682213 
L 437.680734 143.254645 
L 429.489908 140.74526 
L 421.299083 145.251959 
L 413.108257 154.872649 
L 404.917431 149.572433 
L 396.726606 151.023549 
L 388.53578 156.220211 
L 380.344954 162.93929 
L 372.154128 172.58624 
L 363.963303 175.799205 
L 355.772477 187.613299 
L 347.581651 189.384832 
L 339.390826 230.681884 
z
" clip-path="url(#p4200c4eeb1)" style="fill: #9467bd; fill-opacity: 0.2"/>
   </g>
   <g id="PolyCollection_14">
    <path d="M 339.390826 179.923789 
L 339.390826 191.040942 
L 347.581651 168.508558 
L 355.772477 155.952316 
L 363.963303 145.850439 
L 372.154128 146.840545 
L 380.344954 140.285617 
L 388.53578 133.720665 
L 396.726606 142.992039 
L 404.917431 126.921233 
L 413.108257 129.559264 
L 421.299083 124.63142 
L 429.489908 123.384908 
L 437.680734 123.290992 
L 445.87156 120.493917 
L 454.062385 121.672394 
L 462.253211 119.053654 
L 470.444037 120.674357 
L 478.634862 120.333081 
L 486.825688 117.749846 
L 495.016514 120.40843 
L 503.207339 118.495141 
L 503.207339 111.608715 
L 503.207339 111.608715 
L 495.016514 113.421904 
L 486.825688 110.863419 
L 478.634862 113.497253 
L 470.444037 114.273921 
L 462.253211 112.913441 
L 454.062385 114.393827 
L 445.87156 113.709065 
L 437.680734 113.893172 
L 429.489908 116.035144 
L 421.299083 115.533927 
L 413.108257 116.1958 
L 404.917431 118.833831 
L 396.726606 130.711611 
L 388.53578 128.430903 
L 380.344954 130.436851 
L 372.154128 136.1793 
L 363.963303 137.914703 
L 355.772477 144.581977 
L 347.581651 158.111083 
L 339.390826 179.923789 
z
" clip-path="url(#p4200c4eeb1)" style="fill: #8c564b; fill-opacity: 0.2"/>
   </g>
   <g id="PolyCollection_15">
    <path d="M 339.390826 187.636529 
L 339.390826 197.488818 
L 347.581651 159.34823 
L 355.772477 141.410677 
L 363.963303 135.478383 
L 372.154128 131.703716 
L 380.344954 136.206741 
L 388.53578 134.866588 
L 396.726606 134.271156 
L 404.917431 129.438255 
L 413.108257 126.904832 
L 421.299083 126.512573 
L 429.489908 127.916999 
L 437.680734 127.287475 
L 445.87156 127.647625 
L 454.062385 127.666102 
L 454.062385 119.952202 
L 454.062385 119.952202 
L 445.87156 120.715974 
L 437.680734 120.330828 
L 429.489908 121.937191 
L 421.299083 121.478378 
L 413.108257 119.968176 
L 404.917431 121.906527 
L 396.726606 124.89923 
L 388.53578 126.167037 
L 380.344954 130.043953 
L 372.154128 126.348726 
L 363.963303 130.027015 
L 355.772477 137.137395 
L 347.581651 150.502258 
L 339.390826 187.636529 
z
" clip-path="url(#p4200c4eeb1)" style="fill: #e377c2; fill-opacity: 0.2"/>
   </g>
   <g id="PolyCollection_16">
    <path d="M 339.390826 166.688664 
L 339.390826 177.072775 
L 347.581651 144.605068 
L 355.772477 131.018697 
L 363.963303 123.966267 
L 372.154128 125.304399 
L 380.344954 122.919662 
L 388.53578 123.495198 
L 396.726606 118.358942 
L 404.917431 118.223159 
L 413.108257 112.055188 
L 421.299083 112.355908 
L 429.489908 111.948505 
L 437.680734 111.858443 
L 445.87156 110.671452 
L 454.062385 110.874058 
L 454.062385 105.441829 
L 454.062385 105.441829 
L 445.87156 106.017082 
L 437.680734 105.20274 
L 429.489908 105.112677 
L 421.299083 104.705275 
L 413.108257 104.260699 
L 404.917431 108.899514 
L 396.726606 109.136379 
L 388.53578 112.198375 
L 380.344954 114.63715 
L 372.154128 114.115652 
L 363.963303 115.081137 
L 355.772477 122.561972 
L 347.581651 139.160073 
L 339.390826 166.688664 
z
" clip-path="url(#p4200c4eeb1)" style="fill: #7f7f7f; fill-opacity: 0.2"/>
   </g>
   <g id="matplotlib.axis_3">
    <g id="xtick_5">
     <g id="line2d_31">
      <path d="M 331.2 252 
L 331.2 34.56 
" clip-path="url(#p4200c4eeb1)" style="fill: none; stroke: #b0b0b0; stroke-width: 0.8; stroke-linecap: square"/>
     </g>
     <g id="line2d_32">
      <g>
       <use xlink:href="#m73679ac11f" x="331.2" y="252" style="stroke: #000000; stroke-width: 0.8"/>
      </g>
     </g>
     <g id="text_14">
      <!-- 0 -->
      <g transform="translate(328.01875 266.598437)scale(0.1 -0.1)">
       <use xlink:href="#DejaVuSans-30"/>
      </g>
     </g>
    </g>
    <g id="xtick_6">
     <g id="line2d_33">
      <path d="M 372.154128 252 
L 372.154128 34.56 
" clip-path="url(#p4200c4eeb1)" style="fill: none; stroke: #b0b0b0; stroke-width: 0.8; stroke-linecap: square"/>
     </g>
     <g id="line2d_34">
      <g>
       <use xlink:href="#m73679ac11f" x="372.154128" y="252" style="stroke: #000000; stroke-width: 0.8"/>
      </g>
     </g>
     <g id="text_15">
      <!-- 5 -->
      <g transform="translate(368.972878 266.598437)scale(0.1 -0.1)">
       <use xlink:href="#DejaVuSans-35"/>
      </g>
     </g>
    </g>
    <g id="xtick_7">
     <g id="line2d_35">
      <path d="M 413.108257 252 
L 413.108257 34.56 
" clip-path="url(#p4200c4eeb1)" style="fill: none; stroke: #b0b0b0; stroke-width: 0.8; stroke-linecap: square"/>
     </g>
     <g id="line2d_36">
      <g>
       <use xlink:href="#m73679ac11f" x="413.108257" y="252" style="stroke: #000000; stroke-width: 0.8"/>
      </g>
     </g>
     <g id="text_16">
      <!-- 10 -->
      <g transform="translate(406.745757 266.598437)scale(0.1 -0.1)">
       <use xlink:href="#DejaVuSans-31"/>
       <use xlink:href="#DejaVuSans-30" x="63.623047"/>
      </g>
     </g>
    </g>
    <g id="xtick_8">
     <g id="line2d_37">
      <path d="M 454.062385 252 
L 454.062385 34.56 
" clip-path="url(#p4200c4eeb1)" style="fill: none; stroke: #b0b0b0; stroke-width: 0.8; stroke-linecap: square"/>
     </g>
     <g id="line2d_38">
      <g>
       <use xlink:href="#m73679ac11f" x="454.062385" y="252" style="stroke: #000000; stroke-width: 0.8"/>
      </g>
     </g>
     <g id="text_17">
      <!-- 15 -->
      <g transform="translate(447.699885 266.598437)scale(0.1 -0.1)">
       <use xlink:href="#DejaVuSans-31"/>
       <use xlink:href="#DejaVuSans-35" x="63.623047"/>
      </g>
     </g>
    </g>
    <g id="xtick_9">
     <g id="line2d_39">
      <path d="M 495.016514 252 
L 495.016514 34.56 
" clip-path="url(#p4200c4eeb1)" style="fill: none; stroke: #b0b0b0; stroke-width: 0.8; stroke-linecap: square"/>
     </g>
     <g id="line2d_40">
      <g>
       <use xlink:href="#m73679ac11f" x="495.016514" y="252" style="stroke: #000000; stroke-width: 0.8"/>
      </g>
     </g>
     <g id="text_18">
      <!-- 20 -->
      <g transform="translate(488.654014 266.598437)scale(0.1 -0.1)">
       <defs>
        <path id="DejaVuSans-32" d="M 1228 531 
L 3431 531 
L 3431 0 
L 469 0 
L 469 531 
Q 828 903 1448 1529 
Q 2069 2156 2228 2338 
Q 2531 2678 2651 2914 
Q 2772 3150 2772 3378 
Q 2772 3750 2511 3984 
Q 2250 4219 1831 4219 
Q 1534 4219 1204 4116 
Q 875 4013 500 3803 
L 500 4441 
Q 881 4594 1212 4672 
Q 1544 4750 1819 4750 
Q 2544 4750 2975 4387 
Q 3406 4025 3406 3419 
Q 3406 3131 3298 2873 
Q 3191 2616 2906 2266 
Q 2828 2175 2409 1742 
Q 1991 1309 1228 531 
z
" transform="scale(0.015625)"/>
       </defs>
       <use xlink:href="#DejaVuSans-32"/>
       <use xlink:href="#DejaVuSans-30" x="63.623047"/>
      </g>
     </g>
    </g>
    <g id="xtick_10">
     <g id="line2d_41">
      <path d="M 535.970642 252 
L 535.970642 34.56 
" clip-path="url(#p4200c4eeb1)" style="fill: none; stroke: #b0b0b0; stroke-width: 0.8; stroke-linecap: square"/>
     </g>
     <g id="line2d_42">
      <g>
       <use xlink:href="#m73679ac11f" x="535.970642" y="252" style="stroke: #000000; stroke-width: 0.8"/>
      </g>
     </g>
     <g id="text_19">
      <!-- 25 -->
      <g transform="translate(529.608142 266.598437)scale(0.1 -0.1)">
       <use xlink:href="#DejaVuSans-32"/>
       <use xlink:href="#DejaVuSans-35" x="63.623047"/>
      </g>
     </g>
    </g>
    <g id="text_20">
     <!-- Material (epochs) -->
     <g transform="translate(399.164063 280.276563)scale(0.1 -0.1)">
      <defs>
       <path id="DejaVuSans-4d" d="M 628 4666 
L 1569 4666 
L 2759 1491 
L 3956 4666 
L 4897 4666 
L 4897 0 
L 4281 0 
L 4281 4097 
L 3078 897 
L 2444 897 
L 1241 4097 
L 1241 0 
L 628 0 
L 628 4666 
z
" transform="scale(0.015625)"/>
      </defs>
      <use xlink:href="#DejaVuSans-4d"/>
      <use xlink:href="#DejaVuSans-61" x="86.279297"/>
      <use xlink:href="#DejaVuSans-74" x="147.558594"/>
      <use xlink:href="#DejaVuSans-65" x="186.767578"/>
      <use xlink:href="#DejaVuSans-72" x="248.291016"/>
      <use xlink:href="#DejaVuSans-69" x="289.404297"/>
      <use xlink:href="#DejaVuSans-61" x="317.1875"/>
      <use xlink:href="#DejaVuSans-6c" x="378.466797"/>
      <use xlink:href="#DejaVuSans-20" x="406.25"/>
      <use xlink:href="#DejaVuSans-28" x="438.037109"/>
      <use xlink:href="#DejaVuSans-65" x="477.050781"/>
      <use xlink:href="#DejaVuSans-70" x="538.574219"/>
      <use xlink:href="#DejaVuSans-6f" x="602.050781"/>
      <use xlink:href="#DejaVuSans-63" x="663.232422"/>
      <use xlink:href="#DejaVuSans-68" x="718.212891"/>
      <use xlink:href="#DejaVuSans-73" x="781.591797"/>
      <use xlink:href="#DejaVuSans-29" x="833.691406"/>
     </g>
    </g>
   </g>
   <g id="matplotlib.axis_4">
    <g id="ytick_8">
     <g id="line2d_43">
      <path d="M 331.2 252 
L 554.4 252 
" clip-path="url(#p4200c4eeb1)" style="fill: none; stroke: #b0b0b0; stroke-width: 0.8; stroke-linecap: square"/>
     </g>
     <g id="line2d_44">
      <g>
       <use xlink:href="#md00d15dfc3" x="331.2" y="252" style="stroke: #000000; stroke-width: 0.8"/>
      </g>
     </g>
    </g>
    <g id="ytick_9">
     <g id="line2d_45">
      <path d="M 331.2 215.76 
L 554.4 215.76 
" clip-path="url(#p4200c4eeb1)" style="fill: none; stroke: #b0b0b0; stroke-width: 0.8; stroke-linecap: square"/>
     </g>
     <g id="line2d_46">
      <g>
       <use xlink:href="#md00d15dfc3" x="331.2" y="215.76" style="stroke: #000000; stroke-width: 0.8"/>
      </g>
     </g>
    </g>
    <g id="ytick_10">
     <g id="line2d_47">
      <path d="M 331.2 179.52 
L 554.4 179.52 
" clip-path="url(#p4200c4eeb1)" style="fill: none; stroke: #b0b0b0; stroke-width: 0.8; stroke-linecap: square"/>
     </g>
     <g id="line2d_48">
      <g>
       <use xlink:href="#md00d15dfc3" x="331.2" y="179.52" style="stroke: #000000; stroke-width: 0.8"/>
      </g>
     </g>
    </g>
    <g id="ytick_11">
     <g id="line2d_49">
      <path d="M 331.2 143.28 
L 554.4 143.28 
" clip-path="url(#p4200c4eeb1)" style="fill: none; stroke: #b0b0b0; stroke-width: 0.8; stroke-linecap: square"/>
     </g>
     <g id="line2d_50">
      <g>
       <use xlink:href="#md00d15dfc3" x="331.2" y="143.28" style="stroke: #000000; stroke-width: 0.8"/>
      </g>
     </g>
    </g>
    <g id="ytick_12">
     <g id="line2d_51">
      <path d="M 331.2 107.04 
L 554.4 107.04 
" clip-path="url(#p4200c4eeb1)" style="fill: none; stroke: #b0b0b0; stroke-width: 0.8; stroke-linecap: square"/>
     </g>
     <g id="line2d_52">
      <g>
       <use xlink:href="#md00d15dfc3" x="331.2" y="107.04" style="stroke: #000000; stroke-width: 0.8"/>
      </g>
     </g>
    </g>
    <g id="ytick_13">
     <g id="line2d_53">
      <path d="M 331.2 70.8 
L 554.4 70.8 
" clip-path="url(#p4200c4eeb1)" style="fill: none; stroke: #b0b0b0; stroke-width: 0.8; stroke-linecap: square"/>
     </g>
     <g id="line2d_54">
      <g>
       <use xlink:href="#md00d15dfc3" x="331.2" y="70.8" style="stroke: #000000; stroke-width: 0.8"/>
      </g>
     </g>
    </g>
    <g id="ytick_14">
     <g id="line2d_55">
      <path d="M 331.2 34.56 
L 554.4 34.56 
" clip-path="url(#p4200c4eeb1)" style="fill: none; stroke: #b0b0b0; stroke-width: 0.8; stroke-linecap: square"/>
     </g>
     <g id="line2d_56">
      <g>
       <use xlink:href="#md00d15dfc3" x="331.2" y="34.56" style="stroke: #000000; stroke-width: 0.8"/>
      </g>
     </g>
    </g>
   </g>
   <g id="line2d_57">
    <path d="M 339.390826 182.687506 
L 347.581651 167.408946 
L 355.772477 151.012442 
L 363.963303 153.993625 
L 372.154128 147.09964 
L 380.344954 148.217584 
L 388.53578 142.627866 
L 396.726606 143.932134 
L 404.917431 140.391979 
L 413.108257 136.851825 
L 421.299083 132.752699 
L 429.489908 126.976658 
L 437.680734 126.976658 
L 445.87156 126.976658 
L 454.062385 125.486067 
L 462.253211 125.486067 
" clip-path="url(#p4200c4eeb1)" style="fill: none; stroke: #1f77b4; stroke-width: 1.5; stroke-linecap: square"/>
   </g>
   <g id="line2d_58">
    <path d="M 339.390826 155.111568 
L 347.581651 142.627866 
L 355.772477 127.349306 
L 363.963303 123.436504 
L 372.154128 123.063856 
L 380.344954 119.337378 
L 388.53578 115.424576 
L 396.726606 123.809152 
L 404.917431 117.474139 
L 413.108257 117.474139 
L 421.299083 112.070746 
L 429.489908 109.275887 
L 437.680734 108.344267 
L 445.87156 110.021183 
L 454.062385 110.766478 
L 462.253211 106.667352 
L 470.444037 106.667352 
L 478.634862 106.481028 
L 486.825688 106.481028 
L 495.016514 106.294704 
L 503.207339 105.922057 
L 511.398165 105.922057 
L 519.588991 106.294704 
" clip-path="url(#p4200c4eeb1)" style="fill: none; stroke: #ff7f0e; stroke-width: 1.5; stroke-linecap: square"/>
   </g>
   <g id="line2d_59">
    <path d="M 339.390826 224.79671 
L 347.581651 178.402057 
L 355.772477 170.9491 
L 363.963303 158.092751 
L 372.154128 152.689357 
L 380.344954 151.944062 
L 388.53578 155.111568 
L 396.726606 153.062005 
L 404.917431 147.09964 
L 413.108257 138.715064 
L 421.299083 135.920206 
L 429.489908 139.646684 
L 437.680734 137.783445 
L 445.87156 136.292853 
L 454.062385 136.292853 
L 462.253211 135.733882 
L 470.444037 135.733882 
L 478.634862 135.733882 
L 486.825688 135.547558 
" clip-path="url(#p4200c4eeb1)" style="fill: none; stroke: #2ca02c; stroke-width: 1.5; stroke-linecap: square"/>
   </g>
   <g id="line2d_60">
    <path d="M 339.390826 162.191877 
L 347.581651 145.795373 
L 355.772477 137.410797 
L 363.963303 136.665501 
L 372.154128 124.554447 
L 380.344954 130.330488 
L 388.53578 132.007404 
L 396.726606 130.330488 
L 404.917431 121.945913 
L 413.108257 124.554447 
L 421.299083 125.113419 
L 429.489908 126.60401 
L 437.680734 118.778406 
L 445.87156 119.151054 
L 454.062385 117.846787 
L 462.253211 118.405758 
L 470.444037 118.219434 
L 478.634862 118.778406 
" clip-path="url(#p4200c4eeb1)" style="fill: none; stroke: #d62728; stroke-width: 1.5; stroke-linecap: square"/>
   </g>
   <g id="line2d_61">
    <path d="M 339.390826 237.466735 
L 347.581651 192.748997 
L 355.772477 194.612237 
L 363.963303 183.432802 
L 372.154128 177.843085 
L 380.344954 167.036298 
L 388.53578 159.02437 
L 396.726606 154.925244 
L 404.917431 154.179949 
L 413.108257 159.02437 
L 421.299083 149.149203 
L 429.489908 145.236401 
L 437.680734 156.788483 
L 445.87156 148.217584 
L 454.062385 140.764627 
L 462.253211 136.851825 
L 470.444037 136.851825 
L 478.634862 131.82108 
L 486.825688 135.547558 
L 495.016514 129.398869 
L 503.207339 129.585193 
L 511.398165 129.212545 
L 519.588991 127.721954 
L 527.779817 128.094602 
L 535.970642 127.721954 
L 544.161468 128.280925 
" clip-path="url(#p4200c4eeb1)" style="fill: none; stroke-dasharray: 5.55,2.4; stroke-dashoffset: 0; stroke: #9467bd; stroke-width: 1.5"/>
   </g>
   <g id="line2d_62">
    <path d="M 339.390826 185.482365 
L 347.581651 163.30982 
L 355.772477 150.267147 
L 363.963303 141.882571 
L 372.154128 141.509923 
L 380.344954 135.361234 
L 388.53578 131.075784 
L 396.726606 136.851825 
L 404.917431 122.877532 
L 413.108257 122.877532 
L 421.299083 120.082674 
L 429.489908 119.710026 
L 437.680734 118.592082 
L 445.87156 117.101491 
L 454.062385 118.033111 
L 462.253211 115.983548 
L 470.444037 117.474139 
L 478.634862 116.915167 
L 486.825688 114.306632 
L 495.016514 116.915167 
L 503.207339 115.051928 
" clip-path="url(#p4200c4eeb1)" style="fill: none; stroke-dasharray: 5.55,2.4; stroke-dashoffset: 0; stroke: #8c564b; stroke-width: 1.5"/>
   </g>
   <g id="line2d_63">
    <path d="M 339.390826 192.562674 
L 347.581651 154.925244 
L 355.772477 139.274036 
L 363.963303 132.752699 
L 372.154128 129.026221 
L 380.344954 133.125347 
L 388.53578 130.516812 
L 396.726606 129.585193 
L 404.917431 125.672391 
L 413.108257 123.436504 
L 421.299083 123.995476 
L 429.489908 124.927095 
L 437.680734 123.809152 
L 445.87156 124.181799 
L 454.062385 123.809152 
" clip-path="url(#p4200c4eeb1)" style="fill: none; stroke-dasharray: 5.55,2.4; stroke-dashoffset: 0; stroke: #e377c2; stroke-width: 1.5"/>
   </g>
   <g id="line2d_64">
    <path d="M 339.390826 171.88072 
L 347.581651 141.882571 
L 355.772477 126.790334 
L 363.963303 119.523702 
L 372.154128 119.710026 
L 380.344954 118.778406 
L 388.53578 117.846787 
L 396.726606 113.747661 
L 404.917431 113.561337 
L 413.108257 108.157943 
L 421.299083 108.530591 
L 429.489908 108.530591 
L 437.680734 108.530591 
L 445.87156 108.344267 
L 454.062385 108.157943 
" clip-path="url(#p4200c4eeb1)" style="fill: none; stroke-dasharray: 5.55,2.4; stroke-dashoffset: 0; stroke: #7f7f7f; stroke-width: 1.5"/>
   </g>
   <g id="patch_8">
    <path d="M 331.2 252 
L 331.2 34.56 
" style="fill: none; stroke: #000000; stroke-width: 0.8; stroke-linejoin: miter; stroke-linecap: square"/>
   </g>
   <g id="patch_9">
    <path d="M 554.4 252 
L 554.4 34.56 
" style="fill: none; stroke: #000000; stroke-width: 0.8; stroke-linejoin: miter; stroke-linecap: square"/>
   </g>
   <g id="patch_10">
    <path d="M 331.2 252 
L 554.4 252 
" style="fill: none; stroke: #000000; stroke-width: 0.8; stroke-linejoin: miter; stroke-linecap: square"/>
   </g>
   <g id="patch_11">
    <path d="M 331.2 34.56 
L 554.4 34.56 
" style="fill: none; stroke: #000000; stroke-width: 0.8; stroke-linejoin: miter; stroke-linecap: square"/>
   </g>
  </g>
  <g id="axes_3">
   <g id="patch_12">
    <path d="M 554.4 252 
L 777.6 252 
L 777.6 34.56 
L 554.4 34.56 
z
" style="fill: #ffffff"/>
   </g>
   <g id="PolyCollection_17">
    <path d="M 562.286926 169.965463 
L 562.286926 185.506291 
L 570.173852 149.347862 
L 578.060777 142.117828 
L 585.947703 129.118523 
L 593.834629 118.529575 
L 601.721555 125.529245 
L 609.608481 121.666053 
L 617.495406 124.456269 
L 625.382332 109.153754 
L 633.269258 104.537313 
L 641.156184 104.487131 
L 649.04311 103.943703 
L 656.930035 104.225224 
L 664.816961 104.360534 
L 672.703887 104.553891 
L 680.590813 104.502196 
L 688.477739 102.885247 
L 688.477739 96.475737 
L 688.477739 96.475737 
L 680.590813 97.534973 
L 672.703887 97.037247 
L 664.816961 96.784573 
L 656.930035 97.365915 
L 649.04311 97.201405 
L 641.156184 97.104008 
L 633.269258 97.053826 
L 625.382332 96.451662 
L 617.495406 107.910992 
L 609.608481 112.931363 
L 601.721555 122.003062 
L 593.834629 115.62181 
L 585.947703 119.305846 
L 578.060777 122.363649 
L 570.173852 143.679584 
L 562.286926 169.965463 
z
" clip-path="url(#pd47b3e02e3)" style="fill: #1f77b4; fill-opacity: 0.2"/>
   </g>
   <g id="PolyCollection_18">
    <path d="M 562.286926 137.791394 
L 562.286926 149.883683 
L 570.173852 109.369512 
L 578.060777 99.378726 
L 585.947703 89.198769 
L 593.834629 97.130236 
L 601.721555 92.179562 
L 609.608481 89.484387 
L 617.495406 84.085265 
L 625.382332 89.700241 
L 633.269258 76.57279 
L 641.156184 75.33244 
L 649.04311 75.843059 
L 656.930035 75.674629 
L 664.816961 75.941446 
L 672.703887 76.498025 
L 680.590813 76.256435 
L 688.477739 76.838672 
L 696.364664 76.625273 
L 704.25159 76.516295 
L 712.138516 76.170907 
L 712.138516 68.774324 
L 712.138516 68.774324 
L 704.25159 68.874967 
L 696.364664 69.65805 
L 688.477739 70.336712 
L 680.590813 69.580858 
L 672.703887 69.785299 
L 664.816961 70.787908 
L 656.930035 70.608694 
L 649.04311 70.886295 
L 641.156184 70.950883 
L 633.269258 74.170841 
L 625.382332 79.776682 
L 617.495406 80.931351 
L 609.608481 82.668721 
L 601.721555 82.649731 
L 593.834629 91.07998 
L 585.947703 83.8464 
L 578.060777 90.615612 
L 570.173852 104.264457 
L 562.286926 137.791394 
z
" clip-path="url(#pd47b3e02e3)" style="fill: #ff7f0e; fill-opacity: 0.2"/>
   </g>
   <g id="PolyCollection_19">
    <path d="M 562.286926 255.568246 
L 562.286926 269.841231 
L 570.173852 194.979906 
L 578.060777 169.006608 
L 585.947703 141.68227 
L 593.834629 143.215186 
L 601.721555 136.202173 
L 609.608481 127.968086 
L 617.495406 133.092805 
L 625.382332 142.924528 
L 633.269258 134.995581 
L 641.156184 111.33895 
L 649.04311 106.223438 
L 656.930035 104.728055 
L 664.816961 103.000248 
L 672.703887 104.959164 
L 680.590813 101.760012 
L 688.477739 102.102444 
L 696.364664 102.219559 
L 704.25159 102.539347 
L 712.138516 102.344249 
L 720.025442 101.886566 
L 727.912367 103.725508 
L 735.799293 101.616521 
L 735.799293 98.190494 
L 735.799293 98.190494 
L 727.912367 99.649753 
L 720.025442 98.812511 
L 712.138516 98.354828 
L 704.25159 99.497822 
L 696.364664 99.81761 
L 688.477739 98.150602 
L 680.590813 98.939065 
L 672.703887 100.646252 
L 664.816961 98.14486 
L 656.930035 101.769422 
L 649.04311 103.842285 
L 641.156184 107.647388 
L 633.269258 128.593835 
L 625.382332 132.261687 
L 617.495406 123.806149 
L 609.608481 119.564222 
L 601.721555 128.725335 
L 593.834629 134.647214 
L 585.947703 136.626161 
L 578.060777 155.689023 
L 570.173852 182.793386 
L 562.286926 255.568246 
z
" clip-path="url(#pd47b3e02e3)" style="fill: #2ca02c; fill-opacity: 0.2"/>
   </g>
   <g id="PolyCollection_20">
    <path d="M 562.286926 134.541913 
L 562.286926 142.874456 
L 570.173852 117.364638 
L 578.060777 104.062417 
L 585.947703 101.321399 
L 593.834629 99.666517 
L 601.721555 96.588144 
L 609.608481 96.961098 
L 617.495406 101.422602 
L 625.382332 104.461676 
L 633.269258 97.50223 
L 641.156184 92.402108 
L 649.04311 85.98882 
L 656.930035 83.393386 
L 664.816961 83.156322 
L 672.703887 85.239677 
L 680.590813 81.910601 
L 688.477739 83.082174 
L 696.364664 81.42397 
L 704.25159 82.473114 
L 712.138516 82.682779 
L 720.025442 82.076161 
L 727.912367 82.801432 
L 735.799293 82.801432 
L 743.686219 82.801432 
L 751.573145 82.547636 
L 759.460071 82.801432 
L 759.460071 79.538998 
L 759.460071 79.538998 
L 751.573145 79.346764 
L 743.686219 79.538998 
L 735.799293 79.538998 
L 727.912367 79.538998 
L 720.025442 78.480146 
L 712.138516 79.657651 
L 704.25159 78.975255 
L 696.364664 77.348215 
L 688.477739 79.258257 
L 680.590813 77.307615 
L 672.703887 79.776938 
L 664.816961 79.630139 
L 656.930035 79.839106 
L 649.04311 81.257949 
L 641.156184 84.657338 
L 633.269258 90.261954 
L 625.382332 94.453278 
L 617.495406 92.586013 
L 609.608481 91.249117 
L 601.721555 90.730009 
L 593.834629 94.342098 
L 585.947703 96.255463 
L 578.060777 100.650937 
L 570.173852 112.77247 
L 562.286926 134.541913 
z
" clip-path="url(#pd47b3e02e3)" style="fill: #d62728; fill-opacity: 0.2"/>
   </g>
   <g id="PolyCollection_21">
    <path d="M 562.286926 273.829514 
L 562.286926 300.643347 
L 570.173852 231.296306 
L 578.060777 181.61505 
L 585.947703 163.685908 
L 593.834629 151.712102 
L 601.721555 144.62716 
L 609.608481 138.768248 
L 617.495406 131.825563 
L 625.382332 134.679942 
L 633.269258 131.630868 
L 641.156184 124.503727 
L 649.04311 124.847363 
L 656.930035 122.578364 
L 664.816961 126.159298 
L 672.703887 118.40709 
L 680.590813 116.742147 
L 688.477739 109.059063 
L 696.364664 109.886358 
L 704.25159 108.978687 
L 712.138516 107.760062 
L 720.025442 107.490011 
L 727.912367 106.769418 
L 735.799293 105.988556 
L 743.686219 107.002622 
L 751.573145 105.6104 
L 759.460071 106.190513 
L 767.346996 106.126415 
L 767.346996 100.371062 
L 767.346996 100.371062 
L 759.460071 100.306963 
L 751.573145 99.995016 
L 743.686219 100.386917 
L 735.799293 100.06289 
L 727.912367 101.066151 
L 720.025442 101.23762 
L 712.138516 101.85963 
L 704.25159 102.871159 
L 696.364664 102.409519 
L 688.477739 102.790783 
L 680.590813 104.028314 
L 672.703887 107.26971 
L 664.816961 113.790486 
L 656.930035 110.680959 
L 649.04311 110.196084 
L 641.156184 115.000027 
L 633.269258 125.268086 
L 625.382332 127.571381 
L 617.495406 123.735298 
L 609.608481 127.943383 
L 601.721555 135.019363 
L 593.834629 144.43756 
L 585.947703 153.873231 
L 578.060777 171.62655 
L 570.173852 208.921294 
L 562.286926 273.829514 
z
" clip-path="url(#pd47b3e02e3)" style="fill: #9467bd; fill-opacity: 0.2"/>
   </g>
   <g id="PolyCollection_22">
    <path d="M 562.286926 132.849892 
L 562.286926 144.120446 
L 570.173852 115.26904 
L 578.060777 113.368855 
L 585.947703 106.562469 
L 593.834629 99.288887 
L 601.721555 103.442686 
L 609.608481 97.662722 
L 617.495406 101.907548 
L 625.382332 101.623406 
L 633.269258 95.307724 
L 641.156184 87.221033 
L 649.04311 85.999948 
L 656.930035 87.810808 
L 664.816961 88.395039 
L 672.703887 84.26631 
L 680.590813 83.942671 
L 688.477739 83.605919 
L 696.364664 82.070842 
L 704.25159 81.371707 
L 712.138516 82.316991 
L 720.025442 82.146701 
L 727.912367 81.337004 
L 735.799293 82.145054 
L 743.686219 82.606329 
L 751.573145 80.565444 
L 751.573145 75.084526 
L 751.573145 75.084526 
L 743.686219 76.165855 
L 735.799293 73.950946 
L 727.912367 74.758996 
L 720.025442 75.287391 
L 712.138516 76.009163 
L 704.25159 75.616354 
L 696.364664 76.255312 
L 688.477739 76.504358 
L 680.590813 76.613637 
L 672.703887 77.62809 
L 664.816961 79.297761 
L 656.930035 79.881992 
L 649.04311 79.908729 
L 641.156184 79.579705 
L 633.269258 87.550122 
L 625.382332 86.58681 
L 617.495406 93.885191 
L 609.608481 88.31734 
L 601.721555 92.350052 
L 593.834629 96.949882 
L 585.947703 99.488978 
L 578.060777 106.509545 
L 570.173852 113.083945 
L 562.286926 132.849892 
z
" clip-path="url(#pd47b3e02e3)" style="fill: #8c564b; fill-opacity: 0.2"/>
   </g>
   <g id="PolyCollection_23">
    <path d="M 562.286926 191.199936 
L 562.286926 202.184434 
L 570.173852 121.776585 
L 578.060777 112.074174 
L 585.947703 102.320288 
L 593.834629 97.227323 
L 601.721555 98.431997 
L 609.608481 96.707595 
L 617.495406 96.40151 
L 625.382332 96.243753 
L 633.269258 92.522476 
L 641.156184 92.103033 
L 649.04311 91.385714 
L 656.930035 90.755585 
L 664.816961 91.224407 
L 672.703887 90.336977 
L 680.590813 88.432636 
L 688.477739 89.458616 
L 688.477739 85.370676 
L 688.477739 85.370676 
L 680.590813 82.38238 
L 672.703887 84.938346 
L 664.816961 87.173131 
L 656.930035 84.965769 
L 649.04311 85.673733 
L 641.156184 87.186567 
L 633.269258 86.767124 
L 625.382332 90.62837 
L 617.495406 89.578551 
L 609.608481 92.394682 
L 601.721555 93.346464 
L 593.834629 93.659077 
L 585.947703 93.47245 
L 578.060777 108.250257 
L 570.173852 113.266861 
L 562.286926 191.199936 
z
" clip-path="url(#pd47b3e02e3)" style="fill: #e377c2; fill-opacity: 0.2"/>
   </g>
   <g id="PolyCollection_24">
    <path d="M 562.286926 137.352197 
L 562.286926 149.876849 
L 570.173852 108.804147 
L 578.060777 96.48626 
L 585.947703 89.068603 
L 593.834629 96.543048 
L 601.721555 89.257945 
L 609.608481 84.761592 
L 617.495406 91.301661 
L 625.382332 88.90892 
L 633.269258 84.107761 
L 641.156184 83.779691 
L 649.04311 81.647787 
L 656.930035 88.156428 
L 664.816961 78.787155 
L 672.703887 80.465976 
L 680.590813 79.876289 
L 688.477739 79.77547 
L 688.477739 76.32053 
L 688.477739 76.32053 
L 680.590813 75.32765 
L 672.703887 76.968116 
L 664.816961 75.524722 
L 656.930035 79.536372 
L 649.04311 78.46249 
L 641.156184 81.236924 
L 633.269258 78.23267 
L 625.382332 81.906095 
L 617.495406 82.635569 
L 609.608481 79.362962 
L 601.721555 82.895163 
L 593.834629 86.760829 
L 585.947703 84.422597 
L 578.060777 91.723955 
L 570.173852 102.599668 
L 562.286926 137.352197 
z
" clip-path="url(#pd47b3e02e3)" style="fill: #7f7f7f; fill-opacity: 0.2"/>
   </g>
   <g id="matplotlib.axis_5">
    <g id="xtick_11">
     <g id="line2d_65">
      <path d="M 554.4 252 
L 554.4 34.56 
" clip-path="url(#pd47b3e02e3)" style="fill: none; stroke: #b0b0b0; stroke-width: 0.8; stroke-linecap: square"/>
     </g>
     <g id="line2d_66">
      <g>
       <use xlink:href="#m73679ac11f" x="554.4" y="252" style="stroke: #000000; stroke-width: 0.8"/>
      </g>
     </g>
     <g id="text_21">
      <!-- 0 -->
      <g transform="translate(551.21875 266.598437)scale(0.1 -0.1)">
       <use xlink:href="#DejaVuSans-30"/>
      </g>
     </g>
    </g>
    <g id="xtick_12">
     <g id="line2d_67">
      <path d="M 593.834629 252 
L 593.834629 34.56 
" clip-path="url(#pd47b3e02e3)" style="fill: none; stroke: #b0b0b0; stroke-width: 0.8; stroke-linecap: square"/>
     </g>
     <g id="line2d_68">
      <g>
       <use xlink:href="#m73679ac11f" x="593.834629" y="252" style="stroke: #000000; stroke-width: 0.8"/>
      </g>
     </g>
     <g id="text_22">
      <!-- 5 -->
      <g transform="translate(590.653379 266.598437)scale(0.1 -0.1)">
       <use xlink:href="#DejaVuSans-35"/>
      </g>
     </g>
    </g>
    <g id="xtick_13">
     <g id="line2d_69">
      <path d="M 633.269258 252 
L 633.269258 34.56 
" clip-path="url(#pd47b3e02e3)" style="fill: none; stroke: #b0b0b0; stroke-width: 0.8; stroke-linecap: square"/>
     </g>
     <g id="line2d_70">
      <g>
       <use xlink:href="#m73679ac11f" x="633.269258" y="252" style="stroke: #000000; stroke-width: 0.8"/>
      </g>
     </g>
     <g id="text_23">
      <!-- 10 -->
      <g transform="translate(626.906758 266.598437)scale(0.1 -0.1)">
       <use xlink:href="#DejaVuSans-31"/>
       <use xlink:href="#DejaVuSans-30" x="63.623047"/>
      </g>
     </g>
    </g>
    <g id="xtick_14">
     <g id="line2d_71">
      <path d="M 672.703887 252 
L 672.703887 34.56 
" clip-path="url(#pd47b3e02e3)" style="fill: none; stroke: #b0b0b0; stroke-width: 0.8; stroke-linecap: square"/>
     </g>
     <g id="line2d_72">
      <g>
       <use xlink:href="#m73679ac11f" x="672.703887" y="252" style="stroke: #000000; stroke-width: 0.8"/>
      </g>
     </g>
     <g id="text_24">
      <!-- 15 -->
      <g transform="translate(666.341387 266.598437)scale(0.1 -0.1)">
       <use xlink:href="#DejaVuSans-31"/>
       <use xlink:href="#DejaVuSans-35" x="63.623047"/>
      </g>
     </g>
    </g>
    <g id="xtick_15">
     <g id="line2d_73">
      <path d="M 712.138516 252 
L 712.138516 34.56 
" clip-path="url(#pd47b3e02e3)" style="fill: none; stroke: #b0b0b0; stroke-width: 0.8; stroke-linecap: square"/>
     </g>
     <g id="line2d_74">
      <g>
       <use xlink:href="#m73679ac11f" x="712.138516" y="252" style="stroke: #000000; stroke-width: 0.8"/>
      </g>
     </g>
     <g id="text_25">
      <!-- 20 -->
      <g transform="translate(705.776016 266.598437)scale(0.1 -0.1)">
       <use xlink:href="#DejaVuSans-32"/>
       <use xlink:href="#DejaVuSans-30" x="63.623047"/>
      </g>
     </g>
    </g>
    <g id="xtick_16">
     <g id="line2d_75">
      <path d="M 751.573145 252 
L 751.573145 34.56 
" clip-path="url(#pd47b3e02e3)" style="fill: none; stroke: #b0b0b0; stroke-width: 0.8; stroke-linecap: square"/>
     </g>
     <g id="line2d_76">
      <g>
       <use xlink:href="#m73679ac11f" x="751.573145" y="252" style="stroke: #000000; stroke-width: 0.8"/>
      </g>
     </g>
     <g id="text_26">
      <!-- 25 -->
      <g transform="translate(745.210645 266.598437)scale(0.1 -0.1)">
       <use xlink:href="#DejaVuSans-32"/>
       <use xlink:href="#DejaVuSans-35" x="63.623047"/>
      </g>
     </g>
    </g>
    <g id="text_27">
     <!-- Artist (epochs) -->
     <g transform="translate(629.286719 280.276563)scale(0.1 -0.1)">
      <defs>
       <path id="DejaVuSans-41" d="M 2188 4044 
L 1331 1722 
L 3047 1722 
L 2188 4044 
z
M 1831 4666 
L 2547 4666 
L 4325 0 
L 3669 0 
L 3244 1197 
L 1141 1197 
L 716 0 
L 50 0 
L 1831 4666 
z
" transform="scale(0.015625)"/>
      </defs>
      <use xlink:href="#DejaVuSans-41"/>
      <use xlink:href="#DejaVuSans-72" x="68.408203"/>
      <use xlink:href="#DejaVuSans-74" x="109.521484"/>
      <use xlink:href="#DejaVuSans-69" x="148.730469"/>
      <use xlink:href="#DejaVuSans-73" x="176.513672"/>
      <use xlink:href="#DejaVuSans-74" x="228.613281"/>
      <use xlink:href="#DejaVuSans-20" x="267.822266"/>
      <use xlink:href="#DejaVuSans-28" x="299.609375"/>
      <use xlink:href="#DejaVuSans-65" x="338.623047"/>
      <use xlink:href="#DejaVuSans-70" x="400.146484"/>
      <use xlink:href="#DejaVuSans-6f" x="463.623047"/>
      <use xlink:href="#DejaVuSans-63" x="524.804688"/>
      <use xlink:href="#DejaVuSans-68" x="579.785156"/>
      <use xlink:href="#DejaVuSans-73" x="643.164062"/>
      <use xlink:href="#DejaVuSans-29" x="695.263672"/>
     </g>
    </g>
   </g>
   <g id="matplotlib.axis_6">
    <g id="ytick_15">
     <g id="line2d_77">
      <path d="M 554.4 252 
L 777.6 252 
" clip-path="url(#pd47b3e02e3)" style="fill: none; stroke: #b0b0b0; stroke-width: 0.8; stroke-linecap: square"/>
     </g>
     <g id="line2d_78">
      <g>
       <use xlink:href="#md00d15dfc3" x="554.4" y="252" style="stroke: #000000; stroke-width: 0.8"/>
      </g>
     </g>
    </g>
    <g id="ytick_16">
     <g id="line2d_79">
      <path d="M 554.4 215.76 
L 777.6 215.76 
" clip-path="url(#pd47b3e02e3)" style="fill: none; stroke: #b0b0b0; stroke-width: 0.8; stroke-linecap: square"/>
     </g>
     <g id="line2d_80">
      <g>
       <use xlink:href="#md00d15dfc3" x="554.4" y="215.76" style="stroke: #000000; stroke-width: 0.8"/>
      </g>
     </g>
    </g>
    <g id="ytick_17">
     <g id="line2d_81">
      <path d="M 554.4 179.52 
L 777.6 179.52 
" clip-path="url(#pd47b3e02e3)" style="fill: none; stroke: #b0b0b0; stroke-width: 0.8; stroke-linecap: square"/>
     </g>
     <g id="line2d_82">
      <g>
       <use xlink:href="#md00d15dfc3" x="554.4" y="179.52" style="stroke: #000000; stroke-width: 0.8"/>
      </g>
     </g>
    </g>
    <g id="ytick_18">
     <g id="line2d_83">
      <path d="M 554.4 143.28 
L 777.6 143.28 
" clip-path="url(#pd47b3e02e3)" style="fill: none; stroke: #b0b0b0; stroke-width: 0.8; stroke-linecap: square"/>
     </g>
     <g id="line2d_84">
      <g>
       <use xlink:href="#md00d15dfc3" x="554.4" y="143.28" style="stroke: #000000; stroke-width: 0.8"/>
      </g>
     </g>
    </g>
    <g id="ytick_19">
     <g id="line2d_85">
      <path d="M 554.4 107.04 
L 777.6 107.04 
" clip-path="url(#pd47b3e02e3)" style="fill: none; stroke: #b0b0b0; stroke-width: 0.8; stroke-linecap: square"/>
     </g>
     <g id="line2d_86">
      <g>
       <use xlink:href="#md00d15dfc3" x="554.4" y="107.04" style="stroke: #000000; stroke-width: 0.8"/>
      </g>
     </g>
    </g>
    <g id="ytick_20">
     <g id="line2d_87">
      <path d="M 554.4 70.8 
L 777.6 70.8 
" clip-path="url(#pd47b3e02e3)" style="fill: none; stroke: #b0b0b0; stroke-width: 0.8; stroke-linecap: square"/>
     </g>
     <g id="line2d_88">
      <g>
       <use xlink:href="#md00d15dfc3" x="554.4" y="70.8" style="stroke: #000000; stroke-width: 0.8"/>
      </g>
     </g>
    </g>
    <g id="ytick_21">
     <g id="line2d_89">
      <path d="M 554.4 34.56 
L 777.6 34.56 
" clip-path="url(#pd47b3e02e3)" style="fill: none; stroke: #b0b0b0; stroke-width: 0.8; stroke-linecap: square"/>
     </g>
     <g id="line2d_90">
      <g>
       <use xlink:href="#md00d15dfc3" x="554.4" y="34.56" style="stroke: #000000; stroke-width: 0.8"/>
      </g>
     </g>
    </g>
   </g>
   <g id="line2d_91">
    <path d="M 562.286926 177.735877 
L 570.173852 146.513723 
L 578.060777 132.240738 
L 585.947703 124.212185 
L 593.834629 117.075692 
L 601.721555 123.766154 
L 609.608481 117.298708 
L 617.495406 116.183631 
L 625.382332 102.802708 
L 633.269258 100.795569 
L 641.156184 100.795569 
L 649.04311 100.572554 
L 656.930035 100.795569 
L 664.816961 100.572554 
L 672.703887 100.795569 
L 680.590813 101.018585 
L 688.477739 99.680492 
" clip-path="url(#pd47b3e02e3)" style="fill: none; stroke: #1f77b4; stroke-width: 1.5; stroke-linecap: square"/>
   </g>
   <g id="line2d_92">
    <path d="M 562.286926 143.837538 
L 570.173852 106.816985 
L 578.060777 94.997169 
L 585.947703 86.522585 
L 593.834629 94.105108 
L 601.721555 87.414646 
L 609.608481 86.076554 
L 617.495406 82.508308 
L 625.382332 84.738462 
L 633.269258 75.371815 
L 641.156184 73.141662 
L 649.04311 73.364677 
L 656.930035 73.141662 
L 664.816961 73.364677 
L 672.703887 73.141662 
L 680.590813 72.918646 
L 688.477739 73.587692 
L 696.364664 73.141662 
L 704.25159 72.695631 
L 712.138516 72.472615 
" clip-path="url(#pd47b3e02e3)" style="fill: none; stroke: #ff7f0e; stroke-width: 1.5; stroke-linecap: square"/>
   </g>
   <g id="line2d_93">
    <path d="M 562.286926 262.704738 
L 570.173852 188.886646 
L 578.060777 162.347815 
L 585.947703 139.154215 
L 593.834629 138.9312 
L 601.721555 132.463754 
L 609.608481 123.766154 
L 617.495406 128.449477 
L 625.382332 137.593108 
L 633.269258 131.794708 
L 641.156184 109.493169 
L 649.04311 105.032862 
L 656.930035 103.248738 
L 664.816961 100.572554 
L 672.703887 102.802708 
L 680.590813 100.349538 
L 688.477739 100.126523 
L 696.364664 101.018585 
L 704.25159 101.018585 
L 712.138516 100.349538 
L 720.025442 100.349538 
L 727.912367 101.687631 
L 735.799293 99.903508 
" clip-path="url(#pd47b3e02e3)" style="fill: none; stroke: #2ca02c; stroke-width: 1.5; stroke-linecap: square"/>
   </g>
   <g id="line2d_94">
    <path d="M 562.286926 138.708185 
L 570.173852 115.068554 
L 578.060777 102.356677 
L 585.947703 98.788431 
L 593.834629 97.004308 
L 601.721555 93.659077 
L 609.608481 94.105108 
L 617.495406 97.004308 
L 625.382332 99.457477 
L 633.269258 93.882092 
L 641.156184 88.529723 
L 649.04311 83.623385 
L 656.930035 81.616246 
L 664.816961 81.393231 
L 672.703887 82.508308 
L 680.590813 79.609108 
L 688.477739 81.170215 
L 696.364664 79.386092 
L 704.25159 80.724185 
L 712.138516 81.170215 
L 720.025442 80.278154 
L 727.912367 81.170215 
L 735.799293 81.170215 
L 743.686219 81.170215 
L 751.573145 80.9472 
L 759.460071 81.170215 
" clip-path="url(#pd47b3e02e3)" style="fill: none; stroke: #d62728; stroke-width: 1.5; stroke-linecap: square"/>
   </g>
   <g id="line2d_95">
    <path d="M 562.286926 287.236431 
L 570.173852 220.1088 
L 578.060777 176.6208 
L 585.947703 158.779569 
L 593.834629 148.074831 
L 601.721555 139.823262 
L 609.608481 133.355815 
L 617.495406 127.780431 
L 625.382332 131.125662 
L 633.269258 128.449477 
L 641.156184 119.751877 
L 649.04311 117.521723 
L 656.930035 116.629662 
L 664.816961 119.974892 
L 672.703887 112.8384 
L 680.590813 110.385231 
L 688.477739 105.924923 
L 696.364664 106.147938 
L 704.25159 105.924923 
L 712.138516 104.809846 
L 720.025442 104.363815 
L 727.912367 103.917785 
L 735.799293 103.025723 
L 743.686219 103.694769 
L 751.573145 102.802708 
L 759.460071 103.248738 
L 767.346996 103.248738 
" clip-path="url(#pd47b3e02e3)" style="fill: none; stroke-dasharray: 5.55,2.4; stroke-dashoffset: 0; stroke: #9467bd; stroke-width: 1.5"/>
   </g>
   <g id="line2d_96">
    <path d="M 562.286926 138.485169 
L 570.173852 114.176492 
L 578.060777 109.9392 
L 585.947703 103.025723 
L 593.834629 98.119385 
L 601.721555 97.896369 
L 609.608481 92.990031 
L 617.495406 97.896369 
L 625.382332 94.105108 
L 633.269258 91.428923 
L 641.156184 83.400369 
L 649.04311 82.954338 
L 656.930035 83.8464 
L 664.816961 83.8464 
L 672.703887 80.9472 
L 680.590813 80.278154 
L 688.477739 80.055138 
L 696.364664 79.163077 
L 704.25159 78.494031 
L 712.138516 79.163077 
L 720.025442 78.717046 
L 727.912367 78.048 
L 735.799293 78.048 
L 743.686219 79.386092 
L 751.573145 77.824985 
" clip-path="url(#pd47b3e02e3)" style="fill: none; stroke-dasharray: 5.55,2.4; stroke-dashoffset: 0; stroke: #8c564b; stroke-width: 1.5"/>
   </g>
   <g id="line2d_97">
    <path d="M 562.286926 196.692185 
L 570.173852 117.521723 
L 578.060777 110.162215 
L 585.947703 97.896369 
L 593.834629 95.4432 
L 601.721555 95.889231 
L 609.608481 94.551138 
L 617.495406 92.990031 
L 625.382332 93.436062 
L 633.269258 89.6448 
L 641.156184 89.6448 
L 649.04311 88.529723 
L 656.930035 87.860677 
L 664.816961 89.198769 
L 672.703887 87.637662 
L 680.590813 85.407508 
L 688.477739 87.414646 
" clip-path="url(#pd47b3e02e3)" style="fill: none; stroke-dasharray: 5.55,2.4; stroke-dashoffset: 0; stroke: #e377c2; stroke-width: 1.5"/>
   </g>
   <g id="line2d_98">
    <path d="M 562.286926 143.614523 
L 570.173852 105.701908 
L 578.060777 94.105108 
L 585.947703 86.7456 
L 593.834629 91.651938 
L 601.721555 86.076554 
L 609.608481 82.062277 
L 617.495406 86.968615 
L 625.382332 85.407508 
L 633.269258 81.170215 
L 641.156184 82.508308 
L 649.04311 80.055138 
L 656.930035 83.8464 
L 664.816961 77.155938 
L 672.703887 78.717046 
L 680.590813 77.601969 
L 688.477739 78.048 
" clip-path="url(#pd47b3e02e3)" style="fill: none; stroke-dasharray: 5.55,2.4; stroke-dashoffset: 0; stroke: #7f7f7f; stroke-width: 1.5"/>
   </g>
   <g id="patch_13">
    <path d="M 554.4 252 
L 554.4 34.56 
" style="fill: none; stroke: #000000; stroke-width: 0.8; stroke-linejoin: miter; stroke-linecap: square"/>
   </g>
   <g id="patch_14">
    <path d="M 777.6 252 
L 777.6 34.56 
" style="fill: none; stroke: #000000; stroke-width: 0.8; stroke-linejoin: miter; stroke-linecap: square"/>
   </g>
   <g id="patch_15">
    <path d="M 554.4 252 
L 777.6 252 
" style="fill: none; stroke: #000000; stroke-width: 0.8; stroke-linejoin: miter; stroke-linecap: square"/>
   </g>
   <g id="patch_16">
    <path d="M 554.4 34.56 
L 777.6 34.56 
" style="fill: none; stroke: #000000; stroke-width: 0.8; stroke-linejoin: miter; stroke-linecap: square"/>
   </g>
   <g id="legend_1">
    <g id="patch_17">
     <path d="M 686.63125 247 
L 770.6 247 
Q 772.6 247 772.6 245 
L 772.6 216.64375 
Q 772.6 214.64375 770.6 214.64375 
L 686.63125 214.64375 
Q 684.63125 214.64375 684.63125 216.64375 
L 684.63125 245 
Q 684.63125 247 686.63125 247 
z
" style="fill: #ffffff; opacity: 0.8; stroke: #cccccc; stroke-linejoin: miter"/>
    </g>
    <g id="line2d_99">
     <path d="M 688.63125 222.742188 
L 698.63125 222.742188 
L 708.63125 222.742188 
" style="fill: none; stroke: #000000; stroke-width: 1.5; stroke-linecap: square"/>
    </g>
    <g id="text_28">
     <!-- vt-based -->
     <g transform="translate(716.63125 226.242188)scale(0.1 -0.1)">
      <defs>
       <path id="DejaVuSans-76" d="M 191 3500 
L 800 3500 
L 1894 563 
L 2988 3500 
L 3597 3500 
L 2284 0 
L 1503 0 
L 191 3500 
z
" transform="scale(0.015625)"/>
       <path id="DejaVuSans-2d" d="M 313 2009 
L 1997 2009 
L 1997 1497 
L 313 1497 
L 313 2009 
z
" transform="scale(0.015625)"/>
       <path id="DejaVuSans-62" d="M 3116 1747 
Q 3116 2381 2855 2742 
Q 2594 3103 2138 3103 
Q 1681 3103 1420 2742 
Q 1159 2381 1159 1747 
Q 1159 1113 1420 752 
Q 1681 391 2138 391 
Q 2594 391 2855 752 
Q 3116 1113 3116 1747 
z
M 1159 2969 
Q 1341 3281 1617 3432 
Q 1894 3584 2278 3584 
Q 2916 3584 3314 3078 
Q 3713 2572 3713 1747 
Q 3713 922 3314 415 
Q 2916 -91 2278 -91 
Q 1894 -91 1617 61 
Q 1341 213 1159 525 
L 1159 0 
L 581 0 
L 581 4863 
L 1159 4863 
L 1159 2969 
z
" transform="scale(0.015625)"/>
      </defs>
      <use xlink:href="#DejaVuSans-76"/>
      <use xlink:href="#DejaVuSans-74" x="59.179688"/>
      <use xlink:href="#DejaVuSans-2d" x="98.388672"/>
      <use xlink:href="#DejaVuSans-62" x="134.472656"/>
      <use xlink:href="#DejaVuSans-61" x="197.949219"/>
      <use xlink:href="#DejaVuSans-73" x="259.228516"/>
      <use xlink:href="#DejaVuSans-65" x="311.328125"/>
      <use xlink:href="#DejaVuSans-64" x="372.851562"/>
     </g>
    </g>
    <g id="line2d_100">
     <path d="M 688.63125 237.420312 
L 698.63125 237.420312 
L 708.63125 237.420312 
" style="fill: none; stroke-dasharray: 5.55,2.4; stroke-dashoffset: 0; stroke: #000000; stroke-width: 1.5"/>
    </g>
    <g id="text_29">
     <!-- cnn-based -->
     <g transform="translate(716.63125 240.920312)scale(0.1 -0.1)">
      <use xlink:href="#DejaVuSans-63"/>
      <use xlink:href="#DejaVuSans-6e" x="54.980469"/>
      <use xlink:href="#DejaVuSans-6e" x="118.359375"/>
      <use xlink:href="#DejaVuSans-2d" x="181.738281"/>
      <use xlink:href="#DejaVuSans-62" x="217.822266"/>
      <use xlink:href="#DejaVuSans-61" x="281.298828"/>
      <use xlink:href="#DejaVuSans-73" x="342.578125"/>
      <use xlink:href="#DejaVuSans-65" x="394.677734"/>
      <use xlink:href="#DejaVuSans-64" x="456.201172"/>
     </g>
    </g>
   </g>
  </g>
  <g id="legend_2">
   <g id="patch_18">
    <path d="M 53.358594 22.95625 
L 810.641406 22.95625 
Q 812.641406 22.95625 812.641406 20.95625 
L 812.641406 7 
Q 812.641406 5 810.641406 5 
L 53.358594 5 
Q 51.358594 5 51.358594 7 
L 51.358594 20.95625 
Q 51.358594 22.95625 53.358594 22.95625 
z
" style="fill: #ffffff; opacity: 0.8; stroke: #cccccc; stroke-linejoin: miter"/>
   </g>
   <g id="line2d_101">
    <path d="M 55.358594 13.098437 
L 65.358594 13.098437 
L 75.358594 13.098437 
" style="fill: none; stroke: #1f77b4; stroke-width: 1.5; stroke-linecap: square"/>
   </g>
   <g id="text_30">
    <!-- vit_b_16 -->
    <g transform="translate(83.358594 16.598437)scale(0.1 -0.1)">
     <defs>
      <path id="DejaVuSans-5f" d="M 3263 -1063 
L 3263 -1509 
L -63 -1509 
L -63 -1063 
L 3263 -1063 
z
" transform="scale(0.015625)"/>
      <path id="DejaVuSans-36" d="M 2113 2584 
Q 1688 2584 1439 2293 
Q 1191 2003 1191 1497 
Q 1191 994 1439 701 
Q 1688 409 2113 409 
Q 2538 409 2786 701 
Q 3034 994 3034 1497 
Q 3034 2003 2786 2293 
Q 2538 2584 2113 2584 
z
M 3366 4563 
L 3366 3988 
Q 3128 4100 2886 4159 
Q 2644 4219 2406 4219 
Q 1781 4219 1451 3797 
Q 1122 3375 1075 2522 
Q 1259 2794 1537 2939 
Q 1816 3084 2150 3084 
Q 2853 3084 3261 2657 
Q 3669 2231 3669 1497 
Q 3669 778 3244 343 
Q 2819 -91 2113 -91 
Q 1303 -91 875 529 
Q 447 1150 447 2328 
Q 447 3434 972 4092 
Q 1497 4750 2381 4750 
Q 2619 4750 2861 4703 
Q 3103 4656 3366 4563 
z
" transform="scale(0.015625)"/>
     </defs>
     <use xlink:href="#DejaVuSans-76"/>
     <use xlink:href="#DejaVuSans-69" x="59.179688"/>
     <use xlink:href="#DejaVuSans-74" x="86.962891"/>
     <use xlink:href="#DejaVuSans-5f" x="126.171875"/>
     <use xlink:href="#DejaVuSans-62" x="176.171875"/>
     <use xlink:href="#DejaVuSans-5f" x="239.648438"/>
     <use xlink:href="#DejaVuSans-31" x="289.648438"/>
     <use xlink:href="#DejaVuSans-36" x="353.271484"/>
    </g>
   </g>
   <g id="line2d_102">
    <path d="M 145.049219 13.098437 
L 155.049219 13.098437 
L 165.049219 13.098437 
" style="fill: none; stroke: #ff7f0e; stroke-width: 1.5; stroke-linecap: square"/>
   </g>
   <g id="text_31">
    <!-- swin_b -->
    <g transform="translate(173.049219 16.598437)scale(0.1 -0.1)">
     <defs>
      <path id="DejaVuSans-77" d="M 269 3500 
L 844 3500 
L 1563 769 
L 2278 3500 
L 2956 3500 
L 3675 769 
L 4391 3500 
L 4966 3500 
L 4050 0 
L 3372 0 
L 2619 2869 
L 1863 0 
L 1184 0 
L 269 3500 
z
" transform="scale(0.015625)"/>
     </defs>
     <use xlink:href="#DejaVuSans-73"/>
     <use xlink:href="#DejaVuSans-77" x="52.099609"/>
     <use xlink:href="#DejaVuSans-69" x="133.886719"/>
     <use xlink:href="#DejaVuSans-6e" x="161.669922"/>
     <use xlink:href="#DejaVuSans-5f" x="225.048828"/>
     <use xlink:href="#DejaVuSans-62" x="275.048828"/>
    </g>
   </g>
   <g id="line2d_103">
    <path d="M 226.900781 13.098437 
L 236.900781 13.098437 
L 246.900781 13.098437 
" style="fill: none; stroke: #2ca02c; stroke-width: 1.5; stroke-linecap: square"/>
   </g>
   <g id="text_32">
    <!-- beit_b_16 -->
    <g transform="translate(254.900781 16.598437)scale(0.1 -0.1)">
     <use xlink:href="#DejaVuSans-62"/>
     <use xlink:href="#DejaVuSans-65" x="63.476562"/>
     <use xlink:href="#DejaVuSans-69" x="125"/>
     <use xlink:href="#DejaVuSans-74" x="152.783203"/>
     <use xlink:href="#DejaVuSans-5f" x="191.992188"/>
     <use xlink:href="#DejaVuSans-62" x="241.992188"/>
     <use xlink:href="#DejaVuSans-5f" x="305.46875"/>
     <use xlink:href="#DejaVuSans-31" x="355.46875"/>
     <use xlink:href="#DejaVuSans-36" x="419.091797"/>
    </g>
   </g>
   <g id="line2d_104">
    <path d="M 323.174219 13.098437 
L 333.174219 13.098437 
L 343.174219 13.098437 
" style="fill: none; stroke: #d62728; stroke-width: 1.5; stroke-linecap: square"/>
   </g>
   <g id="text_33">
    <!-- deit_b_16 -->
    <g transform="translate(351.174219 16.598437)scale(0.1 -0.1)">
     <use xlink:href="#DejaVuSans-64"/>
     <use xlink:href="#DejaVuSans-65" x="63.476562"/>
     <use xlink:href="#DejaVuSans-69" x="125"/>
     <use xlink:href="#DejaVuSans-74" x="152.783203"/>
     <use xlink:href="#DejaVuSans-5f" x="191.992188"/>
     <use xlink:href="#DejaVuSans-62" x="241.992188"/>
     <use xlink:href="#DejaVuSans-5f" x="305.46875"/>
     <use xlink:href="#DejaVuSans-31" x="355.46875"/>
     <use xlink:href="#DejaVuSans-36" x="419.091797"/>
    </g>
   </g>
   <g id="line2d_105">
    <path d="M 419.447656 13.098437 
L 429.447656 13.098437 
L 439.447656 13.098437 
" style="fill: none; stroke-dasharray: 5.55,2.4; stroke-dashoffset: 0; stroke: #9467bd; stroke-width: 1.5"/>
   </g>
   <g id="text_34">
    <!-- vgg19 -->
    <g transform="translate(447.447656 16.598437)scale(0.1 -0.1)">
     <defs>
      <path id="DejaVuSans-67" d="M 2906 1791 
Q 2906 2416 2648 2759 
Q 2391 3103 1925 3103 
Q 1463 3103 1205 2759 
Q 947 2416 947 1791 
Q 947 1169 1205 825 
Q 1463 481 1925 481 
Q 2391 481 2648 825 
Q 2906 1169 2906 1791 
z
M 3481 434 
Q 3481 -459 3084 -895 
Q 2688 -1331 1869 -1331 
Q 1566 -1331 1297 -1286 
Q 1028 -1241 775 -1147 
L 775 -588 
Q 1028 -725 1275 -790 
Q 1522 -856 1778 -856 
Q 2344 -856 2625 -561 
Q 2906 -266 2906 331 
L 2906 616 
Q 2728 306 2450 153 
Q 2172 0 1784 0 
Q 1141 0 747 490 
Q 353 981 353 1791 
Q 353 2603 747 3093 
Q 1141 3584 1784 3584 
Q 2172 3584 2450 3431 
Q 2728 3278 2906 2969 
L 2906 3500 
L 3481 3500 
L 3481 434 
z
" transform="scale(0.015625)"/>
     </defs>
     <use xlink:href="#DejaVuSans-76"/>
     <use xlink:href="#DejaVuSans-67" x="59.179688"/>
     <use xlink:href="#DejaVuSans-67" x="122.65625"/>
     <use xlink:href="#DejaVuSans-31" x="186.132812"/>
     <use xlink:href="#DejaVuSans-39" x="249.755859"/>
    </g>
   </g>
   <g id="line2d_106">
    <path d="M 498.788281 13.098437 
L 508.788281 13.098437 
L 518.788281 13.098437 
" style="fill: none; stroke-dasharray: 5.55,2.4; stroke-dashoffset: 0; stroke: #8c564b; stroke-width: 1.5"/>
   </g>
   <g id="text_35">
    <!-- resnet50 -->
    <g transform="translate(526.788281 16.598437)scale(0.1 -0.1)">
     <use xlink:href="#DejaVuSans-72"/>
     <use xlink:href="#DejaVuSans-65" x="38.863281"/>
     <use xlink:href="#DejaVuSans-73" x="100.386719"/>
     <use xlink:href="#DejaVuSans-6e" x="152.486328"/>
     <use xlink:href="#DejaVuSans-65" x="215.865234"/>
     <use xlink:href="#DejaVuSans-74" x="277.388672"/>
     <use xlink:href="#DejaVuSans-35" x="316.597656"/>
     <use xlink:href="#DejaVuSans-30" x="380.220703"/>
    </g>
   </g>
   <g id="line2d_107">
    <path d="M 591.172656 13.098437 
L 601.172656 13.098437 
L 611.172656 13.098437 
" style="fill: none; stroke-dasharray: 5.55,2.4; stroke-dashoffset: 0; stroke: #e377c2; stroke-width: 1.5"/>
   </g>
   <g id="text_36">
    <!-- efficientnetv2_m -->
    <g transform="translate(619.172656 16.598437)scale(0.1 -0.1)">
     <defs>
      <path id="DejaVuSans-66" d="M 2375 4863 
L 2375 4384 
L 1825 4384 
Q 1516 4384 1395 4259 
Q 1275 4134 1275 3809 
L 1275 3500 
L 2222 3500 
L 2222 3053 
L 1275 3053 
L 1275 0 
L 697 0 
L 697 3053 
L 147 3053 
L 147 3500 
L 697 3500 
L 697 3744 
Q 697 4328 969 4595 
Q 1241 4863 1831 4863 
L 2375 4863 
z
" transform="scale(0.015625)"/>
      <path id="DejaVuSans-6d" d="M 3328 2828 
Q 3544 3216 3844 3400 
Q 4144 3584 4550 3584 
Q 5097 3584 5394 3201 
Q 5691 2819 5691 2113 
L 5691 0 
L 5113 0 
L 5113 2094 
Q 5113 2597 4934 2840 
Q 4756 3084 4391 3084 
Q 3944 3084 3684 2787 
Q 3425 2491 3425 1978 
L 3425 0 
L 2847 0 
L 2847 2094 
Q 2847 2600 2669 2842 
Q 2491 3084 2119 3084 
Q 1678 3084 1418 2786 
Q 1159 2488 1159 1978 
L 1159 0 
L 581 0 
L 581 3500 
L 1159 3500 
L 1159 2956 
Q 1356 3278 1631 3431 
Q 1906 3584 2284 3584 
Q 2666 3584 2933 3390 
Q 3200 3197 3328 2828 
z
" transform="scale(0.015625)"/>
     </defs>
     <use xlink:href="#DejaVuSans-65"/>
     <use xlink:href="#DejaVuSans-66" x="61.523438"/>
     <use xlink:href="#DejaVuSans-66" x="96.728516"/>
     <use xlink:href="#DejaVuSans-69" x="131.933594"/>
     <use xlink:href="#DejaVuSans-63" x="159.716797"/>
     <use xlink:href="#DejaVuSans-69" x="214.697266"/>
     <use xlink:href="#DejaVuSans-65" x="242.480469"/>
     <use xlink:href="#DejaVuSans-6e" x="304.003906"/>
     <use xlink:href="#DejaVuSans-74" x="367.382812"/>
     <use xlink:href="#DejaVuSans-6e" x="406.591797"/>
     <use xlink:href="#DejaVuSans-65" x="469.970703"/>
     <use xlink:href="#DejaVuSans-74" x="531.494141"/>
     <use xlink:href="#DejaVuSans-76" x="570.703125"/>
     <use xlink:href="#DejaVuSans-32" x="629.882812"/>
     <use xlink:href="#DejaVuSans-5f" x="693.505859"/>
     <use xlink:href="#DejaVuSans-6d" x="743.505859"/>
    </g>
   </g>
   <g id="line2d_108">
    <path d="M 723.264844 13.098437 
L 733.264844 13.098437 
L 743.264844 13.098437 
" style="fill: none; stroke-dasharray: 5.55,2.4; stroke-dashoffset: 0; stroke: #7f7f7f; stroke-width: 1.5"/>
   </g>
   <g id="text_37">
    <!-- convnext_b -->
    <g transform="translate(751.264844 16.598437)scale(0.1 -0.1)">
     <defs>
      <path id="DejaVuSans-78" d="M 3513 3500 
L 2247 1797 
L 3578 0 
L 2900 0 
L 1881 1375 
L 863 0 
L 184 0 
L 1544 1831 
L 300 3500 
L 978 3500 
L 1906 2253 
L 2834 3500 
L 3513 3500 
z
" transform="scale(0.015625)"/>
     </defs>
     <use xlink:href="#DejaVuSans-63"/>
     <use xlink:href="#DejaVuSans-6f" x="54.980469"/>
     <use xlink:href="#DejaVuSans-6e" x="116.162109"/>
     <use xlink:href="#DejaVuSans-76" x="179.541016"/>
     <use xlink:href="#DejaVuSans-6e" x="238.720703"/>
     <use xlink:href="#DejaVuSans-65" x="302.099609"/>
     <use xlink:href="#DejaVuSans-78" x="361.873047"/>
     <use xlink:href="#DejaVuSans-74" x="421.052734"/>
     <use xlink:href="#DejaVuSans-5f" x="460.261719"/>
     <use xlink:href="#DejaVuSans-62" x="510.261719"/>
    </g>
   </g>
  </g>
 </g>
 <defs>
  <clipPath id="p07d80e36d3">
   <rect x="108" y="34.56" width="223.2" height="217.44"/>
  </clipPath>
  <clipPath id="p4200c4eeb1">
   <rect x="331.2" y="34.56" width="223.2" height="217.44"/>
  </clipPath>
  <clipPath id="pd47b3e02e3">
   <rect x="554.4" y="34.56" width="223.2" height="217.44"/>
  </clipPath>
 </defs>
</svg>
