<?xml version="1.0" encoding="utf-8" standalone="no"?>
<!DOCTYPE svg PUBLIC "-//W3C//DTD SVG 1.1//EN"
  "http://www.w3.org/Graphics/SVG/1.1/DTD/svg11.dtd">
<svg xmlns:xlink="http://www.w3.org/1999/xlink" width="360pt" height="432pt" viewBox="0 0 360 432" xmlns="http://www.w3.org/2000/svg" version="1.1">
 <metadata>
  <rdf:RDF xmlns:dc="http://purl.org/dc/elements/1.1/" xmlns:cc="http://creativecommons.org/ns#" xmlns:rdf="http://www.w3.org/1999/02/22-rdf-syntax-ns#">
   <cc:Work>
    <dc:type rdf:resource="http://purl.org/dc/dcmitype/StillImage"/>
    <dc:date>2022-05-20T13:31:57.094692</dc:date>
    <dc:format>image/svg+xml</dc:format>
    <dc:creator>
     <cc:Agent>
      <dc:title>Matplotlib v3.5.2, https://matplotlib.org/</dc:title>
     </cc:Agent>
    </dc:creator>
   </cc:Work>
  </rdf:RDF>
 </metadata>
 <defs>
  <style type="text/css">*{stroke-linejoin: round; stroke-linecap: butt}</style>
 </defs>
 <g id="figure_1">
  <g id="patch_1">
   <path d="M 0 432 
L 360 432 
L 360 0 
L 0 0 
L 0 432 
z
" style="fill: none"/>
  </g>
  <g id="axes_1">
   <g id="patch_2">
    <path d="M 45 378 
L 324 378 
L 324 51.84 
L 45 51.84 
z
" style="fill: #ffffff"/>
   </g>
   <g id="PolyCollection_1">
    <path d="M 57.681818 287.77827 
L 57.681818 304.05453 
L 62.378788 218.083148 
L 67.075758 180.197168 
L 71.772727 159.728398 
L 76.469697 147.35913 
L 81.166667 142.487136 
L 85.863636 132.313677 
L 90.560606 126.466399 
L 95.257576 122.467855 
L 99.954545 122.456796 
L 104.651515 120.744754 
L 109.348485 120.838272 
L 114.045455 123.381762 
L 118.742424 115.123036 
L 123.439394 117.519335 
L 128.136364 117.25123 
L 132.833333 114.032369 
L 137.530303 118.431 
L 142.227273 109.573748 
L 146.924242 115.294564 
L 151.621212 113.852092 
L 156.318182 114.501881 
L 161.015152 117.486796 
L 165.712121 112.755738 
L 170.409091 113.654486 
L 175.106061 116.500026 
L 179.80303 111.331617 
L 184.5 111.779796 
L 189.19697 111.504096 
L 193.893939 108.937942 
L 198.590909 111.415739 
L 198.590909 99.897061 
L 198.590909 99.897061 
L 193.893939 99.656858 
L 189.19697 97.634304 
L 184.5 100.076604 
L 179.80303 98.893983 
L 175.106061 103.510374 
L 170.409091 99.832714 
L 165.712121 99.100662 
L 161.015152 99.262004 
L 156.318182 100.616119 
L 151.621212 99.635108 
L 146.924242 99.823436 
L 142.227273 97.933852 
L 137.530303 105.3846 
L 132.833333 99.998431 
L 128.136364 100.58477 
L 123.439394 103.034665 
L 118.742424 101.625764 
L 114.045455 107.500638 
L 109.348485 105.695328 
L 104.651515 104.701646 
L 99.954545 111.687204 
L 95.257576 113.306945 
L 90.560606 112.570001 
L 85.863636 118.138323 
L 81.166667 132.426864 
L 76.469697 138.42687 
L 71.772727 148.345202 
L 67.075758 168.102832 
L 62.378788 199.797652 
L 57.681818 287.77827 
z
" clip-path="url(#p202f4240e5)" style="fill: #1f77b4; fill-opacity: 0.2"/>
   </g>
   <g id="PolyCollection_2">
    <path d="M 57.681818 195.458488 
L 57.681818 200.134712 
L 62.378788 149.988811 
L 67.075758 127.308505 
L 71.772727 113.891141 
L 76.469697 104.355871 
L 81.166667 98.667189 
L 85.863636 96.82441 
L 90.560606 89.123333 
L 95.257576 85.423433 
L 99.954545 83.237425 
L 104.651515 81.902874 
L 109.348485 78.279745 
L 114.045455 80.290457 
L 118.742424 76.510906 
L 123.439394 78.762733 
L 128.136364 72.95263 
L 132.833333 72.417506 
L 137.530303 71.990037 
L 142.227273 71.217054 
L 146.924242 64.220357 
L 151.621212 71.244119 
L 156.318182 68.190062 
L 161.015152 68.225553 
L 165.712121 67.691344 
L 170.409091 65.7018 
L 175.106061 66.093275 
L 179.80303 65.387108 
L 184.5 63.161459 
L 189.19697 65.43 
L 193.893939 64.536849 
L 193.893939 56.538351 
L 193.893939 56.538351 
L 189.19697 57.8196 
L 184.5 57.370141 
L 179.80303 61.124092 
L 175.106061 60.417925 
L 170.409091 58.635 
L 165.712121 62.081456 
L 161.015152 61.003647 
L 156.318182 63.757138 
L 151.621212 69.400681 
L 146.924242 62.834443 
L 142.227273 65.078946 
L 137.530303 65.936763 
L 132.833333 65.509294 
L 128.136364 67.14857 
L 123.439394 71.123267 
L 118.742424 70.113494 
L 114.045455 78.293143 
L 109.348485 73.780655 
L 104.651515 76.137126 
L 99.954545 79.151375 
L 95.257576 79.683367 
L 90.560606 81.963067 
L 85.863636 84.59039 
L 81.166667 87.640011 
L 76.469697 96.084929 
L 71.772727 105.575659 
L 67.075758 120.969095 
L 62.378788 142.320389 
L 57.681818 195.458488 
z
" clip-path="url(#p202f4240e5)" style="fill: #ff7f0e; fill-opacity: 0.2"/>
   </g>
   <g id="PolyCollection_3">
    <path d="M 57.681818 414.289835 
L 57.681818 418.357765 
L 62.378788 335.302588 
L 67.075758 296.563036 
L 71.772727 277.040691 
L 76.469697 259.26739 
L 81.166667 249.045637 
L 85.863636 234.33513 
L 90.560606 237.009002 
L 95.257576 225.916773 
L 99.954545 211.070864 
L 104.651515 208.292719 
L 109.348485 206.783851 
L 114.045455 200.86077 
L 118.742424 198.679393 
L 123.439394 195.093677 
L 128.136364 195.573099 
L 132.833333 193.985733 
L 137.530303 189.013388 
L 142.227273 187.74 
L 146.924242 183.577388 
L 151.621212 179.275809 
L 156.318182 182.920034 
L 161.015152 180.169 
L 165.712121 175.575331 
L 170.409091 179.088867 
L 175.106061 173.272176 
L 179.80303 175.509 
L 184.5 172.819191 
L 189.19697 173.457895 
L 193.893939 172.124062 
L 198.590909 171.827678 
L 203.287879 171.944552 
L 207.984848 172.752954 
L 212.681818 165.967564 
L 217.378788 164.323799 
L 217.378788 161.688601 
L 217.378788 161.688601 
L 212.681818 159.501236 
L 207.984848 167.936646 
L 203.287879 166.027048 
L 198.590909 167.231122 
L 193.893939 164.760338 
L 189.19697 166.144505 
L 184.5 166.239609 
L 179.80303 168.9858 
L 175.106061 167.417424 
L 170.409091 170.298333 
L 165.712121 172.724669 
L 161.015152 173.567 
L 156.318182 175.708366 
L 151.621212 170.654991 
L 146.924242 172.876612 
L 142.227273 181.2168 
L 137.530303 178.312612 
L 132.833333 187.473867 
L 128.136364 182.081301 
L 123.439394 185.278723 
L 118.742424 190.390607 
L 114.045455 195.81963 
L 109.348485 196.419749 
L 104.651515 194.910881 
L 99.954545 203.548336 
L 95.257576 210.990027 
L 90.560606 223.816198 
L 85.863636 225.40287 
L 81.166667 242.764763 
L 76.469697 248.30741 
L 71.772727 268.042509 
L 67.075758 289.290164 
L 62.378788 329.372612 
L 57.681818 414.289835 
z
" clip-path="url(#p202f4240e5)" style="fill: #2ca02c; fill-opacity: 0.2"/>
   </g>
   <g id="PolyCollection_4">
    <path d="M 57.681818 236.139453 
L 57.681818 249.691347 
L 62.378788 165.122956 
L 67.075758 145.971014 
L 71.772727 127.064423 
L 76.469697 118.366823 
L 81.166667 113.659693 
L 85.863636 104.100164 
L 90.560606 101.585571 
L 95.257576 97.26668 
L 99.954545 100.12578 
L 104.651515 95.852136 
L 109.348485 91.848427 
L 114.045455 96.950298 
L 118.742424 94.694204 
L 123.439394 95.886677 
L 128.136364 91.804783 
L 132.833333 90.463495 
L 137.530303 92.373683 
L 142.227273 91.036654 
L 146.924242 89.354306 
L 151.621212 89.067327 
L 156.318182 87.359243 
L 161.015152 87.372994 
L 165.712121 89.542909 
L 170.409091 89.419438 
L 175.106061 87.413512 
L 179.80303 87.911207 
L 184.5 83.970871 
L 184.5 75.699929 
L 184.5 75.699929 
L 179.80303 76.651993 
L 175.106061 77.149688 
L 170.409091 78.948962 
L 165.712121 77.194691 
L 161.015152 78.821006 
L 156.318182 77.203957 
L 151.621212 77.126673 
L 146.924242 76.839694 
L 142.227273 80.049746 
L 137.530303 80.887117 
L 132.833333 81.166505 
L 128.136364 80.912417 
L 123.439394 86.071723 
L 118.742424 84.546196 
L 114.045455 88.269702 
L 109.348485 86.304773 
L 104.651515 88.280664 
L 99.954545 88.89942 
L 95.257576 89.04052 
L 90.560606 95.593629 
L 85.863636 93.622636 
L 81.166667 107.437907 
L 76.469697 109.797577 
L 71.772727 118.495177 
L 67.075758 142.532986 
L 62.378788 161.976644 
L 57.681818 236.139453 
z
" clip-path="url(#p202f4240e5)" style="fill: #d62728; fill-opacity: 0.2"/>
   </g>
   <g id="PolyCollection_5">
    <path d="M 57.681818 235.565514 
L 57.681818 238.849686 
L 62.378788 202.909535 
L 67.075758 190.703568 
L 71.772727 184.990952 
L 76.469697 182.266103 
L 81.166667 173.707285 
L 85.863636 170.00462 
L 90.560606 172.288544 
L 95.257576 165.4524 
L 99.954545 164.282828 
L 104.651515 165.752391 
L 109.348485 160.458969 
L 114.045455 164.377773 
L 118.742424 162.357277 
L 123.439394 161.072552 
L 128.136364 158.923969 
L 132.833333 161.816101 
L 137.530303 155.47113 
L 142.227273 154.797285 
L 146.924242 162.514878 
L 151.621212 158.667583 
L 151.621212 147.775217 
L 151.621212 147.775217 
L 146.924242 150.451122 
L 142.227273 149.471115 
L 137.530303 146.07927 
L 132.833333 151.149899 
L 128.136364 151.867631 
L 123.439394 155.155048 
L 118.742424 148.434323 
L 114.045455 149.675427 
L 109.348485 151.419831 
L 104.651515 159.172809 
L 99.954545 156.293572 
L 95.257576 160.56 
L 90.560606 156.985456 
L 85.863636 159.26938 
L 81.166667 163.720715 
L 76.469697 172.557097 
L 71.772727 179.073448 
L 67.075758 183.689232 
L 62.378788 194.314465 
L 57.681818 235.565514 
z
" clip-path="url(#p202f4240e5)" style="fill: #9467bd; fill-opacity: 0.2"/>
   </g>
   <g id="PolyCollection_6">
    <path d="M 57.681818 262.410074 
L 57.681818 272.344726 
L 62.378788 202.569688 
L 67.075758 170.396688 
L 71.772727 162.443136 
L 76.469697 155.724508 
L 81.166667 147.35913 
L 85.863636 142.678654 
L 90.560606 138.075745 
L 95.257576 138.280549 
L 99.954545 131.857477 
L 104.651515 131.350204 
L 109.348485 123.275411 
L 114.045455 127.096766 
L 118.742424 123.899266 
L 123.439394 127.096766 
L 128.136364 117.418364 
L 132.833333 121.649922 
L 137.530303 119.555037 
L 142.227273 124.296204 
L 146.924242 120.479784 
L 151.621212 121.765034 
L 156.318182 117.072 
L 161.015152 122.977813 
L 165.712121 123.867 
L 170.409091 119.493388 
L 175.106061 118.670512 
L 175.106061 108.406688 
L 175.106061 108.406688 
L 170.409091 113.563412 
L 165.712121 119.5182 
L 161.015152 109.535387 
L 156.318182 106.2 
L 151.621212 114.553366 
L 146.924242 111.489816 
L 142.227273 113.109396 
L 137.530303 113.501763 
L 132.833333 113.037678 
L 128.136364 106.940836 
L 123.439394 119.006434 
L 118.742424 112.419134 
L 114.045455 119.006434 
L 109.348485 117.935389 
L 104.651515 120.732596 
L 99.954545 121.856123 
L 95.257576 124.674251 
L 90.560606 133.576655 
L 85.863636 131.691746 
L 81.166667 138.42687 
L 76.469697 145.282292 
L 71.772727 154.871664 
L 67.075758 163.226112 
L 62.378788 190.305512 
L 57.681818 262.410074 
z
" clip-path="url(#p202f4240e5)" style="fill: #8c564b; fill-opacity: 0.2"/>
   </g>
   <g id="PolyCollection_7">
    <path d="M 57.681818 294.798367 
L 57.681818 312.798833 
L 62.378788 265.310142 
L 67.075758 235.079667 
L 71.772727 213.971653 
L 76.469697 206.592154 
L 81.166667 193.913649 
L 85.863636 187.113599 
L 90.560606 181.2168 
L 95.257576 186.688635 
L 99.954545 178.818318 
L 104.651515 178.505591 
L 109.348485 175.007731 
L 114.045455 168.615658 
L 118.742424 164.637 
L 123.439394 166.856492 
L 128.136364 164.826428 
L 132.833333 165.398474 
L 137.530303 161.250445 
L 142.227273 163.753197 
L 146.924242 160.406595 
L 151.621212 161.309672 
L 156.318182 160.543798 
L 161.015152 159.976022 
L 165.712121 163.014688 
L 170.409091 156.062275 
L 175.106061 155.910204 
L 179.80303 156.972583 
L 184.5 155.336431 
L 189.19697 157.989881 
L 193.893939 156.329595 
L 198.590909 154.197231 
L 203.287879 157.354781 
L 207.984848 155.656265 
L 212.681818 156.563328 
L 217.378788 154.502207 
L 222.075758 157.400911 
L 226.772727 156.869866 
L 226.772727 143.593334 
L 226.772727 143.593334 
L 222.075758 143.605889 
L 217.378788 143.242993 
L 212.681818 144.987072 
L 207.984848 142.632535 
L 203.287879 144.195619 
L 198.590909 141.373569 
L 193.893939 146.851605 
L 189.19697 144.104119 
L 184.5 142.952369 
L 179.80303 144.034217 
L 175.106061 144.552996 
L 170.409091 143.313725 
L 165.712121 149.951312 
L 161.015152 145.379578 
L 156.318182 149.160602 
L 151.621212 146.763928 
L 146.924242 150.928605 
L 142.227273 153.561603 
L 137.530303 152.802755 
L 132.833333 155.177926 
L 128.136364 156.837172 
L 123.439394 156.981508 
L 118.742424 157.5702 
L 114.045455 161.201942 
L 109.348485 161.876669 
L 104.651515 167.620009 
L 99.954545 169.481682 
L 95.257576 177.375765 
L 90.560606 176.868 
L 85.863636 181.843201 
L 81.166667 185.915151 
L 76.469697 199.329446 
L 71.772727 207.714347 
L 67.075758 226.289133 
L 62.378788 253.136658 
L 57.681818 294.798367 
z
" clip-path="url(#p202f4240e5)" style="fill: #e377c2; fill-opacity: 0.2"/>
   </g>
   <g id="PolyCollection_8">
    <path d="M 57.681818 282.509291 
L 57.681818 294.646309 
L 62.378788 190.054294 
L 67.075758 165.572075 
L 71.772727 152.905664 
L 76.469697 137.232356 
L 81.166667 134.23148 
L 85.863636 133.41564 
L 90.560606 121.859074 
L 95.257576 118.144053 
L 99.954545 117.492539 
L 104.651515 115.681952 
L 109.348485 110.415617 
L 114.045455 108.218428 
L 118.742424 101.389286 
L 123.439394 99.505082 
L 128.136364 101.553768 
L 132.833333 101.222955 
L 137.530303 93.399768 
L 142.227273 98.233085 
L 146.924242 92.177143 
L 151.621212 93.993191 
L 156.318182 88.696712 
L 161.015152 90.510745 
L 165.712121 89.121488 
L 170.409091 84.718068 
L 175.106061 86.741143 
L 179.80303 85.1554 
L 184.5 85.909714 
L 189.19697 85.815 
L 193.893939 85.699 
L 198.590909 87.527486 
L 203.287879 85.257776 
L 207.984848 83.40724 
L 212.681818 87.8734 
L 217.378788 87.012241 
L 222.075758 82.804738 
L 226.772727 79.789453 
L 231.469697 76.383856 
L 236.166667 77.509349 
L 240.863636 79.248242 
L 245.560606 81.081026 
L 250.257576 80.227349 
L 254.954545 78.25762 
L 259.651515 80.57573 
L 264.348485 73.953349 
L 269.045455 77.851498 
L 273.742424 78.142176 
L 278.439394 72.873288 
L 283.136364 76.465712 
L 287.833333 78.846154 
L 292.530303 75.124981 
L 297.227273 73.678714 
L 301.924242 75.300246 
L 306.621212 73.151143 
L 311.318182 75.561745 
L 311.318182 71.062655 
L 311.318182 71.062655 
L 306.621212 68.037257 
L 301.924242 71.324154 
L 297.227273 69.684086 
L 292.530303 69.868619 
L 287.833333 71.583446 
L 283.136364 71.789488 
L 278.439394 69.945912 
L 273.742424 72.287424 
L 269.045455 74.752502 
L 264.348485 71.583851 
L 259.651515 74.74627 
L 254.954545 70.54118 
L 250.257576 76.725451 
L 245.560606 76.958974 
L 240.863636 73.355758 
L 236.166667 74.007451 
L 231.469697 74.045744 
L 226.772727 76.619747 
L 222.075758 77.409662 
L 217.378788 79.181759 
L 212.681818 83.213 
L 207.984848 79.52516 
L 203.287879 79.849024 
L 198.590909 82.471714 
L 193.893939 81.0386 
L 189.19697 83.097 
L 184.5 81.915086 
L 179.80303 80.495 
L 175.106061 81.627257 
L 170.409091 80.932332 
L 165.712121 84.139312 
L 161.015152 86.011655 
L 156.318182 84.020488 
L 151.621212 86.334409 
L 146.924242 87.063257 
L 142.227273 89.161315 
L 137.530303 89.102232 
L 132.833333 94.325445 
L 128.136364 97.256232 
L 123.439394 93.868918 
L 118.742424 96.333514 
L 114.045455 103.637972 
L 109.348485 103.615183 
L 104.651515 109.764448 
L 99.954545 107.410261 
L 95.257576 113.281947 
L 90.560606 118.808126 
L 85.863636 123.01596 
L 81.166667 126.00532 
L 76.469697 131.702044 
L 71.772727 145.383136 
L 67.075758 159.896725 
L 62.378788 185.425706 
L 57.681818 282.509291 
z
" clip-path="url(#p202f4240e5)" style="fill: #7f7f7f; fill-opacity: 0.2"/>
   </g>
   <g id="matplotlib.axis_1">
    <g id="xtick_1">
     <g id="line2d_1">
      <path d="M 52.984848 378 
L 52.984848 51.84 
" clip-path="url(#p202f4240e5)" style="fill: none; stroke: #b0b0b0; stroke-width: 0.8; stroke-linecap: square"/>
     </g>
     <g id="line2d_2">
      <defs>
       <path id="m53a88cc7be" d="M 0 0 
L 0 3.5 
" style="stroke: #000000; stroke-width: 0.8"/>
      </defs>
      <g>
       <use xlink:href="#m53a88cc7be" x="52.984848" y="378" style="stroke: #000000; stroke-width: 0.8"/>
      </g>
     </g>
     <g id="text_1">
      <!-- 0 -->
      <g transform="translate(49.803598 392.598437)scale(0.1 -0.1)">
       <defs>
        <path id="DejaVuSans-30" d="M 2034 4250 
Q 1547 4250 1301 3770 
Q 1056 3291 1056 2328 
Q 1056 1369 1301 889 
Q 1547 409 2034 409 
Q 2525 409 2770 889 
Q 3016 1369 3016 2328 
Q 3016 3291 2770 3770 
Q 2525 4250 2034 4250 
z
M 2034 4750 
Q 2819 4750 3233 4129 
Q 3647 3509 3647 2328 
Q 3647 1150 3233 529 
Q 2819 -91 2034 -91 
Q 1250 -91 836 529 
Q 422 1150 422 2328 
Q 422 3509 836 4129 
Q 1250 4750 2034 4750 
z
" transform="scale(0.015625)"/>
       </defs>
       <use xlink:href="#DejaVuSans-30"/>
      </g>
     </g>
    </g>
    <g id="xtick_2">
     <g id="line2d_3">
      <path d="M 99.954545 378 
L 99.954545 51.84 
" clip-path="url(#p202f4240e5)" style="fill: none; stroke: #b0b0b0; stroke-width: 0.8; stroke-linecap: square"/>
     </g>
     <g id="line2d_4">
      <g>
       <use xlink:href="#m53a88cc7be" x="99.954545" y="378" style="stroke: #000000; stroke-width: 0.8"/>
      </g>
     </g>
     <g id="text_2">
      <!-- 10 -->
      <g transform="translate(93.592045 392.598437)scale(0.1 -0.1)">
       <defs>
        <path id="DejaVuSans-31" d="M 794 531 
L 1825 531 
L 1825 4091 
L 703 3866 
L 703 4441 
L 1819 4666 
L 2450 4666 
L 2450 531 
L 3481 531 
L 3481 0 
L 794 0 
L 794 531 
z
" transform="scale(0.015625)"/>
       </defs>
       <use xlink:href="#DejaVuSans-31"/>
       <use xlink:href="#DejaVuSans-30" x="63.623047"/>
      </g>
     </g>
    </g>
    <g id="xtick_3">
     <g id="line2d_5">
      <path d="M 146.924242 378 
L 146.924242 51.84 
" clip-path="url(#p202f4240e5)" style="fill: none; stroke: #b0b0b0; stroke-width: 0.8; stroke-linecap: square"/>
     </g>
     <g id="line2d_6">
      <g>
       <use xlink:href="#m53a88cc7be" x="146.924242" y="378" style="stroke: #000000; stroke-width: 0.8"/>
      </g>
     </g>
     <g id="text_3">
      <!-- 20 -->
      <g transform="translate(140.561742 392.598437)scale(0.1 -0.1)">
       <defs>
        <path id="DejaVuSans-32" d="M 1228 531 
L 3431 531 
L 3431 0 
L 469 0 
L 469 531 
Q 828 903 1448 1529 
Q 2069 2156 2228 2338 
Q 2531 2678 2651 2914 
Q 2772 3150 2772 3378 
Q 2772 3750 2511 3984 
Q 2250 4219 1831 4219 
Q 1534 4219 1204 4116 
Q 875 4013 500 3803 
L 500 4441 
Q 881 4594 1212 4672 
Q 1544 4750 1819 4750 
Q 2544 4750 2975 4387 
Q 3406 4025 3406 3419 
Q 3406 3131 3298 2873 
Q 3191 2616 2906 2266 
Q 2828 2175 2409 1742 
Q 1991 1309 1228 531 
z
" transform="scale(0.015625)"/>
       </defs>
       <use xlink:href="#DejaVuSans-32"/>
       <use xlink:href="#DejaVuSans-30" x="63.623047"/>
      </g>
     </g>
    </g>
    <g id="xtick_4">
     <g id="line2d_7">
      <path d="M 193.893939 378 
L 193.893939 51.84 
" clip-path="url(#p202f4240e5)" style="fill: none; stroke: #b0b0b0; stroke-width: 0.8; stroke-linecap: square"/>
     </g>
     <g id="line2d_8">
      <g>
       <use xlink:href="#m53a88cc7be" x="193.893939" y="378" style="stroke: #000000; stroke-width: 0.8"/>
      </g>
     </g>
     <g id="text_4">
      <!-- 30 -->
      <g transform="translate(187.531439 392.598437)scale(0.1 -0.1)">
       <defs>
        <path id="DejaVuSans-33" d="M 2597 2516 
Q 3050 2419 3304 2112 
Q 3559 1806 3559 1356 
Q 3559 666 3084 287 
Q 2609 -91 1734 -91 
Q 1441 -91 1130 -33 
Q 819 25 488 141 
L 488 750 
Q 750 597 1062 519 
Q 1375 441 1716 441 
Q 2309 441 2620 675 
Q 2931 909 2931 1356 
Q 2931 1769 2642 2001 
Q 2353 2234 1838 2234 
L 1294 2234 
L 1294 2753 
L 1863 2753 
Q 2328 2753 2575 2939 
Q 2822 3125 2822 3475 
Q 2822 3834 2567 4026 
Q 2313 4219 1838 4219 
Q 1578 4219 1281 4162 
Q 984 4106 628 3988 
L 628 4550 
Q 988 4650 1302 4700 
Q 1616 4750 1894 4750 
Q 2613 4750 3031 4423 
Q 3450 4097 3450 3541 
Q 3450 3153 3228 2886 
Q 3006 2619 2597 2516 
z
" transform="scale(0.015625)"/>
       </defs>
       <use xlink:href="#DejaVuSans-33"/>
       <use xlink:href="#DejaVuSans-30" x="63.623047"/>
      </g>
     </g>
    </g>
    <g id="xtick_5">
     <g id="line2d_9">
      <path d="M 240.863636 378 
L 240.863636 51.84 
" clip-path="url(#p202f4240e5)" style="fill: none; stroke: #b0b0b0; stroke-width: 0.8; stroke-linecap: square"/>
     </g>
     <g id="line2d_10">
      <g>
       <use xlink:href="#m53a88cc7be" x="240.863636" y="378" style="stroke: #000000; stroke-width: 0.8"/>
      </g>
     </g>
     <g id="text_5">
      <!-- 40 -->
      <g transform="translate(234.501136 392.598437)scale(0.1 -0.1)">
       <defs>
        <path id="DejaVuSans-34" d="M 2419 4116 
L 825 1625 
L 2419 1625 
L 2419 4116 
z
M 2253 4666 
L 3047 4666 
L 3047 1625 
L 3713 1625 
L 3713 1100 
L 3047 1100 
L 3047 0 
L 2419 0 
L 2419 1100 
L 313 1100 
L 313 1709 
L 2253 4666 
z
" transform="scale(0.015625)"/>
       </defs>
       <use xlink:href="#DejaVuSans-34"/>
       <use xlink:href="#DejaVuSans-30" x="63.623047"/>
      </g>
     </g>
    </g>
    <g id="xtick_6">
     <g id="line2d_11">
      <path d="M 287.833333 378 
L 287.833333 51.84 
" clip-path="url(#p202f4240e5)" style="fill: none; stroke: #b0b0b0; stroke-width: 0.8; stroke-linecap: square"/>
     </g>
     <g id="line2d_12">
      <g>
       <use xlink:href="#m53a88cc7be" x="287.833333" y="378" style="stroke: #000000; stroke-width: 0.8"/>
      </g>
     </g>
     <g id="text_6">
      <!-- 50 -->
      <g transform="translate(281.470833 392.598437)scale(0.1 -0.1)">
       <defs>
        <path id="DejaVuSans-35" d="M 691 4666 
L 3169 4666 
L 3169 4134 
L 1269 4134 
L 1269 2991 
Q 1406 3038 1543 3061 
Q 1681 3084 1819 3084 
Q 2600 3084 3056 2656 
Q 3513 2228 3513 1497 
Q 3513 744 3044 326 
Q 2575 -91 1722 -91 
Q 1428 -91 1123 -41 
Q 819 9 494 109 
L 494 744 
Q 775 591 1075 516 
Q 1375 441 1709 441 
Q 2250 441 2565 725 
Q 2881 1009 2881 1497 
Q 2881 1984 2565 2268 
Q 2250 2553 1709 2553 
Q 1456 2553 1204 2497 
Q 953 2441 691 2322 
L 691 4666 
z
" transform="scale(0.015625)"/>
       </defs>
       <use xlink:href="#DejaVuSans-35"/>
       <use xlink:href="#DejaVuSans-30" x="63.623047"/>
      </g>
     </g>
    </g>
    <g id="text_7">
     <!-- Epochs -->
     <g transform="translate(166.584375 406.276563)scale(0.1 -0.1)">
      <defs>
       <path id="DejaVuSans-45" d="M 628 4666 
L 3578 4666 
L 3578 4134 
L 1259 4134 
L 1259 2753 
L 3481 2753 
L 3481 2222 
L 1259 2222 
L 1259 531 
L 3634 531 
L 3634 0 
L 628 0 
L 628 4666 
z
" transform="scale(0.015625)"/>
       <path id="DejaVuSans-70" d="M 1159 525 
L 1159 -1331 
L 581 -1331 
L 581 3500 
L 1159 3500 
L 1159 2969 
Q 1341 3281 1617 3432 
Q 1894 3584 2278 3584 
Q 2916 3584 3314 3078 
Q 3713 2572 3713 1747 
Q 3713 922 3314 415 
Q 2916 -91 2278 -91 
Q 1894 -91 1617 61 
Q 1341 213 1159 525 
z
M 3116 1747 
Q 3116 2381 2855 2742 
Q 2594 3103 2138 3103 
Q 1681 3103 1420 2742 
Q 1159 2381 1159 1747 
Q 1159 1113 1420 752 
Q 1681 391 2138 391 
Q 2594 391 2855 752 
Q 3116 1113 3116 1747 
z
" transform="scale(0.015625)"/>
       <path id="DejaVuSans-6f" d="M 1959 3097 
Q 1497 3097 1228 2736 
Q 959 2375 959 1747 
Q 959 1119 1226 758 
Q 1494 397 1959 397 
Q 2419 397 2687 759 
Q 2956 1122 2956 1747 
Q 2956 2369 2687 2733 
Q 2419 3097 1959 3097 
z
M 1959 3584 
Q 2709 3584 3137 3096 
Q 3566 2609 3566 1747 
Q 3566 888 3137 398 
Q 2709 -91 1959 -91 
Q 1206 -91 779 398 
Q 353 888 353 1747 
Q 353 2609 779 3096 
Q 1206 3584 1959 3584 
z
" transform="scale(0.015625)"/>
       <path id="DejaVuSans-63" d="M 3122 3366 
L 3122 2828 
Q 2878 2963 2633 3030 
Q 2388 3097 2138 3097 
Q 1578 3097 1268 2742 
Q 959 2388 959 1747 
Q 959 1106 1268 751 
Q 1578 397 2138 397 
Q 2388 397 2633 464 
Q 2878 531 3122 666 
L 3122 134 
Q 2881 22 2623 -34 
Q 2366 -91 2075 -91 
Q 1284 -91 818 406 
Q 353 903 353 1747 
Q 353 2603 823 3093 
Q 1294 3584 2113 3584 
Q 2378 3584 2631 3529 
Q 2884 3475 3122 3366 
z
" transform="scale(0.015625)"/>
       <path id="DejaVuSans-68" d="M 3513 2113 
L 3513 0 
L 2938 0 
L 2938 2094 
Q 2938 2591 2744 2837 
Q 2550 3084 2163 3084 
Q 1697 3084 1428 2787 
Q 1159 2491 1159 1978 
L 1159 0 
L 581 0 
L 581 4863 
L 1159 4863 
L 1159 2956 
Q 1366 3272 1645 3428 
Q 1925 3584 2291 3584 
Q 2894 3584 3203 3211 
Q 3513 2838 3513 2113 
z
" transform="scale(0.015625)"/>
       <path id="DejaVuSans-73" d="M 2834 3397 
L 2834 2853 
Q 2591 2978 2328 3040 
Q 2066 3103 1784 3103 
Q 1356 3103 1142 2972 
Q 928 2841 928 2578 
Q 928 2378 1081 2264 
Q 1234 2150 1697 2047 
L 1894 2003 
Q 2506 1872 2764 1633 
Q 3022 1394 3022 966 
Q 3022 478 2636 193 
Q 2250 -91 1575 -91 
Q 1294 -91 989 -36 
Q 684 19 347 128 
L 347 722 
Q 666 556 975 473 
Q 1284 391 1588 391 
Q 1994 391 2212 530 
Q 2431 669 2431 922 
Q 2431 1156 2273 1281 
Q 2116 1406 1581 1522 
L 1381 1569 
Q 847 1681 609 1914 
Q 372 2147 372 2553 
Q 372 3047 722 3315 
Q 1072 3584 1716 3584 
Q 2034 3584 2315 3537 
Q 2597 3491 2834 3397 
z
" transform="scale(0.015625)"/>
      </defs>
      <use xlink:href="#DejaVuSans-45"/>
      <use xlink:href="#DejaVuSans-70" x="63.183594"/>
      <use xlink:href="#DejaVuSans-6f" x="126.660156"/>
      <use xlink:href="#DejaVuSans-63" x="187.841797"/>
      <use xlink:href="#DejaVuSans-68" x="242.822266"/>
      <use xlink:href="#DejaVuSans-73" x="306.201172"/>
     </g>
    </g>
   </g>
   <g id="matplotlib.axis_2">
    <g id="ytick_1">
     <g id="line2d_13">
      <path d="M 45 378 
L 324 378 
" clip-path="url(#p202f4240e5)" style="fill: none; stroke: #b0b0b0; stroke-width: 0.8; stroke-linecap: square"/>
     </g>
     <g id="line2d_14">
      <defs>
       <path id="m14e0d04a61" d="M 0 0 
L -3.5 0 
" style="stroke: #000000; stroke-width: 0.8"/>
      </defs>
      <g>
       <use xlink:href="#m14e0d04a61" x="45" y="378" style="stroke: #000000; stroke-width: 0.8"/>
      </g>
     </g>
     <g id="text_8">
      <!-- 0.65 -->
      <g transform="translate(15.734375 381.799219)scale(0.1 -0.1)">
       <defs>
        <path id="DejaVuSans-2e" d="M 684 794 
L 1344 794 
L 1344 0 
L 684 0 
L 684 794 
z
" transform="scale(0.015625)"/>
        <path id="DejaVuSans-36" d="M 2113 2584 
Q 1688 2584 1439 2293 
Q 1191 2003 1191 1497 
Q 1191 994 1439 701 
Q 1688 409 2113 409 
Q 2538 409 2786 701 
Q 3034 994 3034 1497 
Q 3034 2003 2786 2293 
Q 2538 2584 2113 2584 
z
M 3366 4563 
L 3366 3988 
Q 3128 4100 2886 4159 
Q 2644 4219 2406 4219 
Q 1781 4219 1451 3797 
Q 1122 3375 1075 2522 
Q 1259 2794 1537 2939 
Q 1816 3084 2150 3084 
Q 2853 3084 3261 2657 
Q 3669 2231 3669 1497 
Q 3669 778 3244 343 
Q 2819 -91 2113 -91 
Q 1303 -91 875 529 
Q 447 1150 447 2328 
Q 447 3434 972 4092 
Q 1497 4750 2381 4750 
Q 2619 4750 2861 4703 
Q 3103 4656 3366 4563 
z
" transform="scale(0.015625)"/>
       </defs>
       <use xlink:href="#DejaVuSans-30"/>
       <use xlink:href="#DejaVuSans-2e" x="63.623047"/>
       <use xlink:href="#DejaVuSans-36" x="95.410156"/>
       <use xlink:href="#DejaVuSans-35" x="159.033203"/>
      </g>
     </g>
    </g>
    <g id="ytick_2">
     <g id="line2d_15">
      <path d="M 45 312.768 
L 324 312.768 
" clip-path="url(#p202f4240e5)" style="fill: none; stroke: #b0b0b0; stroke-width: 0.8; stroke-linecap: square"/>
     </g>
     <g id="line2d_16">
      <g>
       <use xlink:href="#m14e0d04a61" x="45" y="312.768" style="stroke: #000000; stroke-width: 0.8"/>
      </g>
     </g>
     <g id="text_9">
      <!-- 0.70 -->
      <g transform="translate(15.734375 316.567219)scale(0.1 -0.1)">
       <defs>
        <path id="DejaVuSans-37" d="M 525 4666 
L 3525 4666 
L 3525 4397 
L 1831 0 
L 1172 0 
L 2766 4134 
L 525 4134 
L 525 4666 
z
" transform="scale(0.015625)"/>
       </defs>
       <use xlink:href="#DejaVuSans-30"/>
       <use xlink:href="#DejaVuSans-2e" x="63.623047"/>
       <use xlink:href="#DejaVuSans-37" x="95.410156"/>
       <use xlink:href="#DejaVuSans-30" x="159.033203"/>
      </g>
     </g>
    </g>
    <g id="ytick_3">
     <g id="line2d_17">
      <path d="M 45 247.536 
L 324 247.536 
" clip-path="url(#p202f4240e5)" style="fill: none; stroke: #b0b0b0; stroke-width: 0.8; stroke-linecap: square"/>
     </g>
     <g id="line2d_18">
      <g>
       <use xlink:href="#m14e0d04a61" x="45" y="247.536" style="stroke: #000000; stroke-width: 0.8"/>
      </g>
     </g>
     <g id="text_10">
      <!-- 0.75 -->
      <g transform="translate(15.734375 251.335219)scale(0.1 -0.1)">
       <use xlink:href="#DejaVuSans-30"/>
       <use xlink:href="#DejaVuSans-2e" x="63.623047"/>
       <use xlink:href="#DejaVuSans-37" x="95.410156"/>
       <use xlink:href="#DejaVuSans-35" x="159.033203"/>
      </g>
     </g>
    </g>
    <g id="ytick_4">
     <g id="line2d_19">
      <path d="M 45 182.304 
L 324 182.304 
" clip-path="url(#p202f4240e5)" style="fill: none; stroke: #b0b0b0; stroke-width: 0.8; stroke-linecap: square"/>
     </g>
     <g id="line2d_20">
      <g>
       <use xlink:href="#m14e0d04a61" x="45" y="182.304" style="stroke: #000000; stroke-width: 0.8"/>
      </g>
     </g>
     <g id="text_11">
      <!-- 0.80 -->
      <g transform="translate(15.734375 186.103219)scale(0.1 -0.1)">
       <defs>
        <path id="DejaVuSans-38" d="M 2034 2216 
Q 1584 2216 1326 1975 
Q 1069 1734 1069 1313 
Q 1069 891 1326 650 
Q 1584 409 2034 409 
Q 2484 409 2743 651 
Q 3003 894 3003 1313 
Q 3003 1734 2745 1975 
Q 2488 2216 2034 2216 
z
M 1403 2484 
Q 997 2584 770 2862 
Q 544 3141 544 3541 
Q 544 4100 942 4425 
Q 1341 4750 2034 4750 
Q 2731 4750 3128 4425 
Q 3525 4100 3525 3541 
Q 3525 3141 3298 2862 
Q 3072 2584 2669 2484 
Q 3125 2378 3379 2068 
Q 3634 1759 3634 1313 
Q 3634 634 3220 271 
Q 2806 -91 2034 -91 
Q 1263 -91 848 271 
Q 434 634 434 1313 
Q 434 1759 690 2068 
Q 947 2378 1403 2484 
z
M 1172 3481 
Q 1172 3119 1398 2916 
Q 1625 2713 2034 2713 
Q 2441 2713 2670 2916 
Q 2900 3119 2900 3481 
Q 2900 3844 2670 4047 
Q 2441 4250 2034 4250 
Q 1625 4250 1398 4047 
Q 1172 3844 1172 3481 
z
" transform="scale(0.015625)"/>
       </defs>
       <use xlink:href="#DejaVuSans-30"/>
       <use xlink:href="#DejaVuSans-2e" x="63.623047"/>
       <use xlink:href="#DejaVuSans-38" x="95.410156"/>
       <use xlink:href="#DejaVuSans-30" x="159.033203"/>
      </g>
     </g>
    </g>
    <g id="ytick_5">
     <g id="line2d_21">
      <path d="M 45 117.072 
L 324 117.072 
" clip-path="url(#p202f4240e5)" style="fill: none; stroke: #b0b0b0; stroke-width: 0.8; stroke-linecap: square"/>
     </g>
     <g id="line2d_22">
      <g>
       <use xlink:href="#m14e0d04a61" x="45" y="117.072" style="stroke: #000000; stroke-width: 0.8"/>
      </g>
     </g>
     <g id="text_12">
      <!-- 0.85 -->
      <g transform="translate(15.734375 120.871219)scale(0.1 -0.1)">
       <use xlink:href="#DejaVuSans-30"/>
       <use xlink:href="#DejaVuSans-2e" x="63.623047"/>
       <use xlink:href="#DejaVuSans-38" x="95.410156"/>
       <use xlink:href="#DejaVuSans-35" x="159.033203"/>
      </g>
     </g>
    </g>
    <g id="ytick_6">
     <g id="line2d_23">
      <path d="M 45 51.84 
L 324 51.84 
" clip-path="url(#p202f4240e5)" style="fill: none; stroke: #b0b0b0; stroke-width: 0.8; stroke-linecap: square"/>
     </g>
     <g id="line2d_24">
      <g>
       <use xlink:href="#m14e0d04a61" x="45" y="51.84" style="stroke: #000000; stroke-width: 0.8"/>
      </g>
     </g>
     <g id="text_13">
      <!-- 0.90 -->
      <g transform="translate(15.734375 55.639219)scale(0.1 -0.1)">
       <defs>
        <path id="DejaVuSans-39" d="M 703 97 
L 703 672 
Q 941 559 1184 500 
Q 1428 441 1663 441 
Q 2288 441 2617 861 
Q 2947 1281 2994 2138 
Q 2813 1869 2534 1725 
Q 2256 1581 1919 1581 
Q 1219 1581 811 2004 
Q 403 2428 403 3163 
Q 403 3881 828 4315 
Q 1253 4750 1959 4750 
Q 2769 4750 3195 4129 
Q 3622 3509 3622 2328 
Q 3622 1225 3098 567 
Q 2575 -91 1691 -91 
Q 1453 -91 1209 -44 
Q 966 3 703 97 
z
M 1959 2075 
Q 2384 2075 2632 2365 
Q 2881 2656 2881 3163 
Q 2881 3666 2632 3958 
Q 2384 4250 1959 4250 
Q 1534 4250 1286 3958 
Q 1038 3666 1038 3163 
Q 1038 2656 1286 2365 
Q 1534 2075 1959 2075 
z
" transform="scale(0.015625)"/>
       </defs>
       <use xlink:href="#DejaVuSans-30"/>
       <use xlink:href="#DejaVuSans-2e" x="63.623047"/>
       <use xlink:href="#DejaVuSans-39" x="95.410156"/>
       <use xlink:href="#DejaVuSans-30" x="159.033203"/>
      </g>
     </g>
    </g>
    <g id="text_14">
     <!-- Accuracy ($\bar{x} \pm s \div \sqrt{N}$) -->
     <g transform="translate(9.634375 269.17)rotate(-90)scale(0.1 -0.1)">
      <defs>
       <path id="DejaVuSans-41" d="M 2188 4044 
L 1331 1722 
L 3047 1722 
L 2188 4044 
z
M 1831 4666 
L 2547 4666 
L 4325 0 
L 3669 0 
L 3244 1197 
L 1141 1197 
L 716 0 
L 50 0 
L 1831 4666 
z
" transform="scale(0.015625)"/>
       <path id="DejaVuSans-75" d="M 544 1381 
L 544 3500 
L 1119 3500 
L 1119 1403 
Q 1119 906 1312 657 
Q 1506 409 1894 409 
Q 2359 409 2629 706 
Q 2900 1003 2900 1516 
L 2900 3500 
L 3475 3500 
L 3475 0 
L 2900 0 
L 2900 538 
Q 2691 219 2414 64 
Q 2138 -91 1772 -91 
Q 1169 -91 856 284 
Q 544 659 544 1381 
z
M 1991 3584 
L 1991 3584 
z
" transform="scale(0.015625)"/>
       <path id="DejaVuSans-72" d="M 2631 2963 
Q 2534 3019 2420 3045 
Q 2306 3072 2169 3072 
Q 1681 3072 1420 2755 
Q 1159 2438 1159 1844 
L 1159 0 
L 581 0 
L 581 3500 
L 1159 3500 
L 1159 2956 
Q 1341 3275 1631 3429 
Q 1922 3584 2338 3584 
Q 2397 3584 2469 3576 
Q 2541 3569 2628 3553 
L 2631 2963 
z
" transform="scale(0.015625)"/>
       <path id="DejaVuSans-61" d="M 2194 1759 
Q 1497 1759 1228 1600 
Q 959 1441 959 1056 
Q 959 750 1161 570 
Q 1363 391 1709 391 
Q 2188 391 2477 730 
Q 2766 1069 2766 1631 
L 2766 1759 
L 2194 1759 
z
M 3341 1997 
L 3341 0 
L 2766 0 
L 2766 531 
Q 2569 213 2275 61 
Q 1981 -91 1556 -91 
Q 1019 -91 701 211 
Q 384 513 384 1019 
Q 384 1609 779 1909 
Q 1175 2209 1959 2209 
L 2766 2209 
L 2766 2266 
Q 2766 2663 2505 2880 
Q 2244 3097 1772 3097 
Q 1472 3097 1187 3025 
Q 903 2953 641 2809 
L 641 3341 
Q 956 3463 1253 3523 
Q 1550 3584 1831 3584 
Q 2591 3584 2966 3190 
Q 3341 2797 3341 1997 
z
" transform="scale(0.015625)"/>
       <path id="DejaVuSans-79" d="M 2059 -325 
Q 1816 -950 1584 -1140 
Q 1353 -1331 966 -1331 
L 506 -1331 
L 506 -850 
L 844 -850 
Q 1081 -850 1212 -737 
Q 1344 -625 1503 -206 
L 1606 56 
L 191 3500 
L 800 3500 
L 1894 763 
L 2988 3500 
L 3597 3500 
L 2059 -325 
z
" transform="scale(0.015625)"/>
       <path id="DejaVuSans-20" transform="scale(0.015625)"/>
       <path id="DejaVuSans-28" d="M 1984 4856 
Q 1566 4138 1362 3434 
Q 1159 2731 1159 2009 
Q 1159 1288 1364 580 
Q 1569 -128 1984 -844 
L 1484 -844 
Q 1016 -109 783 600 
Q 550 1309 550 2009 
Q 550 2706 781 3412 
Q 1013 4119 1484 4856 
L 1984 4856 
z
" transform="scale(0.015625)"/>
       <path id="DejaVuSans-304" d="M -2518 4769 
L -650 4769 
L -650 4306 
L -2518 4306 
L -2518 4769 
z
" transform="scale(0.015625)"/>
       <path id="DejaVuSans-Oblique-78" d="M 3841 3500 
L 2234 1784 
L 3219 0 
L 2559 0 
L 1819 1388 
L 531 0 
L -166 0 
L 1556 1844 
L 641 3500 
L 1300 3500 
L 1972 2234 
L 3144 3500 
L 3841 3500 
z
" transform="scale(0.015625)"/>
       <path id="DejaVuSans-b1" d="M 2944 4013 
L 2944 2803 
L 4684 2803 
L 4684 2272 
L 2944 2272 
L 2944 1063 
L 2419 1063 
L 2419 2272 
L 678 2272 
L 678 2803 
L 2419 2803 
L 2419 4013 
L 2944 4013 
z
M 678 531 
L 4684 531 
L 4684 0 
L 678 0 
L 678 531 
z
" transform="scale(0.015625)"/>
       <path id="DejaVuSans-Oblique-73" d="M 3200 3397 
L 3091 2853 
Q 2863 2978 2609 3040 
Q 2356 3103 2088 3103 
Q 1634 3103 1373 2948 
Q 1113 2794 1113 2528 
Q 1113 2219 1719 2053 
Q 1766 2041 1788 2034 
L 1972 1978 
Q 2547 1819 2739 1644 
Q 2931 1469 2931 1166 
Q 2931 609 2489 259 
Q 2047 -91 1331 -91 
Q 1053 -91 747 -37 
Q 441 16 72 128 
L 184 722 
Q 500 559 806 475 
Q 1113 391 1394 391 
Q 1816 391 2080 572 
Q 2344 753 2344 1031 
Q 2344 1331 1650 1516 
L 1591 1531 
L 1394 1581 
Q 956 1697 753 1886 
Q 550 2075 550 2369 
Q 550 2928 970 3256 
Q 1391 3584 2113 3584 
Q 2397 3584 2667 3537 
Q 2938 3491 3200 3397 
z
" transform="scale(0.015625)"/>
       <path id="DejaVuSans-f7" d="M 2297 3547 
L 3066 3547 
L 3066 2778 
L 2297 2778 
L 2297 3547 
z
M 2297 1234 
L 3066 1234 
L 3066 469 
L 2297 469 
L 2297 1234 
z
M 678 2272 
L 4684 2272 
L 4684 1741 
L 678 1741 
L 678 2272 
z
" transform="scale(0.015625)"/>
       <path id="STIXSizeOneSym-Regular-221a" d="M 6970 9933 
L 3373 -1888 
L 3104 -1888 
L 1626 2918 
Q 1555 3149 1465 3251 
Q 1376 3354 1229 3354 
Q 1011 3354 794 3181 
L 717 3309 
L 1766 4115 
L 1926 4115 
L 3379 -602 
L 3405 -602 
L 6605 9933 
L 6970 9933 
z
" transform="scale(0.015625)"/>
       <path id="DejaVuSans-Oblique-4e" d="M 1081 4666 
L 1931 4666 
L 3219 666 
L 4000 4666 
L 4616 4666 
L 3706 0 
L 2853 0 
L 1569 4025 
L 788 0 
L 172 0 
L 1081 4666 
z
" transform="scale(0.015625)"/>
       <path id="DejaVuSans-29" d="M 513 4856 
L 1013 4856 
Q 1481 4119 1714 3412 
Q 1947 2706 1947 2009 
Q 1947 1309 1714 600 
Q 1481 -109 1013 -844 
L 513 -844 
Q 928 -128 1133 580 
Q 1338 1288 1338 2009 
Q 1338 2731 1133 3434 
Q 928 4138 513 4856 
z
" transform="scale(0.015625)"/>
      </defs>
      <use xlink:href="#DejaVuSans-41" transform="translate(0 0.578125)"/>
      <use xlink:href="#DejaVuSans-63" transform="translate(68.408203 0.578125)"/>
      <use xlink:href="#DejaVuSans-63" transform="translate(123.388672 0.578125)"/>
      <use xlink:href="#DejaVuSans-75" transform="translate(178.369141 0.578125)"/>
      <use xlink:href="#DejaVuSans-72" transform="translate(241.748047 0.578125)"/>
      <use xlink:href="#DejaVuSans-61" transform="translate(282.861328 0.578125)"/>
      <use xlink:href="#DejaVuSans-63" transform="translate(344.140625 0.578125)"/>
      <use xlink:href="#DejaVuSans-79" transform="translate(399.121094 0.578125)"/>
      <use xlink:href="#DejaVuSans-20" transform="translate(458.300781 0.578125)"/>
      <use xlink:href="#DejaVuSans-28" transform="translate(490.087891 0.578125)"/>
      <use xlink:href="#DejaVuSans-304" transform="translate(591.240234 0.484375)"/>
      <use xlink:href="#DejaVuSans-Oblique-78" transform="translate(529.101562 0.578125)"/>
      <use xlink:href="#DejaVuSans-b1" transform="translate(607.763672 0.578125)"/>
      <use xlink:href="#DejaVuSans-Oblique-73" transform="translate(711.035156 0.578125)"/>
      <use xlink:href="#DejaVuSans-f7" transform="translate(782.617188 0.578125)"/>
      <use xlink:href="#STIXSizeOneSym-Regular-221a" transform="translate(885.888672 17.09375)scale(0.563912)"/>
      <use xlink:href="#DejaVuSans-Oblique-4e" transform="translate(957.977036 0.84375)"/>
      <use xlink:href="#DejaVuSans-29" transform="translate(1045.281723 0.578125)"/>
      <path d="M 945.477036 97.5 
L 945.477036 103.75 
L 1045.281723 103.75 
L 1045.281723 97.5 
L 945.477036 97.5 
z
"/>
     </g>
    </g>
   </g>
   <g id="line2d_25">
    <path d="M 57.681818 295.9164 
L 62.378788 208.9404 
L 67.075758 174.15 
L 71.772727 154.0368 
L 76.469697 142.893 
L 81.166667 137.457 
L 85.863636 125.226 
L 90.560606 119.5182 
L 95.257576 117.8874 
L 99.954545 117.072 
L 104.651515 112.7232 
L 109.348485 113.2668 
L 114.045455 115.4412 
L 118.742424 108.3744 
L 123.439394 110.277 
L 128.136364 108.918 
L 132.833333 107.0154 
L 137.530303 111.9078 
L 142.227273 103.7538 
L 146.924242 107.559 
L 151.621212 106.7436 
L 156.318182 107.559 
L 161.015152 108.3744 
L 165.712121 105.9282 
L 170.409091 106.7436 
L 175.106061 110.0052 
L 179.80303 105.1128 
L 184.5 105.9282 
L 189.19697 104.5692 
L 193.893939 104.2974 
L 198.590909 105.6564 
" clip-path="url(#p202f4240e5)" style="fill: none; stroke: #1f77b4; stroke-width: 1.5; stroke-linecap: square"/>
   </g>
   <g id="line2d_26">
    <path d="M 57.681818 197.7966 
L 62.378788 146.1546 
L 67.075758 124.1388 
L 71.772727 109.7334 
L 76.469697 100.2204 
L 81.166667 93.1536 
L 85.863636 90.7074 
L 90.560606 85.5432 
L 95.257576 82.5534 
L 99.954545 81.1944 
L 104.651515 79.02 
L 109.348485 76.0302 
L 114.045455 79.2918 
L 118.742424 73.3122 
L 123.439394 74.943 
L 128.136364 70.0506 
L 132.833333 68.9634 
L 137.530303 68.9634 
L 142.227273 68.148 
L 146.924242 63.5274 
L 151.621212 70.3224 
L 156.318182 65.9736 
L 161.015152 64.6146 
L 165.712121 64.8864 
L 170.409091 62.1684 
L 175.106061 63.2556 
L 179.80303 63.2556 
L 184.5 60.2658 
L 189.19697 61.6248 
L 193.893939 60.5376 
" clip-path="url(#p202f4240e5)" style="fill: none; stroke: #ff7f0e; stroke-width: 1.5; stroke-linecap: square"/>
   </g>
   <g id="line2d_27">
    <path d="M 57.681818 416.3238 
L 62.378788 332.3376 
L 67.075758 292.9266 
L 71.772727 272.5416 
L 76.469697 253.7874 
L 81.166667 245.9052 
L 85.863636 229.869 
L 90.560606 230.4126 
L 95.257576 218.4534 
L 99.954545 207.3096 
L 104.651515 201.6018 
L 109.348485 201.6018 
L 114.045455 198.3402 
L 118.742424 194.535 
L 123.439394 190.1862 
L 128.136364 188.8272 
L 132.833333 190.7298 
L 137.530303 183.663 
L 142.227273 184.4784 
L 146.924242 178.227 
L 151.621212 174.9654 
L 156.318182 179.3142 
L 161.015152 176.868 
L 165.712121 174.15 
L 170.409091 174.6936 
L 175.106061 170.3448 
L 179.80303 172.2474 
L 184.5 169.5294 
L 189.19697 169.8012 
L 193.893939 168.4422 
L 198.590909 169.5294 
L 203.287879 168.9858 
L 207.984848 170.3448 
L 212.681818 162.7344 
L 217.378788 163.0062 
" clip-path="url(#p202f4240e5)" style="fill: none; stroke: #2ca02c; stroke-width: 1.5; stroke-linecap: square"/>
   </g>
   <g id="line2d_28">
    <path d="M 57.681818 242.9154 
L 62.378788 163.5498 
L 67.075758 144.252 
L 71.772727 122.7798 
L 76.469697 114.0822 
L 81.166667 110.5488 
L 85.863636 98.8614 
L 90.560606 98.5896 
L 95.257576 93.1536 
L 99.954545 94.5126 
L 104.651515 92.0664 
L 109.348485 89.0766 
L 114.045455 92.61 
L 118.742424 89.6202 
L 123.439394 90.9792 
L 128.136364 86.3586 
L 132.833333 85.815 
L 137.530303 86.6304 
L 142.227273 85.5432 
L 146.924242 83.097 
L 151.621212 83.097 
L 156.318182 82.2816 
L 161.015152 83.097 
L 165.712121 83.3688 
L 170.409091 84.1842 
L 175.106061 82.2816 
L 179.80303 82.2816 
L 184.5 79.8354 
" clip-path="url(#p202f4240e5)" style="fill: none; stroke: #d62728; stroke-width: 1.5; stroke-linecap: square"/>
   </g>
   <g id="line2d_29">
    <path d="M 57.681818 237.2076 
L 62.378788 198.612 
L 67.075758 187.1964 
L 71.772727 182.0322 
L 76.469697 177.4116 
L 81.166667 168.714 
L 85.863636 164.637 
L 90.560606 164.637 
L 95.257576 163.0062 
L 99.954545 160.2882 
L 104.651515 162.4626 
L 109.348485 155.9394 
L 114.045455 157.0266 
L 118.742424 155.3958 
L 123.439394 158.1138 
L 128.136364 155.3958 
L 132.833333 156.483 
L 137.530303 150.7752 
L 142.227273 152.1342 
L 146.924242 156.483 
L 151.621212 153.2214 
" clip-path="url(#p202f4240e5)" style="fill: none; stroke-dasharray: 5.55,2.4; stroke-dashoffset: 0; stroke: #9467bd; stroke-width: 1.5"/>
   </g>
   <g id="line2d_30">
    <path d="M 57.681818 267.3774 
L 62.378788 196.4376 
L 67.075758 166.8114 
L 71.772727 158.6574 
L 76.469697 150.5034 
L 81.166667 142.893 
L 85.863636 137.1852 
L 90.560606 135.8262 
L 95.257576 131.4774 
L 99.954545 126.8568 
L 104.651515 126.0414 
L 109.348485 120.6054 
L 114.045455 123.0516 
L 118.742424 118.1592 
L 123.439394 123.0516 
L 128.136364 112.1796 
L 132.833333 117.3438 
L 137.530303 116.5284 
L 142.227273 118.7028 
L 146.924242 115.9848 
L 151.621212 118.1592 
L 156.318182 111.636 
L 161.015152 116.2566 
L 165.712121 121.6926 
L 170.409091 116.5284 
L 175.106061 113.5386 
" clip-path="url(#p202f4240e5)" style="fill: none; stroke-dasharray: 5.55,2.4; stroke-dashoffset: 0; stroke: #8c564b; stroke-width: 1.5"/>
   </g>
   <g id="line2d_31">
    <path d="M 57.681818 303.7986 
L 62.378788 259.2234 
L 67.075758 230.6844 
L 71.772727 210.843 
L 76.469697 202.9608 
L 81.166667 189.9144 
L 85.863636 184.4784 
L 90.560606 179.0424 
L 95.257576 182.0322 
L 99.954545 174.15 
L 104.651515 173.0628 
L 109.348485 168.4422 
L 114.045455 164.9088 
L 118.742424 161.1036 
L 123.439394 161.919 
L 128.136364 160.8318 
L 132.833333 160.2882 
L 137.530303 157.0266 
L 142.227273 158.6574 
L 146.924242 155.6676 
L 151.621212 154.0368 
L 156.318182 154.8522 
L 161.015152 152.6778 
L 165.712121 156.483 
L 170.409091 149.688 
L 175.106061 150.2316 
L 179.80303 150.5034 
L 184.5 149.1444 
L 189.19697 151.047 
L 193.893939 151.5906 
L 198.590909 147.7854 
L 203.287879 150.7752 
L 207.984848 149.1444 
L 212.681818 150.7752 
L 217.378788 148.8726 
L 222.075758 150.5034 
L 226.772727 150.2316 
" clip-path="url(#p202f4240e5)" style="fill: none; stroke-dasharray: 5.55,2.4; stroke-dashoffset: 0; stroke: #e377c2; stroke-width: 1.5"/>
   </g>
   <g id="line2d_32">
    <path d="M 57.681818 288.5778 
L 62.378788 187.74 
L 67.075758 162.7344 
L 71.772727 149.1444 
L 76.469697 134.4672 
L 81.166667 130.1184 
L 85.863636 128.2158 
L 90.560606 120.3336 
L 95.257576 115.713 
L 99.954545 112.4514 
L 104.651515 112.7232 
L 109.348485 107.0154 
L 114.045455 105.9282 
L 118.742424 98.8614 
L 123.439394 96.687 
L 128.136364 99.405 
L 132.833333 97.7742 
L 137.530303 91.251 
L 142.227273 93.6972 
L 146.924242 89.6202 
L 151.621212 90.1638 
L 156.318182 86.3586 
L 161.015152 88.2612 
L 165.712121 86.6304 
L 170.409091 82.8252 
L 175.106061 84.1842 
L 179.80303 82.8252 
L 184.5 83.9124 
L 189.19697 84.456 
L 193.893939 83.3688 
L 198.590909 84.9996 
L 203.287879 82.5534 
L 207.984848 81.4662 
L 212.681818 85.5432 
L 217.378788 83.097 
L 222.075758 80.1072 
L 226.772727 78.2046 
L 231.469697 75.2148 
L 236.166667 75.7584 
L 240.863636 76.302 
L 245.560606 79.02 
L 250.257576 78.4764 
L 254.954545 74.3994 
L 259.651515 77.661 
L 264.348485 72.7686 
L 269.045455 76.302 
L 273.742424 75.2148 
L 278.439394 71.4096 
L 283.136364 74.1276 
L 287.833333 75.2148 
L 292.530303 72.4968 
L 297.227273 71.6814 
L 301.924242 73.3122 
L 306.621212 70.5942 
L 311.318182 73.3122 
" clip-path="url(#p202f4240e5)" style="fill: none; stroke-dasharray: 5.55,2.4; stroke-dashoffset: 0; stroke: #7f7f7f; stroke-width: 1.5"/>
   </g>
   <g id="patch_3">
    <path d="M 45 378 
L 45 51.84 
" style="fill: none; stroke: #000000; stroke-width: 0.8; stroke-linejoin: miter; stroke-linecap: square"/>
   </g>
   <g id="patch_4">
    <path d="M 324 378 
L 324 51.84 
" style="fill: none; stroke: #000000; stroke-width: 0.8; stroke-linejoin: miter; stroke-linecap: square"/>
   </g>
   <g id="patch_5">
    <path d="M 45 378 
L 324 378 
" style="fill: none; stroke: #000000; stroke-width: 0.8; stroke-linejoin: miter; stroke-linecap: square"/>
   </g>
   <g id="patch_6">
    <path d="M 45 51.84 
L 324 51.84 
" style="fill: none; stroke: #000000; stroke-width: 0.8; stroke-linejoin: miter; stroke-linecap: square"/>
   </g>
   <g id="legend_1">
    <g id="patch_7">
     <path d="M 200.907812 373 
L 317 373 
Q 319 373 319 371 
L 319 252.90625 
Q 319 250.90625 317 250.90625 
L 200.907812 250.90625 
Q 198.907812 250.90625 198.907812 252.90625 
L 198.907812 371 
Q 198.907812 373 200.907812 373 
z
" style="fill: #ffffff; opacity: 0.8; stroke: #cccccc; stroke-linejoin: miter"/>
    </g>
    <g id="line2d_33">
     <path d="M 202.907812 259.004687 
L 212.907812 259.004687 
L 222.907812 259.004687 
" style="fill: none; stroke: #1f77b4; stroke-width: 1.5; stroke-linecap: square"/>
    </g>
    <g id="text_15">
     <!-- vit_b_16 -->
     <g transform="translate(230.907812 262.504687)scale(0.1 -0.1)">
      <defs>
       <path id="DejaVuSans-76" d="M 191 3500 
L 800 3500 
L 1894 563 
L 2988 3500 
L 3597 3500 
L 2284 0 
L 1503 0 
L 191 3500 
z
" transform="scale(0.015625)"/>
       <path id="DejaVuSans-69" d="M 603 3500 
L 1178 3500 
L 1178 0 
L 603 0 
L 603 3500 
z
M 603 4863 
L 1178 4863 
L 1178 4134 
L 603 4134 
L 603 4863 
z
" transform="scale(0.015625)"/>
       <path id="DejaVuSans-74" d="M 1172 4494 
L 1172 3500 
L 2356 3500 
L 2356 3053 
L 1172 3053 
L 1172 1153 
Q 1172 725 1289 603 
Q 1406 481 1766 481 
L 2356 481 
L 2356 0 
L 1766 0 
Q 1100 0 847 248 
Q 594 497 594 1153 
L 594 3053 
L 172 3053 
L 172 3500 
L 594 3500 
L 594 4494 
L 1172 4494 
z
" transform="scale(0.015625)"/>
       <path id="DejaVuSans-5f" d="M 3263 -1063 
L 3263 -1509 
L -63 -1509 
L -63 -1063 
L 3263 -1063 
z
" transform="scale(0.015625)"/>
       <path id="DejaVuSans-62" d="M 3116 1747 
Q 3116 2381 2855 2742 
Q 2594 3103 2138 3103 
Q 1681 3103 1420 2742 
Q 1159 2381 1159 1747 
Q 1159 1113 1420 752 
Q 1681 391 2138 391 
Q 2594 391 2855 752 
Q 3116 1113 3116 1747 
z
M 1159 2969 
Q 1341 3281 1617 3432 
Q 1894 3584 2278 3584 
Q 2916 3584 3314 3078 
Q 3713 2572 3713 1747 
Q 3713 922 3314 415 
Q 2916 -91 2278 -91 
Q 1894 -91 1617 61 
Q 1341 213 1159 525 
L 1159 0 
L 581 0 
L 581 4863 
L 1159 4863 
L 1159 2969 
z
" transform="scale(0.015625)"/>
      </defs>
      <use xlink:href="#DejaVuSans-76"/>
      <use xlink:href="#DejaVuSans-69" x="59.179688"/>
      <use xlink:href="#DejaVuSans-74" x="86.962891"/>
      <use xlink:href="#DejaVuSans-5f" x="126.171875"/>
      <use xlink:href="#DejaVuSans-62" x="176.171875"/>
      <use xlink:href="#DejaVuSans-5f" x="239.648438"/>
      <use xlink:href="#DejaVuSans-31" x="289.648438"/>
      <use xlink:href="#DejaVuSans-36" x="353.271484"/>
     </g>
    </g>
    <g id="line2d_34">
     <path d="M 202.907812 273.960938 
L 212.907812 273.960938 
L 222.907812 273.960938 
" style="fill: none; stroke: #ff7f0e; stroke-width: 1.5; stroke-linecap: square"/>
    </g>
    <g id="text_16">
     <!-- swin_b -->
     <g transform="translate(230.907812 277.460938)scale(0.1 -0.1)">
      <defs>
       <path id="DejaVuSans-77" d="M 269 3500 
L 844 3500 
L 1563 769 
L 2278 3500 
L 2956 3500 
L 3675 769 
L 4391 3500 
L 4966 3500 
L 4050 0 
L 3372 0 
L 2619 2869 
L 1863 0 
L 1184 0 
L 269 3500 
z
" transform="scale(0.015625)"/>
       <path id="DejaVuSans-6e" d="M 3513 2113 
L 3513 0 
L 2938 0 
L 2938 2094 
Q 2938 2591 2744 2837 
Q 2550 3084 2163 3084 
Q 1697 3084 1428 2787 
Q 1159 2491 1159 1978 
L 1159 0 
L 581 0 
L 581 3500 
L 1159 3500 
L 1159 2956 
Q 1366 3272 1645 3428 
Q 1925 3584 2291 3584 
Q 2894 3584 3203 3211 
Q 3513 2838 3513 2113 
z
" transform="scale(0.015625)"/>
      </defs>
      <use xlink:href="#DejaVuSans-73"/>
      <use xlink:href="#DejaVuSans-77" x="52.099609"/>
      <use xlink:href="#DejaVuSans-69" x="133.886719"/>
      <use xlink:href="#DejaVuSans-6e" x="161.669922"/>
      <use xlink:href="#DejaVuSans-5f" x="225.048828"/>
      <use xlink:href="#DejaVuSans-62" x="275.048828"/>
     </g>
    </g>
    <g id="line2d_35">
     <path d="M 202.907812 288.917188 
L 212.907812 288.917188 
L 222.907812 288.917188 
" style="fill: none; stroke: #2ca02c; stroke-width: 1.5; stroke-linecap: square"/>
    </g>
    <g id="text_17">
     <!-- beit_b_16 -->
     <g transform="translate(230.907812 292.417188)scale(0.1 -0.1)">
      <defs>
       <path id="DejaVuSans-65" d="M 3597 1894 
L 3597 1613 
L 953 1613 
Q 991 1019 1311 708 
Q 1631 397 2203 397 
Q 2534 397 2845 478 
Q 3156 559 3463 722 
L 3463 178 
Q 3153 47 2828 -22 
Q 2503 -91 2169 -91 
Q 1331 -91 842 396 
Q 353 884 353 1716 
Q 353 2575 817 3079 
Q 1281 3584 2069 3584 
Q 2775 3584 3186 3129 
Q 3597 2675 3597 1894 
z
M 3022 2063 
Q 3016 2534 2758 2815 
Q 2500 3097 2075 3097 
Q 1594 3097 1305 2825 
Q 1016 2553 972 2059 
L 3022 2063 
z
" transform="scale(0.015625)"/>
      </defs>
      <use xlink:href="#DejaVuSans-62"/>
      <use xlink:href="#DejaVuSans-65" x="63.476562"/>
      <use xlink:href="#DejaVuSans-69" x="125"/>
      <use xlink:href="#DejaVuSans-74" x="152.783203"/>
      <use xlink:href="#DejaVuSans-5f" x="191.992188"/>
      <use xlink:href="#DejaVuSans-62" x="241.992188"/>
      <use xlink:href="#DejaVuSans-5f" x="305.46875"/>
      <use xlink:href="#DejaVuSans-31" x="355.46875"/>
      <use xlink:href="#DejaVuSans-36" x="419.091797"/>
     </g>
    </g>
    <g id="line2d_36">
     <path d="M 202.907812 303.873438 
L 212.907812 303.873438 
L 222.907812 303.873438 
" style="fill: none; stroke: #d62728; stroke-width: 1.5; stroke-linecap: square"/>
    </g>
    <g id="text_18">
     <!-- deit_b_16 -->
     <g transform="translate(230.907812 307.373438)scale(0.1 -0.1)">
      <defs>
       <path id="DejaVuSans-64" d="M 2906 2969 
L 2906 4863 
L 3481 4863 
L 3481 0 
L 2906 0 
L 2906 525 
Q 2725 213 2448 61 
Q 2172 -91 1784 -91 
Q 1150 -91 751 415 
Q 353 922 353 1747 
Q 353 2572 751 3078 
Q 1150 3584 1784 3584 
Q 2172 3584 2448 3432 
Q 2725 3281 2906 2969 
z
M 947 1747 
Q 947 1113 1208 752 
Q 1469 391 1925 391 
Q 2381 391 2643 752 
Q 2906 1113 2906 1747 
Q 2906 2381 2643 2742 
Q 2381 3103 1925 3103 
Q 1469 3103 1208 2742 
Q 947 2381 947 1747 
z
" transform="scale(0.015625)"/>
      </defs>
      <use xlink:href="#DejaVuSans-64"/>
      <use xlink:href="#DejaVuSans-65" x="63.476562"/>
      <use xlink:href="#DejaVuSans-69" x="125"/>
      <use xlink:href="#DejaVuSans-74" x="152.783203"/>
      <use xlink:href="#DejaVuSans-5f" x="191.992188"/>
      <use xlink:href="#DejaVuSans-62" x="241.992188"/>
      <use xlink:href="#DejaVuSans-5f" x="305.46875"/>
      <use xlink:href="#DejaVuSans-31" x="355.46875"/>
      <use xlink:href="#DejaVuSans-36" x="419.091797"/>
     </g>
    </g>
    <g id="line2d_37">
     <path d="M 202.907812 318.829687 
L 212.907812 318.829687 
L 222.907812 318.829687 
" style="fill: none; stroke-dasharray: 5.55,2.4; stroke-dashoffset: 0; stroke: #9467bd; stroke-width: 1.5"/>
    </g>
    <g id="text_19">
     <!-- vgg19 -->
     <g transform="translate(230.907812 322.329687)scale(0.1 -0.1)">
      <defs>
       <path id="DejaVuSans-67" d="M 2906 1791 
Q 2906 2416 2648 2759 
Q 2391 3103 1925 3103 
Q 1463 3103 1205 2759 
Q 947 2416 947 1791 
Q 947 1169 1205 825 
Q 1463 481 1925 481 
Q 2391 481 2648 825 
Q 2906 1169 2906 1791 
z
M 3481 434 
Q 3481 -459 3084 -895 
Q 2688 -1331 1869 -1331 
Q 1566 -1331 1297 -1286 
Q 1028 -1241 775 -1147 
L 775 -588 
Q 1028 -725 1275 -790 
Q 1522 -856 1778 -856 
Q 2344 -856 2625 -561 
Q 2906 -266 2906 331 
L 2906 616 
Q 2728 306 2450 153 
Q 2172 0 1784 0 
Q 1141 0 747 490 
Q 353 981 353 1791 
Q 353 2603 747 3093 
Q 1141 3584 1784 3584 
Q 2172 3584 2450 3431 
Q 2728 3278 2906 2969 
L 2906 3500 
L 3481 3500 
L 3481 434 
z
" transform="scale(0.015625)"/>
      </defs>
      <use xlink:href="#DejaVuSans-76"/>
      <use xlink:href="#DejaVuSans-67" x="59.179688"/>
      <use xlink:href="#DejaVuSans-67" x="122.65625"/>
      <use xlink:href="#DejaVuSans-31" x="186.132812"/>
      <use xlink:href="#DejaVuSans-39" x="249.755859"/>
     </g>
    </g>
    <g id="line2d_38">
     <path d="M 202.907812 333.507812 
L 212.907812 333.507812 
L 222.907812 333.507812 
" style="fill: none; stroke-dasharray: 5.55,2.4; stroke-dashoffset: 0; stroke: #8c564b; stroke-width: 1.5"/>
    </g>
    <g id="text_20">
     <!-- resnet50 -->
     <g transform="translate(230.907812 337.007812)scale(0.1 -0.1)">
      <use xlink:href="#DejaVuSans-72"/>
      <use xlink:href="#DejaVuSans-65" x="38.863281"/>
      <use xlink:href="#DejaVuSans-73" x="100.386719"/>
      <use xlink:href="#DejaVuSans-6e" x="152.486328"/>
      <use xlink:href="#DejaVuSans-65" x="215.865234"/>
      <use xlink:href="#DejaVuSans-74" x="277.388672"/>
      <use xlink:href="#DejaVuSans-35" x="316.597656"/>
      <use xlink:href="#DejaVuSans-30" x="380.220703"/>
     </g>
    </g>
    <g id="line2d_39">
     <path d="M 202.907812 348.185938 
L 212.907812 348.185938 
L 222.907812 348.185938 
" style="fill: none; stroke-dasharray: 5.55,2.4; stroke-dashoffset: 0; stroke: #e377c2; stroke-width: 1.5"/>
    </g>
    <g id="text_21">
     <!-- efficientnetv2_m -->
     <g transform="translate(230.907812 351.685938)scale(0.1 -0.1)">
      <defs>
       <path id="DejaVuSans-66" d="M 2375 4863 
L 2375 4384 
L 1825 4384 
Q 1516 4384 1395 4259 
Q 1275 4134 1275 3809 
L 1275 3500 
L 2222 3500 
L 2222 3053 
L 1275 3053 
L 1275 0 
L 697 0 
L 697 3053 
L 147 3053 
L 147 3500 
L 697 3500 
L 697 3744 
Q 697 4328 969 4595 
Q 1241 4863 1831 4863 
L 2375 4863 
z
" transform="scale(0.015625)"/>
       <path id="DejaVuSans-6d" d="M 3328 2828 
Q 3544 3216 3844 3400 
Q 4144 3584 4550 3584 
Q 5097 3584 5394 3201 
Q 5691 2819 5691 2113 
L 5691 0 
L 5113 0 
L 5113 2094 
Q 5113 2597 4934 2840 
Q 4756 3084 4391 3084 
Q 3944 3084 3684 2787 
Q 3425 2491 3425 1978 
L 3425 0 
L 2847 0 
L 2847 2094 
Q 2847 2600 2669 2842 
Q 2491 3084 2119 3084 
Q 1678 3084 1418 2786 
Q 1159 2488 1159 1978 
L 1159 0 
L 581 0 
L 581 3500 
L 1159 3500 
L 1159 2956 
Q 1356 3278 1631 3431 
Q 1906 3584 2284 3584 
Q 2666 3584 2933 3390 
Q 3200 3197 3328 2828 
z
" transform="scale(0.015625)"/>
      </defs>
      <use xlink:href="#DejaVuSans-65"/>
      <use xlink:href="#DejaVuSans-66" x="61.523438"/>
      <use xlink:href="#DejaVuSans-66" x="96.728516"/>
      <use xlink:href="#DejaVuSans-69" x="131.933594"/>
      <use xlink:href="#DejaVuSans-63" x="159.716797"/>
      <use xlink:href="#DejaVuSans-69" x="214.697266"/>
      <use xlink:href="#DejaVuSans-65" x="242.480469"/>
      <use xlink:href="#DejaVuSans-6e" x="304.003906"/>
      <use xlink:href="#DejaVuSans-74" x="367.382812"/>
      <use xlink:href="#DejaVuSans-6e" x="406.591797"/>
      <use xlink:href="#DejaVuSans-65" x="469.970703"/>
      <use xlink:href="#DejaVuSans-74" x="531.494141"/>
      <use xlink:href="#DejaVuSans-76" x="570.703125"/>
      <use xlink:href="#DejaVuSans-32" x="629.882812"/>
      <use xlink:href="#DejaVuSans-5f" x="693.505859"/>
      <use xlink:href="#DejaVuSans-6d" x="743.505859"/>
     </g>
    </g>
    <g id="line2d_40">
     <path d="M 202.907812 363.142187 
L 212.907812 363.142187 
L 222.907812 363.142187 
" style="fill: none; stroke-dasharray: 5.55,2.4; stroke-dashoffset: 0; stroke: #7f7f7f; stroke-width: 1.5"/>
    </g>
    <g id="text_22">
     <!-- convnext_b -->
     <g transform="translate(230.907812 366.642187)scale(0.1 -0.1)">
      <defs>
       <path id="DejaVuSans-78" d="M 3513 3500 
L 2247 1797 
L 3578 0 
L 2900 0 
L 1881 1375 
L 863 0 
L 184 0 
L 1544 1831 
L 300 3500 
L 978 3500 
L 1906 2253 
L 2834 3500 
L 3513 3500 
z
" transform="scale(0.015625)"/>
      </defs>
      <use xlink:href="#DejaVuSans-63"/>
      <use xlink:href="#DejaVuSans-6f" x="54.980469"/>
      <use xlink:href="#DejaVuSans-6e" x="116.162109"/>
      <use xlink:href="#DejaVuSans-76" x="179.541016"/>
      <use xlink:href="#DejaVuSans-6e" x="238.720703"/>
      <use xlink:href="#DejaVuSans-65" x="302.099609"/>
      <use xlink:href="#DejaVuSans-78" x="361.873047"/>
      <use xlink:href="#DejaVuSans-74" x="421.052734"/>
      <use xlink:href="#DejaVuSans-5f" x="460.261719"/>
      <use xlink:href="#DejaVuSans-62" x="510.261719"/>
     </g>
    </g>
   </g>
  </g>
 </g>
 <defs>
  <clipPath id="p202f4240e5">
   <rect x="45" y="51.84" width="279" height="326.16"/>
  </clipPath>
 </defs>
</svg>
