<?xml version="1.0" encoding="utf-8" standalone="no"?>
<!DOCTYPE svg PUBLIC "-//W3C//DTD SVG 1.1//EN"
  "http://www.w3.org/Graphics/SVG/1.1/DTD/svg11.dtd">
<svg xmlns:xlink="http://www.w3.org/1999/xlink" width="288pt" height="324pt" viewBox="0 0 288 324" xmlns="http://www.w3.org/2000/svg" version="1.1">
 <metadata>
  <rdf:RDF xmlns:dc="http://purl.org/dc/elements/1.1/" xmlns:cc="http://creativecommons.org/ns#" xmlns:rdf="http://www.w3.org/1999/02/22-rdf-syntax-ns#">
   <cc:Work>
    <dc:type rdf:resource="http://purl.org/dc/dcmitype/StillImage"/>
    <dc:date>2022-06-07T14:56:02.869880</dc:date>
    <dc:format>image/svg+xml</dc:format>
    <dc:creator>
     <cc:Agent>
      <dc:title>Matplotlib v3.5.2, https://matplotlib.org/</dc:title>
     </cc:Agent>
    </dc:creator>
   </cc:Work>
  </rdf:RDF>
 </metadata>
 <defs>
  <style type="text/css">*{stroke-linejoin: round; stroke-linecap: butt}</style>
 </defs>
 <g id="figure_1">
  <g id="patch_1">
   <path d="M 0 324 
L 288 324 
L 288 0 
L 0 0 
L 0 324 
z
" style="fill: none"/>
  </g>
  <g id="axes_1">
   <g id="patch_2">
    <path d="M 36 283.5 
L 259.2 283.5 
L 259.2 38.88 
L 36 38.88 
z
" style="fill: #ffffff"/>
   </g>
   <g id="PolyCollection_1">
    <path d="M 46.145455 227.111419 
L 46.145455 237.284081 
L 49.90303 183.551967 
L 53.660606 159.87323 
L 57.418182 147.080249 
L 61.175758 139.349456 
L 64.933333 136.30446 
L 68.690909 129.946048 
L 72.448485 126.291499 
L 76.206061 123.792409 
L 79.963636 123.785498 
L 83.721212 122.715471 
L 87.478788 122.77392 
L 91.236364 124.363601 
L 94.993939 119.201897 
L 98.751515 120.699585 
L 102.509091 120.532019 
L 106.266667 118.52023 
L 110.024242 121.269375 
L 113.781818 115.733593 
L 117.539394 119.309102 
L 121.29697 118.407558 
L 125.054545 118.813676 
L 128.812121 120.679248 
L 132.569697 117.722336 
L 136.327273 118.284054 
L 140.084848 120.062516 
L 143.842424 116.832261 
L 147.6 117.112372 
L 151.357576 116.94006 
L 155.115152 115.336214 
L 158.872727 116.884837 
L 158.872727 109.685663 
L 158.872727 109.685663 
L 155.115152 109.535536 
L 151.357576 108.27144 
L 147.6 109.797878 
L 143.842424 109.058739 
L 140.084848 111.943984 
L 136.327273 109.645446 
L 132.569697 109.187914 
L 128.812121 109.288752 
L 125.054545 110.135074 
L 121.29697 109.521942 
L 117.539394 109.639648 
L 113.781818 108.458657 
L 110.024242 113.115375 
L 106.266667 109.74902 
L 102.509091 110.115481 
L 98.751515 111.646665 
L 94.993939 110.766103 
L 91.236364 114.437899 
L 87.478788 113.30958 
L 83.721212 112.688529 
L 79.963636 117.054502 
L 76.206061 118.066841 
L 72.448485 117.606251 
L 68.690909 121.086452 
L 64.933333 130.01679 
L 61.175758 133.766794 
L 57.418182 139.965751 
L 53.660606 152.31427 
L 49.90303 172.123533 
L 46.145455 227.111419 
z
" clip-path="url(#p02d1f310cb)" style="fill: #1f77b4; fill-opacity: 0.2"/>
   </g>
   <g id="PolyCollection_2">
    <path d="M 46.145455 169.411555 
L 46.145455 172.334195 
L 49.90303 140.993007 
L 53.660606 126.817816 
L 57.418182 118.431963 
L 61.175758 112.472419 
L 64.933333 108.916993 
L 68.690909 107.765256 
L 72.448485 102.952083 
L 76.206061 100.639646 
L 79.963636 99.273391 
L 83.721212 98.439296 
L 87.478788 96.174841 
L 91.236364 97.431536 
L 94.993939 95.069316 
L 98.751515 96.476708 
L 102.509091 92.845394 
L 106.266667 92.510942 
L 110.024242 92.243773 
L 113.781818 91.760659 
L 117.539394 87.387723 
L 121.29697 91.777574 
L 125.054545 89.868789 
L 128.812121 89.89097 
L 132.569697 89.55709 
L 136.327273 88.313625 
L 140.084848 88.558297 
L 143.842424 88.116943 
L 147.6 86.725912 
L 151.357576 88.14375 
L 155.115152 87.58553 
L 155.115152 82.58647 
L 155.115152 82.58647 
L 151.357576 83.38725 
L 147.6 83.106338 
L 143.842424 85.452557 
L 140.084848 85.011203 
L 136.327273 83.896875 
L 132.569697 86.05091 
L 128.812121 85.37728 
L 125.054545 87.098211 
L 121.29697 90.625426 
L 117.539394 86.521527 
L 113.781818 87.924341 
L 110.024242 88.460477 
L 106.266667 88.193308 
L 102.509091 89.217856 
L 98.751515 91.702042 
L 94.993939 91.070934 
L 91.236364 96.183214 
L 87.478788 93.362909 
L 83.721212 94.835704 
L 79.963636 96.719609 
L 76.206061 97.052104 
L 72.448485 98.476917 
L 68.690909 100.118994 
L 64.933333 102.025007 
L 61.175758 107.303081 
L 57.418182 113.234787 
L 53.660606 122.855684 
L 49.90303 136.200243 
L 46.145455 169.411555 
z
" clip-path="url(#p02d1f310cb)" style="fill: #ff7f0e; fill-opacity: 0.2"/>
   </g>
   <g id="PolyCollection_3">
    <path d="M 46.145455 306.181147 
L 46.145455 308.723603 
L 49.90303 256.814117 
L 53.660606 232.601898 
L 57.418182 220.400432 
L 61.175758 209.292118 
L 64.933333 202.903523 
L 68.690909 193.709456 
L 72.448485 195.380626 
L 76.206061 188.447983 
L 79.963636 179.16929 
L 83.721212 177.432949 
L 87.478788 176.489907 
L 91.236364 172.787981 
L 94.993939 171.424621 
L 98.751515 169.183548 
L 102.509091 169.483187 
L 106.266667 168.491083 
L 110.024242 165.383368 
L 113.781818 164.5875 
L 117.539394 161.985868 
L 121.29697 159.29738 
L 125.054545 161.575022 
L 128.812121 159.855625 
L 132.569697 156.984582 
L 136.327273 159.180542 
L 140.084848 155.54511 
L 143.842424 156.943125 
L 147.6 155.261994 
L 151.357576 155.661184 
L 155.115152 154.827539 
L 158.872727 154.642298 
L 162.630303 154.715345 
L 166.387879 155.220596 
L 170.145455 150.979727 
L 173.90303 149.952375 
L 173.90303 148.305375 
L 173.90303 148.305375 
L 170.145455 146.938273 
L 166.387879 152.210404 
L 162.630303 151.016905 
L 158.872727 151.769452 
L 155.115152 150.225211 
L 151.357576 151.090316 
L 147.6 151.149756 
L 143.842424 152.866125 
L 140.084848 151.88589 
L 136.327273 153.686458 
L 132.569697 155.202918 
L 128.812121 155.729375 
L 125.054545 157.067728 
L 121.29697 153.90937 
L 117.539394 155.297882 
L 113.781818 160.5105 
L 110.024242 158.695382 
L 106.266667 164.421167 
L 102.509091 161.050813 
L 98.751515 163.049202 
L 94.993939 166.244129 
L 91.236364 169.637269 
L 87.478788 170.012343 
L 83.721212 169.069301 
L 79.963636 174.46771 
L 76.206061 179.118767 
L 72.448485 187.135124 
L 68.690909 188.126794 
L 64.933333 198.977977 
L 61.175758 202.442132 
L 57.418182 214.776568 
L 53.660606 228.056352 
L 49.90303 253.107883 
L 46.145455 306.181147 
z
" clip-path="url(#p02d1f310cb)" style="fill: #2ca02c; fill-opacity: 0.2"/>
   </g>
   <g id="PolyCollection_4">
    <path d="M 46.145455 194.837158 
L 46.145455 203.307092 
L 49.90303 150.451848 
L 53.660606 138.481884 
L 57.418182 126.665265 
L 61.175758 121.229265 
L 64.933333 118.287308 
L 68.690909 112.312603 
L 72.448485 110.740982 
L 76.206061 108.041675 
L 79.963636 109.828613 
L 83.721212 107.157585 
L 87.478788 104.655267 
L 91.236364 107.843936 
L 94.993939 106.433878 
L 98.751515 107.179173 
L 102.509091 104.627989 
L 106.266667 103.789685 
L 110.024242 104.983552 
L 113.781818 104.147909 
L 117.539394 103.096441 
L 121.29697 102.917079 
L 125.054545 101.849527 
L 128.812121 101.858121 
L 132.569697 103.214318 
L 136.327273 103.137149 
L 140.084848 101.883445 
L 143.842424 102.194505 
L 147.6 99.731794 
L 147.6 94.562456 
L 147.6 94.562456 
L 143.842424 95.157495 
L 140.084848 95.468555 
L 136.327273 96.593101 
L 132.569697 95.496682 
L 128.812121 96.513129 
L 125.054545 95.502473 
L 121.29697 95.454171 
L 117.539394 95.274809 
L 113.781818 97.281091 
L 110.024242 97.804448 
L 106.266667 97.979065 
L 102.509091 97.820261 
L 98.751515 101.044827 
L 94.993939 100.091372 
L 91.236364 102.418564 
L 87.478788 101.190483 
L 83.721212 102.425415 
L 79.963636 102.812137 
L 76.206061 102.900325 
L 72.448485 106.996018 
L 68.690909 105.764147 
L 64.933333 114.398692 
L 61.175758 115.873485 
L 57.418182 121.309485 
L 53.660606 136.333116 
L 49.90303 148.485402 
L 46.145455 194.837158 
z
" clip-path="url(#p02d1f310cb)" style="fill: #d62728; fill-opacity: 0.2"/>
   </g>
   <g id="PolyCollection_5">
    <path d="M 46.145455 194.478446 
L 46.145455 196.531054 
L 49.90303 174.06846 
L 53.660606 166.43973 
L 57.418182 162.869345 
L 61.175758 161.166315 
L 64.933333 155.817053 
L 68.690909 153.502887 
L 72.448485 154.93034 
L 76.206061 150.65775 
L 79.963636 149.926767 
L 83.721212 150.845244 
L 87.478788 147.536856 
L 91.236364 149.986108 
L 94.993939 148.723298 
L 98.751515 147.920345 
L 102.509091 146.577481 
L 106.266667 148.385063 
L 110.024242 144.419456 
L 113.781818 143.998303 
L 117.539394 148.821799 
L 121.29697 146.417239 
L 121.29697 139.609511 
L 121.29697 139.609511 
L 117.539394 141.281951 
L 113.781818 140.669447 
L 110.024242 138.549544 
L 106.266667 141.718687 
L 102.509091 142.167269 
L 98.751515 144.221905 
L 94.993939 140.021452 
L 91.236364 140.797142 
L 87.478788 141.887394 
L 83.721212 146.733006 
L 79.963636 144.933483 
L 76.206061 147.6 
L 72.448485 145.36591 
L 68.690909 146.793363 
L 64.933333 149.575447 
L 61.175758 155.098185 
L 57.418182 159.170905 
L 53.660606 162.05577 
L 49.90303 168.69654 
L 46.145455 194.478446 
z
" clip-path="url(#p02d1f310cb)" style="fill: #9467bd; fill-opacity: 0.2"/>
   </g>
   <g id="PolyCollection_6">
    <path d="M 46.145455 211.256296 
L 46.145455 217.465454 
L 49.90303 173.856055 
L 53.660606 153.74793 
L 57.418182 148.77696 
L 61.175758 144.577817 
L 64.933333 139.349456 
L 68.690909 136.424159 
L 72.448485 133.547341 
L 76.206061 133.675343 
L 79.963636 129.660923 
L 83.721212 129.343878 
L 87.478788 124.297132 
L 91.236364 126.685479 
L 94.993939 124.687041 
L 98.751515 126.685479 
L 102.509091 120.636478 
L 106.266667 123.281201 
L 110.024242 121.971898 
L 113.781818 124.935127 
L 117.539394 122.549865 
L 121.29697 123.353147 
L 125.054545 120.42 
L 128.812121 124.111133 
L 132.569697 124.666875 
L 136.327273 121.933367 
L 140.084848 121.41907 
L 140.084848 115.00418 
L 140.084848 115.00418 
L 136.327273 118.227133 
L 132.569697 121.948875 
L 128.812121 115.709617 
L 125.054545 113.625 
L 121.29697 118.845853 
L 117.539394 116.931135 
L 113.781818 117.943373 
L 110.024242 118.188602 
L 106.266667 117.898549 
L 102.509091 114.088022 
L 98.751515 121.629021 
L 94.993939 117.511959 
L 91.236364 121.629021 
L 87.478788 120.959618 
L 83.721212 122.707872 
L 79.963636 123.410077 
L 76.206061 125.171407 
L 72.448485 130.735409 
L 68.690909 129.557341 
L 64.933333 133.766794 
L 61.175758 138.051433 
L 57.418182 144.04479 
L 53.660606 149.26632 
L 49.90303 166.190945 
L 46.145455 211.256296 
z
" clip-path="url(#p02d1f310cb)" style="fill: #8c564b; fill-opacity: 0.2"/>
   </g>
   <g id="PolyCollection_7">
    <path d="M 46.145455 231.498979 
L 46.145455 242.749271 
L 49.90303 213.068839 
L 53.660606 194.174792 
L 57.418182 180.982283 
L 61.175758 176.370096 
L 64.933333 168.44603 
L 68.690909 164.195999 
L 72.448485 160.5105 
L 76.206061 163.930397 
L 79.963636 159.011449 
L 83.721212 158.815994 
L 87.478788 156.629832 
L 91.236364 152.634786 
L 94.993939 150.148125 
L 98.751515 151.535308 
L 102.509091 150.266517 
L 106.266667 150.624046 
L 110.024242 148.031528 
L 113.781818 149.595748 
L 117.539394 147.504122 
L 121.29697 148.068545 
L 125.054545 147.589874 
L 128.812121 147.235014 
L 132.569697 149.13418 
L 136.327273 144.788922 
L 140.084848 144.693877 
L 143.842424 145.357864 
L 147.6 144.335269 
L 151.357576 145.993676 
L 155.115152 144.955997 
L 158.872727 143.623269 
L 162.630303 145.596738 
L 166.387879 144.535166 
L 170.145455 145.10208 
L 173.90303 143.81388 
L 177.660606 145.625569 
L 181.418182 145.293666 
L 181.418182 136.995834 
L 181.418182 136.995834 
L 177.660606 137.003681 
L 173.90303 136.77687 
L 170.145455 137.86692 
L 166.387879 136.395334 
L 162.630303 137.372262 
L 158.872727 135.608481 
L 155.115152 139.032253 
L 151.357576 137.315074 
L 147.6 136.595231 
L 143.842424 137.271386 
L 140.084848 137.595623 
L 136.327273 136.821078 
L 132.569697 140.96957 
L 128.812121 138.112236 
L 125.054545 140.475376 
L 121.29697 138.977455 
L 117.539394 141.580378 
L 113.781818 143.226002 
L 110.024242 142.751722 
L 106.266667 144.236204 
L 102.509091 145.273233 
L 98.751515 145.363442 
L 94.993939 145.731375 
L 91.236364 148.001214 
L 87.478788 148.422918 
L 83.721212 152.012506 
L 79.963636 153.176051 
L 76.206061 158.109853 
L 72.448485 157.7925 
L 68.690909 160.902001 
L 64.933333 163.44697 
L 61.175758 171.830904 
L 57.418182 177.071467 
L 53.660606 188.680708 
L 49.90303 205.460411 
L 46.145455 231.498979 
z
" clip-path="url(#p02d1f310cb)" style="fill: #e377c2; fill-opacity: 0.2"/>
   </g>
   <g id="PolyCollection_8">
    <path d="M 46.145455 223.818307 
L 46.145455 231.403943 
L 49.90303 166.033934 
L 53.660606 150.732547 
L 57.418182 142.81604 
L 61.175758 133.020222 
L 64.933333 131.144675 
L 68.690909 130.634775 
L 72.448485 123.411921 
L 76.206061 121.090033 
L 79.963636 120.682837 
L 83.721212 119.55122 
L 87.478788 116.259761 
L 91.236364 114.886517 
L 94.993939 110.618304 
L 98.751515 109.440676 
L 102.509091 110.721105 
L 106.266667 110.514347 
L 110.024242 105.624855 
L 113.781818 108.645678 
L 117.539394 104.860715 
L 121.29697 105.995744 
L 125.054545 102.685445 
L 128.812121 103.819216 
L 132.569697 102.95093 
L 136.327273 100.198792 
L 140.084848 101.463215 
L 143.842424 100.472125 
L 147.6 100.943571 
L 151.357576 100.884375 
L 155.115152 100.811875 
L 158.872727 101.954679 
L 162.630303 100.53611 
L 166.387879 99.379525 
L 170.145455 102.170875 
L 173.90303 101.632651 
L 177.660606 99.002961 
L 181.418182 97.118408 
L 185.175758 94.98991 
L 188.933333 95.693343 
L 192.690909 96.780151 
L 196.448485 97.925641 
L 200.206061 97.392093 
L 203.963636 96.161012 
L 207.721212 97.609831 
L 211.478788 93.470843 
L 215.236364 95.907187 
L 218.993939 96.08886 
L 222.751515 92.795805 
L 226.509091 95.04107 
L 230.266667 96.528846 
L 234.024242 94.203113 
L 237.781818 93.299196 
L 241.539394 94.312654 
L 245.29697 92.969465 
L 249.054545 94.476091 
L 249.054545 91.664159 
L 249.054545 91.664159 
L 245.29697 89.773285 
L 241.539394 91.827596 
L 237.781818 90.802554 
L 234.024242 90.917887 
L 230.266667 91.989654 
L 226.509091 92.11843 
L 222.751515 90.966195 
L 218.993939 92.42964 
L 215.236364 93.970313 
L 211.478788 91.989907 
L 207.721212 93.966419 
L 203.963636 91.338238 
L 200.206061 95.203407 
L 196.448485 95.349359 
L 192.690909 93.097349 
L 188.933333 93.504657 
L 185.175758 93.52859 
L 181.418182 95.137342 
L 177.660606 95.631039 
L 173.90303 96.738599 
L 170.145455 99.258125 
L 166.387879 96.953225 
L 162.630303 97.15564 
L 158.872727 98.794821 
L 155.115152 97.899125 
L 151.357576 99.185625 
L 147.6 98.446929 
L 143.842424 97.559375 
L 140.084848 98.267035 
L 136.327273 97.832708 
L 132.569697 99.83707 
L 128.812121 101.007284 
L 125.054545 99.762805 
L 121.29697 101.209006 
L 117.539394 101.664535 
L 113.781818 102.975822 
L 110.024242 102.938895 
L 106.266667 106.203403 
L 102.509091 108.035145 
L 98.751515 105.918074 
L 94.993939 107.458446 
L 91.236364 112.023733 
L 87.478788 112.009489 
L 83.721212 115.85278 
L 79.963636 114.381413 
L 76.206061 118.051217 
L 72.448485 121.505079 
L 68.690909 124.134975 
L 64.933333 126.003325 
L 61.175758 129.563778 
L 57.418182 138.11446 
L 53.660606 147.185453 
L 49.90303 163.141066 
L 46.145455 223.818307 
z
" clip-path="url(#p02d1f310cb)" style="fill: #7f7f7f; fill-opacity: 0.2"/>
   </g>
   <g id="matplotlib.axis_1">
    <g id="xtick_1">
     <g id="line2d_1">
      <path d="M 42.387879 283.5 
L 42.387879 38.88 
" clip-path="url(#p02d1f310cb)" style="fill: none; stroke: #b0b0b0; stroke-width: 0.8; stroke-linecap: square"/>
     </g>
     <g id="line2d_2">
      <defs>
       <path id="m5f86c53cc6" d="M 0 0 
L 0 3.5 
" style="stroke: #000000; stroke-width: 0.8"/>
      </defs>
      <g>
       <use xlink:href="#m5f86c53cc6" x="42.387879" y="283.5" style="stroke: #000000; stroke-width: 0.8"/>
      </g>
     </g>
     <g id="text_1">
      <!-- 0 -->
      <g transform="translate(39.206629 298.098437)scale(0.1 -0.1)">
       <defs>
        <path id="DejaVuSans-30" d="M 2034 4250 
Q 1547 4250 1301 3770 
Q 1056 3291 1056 2328 
Q 1056 1369 1301 889 
Q 1547 409 2034 409 
Q 2525 409 2770 889 
Q 3016 1369 3016 2328 
Q 3016 3291 2770 3770 
Q 2525 4250 2034 4250 
z
M 2034 4750 
Q 2819 4750 3233 4129 
Q 3647 3509 3647 2328 
Q 3647 1150 3233 529 
Q 2819 -91 2034 -91 
Q 1250 -91 836 529 
Q 422 1150 422 2328 
Q 422 3509 836 4129 
Q 1250 4750 2034 4750 
z
" transform="scale(0.015625)"/>
       </defs>
       <use xlink:href="#DejaVuSans-30"/>
      </g>
     </g>
    </g>
    <g id="xtick_2">
     <g id="line2d_3">
      <path d="M 79.963636 283.5 
L 79.963636 38.88 
" clip-path="url(#p02d1f310cb)" style="fill: none; stroke: #b0b0b0; stroke-width: 0.8; stroke-linecap: square"/>
     </g>
     <g id="line2d_4">
      <g>
       <use xlink:href="#m5f86c53cc6" x="79.963636" y="283.5" style="stroke: #000000; stroke-width: 0.8"/>
      </g>
     </g>
     <g id="text_2">
      <!-- 10 -->
      <g transform="translate(73.601136 298.098437)scale(0.1 -0.1)">
       <defs>
        <path id="DejaVuSans-31" d="M 794 531 
L 1825 531 
L 1825 4091 
L 703 3866 
L 703 4441 
L 1819 4666 
L 2450 4666 
L 2450 531 
L 3481 531 
L 3481 0 
L 794 0 
L 794 531 
z
" transform="scale(0.015625)"/>
       </defs>
       <use xlink:href="#DejaVuSans-31"/>
       <use xlink:href="#DejaVuSans-30" x="63.623047"/>
      </g>
     </g>
    </g>
    <g id="xtick_3">
     <g id="line2d_5">
      <path d="M 117.539394 283.5 
L 117.539394 38.88 
" clip-path="url(#p02d1f310cb)" style="fill: none; stroke: #b0b0b0; stroke-width: 0.8; stroke-linecap: square"/>
     </g>
     <g id="line2d_6">
      <g>
       <use xlink:href="#m5f86c53cc6" x="117.539394" y="283.5" style="stroke: #000000; stroke-width: 0.8"/>
      </g>
     </g>
     <g id="text_3">
      <!-- 20 -->
      <g transform="translate(111.176894 298.098437)scale(0.1 -0.1)">
       <defs>
        <path id="DejaVuSans-32" d="M 1228 531 
L 3431 531 
L 3431 0 
L 469 0 
L 469 531 
Q 828 903 1448 1529 
Q 2069 2156 2228 2338 
Q 2531 2678 2651 2914 
Q 2772 3150 2772 3378 
Q 2772 3750 2511 3984 
Q 2250 4219 1831 4219 
Q 1534 4219 1204 4116 
Q 875 4013 500 3803 
L 500 4441 
Q 881 4594 1212 4672 
Q 1544 4750 1819 4750 
Q 2544 4750 2975 4387 
Q 3406 4025 3406 3419 
Q 3406 3131 3298 2873 
Q 3191 2616 2906 2266 
Q 2828 2175 2409 1742 
Q 1991 1309 1228 531 
z
" transform="scale(0.015625)"/>
       </defs>
       <use xlink:href="#DejaVuSans-32"/>
       <use xlink:href="#DejaVuSans-30" x="63.623047"/>
      </g>
     </g>
    </g>
    <g id="xtick_4">
     <g id="line2d_7">
      <path d="M 155.115152 283.5 
L 155.115152 38.88 
" clip-path="url(#p02d1f310cb)" style="fill: none; stroke: #b0b0b0; stroke-width: 0.8; stroke-linecap: square"/>
     </g>
     <g id="line2d_8">
      <g>
       <use xlink:href="#m5f86c53cc6" x="155.115152" y="283.5" style="stroke: #000000; stroke-width: 0.8"/>
      </g>
     </g>
     <g id="text_4">
      <!-- 30 -->
      <g transform="translate(148.752652 298.098437)scale(0.1 -0.1)">
       <defs>
        <path id="DejaVuSans-33" d="M 2597 2516 
Q 3050 2419 3304 2112 
Q 3559 1806 3559 1356 
Q 3559 666 3084 287 
Q 2609 -91 1734 -91 
Q 1441 -91 1130 -33 
Q 819 25 488 141 
L 488 750 
Q 750 597 1062 519 
Q 1375 441 1716 441 
Q 2309 441 2620 675 
Q 2931 909 2931 1356 
Q 2931 1769 2642 2001 
Q 2353 2234 1838 2234 
L 1294 2234 
L 1294 2753 
L 1863 2753 
Q 2328 2753 2575 2939 
Q 2822 3125 2822 3475 
Q 2822 3834 2567 4026 
Q 2313 4219 1838 4219 
Q 1578 4219 1281 4162 
Q 984 4106 628 3988 
L 628 4550 
Q 988 4650 1302 4700 
Q 1616 4750 1894 4750 
Q 2613 4750 3031 4423 
Q 3450 4097 3450 3541 
Q 3450 3153 3228 2886 
Q 3006 2619 2597 2516 
z
" transform="scale(0.015625)"/>
       </defs>
       <use xlink:href="#DejaVuSans-33"/>
       <use xlink:href="#DejaVuSans-30" x="63.623047"/>
      </g>
     </g>
    </g>
    <g id="xtick_5">
     <g id="line2d_9">
      <path d="M 192.690909 283.5 
L 192.690909 38.88 
" clip-path="url(#p02d1f310cb)" style="fill: none; stroke: #b0b0b0; stroke-width: 0.8; stroke-linecap: square"/>
     </g>
     <g id="line2d_10">
      <g>
       <use xlink:href="#m5f86c53cc6" x="192.690909" y="283.5" style="stroke: #000000; stroke-width: 0.8"/>
      </g>
     </g>
     <g id="text_5">
      <!-- 40 -->
      <g transform="translate(186.328409 298.098437)scale(0.1 -0.1)">
       <defs>
        <path id="DejaVuSans-34" d="M 2419 4116 
L 825 1625 
L 2419 1625 
L 2419 4116 
z
M 2253 4666 
L 3047 4666 
L 3047 1625 
L 3713 1625 
L 3713 1100 
L 3047 1100 
L 3047 0 
L 2419 0 
L 2419 1100 
L 313 1100 
L 313 1709 
L 2253 4666 
z
" transform="scale(0.015625)"/>
       </defs>
       <use xlink:href="#DejaVuSans-34"/>
       <use xlink:href="#DejaVuSans-30" x="63.623047"/>
      </g>
     </g>
    </g>
    <g id="xtick_6">
     <g id="line2d_11">
      <path d="M 230.266667 283.5 
L 230.266667 38.88 
" clip-path="url(#p02d1f310cb)" style="fill: none; stroke: #b0b0b0; stroke-width: 0.8; stroke-linecap: square"/>
     </g>
     <g id="line2d_12">
      <g>
       <use xlink:href="#m5f86c53cc6" x="230.266667" y="283.5" style="stroke: #000000; stroke-width: 0.8"/>
      </g>
     </g>
     <g id="text_6">
      <!-- 50 -->
      <g transform="translate(223.904167 298.098437)scale(0.1 -0.1)">
       <defs>
        <path id="DejaVuSans-35" d="M 691 4666 
L 3169 4666 
L 3169 4134 
L 1269 4134 
L 1269 2991 
Q 1406 3038 1543 3061 
Q 1681 3084 1819 3084 
Q 2600 3084 3056 2656 
Q 3513 2228 3513 1497 
Q 3513 744 3044 326 
Q 2575 -91 1722 -91 
Q 1428 -91 1123 -41 
Q 819 9 494 109 
L 494 744 
Q 775 591 1075 516 
Q 1375 441 1709 441 
Q 2250 441 2565 725 
Q 2881 1009 2881 1497 
Q 2881 1984 2565 2268 
Q 2250 2553 1709 2553 
Q 1456 2553 1204 2497 
Q 953 2441 691 2322 
L 691 4666 
z
" transform="scale(0.015625)"/>
       </defs>
       <use xlink:href="#DejaVuSans-35"/>
       <use xlink:href="#DejaVuSans-30" x="63.623047"/>
      </g>
     </g>
    </g>
    <g id="text_7">
     <!-- Epochs -->
     <g transform="translate(129.684375 311.776563)scale(0.1 -0.1)">
      <defs>
       <path id="DejaVuSans-45" d="M 628 4666 
L 3578 4666 
L 3578 4134 
L 1259 4134 
L 1259 2753 
L 3481 2753 
L 3481 2222 
L 1259 2222 
L 1259 531 
L 3634 531 
L 3634 0 
L 628 0 
L 628 4666 
z
" transform="scale(0.015625)"/>
       <path id="DejaVuSans-70" d="M 1159 525 
L 1159 -1331 
L 581 -1331 
L 581 3500 
L 1159 3500 
L 1159 2969 
Q 1341 3281 1617 3432 
Q 1894 3584 2278 3584 
Q 2916 3584 3314 3078 
Q 3713 2572 3713 1747 
Q 3713 922 3314 415 
Q 2916 -91 2278 -91 
Q 1894 -91 1617 61 
Q 1341 213 1159 525 
z
M 3116 1747 
Q 3116 2381 2855 2742 
Q 2594 3103 2138 3103 
Q 1681 3103 1420 2742 
Q 1159 2381 1159 1747 
Q 1159 1113 1420 752 
Q 1681 391 2138 391 
Q 2594 391 2855 752 
Q 3116 1113 3116 1747 
z
" transform="scale(0.015625)"/>
       <path id="DejaVuSans-6f" d="M 1959 3097 
Q 1497 3097 1228 2736 
Q 959 2375 959 1747 
Q 959 1119 1226 758 
Q 1494 397 1959 397 
Q 2419 397 2687 759 
Q 2956 1122 2956 1747 
Q 2956 2369 2687 2733 
Q 2419 3097 1959 3097 
z
M 1959 3584 
Q 2709 3584 3137 3096 
Q 3566 2609 3566 1747 
Q 3566 888 3137 398 
Q 2709 -91 1959 -91 
Q 1206 -91 779 398 
Q 353 888 353 1747 
Q 353 2609 779 3096 
Q 1206 3584 1959 3584 
z
" transform="scale(0.015625)"/>
       <path id="DejaVuSans-63" d="M 3122 3366 
L 3122 2828 
Q 2878 2963 2633 3030 
Q 2388 3097 2138 3097 
Q 1578 3097 1268 2742 
Q 959 2388 959 1747 
Q 959 1106 1268 751 
Q 1578 397 2138 397 
Q 2388 397 2633 464 
Q 2878 531 3122 666 
L 3122 134 
Q 2881 22 2623 -34 
Q 2366 -91 2075 -91 
Q 1284 -91 818 406 
Q 353 903 353 1747 
Q 353 2603 823 3093 
Q 1294 3584 2113 3584 
Q 2378 3584 2631 3529 
Q 2884 3475 3122 3366 
z
" transform="scale(0.015625)"/>
       <path id="DejaVuSans-68" d="M 3513 2113 
L 3513 0 
L 2938 0 
L 2938 2094 
Q 2938 2591 2744 2837 
Q 2550 3084 2163 3084 
Q 1697 3084 1428 2787 
Q 1159 2491 1159 1978 
L 1159 0 
L 581 0 
L 581 4863 
L 1159 4863 
L 1159 2956 
Q 1366 3272 1645 3428 
Q 1925 3584 2291 3584 
Q 2894 3584 3203 3211 
Q 3513 2838 3513 2113 
z
" transform="scale(0.015625)"/>
       <path id="DejaVuSans-73" d="M 2834 3397 
L 2834 2853 
Q 2591 2978 2328 3040 
Q 2066 3103 1784 3103 
Q 1356 3103 1142 2972 
Q 928 2841 928 2578 
Q 928 2378 1081 2264 
Q 1234 2150 1697 2047 
L 1894 2003 
Q 2506 1872 2764 1633 
Q 3022 1394 3022 966 
Q 3022 478 2636 193 
Q 2250 -91 1575 -91 
Q 1294 -91 989 -36 
Q 684 19 347 128 
L 347 722 
Q 666 556 975 473 
Q 1284 391 1588 391 
Q 1994 391 2212 530 
Q 2431 669 2431 922 
Q 2431 1156 2273 1281 
Q 2116 1406 1581 1522 
L 1381 1569 
Q 847 1681 609 1914 
Q 372 2147 372 2553 
Q 372 3047 722 3315 
Q 1072 3584 1716 3584 
Q 2034 3584 2315 3537 
Q 2597 3491 2834 3397 
z
" transform="scale(0.015625)"/>
      </defs>
      <use xlink:href="#DejaVuSans-45"/>
      <use xlink:href="#DejaVuSans-70" x="63.183594"/>
      <use xlink:href="#DejaVuSans-6f" x="126.660156"/>
      <use xlink:href="#DejaVuSans-63" x="187.841797"/>
      <use xlink:href="#DejaVuSans-68" x="242.822266"/>
      <use xlink:href="#DejaVuSans-73" x="306.201172"/>
     </g>
    </g>
   </g>
   <g id="matplotlib.axis_2">
    <g id="ytick_1">
     <g id="line2d_13">
      <path d="M 36 283.5 
L 259.2 283.5 
" clip-path="url(#p02d1f310cb)" style="fill: none; stroke: #b0b0b0; stroke-width: 0.8; stroke-linecap: square"/>
     </g>
     <g id="line2d_14">
      <defs>
       <path id="m2b6731bbdd" d="M 0 0 
L -3.5 0 
" style="stroke: #000000; stroke-width: 0.8"/>
      </defs>
      <g>
       <use xlink:href="#m2b6731bbdd" x="36" y="283.5" style="stroke: #000000; stroke-width: 0.8"/>
      </g>
     </g>
     <g id="text_8">
      <!-- 0.65 -->
      <g transform="translate(6.734375 287.299219)scale(0.1 -0.1)">
       <defs>
        <path id="DejaVuSans-2e" d="M 684 794 
L 1344 794 
L 1344 0 
L 684 0 
L 684 794 
z
" transform="scale(0.015625)"/>
        <path id="DejaVuSans-36" d="M 2113 2584 
Q 1688 2584 1439 2293 
Q 1191 2003 1191 1497 
Q 1191 994 1439 701 
Q 1688 409 2113 409 
Q 2538 409 2786 701 
Q 3034 994 3034 1497 
Q 3034 2003 2786 2293 
Q 2538 2584 2113 2584 
z
M 3366 4563 
L 3366 3988 
Q 3128 4100 2886 4159 
Q 2644 4219 2406 4219 
Q 1781 4219 1451 3797 
Q 1122 3375 1075 2522 
Q 1259 2794 1537 2939 
Q 1816 3084 2150 3084 
Q 2853 3084 3261 2657 
Q 3669 2231 3669 1497 
Q 3669 778 3244 343 
Q 2819 -91 2113 -91 
Q 1303 -91 875 529 
Q 447 1150 447 2328 
Q 447 3434 972 4092 
Q 1497 4750 2381 4750 
Q 2619 4750 2861 4703 
Q 3103 4656 3366 4563 
z
" transform="scale(0.015625)"/>
       </defs>
       <use xlink:href="#DejaVuSans-30"/>
       <use xlink:href="#DejaVuSans-2e" x="63.623047"/>
       <use xlink:href="#DejaVuSans-36" x="95.410156"/>
       <use xlink:href="#DejaVuSans-35" x="159.033203"/>
      </g>
     </g>
    </g>
    <g id="ytick_2">
     <g id="line2d_15">
      <path d="M 36 242.73 
L 259.2 242.73 
" clip-path="url(#p02d1f310cb)" style="fill: none; stroke: #b0b0b0; stroke-width: 0.8; stroke-linecap: square"/>
     </g>
     <g id="line2d_16">
      <g>
       <use xlink:href="#m2b6731bbdd" x="36" y="242.73" style="stroke: #000000; stroke-width: 0.8"/>
      </g>
     </g>
     <g id="text_9">
      <!-- 0.70 -->
      <g transform="translate(6.734375 246.529219)scale(0.1 -0.1)">
       <defs>
        <path id="DejaVuSans-37" d="M 525 4666 
L 3525 4666 
L 3525 4397 
L 1831 0 
L 1172 0 
L 2766 4134 
L 525 4134 
L 525 4666 
z
" transform="scale(0.015625)"/>
       </defs>
       <use xlink:href="#DejaVuSans-30"/>
       <use xlink:href="#DejaVuSans-2e" x="63.623047"/>
       <use xlink:href="#DejaVuSans-37" x="95.410156"/>
       <use xlink:href="#DejaVuSans-30" x="159.033203"/>
      </g>
     </g>
    </g>
    <g id="ytick_3">
     <g id="line2d_17">
      <path d="M 36 201.96 
L 259.2 201.96 
" clip-path="url(#p02d1f310cb)" style="fill: none; stroke: #b0b0b0; stroke-width: 0.8; stroke-linecap: square"/>
     </g>
     <g id="line2d_18">
      <g>
       <use xlink:href="#m2b6731bbdd" x="36" y="201.96" style="stroke: #000000; stroke-width: 0.8"/>
      </g>
     </g>
     <g id="text_10">
      <!-- 0.75 -->
      <g transform="translate(6.734375 205.759219)scale(0.1 -0.1)">
       <use xlink:href="#DejaVuSans-30"/>
       <use xlink:href="#DejaVuSans-2e" x="63.623047"/>
       <use xlink:href="#DejaVuSans-37" x="95.410156"/>
       <use xlink:href="#DejaVuSans-35" x="159.033203"/>
      </g>
     </g>
    </g>
    <g id="ytick_4">
     <g id="line2d_19">
      <path d="M 36 161.19 
L 259.2 161.19 
" clip-path="url(#p02d1f310cb)" style="fill: none; stroke: #b0b0b0; stroke-width: 0.8; stroke-linecap: square"/>
     </g>
     <g id="line2d_20">
      <g>
       <use xlink:href="#m2b6731bbdd" x="36" y="161.19" style="stroke: #000000; stroke-width: 0.8"/>
      </g>
     </g>
     <g id="text_11">
      <!-- 0.80 -->
      <g transform="translate(6.734375 164.989219)scale(0.1 -0.1)">
       <defs>
        <path id="DejaVuSans-38" d="M 2034 2216 
Q 1584 2216 1326 1975 
Q 1069 1734 1069 1313 
Q 1069 891 1326 650 
Q 1584 409 2034 409 
Q 2484 409 2743 651 
Q 3003 894 3003 1313 
Q 3003 1734 2745 1975 
Q 2488 2216 2034 2216 
z
M 1403 2484 
Q 997 2584 770 2862 
Q 544 3141 544 3541 
Q 544 4100 942 4425 
Q 1341 4750 2034 4750 
Q 2731 4750 3128 4425 
Q 3525 4100 3525 3541 
Q 3525 3141 3298 2862 
Q 3072 2584 2669 2484 
Q 3125 2378 3379 2068 
Q 3634 1759 3634 1313 
Q 3634 634 3220 271 
Q 2806 -91 2034 -91 
Q 1263 -91 848 271 
Q 434 634 434 1313 
Q 434 1759 690 2068 
Q 947 2378 1403 2484 
z
M 1172 3481 
Q 1172 3119 1398 2916 
Q 1625 2713 2034 2713 
Q 2441 2713 2670 2916 
Q 2900 3119 2900 3481 
Q 2900 3844 2670 4047 
Q 2441 4250 2034 4250 
Q 1625 4250 1398 4047 
Q 1172 3844 1172 3481 
z
" transform="scale(0.015625)"/>
       </defs>
       <use xlink:href="#DejaVuSans-30"/>
       <use xlink:href="#DejaVuSans-2e" x="63.623047"/>
       <use xlink:href="#DejaVuSans-38" x="95.410156"/>
       <use xlink:href="#DejaVuSans-30" x="159.033203"/>
      </g>
     </g>
    </g>
    <g id="ytick_5">
     <g id="line2d_21">
      <path d="M 36 120.42 
L 259.2 120.42 
" clip-path="url(#p02d1f310cb)" style="fill: none; stroke: #b0b0b0; stroke-width: 0.8; stroke-linecap: square"/>
     </g>
     <g id="line2d_22">
      <g>
       <use xlink:href="#m2b6731bbdd" x="36" y="120.42" style="stroke: #000000; stroke-width: 0.8"/>
      </g>
     </g>
     <g id="text_12">
      <!-- 0.85 -->
      <g transform="translate(6.734375 124.219219)scale(0.1 -0.1)">
       <use xlink:href="#DejaVuSans-30"/>
       <use xlink:href="#DejaVuSans-2e" x="63.623047"/>
       <use xlink:href="#DejaVuSans-38" x="95.410156"/>
       <use xlink:href="#DejaVuSans-35" x="159.033203"/>
      </g>
     </g>
    </g>
    <g id="ytick_6">
     <g id="line2d_23">
      <path d="M 36 79.65 
L 259.2 79.65 
" clip-path="url(#p02d1f310cb)" style="fill: none; stroke: #b0b0b0; stroke-width: 0.8; stroke-linecap: square"/>
     </g>
     <g id="line2d_24">
      <g>
       <use xlink:href="#m2b6731bbdd" x="36" y="79.65" style="stroke: #000000; stroke-width: 0.8"/>
      </g>
     </g>
     <g id="text_13">
      <!-- 0.90 -->
      <g transform="translate(6.734375 83.449219)scale(0.1 -0.1)">
       <defs>
        <path id="DejaVuSans-39" d="M 703 97 
L 703 672 
Q 941 559 1184 500 
Q 1428 441 1663 441 
Q 2288 441 2617 861 
Q 2947 1281 2994 2138 
Q 2813 1869 2534 1725 
Q 2256 1581 1919 1581 
Q 1219 1581 811 2004 
Q 403 2428 403 3163 
Q 403 3881 828 4315 
Q 1253 4750 1959 4750 
Q 2769 4750 3195 4129 
Q 3622 3509 3622 2328 
Q 3622 1225 3098 567 
Q 2575 -91 1691 -91 
Q 1453 -91 1209 -44 
Q 966 3 703 97 
z
M 1959 2075 
Q 2384 2075 2632 2365 
Q 2881 2656 2881 3163 
Q 2881 3666 2632 3958 
Q 2384 4250 1959 4250 
Q 1534 4250 1286 3958 
Q 1038 3666 1038 3163 
Q 1038 2656 1286 2365 
Q 1534 2075 1959 2075 
z
" transform="scale(0.015625)"/>
       </defs>
       <use xlink:href="#DejaVuSans-30"/>
       <use xlink:href="#DejaVuSans-2e" x="63.623047"/>
       <use xlink:href="#DejaVuSans-39" x="95.410156"/>
       <use xlink:href="#DejaVuSans-30" x="159.033203"/>
      </g>
     </g>
    </g>
    <g id="ytick_7">
     <g id="line2d_25">
      <path d="M 36 38.88 
L 259.2 38.88 
" clip-path="url(#p02d1f310cb)" style="fill: none; stroke: #b0b0b0; stroke-width: 0.8; stroke-linecap: square"/>
     </g>
     <g id="line2d_26">
      <g>
       <use xlink:href="#m2b6731bbdd" x="36" y="38.88" style="stroke: #000000; stroke-width: 0.8"/>
      </g>
     </g>
     <g id="text_14">
      <!-- 0.95 -->
      <g transform="translate(6.734375 42.679219)scale(0.1 -0.1)">
       <use xlink:href="#DejaVuSans-30"/>
       <use xlink:href="#DejaVuSans-2e" x="63.623047"/>
       <use xlink:href="#DejaVuSans-39" x="95.410156"/>
       <use xlink:href="#DejaVuSans-35" x="159.033203"/>
      </g>
     </g>
    </g>
    <g id="text_15">
     <!-- Accuracy ($\bar{x} \pm s \div \sqrt{N}$) -->
     <g transform="translate(0.634375 215.44)rotate(-90)scale(0.1 -0.1)">
      <defs>
       <path id="DejaVuSans-41" d="M 2188 4044 
L 1331 1722 
L 3047 1722 
L 2188 4044 
z
M 1831 4666 
L 2547 4666 
L 4325 0 
L 3669 0 
L 3244 1197 
L 1141 1197 
L 716 0 
L 50 0 
L 1831 4666 
z
" transform="scale(0.015625)"/>
       <path id="DejaVuSans-75" d="M 544 1381 
L 544 3500 
L 1119 3500 
L 1119 1403 
Q 1119 906 1312 657 
Q 1506 409 1894 409 
Q 2359 409 2629 706 
Q 2900 1003 2900 1516 
L 2900 3500 
L 3475 3500 
L 3475 0 
L 2900 0 
L 2900 538 
Q 2691 219 2414 64 
Q 2138 -91 1772 -91 
Q 1169 -91 856 284 
Q 544 659 544 1381 
z
M 1991 3584 
L 1991 3584 
z
" transform="scale(0.015625)"/>
       <path id="DejaVuSans-72" d="M 2631 2963 
Q 2534 3019 2420 3045 
Q 2306 3072 2169 3072 
Q 1681 3072 1420 2755 
Q 1159 2438 1159 1844 
L 1159 0 
L 581 0 
L 581 3500 
L 1159 3500 
L 1159 2956 
Q 1341 3275 1631 3429 
Q 1922 3584 2338 3584 
Q 2397 3584 2469 3576 
Q 2541 3569 2628 3553 
L 2631 2963 
z
" transform="scale(0.015625)"/>
       <path id="DejaVuSans-61" d="M 2194 1759 
Q 1497 1759 1228 1600 
Q 959 1441 959 1056 
Q 959 750 1161 570 
Q 1363 391 1709 391 
Q 2188 391 2477 730 
Q 2766 1069 2766 1631 
L 2766 1759 
L 2194 1759 
z
M 3341 1997 
L 3341 0 
L 2766 0 
L 2766 531 
Q 2569 213 2275 61 
Q 1981 -91 1556 -91 
Q 1019 -91 701 211 
Q 384 513 384 1019 
Q 384 1609 779 1909 
Q 1175 2209 1959 2209 
L 2766 2209 
L 2766 2266 
Q 2766 2663 2505 2880 
Q 2244 3097 1772 3097 
Q 1472 3097 1187 3025 
Q 903 2953 641 2809 
L 641 3341 
Q 956 3463 1253 3523 
Q 1550 3584 1831 3584 
Q 2591 3584 2966 3190 
Q 3341 2797 3341 1997 
z
" transform="scale(0.015625)"/>
       <path id="DejaVuSans-79" d="M 2059 -325 
Q 1816 -950 1584 -1140 
Q 1353 -1331 966 -1331 
L 506 -1331 
L 506 -850 
L 844 -850 
Q 1081 -850 1212 -737 
Q 1344 -625 1503 -206 
L 1606 56 
L 191 3500 
L 800 3500 
L 1894 763 
L 2988 3500 
L 3597 3500 
L 2059 -325 
z
" transform="scale(0.015625)"/>
       <path id="DejaVuSans-20" transform="scale(0.015625)"/>
       <path id="DejaVuSans-28" d="M 1984 4856 
Q 1566 4138 1362 3434 
Q 1159 2731 1159 2009 
Q 1159 1288 1364 580 
Q 1569 -128 1984 -844 
L 1484 -844 
Q 1016 -109 783 600 
Q 550 1309 550 2009 
Q 550 2706 781 3412 
Q 1013 4119 1484 4856 
L 1984 4856 
z
" transform="scale(0.015625)"/>
       <path id="DejaVuSans-304" d="M -2518 4769 
L -650 4769 
L -650 4306 
L -2518 4306 
L -2518 4769 
z
" transform="scale(0.015625)"/>
       <path id="DejaVuSans-Oblique-78" d="M 3841 3500 
L 2234 1784 
L 3219 0 
L 2559 0 
L 1819 1388 
L 531 0 
L -166 0 
L 1556 1844 
L 641 3500 
L 1300 3500 
L 1972 2234 
L 3144 3500 
L 3841 3500 
z
" transform="scale(0.015625)"/>
       <path id="DejaVuSans-b1" d="M 2944 4013 
L 2944 2803 
L 4684 2803 
L 4684 2272 
L 2944 2272 
L 2944 1063 
L 2419 1063 
L 2419 2272 
L 678 2272 
L 678 2803 
L 2419 2803 
L 2419 4013 
L 2944 4013 
z
M 678 531 
L 4684 531 
L 4684 0 
L 678 0 
L 678 531 
z
" transform="scale(0.015625)"/>
       <path id="DejaVuSans-Oblique-73" d="M 3200 3397 
L 3091 2853 
Q 2863 2978 2609 3040 
Q 2356 3103 2088 3103 
Q 1634 3103 1373 2948 
Q 1113 2794 1113 2528 
Q 1113 2219 1719 2053 
Q 1766 2041 1788 2034 
L 1972 1978 
Q 2547 1819 2739 1644 
Q 2931 1469 2931 1166 
Q 2931 609 2489 259 
Q 2047 -91 1331 -91 
Q 1053 -91 747 -37 
Q 441 16 72 128 
L 184 722 
Q 500 559 806 475 
Q 1113 391 1394 391 
Q 1816 391 2080 572 
Q 2344 753 2344 1031 
Q 2344 1331 1650 1516 
L 1591 1531 
L 1394 1581 
Q 956 1697 753 1886 
Q 550 2075 550 2369 
Q 550 2928 970 3256 
Q 1391 3584 2113 3584 
Q 2397 3584 2667 3537 
Q 2938 3491 3200 3397 
z
" transform="scale(0.015625)"/>
       <path id="DejaVuSans-f7" d="M 2297 3547 
L 3066 3547 
L 3066 2778 
L 2297 2778 
L 2297 3547 
z
M 2297 1234 
L 3066 1234 
L 3066 469 
L 2297 469 
L 2297 1234 
z
M 678 2272 
L 4684 2272 
L 4684 1741 
L 678 1741 
L 678 2272 
z
" transform="scale(0.015625)"/>
       <path id="STIXSizeOneSym-Regular-221a" d="M 6970 9933 
L 3373 -1888 
L 3104 -1888 
L 1626 2918 
Q 1555 3149 1465 3251 
Q 1376 3354 1229 3354 
Q 1011 3354 794 3181 
L 717 3309 
L 1766 4115 
L 1926 4115 
L 3379 -602 
L 3405 -602 
L 6605 9933 
L 6970 9933 
z
" transform="scale(0.015625)"/>
       <path id="DejaVuSans-Oblique-4e" d="M 1081 4666 
L 1931 4666 
L 3219 666 
L 4000 4666 
L 4616 4666 
L 3706 0 
L 2853 0 
L 1569 4025 
L 788 0 
L 172 0 
L 1081 4666 
z
" transform="scale(0.015625)"/>
       <path id="DejaVuSans-29" d="M 513 4856 
L 1013 4856 
Q 1481 4119 1714 3412 
Q 1947 2706 1947 2009 
Q 1947 1309 1714 600 
Q 1481 -109 1013 -844 
L 513 -844 
Q 928 -128 1133 580 
Q 1338 1288 1338 2009 
Q 1338 2731 1133 3434 
Q 928 4138 513 4856 
z
" transform="scale(0.015625)"/>
      </defs>
      <use xlink:href="#DejaVuSans-41" transform="translate(0 0.578125)"/>
      <use xlink:href="#DejaVuSans-63" transform="translate(68.408203 0.578125)"/>
      <use xlink:href="#DejaVuSans-63" transform="translate(123.388672 0.578125)"/>
      <use xlink:href="#DejaVuSans-75" transform="translate(178.369141 0.578125)"/>
      <use xlink:href="#DejaVuSans-72" transform="translate(241.748047 0.578125)"/>
      <use xlink:href="#DejaVuSans-61" transform="translate(282.861328 0.578125)"/>
      <use xlink:href="#DejaVuSans-63" transform="translate(344.140625 0.578125)"/>
      <use xlink:href="#DejaVuSans-79" transform="translate(399.121094 0.578125)"/>
      <use xlink:href="#DejaVuSans-20" transform="translate(458.300781 0.578125)"/>
      <use xlink:href="#DejaVuSans-28" transform="translate(490.087891 0.578125)"/>
      <use xlink:href="#DejaVuSans-304" transform="translate(591.240234 0.484375)"/>
      <use xlink:href="#DejaVuSans-Oblique-78" transform="translate(529.101562 0.578125)"/>
      <use xlink:href="#DejaVuSans-b1" transform="translate(607.763672 0.578125)"/>
      <use xlink:href="#DejaVuSans-Oblique-73" transform="translate(711.035156 0.578125)"/>
      <use xlink:href="#DejaVuSans-f7" transform="translate(782.617188 0.578125)"/>
      <use xlink:href="#STIXSizeOneSym-Regular-221a" transform="translate(885.888672 17.09375)scale(0.563912)"/>
      <use xlink:href="#DejaVuSans-Oblique-4e" transform="translate(957.977036 0.84375)"/>
      <use xlink:href="#DejaVuSans-29" transform="translate(1045.281723 0.578125)"/>
      <path d="M 945.477036 97.5 
L 945.477036 103.75 
L 1045.281723 103.75 
L 1045.281723 97.5 
L 945.477036 97.5 
z
"/>
     </g>
    </g>
   </g>
   <g id="line2d_27">
    <path d="M 46.145455 232.19775 
L 49.90303 177.83775 
L 53.660606 156.09375 
L 57.418182 143.523 
L 61.175758 136.558125 
L 64.933333 133.160625 
L 68.690909 125.51625 
L 72.448485 121.948875 
L 76.206061 120.929625 
L 79.963636 120.42 
L 83.721212 117.702 
L 87.478788 118.04175 
L 91.236364 119.40075 
L 94.993939 114.984 
L 98.751515 116.173125 
L 102.509091 115.32375 
L 106.266667 114.134625 
L 110.024242 117.192375 
L 113.781818 112.096125 
L 117.539394 114.474375 
L 121.29697 113.96475 
L 125.054545 114.474375 
L 128.812121 114.984 
L 132.569697 113.455125 
L 136.327273 113.96475 
L 140.084848 116.00325 
L 143.842424 112.9455 
L 147.6 113.455125 
L 151.357576 112.60575 
L 155.115152 112.435875 
L 158.872727 113.28525 
" clip-path="url(#p02d1f310cb)" style="fill: none; stroke: #1f77b4; stroke-width: 1.5; stroke-linecap: square"/>
   </g>
   <g id="line2d_28">
    <path d="M 46.145455 170.872875 
L 49.90303 138.596625 
L 53.660606 124.83675 
L 57.418182 115.833375 
L 61.175758 109.88775 
L 64.933333 105.471 
L 68.690909 103.942125 
L 72.448485 100.7145 
L 76.206061 98.845875 
L 79.963636 97.9965 
L 83.721212 96.6375 
L 87.478788 94.768875 
L 91.236364 96.807375 
L 94.993939 93.070125 
L 98.751515 94.089375 
L 102.509091 91.031625 
L 106.266667 90.352125 
L 110.024242 90.352125 
L 113.781818 89.8425 
L 117.539394 86.954625 
L 121.29697 91.2015 
L 125.054545 88.4835 
L 128.812121 87.634125 
L 132.569697 87.804 
L 136.327273 86.10525 
L 140.084848 86.78475 
L 143.842424 86.78475 
L 147.6 84.916125 
L 151.357576 85.7655 
L 155.115152 85.086 
" clip-path="url(#p02d1f310cb)" style="fill: none; stroke: #ff7f0e; stroke-width: 1.5; stroke-linecap: square"/>
   </g>
   <g id="line2d_29">
    <path d="M 46.145455 307.452375 
L 49.90303 254.961 
L 53.660606 230.329125 
L 57.418182 217.5885 
L 61.175758 205.867125 
L 64.933333 200.94075 
L 68.690909 190.918125 
L 72.448485 191.257875 
L 76.206061 183.783375 
L 79.963636 176.8185 
L 83.721212 173.251125 
L 87.478788 173.251125 
L 91.236364 171.212625 
L 94.993939 168.834375 
L 98.751515 166.116375 
L 102.509091 165.267 
L 106.266667 166.456125 
L 110.024242 162.039375 
L 113.781818 162.549 
L 117.539394 158.641875 
L 121.29697 156.603375 
L 125.054545 159.321375 
L 128.812121 157.7925 
L 132.569697 156.09375 
L 136.327273 156.4335 
L 140.084848 153.7155 
L 143.842424 154.904625 
L 147.6 153.205875 
L 151.357576 153.37575 
L 155.115152 152.526375 
L 158.872727 153.205875 
L 162.630303 152.866125 
L 166.387879 153.7155 
L 170.145455 148.959 
L 173.90303 149.128875 
" clip-path="url(#p02d1f310cb)" style="fill: none; stroke: #2ca02c; stroke-width: 1.5; stroke-linecap: square"/>
   </g>
   <g id="line2d_30">
    <path d="M 46.145455 199.072125 
L 49.90303 149.468625 
L 53.660606 137.4075 
L 57.418182 123.987375 
L 61.175758 118.551375 
L 64.933333 116.343 
L 68.690909 109.038375 
L 72.448485 108.8685 
L 76.206061 105.471 
L 79.963636 106.320375 
L 83.721212 104.7915 
L 87.478788 102.922875 
L 91.236364 105.13125 
L 94.993939 103.262625 
L 98.751515 104.112 
L 102.509091 101.224125 
L 106.266667 100.884375 
L 110.024242 101.394 
L 113.781818 100.7145 
L 117.539394 99.185625 
L 121.29697 99.185625 
L 125.054545 98.676 
L 128.812121 99.185625 
L 132.569697 99.3555 
L 136.327273 99.865125 
L 140.084848 98.676 
L 143.842424 98.676 
L 147.6 97.147125 
" clip-path="url(#p02d1f310cb)" style="fill: none; stroke: #d62728; stroke-width: 1.5; stroke-linecap: square"/>
   </g>
   <g id="line2d_31">
    <path d="M 46.145455 195.50475 
L 49.90303 171.3825 
L 53.660606 164.24775 
L 57.418182 161.020125 
L 61.175758 158.13225 
L 64.933333 152.69625 
L 68.690909 150.148125 
L 72.448485 150.148125 
L 76.206061 149.128875 
L 79.963636 147.430125 
L 83.721212 148.789125 
L 87.478788 144.712125 
L 91.236364 145.391625 
L 94.993939 144.372375 
L 98.751515 146.071125 
L 102.509091 144.372375 
L 106.266667 145.051875 
L 110.024242 141.4845 
L 113.781818 142.333875 
L 117.539394 145.051875 
L 121.29697 143.013375 
" clip-path="url(#p02d1f310cb)" style="fill: none; stroke-dasharray: 5.55,2.4; stroke-dashoffset: 0; stroke: #9467bd; stroke-width: 1.5"/>
   </g>
   <g id="line2d_32">
    <path d="M 46.145455 214.360875 
L 49.90303 170.0235 
L 53.660606 151.507125 
L 57.418182 146.410875 
L 61.175758 141.314625 
L 64.933333 136.558125 
L 68.690909 132.99075 
L 72.448485 132.141375 
L 76.206061 129.423375 
L 79.963636 126.5355 
L 83.721212 126.025875 
L 87.478788 122.628375 
L 91.236364 124.15725 
L 94.993939 121.0995 
L 98.751515 124.15725 
L 102.509091 117.36225 
L 106.266667 120.589875 
L 110.024242 120.08025 
L 113.781818 121.43925 
L 117.539394 119.7405 
L 121.29697 121.0995 
L 125.054545 117.0225 
L 128.812121 119.910375 
L 132.569697 123.307875 
L 136.327273 120.08025 
L 140.084848 118.211625 
" clip-path="url(#p02d1f310cb)" style="fill: none; stroke-dasharray: 5.55,2.4; stroke-dashoffset: 0; stroke: #8c564b; stroke-width: 1.5"/>
   </g>
   <g id="line2d_33">
    <path d="M 46.145455 237.124125 
L 49.90303 209.264625 
L 53.660606 191.42775 
L 57.418182 179.026875 
L 61.175758 174.1005 
L 64.933333 165.9465 
L 68.690909 162.549 
L 72.448485 159.1515 
L 76.206061 161.020125 
L 79.963636 156.09375 
L 83.721212 155.41425 
L 87.478788 152.526375 
L 91.236364 150.318 
L 94.993939 147.93975 
L 98.751515 148.449375 
L 102.509091 147.769875 
L 106.266667 147.430125 
L 110.024242 145.391625 
L 113.781818 146.410875 
L 117.539394 144.54225 
L 121.29697 143.523 
L 125.054545 144.032625 
L 128.812121 142.673625 
L 132.569697 145.051875 
L 136.327273 140.805 
L 140.084848 141.14475 
L 143.842424 141.314625 
L 147.6 140.46525 
L 151.357576 141.654375 
L 155.115152 141.994125 
L 158.872727 139.615875 
L 162.630303 141.4845 
L 166.387879 140.46525 
L 170.145455 141.4845 
L 173.90303 140.295375 
L 177.660606 141.314625 
L 181.418182 141.14475 
" clip-path="url(#p02d1f310cb)" style="fill: none; stroke-dasharray: 5.55,2.4; stroke-dashoffset: 0; stroke: #e377c2; stroke-width: 1.5"/>
   </g>
   <g id="line2d_34">
    <path d="M 46.145455 227.611125 
L 49.90303 164.5875 
L 53.660606 148.959 
L 57.418182 140.46525 
L 61.175758 131.292 
L 64.933333 128.574 
L 68.690909 127.384875 
L 72.448485 122.4585 
L 76.206061 119.570625 
L 79.963636 117.532125 
L 83.721212 117.702 
L 87.478788 114.134625 
L 91.236364 113.455125 
L 94.993939 109.038375 
L 98.751515 107.679375 
L 102.509091 109.378125 
L 106.266667 108.358875 
L 110.024242 104.281875 
L 113.781818 105.81075 
L 117.539394 103.262625 
L 121.29697 103.602375 
L 125.054545 101.224125 
L 128.812121 102.41325 
L 132.569697 101.394 
L 136.327273 99.01575 
L 140.084848 99.865125 
L 143.842424 99.01575 
L 147.6 99.69525 
L 151.357576 100.035 
L 155.115152 99.3555 
L 158.872727 100.37475 
L 162.630303 98.845875 
L 166.387879 98.166375 
L 170.145455 100.7145 
L 173.90303 99.185625 
L 177.660606 97.317 
L 181.418182 96.127875 
L 185.175758 94.25925 
L 188.933333 94.599 
L 192.690909 94.93875 
L 196.448485 96.6375 
L 200.206061 96.29775 
L 203.963636 93.749625 
L 207.721212 95.788125 
L 211.478788 92.730375 
L 215.236364 94.93875 
L 218.993939 94.25925 
L 222.751515 91.881 
L 226.509091 93.57975 
L 230.266667 94.25925 
L 234.024242 92.5605 
L 237.781818 92.050875 
L 241.539394 93.070125 
L 245.29697 91.371375 
L 249.054545 93.070125 
" clip-path="url(#p02d1f310cb)" style="fill: none; stroke-dasharray: 5.55,2.4; stroke-dashoffset: 0; stroke: #7f7f7f; stroke-width: 1.5"/>
   </g>
   <g id="patch_3">
    <path d="M 36 283.5 
L 36 38.88 
" style="fill: none; stroke: #000000; stroke-width: 0.8; stroke-linejoin: miter; stroke-linecap: square"/>
   </g>
   <g id="patch_4">
    <path d="M 259.2 283.5 
L 259.2 38.88 
" style="fill: none; stroke: #000000; stroke-width: 0.8; stroke-linejoin: miter; stroke-linecap: square"/>
   </g>
   <g id="patch_5">
    <path d="M 36 283.5 
L 259.2 283.5 
" style="fill: none; stroke: #000000; stroke-width: 0.8; stroke-linejoin: miter; stroke-linecap: square"/>
   </g>
   <g id="patch_6">
    <path d="M 36 38.88 
L 259.2 38.88 
" style="fill: none; stroke: #000000; stroke-width: 0.8; stroke-linejoin: miter; stroke-linecap: square"/>
   </g>
   <g id="legend_1">
    <g id="patch_7">
     <path d="M 136.107812 278.5 
L 252.2 278.5 
Q 254.2 278.5 254.2 276.5 
L 254.2 158.40625 
Q 254.2 156.40625 252.2 156.40625 
L 136.107812 156.40625 
Q 134.107812 156.40625 134.107812 158.40625 
L 134.107812 276.5 
Q 134.107812 278.5 136.107812 278.5 
z
" style="fill: #ffffff; opacity: 0.6; stroke: #cccccc; stroke-linejoin: miter"/>
    </g>
    <g id="line2d_35">
     <path d="M 138.107812 164.504687 
L 148.107812 164.504687 
L 158.107812 164.504687 
" style="fill: none; stroke: #1f77b4; stroke-width: 1.5; stroke-linecap: square"/>
    </g>
    <g id="text_16">
     <!-- vit_b_16 -->
     <g transform="translate(166.107812 168.004687)scale(0.1 -0.1)">
      <defs>
       <path id="DejaVuSans-76" d="M 191 3500 
L 800 3500 
L 1894 563 
L 2988 3500 
L 3597 3500 
L 2284 0 
L 1503 0 
L 191 3500 
z
" transform="scale(0.015625)"/>
       <path id="DejaVuSans-69" d="M 603 3500 
L 1178 3500 
L 1178 0 
L 603 0 
L 603 3500 
z
M 603 4863 
L 1178 4863 
L 1178 4134 
L 603 4134 
L 603 4863 
z
" transform="scale(0.015625)"/>
       <path id="DejaVuSans-74" d="M 1172 4494 
L 1172 3500 
L 2356 3500 
L 2356 3053 
L 1172 3053 
L 1172 1153 
Q 1172 725 1289 603 
Q 1406 481 1766 481 
L 2356 481 
L 2356 0 
L 1766 0 
Q 1100 0 847 248 
Q 594 497 594 1153 
L 594 3053 
L 172 3053 
L 172 3500 
L 594 3500 
L 594 4494 
L 1172 4494 
z
" transform="scale(0.015625)"/>
       <path id="DejaVuSans-5f" d="M 3263 -1063 
L 3263 -1509 
L -63 -1509 
L -63 -1063 
L 3263 -1063 
z
" transform="scale(0.015625)"/>
       <path id="DejaVuSans-62" d="M 3116 1747 
Q 3116 2381 2855 2742 
Q 2594 3103 2138 3103 
Q 1681 3103 1420 2742 
Q 1159 2381 1159 1747 
Q 1159 1113 1420 752 
Q 1681 391 2138 391 
Q 2594 391 2855 752 
Q 3116 1113 3116 1747 
z
M 1159 2969 
Q 1341 3281 1617 3432 
Q 1894 3584 2278 3584 
Q 2916 3584 3314 3078 
Q 3713 2572 3713 1747 
Q 3713 922 3314 415 
Q 2916 -91 2278 -91 
Q 1894 -91 1617 61 
Q 1341 213 1159 525 
L 1159 0 
L 581 0 
L 581 4863 
L 1159 4863 
L 1159 2969 
z
" transform="scale(0.015625)"/>
      </defs>
      <use xlink:href="#DejaVuSans-76"/>
      <use xlink:href="#DejaVuSans-69" x="59.179688"/>
      <use xlink:href="#DejaVuSans-74" x="86.962891"/>
      <use xlink:href="#DejaVuSans-5f" x="126.171875"/>
      <use xlink:href="#DejaVuSans-62" x="176.171875"/>
      <use xlink:href="#DejaVuSans-5f" x="239.648438"/>
      <use xlink:href="#DejaVuSans-31" x="289.648438"/>
      <use xlink:href="#DejaVuSans-36" x="353.271484"/>
     </g>
    </g>
    <g id="line2d_36">
     <path d="M 138.107812 179.460938 
L 148.107812 179.460938 
L 158.107812 179.460938 
" style="fill: none; stroke: #ff7f0e; stroke-width: 1.5; stroke-linecap: square"/>
    </g>
    <g id="text_17">
     <!-- swin_b -->
     <g transform="translate(166.107812 182.960938)scale(0.1 -0.1)">
      <defs>
       <path id="DejaVuSans-77" d="M 269 3500 
L 844 3500 
L 1563 769 
L 2278 3500 
L 2956 3500 
L 3675 769 
L 4391 3500 
L 4966 3500 
L 4050 0 
L 3372 0 
L 2619 2869 
L 1863 0 
L 1184 0 
L 269 3500 
z
" transform="scale(0.015625)"/>
       <path id="DejaVuSans-6e" d="M 3513 2113 
L 3513 0 
L 2938 0 
L 2938 2094 
Q 2938 2591 2744 2837 
Q 2550 3084 2163 3084 
Q 1697 3084 1428 2787 
Q 1159 2491 1159 1978 
L 1159 0 
L 581 0 
L 581 3500 
L 1159 3500 
L 1159 2956 
Q 1366 3272 1645 3428 
Q 1925 3584 2291 3584 
Q 2894 3584 3203 3211 
Q 3513 2838 3513 2113 
z
" transform="scale(0.015625)"/>
      </defs>
      <use xlink:href="#DejaVuSans-73"/>
      <use xlink:href="#DejaVuSans-77" x="52.099609"/>
      <use xlink:href="#DejaVuSans-69" x="133.886719"/>
      <use xlink:href="#DejaVuSans-6e" x="161.669922"/>
      <use xlink:href="#DejaVuSans-5f" x="225.048828"/>
      <use xlink:href="#DejaVuSans-62" x="275.048828"/>
     </g>
    </g>
    <g id="line2d_37">
     <path d="M 138.107812 194.417188 
L 148.107812 194.417188 
L 158.107812 194.417188 
" style="fill: none; stroke: #2ca02c; stroke-width: 1.5; stroke-linecap: square"/>
    </g>
    <g id="text_18">
     <!-- beit_b_16 -->
     <g transform="translate(166.107812 197.917188)scale(0.1 -0.1)">
      <defs>
       <path id="DejaVuSans-65" d="M 3597 1894 
L 3597 1613 
L 953 1613 
Q 991 1019 1311 708 
Q 1631 397 2203 397 
Q 2534 397 2845 478 
Q 3156 559 3463 722 
L 3463 178 
Q 3153 47 2828 -22 
Q 2503 -91 2169 -91 
Q 1331 -91 842 396 
Q 353 884 353 1716 
Q 353 2575 817 3079 
Q 1281 3584 2069 3584 
Q 2775 3584 3186 3129 
Q 3597 2675 3597 1894 
z
M 3022 2063 
Q 3016 2534 2758 2815 
Q 2500 3097 2075 3097 
Q 1594 3097 1305 2825 
Q 1016 2553 972 2059 
L 3022 2063 
z
" transform="scale(0.015625)"/>
      </defs>
      <use xlink:href="#DejaVuSans-62"/>
      <use xlink:href="#DejaVuSans-65" x="63.476562"/>
      <use xlink:href="#DejaVuSans-69" x="125"/>
      <use xlink:href="#DejaVuSans-74" x="152.783203"/>
      <use xlink:href="#DejaVuSans-5f" x="191.992188"/>
      <use xlink:href="#DejaVuSans-62" x="241.992188"/>
      <use xlink:href="#DejaVuSans-5f" x="305.46875"/>
      <use xlink:href="#DejaVuSans-31" x="355.46875"/>
      <use xlink:href="#DejaVuSans-36" x="419.091797"/>
     </g>
    </g>
    <g id="line2d_38">
     <path d="M 138.107812 209.373437 
L 148.107812 209.373437 
L 158.107812 209.373437 
" style="fill: none; stroke: #d62728; stroke-width: 1.5; stroke-linecap: square"/>
    </g>
    <g id="text_19">
     <!-- deit_b_16 -->
     <g transform="translate(166.107812 212.873437)scale(0.1 -0.1)">
      <defs>
       <path id="DejaVuSans-64" d="M 2906 2969 
L 2906 4863 
L 3481 4863 
L 3481 0 
L 2906 0 
L 2906 525 
Q 2725 213 2448 61 
Q 2172 -91 1784 -91 
Q 1150 -91 751 415 
Q 353 922 353 1747 
Q 353 2572 751 3078 
Q 1150 3584 1784 3584 
Q 2172 3584 2448 3432 
Q 2725 3281 2906 2969 
z
M 947 1747 
Q 947 1113 1208 752 
Q 1469 391 1925 391 
Q 2381 391 2643 752 
Q 2906 1113 2906 1747 
Q 2906 2381 2643 2742 
Q 2381 3103 1925 3103 
Q 1469 3103 1208 2742 
Q 947 2381 947 1747 
z
" transform="scale(0.015625)"/>
      </defs>
      <use xlink:href="#DejaVuSans-64"/>
      <use xlink:href="#DejaVuSans-65" x="63.476562"/>
      <use xlink:href="#DejaVuSans-69" x="125"/>
      <use xlink:href="#DejaVuSans-74" x="152.783203"/>
      <use xlink:href="#DejaVuSans-5f" x="191.992188"/>
      <use xlink:href="#DejaVuSans-62" x="241.992188"/>
      <use xlink:href="#DejaVuSans-5f" x="305.46875"/>
      <use xlink:href="#DejaVuSans-31" x="355.46875"/>
      <use xlink:href="#DejaVuSans-36" x="419.091797"/>
     </g>
    </g>
    <g id="line2d_39">
     <path d="M 138.107812 224.329687 
L 148.107812 224.329687 
L 158.107812 224.329687 
" style="fill: none; stroke-dasharray: 5.55,2.4; stroke-dashoffset: 0; stroke: #9467bd; stroke-width: 1.5"/>
    </g>
    <g id="text_20">
     <!-- vgg19 -->
     <g transform="translate(166.107812 227.829687)scale(0.1 -0.1)">
      <defs>
       <path id="DejaVuSans-67" d="M 2906 1791 
Q 2906 2416 2648 2759 
Q 2391 3103 1925 3103 
Q 1463 3103 1205 2759 
Q 947 2416 947 1791 
Q 947 1169 1205 825 
Q 1463 481 1925 481 
Q 2391 481 2648 825 
Q 2906 1169 2906 1791 
z
M 3481 434 
Q 3481 -459 3084 -895 
Q 2688 -1331 1869 -1331 
Q 1566 -1331 1297 -1286 
Q 1028 -1241 775 -1147 
L 775 -588 
Q 1028 -725 1275 -790 
Q 1522 -856 1778 -856 
Q 2344 -856 2625 -561 
Q 2906 -266 2906 331 
L 2906 616 
Q 2728 306 2450 153 
Q 2172 0 1784 0 
Q 1141 0 747 490 
Q 353 981 353 1791 
Q 353 2603 747 3093 
Q 1141 3584 1784 3584 
Q 2172 3584 2450 3431 
Q 2728 3278 2906 2969 
L 2906 3500 
L 3481 3500 
L 3481 434 
z
" transform="scale(0.015625)"/>
      </defs>
      <use xlink:href="#DejaVuSans-76"/>
      <use xlink:href="#DejaVuSans-67" x="59.179688"/>
      <use xlink:href="#DejaVuSans-67" x="122.65625"/>
      <use xlink:href="#DejaVuSans-31" x="186.132812"/>
      <use xlink:href="#DejaVuSans-39" x="249.755859"/>
     </g>
    </g>
    <g id="line2d_40">
     <path d="M 138.107812 239.007812 
L 148.107812 239.007812 
L 158.107812 239.007812 
" style="fill: none; stroke-dasharray: 5.55,2.4; stroke-dashoffset: 0; stroke: #8c564b; stroke-width: 1.5"/>
    </g>
    <g id="text_21">
     <!-- resnet50 -->
     <g transform="translate(166.107812 242.507812)scale(0.1 -0.1)">
      <use xlink:href="#DejaVuSans-72"/>
      <use xlink:href="#DejaVuSans-65" x="38.863281"/>
      <use xlink:href="#DejaVuSans-73" x="100.386719"/>
      <use xlink:href="#DejaVuSans-6e" x="152.486328"/>
      <use xlink:href="#DejaVuSans-65" x="215.865234"/>
      <use xlink:href="#DejaVuSans-74" x="277.388672"/>
      <use xlink:href="#DejaVuSans-35" x="316.597656"/>
      <use xlink:href="#DejaVuSans-30" x="380.220703"/>
     </g>
    </g>
    <g id="line2d_41">
     <path d="M 138.107812 253.685938 
L 148.107812 253.685938 
L 158.107812 253.685938 
" style="fill: none; stroke-dasharray: 5.55,2.4; stroke-dashoffset: 0; stroke: #e377c2; stroke-width: 1.5"/>
    </g>
    <g id="text_22">
     <!-- efficientnetv2_m -->
     <g transform="translate(166.107812 257.185938)scale(0.1 -0.1)">
      <defs>
       <path id="DejaVuSans-66" d="M 2375 4863 
L 2375 4384 
L 1825 4384 
Q 1516 4384 1395 4259 
Q 1275 4134 1275 3809 
L 1275 3500 
L 2222 3500 
L 2222 3053 
L 1275 3053 
L 1275 0 
L 697 0 
L 697 3053 
L 147 3053 
L 147 3500 
L 697 3500 
L 697 3744 
Q 697 4328 969 4595 
Q 1241 4863 1831 4863 
L 2375 4863 
z
" transform="scale(0.015625)"/>
       <path id="DejaVuSans-6d" d="M 3328 2828 
Q 3544 3216 3844 3400 
Q 4144 3584 4550 3584 
Q 5097 3584 5394 3201 
Q 5691 2819 5691 2113 
L 5691 0 
L 5113 0 
L 5113 2094 
Q 5113 2597 4934 2840 
Q 4756 3084 4391 3084 
Q 3944 3084 3684 2787 
Q 3425 2491 3425 1978 
L 3425 0 
L 2847 0 
L 2847 2094 
Q 2847 2600 2669 2842 
Q 2491 3084 2119 3084 
Q 1678 3084 1418 2786 
Q 1159 2488 1159 1978 
L 1159 0 
L 581 0 
L 581 3500 
L 1159 3500 
L 1159 2956 
Q 1356 3278 1631 3431 
Q 1906 3584 2284 3584 
Q 2666 3584 2933 3390 
Q 3200 3197 3328 2828 
z
" transform="scale(0.015625)"/>
      </defs>
      <use xlink:href="#DejaVuSans-65"/>
      <use xlink:href="#DejaVuSans-66" x="61.523438"/>
      <use xlink:href="#DejaVuSans-66" x="96.728516"/>
      <use xlink:href="#DejaVuSans-69" x="131.933594"/>
      <use xlink:href="#DejaVuSans-63" x="159.716797"/>
      <use xlink:href="#DejaVuSans-69" x="214.697266"/>
      <use xlink:href="#DejaVuSans-65" x="242.480469"/>
      <use xlink:href="#DejaVuSans-6e" x="304.003906"/>
      <use xlink:href="#DejaVuSans-74" x="367.382812"/>
      <use xlink:href="#DejaVuSans-6e" x="406.591797"/>
      <use xlink:href="#DejaVuSans-65" x="469.970703"/>
      <use xlink:href="#DejaVuSans-74" x="531.494141"/>
      <use xlink:href="#DejaVuSans-76" x="570.703125"/>
      <use xlink:href="#DejaVuSans-32" x="629.882812"/>
      <use xlink:href="#DejaVuSans-5f" x="693.505859"/>
      <use xlink:href="#DejaVuSans-6d" x="743.505859"/>
     </g>
    </g>
    <g id="line2d_42">
     <path d="M 138.107812 268.642187 
L 148.107812 268.642187 
L 158.107812 268.642187 
" style="fill: none; stroke-dasharray: 5.55,2.4; stroke-dashoffset: 0; stroke: #7f7f7f; stroke-width: 1.5"/>
    </g>
    <g id="text_23">
     <!-- convnext_b -->
     <g transform="translate(166.107812 272.142187)scale(0.1 -0.1)">
      <defs>
       <path id="DejaVuSans-78" d="M 3513 3500 
L 2247 1797 
L 3578 0 
L 2900 0 
L 1881 1375 
L 863 0 
L 184 0 
L 1544 1831 
L 300 3500 
L 978 3500 
L 1906 2253 
L 2834 3500 
L 3513 3500 
z
" transform="scale(0.015625)"/>
      </defs>
      <use xlink:href="#DejaVuSans-63"/>
      <use xlink:href="#DejaVuSans-6f" x="54.980469"/>
      <use xlink:href="#DejaVuSans-6e" x="116.162109"/>
      <use xlink:href="#DejaVuSans-76" x="179.541016"/>
      <use xlink:href="#DejaVuSans-6e" x="238.720703"/>
      <use xlink:href="#DejaVuSans-65" x="302.099609"/>
      <use xlink:href="#DejaVuSans-78" x="361.873047"/>
      <use xlink:href="#DejaVuSans-74" x="421.052734"/>
      <use xlink:href="#DejaVuSans-5f" x="460.261719"/>
      <use xlink:href="#DejaVuSans-62" x="510.261719"/>
     </g>
    </g>
   </g>
  </g>
 </g>
 <defs>
  <clipPath id="p02d1f310cb">
   <rect x="36" y="38.88" width="223.2" height="244.62"/>
  </clipPath>
 </defs>
</svg>
