<?xml version="1.0" encoding="utf-8" standalone="no"?>
<!DOCTYPE svg PUBLIC "-//W3C//DTD SVG 1.1//EN"
  "http://www.w3.org/Graphics/SVG/1.1/DTD/svg11.dtd">
<svg xmlns:xlink="http://www.w3.org/1999/xlink" width="360pt" height="432pt" viewBox="0 0 360 432" xmlns="http://www.w3.org/2000/svg" version="1.1">
 <metadata>
  <rdf:RDF xmlns:dc="http://purl.org/dc/elements/1.1/" xmlns:cc="http://creativecommons.org/ns#" xmlns:rdf="http://www.w3.org/1999/02/22-rdf-syntax-ns#">
   <cc:Work>
    <dc:type rdf:resource="http://purl.org/dc/dcmitype/StillImage"/>
    <dc:date>2022-05-20T13:31:26.875126</dc:date>
    <dc:format>image/svg+xml</dc:format>
    <dc:creator>
     <cc:Agent>
      <dc:title>Matplotlib v3.5.2, https://matplotlib.org/</dc:title>
     </cc:Agent>
    </dc:creator>
   </cc:Work>
  </rdf:RDF>
 </metadata>
 <defs>
  <style type="text/css">*{stroke-linejoin: round; stroke-linecap: butt}</style>
 </defs>
 <g id="figure_1">
  <g id="patch_1">
   <path d="M 0 432 
L 360 432 
L 360 0 
L 0 0 
L 0 432 
z
" style="fill: none"/>
  </g>
  <g id="axes_1">
   <g id="patch_2">
    <path d="M 45 378 
L 324 378 
L 324 51.84 
L 45 51.84 
z
" style="fill: #ffffff"/>
   </g>
   <g id="PolyCollection_1">
    <path d="M 57.681818 131.36806 
L 57.681818 135.319041 
L 62.378788 230.299067 
L 67.075758 261.430542 
L 71.772727 278.764935 
L 76.469697 290.379223 
L 81.166667 297.664321 
L 85.863636 303.715632 
L 90.560606 309.281113 
L 95.257576 312.268002 
L 99.954545 315.36697 
L 104.651515 317.904572 
L 109.348485 319.70745 
L 114.045455 321.043829 
L 118.742424 322.6683 
L 123.439394 324.117064 
L 128.136364 324.404606 
L 132.833333 325.955434 
L 137.530303 326.104661 
L 142.227273 327.610116 
L 146.924242 327.21954 
L 151.621212 327.928468 
L 156.318182 328.721864 
L 161.015152 328.210316 
L 165.712121 328.652132 
L 170.409091 328.931901 
L 175.106061 328.651976 
L 179.80303 328.944397 
L 184.5 328.90573 
L 189.19697 329.292019 
L 193.893939 328.789582 
L 198.590909 328.511923 
L 198.590909 320.497511 
L 198.590909 320.497511 
L 193.893939 320.892967 
L 189.19697 320.962433 
L 184.5 320.670964 
L 179.80303 321.493562 
L 175.106061 320.51736 
L 170.409091 320.705186 
L 165.712121 320.871226 
L 161.015152 320.266386 
L 156.318182 320.879141 
L 151.621212 320.175369 
L 146.924242 319.611277 
L 142.227273 320.012164 
L 137.530303 318.912644 
L 132.833333 317.982291 
L 128.136364 317.120853 
L 123.439394 317.084736 
L 118.742424 315.826399 
L 114.045455 314.192953 
L 109.348485 312.426357 
L 104.651515 310.948457 
L 99.954545 308.369877 
L 95.257576 305.578275 
L 90.560606 302.167431 
L 85.863636 297.140721 
L 81.166667 291.323445 
L 76.469697 283.783401 
L 71.772727 272.370414 
L 67.075758 254.761229 
L 62.378788 224.196511 
L 57.681818 131.36806 
z
" clip-path="url(#p003e7582d6)" style="fill: #1f77b4; fill-opacity: 0.2"/>
   </g>
   <g id="PolyCollection_2">
    <path d="M 57.681818 219.918352 
L 57.681818 222.599638 
L 62.378788 287.650931 
L 67.075758 308.482924 
L 71.772727 320.383887 
L 76.469697 327.321525 
L 81.166667 333.27386 
L 85.863636 338.001201 
L 90.560606 341.195231 
L 95.257576 343.408395 
L 99.954545 345.226588 
L 104.651515 347.094066 
L 109.348485 349.071595 
L 114.045455 349.691985 
L 118.742424 350.581667 
L 123.439394 351.535896 
L 128.136364 352.633847 
L 132.833333 353.105816 
L 137.530303 353.513228 
L 142.227273 353.593363 
L 146.924242 354.646866 
L 151.621212 355.081474 
L 156.318182 354.719254 
L 161.015152 355.762527 
L 165.712121 355.442207 
L 170.409091 355.81217 
L 175.106061 356.019183 
L 179.80303 355.784832 
L 184.5 355.838188 
L 189.19697 356.533318 
L 193.893939 356.36728 
L 193.893939 353.758373 
L 193.893939 353.758373 
L 189.19697 353.576792 
L 184.5 352.909855 
L 179.80303 352.571823 
L 175.106061 352.927016 
L 170.409091 352.131919 
L 165.712121 352.10455 
L 161.015152 352.428557 
L 156.318182 351.95231 
L 151.621212 352.008196 
L 146.924242 351.725417 
L 142.227273 350.850183 
L 137.530303 350.770072 
L 132.833333 349.88229 
L 128.136364 348.861501 
L 123.439394 347.687181 
L 118.742424 347.063018 
L 114.045455 346.857798 
L 109.348485 346.215273 
L 104.651515 344.272826 
L 99.954545 342.504102 
L 95.257576 340.602813 
L 90.560606 337.884591 
L 85.863636 335.064891 
L 81.166667 330.275959 
L 76.469697 324.512516 
L 71.772727 317.320278 
L 67.075758 306.019633 
L 62.378788 285.957187 
L 57.681818 219.918352 
z
" clip-path="url(#p003e7582d6)" style="fill: #ff7f0e; fill-opacity: 0.2"/>
   </g>
   <g id="PolyCollection_3">
    <path d="M 57.681818 39.872706 
L 57.681818 45.208273 
L 62.378788 131.448056 
L 67.075758 168.866495 
L 71.772727 190.859692 
L 76.469697 204.178844 
L 81.166667 214.432147 
L 85.863636 224.138134 
L 90.560606 228.6963 
L 95.257576 235.806168 
L 99.954545 240.498746 
L 104.651515 246.427738 
L 109.348485 247.646286 
L 114.045455 250.649728 
L 118.742424 253.817556 
L 123.439394 255.616858 
L 128.136364 257.533914 
L 132.833333 258.507681 
L 137.530303 262.489771 
L 142.227273 261.063693 
L 146.924242 263.119729 
L 151.621212 263.763987 
L 156.318182 265.148865 
L 161.015152 265.954721 
L 165.712121 267.320953 
L 170.409091 267.172605 
L 175.106061 269.138145 
L 179.80303 268.575813 
L 184.5 269.979919 
L 189.19697 269.687051 
L 193.893939 269.641817 
L 198.590909 269.369043 
L 203.287879 269.874262 
L 207.984848 271.820042 
L 212.681818 272.157171 
L 217.378788 270.134186 
L 217.378788 264.799461 
L 217.378788 264.799461 
L 212.681818 266.570712 
L 207.984848 265.387375 
L 203.287879 265.653093 
L 198.590909 263.802482 
L 193.893939 264.539942 
L 189.19697 265.667683 
L 184.5 266.22261 
L 179.80303 263.633166 
L 175.106061 265.331519 
L 170.409091 262.711792 
L 165.712121 263.297862 
L 161.015152 262.799654 
L 156.318182 260.516797 
L 151.621212 260.709375 
L 146.924242 258.169773 
L 142.227273 258.534133 
L 137.530303 258.049874 
L 132.833333 256.158603 
L 128.136364 253.953658 
L 123.439394 252.765352 
L 118.742424 250.787256 
L 114.045455 247.30702 
L 109.348485 244.46653 
L 104.651515 243.672315 
L 99.954545 239.489906 
L 95.257576 233.448791 
L 90.560606 226.377161 
L 85.863636 222.369907 
L 81.166667 213.120968 
L 76.469697 201.981779 
L 71.772727 188.736831 
L 67.075758 165.96307 
L 62.378788 129.340744 
L 57.681818 39.872706 
z
" clip-path="url(#p003e7582d6)" style="fill: #2ca02c; fill-opacity: 0.2"/>
   </g>
   <g id="PolyCollection_4">
    <path d="M 57.681818 178.768443 
L 57.681818 181.169829 
L 62.378788 263.548261 
L 67.075758 289.788127 
L 71.772727 303.966084 
L 76.469697 313.140512 
L 81.166667 319.720218 
L 85.863636 324.549028 
L 90.560606 327.544955 
L 95.257576 330.652 
L 99.954545 333.065502 
L 104.651515 334.719194 
L 109.348485 335.966264 
L 114.045455 336.745201 
L 118.742424 338.30956 
L 123.439394 338.702638 
L 128.136364 339.979399 
L 132.833333 340.660957 
L 137.530303 340.732658 
L 142.227273 341.132727 
L 146.924242 341.48485 
L 151.621212 342.051247 
L 156.318182 341.9611 
L 161.015152 342.824649 
L 165.712121 342.491988 
L 170.409091 342.770604 
L 175.106061 342.677397 
L 179.80303 342.712226 
L 184.5 342.786595 
L 184.5 336.508377 
L 184.5 336.508377 
L 179.80303 336.546749 
L 175.106061 336.808297 
L 170.409091 337.251712 
L 165.712121 336.616845 
L 161.015152 337.3508 
L 156.318182 336.022671 
L 151.621212 336.444817 
L 146.924242 336.211058 
L 142.227273 335.99161 
L 137.530303 335.813428 
L 132.833333 335.70179 
L 128.136364 334.921004 
L 123.439394 333.60163 
L 118.742424 333.211349 
L 114.045455 331.984456 
L 109.348485 331.315091 
L 104.651515 330.136004 
L 99.954545 328.106387 
L 95.257576 325.882086 
L 90.560606 322.846438 
L 85.863636 319.63714 
L 81.166667 315.312271 
L 76.469697 309.298503 
L 71.772727 299.447818 
L 67.075758 285.444624 
L 62.378788 259.596361 
L 57.681818 178.768443 
z
" clip-path="url(#p003e7582d6)" style="fill: #d62728; fill-opacity: 0.2"/>
   </g>
   <g id="PolyCollection_5">
    <path d="M 57.681818 224.764663 
L 57.681818 227.169146 
L 62.378788 257.529963 
L 67.075758 269.448783 
L 71.772727 276.575256 
L 76.469697 281.076866 
L 81.166667 285.448371 
L 85.863636 286.946973 
L 90.560606 288.022877 
L 95.257576 290.571644 
L 99.954545 292.68336 
L 104.651515 292.44891 
L 109.348485 295.359357 
L 114.045455 295.013183 
L 118.742424 296.022969 
L 123.439394 294.353258 
L 128.136364 296.033848 
L 132.833333 294.881551 
L 137.530303 296.507817 
L 142.227273 295.124858 
L 146.924242 294.785105 
L 151.621212 295.150122 
L 151.621212 289.387137 
L 151.621212 289.387137 
L 146.924242 290.980723 
L 142.227273 291.057513 
L 137.530303 292.631318 
L 132.833333 289.782602 
L 128.136364 292.330819 
L 123.439394 289.189119 
L 118.742424 291.507948 
L 114.045455 290.164138 
L 109.348485 291.733469 
L 104.651515 288.563024 
L 99.954545 287.981138 
L 95.257576 287.686774 
L 90.560606 284.229416 
L 85.863636 283.811013 
L 81.166667 283.58822 
L 76.469697 278.203479 
L 71.772727 274.468063 
L 67.075758 268.114715 
L 62.378788 255.345375 
L 57.681818 224.764663 
z
" clip-path="url(#p003e7582d6)" style="fill: #9467bd; fill-opacity: 0.2"/>
   </g>
   <g id="PolyCollection_6">
    <path d="M 57.681818 144.989716 
L 57.681818 150.114355 
L 62.378788 238.590582 
L 67.075758 264.258663 
L 71.772727 277.721054 
L 76.469697 288.256528 
L 81.166667 295.087289 
L 85.863636 298.802922 
L 90.560606 303.222624 
L 95.257576 307.168004 
L 99.954545 310.258116 
L 104.651515 311.675527 
L 109.348485 312.538846 
L 114.045455 315.183375 
L 118.742424 317.503042 
L 123.439394 315.413605 
L 128.136364 318.851792 
L 132.833333 319.250568 
L 137.530303 319.89124 
L 142.227273 317.740944 
L 146.924242 321.090625 
L 151.621212 321.455979 
L 156.318182 320.054355 
L 161.015152 321.774719 
L 165.712121 320.560441 
L 170.409091 322.810647 
L 175.106061 322.893581 
L 175.106061 314.844711 
L 175.106061 314.844711 
L 170.409091 315.041832 
L 165.712121 312.23113 
L 161.015152 312.77212 
L 156.318182 314.050674 
L 151.621212 313.757808 
L 146.924242 314.069235 
L 142.227273 313.076722 
L 137.530303 312.677022 
L 132.833333 311.117768 
L 128.136364 312.7681 
L 123.439394 309.448541 
L 118.742424 311.406786 
L 114.045455 309.943248 
L 109.348485 306.915285 
L 104.651515 305.716495 
L 99.954545 305.223961 
L 95.257576 300.100022 
L 90.560606 296.799915 
L 85.863636 292.716262 
L 81.166667 288.80687 
L 76.469697 282.320245 
L 71.772727 272.871858 
L 67.075758 259.345194 
L 62.378788 232.364346 
L 57.681818 144.989716 
z
" clip-path="url(#p003e7582d6)" style="fill: #8c564b; fill-opacity: 0.2"/>
   </g>
   <g id="PolyCollection_7">
    <path d="M 57.681818 -72.800318 
L 57.681818 -65.91057 
L 62.378788 98.369918 
L 67.075758 157.548122 
L 71.772727 189.495448 
L 76.469697 210.686908 
L 81.166667 224.64118 
L 85.863636 234.918812 
L 90.560606 242.582757 
L 95.257576 249.040625 
L 99.954545 254.422278 
L 104.651515 258.540434 
L 109.348485 261.775636 
L 114.045455 264.279227 
L 118.742424 267.932331 
L 123.439394 269.528299 
L 128.136364 271.367642 
L 132.833333 272.787286 
L 137.530303 273.479553 
L 142.227273 275.984577 
L 146.924242 277.228893 
L 151.621212 278.00738 
L 156.318182 278.464266 
L 161.015152 278.735794 
L 165.712121 280.464168 
L 170.409091 280.710029 
L 175.106061 282.018156 
L 179.80303 282.147689 
L 184.5 282.091698 
L 189.19697 282.749358 
L 193.893939 283.438233 
L 198.590909 282.940535 
L 203.287879 283.758427 
L 207.984848 283.90617 
L 212.681818 284.17395 
L 217.378788 284.576101 
L 222.075758 284.644893 
L 226.772727 284.556944 
L 226.772727 275.109638 
L 226.772727 275.109638 
L 222.075758 275.06701 
L 217.378788 275.286571 
L 212.681818 274.748729 
L 207.984848 274.392939 
L 203.287879 274.464953 
L 198.590909 273.961875 
L 193.893939 274.356802 
L 189.19697 273.594041 
L 184.5 273.447037 
L 179.80303 272.892231 
L 175.106061 272.805862 
L 170.409091 272.516184 
L 165.712121 271.871868 
L 161.015152 270.96235 
L 156.318182 270.443458 
L 151.621212 269.449266 
L 146.924242 268.813929 
L 142.227273 268.076537 
L 137.530303 266.335803 
L 132.833333 264.77118 
L 128.136364 263.480927 
L 123.439394 261.99574 
L 118.742424 260.433381 
L 114.045455 256.978402 
L 109.348485 254.072203 
L 104.651515 250.715984 
L 99.954545 247.180469 
L 95.257576 242.180629 
L 90.560606 235.31914 
L 85.863636 228.336917 
L 81.166667 218.19011 
L 76.469697 204.421034 
L 71.772727 183.478468 
L 67.075758 152.269047 
L 62.378788 92.789861 
L 57.681818 -72.800318 
z
" clip-path="url(#p003e7582d6)" style="fill: #e377c2; fill-opacity: 0.2"/>
   </g>
   <g id="PolyCollection_8">
    <path d="M 57.681818 100.5581 
L 57.681818 104.99853 
L 62.378788 224.538805 
L 67.075758 261.258051 
L 71.772727 280.992601 
L 76.469697 293.397712 
L 81.166667 302.100382 
L 85.863636 308.590515 
L 90.560606 313.723413 
L 95.257576 318.258634 
L 99.954545 321.61684 
L 104.651515 324.537701 
L 109.348485 326.654565 
L 114.045455 328.552557 
L 118.742424 330.800302 
L 123.439394 332.482862 
L 128.136364 333.375763 
L 132.833333 335.258979 
L 137.530303 336.373569 
L 142.227273 337.681403 
L 146.924242 338.543104 
L 151.621212 339.544419 
L 156.318182 340.328434 
L 161.015152 340.546272 
L 165.712121 341.628622 
L 170.409091 341.677999 
L 175.106061 342.365482 
L 179.80303 342.925597 
L 184.5 343.37025 
L 189.19697 343.744118 
L 193.893939 344.524735 
L 198.590909 344.035623 
L 203.287879 344.67317 
L 207.984848 345.341227 
L 212.681818 345.018488 
L 217.378788 345.358187 
L 222.075758 346.299303 
L 226.772727 346.616208 
L 231.469697 346.482321 
L 236.166667 346.75887 
L 240.863636 346.41384 
L 245.560606 346.691269 
L 250.257576 346.946055 
L 254.954545 347.512188 
L 259.651515 347.641606 
L 264.348485 347.737683 
L 269.045455 347.444224 
L 273.742424 347.682825 
L 278.439394 347.599052 
L 283.136364 348.219374 
L 287.833333 348.148257 
L 292.530303 348.338357 
L 297.227273 349.094017 
L 301.924242 348.566006 
L 306.621212 348.103083 
L 311.318182 348.447263 
L 311.318182 342.996613 
L 311.318182 342.996613 
L 306.621212 342.713342 
L 301.924242 343.044916 
L 297.227273 343.122386 
L 292.530303 343.489213 
L 287.833333 343.584674 
L 283.136364 342.747591 
L 278.439394 342.547787 
L 273.742424 342.363 
L 269.045455 342.080961 
L 264.348485 342.742976 
L 259.651515 342.090114 
L 254.954545 341.747982 
L 250.257576 341.556272 
L 245.560606 342.037419 
L 240.863636 341.582059 
L 236.166667 341.428473 
L 231.469697 340.953906 
L 226.772727 340.822307 
L 222.075758 340.885995 
L 217.378788 340.487597 
L 212.681818 339.707058 
L 207.984848 339.762442 
L 203.287879 339.327419 
L 198.590909 339.4981 
L 193.893939 339.206203 
L 189.19697 338.464304 
L 184.5 337.874717 
L 179.80303 337.960475 
L 175.106061 337.019524 
L 170.409091 336.236331 
L 165.712121 336.052043 
L 161.015152 335.18568 
L 156.318182 334.722559 
L 151.621212 333.412242 
L 146.924242 333.112355 
L 142.227273 331.437853 
L 137.530303 331.075965 
L 132.833333 329.668165 
L 128.136364 327.926996 
L 123.439394 326.524132 
L 118.742424 324.875223 
L 114.045455 322.780769 
L 109.348485 320.964071 
L 104.651515 318.164834 
L 99.954545 315.525495 
L 95.257576 312.198799 
L 90.560606 307.617824 
L 85.863636 302.520885 
L 81.166667 295.972173 
L 76.469697 286.777884 
L 71.772727 274.790188 
L 67.075758 256.010612 
L 62.378788 220.077257 
L 57.681818 100.5581 
z
" clip-path="url(#p003e7582d6)" style="fill: #7f7f7f; fill-opacity: 0.2"/>
   </g>
   <g id="matplotlib.axis_1">
    <g id="xtick_1">
     <g id="line2d_1">
      <path d="M 52.984848 378 
L 52.984848 51.84 
" clip-path="url(#p003e7582d6)" style="fill: none; stroke: #b0b0b0; stroke-width: 0.8; stroke-linecap: square"/>
     </g>
     <g id="line2d_2">
      <defs>
       <path id="mdba6cc7dc2" d="M 0 0 
L 0 3.5 
" style="stroke: #000000; stroke-width: 0.8"/>
      </defs>
      <g>
       <use xlink:href="#mdba6cc7dc2" x="52.984848" y="378" style="stroke: #000000; stroke-width: 0.8"/>
      </g>
     </g>
     <g id="text_1">
      <!-- 0 -->
      <g transform="translate(49.803598 392.598437)scale(0.1 -0.1)">
       <defs>
        <path id="DejaVuSans-30" d="M 2034 4250 
Q 1547 4250 1301 3770 
Q 1056 3291 1056 2328 
Q 1056 1369 1301 889 
Q 1547 409 2034 409 
Q 2525 409 2770 889 
Q 3016 1369 3016 2328 
Q 3016 3291 2770 3770 
Q 2525 4250 2034 4250 
z
M 2034 4750 
Q 2819 4750 3233 4129 
Q 3647 3509 3647 2328 
Q 3647 1150 3233 529 
Q 2819 -91 2034 -91 
Q 1250 -91 836 529 
Q 422 1150 422 2328 
Q 422 3509 836 4129 
Q 1250 4750 2034 4750 
z
" transform="scale(0.015625)"/>
       </defs>
       <use xlink:href="#DejaVuSans-30"/>
      </g>
     </g>
    </g>
    <g id="xtick_2">
     <g id="line2d_3">
      <path d="M 99.954545 378 
L 99.954545 51.84 
" clip-path="url(#p003e7582d6)" style="fill: none; stroke: #b0b0b0; stroke-width: 0.8; stroke-linecap: square"/>
     </g>
     <g id="line2d_4">
      <g>
       <use xlink:href="#mdba6cc7dc2" x="99.954545" y="378" style="stroke: #000000; stroke-width: 0.8"/>
      </g>
     </g>
     <g id="text_2">
      <!-- 10 -->
      <g transform="translate(93.592045 392.598437)scale(0.1 -0.1)">
       <defs>
        <path id="DejaVuSans-31" d="M 794 531 
L 1825 531 
L 1825 4091 
L 703 3866 
L 703 4441 
L 1819 4666 
L 2450 4666 
L 2450 531 
L 3481 531 
L 3481 0 
L 794 0 
L 794 531 
z
" transform="scale(0.015625)"/>
       </defs>
       <use xlink:href="#DejaVuSans-31"/>
       <use xlink:href="#DejaVuSans-30" x="63.623047"/>
      </g>
     </g>
    </g>
    <g id="xtick_3">
     <g id="line2d_5">
      <path d="M 146.924242 378 
L 146.924242 51.84 
" clip-path="url(#p003e7582d6)" style="fill: none; stroke: #b0b0b0; stroke-width: 0.8; stroke-linecap: square"/>
     </g>
     <g id="line2d_6">
      <g>
       <use xlink:href="#mdba6cc7dc2" x="146.924242" y="378" style="stroke: #000000; stroke-width: 0.8"/>
      </g>
     </g>
     <g id="text_3">
      <!-- 20 -->
      <g transform="translate(140.561742 392.598437)scale(0.1 -0.1)">
       <defs>
        <path id="DejaVuSans-32" d="M 1228 531 
L 3431 531 
L 3431 0 
L 469 0 
L 469 531 
Q 828 903 1448 1529 
Q 2069 2156 2228 2338 
Q 2531 2678 2651 2914 
Q 2772 3150 2772 3378 
Q 2772 3750 2511 3984 
Q 2250 4219 1831 4219 
Q 1534 4219 1204 4116 
Q 875 4013 500 3803 
L 500 4441 
Q 881 4594 1212 4672 
Q 1544 4750 1819 4750 
Q 2544 4750 2975 4387 
Q 3406 4025 3406 3419 
Q 3406 3131 3298 2873 
Q 3191 2616 2906 2266 
Q 2828 2175 2409 1742 
Q 1991 1309 1228 531 
z
" transform="scale(0.015625)"/>
       </defs>
       <use xlink:href="#DejaVuSans-32"/>
       <use xlink:href="#DejaVuSans-30" x="63.623047"/>
      </g>
     </g>
    </g>
    <g id="xtick_4">
     <g id="line2d_7">
      <path d="M 193.893939 378 
L 193.893939 51.84 
" clip-path="url(#p003e7582d6)" style="fill: none; stroke: #b0b0b0; stroke-width: 0.8; stroke-linecap: square"/>
     </g>
     <g id="line2d_8">
      <g>
       <use xlink:href="#mdba6cc7dc2" x="193.893939" y="378" style="stroke: #000000; stroke-width: 0.8"/>
      </g>
     </g>
     <g id="text_4">
      <!-- 30 -->
      <g transform="translate(187.531439 392.598437)scale(0.1 -0.1)">
       <defs>
        <path id="DejaVuSans-33" d="M 2597 2516 
Q 3050 2419 3304 2112 
Q 3559 1806 3559 1356 
Q 3559 666 3084 287 
Q 2609 -91 1734 -91 
Q 1441 -91 1130 -33 
Q 819 25 488 141 
L 488 750 
Q 750 597 1062 519 
Q 1375 441 1716 441 
Q 2309 441 2620 675 
Q 2931 909 2931 1356 
Q 2931 1769 2642 2001 
Q 2353 2234 1838 2234 
L 1294 2234 
L 1294 2753 
L 1863 2753 
Q 2328 2753 2575 2939 
Q 2822 3125 2822 3475 
Q 2822 3834 2567 4026 
Q 2313 4219 1838 4219 
Q 1578 4219 1281 4162 
Q 984 4106 628 3988 
L 628 4550 
Q 988 4650 1302 4700 
Q 1616 4750 1894 4750 
Q 2613 4750 3031 4423 
Q 3450 4097 3450 3541 
Q 3450 3153 3228 2886 
Q 3006 2619 2597 2516 
z
" transform="scale(0.015625)"/>
       </defs>
       <use xlink:href="#DejaVuSans-33"/>
       <use xlink:href="#DejaVuSans-30" x="63.623047"/>
      </g>
     </g>
    </g>
    <g id="xtick_5">
     <g id="line2d_9">
      <path d="M 240.863636 378 
L 240.863636 51.84 
" clip-path="url(#p003e7582d6)" style="fill: none; stroke: #b0b0b0; stroke-width: 0.8; stroke-linecap: square"/>
     </g>
     <g id="line2d_10">
      <g>
       <use xlink:href="#mdba6cc7dc2" x="240.863636" y="378" style="stroke: #000000; stroke-width: 0.8"/>
      </g>
     </g>
     <g id="text_5">
      <!-- 40 -->
      <g transform="translate(234.501136 392.598437)scale(0.1 -0.1)">
       <defs>
        <path id="DejaVuSans-34" d="M 2419 4116 
L 825 1625 
L 2419 1625 
L 2419 4116 
z
M 2253 4666 
L 3047 4666 
L 3047 1625 
L 3713 1625 
L 3713 1100 
L 3047 1100 
L 3047 0 
L 2419 0 
L 2419 1100 
L 313 1100 
L 313 1709 
L 2253 4666 
z
" transform="scale(0.015625)"/>
       </defs>
       <use xlink:href="#DejaVuSans-34"/>
       <use xlink:href="#DejaVuSans-30" x="63.623047"/>
      </g>
     </g>
    </g>
    <g id="xtick_6">
     <g id="line2d_11">
      <path d="M 287.833333 378 
L 287.833333 51.84 
" clip-path="url(#p003e7582d6)" style="fill: none; stroke: #b0b0b0; stroke-width: 0.8; stroke-linecap: square"/>
     </g>
     <g id="line2d_12">
      <g>
       <use xlink:href="#mdba6cc7dc2" x="287.833333" y="378" style="stroke: #000000; stroke-width: 0.8"/>
      </g>
     </g>
     <g id="text_6">
      <!-- 50 -->
      <g transform="translate(281.470833 392.598437)scale(0.1 -0.1)">
       <defs>
        <path id="DejaVuSans-35" d="M 691 4666 
L 3169 4666 
L 3169 4134 
L 1269 4134 
L 1269 2991 
Q 1406 3038 1543 3061 
Q 1681 3084 1819 3084 
Q 2600 3084 3056 2656 
Q 3513 2228 3513 1497 
Q 3513 744 3044 326 
Q 2575 -91 1722 -91 
Q 1428 -91 1123 -41 
Q 819 9 494 109 
L 494 744 
Q 775 591 1075 516 
Q 1375 441 1709 441 
Q 2250 441 2565 725 
Q 2881 1009 2881 1497 
Q 2881 1984 2565 2268 
Q 2250 2553 1709 2553 
Q 1456 2553 1204 2497 
Q 953 2441 691 2322 
L 691 4666 
z
" transform="scale(0.015625)"/>
       </defs>
       <use xlink:href="#DejaVuSans-35"/>
       <use xlink:href="#DejaVuSans-30" x="63.623047"/>
      </g>
     </g>
    </g>
    <g id="text_7">
     <!-- Epochs -->
     <g transform="translate(166.584375 406.276563)scale(0.1 -0.1)">
      <defs>
       <path id="DejaVuSans-45" d="M 628 4666 
L 3578 4666 
L 3578 4134 
L 1259 4134 
L 1259 2753 
L 3481 2753 
L 3481 2222 
L 1259 2222 
L 1259 531 
L 3634 531 
L 3634 0 
L 628 0 
L 628 4666 
z
" transform="scale(0.015625)"/>
       <path id="DejaVuSans-70" d="M 1159 525 
L 1159 -1331 
L 581 -1331 
L 581 3500 
L 1159 3500 
L 1159 2969 
Q 1341 3281 1617 3432 
Q 1894 3584 2278 3584 
Q 2916 3584 3314 3078 
Q 3713 2572 3713 1747 
Q 3713 922 3314 415 
Q 2916 -91 2278 -91 
Q 1894 -91 1617 61 
Q 1341 213 1159 525 
z
M 3116 1747 
Q 3116 2381 2855 2742 
Q 2594 3103 2138 3103 
Q 1681 3103 1420 2742 
Q 1159 2381 1159 1747 
Q 1159 1113 1420 752 
Q 1681 391 2138 391 
Q 2594 391 2855 752 
Q 3116 1113 3116 1747 
z
" transform="scale(0.015625)"/>
       <path id="DejaVuSans-6f" d="M 1959 3097 
Q 1497 3097 1228 2736 
Q 959 2375 959 1747 
Q 959 1119 1226 758 
Q 1494 397 1959 397 
Q 2419 397 2687 759 
Q 2956 1122 2956 1747 
Q 2956 2369 2687 2733 
Q 2419 3097 1959 3097 
z
M 1959 3584 
Q 2709 3584 3137 3096 
Q 3566 2609 3566 1747 
Q 3566 888 3137 398 
Q 2709 -91 1959 -91 
Q 1206 -91 779 398 
Q 353 888 353 1747 
Q 353 2609 779 3096 
Q 1206 3584 1959 3584 
z
" transform="scale(0.015625)"/>
       <path id="DejaVuSans-63" d="M 3122 3366 
L 3122 2828 
Q 2878 2963 2633 3030 
Q 2388 3097 2138 3097 
Q 1578 3097 1268 2742 
Q 959 2388 959 1747 
Q 959 1106 1268 751 
Q 1578 397 2138 397 
Q 2388 397 2633 464 
Q 2878 531 3122 666 
L 3122 134 
Q 2881 22 2623 -34 
Q 2366 -91 2075 -91 
Q 1284 -91 818 406 
Q 353 903 353 1747 
Q 353 2603 823 3093 
Q 1294 3584 2113 3584 
Q 2378 3584 2631 3529 
Q 2884 3475 3122 3366 
z
" transform="scale(0.015625)"/>
       <path id="DejaVuSans-68" d="M 3513 2113 
L 3513 0 
L 2938 0 
L 2938 2094 
Q 2938 2591 2744 2837 
Q 2550 3084 2163 3084 
Q 1697 3084 1428 2787 
Q 1159 2491 1159 1978 
L 1159 0 
L 581 0 
L 581 4863 
L 1159 4863 
L 1159 2956 
Q 1366 3272 1645 3428 
Q 1925 3584 2291 3584 
Q 2894 3584 3203 3211 
Q 3513 2838 3513 2113 
z
" transform="scale(0.015625)"/>
       <path id="DejaVuSans-73" d="M 2834 3397 
L 2834 2853 
Q 2591 2978 2328 3040 
Q 2066 3103 1784 3103 
Q 1356 3103 1142 2972 
Q 928 2841 928 2578 
Q 928 2378 1081 2264 
Q 1234 2150 1697 2047 
L 1894 2003 
Q 2506 1872 2764 1633 
Q 3022 1394 3022 966 
Q 3022 478 2636 193 
Q 2250 -91 1575 -91 
Q 1294 -91 989 -36 
Q 684 19 347 128 
L 347 722 
Q 666 556 975 473 
Q 1284 391 1588 391 
Q 1994 391 2212 530 
Q 2431 669 2431 922 
Q 2431 1156 2273 1281 
Q 2116 1406 1581 1522 
L 1381 1569 
Q 847 1681 609 1914 
Q 372 2147 372 2553 
Q 372 3047 722 3315 
Q 1072 3584 1716 3584 
Q 2034 3584 2315 3537 
Q 2597 3491 2834 3397 
z
" transform="scale(0.015625)"/>
      </defs>
      <use xlink:href="#DejaVuSans-45"/>
      <use xlink:href="#DejaVuSans-70" x="63.183594"/>
      <use xlink:href="#DejaVuSans-6f" x="126.660156"/>
      <use xlink:href="#DejaVuSans-63" x="187.841797"/>
      <use xlink:href="#DejaVuSans-68" x="242.822266"/>
      <use xlink:href="#DejaVuSans-73" x="306.201172"/>
     </g>
    </g>
   </g>
   <g id="matplotlib.axis_2">
    <g id="ytick_1">
     <g id="line2d_13">
      <path d="M 45 329.576198 
L 324 329.576198 
" clip-path="url(#p003e7582d6)" style="fill: none; stroke: #b0b0b0; stroke-width: 0.8; stroke-linecap: square"/>
     </g>
     <g id="line2d_14">
      <defs>
       <path id="mf2bd70752c" d="M 0 0 
L -3.5 0 
" style="stroke: #000000; stroke-width: 0.8"/>
      </defs>
      <g>
       <use xlink:href="#mf2bd70752c" x="45" y="329.576198" style="stroke: #000000; stroke-width: 0.8"/>
      </g>
     </g>
     <g id="text_8">
      <!-- 0.4 -->
      <g transform="translate(22.096875 333.375417)scale(0.1 -0.1)">
       <defs>
        <path id="DejaVuSans-2e" d="M 684 794 
L 1344 794 
L 1344 0 
L 684 0 
L 684 794 
z
" transform="scale(0.015625)"/>
       </defs>
       <use xlink:href="#DejaVuSans-30"/>
       <use xlink:href="#DejaVuSans-2e" x="63.623047"/>
       <use xlink:href="#DejaVuSans-34" x="95.410156"/>
      </g>
     </g>
    </g>
    <g id="ytick_2">
     <g id="line2d_15">
      <path d="M 45 264.226504 
L 324 264.226504 
" clip-path="url(#p003e7582d6)" style="fill: none; stroke: #b0b0b0; stroke-width: 0.8; stroke-linecap: square"/>
     </g>
     <g id="line2d_16">
      <g>
       <use xlink:href="#mf2bd70752c" x="45" y="264.226504" style="stroke: #000000; stroke-width: 0.8"/>
      </g>
     </g>
     <g id="text_9">
      <!-- 0.6 -->
      <g transform="translate(22.096875 268.025723)scale(0.1 -0.1)">
       <defs>
        <path id="DejaVuSans-36" d="M 2113 2584 
Q 1688 2584 1439 2293 
Q 1191 2003 1191 1497 
Q 1191 994 1439 701 
Q 1688 409 2113 409 
Q 2538 409 2786 701 
Q 3034 994 3034 1497 
Q 3034 2003 2786 2293 
Q 2538 2584 2113 2584 
z
M 3366 4563 
L 3366 3988 
Q 3128 4100 2886 4159 
Q 2644 4219 2406 4219 
Q 1781 4219 1451 3797 
Q 1122 3375 1075 2522 
Q 1259 2794 1537 2939 
Q 1816 3084 2150 3084 
Q 2853 3084 3261 2657 
Q 3669 2231 3669 1497 
Q 3669 778 3244 343 
Q 2819 -91 2113 -91 
Q 1303 -91 875 529 
Q 447 1150 447 2328 
Q 447 3434 972 4092 
Q 1497 4750 2381 4750 
Q 2619 4750 2861 4703 
Q 3103 4656 3366 4563 
z
" transform="scale(0.015625)"/>
       </defs>
       <use xlink:href="#DejaVuSans-30"/>
       <use xlink:href="#DejaVuSans-2e" x="63.623047"/>
       <use xlink:href="#DejaVuSans-36" x="95.410156"/>
      </g>
     </g>
    </g>
    <g id="ytick_3">
     <g id="line2d_17">
      <path d="M 45 198.876811 
L 324 198.876811 
" clip-path="url(#p003e7582d6)" style="fill: none; stroke: #b0b0b0; stroke-width: 0.8; stroke-linecap: square"/>
     </g>
     <g id="line2d_18">
      <g>
       <use xlink:href="#mf2bd70752c" x="45" y="198.876811" style="stroke: #000000; stroke-width: 0.8"/>
      </g>
     </g>
     <g id="text_10">
      <!-- 0.8 -->
      <g transform="translate(22.096875 202.676029)scale(0.1 -0.1)">
       <defs>
        <path id="DejaVuSans-38" d="M 2034 2216 
Q 1584 2216 1326 1975 
Q 1069 1734 1069 1313 
Q 1069 891 1326 650 
Q 1584 409 2034 409 
Q 2484 409 2743 651 
Q 3003 894 3003 1313 
Q 3003 1734 2745 1975 
Q 2488 2216 2034 2216 
z
M 1403 2484 
Q 997 2584 770 2862 
Q 544 3141 544 3541 
Q 544 4100 942 4425 
Q 1341 4750 2034 4750 
Q 2731 4750 3128 4425 
Q 3525 4100 3525 3541 
Q 3525 3141 3298 2862 
Q 3072 2584 2669 2484 
Q 3125 2378 3379 2068 
Q 3634 1759 3634 1313 
Q 3634 634 3220 271 
Q 2806 -91 2034 -91 
Q 1263 -91 848 271 
Q 434 634 434 1313 
Q 434 1759 690 2068 
Q 947 2378 1403 2484 
z
M 1172 3481 
Q 1172 3119 1398 2916 
Q 1625 2713 2034 2713 
Q 2441 2713 2670 2916 
Q 2900 3119 2900 3481 
Q 2900 3844 2670 4047 
Q 2441 4250 2034 4250 
Q 1625 4250 1398 4047 
Q 1172 3844 1172 3481 
z
" transform="scale(0.015625)"/>
       </defs>
       <use xlink:href="#DejaVuSans-30"/>
       <use xlink:href="#DejaVuSans-2e" x="63.623047"/>
       <use xlink:href="#DejaVuSans-38" x="95.410156"/>
      </g>
     </g>
    </g>
    <g id="ytick_4">
     <g id="line2d_19">
      <path d="M 45 133.527117 
L 324 133.527117 
" clip-path="url(#p003e7582d6)" style="fill: none; stroke: #b0b0b0; stroke-width: 0.8; stroke-linecap: square"/>
     </g>
     <g id="line2d_20">
      <g>
       <use xlink:href="#mf2bd70752c" x="45" y="133.527117" style="stroke: #000000; stroke-width: 0.8"/>
      </g>
     </g>
     <g id="text_11">
      <!-- 1.0 -->
      <g transform="translate(22.096875 137.326336)scale(0.1 -0.1)">
       <use xlink:href="#DejaVuSans-31"/>
       <use xlink:href="#DejaVuSans-2e" x="63.623047"/>
       <use xlink:href="#DejaVuSans-30" x="95.410156"/>
      </g>
     </g>
    </g>
    <g id="ytick_5">
     <g id="line2d_21">
      <path d="M 45 68.177423 
L 324 68.177423 
" clip-path="url(#p003e7582d6)" style="fill: none; stroke: #b0b0b0; stroke-width: 0.8; stroke-linecap: square"/>
     </g>
     <g id="line2d_22">
      <g>
       <use xlink:href="#mf2bd70752c" x="45" y="68.177423" style="stroke: #000000; stroke-width: 0.8"/>
      </g>
     </g>
     <g id="text_12">
      <!-- 1.2 -->
      <g transform="translate(22.096875 71.976642)scale(0.1 -0.1)">
       <use xlink:href="#DejaVuSans-31"/>
       <use xlink:href="#DejaVuSans-2e" x="63.623047"/>
       <use xlink:href="#DejaVuSans-32" x="95.410156"/>
      </g>
     </g>
    </g>
    <g id="text_13">
     <!-- Cross Entropy Loss ($\bar{x} \pm s \div \sqrt{N}$) -->
     <g transform="translate(15.996875 293.82)rotate(-90)scale(0.1 -0.1)">
      <defs>
       <path id="DejaVuSans-43" d="M 4122 4306 
L 4122 3641 
Q 3803 3938 3442 4084 
Q 3081 4231 2675 4231 
Q 1875 4231 1450 3742 
Q 1025 3253 1025 2328 
Q 1025 1406 1450 917 
Q 1875 428 2675 428 
Q 3081 428 3442 575 
Q 3803 722 4122 1019 
L 4122 359 
Q 3791 134 3420 21 
Q 3050 -91 2638 -91 
Q 1578 -91 968 557 
Q 359 1206 359 2328 
Q 359 3453 968 4101 
Q 1578 4750 2638 4750 
Q 3056 4750 3426 4639 
Q 3797 4528 4122 4306 
z
" transform="scale(0.015625)"/>
       <path id="DejaVuSans-72" d="M 2631 2963 
Q 2534 3019 2420 3045 
Q 2306 3072 2169 3072 
Q 1681 3072 1420 2755 
Q 1159 2438 1159 1844 
L 1159 0 
L 581 0 
L 581 3500 
L 1159 3500 
L 1159 2956 
Q 1341 3275 1631 3429 
Q 1922 3584 2338 3584 
Q 2397 3584 2469 3576 
Q 2541 3569 2628 3553 
L 2631 2963 
z
" transform="scale(0.015625)"/>
       <path id="DejaVuSans-20" transform="scale(0.015625)"/>
       <path id="DejaVuSans-6e" d="M 3513 2113 
L 3513 0 
L 2938 0 
L 2938 2094 
Q 2938 2591 2744 2837 
Q 2550 3084 2163 3084 
Q 1697 3084 1428 2787 
Q 1159 2491 1159 1978 
L 1159 0 
L 581 0 
L 581 3500 
L 1159 3500 
L 1159 2956 
Q 1366 3272 1645 3428 
Q 1925 3584 2291 3584 
Q 2894 3584 3203 3211 
Q 3513 2838 3513 2113 
z
" transform="scale(0.015625)"/>
       <path id="DejaVuSans-74" d="M 1172 4494 
L 1172 3500 
L 2356 3500 
L 2356 3053 
L 1172 3053 
L 1172 1153 
Q 1172 725 1289 603 
Q 1406 481 1766 481 
L 2356 481 
L 2356 0 
L 1766 0 
Q 1100 0 847 248 
Q 594 497 594 1153 
L 594 3053 
L 172 3053 
L 172 3500 
L 594 3500 
L 594 4494 
L 1172 4494 
z
" transform="scale(0.015625)"/>
       <path id="DejaVuSans-79" d="M 2059 -325 
Q 1816 -950 1584 -1140 
Q 1353 -1331 966 -1331 
L 506 -1331 
L 506 -850 
L 844 -850 
Q 1081 -850 1212 -737 
Q 1344 -625 1503 -206 
L 1606 56 
L 191 3500 
L 800 3500 
L 1894 763 
L 2988 3500 
L 3597 3500 
L 2059 -325 
z
" transform="scale(0.015625)"/>
       <path id="DejaVuSans-4c" d="M 628 4666 
L 1259 4666 
L 1259 531 
L 3531 531 
L 3531 0 
L 628 0 
L 628 4666 
z
" transform="scale(0.015625)"/>
       <path id="DejaVuSans-28" d="M 1984 4856 
Q 1566 4138 1362 3434 
Q 1159 2731 1159 2009 
Q 1159 1288 1364 580 
Q 1569 -128 1984 -844 
L 1484 -844 
Q 1016 -109 783 600 
Q 550 1309 550 2009 
Q 550 2706 781 3412 
Q 1013 4119 1484 4856 
L 1984 4856 
z
" transform="scale(0.015625)"/>
       <path id="DejaVuSans-304" d="M -2518 4769 
L -650 4769 
L -650 4306 
L -2518 4306 
L -2518 4769 
z
" transform="scale(0.015625)"/>
       <path id="DejaVuSans-Oblique-78" d="M 3841 3500 
L 2234 1784 
L 3219 0 
L 2559 0 
L 1819 1388 
L 531 0 
L -166 0 
L 1556 1844 
L 641 3500 
L 1300 3500 
L 1972 2234 
L 3144 3500 
L 3841 3500 
z
" transform="scale(0.015625)"/>
       <path id="DejaVuSans-b1" d="M 2944 4013 
L 2944 2803 
L 4684 2803 
L 4684 2272 
L 2944 2272 
L 2944 1063 
L 2419 1063 
L 2419 2272 
L 678 2272 
L 678 2803 
L 2419 2803 
L 2419 4013 
L 2944 4013 
z
M 678 531 
L 4684 531 
L 4684 0 
L 678 0 
L 678 531 
z
" transform="scale(0.015625)"/>
       <path id="DejaVuSans-Oblique-73" d="M 3200 3397 
L 3091 2853 
Q 2863 2978 2609 3040 
Q 2356 3103 2088 3103 
Q 1634 3103 1373 2948 
Q 1113 2794 1113 2528 
Q 1113 2219 1719 2053 
Q 1766 2041 1788 2034 
L 1972 1978 
Q 2547 1819 2739 1644 
Q 2931 1469 2931 1166 
Q 2931 609 2489 259 
Q 2047 -91 1331 -91 
Q 1053 -91 747 -37 
Q 441 16 72 128 
L 184 722 
Q 500 559 806 475 
Q 1113 391 1394 391 
Q 1816 391 2080 572 
Q 2344 753 2344 1031 
Q 2344 1331 1650 1516 
L 1591 1531 
L 1394 1581 
Q 956 1697 753 1886 
Q 550 2075 550 2369 
Q 550 2928 970 3256 
Q 1391 3584 2113 3584 
Q 2397 3584 2667 3537 
Q 2938 3491 3200 3397 
z
" transform="scale(0.015625)"/>
       <path id="DejaVuSans-f7" d="M 2297 3547 
L 3066 3547 
L 3066 2778 
L 2297 2778 
L 2297 3547 
z
M 2297 1234 
L 3066 1234 
L 3066 469 
L 2297 469 
L 2297 1234 
z
M 678 2272 
L 4684 2272 
L 4684 1741 
L 678 1741 
L 678 2272 
z
" transform="scale(0.015625)"/>
       <path id="STIXSizeOneSym-Regular-221a" d="M 6970 9933 
L 3373 -1888 
L 3104 -1888 
L 1626 2918 
Q 1555 3149 1465 3251 
Q 1376 3354 1229 3354 
Q 1011 3354 794 3181 
L 717 3309 
L 1766 4115 
L 1926 4115 
L 3379 -602 
L 3405 -602 
L 6605 9933 
L 6970 9933 
z
" transform="scale(0.015625)"/>
       <path id="DejaVuSans-Oblique-4e" d="M 1081 4666 
L 1931 4666 
L 3219 666 
L 4000 4666 
L 4616 4666 
L 3706 0 
L 2853 0 
L 1569 4025 
L 788 0 
L 172 0 
L 1081 4666 
z
" transform="scale(0.015625)"/>
       <path id="DejaVuSans-29" d="M 513 4856 
L 1013 4856 
Q 1481 4119 1714 3412 
Q 1947 2706 1947 2009 
Q 1947 1309 1714 600 
Q 1481 -109 1013 -844 
L 513 -844 
Q 928 -128 1133 580 
Q 1338 1288 1338 2009 
Q 1338 2731 1133 3434 
Q 928 4138 513 4856 
z
" transform="scale(0.015625)"/>
      </defs>
      <use xlink:href="#DejaVuSans-43" transform="translate(0 0.578125)"/>
      <use xlink:href="#DejaVuSans-72" transform="translate(69.824219 0.578125)"/>
      <use xlink:href="#DejaVuSans-6f" transform="translate(110.9375 0.578125)"/>
      <use xlink:href="#DejaVuSans-73" transform="translate(172.119141 0.578125)"/>
      <use xlink:href="#DejaVuSans-73" transform="translate(224.21875 0.578125)"/>
      <use xlink:href="#DejaVuSans-20" transform="translate(276.318359 0.578125)"/>
      <use xlink:href="#DejaVuSans-45" transform="translate(308.105469 0.578125)"/>
      <use xlink:href="#DejaVuSans-6e" transform="translate(371.289062 0.578125)"/>
      <use xlink:href="#DejaVuSans-74" transform="translate(434.667969 0.578125)"/>
      <use xlink:href="#DejaVuSans-72" transform="translate(473.876953 0.578125)"/>
      <use xlink:href="#DejaVuSans-6f" transform="translate(514.990234 0.578125)"/>
      <use xlink:href="#DejaVuSans-70" transform="translate(576.171875 0.578125)"/>
      <use xlink:href="#DejaVuSans-79" transform="translate(639.648438 0.578125)"/>
      <use xlink:href="#DejaVuSans-20" transform="translate(698.828125 0.578125)"/>
      <use xlink:href="#DejaVuSans-4c" transform="translate(730.615234 0.578125)"/>
      <use xlink:href="#DejaVuSans-6f" transform="translate(786.328125 0.578125)"/>
      <use xlink:href="#DejaVuSans-73" transform="translate(847.509766 0.578125)"/>
      <use xlink:href="#DejaVuSans-73" transform="translate(899.609375 0.578125)"/>
      <use xlink:href="#DejaVuSans-20" transform="translate(951.708984 0.578125)"/>
      <use xlink:href="#DejaVuSans-28" transform="translate(983.496094 0.578125)"/>
      <use xlink:href="#DejaVuSans-304" transform="translate(1084.648438 0.484375)"/>
      <use xlink:href="#DejaVuSans-Oblique-78" transform="translate(1022.509766 0.578125)"/>
      <use xlink:href="#DejaVuSans-b1" transform="translate(1101.171875 0.578125)"/>
      <use xlink:href="#DejaVuSans-Oblique-73" transform="translate(1204.443359 0.578125)"/>
      <use xlink:href="#DejaVuSans-f7" transform="translate(1276.025391 0.578125)"/>
      <use xlink:href="#STIXSizeOneSym-Regular-221a" transform="translate(1379.296875 17.09375)scale(0.563912)"/>
      <use xlink:href="#DejaVuSans-Oblique-4e" transform="translate(1451.385239 0.84375)"/>
      <use xlink:href="#DejaVuSans-29" transform="translate(1538.689926 0.578125)"/>
      <path d="M 1438.885239 97.5 
L 1438.885239 103.75 
L 1538.689926 103.75 
L 1538.689926 97.5 
L 1438.885239 97.5 
z
"/>
     </g>
    </g>
   </g>
   <g id="line2d_23">
    <path d="M 57.681818 133.34355 
L 62.378788 227.247789 
L 67.075758 258.095885 
L 71.772727 275.567674 
L 76.469697 287.081312 
L 81.166667 294.493883 
L 85.863636 300.428177 
L 90.560606 305.724272 
L 95.257576 308.923138 
L 99.954545 311.868424 
L 104.651515 314.426515 
L 109.348485 316.066904 
L 114.045455 317.618391 
L 118.742424 319.24735 
L 123.439394 320.6009 
L 128.136364 320.76273 
L 132.833333 321.968862 
L 137.530303 322.508652 
L 142.227273 323.81114 
L 146.924242 323.415409 
L 151.621212 324.051919 
L 156.318182 324.800502 
L 161.015152 324.238351 
L 165.712121 324.761679 
L 170.409091 324.818544 
L 175.106061 324.584668 
L 179.80303 325.218979 
L 184.5 324.788347 
L 189.19697 325.127226 
L 193.893939 324.841275 
L 198.590909 324.504717 
" clip-path="url(#p003e7582d6)" style="fill: none; stroke: #1f77b4; stroke-width: 1.5; stroke-linecap: square"/>
   </g>
   <g id="line2d_24">
    <path d="M 57.681818 221.258995 
L 62.378788 286.804059 
L 67.075758 307.251278 
L 71.772727 318.852082 
L 76.469697 325.91702 
L 81.166667 331.77491 
L 85.863636 336.533046 
L 90.560606 339.539911 
L 95.257576 342.005604 
L 99.954545 343.865345 
L 104.651515 345.683446 
L 109.348485 347.643434 
L 114.045455 348.274891 
L 118.742424 348.822342 
L 123.439394 349.611538 
L 128.136364 350.747674 
L 132.833333 351.494053 
L 137.530303 352.14165 
L 142.227273 352.221773 
L 146.924242 353.186142 
L 151.621212 353.544835 
L 156.318182 353.335782 
L 161.015152 354.095542 
L 165.712121 353.773378 
L 170.409091 353.972045 
L 175.106061 354.473099 
L 179.80303 354.178327 
L 184.5 354.374022 
L 189.19697 355.055055 
L 193.893939 355.062826 
" clip-path="url(#p003e7582d6)" style="fill: none; stroke: #ff7f0e; stroke-width: 1.5; stroke-linecap: square"/>
   </g>
   <g id="line2d_25">
    <path d="M 57.681818 42.54049 
L 62.378788 130.3944 
L 67.075758 167.414783 
L 71.772727 189.798262 
L 76.469697 203.080311 
L 81.166667 213.776557 
L 85.863636 223.254021 
L 90.560606 227.53673 
L 95.257576 234.62748 
L 99.954545 239.994326 
L 104.651515 245.050027 
L 109.348485 246.056408 
L 114.045455 248.978374 
L 118.742424 252.302406 
L 123.439394 254.191105 
L 128.136364 255.743786 
L 132.833333 257.333142 
L 137.530303 260.269822 
L 142.227273 259.798913 
L 146.924242 260.644751 
L 151.621212 262.236681 
L 156.318182 262.832831 
L 161.015152 264.377187 
L 165.712121 265.309408 
L 170.409091 264.942199 
L 175.106061 267.234832 
L 179.80303 266.104489 
L 184.5 268.101265 
L 189.19697 267.677367 
L 193.893939 267.09088 
L 198.590909 266.585762 
L 203.287879 267.763677 
L 207.984848 268.603708 
L 212.681818 269.363941 
L 217.378788 267.466824 
" clip-path="url(#p003e7582d6)" style="fill: none; stroke: #2ca02c; stroke-width: 1.5; stroke-linecap: square"/>
   </g>
   <g id="line2d_26">
    <path d="M 57.681818 179.969136 
L 62.378788 261.572311 
L 67.075758 287.616376 
L 71.772727 301.706951 
L 76.469697 311.219507 
L 81.166667 317.516244 
L 85.863636 322.093084 
L 90.560606 325.195697 
L 95.257576 328.267043 
L 99.954545 330.585944 
L 104.651515 332.427599 
L 109.348485 333.640678 
L 114.045455 334.364829 
L 118.742424 335.760455 
L 123.439394 336.152134 
L 128.136364 337.450202 
L 132.833333 338.181374 
L 137.530303 338.273043 
L 142.227273 338.562168 
L 146.924242 338.847954 
L 151.621212 339.248032 
L 156.318182 338.991886 
L 161.015152 340.087724 
L 165.712121 339.554417 
L 170.409091 340.011158 
L 175.106061 339.742847 
L 179.80303 339.629488 
L 184.5 339.647486 
" clip-path="url(#p003e7582d6)" style="fill: none; stroke: #d62728; stroke-width: 1.5; stroke-linecap: square"/>
   </g>
   <g id="line2d_27">
    <path d="M 57.681818 225.966904 
L 62.378788 256.437669 
L 67.075758 268.781749 
L 71.772727 275.52166 
L 76.469697 279.640173 
L 81.166667 284.518295 
L 85.863636 285.378993 
L 90.560606 286.126146 
L 95.257576 289.129209 
L 99.954545 290.332249 
L 104.651515 290.505967 
L 109.348485 293.546413 
L 114.045455 292.588661 
L 118.742424 293.765459 
L 123.439394 291.771188 
L 128.136364 294.182334 
L 132.833333 292.332077 
L 137.530303 294.569567 
L 142.227273 293.091185 
L 146.924242 292.882914 
L 151.621212 292.26863 
" clip-path="url(#p003e7582d6)" style="fill: none; stroke-dasharray: 5.55,2.4; stroke-dashoffset: 0; stroke: #9467bd; stroke-width: 1.5"/>
   </g>
   <g id="line2d_28">
    <path d="M 57.681818 147.552035 
L 62.378788 235.477464 
L 67.075758 261.801929 
L 71.772727 275.296456 
L 76.469697 285.288386 
L 81.166667 291.947079 
L 85.863636 295.759592 
L 90.560606 300.011269 
L 95.257576 303.634013 
L 99.954545 307.741038 
L 104.651515 308.696011 
L 109.348485 309.727065 
L 114.045455 312.563312 
L 118.742424 314.454914 
L 123.439394 312.431073 
L 128.136364 315.809946 
L 132.833333 315.184168 
L 137.530303 316.284131 
L 142.227273 315.408833 
L 146.924242 317.57993 
L 151.621212 317.606894 
L 156.318182 317.052515 
L 161.015152 317.273419 
L 165.712121 316.395786 
L 170.409091 318.926239 
L 175.106061 318.869146 
" clip-path="url(#p003e7582d6)" style="fill: none; stroke-dasharray: 5.55,2.4; stroke-dashoffset: 0; stroke: #8c564b; stroke-width: 1.5"/>
   </g>
   <g id="line2d_29">
    <path d="M 59.62842 -1 
L 62.378788 95.579889 
L 67.075758 154.908585 
L 71.772727 186.486958 
L 76.469697 207.553971 
L 81.166667 221.415645 
L 85.863636 231.627864 
L 90.560606 238.950949 
L 95.257576 245.610627 
L 99.954545 250.801374 
L 104.651515 254.628209 
L 109.348485 257.92392 
L 114.045455 260.628814 
L 118.742424 264.182856 
L 123.439394 265.76202 
L 128.136364 267.424285 
L 132.833333 268.779233 
L 137.530303 269.907678 
L 142.227273 272.030557 
L 146.924242 273.021411 
L 151.621212 273.728323 
L 156.318182 274.453862 
L 161.015152 274.849072 
L 165.712121 276.168018 
L 170.409091 276.613107 
L 175.106061 277.412009 
L 179.80303 277.51996 
L 184.5 277.769367 
L 189.19697 278.1717 
L 193.893939 278.897518 
L 198.590909 278.451205 
L 203.287879 279.11169 
L 207.984848 279.149555 
L 212.681818 279.46134 
L 217.378788 279.931336 
L 222.075758 279.855952 
L 226.772727 279.833291 
" clip-path="url(#p003e7582d6)" style="fill: none; stroke-dasharray: 5.55,2.4; stroke-dashoffset: 0; stroke: #e377c2; stroke-width: 1.5"/>
   </g>
   <g id="line2d_30">
    <path d="M 57.681818 102.778315 
L 62.378788 222.308031 
L 67.075758 258.634331 
L 71.772727 277.891394 
L 76.469697 290.087798 
L 81.166667 299.036277 
L 85.863636 305.5557 
L 90.560606 310.670619 
L 95.257576 315.228717 
L 99.954545 318.571168 
L 104.651515 321.351268 
L 109.348485 323.809318 
L 114.045455 325.666663 
L 118.742424 327.837763 
L 123.439394 329.503497 
L 128.136364 330.651379 
L 132.833333 332.463572 
L 137.530303 333.724767 
L 142.227273 334.559628 
L 146.924242 335.82773 
L 151.621212 336.478331 
L 156.318182 337.525496 
L 161.015152 337.865976 
L 165.712121 338.840333 
L 170.409091 338.957165 
L 175.106061 339.692503 
L 179.80303 340.443036 
L 184.5 340.622483 
L 189.19697 341.104211 
L 193.893939 341.865469 
L 198.590909 341.766862 
L 203.287879 342.000294 
L 207.984848 342.551835 
L 212.681818 342.362773 
L 217.378788 342.922892 
L 222.075758 343.592649 
L 226.772727 343.719258 
L 231.469697 343.718114 
L 236.166667 344.093671 
L 240.863636 343.997949 
L 245.560606 344.364344 
L 250.257576 344.251163 
L 254.954545 344.630085 
L 259.651515 344.86586 
L 264.348485 345.24033 
L 269.045455 344.762592 
L 273.742424 345.022913 
L 278.439394 345.073419 
L 283.136364 345.483483 
L 287.833333 345.866465 
L 292.530303 345.913785 
L 297.227273 346.108202 
L 301.924242 345.805461 
L 306.621212 345.408213 
L 311.318182 345.721938 
" clip-path="url(#p003e7582d6)" style="fill: none; stroke-dasharray: 5.55,2.4; stroke-dashoffset: 0; stroke: #7f7f7f; stroke-width: 1.5"/>
   </g>
   <g id="patch_3">
    <path d="M 45 378 
L 45 51.84 
" style="fill: none; stroke: #000000; stroke-width: 0.8; stroke-linejoin: miter; stroke-linecap: square"/>
   </g>
   <g id="patch_4">
    <path d="M 324 378 
L 324 51.84 
" style="fill: none; stroke: #000000; stroke-width: 0.8; stroke-linejoin: miter; stroke-linecap: square"/>
   </g>
   <g id="patch_5">
    <path d="M 45 378 
L 324 378 
" style="fill: none; stroke: #000000; stroke-width: 0.8; stroke-linejoin: miter; stroke-linecap: square"/>
   </g>
   <g id="patch_6">
    <path d="M 45 51.84 
L 324 51.84 
" style="fill: none; stroke: #000000; stroke-width: 0.8; stroke-linejoin: miter; stroke-linecap: square"/>
   </g>
   <g id="legend_1">
    <g id="patch_7">
     <path d="M 200.907812 178.93375 
L 317 178.93375 
Q 319 178.93375 319 176.93375 
L 319 58.84 
Q 319 56.84 317 56.84 
L 200.907812 56.84 
Q 198.907812 56.84 198.907812 58.84 
L 198.907812 176.93375 
Q 198.907812 178.93375 200.907812 178.93375 
z
" style="fill: #ffffff; opacity: 0.8; stroke: #cccccc; stroke-linejoin: miter"/>
    </g>
    <g id="line2d_31">
     <path d="M 202.907812 64.938437 
L 212.907812 64.938437 
L 222.907812 64.938437 
" style="fill: none; stroke: #1f77b4; stroke-width: 1.5; stroke-linecap: square"/>
    </g>
    <g id="text_14">
     <!-- vit_b_16 -->
     <g transform="translate(230.907812 68.438437)scale(0.1 -0.1)">
      <defs>
       <path id="DejaVuSans-76" d="M 191 3500 
L 800 3500 
L 1894 563 
L 2988 3500 
L 3597 3500 
L 2284 0 
L 1503 0 
L 191 3500 
z
" transform="scale(0.015625)"/>
       <path id="DejaVuSans-69" d="M 603 3500 
L 1178 3500 
L 1178 0 
L 603 0 
L 603 3500 
z
M 603 4863 
L 1178 4863 
L 1178 4134 
L 603 4134 
L 603 4863 
z
" transform="scale(0.015625)"/>
       <path id="DejaVuSans-5f" d="M 3263 -1063 
L 3263 -1509 
L -63 -1509 
L -63 -1063 
L 3263 -1063 
z
" transform="scale(0.015625)"/>
       <path id="DejaVuSans-62" d="M 3116 1747 
Q 3116 2381 2855 2742 
Q 2594 3103 2138 3103 
Q 1681 3103 1420 2742 
Q 1159 2381 1159 1747 
Q 1159 1113 1420 752 
Q 1681 391 2138 391 
Q 2594 391 2855 752 
Q 3116 1113 3116 1747 
z
M 1159 2969 
Q 1341 3281 1617 3432 
Q 1894 3584 2278 3584 
Q 2916 3584 3314 3078 
Q 3713 2572 3713 1747 
Q 3713 922 3314 415 
Q 2916 -91 2278 -91 
Q 1894 -91 1617 61 
Q 1341 213 1159 525 
L 1159 0 
L 581 0 
L 581 4863 
L 1159 4863 
L 1159 2969 
z
" transform="scale(0.015625)"/>
      </defs>
      <use xlink:href="#DejaVuSans-76"/>
      <use xlink:href="#DejaVuSans-69" x="59.179688"/>
      <use xlink:href="#DejaVuSans-74" x="86.962891"/>
      <use xlink:href="#DejaVuSans-5f" x="126.171875"/>
      <use xlink:href="#DejaVuSans-62" x="176.171875"/>
      <use xlink:href="#DejaVuSans-5f" x="239.648438"/>
      <use xlink:href="#DejaVuSans-31" x="289.648438"/>
      <use xlink:href="#DejaVuSans-36" x="353.271484"/>
     </g>
    </g>
    <g id="line2d_32">
     <path d="M 202.907812 79.894687 
L 212.907812 79.894687 
L 222.907812 79.894687 
" style="fill: none; stroke: #ff7f0e; stroke-width: 1.5; stroke-linecap: square"/>
    </g>
    <g id="text_15">
     <!-- swin_b -->
     <g transform="translate(230.907812 83.394687)scale(0.1 -0.1)">
      <defs>
       <path id="DejaVuSans-77" d="M 269 3500 
L 844 3500 
L 1563 769 
L 2278 3500 
L 2956 3500 
L 3675 769 
L 4391 3500 
L 4966 3500 
L 4050 0 
L 3372 0 
L 2619 2869 
L 1863 0 
L 1184 0 
L 269 3500 
z
" transform="scale(0.015625)"/>
      </defs>
      <use xlink:href="#DejaVuSans-73"/>
      <use xlink:href="#DejaVuSans-77" x="52.099609"/>
      <use xlink:href="#DejaVuSans-69" x="133.886719"/>
      <use xlink:href="#DejaVuSans-6e" x="161.669922"/>
      <use xlink:href="#DejaVuSans-5f" x="225.048828"/>
      <use xlink:href="#DejaVuSans-62" x="275.048828"/>
     </g>
    </g>
    <g id="line2d_33">
     <path d="M 202.907812 94.850937 
L 212.907812 94.850937 
L 222.907812 94.850937 
" style="fill: none; stroke: #2ca02c; stroke-width: 1.5; stroke-linecap: square"/>
    </g>
    <g id="text_16">
     <!-- beit_b_16 -->
     <g transform="translate(230.907812 98.350937)scale(0.1 -0.1)">
      <defs>
       <path id="DejaVuSans-65" d="M 3597 1894 
L 3597 1613 
L 953 1613 
Q 991 1019 1311 708 
Q 1631 397 2203 397 
Q 2534 397 2845 478 
Q 3156 559 3463 722 
L 3463 178 
Q 3153 47 2828 -22 
Q 2503 -91 2169 -91 
Q 1331 -91 842 396 
Q 353 884 353 1716 
Q 353 2575 817 3079 
Q 1281 3584 2069 3584 
Q 2775 3584 3186 3129 
Q 3597 2675 3597 1894 
z
M 3022 2063 
Q 3016 2534 2758 2815 
Q 2500 3097 2075 3097 
Q 1594 3097 1305 2825 
Q 1016 2553 972 2059 
L 3022 2063 
z
" transform="scale(0.015625)"/>
      </defs>
      <use xlink:href="#DejaVuSans-62"/>
      <use xlink:href="#DejaVuSans-65" x="63.476562"/>
      <use xlink:href="#DejaVuSans-69" x="125"/>
      <use xlink:href="#DejaVuSans-74" x="152.783203"/>
      <use xlink:href="#DejaVuSans-5f" x="191.992188"/>
      <use xlink:href="#DejaVuSans-62" x="241.992188"/>
      <use xlink:href="#DejaVuSans-5f" x="305.46875"/>
      <use xlink:href="#DejaVuSans-31" x="355.46875"/>
      <use xlink:href="#DejaVuSans-36" x="419.091797"/>
     </g>
    </g>
    <g id="line2d_34">
     <path d="M 202.907812 109.807187 
L 212.907812 109.807187 
L 222.907812 109.807187 
" style="fill: none; stroke: #d62728; stroke-width: 1.5; stroke-linecap: square"/>
    </g>
    <g id="text_17">
     <!-- deit_b_16 -->
     <g transform="translate(230.907812 113.307187)scale(0.1 -0.1)">
      <defs>
       <path id="DejaVuSans-64" d="M 2906 2969 
L 2906 4863 
L 3481 4863 
L 3481 0 
L 2906 0 
L 2906 525 
Q 2725 213 2448 61 
Q 2172 -91 1784 -91 
Q 1150 -91 751 415 
Q 353 922 353 1747 
Q 353 2572 751 3078 
Q 1150 3584 1784 3584 
Q 2172 3584 2448 3432 
Q 2725 3281 2906 2969 
z
M 947 1747 
Q 947 1113 1208 752 
Q 1469 391 1925 391 
Q 2381 391 2643 752 
Q 2906 1113 2906 1747 
Q 2906 2381 2643 2742 
Q 2381 3103 1925 3103 
Q 1469 3103 1208 2742 
Q 947 2381 947 1747 
z
" transform="scale(0.015625)"/>
      </defs>
      <use xlink:href="#DejaVuSans-64"/>
      <use xlink:href="#DejaVuSans-65" x="63.476562"/>
      <use xlink:href="#DejaVuSans-69" x="125"/>
      <use xlink:href="#DejaVuSans-74" x="152.783203"/>
      <use xlink:href="#DejaVuSans-5f" x="191.992188"/>
      <use xlink:href="#DejaVuSans-62" x="241.992188"/>
      <use xlink:href="#DejaVuSans-5f" x="305.46875"/>
      <use xlink:href="#DejaVuSans-31" x="355.46875"/>
      <use xlink:href="#DejaVuSans-36" x="419.091797"/>
     </g>
    </g>
    <g id="line2d_35">
     <path d="M 202.907812 124.763437 
L 212.907812 124.763437 
L 222.907812 124.763437 
" style="fill: none; stroke-dasharray: 5.55,2.4; stroke-dashoffset: 0; stroke: #9467bd; stroke-width: 1.5"/>
    </g>
    <g id="text_18">
     <!-- vgg19 -->
     <g transform="translate(230.907812 128.263437)scale(0.1 -0.1)">
      <defs>
       <path id="DejaVuSans-67" d="M 2906 1791 
Q 2906 2416 2648 2759 
Q 2391 3103 1925 3103 
Q 1463 3103 1205 2759 
Q 947 2416 947 1791 
Q 947 1169 1205 825 
Q 1463 481 1925 481 
Q 2391 481 2648 825 
Q 2906 1169 2906 1791 
z
M 3481 434 
Q 3481 -459 3084 -895 
Q 2688 -1331 1869 -1331 
Q 1566 -1331 1297 -1286 
Q 1028 -1241 775 -1147 
L 775 -588 
Q 1028 -725 1275 -790 
Q 1522 -856 1778 -856 
Q 2344 -856 2625 -561 
Q 2906 -266 2906 331 
L 2906 616 
Q 2728 306 2450 153 
Q 2172 0 1784 0 
Q 1141 0 747 490 
Q 353 981 353 1791 
Q 353 2603 747 3093 
Q 1141 3584 1784 3584 
Q 2172 3584 2450 3431 
Q 2728 3278 2906 2969 
L 2906 3500 
L 3481 3500 
L 3481 434 
z
" transform="scale(0.015625)"/>
       <path id="DejaVuSans-39" d="M 703 97 
L 703 672 
Q 941 559 1184 500 
Q 1428 441 1663 441 
Q 2288 441 2617 861 
Q 2947 1281 2994 2138 
Q 2813 1869 2534 1725 
Q 2256 1581 1919 1581 
Q 1219 1581 811 2004 
Q 403 2428 403 3163 
Q 403 3881 828 4315 
Q 1253 4750 1959 4750 
Q 2769 4750 3195 4129 
Q 3622 3509 3622 2328 
Q 3622 1225 3098 567 
Q 2575 -91 1691 -91 
Q 1453 -91 1209 -44 
Q 966 3 703 97 
z
M 1959 2075 
Q 2384 2075 2632 2365 
Q 2881 2656 2881 3163 
Q 2881 3666 2632 3958 
Q 2384 4250 1959 4250 
Q 1534 4250 1286 3958 
Q 1038 3666 1038 3163 
Q 1038 2656 1286 2365 
Q 1534 2075 1959 2075 
z
" transform="scale(0.015625)"/>
      </defs>
      <use xlink:href="#DejaVuSans-76"/>
      <use xlink:href="#DejaVuSans-67" x="59.179688"/>
      <use xlink:href="#DejaVuSans-67" x="122.65625"/>
      <use xlink:href="#DejaVuSans-31" x="186.132812"/>
      <use xlink:href="#DejaVuSans-39" x="249.755859"/>
     </g>
    </g>
    <g id="line2d_36">
     <path d="M 202.907812 139.441562 
L 212.907812 139.441562 
L 222.907812 139.441562 
" style="fill: none; stroke-dasharray: 5.55,2.4; stroke-dashoffset: 0; stroke: #8c564b; stroke-width: 1.5"/>
    </g>
    <g id="text_19">
     <!-- resnet50 -->
     <g transform="translate(230.907812 142.941562)scale(0.1 -0.1)">
      <use xlink:href="#DejaVuSans-72"/>
      <use xlink:href="#DejaVuSans-65" x="38.863281"/>
      <use xlink:href="#DejaVuSans-73" x="100.386719"/>
      <use xlink:href="#DejaVuSans-6e" x="152.486328"/>
      <use xlink:href="#DejaVuSans-65" x="215.865234"/>
      <use xlink:href="#DejaVuSans-74" x="277.388672"/>
      <use xlink:href="#DejaVuSans-35" x="316.597656"/>
      <use xlink:href="#DejaVuSans-30" x="380.220703"/>
     </g>
    </g>
    <g id="line2d_37">
     <path d="M 202.907812 154.119687 
L 212.907812 154.119687 
L 222.907812 154.119687 
" style="fill: none; stroke-dasharray: 5.55,2.4; stroke-dashoffset: 0; stroke: #e377c2; stroke-width: 1.5"/>
    </g>
    <g id="text_20">
     <!-- efficientnetv2_m -->
     <g transform="translate(230.907812 157.619687)scale(0.1 -0.1)">
      <defs>
       <path id="DejaVuSans-66" d="M 2375 4863 
L 2375 4384 
L 1825 4384 
Q 1516 4384 1395 4259 
Q 1275 4134 1275 3809 
L 1275 3500 
L 2222 3500 
L 2222 3053 
L 1275 3053 
L 1275 0 
L 697 0 
L 697 3053 
L 147 3053 
L 147 3500 
L 697 3500 
L 697 3744 
Q 697 4328 969 4595 
Q 1241 4863 1831 4863 
L 2375 4863 
z
" transform="scale(0.015625)"/>
       <path id="DejaVuSans-6d" d="M 3328 2828 
Q 3544 3216 3844 3400 
Q 4144 3584 4550 3584 
Q 5097 3584 5394 3201 
Q 5691 2819 5691 2113 
L 5691 0 
L 5113 0 
L 5113 2094 
Q 5113 2597 4934 2840 
Q 4756 3084 4391 3084 
Q 3944 3084 3684 2787 
Q 3425 2491 3425 1978 
L 3425 0 
L 2847 0 
L 2847 2094 
Q 2847 2600 2669 2842 
Q 2491 3084 2119 3084 
Q 1678 3084 1418 2786 
Q 1159 2488 1159 1978 
L 1159 0 
L 581 0 
L 581 3500 
L 1159 3500 
L 1159 2956 
Q 1356 3278 1631 3431 
Q 1906 3584 2284 3584 
Q 2666 3584 2933 3390 
Q 3200 3197 3328 2828 
z
" transform="scale(0.015625)"/>
      </defs>
      <use xlink:href="#DejaVuSans-65"/>
      <use xlink:href="#DejaVuSans-66" x="61.523438"/>
      <use xlink:href="#DejaVuSans-66" x="96.728516"/>
      <use xlink:href="#DejaVuSans-69" x="131.933594"/>
      <use xlink:href="#DejaVuSans-63" x="159.716797"/>
      <use xlink:href="#DejaVuSans-69" x="214.697266"/>
      <use xlink:href="#DejaVuSans-65" x="242.480469"/>
      <use xlink:href="#DejaVuSans-6e" x="304.003906"/>
      <use xlink:href="#DejaVuSans-74" x="367.382812"/>
      <use xlink:href="#DejaVuSans-6e" x="406.591797"/>
      <use xlink:href="#DejaVuSans-65" x="469.970703"/>
      <use xlink:href="#DejaVuSans-74" x="531.494141"/>
      <use xlink:href="#DejaVuSans-76" x="570.703125"/>
      <use xlink:href="#DejaVuSans-32" x="629.882812"/>
      <use xlink:href="#DejaVuSans-5f" x="693.505859"/>
      <use xlink:href="#DejaVuSans-6d" x="743.505859"/>
     </g>
    </g>
    <g id="line2d_38">
     <path d="M 202.907812 169.075937 
L 212.907812 169.075937 
L 222.907812 169.075937 
" style="fill: none; stroke-dasharray: 5.55,2.4; stroke-dashoffset: 0; stroke: #7f7f7f; stroke-width: 1.5"/>
    </g>
    <g id="text_21">
     <!-- convnext_b -->
     <g transform="translate(230.907812 172.575937)scale(0.1 -0.1)">
      <defs>
       <path id="DejaVuSans-78" d="M 3513 3500 
L 2247 1797 
L 3578 0 
L 2900 0 
L 1881 1375 
L 863 0 
L 184 0 
L 1544 1831 
L 300 3500 
L 978 3500 
L 1906 2253 
L 2834 3500 
L 3513 3500 
z
" transform="scale(0.015625)"/>
      </defs>
      <use xlink:href="#DejaVuSans-63"/>
      <use xlink:href="#DejaVuSans-6f" x="54.980469"/>
      <use xlink:href="#DejaVuSans-6e" x="116.162109"/>
      <use xlink:href="#DejaVuSans-76" x="179.541016"/>
      <use xlink:href="#DejaVuSans-6e" x="238.720703"/>
      <use xlink:href="#DejaVuSans-65" x="302.099609"/>
      <use xlink:href="#DejaVuSans-78" x="361.873047"/>
      <use xlink:href="#DejaVuSans-74" x="421.052734"/>
      <use xlink:href="#DejaVuSans-5f" x="460.261719"/>
      <use xlink:href="#DejaVuSans-62" x="510.261719"/>
     </g>
    </g>
   </g>
  </g>
 </g>
 <defs>
  <clipPath id="p003e7582d6">
   <rect x="45" y="51.84" width="279" height="326.16"/>
  </clipPath>
 </defs>
</svg>
