<?xml version="1.0" encoding="utf-8" standalone="no"?>
<!DOCTYPE svg PUBLIC "-//W3C//DTD SVG 1.1//EN"
  "http://www.w3.org/Graphics/SVG/1.1/DTD/svg11.dtd">
<svg xmlns:xlink="http://www.w3.org/1999/xlink" width="360pt" height="432pt" viewBox="0 0 360 432" xmlns="http://www.w3.org/2000/svg" version="1.1">
 <metadata>
  <rdf:RDF xmlns:dc="http://purl.org/dc/elements/1.1/" xmlns:cc="http://creativecommons.org/ns#" xmlns:rdf="http://www.w3.org/1999/02/22-rdf-syntax-ns#">
   <cc:Work>
    <dc:type rdf:resource="http://purl.org/dc/dcmitype/StillImage"/>
    <dc:date>2022-05-20T13:31:49.259942</dc:date>
    <dc:format>image/svg+xml</dc:format>
    <dc:creator>
     <cc:Agent>
      <dc:title>Matplotlib v3.5.2, https://matplotlib.org/</dc:title>
     </cc:Agent>
    </dc:creator>
   </cc:Work>
  </rdf:RDF>
 </metadata>
 <defs>
  <style type="text/css">*{stroke-linejoin: round; stroke-linecap: butt}</style>
 </defs>
 <g id="figure_1">
  <g id="patch_1">
   <path d="M 0 432 
L 360 432 
L 360 0 
L 0 0 
L 0 432 
z
" style="fill: none"/>
  </g>
  <g id="axes_1">
   <g id="patch_2">
    <path d="M 45 378 
L 324 378 
L 324 51.84 
L 45 51.84 
z
" style="fill: #ffffff"/>
   </g>
   <g id="PolyCollection_1">
    <path d="M 57.681818 131.749138 
L 57.681818 136.949 
L 62.378788 233.795932 
L 67.075758 264.802359 
L 71.772727 280.910632 
L 76.469697 292.298391 
L 81.166667 299.266235 
L 85.863636 305.931418 
L 90.560606 310.581203 
L 95.257576 313.732203 
L 99.954545 316.038549 
L 104.651515 318.180734 
L 109.348485 320.827179 
L 114.045455 322.309303 
L 118.742424 323.664423 
L 123.439394 324.885651 
L 128.136364 325.130307 
L 132.833333 326.996239 
L 137.530303 327.714922 
L 142.227273 329.103625 
L 146.924242 328.645961 
L 151.621212 329.704825 
L 156.318182 330.433709 
L 161.015152 329.550161 
L 165.712121 330.218822 
L 170.409091 330.744895 
L 175.106061 330.433196 
L 179.80303 330.561473 
L 184.5 330.664442 
L 189.19697 330.541704 
L 193.893939 330.284902 
L 198.590909 329.921782 
L 198.590909 318.232239 
L 198.590909 318.232239 
L 193.893939 317.517957 
L 189.19697 318.340552 
L 184.5 317.653901 
L 179.80303 318.291994 
L 175.106061 318.228047 
L 170.409091 318.452236 
L 165.712121 318.483116 
L 161.015152 316.811331 
L 156.318182 317.656417 
L 151.621212 315.918529 
L 146.924242 316.620645 
L 142.227273 316.653169 
L 137.530303 315.781671 
L 132.833333 314.944098 
L 128.136364 314.602242 
L 123.439394 313.763293 
L 118.742424 312.731217 
L 114.045455 312.045584 
L 109.348485 310.067489 
L 104.651515 308.477564 
L 99.954545 305.904786 
L 95.257576 302.778355 
L 90.560606 299.346102 
L 85.863636 294.678104 
L 81.166667 288.929623 
L 76.469697 281.834116 
L 71.772727 269.823184 
L 67.075758 253.274789 
L 62.378788 221.665169 
L 57.681818 131.749138 
z
" clip-path="url(#pbff4117cae)" style="fill: #1f77b4; fill-opacity: 0.2"/>
   </g>
   <g id="PolyCollection_2">
    <path d="M 57.681818 219.635661 
L 57.681818 223.987584 
L 62.378788 287.912914 
L 67.075758 308.961268 
L 71.772727 321.601725 
L 76.469697 326.322754 
L 81.166667 333.267672 
L 85.863636 336.756579 
L 90.560606 341.694862 
L 95.257576 342.567242 
L 99.954545 343.527263 
L 104.651515 346.933192 
L 109.348485 348.367617 
L 114.045455 349.471423 
L 118.742424 349.478412 
L 123.439394 351.931038 
L 128.136364 352.334607 
L 132.833333 352.447759 
L 137.530303 352.839436 
L 142.227273 354.286055 
L 146.924242 354.107528 
L 151.621212 354.663726 
L 156.318182 354.287432 
L 161.015152 355.165835 
L 165.712121 355.393866 
L 170.409091 356.118808 
L 175.106061 355.444498 
L 179.80303 356.307573 
L 184.5 355.429382 
L 189.19697 356.587186 
L 193.893939 355.735979 
L 193.893939 353.111329 
L 193.893939 353.111329 
L 189.19697 353.823582 
L 184.5 352.165747 
L 179.80303 352.708774 
L 175.106061 353.404495 
L 170.409091 351.327637 
L 165.712121 352.345919 
L 161.015152 352.144397 
L 156.318182 350.864759 
L 151.621212 350.507752 
L 146.924242 351.366099 
L 142.227273 350.191484 
L 137.530303 349.980041 
L 132.833333 349.041611 
L 128.136364 347.890227 
L 123.439394 346.023811 
L 118.742424 346.463812 
L 114.045455 345.523308 
L 109.348485 345.748002 
L 104.651515 343.498523 
L 99.954545 342.596828 
L 95.257576 341.135056 
L 90.560606 335.787593 
L 85.863636 334.664225 
L 81.166667 330.6683 
L 76.469697 323.889869 
L 71.772727 316.981042 
L 67.075758 305.453639 
L 62.378788 284.66234 
L 57.681818 219.635661 
z
" clip-path="url(#pbff4117cae)" style="fill: #ff7f0e; fill-opacity: 0.2"/>
   </g>
   <g id="PolyCollection_3">
    <path d="M 57.681818 37.666707 
L 57.681818 46.33892 
L 62.378788 131.911452 
L 67.075758 169.379724 
L 71.772727 191.346391 
L 76.469697 204.933881 
L 81.166667 214.821669 
L 85.863636 224.689255 
L 90.560606 228.115663 
L 95.257576 236.813578 
L 99.954545 240.815879 
L 104.651515 246.882394 
L 109.348485 247.086138 
L 114.045455 250.218564 
L 118.742424 254.402763 
L 123.439394 256.685752 
L 128.136364 258.703315 
L 132.833333 258.988566 
L 137.530303 264.619534 
L 142.227273 261.383215 
L 146.924242 264.178884 
L 151.621212 264.649004 
L 156.318182 266.118642 
L 161.015152 266.500314 
L 165.712121 267.423957 
L 170.409091 267.926278 
L 175.106061 269.940655 
L 179.80303 269.235005 
L 184.5 270.157431 
L 189.19697 269.604496 
L 193.893939 269.637991 
L 198.590909 268.346253 
L 203.287879 269.829047 
L 207.984848 271.362844 
L 212.681818 271.039027 
L 217.378788 267.062425 
L 217.378788 264.415693 
L 217.378788 264.415693 
L 212.681818 264.981516 
L 207.984848 265.601641 
L 203.287879 263.860321 
L 198.590909 260.783877 
L 193.893939 261.59606 
L 189.19697 264.101522 
L 184.5 264.127725 
L 179.80303 262.164504 
L 175.106061 264.769713 
L 170.409091 261.11948 
L 165.712121 264.473035 
L 161.015152 263.104904 
L 156.318182 258.876333 
L 151.621212 258.972757 
L 146.924242 259.875974 
L 142.227273 259.38285 
L 137.530303 257.166836 
L 132.833333 255.138486 
L 128.136364 254.263878 
L 123.439394 252.095483 
L 118.742424 250.860436 
L 114.045455 247.050276 
L 109.348485 246.472137 
L 104.651515 243.06092 
L 99.954545 238.715396 
L 95.257576 233.058393 
L 90.560606 225.253621 
L 85.863636 221.75146 
L 81.166667 212.84152 
L 76.469697 200.449616 
L 71.772727 187.45908 
L 67.075758 164.404467 
L 62.378788 128.794263 
L 57.681818 37.666707 
z
" clip-path="url(#pbff4117cae)" style="fill: #2ca02c; fill-opacity: 0.2"/>
   </g>
   <g id="PolyCollection_4">
    <path d="M 57.681818 178.853489 
L 57.681818 181.328909 
L 62.378788 264.873974 
L 67.075758 289.815057 
L 71.772727 304.170085 
L 76.469697 313.494539 
L 81.166667 320.217137 
L 85.863636 324.553096 
L 90.560606 327.876454 
L 95.257576 330.991654 
L 99.954545 333.458559 
L 104.651515 335.556331 
L 109.348485 336.395168 
L 114.045455 337.442002 
L 118.742424 338.494791 
L 123.439394 339.524092 
L 128.136364 340.503628 
L 132.833333 341.215216 
L 137.530303 341.302932 
L 142.227273 341.253017 
L 146.924242 342.097733 
L 151.621212 342.476763 
L 156.318182 342.921511 
L 161.015152 343.92937 
L 165.712121 343.859447 
L 170.409091 344.167031 
L 175.106061 343.909963 
L 179.80303 344.334309 
L 184.5 343.404968 
L 184.5 336.184771 
L 184.5 336.184771 
L 179.80303 335.542664 
L 175.106061 336.824203 
L 170.409091 336.077109 
L 165.712121 336.869668 
L 161.015152 336.568193 
L 156.318182 336.975157 
L 151.621212 337.327906 
L 146.924242 336.540863 
L 142.227273 336.235179 
L 137.530303 336.889209 
L 132.833333 336.815392 
L 128.136364 336.462573 
L 123.439394 335.878603 
L 118.742424 335.798009 
L 114.045455 334.474634 
L 109.348485 333.754346 
L 104.651515 332.719918 
L 99.954545 331.292663 
L 95.257576 329.312365 
L 90.560606 325.69786 
L 85.863636 323.034221 
L 81.166667 317.545179 
L 76.469697 311.560388 
L 71.772727 301.798353 
L 67.075758 287.040511 
L 62.378788 261.126346 
L 57.681818 178.853489 
z
" clip-path="url(#pbff4117cae)" style="fill: #d62728; fill-opacity: 0.2"/>
   </g>
   <g id="PolyCollection_5">
    <path d="M 57.681818 223.870417 
L 57.681818 228.023575 
L 62.378788 256.639365 
L 67.075758 269.34231 
L 71.772727 276.632463 
L 76.469697 281.385334 
L 81.166667 284.40234 
L 85.863636 285.718152 
L 90.560606 286.415553 
L 95.257576 290.840779 
L 99.954545 289.832936 
L 104.651515 291.511879 
L 109.348485 294.215793 
L 114.045455 293.514139 
L 118.742424 294.063423 
L 123.439394 295.932178 
L 128.136364 293.5694 
L 132.833333 297.11497 
L 137.530303 295.343338 
L 142.227273 292.909435 
L 146.924242 292.53918 
L 151.621212 293.542723 
L 151.621212 286.79819 
L 151.621212 286.79819 
L 146.924242 291.446535 
L 142.227273 289.752736 
L 137.530303 291.60332 
L 132.833333 289.168683 
L 128.136364 291.277992 
L 123.439394 287.529602 
L 118.742424 290.395928 
L 114.045455 288.918026 
L 109.348485 290.704621 
L 104.651515 288.454647 
L 99.954545 287.612746 
L 95.257576 286.991133 
L 90.560606 283.650215 
L 85.863636 282.376618 
L 81.166667 283.096556 
L 76.469697 276.496638 
L 71.772727 273.403087 
L 67.075758 268.579173 
L 62.378788 255.927924 
L 57.681818 223.870417 
z
" clip-path="url(#pbff4117cae)" style="fill: #9467bd; fill-opacity: 0.2"/>
   </g>
   <g id="PolyCollection_6">
    <path d="M 57.681818 142.815678 
L 57.681818 152.802261 
L 62.378788 242.466295 
L 67.075758 266.458845 
L 71.772727 279.889654 
L 76.469697 290.39193 
L 81.166667 296.893612 
L 85.863636 299.82256 
L 90.560606 304.151789 
L 95.257576 309.081214 
L 99.954545 310.4425 
L 104.651515 312.329974 
L 109.348485 314.906611 
L 114.045455 314.524781 
L 118.742424 319.794635 
L 123.439394 315.307315 
L 128.136364 319.418276 
L 132.833333 320.64453 
L 137.530303 318.805983 
L 142.227273 319.918802 
L 146.924242 322.57404 
L 151.621212 323.508373 
L 156.318182 320.75466 
L 161.015152 324.724655 
L 165.712121 319.063652 
L 170.409091 322.628514 
L 175.106061 323.529544 
L 175.106061 311.548849 
L 175.106061 311.548849 
L 170.409091 313.335414 
L 165.712121 315.505295 
L 161.015152 309.108498 
L 156.318182 314.600888 
L 151.621212 314.937456 
L 146.924242 314.33987 
L 142.227273 311.140099 
L 137.530303 313.931792 
L 132.833333 306.66956 
L 128.136364 311.778143 
L 123.439394 307.337149 
L 118.742424 307.756197 
L 114.045455 309.267158 
L 109.348485 307.001542 
L 104.651515 302.600885 
L 99.954545 304.064129 
L 95.257576 296.300506 
L 90.560606 296.38229 
L 85.863636 289.181637 
L 81.166667 284.934449 
L 76.469697 282.15239 
L 71.772727 271.04545 
L 67.075758 257.8326 
L 62.378788 229.529691 
L 57.681818 142.815678 
z
" clip-path="url(#pbff4117cae)" style="fill: #8c564b; fill-opacity: 0.2"/>
   </g>
   <g id="PolyCollection_7">
    <path d="M 57.681818 -71.669088 
L 57.681818 -66.596017 
L 62.378788 101.131031 
L 67.075758 156.892154 
L 71.772727 187.93283 
L 76.469697 210.316723 
L 81.166667 225.036203 
L 85.863636 235.396943 
L 90.560606 244.914684 
L 95.257576 249.360156 
L 99.954545 255.213631 
L 104.651515 261.399759 
L 109.348485 263.212821 
L 114.045455 267.156568 
L 118.742424 270.397034 
L 123.439394 272.140121 
L 128.136364 273.034694 
L 132.833333 274.521643 
L 137.530303 274.17176 
L 142.227273 278.783707 
L 146.924242 280.750693 
L 151.621212 281.411916 
L 156.318182 280.193473 
L 161.015152 278.564018 
L 165.712121 283.389097 
L 170.409091 282.450877 
L 175.106061 284.112537 
L 179.80303 284.949734 
L 184.5 283.33569 
L 189.19697 285.288434 
L 193.893939 286.15629 
L 198.590909 284.03114 
L 203.287879 287.252337 
L 207.984848 286.47056 
L 212.681818 286.287061 
L 217.378788 287.091234 
L 222.075758 286.777216 
L 226.772727 287.165344 
L 226.772727 272.085271 
L 226.772727 272.085271 
L 222.075758 272.31553 
L 217.378788 271.889937 
L 212.681818 271.542039 
L 207.984848 272.260562 
L 203.287879 271.879431 
L 198.590909 271.837996 
L 193.893939 273.138463 
L 189.19697 271.367417 
L 184.5 271.13119 
L 179.80303 269.593221 
L 175.106061 270.661117 
L 170.409091 269.211923 
L 165.712121 269.219319 
L 161.015152 268.666656 
L 156.318182 267.663583 
L 151.621212 265.997681 
L 146.924242 266.016066 
L 142.227273 264.866709 
L 137.530303 263.631256 
L 132.833333 261.341844 
L 128.136364 260.47835 
L 123.439394 258.097382 
L 118.742424 257.160978 
L 114.045455 252.822895 
L 109.348485 250.254093 
L 104.651515 246.539407 
L 99.954545 244.309088 
L 95.257576 238.729956 
L 90.560606 231.588689 
L 85.863636 225.341969 
L 81.166667 215.082871 
L 76.469697 202.94365 
L 71.772727 182.952542 
L 67.075758 150.758275 
L 62.378788 90.323541 
L 57.681818 -71.669088 
z
" clip-path="url(#pbff4117cae)" style="fill: #e377c2; fill-opacity: 0.2"/>
   </g>
   <g id="PolyCollection_8">
    <path d="M 57.681818 101.835535 
L 57.681818 103.608573 
L 62.378788 225.906099 
L 67.075758 261.983072 
L 71.772727 280.598055 
L 76.469697 293.324567 
L 81.166667 301.992608 
L 85.863636 307.573803 
L 90.560606 313.452366 
L 95.257576 317.678483 
L 99.954545 320.997379 
L 104.651515 323.420075 
L 109.348485 325.84673 
L 114.045455 328.436812 
L 118.742424 330.333641 
L 123.439394 332.353841 
L 128.136364 333.048567 
L 132.833333 335.254342 
L 137.530303 336.453059 
L 142.227273 337.220542 
L 146.924242 338.328027 
L 151.621212 338.911552 
L 156.318182 340.363556 
L 161.015152 339.998524 
L 165.712121 341.412023 
L 170.409091 341.475319 
L 175.106061 342.28309 
L 179.80303 342.844523 
L 184.5 342.900067 
L 189.19697 343.058135 
L 193.893939 344.494326 
L 198.590909 344.207426 
L 203.287879 344.800467 
L 207.984848 345.950426 
L 212.681818 344.334199 
L 217.378788 345.898934 
L 222.075758 346.597801 
L 226.772727 346.739554 
L 231.469697 346.57209 
L 236.166667 347.218715 
L 240.863636 346.224436 
L 245.560606 346.82411 
L 250.257576 346.70231 
L 254.954545 347.678132 
L 259.651515 348.129193 
L 264.348485 347.950362 
L 269.045455 348.043519 
L 273.742424 347.332909 
L 278.439394 348.181798 
L 283.136364 348.766434 
L 287.833333 348.686848 
L 292.530303 348.379444 
L 297.227273 349.255186 
L 301.924242 349.353224 
L 306.621212 349.253274 
L 311.318182 349.597528 
L 311.318182 345.584734 
L 311.318182 345.584734 
L 306.621212 345.831494 
L 301.924242 346.635857 
L 297.227273 347.461212 
L 292.530303 347.040592 
L 287.833333 346.304512 
L 283.136364 345.96583 
L 278.439394 345.394421 
L 273.742424 346.087057 
L 269.045455 345.368775 
L 264.348485 345.97307 
L 259.651515 345.217475 
L 254.954545 344.893842 
L 250.257576 345.521942 
L 245.560606 344.246025 
L 240.863636 345.404204 
L 236.166667 344.626186 
L 231.469697 345.125568 
L 226.772727 345.446485 
L 222.075758 343.05753 
L 217.378788 342.766389 
L 212.681818 343.646085 
L 207.984848 343.0299 
L 203.287879 343.07489 
L 198.590909 342.937574 
L 193.893939 343.580178 
L 189.19697 342.034046 
L 184.5 342.289891 
L 179.80303 340.72503 
L 175.106061 341.072333 
L 170.409091 340.330037 
L 165.712121 340.111187 
L 161.015152 338.863894 
L 156.318182 338.818024 
L 151.621212 337.854007 
L 146.924242 336.699859 
L 142.227273 336.118672 
L 137.530303 334.025419 
L 132.833333 333.433987 
L 128.136364 331.545717 
L 123.439394 329.949139 
L 118.742424 329.164713 
L 114.045455 325.843692 
L 109.348485 323.734421 
L 104.651515 322.392606 
L 99.954545 319.303545 
L 95.257576 314.958083 
L 90.560606 311.383549 
L 85.863636 305.993563 
L 81.166667 298.05319 
L 76.469697 289.700308 
L 71.772727 277.545619 
L 67.075758 257.46867 
L 62.378788 221.343334 
L 57.681818 101.835535 
z
" clip-path="url(#pbff4117cae)" style="fill: #7f7f7f; fill-opacity: 0.2"/>
   </g>
   <g id="matplotlib.axis_1">
    <g id="xtick_1">
     <g id="line2d_1">
      <path d="M 52.984848 378 
L 52.984848 51.84 
" clip-path="url(#pbff4117cae)" style="fill: none; stroke: #b0b0b0; stroke-width: 0.8; stroke-linecap: square"/>
     </g>
     <g id="line2d_2">
      <defs>
       <path id="m9ff76292be" d="M 0 0 
L 0 3.5 
" style="stroke: #000000; stroke-width: 0.8"/>
      </defs>
      <g>
       <use xlink:href="#m9ff76292be" x="52.984848" y="378" style="stroke: #000000; stroke-width: 0.8"/>
      </g>
     </g>
     <g id="text_1">
      <!-- 0 -->
      <g transform="translate(49.803598 392.598437)scale(0.1 -0.1)">
       <defs>
        <path id="DejaVuSans-30" d="M 2034 4250 
Q 1547 4250 1301 3770 
Q 1056 3291 1056 2328 
Q 1056 1369 1301 889 
Q 1547 409 2034 409 
Q 2525 409 2770 889 
Q 3016 1369 3016 2328 
Q 3016 3291 2770 3770 
Q 2525 4250 2034 4250 
z
M 2034 4750 
Q 2819 4750 3233 4129 
Q 3647 3509 3647 2328 
Q 3647 1150 3233 529 
Q 2819 -91 2034 -91 
Q 1250 -91 836 529 
Q 422 1150 422 2328 
Q 422 3509 836 4129 
Q 1250 4750 2034 4750 
z
" transform="scale(0.015625)"/>
       </defs>
       <use xlink:href="#DejaVuSans-30"/>
      </g>
     </g>
    </g>
    <g id="xtick_2">
     <g id="line2d_3">
      <path d="M 99.954545 378 
L 99.954545 51.84 
" clip-path="url(#pbff4117cae)" style="fill: none; stroke: #b0b0b0; stroke-width: 0.8; stroke-linecap: square"/>
     </g>
     <g id="line2d_4">
      <g>
       <use xlink:href="#m9ff76292be" x="99.954545" y="378" style="stroke: #000000; stroke-width: 0.8"/>
      </g>
     </g>
     <g id="text_2">
      <!-- 10 -->
      <g transform="translate(93.592045 392.598437)scale(0.1 -0.1)">
       <defs>
        <path id="DejaVuSans-31" d="M 794 531 
L 1825 531 
L 1825 4091 
L 703 3866 
L 703 4441 
L 1819 4666 
L 2450 4666 
L 2450 531 
L 3481 531 
L 3481 0 
L 794 0 
L 794 531 
z
" transform="scale(0.015625)"/>
       </defs>
       <use xlink:href="#DejaVuSans-31"/>
       <use xlink:href="#DejaVuSans-30" x="63.623047"/>
      </g>
     </g>
    </g>
    <g id="xtick_3">
     <g id="line2d_5">
      <path d="M 146.924242 378 
L 146.924242 51.84 
" clip-path="url(#pbff4117cae)" style="fill: none; stroke: #b0b0b0; stroke-width: 0.8; stroke-linecap: square"/>
     </g>
     <g id="line2d_6">
      <g>
       <use xlink:href="#m9ff76292be" x="146.924242" y="378" style="stroke: #000000; stroke-width: 0.8"/>
      </g>
     </g>
     <g id="text_3">
      <!-- 20 -->
      <g transform="translate(140.561742 392.598437)scale(0.1 -0.1)">
       <defs>
        <path id="DejaVuSans-32" d="M 1228 531 
L 3431 531 
L 3431 0 
L 469 0 
L 469 531 
Q 828 903 1448 1529 
Q 2069 2156 2228 2338 
Q 2531 2678 2651 2914 
Q 2772 3150 2772 3378 
Q 2772 3750 2511 3984 
Q 2250 4219 1831 4219 
Q 1534 4219 1204 4116 
Q 875 4013 500 3803 
L 500 4441 
Q 881 4594 1212 4672 
Q 1544 4750 1819 4750 
Q 2544 4750 2975 4387 
Q 3406 4025 3406 3419 
Q 3406 3131 3298 2873 
Q 3191 2616 2906 2266 
Q 2828 2175 2409 1742 
Q 1991 1309 1228 531 
z
" transform="scale(0.015625)"/>
       </defs>
       <use xlink:href="#DejaVuSans-32"/>
       <use xlink:href="#DejaVuSans-30" x="63.623047"/>
      </g>
     </g>
    </g>
    <g id="xtick_4">
     <g id="line2d_7">
      <path d="M 193.893939 378 
L 193.893939 51.84 
" clip-path="url(#pbff4117cae)" style="fill: none; stroke: #b0b0b0; stroke-width: 0.8; stroke-linecap: square"/>
     </g>
     <g id="line2d_8">
      <g>
       <use xlink:href="#m9ff76292be" x="193.893939" y="378" style="stroke: #000000; stroke-width: 0.8"/>
      </g>
     </g>
     <g id="text_4">
      <!-- 30 -->
      <g transform="translate(187.531439 392.598437)scale(0.1 -0.1)">
       <defs>
        <path id="DejaVuSans-33" d="M 2597 2516 
Q 3050 2419 3304 2112 
Q 3559 1806 3559 1356 
Q 3559 666 3084 287 
Q 2609 -91 1734 -91 
Q 1441 -91 1130 -33 
Q 819 25 488 141 
L 488 750 
Q 750 597 1062 519 
Q 1375 441 1716 441 
Q 2309 441 2620 675 
Q 2931 909 2931 1356 
Q 2931 1769 2642 2001 
Q 2353 2234 1838 2234 
L 1294 2234 
L 1294 2753 
L 1863 2753 
Q 2328 2753 2575 2939 
Q 2822 3125 2822 3475 
Q 2822 3834 2567 4026 
Q 2313 4219 1838 4219 
Q 1578 4219 1281 4162 
Q 984 4106 628 3988 
L 628 4550 
Q 988 4650 1302 4700 
Q 1616 4750 1894 4750 
Q 2613 4750 3031 4423 
Q 3450 4097 3450 3541 
Q 3450 3153 3228 2886 
Q 3006 2619 2597 2516 
z
" transform="scale(0.015625)"/>
       </defs>
       <use xlink:href="#DejaVuSans-33"/>
       <use xlink:href="#DejaVuSans-30" x="63.623047"/>
      </g>
     </g>
    </g>
    <g id="xtick_5">
     <g id="line2d_9">
      <path d="M 240.863636 378 
L 240.863636 51.84 
" clip-path="url(#pbff4117cae)" style="fill: none; stroke: #b0b0b0; stroke-width: 0.8; stroke-linecap: square"/>
     </g>
     <g id="line2d_10">
      <g>
       <use xlink:href="#m9ff76292be" x="240.863636" y="378" style="stroke: #000000; stroke-width: 0.8"/>
      </g>
     </g>
     <g id="text_5">
      <!-- 40 -->
      <g transform="translate(234.501136 392.598437)scale(0.1 -0.1)">
       <defs>
        <path id="DejaVuSans-34" d="M 2419 4116 
L 825 1625 
L 2419 1625 
L 2419 4116 
z
M 2253 4666 
L 3047 4666 
L 3047 1625 
L 3713 1625 
L 3713 1100 
L 3047 1100 
L 3047 0 
L 2419 0 
L 2419 1100 
L 313 1100 
L 313 1709 
L 2253 4666 
z
" transform="scale(0.015625)"/>
       </defs>
       <use xlink:href="#DejaVuSans-34"/>
       <use xlink:href="#DejaVuSans-30" x="63.623047"/>
      </g>
     </g>
    </g>
    <g id="xtick_6">
     <g id="line2d_11">
      <path d="M 287.833333 378 
L 287.833333 51.84 
" clip-path="url(#pbff4117cae)" style="fill: none; stroke: #b0b0b0; stroke-width: 0.8; stroke-linecap: square"/>
     </g>
     <g id="line2d_12">
      <g>
       <use xlink:href="#m9ff76292be" x="287.833333" y="378" style="stroke: #000000; stroke-width: 0.8"/>
      </g>
     </g>
     <g id="text_6">
      <!-- 50 -->
      <g transform="translate(281.470833 392.598437)scale(0.1 -0.1)">
       <defs>
        <path id="DejaVuSans-35" d="M 691 4666 
L 3169 4666 
L 3169 4134 
L 1269 4134 
L 1269 2991 
Q 1406 3038 1543 3061 
Q 1681 3084 1819 3084 
Q 2600 3084 3056 2656 
Q 3513 2228 3513 1497 
Q 3513 744 3044 326 
Q 2575 -91 1722 -91 
Q 1428 -91 1123 -41 
Q 819 9 494 109 
L 494 744 
Q 775 591 1075 516 
Q 1375 441 1709 441 
Q 2250 441 2565 725 
Q 2881 1009 2881 1497 
Q 2881 1984 2565 2268 
Q 2250 2553 1709 2553 
Q 1456 2553 1204 2497 
Q 953 2441 691 2322 
L 691 4666 
z
" transform="scale(0.015625)"/>
       </defs>
       <use xlink:href="#DejaVuSans-35"/>
       <use xlink:href="#DejaVuSans-30" x="63.623047"/>
      </g>
     </g>
    </g>
    <g id="text_7">
     <!-- Epochs -->
     <g transform="translate(166.584375 406.276563)scale(0.1 -0.1)">
      <defs>
       <path id="DejaVuSans-45" d="M 628 4666 
L 3578 4666 
L 3578 4134 
L 1259 4134 
L 1259 2753 
L 3481 2753 
L 3481 2222 
L 1259 2222 
L 1259 531 
L 3634 531 
L 3634 0 
L 628 0 
L 628 4666 
z
" transform="scale(0.015625)"/>
       <path id="DejaVuSans-70" d="M 1159 525 
L 1159 -1331 
L 581 -1331 
L 581 3500 
L 1159 3500 
L 1159 2969 
Q 1341 3281 1617 3432 
Q 1894 3584 2278 3584 
Q 2916 3584 3314 3078 
Q 3713 2572 3713 1747 
Q 3713 922 3314 415 
Q 2916 -91 2278 -91 
Q 1894 -91 1617 61 
Q 1341 213 1159 525 
z
M 3116 1747 
Q 3116 2381 2855 2742 
Q 2594 3103 2138 3103 
Q 1681 3103 1420 2742 
Q 1159 2381 1159 1747 
Q 1159 1113 1420 752 
Q 1681 391 2138 391 
Q 2594 391 2855 752 
Q 3116 1113 3116 1747 
z
" transform="scale(0.015625)"/>
       <path id="DejaVuSans-6f" d="M 1959 3097 
Q 1497 3097 1228 2736 
Q 959 2375 959 1747 
Q 959 1119 1226 758 
Q 1494 397 1959 397 
Q 2419 397 2687 759 
Q 2956 1122 2956 1747 
Q 2956 2369 2687 2733 
Q 2419 3097 1959 3097 
z
M 1959 3584 
Q 2709 3584 3137 3096 
Q 3566 2609 3566 1747 
Q 3566 888 3137 398 
Q 2709 -91 1959 -91 
Q 1206 -91 779 398 
Q 353 888 353 1747 
Q 353 2609 779 3096 
Q 1206 3584 1959 3584 
z
" transform="scale(0.015625)"/>
       <path id="DejaVuSans-63" d="M 3122 3366 
L 3122 2828 
Q 2878 2963 2633 3030 
Q 2388 3097 2138 3097 
Q 1578 3097 1268 2742 
Q 959 2388 959 1747 
Q 959 1106 1268 751 
Q 1578 397 2138 397 
Q 2388 397 2633 464 
Q 2878 531 3122 666 
L 3122 134 
Q 2881 22 2623 -34 
Q 2366 -91 2075 -91 
Q 1284 -91 818 406 
Q 353 903 353 1747 
Q 353 2603 823 3093 
Q 1294 3584 2113 3584 
Q 2378 3584 2631 3529 
Q 2884 3475 3122 3366 
z
" transform="scale(0.015625)"/>
       <path id="DejaVuSans-68" d="M 3513 2113 
L 3513 0 
L 2938 0 
L 2938 2094 
Q 2938 2591 2744 2837 
Q 2550 3084 2163 3084 
Q 1697 3084 1428 2787 
Q 1159 2491 1159 1978 
L 1159 0 
L 581 0 
L 581 4863 
L 1159 4863 
L 1159 2956 
Q 1366 3272 1645 3428 
Q 1925 3584 2291 3584 
Q 2894 3584 3203 3211 
Q 3513 2838 3513 2113 
z
" transform="scale(0.015625)"/>
       <path id="DejaVuSans-73" d="M 2834 3397 
L 2834 2853 
Q 2591 2978 2328 3040 
Q 2066 3103 1784 3103 
Q 1356 3103 1142 2972 
Q 928 2841 928 2578 
Q 928 2378 1081 2264 
Q 1234 2150 1697 2047 
L 1894 2003 
Q 2506 1872 2764 1633 
Q 3022 1394 3022 966 
Q 3022 478 2636 193 
Q 2250 -91 1575 -91 
Q 1294 -91 989 -36 
Q 684 19 347 128 
L 347 722 
Q 666 556 975 473 
Q 1284 391 1588 391 
Q 1994 391 2212 530 
Q 2431 669 2431 922 
Q 2431 1156 2273 1281 
Q 2116 1406 1581 1522 
L 1381 1569 
Q 847 1681 609 1914 
Q 372 2147 372 2553 
Q 372 3047 722 3315 
Q 1072 3584 1716 3584 
Q 2034 3584 2315 3537 
Q 2597 3491 2834 3397 
z
" transform="scale(0.015625)"/>
      </defs>
      <use xlink:href="#DejaVuSans-45"/>
      <use xlink:href="#DejaVuSans-70" x="63.183594"/>
      <use xlink:href="#DejaVuSans-6f" x="126.660156"/>
      <use xlink:href="#DejaVuSans-63" x="187.841797"/>
      <use xlink:href="#DejaVuSans-68" x="242.822266"/>
      <use xlink:href="#DejaVuSans-73" x="306.201172"/>
     </g>
    </g>
   </g>
   <g id="matplotlib.axis_2">
    <g id="ytick_1">
     <g id="line2d_13">
      <path d="M 45 329.345667 
L 324 329.345667 
" clip-path="url(#pbff4117cae)" style="fill: none; stroke: #b0b0b0; stroke-width: 0.8; stroke-linecap: square"/>
     </g>
     <g id="line2d_14">
      <defs>
       <path id="m19e331fc8b" d="M 0 0 
L -3.5 0 
" style="stroke: #000000; stroke-width: 0.8"/>
      </defs>
      <g>
       <use xlink:href="#m19e331fc8b" x="45" y="329.345667" style="stroke: #000000; stroke-width: 0.8"/>
      </g>
     </g>
     <g id="text_8">
      <!-- 0.4 -->
      <g transform="translate(22.096875 333.144886)scale(0.1 -0.1)">
       <defs>
        <path id="DejaVuSans-2e" d="M 684 794 
L 1344 794 
L 1344 0 
L 684 0 
L 684 794 
z
" transform="scale(0.015625)"/>
       </defs>
       <use xlink:href="#DejaVuSans-30"/>
       <use xlink:href="#DejaVuSans-2e" x="63.623047"/>
       <use xlink:href="#DejaVuSans-34" x="95.410156"/>
      </g>
     </g>
    </g>
    <g id="ytick_2">
     <g id="line2d_15">
      <path d="M 45 264.050216 
L 324 264.050216 
" clip-path="url(#pbff4117cae)" style="fill: none; stroke: #b0b0b0; stroke-width: 0.8; stroke-linecap: square"/>
     </g>
     <g id="line2d_16">
      <g>
       <use xlink:href="#m19e331fc8b" x="45" y="264.050216" style="stroke: #000000; stroke-width: 0.8"/>
      </g>
     </g>
     <g id="text_9">
      <!-- 0.6 -->
      <g transform="translate(22.096875 267.849435)scale(0.1 -0.1)">
       <defs>
        <path id="DejaVuSans-36" d="M 2113 2584 
Q 1688 2584 1439 2293 
Q 1191 2003 1191 1497 
Q 1191 994 1439 701 
Q 1688 409 2113 409 
Q 2538 409 2786 701 
Q 3034 994 3034 1497 
Q 3034 2003 2786 2293 
Q 2538 2584 2113 2584 
z
M 3366 4563 
L 3366 3988 
Q 3128 4100 2886 4159 
Q 2644 4219 2406 4219 
Q 1781 4219 1451 3797 
Q 1122 3375 1075 2522 
Q 1259 2794 1537 2939 
Q 1816 3084 2150 3084 
Q 2853 3084 3261 2657 
Q 3669 2231 3669 1497 
Q 3669 778 3244 343 
Q 2819 -91 2113 -91 
Q 1303 -91 875 529 
Q 447 1150 447 2328 
Q 447 3434 972 4092 
Q 1497 4750 2381 4750 
Q 2619 4750 2861 4703 
Q 3103 4656 3366 4563 
z
" transform="scale(0.015625)"/>
       </defs>
       <use xlink:href="#DejaVuSans-30"/>
       <use xlink:href="#DejaVuSans-2e" x="63.623047"/>
       <use xlink:href="#DejaVuSans-36" x="95.410156"/>
      </g>
     </g>
    </g>
    <g id="ytick_3">
     <g id="line2d_17">
      <path d="M 45 198.754765 
L 324 198.754765 
" clip-path="url(#pbff4117cae)" style="fill: none; stroke: #b0b0b0; stroke-width: 0.8; stroke-linecap: square"/>
     </g>
     <g id="line2d_18">
      <g>
       <use xlink:href="#m19e331fc8b" x="45" y="198.754765" style="stroke: #000000; stroke-width: 0.8"/>
      </g>
     </g>
     <g id="text_10">
      <!-- 0.8 -->
      <g transform="translate(22.096875 202.553984)scale(0.1 -0.1)">
       <defs>
        <path id="DejaVuSans-38" d="M 2034 2216 
Q 1584 2216 1326 1975 
Q 1069 1734 1069 1313 
Q 1069 891 1326 650 
Q 1584 409 2034 409 
Q 2484 409 2743 651 
Q 3003 894 3003 1313 
Q 3003 1734 2745 1975 
Q 2488 2216 2034 2216 
z
M 1403 2484 
Q 997 2584 770 2862 
Q 544 3141 544 3541 
Q 544 4100 942 4425 
Q 1341 4750 2034 4750 
Q 2731 4750 3128 4425 
Q 3525 4100 3525 3541 
Q 3525 3141 3298 2862 
Q 3072 2584 2669 2484 
Q 3125 2378 3379 2068 
Q 3634 1759 3634 1313 
Q 3634 634 3220 271 
Q 2806 -91 2034 -91 
Q 1263 -91 848 271 
Q 434 634 434 1313 
Q 434 1759 690 2068 
Q 947 2378 1403 2484 
z
M 1172 3481 
Q 1172 3119 1398 2916 
Q 1625 2713 2034 2713 
Q 2441 2713 2670 2916 
Q 2900 3119 2900 3481 
Q 2900 3844 2670 4047 
Q 2441 4250 2034 4250 
Q 1625 4250 1398 4047 
Q 1172 3844 1172 3481 
z
" transform="scale(0.015625)"/>
       </defs>
       <use xlink:href="#DejaVuSans-30"/>
       <use xlink:href="#DejaVuSans-2e" x="63.623047"/>
       <use xlink:href="#DejaVuSans-38" x="95.410156"/>
      </g>
     </g>
    </g>
    <g id="ytick_4">
     <g id="line2d_19">
      <path d="M 45 133.459314 
L 324 133.459314 
" clip-path="url(#pbff4117cae)" style="fill: none; stroke: #b0b0b0; stroke-width: 0.8; stroke-linecap: square"/>
     </g>
     <g id="line2d_20">
      <g>
       <use xlink:href="#m19e331fc8b" x="45" y="133.459314" style="stroke: #000000; stroke-width: 0.8"/>
      </g>
     </g>
     <g id="text_11">
      <!-- 1.0 -->
      <g transform="translate(22.096875 137.258533)scale(0.1 -0.1)">
       <use xlink:href="#DejaVuSans-31"/>
       <use xlink:href="#DejaVuSans-2e" x="63.623047"/>
       <use xlink:href="#DejaVuSans-30" x="95.410156"/>
      </g>
     </g>
    </g>
    <g id="ytick_5">
     <g id="line2d_21">
      <path d="M 45 68.163863 
L 324 68.163863 
" clip-path="url(#pbff4117cae)" style="fill: none; stroke: #b0b0b0; stroke-width: 0.8; stroke-linecap: square"/>
     </g>
     <g id="line2d_22">
      <g>
       <use xlink:href="#m19e331fc8b" x="45" y="68.163863" style="stroke: #000000; stroke-width: 0.8"/>
      </g>
     </g>
     <g id="text_12">
      <!-- 1.2 -->
      <g transform="translate(22.096875 71.963082)scale(0.1 -0.1)">
       <use xlink:href="#DejaVuSans-31"/>
       <use xlink:href="#DejaVuSans-2e" x="63.623047"/>
       <use xlink:href="#DejaVuSans-32" x="95.410156"/>
      </g>
     </g>
    </g>
    <g id="text_13">
     <!-- Cross Entropy Loss ($Q_2$ with $Q_1 - Q_3$ range) -->
     <g transform="translate(15.996875 322.97)rotate(-90)scale(0.1 -0.1)">
      <defs>
       <path id="DejaVuSans-43" d="M 4122 4306 
L 4122 3641 
Q 3803 3938 3442 4084 
Q 3081 4231 2675 4231 
Q 1875 4231 1450 3742 
Q 1025 3253 1025 2328 
Q 1025 1406 1450 917 
Q 1875 428 2675 428 
Q 3081 428 3442 575 
Q 3803 722 4122 1019 
L 4122 359 
Q 3791 134 3420 21 
Q 3050 -91 2638 -91 
Q 1578 -91 968 557 
Q 359 1206 359 2328 
Q 359 3453 968 4101 
Q 1578 4750 2638 4750 
Q 3056 4750 3426 4639 
Q 3797 4528 4122 4306 
z
" transform="scale(0.015625)"/>
       <path id="DejaVuSans-72" d="M 2631 2963 
Q 2534 3019 2420 3045 
Q 2306 3072 2169 3072 
Q 1681 3072 1420 2755 
Q 1159 2438 1159 1844 
L 1159 0 
L 581 0 
L 581 3500 
L 1159 3500 
L 1159 2956 
Q 1341 3275 1631 3429 
Q 1922 3584 2338 3584 
Q 2397 3584 2469 3576 
Q 2541 3569 2628 3553 
L 2631 2963 
z
" transform="scale(0.015625)"/>
       <path id="DejaVuSans-20" transform="scale(0.015625)"/>
       <path id="DejaVuSans-6e" d="M 3513 2113 
L 3513 0 
L 2938 0 
L 2938 2094 
Q 2938 2591 2744 2837 
Q 2550 3084 2163 3084 
Q 1697 3084 1428 2787 
Q 1159 2491 1159 1978 
L 1159 0 
L 581 0 
L 581 3500 
L 1159 3500 
L 1159 2956 
Q 1366 3272 1645 3428 
Q 1925 3584 2291 3584 
Q 2894 3584 3203 3211 
Q 3513 2838 3513 2113 
z
" transform="scale(0.015625)"/>
       <path id="DejaVuSans-74" d="M 1172 4494 
L 1172 3500 
L 2356 3500 
L 2356 3053 
L 1172 3053 
L 1172 1153 
Q 1172 725 1289 603 
Q 1406 481 1766 481 
L 2356 481 
L 2356 0 
L 1766 0 
Q 1100 0 847 248 
Q 594 497 594 1153 
L 594 3053 
L 172 3053 
L 172 3500 
L 594 3500 
L 594 4494 
L 1172 4494 
z
" transform="scale(0.015625)"/>
       <path id="DejaVuSans-79" d="M 2059 -325 
Q 1816 -950 1584 -1140 
Q 1353 -1331 966 -1331 
L 506 -1331 
L 506 -850 
L 844 -850 
Q 1081 -850 1212 -737 
Q 1344 -625 1503 -206 
L 1606 56 
L 191 3500 
L 800 3500 
L 1894 763 
L 2988 3500 
L 3597 3500 
L 2059 -325 
z
" transform="scale(0.015625)"/>
       <path id="DejaVuSans-4c" d="M 628 4666 
L 1259 4666 
L 1259 531 
L 3531 531 
L 3531 0 
L 628 0 
L 628 4666 
z
" transform="scale(0.015625)"/>
       <path id="DejaVuSans-28" d="M 1984 4856 
Q 1566 4138 1362 3434 
Q 1159 2731 1159 2009 
Q 1159 1288 1364 580 
Q 1569 -128 1984 -844 
L 1484 -844 
Q 1016 -109 783 600 
Q 550 1309 550 2009 
Q 550 2706 781 3412 
Q 1013 4119 1484 4856 
L 1984 4856 
z
" transform="scale(0.015625)"/>
       <path id="DejaVuSans-Oblique-51" d="M 2309 -84 
Q 2275 -88 2237 -89 
Q 2200 -91 2125 -91 
Q 1250 -91 756 411 
Q 263 913 263 1797 
Q 263 2319 452 2844 
Q 641 3369 978 3788 
Q 1369 4269 1858 4509 
Q 2347 4750 2938 4750 
Q 3794 4750 4287 4245 
Q 4781 3741 4781 2869 
Q 4781 1928 4265 1147 
Q 3750 366 2919 44 
L 3553 -825 
L 2847 -825 
L 2309 -84 
z
M 2919 4238 
Q 2400 4238 2003 3986 
Q 1606 3734 1313 3219 
Q 1125 2891 1026 2522 
Q 928 2153 928 1778 
Q 928 1128 1239 775 
Q 1550 422 2119 422 
Q 2631 422 3032 676 
Q 3434 931 3719 1434 
Q 3909 1772 4009 2142 
Q 4109 2513 4109 2881 
Q 4109 3528 3796 3883 
Q 3484 4238 2919 4238 
z
" transform="scale(0.015625)"/>
       <path id="DejaVuSans-77" d="M 269 3500 
L 844 3500 
L 1563 769 
L 2278 3500 
L 2956 3500 
L 3675 769 
L 4391 3500 
L 4966 3500 
L 4050 0 
L 3372 0 
L 2619 2869 
L 1863 0 
L 1184 0 
L 269 3500 
z
" transform="scale(0.015625)"/>
       <path id="DejaVuSans-69" d="M 603 3500 
L 1178 3500 
L 1178 0 
L 603 0 
L 603 3500 
z
M 603 4863 
L 1178 4863 
L 1178 4134 
L 603 4134 
L 603 4863 
z
" transform="scale(0.015625)"/>
       <path id="DejaVuSans-2212" d="M 678 2272 
L 4684 2272 
L 4684 1741 
L 678 1741 
L 678 2272 
z
" transform="scale(0.015625)"/>
       <path id="DejaVuSans-61" d="M 2194 1759 
Q 1497 1759 1228 1600 
Q 959 1441 959 1056 
Q 959 750 1161 570 
Q 1363 391 1709 391 
Q 2188 391 2477 730 
Q 2766 1069 2766 1631 
L 2766 1759 
L 2194 1759 
z
M 3341 1997 
L 3341 0 
L 2766 0 
L 2766 531 
Q 2569 213 2275 61 
Q 1981 -91 1556 -91 
Q 1019 -91 701 211 
Q 384 513 384 1019 
Q 384 1609 779 1909 
Q 1175 2209 1959 2209 
L 2766 2209 
L 2766 2266 
Q 2766 2663 2505 2880 
Q 2244 3097 1772 3097 
Q 1472 3097 1187 3025 
Q 903 2953 641 2809 
L 641 3341 
Q 956 3463 1253 3523 
Q 1550 3584 1831 3584 
Q 2591 3584 2966 3190 
Q 3341 2797 3341 1997 
z
" transform="scale(0.015625)"/>
       <path id="DejaVuSans-67" d="M 2906 1791 
Q 2906 2416 2648 2759 
Q 2391 3103 1925 3103 
Q 1463 3103 1205 2759 
Q 947 2416 947 1791 
Q 947 1169 1205 825 
Q 1463 481 1925 481 
Q 2391 481 2648 825 
Q 2906 1169 2906 1791 
z
M 3481 434 
Q 3481 -459 3084 -895 
Q 2688 -1331 1869 -1331 
Q 1566 -1331 1297 -1286 
Q 1028 -1241 775 -1147 
L 775 -588 
Q 1028 -725 1275 -790 
Q 1522 -856 1778 -856 
Q 2344 -856 2625 -561 
Q 2906 -266 2906 331 
L 2906 616 
Q 2728 306 2450 153 
Q 2172 0 1784 0 
Q 1141 0 747 490 
Q 353 981 353 1791 
Q 353 2603 747 3093 
Q 1141 3584 1784 3584 
Q 2172 3584 2450 3431 
Q 2728 3278 2906 2969 
L 2906 3500 
L 3481 3500 
L 3481 434 
z
" transform="scale(0.015625)"/>
       <path id="DejaVuSans-65" d="M 3597 1894 
L 3597 1613 
L 953 1613 
Q 991 1019 1311 708 
Q 1631 397 2203 397 
Q 2534 397 2845 478 
Q 3156 559 3463 722 
L 3463 178 
Q 3153 47 2828 -22 
Q 2503 -91 2169 -91 
Q 1331 -91 842 396 
Q 353 884 353 1716 
Q 353 2575 817 3079 
Q 1281 3584 2069 3584 
Q 2775 3584 3186 3129 
Q 3597 2675 3597 1894 
z
M 3022 2063 
Q 3016 2534 2758 2815 
Q 2500 3097 2075 3097 
Q 1594 3097 1305 2825 
Q 1016 2553 972 2059 
L 3022 2063 
z
" transform="scale(0.015625)"/>
       <path id="DejaVuSans-29" d="M 513 4856 
L 1013 4856 
Q 1481 4119 1714 3412 
Q 1947 2706 1947 2009 
Q 1947 1309 1714 600 
Q 1481 -109 1013 -844 
L 513 -844 
Q 928 -128 1133 580 
Q 1338 1288 1338 2009 
Q 1338 2731 1133 3434 
Q 928 4138 513 4856 
z
" transform="scale(0.015625)"/>
      </defs>
      <use xlink:href="#DejaVuSans-43" transform="translate(0 0.015625)"/>
      <use xlink:href="#DejaVuSans-72" transform="translate(69.824219 0.015625)"/>
      <use xlink:href="#DejaVuSans-6f" transform="translate(110.9375 0.015625)"/>
      <use xlink:href="#DejaVuSans-73" transform="translate(172.119141 0.015625)"/>
      <use xlink:href="#DejaVuSans-73" transform="translate(224.21875 0.015625)"/>
      <use xlink:href="#DejaVuSans-20" transform="translate(276.318359 0.015625)"/>
      <use xlink:href="#DejaVuSans-45" transform="translate(308.105469 0.015625)"/>
      <use xlink:href="#DejaVuSans-6e" transform="translate(371.289062 0.015625)"/>
      <use xlink:href="#DejaVuSans-74" transform="translate(434.667969 0.015625)"/>
      <use xlink:href="#DejaVuSans-72" transform="translate(473.876953 0.015625)"/>
      <use xlink:href="#DejaVuSans-6f" transform="translate(514.990234 0.015625)"/>
      <use xlink:href="#DejaVuSans-70" transform="translate(576.171875 0.015625)"/>
      <use xlink:href="#DejaVuSans-79" transform="translate(639.648438 0.015625)"/>
      <use xlink:href="#DejaVuSans-20" transform="translate(698.828125 0.015625)"/>
      <use xlink:href="#DejaVuSans-4c" transform="translate(730.615234 0.015625)"/>
      <use xlink:href="#DejaVuSans-6f" transform="translate(786.328125 0.015625)"/>
      <use xlink:href="#DejaVuSans-73" transform="translate(847.509766 0.015625)"/>
      <use xlink:href="#DejaVuSans-73" transform="translate(899.609375 0.015625)"/>
      <use xlink:href="#DejaVuSans-20" transform="translate(951.708984 0.015625)"/>
      <use xlink:href="#DejaVuSans-28" transform="translate(983.496094 0.015625)"/>
      <use xlink:href="#DejaVuSans-Oblique-51" transform="translate(1022.509766 0.015625)"/>
      <use xlink:href="#DejaVuSans-32" transform="translate(1101.220703 -16.390625)scale(0.7)"/>
      <use xlink:href="#DejaVuSans-20" transform="translate(1148.491211 0.015625)"/>
      <use xlink:href="#DejaVuSans-77" transform="translate(1180.27832 0.015625)"/>
      <use xlink:href="#DejaVuSans-69" transform="translate(1262.06543 0.015625)"/>
      <use xlink:href="#DejaVuSans-74" transform="translate(1289.848633 0.015625)"/>
      <use xlink:href="#DejaVuSans-68" transform="translate(1329.057617 0.015625)"/>
      <use xlink:href="#DejaVuSans-20" transform="translate(1392.436523 0.015625)"/>
      <use xlink:href="#DejaVuSans-Oblique-51" transform="translate(1424.223633 0.015625)"/>
      <use xlink:href="#DejaVuSans-31" transform="translate(1502.93457 -16.390625)scale(0.7)"/>
      <use xlink:href="#DejaVuSans-2212" transform="translate(1569.6875 0.015625)"/>
      <use xlink:href="#DejaVuSans-Oblique-51" transform="translate(1672.958984 0.015625)"/>
      <use xlink:href="#DejaVuSans-33" transform="translate(1751.669922 -16.390625)scale(0.7)"/>
      <use xlink:href="#DejaVuSans-20" transform="translate(1798.94043 0.015625)"/>
      <use xlink:href="#DejaVuSans-72" transform="translate(1830.727539 0.015625)"/>
      <use xlink:href="#DejaVuSans-61" transform="translate(1871.84082 0.015625)"/>
      <use xlink:href="#DejaVuSans-6e" transform="translate(1933.120117 0.015625)"/>
      <use xlink:href="#DejaVuSans-67" transform="translate(1996.499023 0.015625)"/>
      <use xlink:href="#DejaVuSans-65" transform="translate(2059.975586 0.015625)"/>
      <use xlink:href="#DejaVuSans-29" transform="translate(2121.499023 0.015625)"/>
     </g>
    </g>
   </g>
   <g id="line2d_23">
    <path d="M 57.681818 134.015473 
L 62.378788 225.709676 
L 67.075758 255.961008 
L 71.772727 273.700256 
L 76.469697 285.264468 
L 81.166667 293.873759 
L 85.863636 299.383835 
L 90.560606 304.944475 
L 95.257576 308.830121 
L 99.954545 311.556442 
L 104.651515 314.39665 
L 109.348485 316.134283 
L 114.045455 315.960745 
L 118.742424 319.251885 
L 123.439394 320.425877 
L 128.136364 319.977207 
L 132.833333 322.483404 
L 137.530303 322.26232 
L 142.227273 322.983004 
L 146.924242 322.712596 
L 151.621212 324.432355 
L 156.318182 324.226647 
L 161.015152 324.42738 
L 165.712121 324.074 
L 170.409091 324.660341 
L 175.106061 324.087359 
L 179.80303 324.843389 
L 184.5 325.017855 
L 189.19697 325.209808 
L 193.893939 325.126669 
L 198.590909 323.748678 
" clip-path="url(#pbff4117cae)" style="fill: none; stroke: #1f77b4; stroke-width: 1.5; stroke-linecap: square"/>
   </g>
   <g id="line2d_24">
    <path d="M 57.681818 220.827354 
L 62.378788 287.514897 
L 67.075758 307.957401 
L 71.772727 317.345278 
L 76.469697 325.101307 
L 81.166667 330.909113 
L 85.863636 336.407685 
L 90.560606 339.304356 
L 95.257576 341.327638 
L 99.954545 342.716342 
L 104.651515 344.417287 
L 109.348485 347.126225 
L 114.045455 346.80486 
L 118.742424 348.391182 
L 123.439394 350.884084 
L 128.136364 350.274494 
L 132.833333 351.705229 
L 137.530303 351.486143 
L 142.227273 350.689484 
L 146.924242 351.550366 
L 151.621212 353.228626 
L 156.318182 353.247403 
L 161.015152 354.551036 
L 165.712121 353.404921 
L 170.409091 353.832901 
L 175.106061 353.637834 
L 179.80303 353.692687 
L 184.5 354.707201 
L 189.19697 354.345743 
L 193.893939 355.008862 
" clip-path="url(#pbff4117cae)" style="fill: none; stroke: #ff7f0e; stroke-width: 1.5; stroke-linecap: square"/>
   </g>
   <g id="line2d_25">
    <path d="M 57.681818 44.704073 
L 62.378788 131.137677 
L 67.075758 167.805892 
L 71.772727 190.190147 
L 76.469697 203.609818 
L 81.166667 213.79354 
L 85.863636 222.507695 
L 90.560606 227.615949 
L 95.257576 234.672697 
L 99.954545 239.886266 
L 104.651515 245.256603 
L 109.348485 246.953154 
L 114.045455 249.770043 
L 118.742424 254.142447 
L 123.439394 254.494735 
L 128.136364 254.698039 
L 132.833333 256.871617 
L 137.530303 260.683545 
L 142.227273 260.586691 
L 146.924242 260.594236 
L 151.621212 263.771071 
L 156.318182 263.603907 
L 161.015152 266.344685 
L 165.712121 266.213888 
L 170.409091 262.331136 
L 175.106061 268.295125 
L 179.80303 266.966493 
L 184.5 269.527512 
L 189.19697 267.605513 
L 193.893939 267.25364 
L 198.590909 268.04416 
L 203.287879 268.511418 
L 207.984848 268.583672 
L 212.681818 270.842087 
L 217.378788 266.503284 
" clip-path="url(#pbff4117cae)" style="fill: none; stroke: #2ca02c; stroke-width: 1.5; stroke-linecap: square"/>
   </g>
   <g id="line2d_26">
    <path d="M 57.681818 180.272893 
L 62.378788 262.012103 
L 67.075758 289.293554 
L 71.772727 303.659568 
L 76.469697 312.853662 
L 81.166667 319.203397 
L 85.863636 323.839164 
L 90.560606 326.523705 
L 95.257576 329.738785 
L 99.954545 332.32724 
L 104.651515 333.714178 
L 109.348485 335.002968 
L 114.045455 335.862619 
L 118.742424 337.982347 
L 123.439394 338.339373 
L 128.136364 339.141911 
L 132.833333 339.816891 
L 137.530303 340.594131 
L 142.227273 340.63897 
L 146.924242 340.401667 
L 151.621212 341.50742 
L 156.318182 340.550059 
L 161.015152 341.097519 
L 165.712121 341.657926 
L 170.409091 342.158613 
L 175.106061 341.841671 
L 179.80303 341.945979 
L 184.5 341.798284 
" clip-path="url(#pbff4117cae)" style="fill: none; stroke: #d62728; stroke-width: 1.5; stroke-linecap: square"/>
   </g>
   <g id="line2d_27">
    <path d="M 57.681818 224.184535 
L 62.378788 256.059539 
L 67.075758 268.992077 
L 71.772727 275.367527 
L 76.469697 280.748377 
L 81.166667 283.830703 
L 85.863636 285.136657 
L 90.560606 284.558816 
L 95.257576 288.257065 
L 99.954545 289.61854 
L 104.651515 289.841742 
L 109.348485 292.567187 
L 114.045455 291.393631 
L 118.742424 293.831391 
L 123.439394 288.906577 
L 128.136364 292.934699 
L 132.833333 290.172566 
L 137.530303 294.39371 
L 142.227273 291.853888 
L 146.924242 291.822135 
L 151.621212 291.27813 
" clip-path="url(#pbff4117cae)" style="fill: none; stroke-dasharray: 5.55,2.4; stroke-dashoffset: 0; stroke: #9467bd; stroke-width: 1.5"/>
   </g>
   <g id="line2d_28">
    <path d="M 57.681818 147.124513 
L 62.378788 232.860821 
L 67.075758 260.916033 
L 71.772727 273.212152 
L 76.469697 286.612245 
L 81.166667 293.764075 
L 85.863636 299.61568 
L 90.560606 298.476093 
L 95.257576 308.909613 
L 99.954545 309.218507 
L 104.651515 310.439931 
L 109.348485 310.218197 
L 114.045455 313.247239 
L 118.742424 317.650798 
L 123.439394 315.24063 
L 128.136364 318.659885 
L 132.833333 320.346398 
L 137.530303 317.171516 
L 142.227273 316.447606 
L 146.924242 321.607984 
L 151.621212 317.073109 
L 156.318182 317.69796 
L 161.015152 320.810851 
L 165.712121 318.195144 
L 170.409091 320.736747 
L 175.106061 321.65853 
" clip-path="url(#pbff4117cae)" style="fill: none; stroke-dasharray: 5.55,2.4; stroke-dashoffset: 0; stroke: #8c564b; stroke-width: 1.5"/>
   </g>
   <g id="line2d_29">
    <path d="M 59.589865 -1 
L 62.378788 96.1994 
L 67.075758 154.992771 
L 71.772727 185.612861 
L 76.469697 204.54823 
L 81.166667 221.234709 
L 85.863636 230.936707 
L 90.560606 238.60914 
L 95.257576 246.93774 
L 99.954545 251.693438 
L 104.651515 254.777298 
L 109.348485 258.35395 
L 114.045455 262.623116 
L 118.742424 265.183787 
L 123.439394 266.585888 
L 128.136364 268.032287 
L 132.833333 269.890333 
L 137.530303 270.063224 
L 142.227273 271.239507 
L 146.924242 273.836577 
L 151.621212 273.803649 
L 156.318182 275.502654 
L 161.015152 276.925602 
L 165.712121 276.822238 
L 170.409091 277.414193 
L 175.106061 277.604776 
L 179.80303 277.580412 
L 184.5 278.939078 
L 189.19697 278.759287 
L 193.893939 278.220187 
L 198.590909 278.587324 
L 203.287879 278.711961 
L 207.984848 279.306002 
L 212.681818 279.769671 
L 217.378788 281.070387 
L 222.075758 280.029672 
L 226.772727 279.562609 
" clip-path="url(#pbff4117cae)" style="fill: none; stroke-dasharray: 5.55,2.4; stroke-dashoffset: 0; stroke: #e377c2; stroke-width: 1.5"/>
   </g>
   <g id="line2d_30">
    <path d="M 57.681818 103.464502 
L 62.378788 223.515183 
L 67.075758 259.845466 
L 71.772727 279.256079 
L 76.469697 292.102839 
L 81.166667 301.117521 
L 85.863636 306.441278 
L 90.560606 312.563773 
L 95.257576 317.312431 
L 99.954545 320.103857 
L 104.651515 323.388237 
L 109.348485 325.72369 
L 114.045455 328.050589 
L 118.742424 329.822301 
L 123.439394 331.607123 
L 128.136364 331.553246 
L 132.833333 334.289486 
L 137.530303 336.015059 
L 142.227273 336.705718 
L 146.924242 338.174779 
L 151.621212 338.908501 
L 156.318182 338.901674 
L 161.015152 339.883215 
L 165.712121 340.625318 
L 170.409091 340.839249 
L 175.106061 342.079728 
L 179.80303 342.372798 
L 184.5 342.867543 
L 189.19697 342.911678 
L 193.893939 344.226951 
L 198.590909 343.139314 
L 203.287879 343.132922 
L 207.984848 345.078292 
L 212.681818 344.081461 
L 217.378788 344.642104 
L 222.075758 346.446076 
L 226.772727 346.003573 
L 231.469697 346.446092 
L 236.166667 346.184595 
L 240.863636 345.600333 
L 245.560606 346.740098 
L 250.257576 346.106727 
L 254.954545 347.666607 
L 259.651515 346.756046 
L 264.348485 347.906186 
L 269.045455 346.617825 
L 273.742424 347.287378 
L 278.439394 347.35585 
L 283.136364 347.664382 
L 287.833333 346.963508 
L 292.530303 347.248909 
L 297.227273 347.900171 
L 301.924242 346.925286 
L 306.621212 346.635834 
L 311.318182 346.755941 
" clip-path="url(#pbff4117cae)" style="fill: none; stroke-dasharray: 5.55,2.4; stroke-dashoffset: 0; stroke: #7f7f7f; stroke-width: 1.5"/>
   </g>
   <g id="patch_3">
    <path d="M 45 378 
L 45 51.84 
" style="fill: none; stroke: #000000; stroke-width: 0.8; stroke-linejoin: miter; stroke-linecap: square"/>
   </g>
   <g id="patch_4">
    <path d="M 324 378 
L 324 51.84 
" style="fill: none; stroke: #000000; stroke-width: 0.8; stroke-linejoin: miter; stroke-linecap: square"/>
   </g>
   <g id="patch_5">
    <path d="M 45 378 
L 324 378 
" style="fill: none; stroke: #000000; stroke-width: 0.8; stroke-linejoin: miter; stroke-linecap: square"/>
   </g>
   <g id="patch_6">
    <path d="M 45 51.84 
L 324 51.84 
" style="fill: none; stroke: #000000; stroke-width: 0.8; stroke-linejoin: miter; stroke-linecap: square"/>
   </g>
   <g id="legend_1">
    <g id="patch_7">
     <path d="M 200.907812 178.93375 
L 317 178.93375 
Q 319 178.93375 319 176.93375 
L 319 58.84 
Q 319 56.84 317 56.84 
L 200.907812 56.84 
Q 198.907812 56.84 198.907812 58.84 
L 198.907812 176.93375 
Q 198.907812 178.93375 200.907812 178.93375 
z
" style="fill: #ffffff; opacity: 0.8; stroke: #cccccc; stroke-linejoin: miter"/>
    </g>
    <g id="line2d_31">
     <path d="M 202.907812 64.938437 
L 212.907812 64.938437 
L 222.907812 64.938437 
" style="fill: none; stroke: #1f77b4; stroke-width: 1.5; stroke-linecap: square"/>
    </g>
    <g id="text_14">
     <!-- vit_b_16 -->
     <g transform="translate(230.907812 68.438437)scale(0.1 -0.1)">
      <defs>
       <path id="DejaVuSans-76" d="M 191 3500 
L 800 3500 
L 1894 563 
L 2988 3500 
L 3597 3500 
L 2284 0 
L 1503 0 
L 191 3500 
z
" transform="scale(0.015625)"/>
       <path id="DejaVuSans-5f" d="M 3263 -1063 
L 3263 -1509 
L -63 -1509 
L -63 -1063 
L 3263 -1063 
z
" transform="scale(0.015625)"/>
       <path id="DejaVuSans-62" d="M 3116 1747 
Q 3116 2381 2855 2742 
Q 2594 3103 2138 3103 
Q 1681 3103 1420 2742 
Q 1159 2381 1159 1747 
Q 1159 1113 1420 752 
Q 1681 391 2138 391 
Q 2594 391 2855 752 
Q 3116 1113 3116 1747 
z
M 1159 2969 
Q 1341 3281 1617 3432 
Q 1894 3584 2278 3584 
Q 2916 3584 3314 3078 
Q 3713 2572 3713 1747 
Q 3713 922 3314 415 
Q 2916 -91 2278 -91 
Q 1894 -91 1617 61 
Q 1341 213 1159 525 
L 1159 0 
L 581 0 
L 581 4863 
L 1159 4863 
L 1159 2969 
z
" transform="scale(0.015625)"/>
      </defs>
      <use xlink:href="#DejaVuSans-76"/>
      <use xlink:href="#DejaVuSans-69" x="59.179688"/>
      <use xlink:href="#DejaVuSans-74" x="86.962891"/>
      <use xlink:href="#DejaVuSans-5f" x="126.171875"/>
      <use xlink:href="#DejaVuSans-62" x="176.171875"/>
      <use xlink:href="#DejaVuSans-5f" x="239.648438"/>
      <use xlink:href="#DejaVuSans-31" x="289.648438"/>
      <use xlink:href="#DejaVuSans-36" x="353.271484"/>
     </g>
    </g>
    <g id="line2d_32">
     <path d="M 202.907812 79.894687 
L 212.907812 79.894687 
L 222.907812 79.894687 
" style="fill: none; stroke: #ff7f0e; stroke-width: 1.5; stroke-linecap: square"/>
    </g>
    <g id="text_15">
     <!-- swin_b -->
     <g transform="translate(230.907812 83.394687)scale(0.1 -0.1)">
      <use xlink:href="#DejaVuSans-73"/>
      <use xlink:href="#DejaVuSans-77" x="52.099609"/>
      <use xlink:href="#DejaVuSans-69" x="133.886719"/>
      <use xlink:href="#DejaVuSans-6e" x="161.669922"/>
      <use xlink:href="#DejaVuSans-5f" x="225.048828"/>
      <use xlink:href="#DejaVuSans-62" x="275.048828"/>
     </g>
    </g>
    <g id="line2d_33">
     <path d="M 202.907812 94.850937 
L 212.907812 94.850937 
L 222.907812 94.850937 
" style="fill: none; stroke: #2ca02c; stroke-width: 1.5; stroke-linecap: square"/>
    </g>
    <g id="text_16">
     <!-- beit_b_16 -->
     <g transform="translate(230.907812 98.350937)scale(0.1 -0.1)">
      <use xlink:href="#DejaVuSans-62"/>
      <use xlink:href="#DejaVuSans-65" x="63.476562"/>
      <use xlink:href="#DejaVuSans-69" x="125"/>
      <use xlink:href="#DejaVuSans-74" x="152.783203"/>
      <use xlink:href="#DejaVuSans-5f" x="191.992188"/>
      <use xlink:href="#DejaVuSans-62" x="241.992188"/>
      <use xlink:href="#DejaVuSans-5f" x="305.46875"/>
      <use xlink:href="#DejaVuSans-31" x="355.46875"/>
      <use xlink:href="#DejaVuSans-36" x="419.091797"/>
     </g>
    </g>
    <g id="line2d_34">
     <path d="M 202.907812 109.807187 
L 212.907812 109.807187 
L 222.907812 109.807187 
" style="fill: none; stroke: #d62728; stroke-width: 1.5; stroke-linecap: square"/>
    </g>
    <g id="text_17">
     <!-- deit_b_16 -->
     <g transform="translate(230.907812 113.307187)scale(0.1 -0.1)">
      <defs>
       <path id="DejaVuSans-64" d="M 2906 2969 
L 2906 4863 
L 3481 4863 
L 3481 0 
L 2906 0 
L 2906 525 
Q 2725 213 2448 61 
Q 2172 -91 1784 -91 
Q 1150 -91 751 415 
Q 353 922 353 1747 
Q 353 2572 751 3078 
Q 1150 3584 1784 3584 
Q 2172 3584 2448 3432 
Q 2725 3281 2906 2969 
z
M 947 1747 
Q 947 1113 1208 752 
Q 1469 391 1925 391 
Q 2381 391 2643 752 
Q 2906 1113 2906 1747 
Q 2906 2381 2643 2742 
Q 2381 3103 1925 3103 
Q 1469 3103 1208 2742 
Q 947 2381 947 1747 
z
" transform="scale(0.015625)"/>
      </defs>
      <use xlink:href="#DejaVuSans-64"/>
      <use xlink:href="#DejaVuSans-65" x="63.476562"/>
      <use xlink:href="#DejaVuSans-69" x="125"/>
      <use xlink:href="#DejaVuSans-74" x="152.783203"/>
      <use xlink:href="#DejaVuSans-5f" x="191.992188"/>
      <use xlink:href="#DejaVuSans-62" x="241.992188"/>
      <use xlink:href="#DejaVuSans-5f" x="305.46875"/>
      <use xlink:href="#DejaVuSans-31" x="355.46875"/>
      <use xlink:href="#DejaVuSans-36" x="419.091797"/>
     </g>
    </g>
    <g id="line2d_35">
     <path d="M 202.907812 124.763437 
L 212.907812 124.763437 
L 222.907812 124.763437 
" style="fill: none; stroke-dasharray: 5.55,2.4; stroke-dashoffset: 0; stroke: #9467bd; stroke-width: 1.5"/>
    </g>
    <g id="text_18">
     <!-- vgg19 -->
     <g transform="translate(230.907812 128.263437)scale(0.1 -0.1)">
      <defs>
       <path id="DejaVuSans-39" d="M 703 97 
L 703 672 
Q 941 559 1184 500 
Q 1428 441 1663 441 
Q 2288 441 2617 861 
Q 2947 1281 2994 2138 
Q 2813 1869 2534 1725 
Q 2256 1581 1919 1581 
Q 1219 1581 811 2004 
Q 403 2428 403 3163 
Q 403 3881 828 4315 
Q 1253 4750 1959 4750 
Q 2769 4750 3195 4129 
Q 3622 3509 3622 2328 
Q 3622 1225 3098 567 
Q 2575 -91 1691 -91 
Q 1453 -91 1209 -44 
Q 966 3 703 97 
z
M 1959 2075 
Q 2384 2075 2632 2365 
Q 2881 2656 2881 3163 
Q 2881 3666 2632 3958 
Q 2384 4250 1959 4250 
Q 1534 4250 1286 3958 
Q 1038 3666 1038 3163 
Q 1038 2656 1286 2365 
Q 1534 2075 1959 2075 
z
" transform="scale(0.015625)"/>
      </defs>
      <use xlink:href="#DejaVuSans-76"/>
      <use xlink:href="#DejaVuSans-67" x="59.179688"/>
      <use xlink:href="#DejaVuSans-67" x="122.65625"/>
      <use xlink:href="#DejaVuSans-31" x="186.132812"/>
      <use xlink:href="#DejaVuSans-39" x="249.755859"/>
     </g>
    </g>
    <g id="line2d_36">
     <path d="M 202.907812 139.441562 
L 212.907812 139.441562 
L 222.907812 139.441562 
" style="fill: none; stroke-dasharray: 5.55,2.4; stroke-dashoffset: 0; stroke: #8c564b; stroke-width: 1.5"/>
    </g>
    <g id="text_19">
     <!-- resnet50 -->
     <g transform="translate(230.907812 142.941562)scale(0.1 -0.1)">
      <use xlink:href="#DejaVuSans-72"/>
      <use xlink:href="#DejaVuSans-65" x="38.863281"/>
      <use xlink:href="#DejaVuSans-73" x="100.386719"/>
      <use xlink:href="#DejaVuSans-6e" x="152.486328"/>
      <use xlink:href="#DejaVuSans-65" x="215.865234"/>
      <use xlink:href="#DejaVuSans-74" x="277.388672"/>
      <use xlink:href="#DejaVuSans-35" x="316.597656"/>
      <use xlink:href="#DejaVuSans-30" x="380.220703"/>
     </g>
    </g>
    <g id="line2d_37">
     <path d="M 202.907812 154.119687 
L 212.907812 154.119687 
L 222.907812 154.119687 
" style="fill: none; stroke-dasharray: 5.55,2.4; stroke-dashoffset: 0; stroke: #e377c2; stroke-width: 1.5"/>
    </g>
    <g id="text_20">
     <!-- efficientnetv2_m -->
     <g transform="translate(230.907812 157.619687)scale(0.1 -0.1)">
      <defs>
       <path id="DejaVuSans-66" d="M 2375 4863 
L 2375 4384 
L 1825 4384 
Q 1516 4384 1395 4259 
Q 1275 4134 1275 3809 
L 1275 3500 
L 2222 3500 
L 2222 3053 
L 1275 3053 
L 1275 0 
L 697 0 
L 697 3053 
L 147 3053 
L 147 3500 
L 697 3500 
L 697 3744 
Q 697 4328 969 4595 
Q 1241 4863 1831 4863 
L 2375 4863 
z
" transform="scale(0.015625)"/>
       <path id="DejaVuSans-6d" d="M 3328 2828 
Q 3544 3216 3844 3400 
Q 4144 3584 4550 3584 
Q 5097 3584 5394 3201 
Q 5691 2819 5691 2113 
L 5691 0 
L 5113 0 
L 5113 2094 
Q 5113 2597 4934 2840 
Q 4756 3084 4391 3084 
Q 3944 3084 3684 2787 
Q 3425 2491 3425 1978 
L 3425 0 
L 2847 0 
L 2847 2094 
Q 2847 2600 2669 2842 
Q 2491 3084 2119 3084 
Q 1678 3084 1418 2786 
Q 1159 2488 1159 1978 
L 1159 0 
L 581 0 
L 581 3500 
L 1159 3500 
L 1159 2956 
Q 1356 3278 1631 3431 
Q 1906 3584 2284 3584 
Q 2666 3584 2933 3390 
Q 3200 3197 3328 2828 
z
" transform="scale(0.015625)"/>
      </defs>
      <use xlink:href="#DejaVuSans-65"/>
      <use xlink:href="#DejaVuSans-66" x="61.523438"/>
      <use xlink:href="#DejaVuSans-66" x="96.728516"/>
      <use xlink:href="#DejaVuSans-69" x="131.933594"/>
      <use xlink:href="#DejaVuSans-63" x="159.716797"/>
      <use xlink:href="#DejaVuSans-69" x="214.697266"/>
      <use xlink:href="#DejaVuSans-65" x="242.480469"/>
      <use xlink:href="#DejaVuSans-6e" x="304.003906"/>
      <use xlink:href="#DejaVuSans-74" x="367.382812"/>
      <use xlink:href="#DejaVuSans-6e" x="406.591797"/>
      <use xlink:href="#DejaVuSans-65" x="469.970703"/>
      <use xlink:href="#DejaVuSans-74" x="531.494141"/>
      <use xlink:href="#DejaVuSans-76" x="570.703125"/>
      <use xlink:href="#DejaVuSans-32" x="629.882812"/>
      <use xlink:href="#DejaVuSans-5f" x="693.505859"/>
      <use xlink:href="#DejaVuSans-6d" x="743.505859"/>
     </g>
    </g>
    <g id="line2d_38">
     <path d="M 202.907812 169.075937 
L 212.907812 169.075937 
L 222.907812 169.075937 
" style="fill: none; stroke-dasharray: 5.55,2.4; stroke-dashoffset: 0; stroke: #7f7f7f; stroke-width: 1.5"/>
    </g>
    <g id="text_21">
     <!-- convnext_b -->
     <g transform="translate(230.907812 172.575937)scale(0.1 -0.1)">
      <defs>
       <path id="DejaVuSans-78" d="M 3513 3500 
L 2247 1797 
L 3578 0 
L 2900 0 
L 1881 1375 
L 863 0 
L 184 0 
L 1544 1831 
L 300 3500 
L 978 3500 
L 1906 2253 
L 2834 3500 
L 3513 3500 
z
" transform="scale(0.015625)"/>
      </defs>
      <use xlink:href="#DejaVuSans-63"/>
      <use xlink:href="#DejaVuSans-6f" x="54.980469"/>
      <use xlink:href="#DejaVuSans-6e" x="116.162109"/>
      <use xlink:href="#DejaVuSans-76" x="179.541016"/>
      <use xlink:href="#DejaVuSans-6e" x="238.720703"/>
      <use xlink:href="#DejaVuSans-65" x="302.099609"/>
      <use xlink:href="#DejaVuSans-78" x="361.873047"/>
      <use xlink:href="#DejaVuSans-74" x="421.052734"/>
      <use xlink:href="#DejaVuSans-5f" x="460.261719"/>
      <use xlink:href="#DejaVuSans-62" x="510.261719"/>
     </g>
    </g>
   </g>
  </g>
 </g>
 <defs>
  <clipPath id="pbff4117cae">
   <rect x="45" y="51.84" width="279" height="326.16"/>
  </clipPath>
 </defs>
</svg>
