<?xml version="1.0" encoding="utf-8" standalone="no"?>
<!DOCTYPE svg PUBLIC "-//W3C//DTD SVG 1.1//EN"
  "http://www.w3.org/Graphics/SVG/1.1/DTD/svg11.dtd">
<svg xmlns:xlink="http://www.w3.org/1999/xlink" width="360pt" height="432pt" viewBox="0 0 360 432" xmlns="http://www.w3.org/2000/svg" version="1.1">
 <metadata>
  <rdf:RDF xmlns:dc="http://purl.org/dc/elements/1.1/" xmlns:cc="http://creativecommons.org/ns#" xmlns:rdf="http://www.w3.org/1999/02/22-rdf-syntax-ns#">
   <cc:Work>
    <dc:type rdf:resource="http://purl.org/dc/dcmitype/StillImage"/>
    <dc:date>2022-05-20T13:32:08.930942</dc:date>
    <dc:format>image/svg+xml</dc:format>
    <dc:creator>
     <cc:Agent>
      <dc:title>Matplotlib v3.5.2, https://matplotlib.org/</dc:title>
     </cc:Agent>
    </dc:creator>
   </cc:Work>
  </rdf:RDF>
 </metadata>
 <defs>
  <style type="text/css">*{stroke-linejoin: round; stroke-linecap: butt}</style>
 </defs>
 <g id="figure_1">
  <g id="patch_1">
   <path d="M 0 432 
L 360 432 
L 360 0 
L 0 0 
L 0 432 
z
" style="fill: none"/>
  </g>
  <g id="axes_1">
   <g id="patch_2">
    <path d="M 45 378 
L 324 378 
L 324 51.84 
L 45 51.84 
z
" style="fill: #ffffff"/>
   </g>
   <g id="PolyCollection_1">
    <path d="M 57.681818 277.434 
L 57.681818 310.05 
L 62.378788 210.843 
L 67.075758 183.663 
L 71.772727 161.919 
L 76.469697 149.688 
L 81.166667 148.329 
L 85.863636 134.739 
L 90.560606 129.303 
L 95.257576 125.226 
L 99.954545 126.585 
L 104.651515 126.585 
L 109.348485 127.944 
L 114.045455 126.585 
L 118.742424 111.636 
L 123.439394 115.713 
L 128.136364 121.149 
L 132.833333 117.072 
L 137.530303 122.508 
L 142.227273 110.277 
L 146.924242 114.354 
L 151.621212 111.636 
L 156.318182 118.431 
L 161.015152 114.354 
L 165.712121 111.636 
L 170.409091 114.354 
L 175.106061 121.149 
L 179.80303 111.636 
L 184.5 111.636 
L 189.19697 112.995 
L 193.893939 111.636 
L 198.590909 114.354 
L 198.590909 99.405 
L 198.590909 99.405 
L 193.893939 96.687 
L 189.19697 98.046 
L 184.5 93.969 
L 179.80303 98.046 
L 175.106061 98.046 
L 170.409091 93.969 
L 165.712121 95.328 
L 161.015152 92.61 
L 156.318182 98.046 
L 151.621212 100.764 
L 146.924242 98.046 
L 142.227273 95.328 
L 137.530303 108.918 
L 132.833333 93.969 
L 128.136364 89.892 
L 123.439394 104.841 
L 118.742424 106.2 
L 114.045455 104.841 
L 109.348485 96.687 
L 104.651515 96.687 
L 99.954545 106.2 
L 95.257576 107.559 
L 90.560606 110.277 
L 85.863636 110.277 
L 81.166667 130.662 
L 76.469697 138.816 
L 71.772727 142.893 
L 67.075758 161.919 
L 62.378788 198.612 
L 57.681818 277.434 
z
" clip-path="url(#p39eb9cc705)" style="fill: #1f77b4; fill-opacity: 0.2"/>
   </g>
   <g id="PolyCollection_2">
    <path d="M 57.681818 193.176 
L 57.681818 201.33 
L 62.378788 152.406 
L 67.075758 130.662 
L 71.772727 118.431 
L 76.469697 100.764 
L 81.166667 100.764 
L 85.863636 92.61 
L 90.560606 91.251 
L 95.257576 80.379 
L 99.954545 81.738 
L 104.651515 79.02 
L 109.348485 79.02 
L 114.045455 80.379 
L 118.742424 74.943 
L 123.439394 79.02 
L 128.136364 70.866 
L 132.833333 72.225 
L 137.530303 69.507 
L 142.227273 73.584 
L 146.924242 64.071 
L 151.621212 70.866 
L 156.318182 66.789 
L 161.015152 65.43 
L 165.712121 70.866 
L 170.409091 69.507 
L 175.106061 69.507 
L 179.80303 66.789 
L 184.5 62.712 
L 189.19697 69.507 
L 193.893939 65.43 
L 193.893939 51.84 
L 193.893939 51.84 
L 189.19697 55.917 
L 184.5 58.635 
L 179.80303 62.712 
L 175.106061 58.635 
L 170.409091 59.994 
L 165.712121 59.994 
L 161.015152 58.635 
L 156.318182 64.071 
L 151.621212 69.507 
L 146.924242 62.712 
L 142.227273 61.353 
L 137.530303 68.148 
L 132.833333 62.712 
L 128.136364 68.148 
L 123.439394 72.225 
L 118.742424 69.507 
L 114.045455 77.661 
L 109.348485 72.225 
L 104.651515 74.943 
L 99.954545 79.02 
L 95.257576 79.02 
L 90.560606 79.02 
L 85.863636 80.379 
L 81.166667 87.174 
L 76.469697 98.046 
L 71.772727 104.841 
L 67.075758 119.79 
L 62.378788 142.893 
L 57.681818 193.176 
z
" clip-path="url(#p39eb9cc705)" style="fill: #ff7f0e; fill-opacity: 0.2"/>
   </g>
   <g id="PolyCollection_3">
    <path d="M 57.681818 414.693 
L 57.681818 420.129 
L 62.378788 338.589 
L 67.075758 299.178 
L 71.772727 281.511 
L 76.469697 257.049 
L 81.166667 250.254 
L 85.863636 238.023 
L 90.560606 243.459 
L 95.257576 232.587 
L 99.954545 214.92 
L 104.651515 201.33 
L 109.348485 208.125 
L 114.045455 201.33 
L 118.742424 199.971 
L 123.439394 193.176 
L 128.136364 197.253 
L 132.833333 197.253 
L 137.530303 186.381 
L 142.227273 190.458 
L 146.924242 180.945 
L 151.621212 179.586 
L 156.318182 180.945 
L 161.015152 179.586 
L 165.712121 174.15 
L 170.409091 176.868 
L 175.106061 175.509 
L 179.80303 171.432 
L 184.5 171.432 
L 189.19697 175.509 
L 193.893939 170.073 
L 198.590909 174.15 
L 203.287879 174.15 
L 207.984848 171.432 
L 212.681818 165.996 
L 217.378788 163.278 
L 217.378788 161.919 
L 217.378788 161.919 
L 212.681818 156.483 
L 207.984848 165.996 
L 203.287879 165.996 
L 198.590909 167.355 
L 193.893939 163.278 
L 189.19697 167.355 
L 184.5 164.637 
L 179.80303 168.714 
L 175.106061 164.637 
L 170.409091 171.432 
L 165.712121 172.791 
L 161.015152 170.073 
L 156.318182 175.509 
L 151.621212 168.714 
L 146.924242 171.432 
L 142.227273 179.586 
L 137.530303 176.868 
L 132.833333 187.74 
L 128.136364 178.227 
L 123.439394 186.381 
L 118.742424 187.74 
L 114.045455 194.535 
L 109.348485 193.176 
L 104.651515 195.894 
L 99.954545 205.407 
L 95.257576 208.125 
L 90.560606 223.074 
L 85.863636 218.997 
L 81.166667 246.177 
L 76.469697 251.613 
L 71.772727 265.203 
L 67.075758 289.665 
L 62.378788 327.717 
L 57.681818 414.693 
z
" clip-path="url(#p39eb9cc705)" style="fill: #2ca02c; fill-opacity: 0.2"/>
   </g>
   <g id="PolyCollection_4">
    <path d="M 57.681818 235.305 
L 57.681818 254.331 
L 62.378788 164.637 
L 67.075758 148.329 
L 71.772727 126.585 
L 76.469697 115.713 
L 81.166667 111.636 
L 85.863636 98.046 
L 90.560606 100.764 
L 95.257576 96.687 
L 99.954545 99.405 
L 104.651515 99.405 
L 109.348485 93.969 
L 114.045455 92.61 
L 118.742424 96.687 
L 123.439394 98.046 
L 128.136364 99.405 
L 132.833333 92.61 
L 137.530303 98.046 
L 142.227273 98.046 
L 146.924242 96.687 
L 151.621212 91.251 
L 156.318182 93.969 
L 161.015152 87.174 
L 165.712121 98.046 
L 170.409091 95.328 
L 175.106061 87.174 
L 179.80303 91.251 
L 184.5 85.815 
L 184.5 72.225 
L 184.5 72.225 
L 179.80303 73.584 
L 175.106061 73.584 
L 170.409091 76.302 
L 165.712121 70.866 
L 161.015152 77.661 
L 156.318182 73.584 
L 151.621212 72.225 
L 146.924242 72.225 
L 142.227273 76.302 
L 137.530303 81.738 
L 132.833333 77.661 
L 128.136364 79.02 
L 123.439394 84.456 
L 118.742424 81.738 
L 114.045455 91.251 
L 109.348485 83.097 
L 104.651515 88.533 
L 99.954545 85.815 
L 95.257576 88.533 
L 90.560606 95.328 
L 85.863636 93.969 
L 81.166667 107.559 
L 76.469697 110.277 
L 71.772727 121.149 
L 67.075758 141.534 
L 62.378788 161.919 
L 57.681818 235.305 
z
" clip-path="url(#p39eb9cc705)" style="fill: #d62728; fill-opacity: 0.2"/>
   </g>
   <g id="PolyCollection_5">
    <path d="M 57.681818 235.305 
L 57.681818 239.382 
L 62.378788 205.407 
L 67.075758 193.176 
L 71.772727 186.381 
L 76.469697 183.663 
L 81.166667 176.868 
L 85.863636 168.714 
L 90.560606 172.791 
L 95.257576 163.278 
L 99.954545 167.355 
L 104.651515 167.355 
L 109.348485 156.483 
L 114.045455 163.278 
L 118.742424 165.996 
L 123.439394 160.56 
L 128.136364 159.201 
L 132.833333 160.56 
L 137.530303 159.201 
L 142.227273 153.765 
L 146.924242 167.355 
L 151.621212 161.919 
L 151.621212 142.893 
L 151.621212 142.893 
L 146.924242 145.611 
L 142.227273 148.329 
L 137.530303 146.97 
L 132.833333 149.688 
L 128.136364 156.483 
L 123.439394 152.406 
L 118.742424 146.97 
L 114.045455 151.047 
L 109.348485 155.124 
L 104.651515 156.483 
L 99.954545 159.201 
L 95.257576 160.56 
L 90.560606 151.047 
L 85.863636 160.56 
L 81.166667 164.637 
L 76.469697 172.791 
L 71.772727 175.509 
L 67.075758 182.304 
L 62.378788 194.535 
L 57.681818 235.305 
z
" clip-path="url(#p39eb9cc705)" style="fill: #9467bd; fill-opacity: 0.2"/>
   </g>
   <g id="PolyCollection_6">
    <path d="M 57.681818 262.485 
L 57.681818 266.562 
L 62.378788 210.843 
L 67.075758 174.15 
L 71.772727 164.637 
L 76.469697 152.406 
L 81.166667 151.047 
L 85.863636 144.252 
L 90.560606 140.175 
L 95.257576 145.611 
L 99.954545 137.457 
L 104.651515 137.457 
L 109.348485 122.508 
L 114.045455 126.585 
L 118.742424 130.662 
L 123.439394 127.944 
L 128.136364 119.79 
L 132.833333 122.508 
L 137.530303 121.149 
L 142.227273 126.585 
L 146.924242 125.226 
L 151.621212 125.226 
L 156.318182 121.149 
L 161.015152 125.226 
L 165.712121 125.226 
L 170.409091 121.149 
L 175.106061 123.867 
L 175.106061 104.841 
L 175.106061 104.841 
L 170.409091 110.277 
L 165.712121 119.79 
L 161.015152 108.918 
L 156.318182 104.841 
L 151.621212 112.995 
L 146.924242 110.277 
L 142.227273 111.636 
L 137.530303 117.072 
L 132.833333 108.918 
L 128.136364 99.405 
L 123.439394 115.713 
L 118.742424 108.918 
L 114.045455 121.149 
L 109.348485 115.713 
L 104.651515 118.431 
L 99.954545 119.79 
L 95.257576 121.149 
L 90.560606 133.38 
L 85.863636 127.944 
L 81.166667 132.021 
L 76.469697 144.252 
L 71.772727 151.047 
L 67.075758 163.278 
L 62.378788 187.74 
L 57.681818 262.485 
z
" clip-path="url(#p39eb9cc705)" style="fill: #8c564b; fill-opacity: 0.2"/>
   </g>
   <g id="PolyCollection_7">
    <path d="M 57.681818 286.947 
L 57.681818 319.563 
L 62.378788 271.998 
L 67.075758 239.382 
L 71.772727 217.638 
L 76.469697 209.484 
L 81.166667 190.458 
L 85.863636 187.74 
L 90.560606 180.945 
L 95.257576 186.381 
L 99.954545 175.509 
L 104.651515 178.227 
L 109.348485 178.227 
L 114.045455 167.355 
L 118.742424 168.714 
L 123.439394 168.714 
L 128.136364 170.073 
L 132.833333 167.355 
L 137.530303 164.637 
L 142.227273 167.355 
L 146.924242 159.201 
L 151.621212 168.714 
L 156.318182 167.355 
L 161.015152 163.278 
L 165.712121 170.073 
L 170.409091 161.919 
L 175.106061 161.919 
L 179.80303 161.919 
L 184.5 156.483 
L 189.19697 163.278 
L 193.893939 155.124 
L 198.590909 160.56 
L 203.287879 160.56 
L 207.984848 156.483 
L 212.681818 163.278 
L 217.378788 160.56 
L 222.075758 165.996 
L 226.772727 155.124 
L 226.772727 136.098 
L 226.772727 136.098 
L 222.075758 136.098 
L 217.378788 136.098 
L 212.681818 138.816 
L 207.984848 142.893 
L 203.287879 138.816 
L 198.590909 134.739 
L 193.893939 146.97 
L 189.19697 137.457 
L 184.5 142.893 
L 179.80303 142.893 
L 175.106061 141.534 
L 170.409091 137.457 
L 165.712121 148.329 
L 161.015152 141.534 
L 156.318182 145.611 
L 151.621212 141.534 
L 146.924242 148.329 
L 142.227273 151.047 
L 137.530303 152.406 
L 132.833333 153.765 
L 128.136364 153.765 
L 123.439394 153.765 
L 118.742424 153.765 
L 114.045455 159.201 
L 109.348485 160.56 
L 104.651515 164.637 
L 99.954545 170.073 
L 95.257576 175.509 
L 90.560606 175.509 
L 85.863636 179.586 
L 81.166667 186.381 
L 76.469697 195.894 
L 71.772727 205.407 
L 67.075758 224.433 
L 62.378788 246.177 
L 57.681818 286.947 
z
" clip-path="url(#p39eb9cc705)" style="fill: #e377c2; fill-opacity: 0.2"/>
   </g>
   <g id="PolyCollection_8">
    <path d="M 57.681818 278.793 
L 57.681818 296.46 
L 62.378788 190.458 
L 67.075758 165.996 
L 71.772727 153.765 
L 76.469697 140.175 
L 81.166667 129.303 
L 85.863636 133.38 
L 90.560606 122.508 
L 95.257576 118.431 
L 99.954545 118.431 
L 104.651515 118.431 
L 109.348485 114.354 
L 114.045455 108.918 
L 118.742424 102.123 
L 123.439394 99.405 
L 128.136364 99.405 
L 132.833333 98.046 
L 137.530303 93.969 
L 142.227273 102.123 
L 146.924242 88.533 
L 151.621212 93.969 
L 156.318182 91.251 
L 161.015152 92.61 
L 165.712121 88.533 
L 170.409091 85.815 
L 175.106061 85.815 
L 179.80303 85.815 
L 184.5 88.533 
L 189.19697 85.815 
L 193.893939 87.174 
L 198.590909 87.174 
L 203.287879 85.815 
L 207.984848 84.456 
L 212.681818 88.533 
L 217.378788 85.815 
L 222.075758 80.379 
L 226.772727 79.02 
L 231.469697 76.302 
L 236.166667 76.302 
L 240.863636 81.738 
L 245.560606 83.097 
L 250.257576 79.02 
L 254.954545 83.097 
L 259.651515 84.456 
L 264.348485 74.943 
L 269.045455 79.02 
L 273.742424 80.379 
L 278.439394 73.584 
L 283.136364 76.302 
L 287.833333 81.738 
L 292.530303 76.302 
L 297.227273 72.225 
L 301.924242 74.943 
L 306.621212 74.943 
L 311.318182 77.661 
L 311.318182 72.225 
L 311.318182 72.225 
L 306.621212 66.789 
L 301.924242 74.943 
L 297.227273 68.148 
L 292.530303 69.507 
L 287.833333 72.225 
L 283.136364 70.866 
L 278.439394 69.507 
L 273.742424 72.225 
L 269.045455 73.584 
L 264.348485 70.866 
L 259.651515 72.225 
L 254.954545 68.148 
L 250.257576 77.661 
L 245.560606 76.302 
L 240.863636 73.584 
L 236.166667 76.302 
L 231.469697 73.584 
L 226.772727 79.02 
L 222.075758 77.661 
L 217.378788 76.302 
L 212.681818 83.097 
L 207.984848 79.02 
L 203.287879 76.302 
L 198.590909 83.097 
L 193.893939 79.02 
L 189.19697 83.097 
L 184.5 80.379 
L 179.80303 80.379 
L 175.106061 80.379 
L 170.409091 79.02 
L 165.712121 81.738 
L 161.015152 87.174 
L 156.318182 81.738 
L 151.621212 84.456 
L 146.924242 87.174 
L 142.227273 88.533 
L 137.530303 88.533 
L 132.833333 96.687 
L 128.136364 96.687 
L 123.439394 98.046 
L 118.742424 93.969 
L 114.045455 104.841 
L 109.348485 100.764 
L 104.651515 110.277 
L 99.954545 112.995 
L 95.257576 117.072 
L 90.560606 118.431 
L 85.863636 126.585 
L 81.166667 126.585 
L 76.469697 129.303 
L 71.772727 141.534 
L 67.075758 159.201 
L 62.378788 185.022 
L 57.681818 278.793 
z
" clip-path="url(#p39eb9cc705)" style="fill: #7f7f7f; fill-opacity: 0.2"/>
   </g>
   <g id="matplotlib.axis_1">
    <g id="xtick_1">
     <g id="line2d_1">
      <path d="M 52.984848 378 
L 52.984848 51.84 
" clip-path="url(#p39eb9cc705)" style="fill: none; stroke: #b0b0b0; stroke-width: 0.8; stroke-linecap: square"/>
     </g>
     <g id="line2d_2">
      <defs>
       <path id="me3c3bf02b9" d="M 0 0 
L 0 3.5 
" style="stroke: #000000; stroke-width: 0.8"/>
      </defs>
      <g>
       <use xlink:href="#me3c3bf02b9" x="52.984848" y="378" style="stroke: #000000; stroke-width: 0.8"/>
      </g>
     </g>
     <g id="text_1">
      <!-- 0 -->
      <g transform="translate(49.803598 392.598437)scale(0.1 -0.1)">
       <defs>
        <path id="DejaVuSans-30" d="M 2034 4250 
Q 1547 4250 1301 3770 
Q 1056 3291 1056 2328 
Q 1056 1369 1301 889 
Q 1547 409 2034 409 
Q 2525 409 2770 889 
Q 3016 1369 3016 2328 
Q 3016 3291 2770 3770 
Q 2525 4250 2034 4250 
z
M 2034 4750 
Q 2819 4750 3233 4129 
Q 3647 3509 3647 2328 
Q 3647 1150 3233 529 
Q 2819 -91 2034 -91 
Q 1250 -91 836 529 
Q 422 1150 422 2328 
Q 422 3509 836 4129 
Q 1250 4750 2034 4750 
z
" transform="scale(0.015625)"/>
       </defs>
       <use xlink:href="#DejaVuSans-30"/>
      </g>
     </g>
    </g>
    <g id="xtick_2">
     <g id="line2d_3">
      <path d="M 99.954545 378 
L 99.954545 51.84 
" clip-path="url(#p39eb9cc705)" style="fill: none; stroke: #b0b0b0; stroke-width: 0.8; stroke-linecap: square"/>
     </g>
     <g id="line2d_4">
      <g>
       <use xlink:href="#me3c3bf02b9" x="99.954545" y="378" style="stroke: #000000; stroke-width: 0.8"/>
      </g>
     </g>
     <g id="text_2">
      <!-- 10 -->
      <g transform="translate(93.592045 392.598437)scale(0.1 -0.1)">
       <defs>
        <path id="DejaVuSans-31" d="M 794 531 
L 1825 531 
L 1825 4091 
L 703 3866 
L 703 4441 
L 1819 4666 
L 2450 4666 
L 2450 531 
L 3481 531 
L 3481 0 
L 794 0 
L 794 531 
z
" transform="scale(0.015625)"/>
       </defs>
       <use xlink:href="#DejaVuSans-31"/>
       <use xlink:href="#DejaVuSans-30" x="63.623047"/>
      </g>
     </g>
    </g>
    <g id="xtick_3">
     <g id="line2d_5">
      <path d="M 146.924242 378 
L 146.924242 51.84 
" clip-path="url(#p39eb9cc705)" style="fill: none; stroke: #b0b0b0; stroke-width: 0.8; stroke-linecap: square"/>
     </g>
     <g id="line2d_6">
      <g>
       <use xlink:href="#me3c3bf02b9" x="146.924242" y="378" style="stroke: #000000; stroke-width: 0.8"/>
      </g>
     </g>
     <g id="text_3">
      <!-- 20 -->
      <g transform="translate(140.561742 392.598437)scale(0.1 -0.1)">
       <defs>
        <path id="DejaVuSans-32" d="M 1228 531 
L 3431 531 
L 3431 0 
L 469 0 
L 469 531 
Q 828 903 1448 1529 
Q 2069 2156 2228 2338 
Q 2531 2678 2651 2914 
Q 2772 3150 2772 3378 
Q 2772 3750 2511 3984 
Q 2250 4219 1831 4219 
Q 1534 4219 1204 4116 
Q 875 4013 500 3803 
L 500 4441 
Q 881 4594 1212 4672 
Q 1544 4750 1819 4750 
Q 2544 4750 2975 4387 
Q 3406 4025 3406 3419 
Q 3406 3131 3298 2873 
Q 3191 2616 2906 2266 
Q 2828 2175 2409 1742 
Q 1991 1309 1228 531 
z
" transform="scale(0.015625)"/>
       </defs>
       <use xlink:href="#DejaVuSans-32"/>
       <use xlink:href="#DejaVuSans-30" x="63.623047"/>
      </g>
     </g>
    </g>
    <g id="xtick_4">
     <g id="line2d_7">
      <path d="M 193.893939 378 
L 193.893939 51.84 
" clip-path="url(#p39eb9cc705)" style="fill: none; stroke: #b0b0b0; stroke-width: 0.8; stroke-linecap: square"/>
     </g>
     <g id="line2d_8">
      <g>
       <use xlink:href="#me3c3bf02b9" x="193.893939" y="378" style="stroke: #000000; stroke-width: 0.8"/>
      </g>
     </g>
     <g id="text_4">
      <!-- 30 -->
      <g transform="translate(187.531439 392.598437)scale(0.1 -0.1)">
       <defs>
        <path id="DejaVuSans-33" d="M 2597 2516 
Q 3050 2419 3304 2112 
Q 3559 1806 3559 1356 
Q 3559 666 3084 287 
Q 2609 -91 1734 -91 
Q 1441 -91 1130 -33 
Q 819 25 488 141 
L 488 750 
Q 750 597 1062 519 
Q 1375 441 1716 441 
Q 2309 441 2620 675 
Q 2931 909 2931 1356 
Q 2931 1769 2642 2001 
Q 2353 2234 1838 2234 
L 1294 2234 
L 1294 2753 
L 1863 2753 
Q 2328 2753 2575 2939 
Q 2822 3125 2822 3475 
Q 2822 3834 2567 4026 
Q 2313 4219 1838 4219 
Q 1578 4219 1281 4162 
Q 984 4106 628 3988 
L 628 4550 
Q 988 4650 1302 4700 
Q 1616 4750 1894 4750 
Q 2613 4750 3031 4423 
Q 3450 4097 3450 3541 
Q 3450 3153 3228 2886 
Q 3006 2619 2597 2516 
z
" transform="scale(0.015625)"/>
       </defs>
       <use xlink:href="#DejaVuSans-33"/>
       <use xlink:href="#DejaVuSans-30" x="63.623047"/>
      </g>
     </g>
    </g>
    <g id="xtick_5">
     <g id="line2d_9">
      <path d="M 240.863636 378 
L 240.863636 51.84 
" clip-path="url(#p39eb9cc705)" style="fill: none; stroke: #b0b0b0; stroke-width: 0.8; stroke-linecap: square"/>
     </g>
     <g id="line2d_10">
      <g>
       <use xlink:href="#me3c3bf02b9" x="240.863636" y="378" style="stroke: #000000; stroke-width: 0.8"/>
      </g>
     </g>
     <g id="text_5">
      <!-- 40 -->
      <g transform="translate(234.501136 392.598437)scale(0.1 -0.1)">
       <defs>
        <path id="DejaVuSans-34" d="M 2419 4116 
L 825 1625 
L 2419 1625 
L 2419 4116 
z
M 2253 4666 
L 3047 4666 
L 3047 1625 
L 3713 1625 
L 3713 1100 
L 3047 1100 
L 3047 0 
L 2419 0 
L 2419 1100 
L 313 1100 
L 313 1709 
L 2253 4666 
z
" transform="scale(0.015625)"/>
       </defs>
       <use xlink:href="#DejaVuSans-34"/>
       <use xlink:href="#DejaVuSans-30" x="63.623047"/>
      </g>
     </g>
    </g>
    <g id="xtick_6">
     <g id="line2d_11">
      <path d="M 287.833333 378 
L 287.833333 51.84 
" clip-path="url(#p39eb9cc705)" style="fill: none; stroke: #b0b0b0; stroke-width: 0.8; stroke-linecap: square"/>
     </g>
     <g id="line2d_12">
      <g>
       <use xlink:href="#me3c3bf02b9" x="287.833333" y="378" style="stroke: #000000; stroke-width: 0.8"/>
      </g>
     </g>
     <g id="text_6">
      <!-- 50 -->
      <g transform="translate(281.470833 392.598437)scale(0.1 -0.1)">
       <defs>
        <path id="DejaVuSans-35" d="M 691 4666 
L 3169 4666 
L 3169 4134 
L 1269 4134 
L 1269 2991 
Q 1406 3038 1543 3061 
Q 1681 3084 1819 3084 
Q 2600 3084 3056 2656 
Q 3513 2228 3513 1497 
Q 3513 744 3044 326 
Q 2575 -91 1722 -91 
Q 1428 -91 1123 -41 
Q 819 9 494 109 
L 494 744 
Q 775 591 1075 516 
Q 1375 441 1709 441 
Q 2250 441 2565 725 
Q 2881 1009 2881 1497 
Q 2881 1984 2565 2268 
Q 2250 2553 1709 2553 
Q 1456 2553 1204 2497 
Q 953 2441 691 2322 
L 691 4666 
z
" transform="scale(0.015625)"/>
       </defs>
       <use xlink:href="#DejaVuSans-35"/>
       <use xlink:href="#DejaVuSans-30" x="63.623047"/>
      </g>
     </g>
    </g>
    <g id="text_7">
     <!-- Epochs -->
     <g transform="translate(166.584375 406.276563)scale(0.1 -0.1)">
      <defs>
       <path id="DejaVuSans-45" d="M 628 4666 
L 3578 4666 
L 3578 4134 
L 1259 4134 
L 1259 2753 
L 3481 2753 
L 3481 2222 
L 1259 2222 
L 1259 531 
L 3634 531 
L 3634 0 
L 628 0 
L 628 4666 
z
" transform="scale(0.015625)"/>
       <path id="DejaVuSans-70" d="M 1159 525 
L 1159 -1331 
L 581 -1331 
L 581 3500 
L 1159 3500 
L 1159 2969 
Q 1341 3281 1617 3432 
Q 1894 3584 2278 3584 
Q 2916 3584 3314 3078 
Q 3713 2572 3713 1747 
Q 3713 922 3314 415 
Q 2916 -91 2278 -91 
Q 1894 -91 1617 61 
Q 1341 213 1159 525 
z
M 3116 1747 
Q 3116 2381 2855 2742 
Q 2594 3103 2138 3103 
Q 1681 3103 1420 2742 
Q 1159 2381 1159 1747 
Q 1159 1113 1420 752 
Q 1681 391 2138 391 
Q 2594 391 2855 752 
Q 3116 1113 3116 1747 
z
" transform="scale(0.015625)"/>
       <path id="DejaVuSans-6f" d="M 1959 3097 
Q 1497 3097 1228 2736 
Q 959 2375 959 1747 
Q 959 1119 1226 758 
Q 1494 397 1959 397 
Q 2419 397 2687 759 
Q 2956 1122 2956 1747 
Q 2956 2369 2687 2733 
Q 2419 3097 1959 3097 
z
M 1959 3584 
Q 2709 3584 3137 3096 
Q 3566 2609 3566 1747 
Q 3566 888 3137 398 
Q 2709 -91 1959 -91 
Q 1206 -91 779 398 
Q 353 888 353 1747 
Q 353 2609 779 3096 
Q 1206 3584 1959 3584 
z
" transform="scale(0.015625)"/>
       <path id="DejaVuSans-63" d="M 3122 3366 
L 3122 2828 
Q 2878 2963 2633 3030 
Q 2388 3097 2138 3097 
Q 1578 3097 1268 2742 
Q 959 2388 959 1747 
Q 959 1106 1268 751 
Q 1578 397 2138 397 
Q 2388 397 2633 464 
Q 2878 531 3122 666 
L 3122 134 
Q 2881 22 2623 -34 
Q 2366 -91 2075 -91 
Q 1284 -91 818 406 
Q 353 903 353 1747 
Q 353 2603 823 3093 
Q 1294 3584 2113 3584 
Q 2378 3584 2631 3529 
Q 2884 3475 3122 3366 
z
" transform="scale(0.015625)"/>
       <path id="DejaVuSans-68" d="M 3513 2113 
L 3513 0 
L 2938 0 
L 2938 2094 
Q 2938 2591 2744 2837 
Q 2550 3084 2163 3084 
Q 1697 3084 1428 2787 
Q 1159 2491 1159 1978 
L 1159 0 
L 581 0 
L 581 4863 
L 1159 4863 
L 1159 2956 
Q 1366 3272 1645 3428 
Q 1925 3584 2291 3584 
Q 2894 3584 3203 3211 
Q 3513 2838 3513 2113 
z
" transform="scale(0.015625)"/>
       <path id="DejaVuSans-73" d="M 2834 3397 
L 2834 2853 
Q 2591 2978 2328 3040 
Q 2066 3103 1784 3103 
Q 1356 3103 1142 2972 
Q 928 2841 928 2578 
Q 928 2378 1081 2264 
Q 1234 2150 1697 2047 
L 1894 2003 
Q 2506 1872 2764 1633 
Q 3022 1394 3022 966 
Q 3022 478 2636 193 
Q 2250 -91 1575 -91 
Q 1294 -91 989 -36 
Q 684 19 347 128 
L 347 722 
Q 666 556 975 473 
Q 1284 391 1588 391 
Q 1994 391 2212 530 
Q 2431 669 2431 922 
Q 2431 1156 2273 1281 
Q 2116 1406 1581 1522 
L 1381 1569 
Q 847 1681 609 1914 
Q 372 2147 372 2553 
Q 372 3047 722 3315 
Q 1072 3584 1716 3584 
Q 2034 3584 2315 3537 
Q 2597 3491 2834 3397 
z
" transform="scale(0.015625)"/>
      </defs>
      <use xlink:href="#DejaVuSans-45"/>
      <use xlink:href="#DejaVuSans-70" x="63.183594"/>
      <use xlink:href="#DejaVuSans-6f" x="126.660156"/>
      <use xlink:href="#DejaVuSans-63" x="187.841797"/>
      <use xlink:href="#DejaVuSans-68" x="242.822266"/>
      <use xlink:href="#DejaVuSans-73" x="306.201172"/>
     </g>
    </g>
   </g>
   <g id="matplotlib.axis_2">
    <g id="ytick_1">
     <g id="line2d_13">
      <path d="M 45 378 
L 324 378 
" clip-path="url(#p39eb9cc705)" style="fill: none; stroke: #b0b0b0; stroke-width: 0.8; stroke-linecap: square"/>
     </g>
     <g id="line2d_14">
      <defs>
       <path id="m9a126f0b42" d="M 0 0 
L -3.5 0 
" style="stroke: #000000; stroke-width: 0.8"/>
      </defs>
      <g>
       <use xlink:href="#m9a126f0b42" x="45" y="378" style="stroke: #000000; stroke-width: 0.8"/>
      </g>
     </g>
     <g id="text_8">
      <!-- 0.65 -->
      <g transform="translate(15.734375 381.799219)scale(0.1 -0.1)">
       <defs>
        <path id="DejaVuSans-2e" d="M 684 794 
L 1344 794 
L 1344 0 
L 684 0 
L 684 794 
z
" transform="scale(0.015625)"/>
        <path id="DejaVuSans-36" d="M 2113 2584 
Q 1688 2584 1439 2293 
Q 1191 2003 1191 1497 
Q 1191 994 1439 701 
Q 1688 409 2113 409 
Q 2538 409 2786 701 
Q 3034 994 3034 1497 
Q 3034 2003 2786 2293 
Q 2538 2584 2113 2584 
z
M 3366 4563 
L 3366 3988 
Q 3128 4100 2886 4159 
Q 2644 4219 2406 4219 
Q 1781 4219 1451 3797 
Q 1122 3375 1075 2522 
Q 1259 2794 1537 2939 
Q 1816 3084 2150 3084 
Q 2853 3084 3261 2657 
Q 3669 2231 3669 1497 
Q 3669 778 3244 343 
Q 2819 -91 2113 -91 
Q 1303 -91 875 529 
Q 447 1150 447 2328 
Q 447 3434 972 4092 
Q 1497 4750 2381 4750 
Q 2619 4750 2861 4703 
Q 3103 4656 3366 4563 
z
" transform="scale(0.015625)"/>
       </defs>
       <use xlink:href="#DejaVuSans-30"/>
       <use xlink:href="#DejaVuSans-2e" x="63.623047"/>
       <use xlink:href="#DejaVuSans-36" x="95.410156"/>
       <use xlink:href="#DejaVuSans-35" x="159.033203"/>
      </g>
     </g>
    </g>
    <g id="ytick_2">
     <g id="line2d_15">
      <path d="M 45 312.768 
L 324 312.768 
" clip-path="url(#p39eb9cc705)" style="fill: none; stroke: #b0b0b0; stroke-width: 0.8; stroke-linecap: square"/>
     </g>
     <g id="line2d_16">
      <g>
       <use xlink:href="#m9a126f0b42" x="45" y="312.768" style="stroke: #000000; stroke-width: 0.8"/>
      </g>
     </g>
     <g id="text_9">
      <!-- 0.70 -->
      <g transform="translate(15.734375 316.567219)scale(0.1 -0.1)">
       <defs>
        <path id="DejaVuSans-37" d="M 525 4666 
L 3525 4666 
L 3525 4397 
L 1831 0 
L 1172 0 
L 2766 4134 
L 525 4134 
L 525 4666 
z
" transform="scale(0.015625)"/>
       </defs>
       <use xlink:href="#DejaVuSans-30"/>
       <use xlink:href="#DejaVuSans-2e" x="63.623047"/>
       <use xlink:href="#DejaVuSans-37" x="95.410156"/>
       <use xlink:href="#DejaVuSans-30" x="159.033203"/>
      </g>
     </g>
    </g>
    <g id="ytick_3">
     <g id="line2d_17">
      <path d="M 45 247.536 
L 324 247.536 
" clip-path="url(#p39eb9cc705)" style="fill: none; stroke: #b0b0b0; stroke-width: 0.8; stroke-linecap: square"/>
     </g>
     <g id="line2d_18">
      <g>
       <use xlink:href="#m9a126f0b42" x="45" y="247.536" style="stroke: #000000; stroke-width: 0.8"/>
      </g>
     </g>
     <g id="text_10">
      <!-- 0.75 -->
      <g transform="translate(15.734375 251.335219)scale(0.1 -0.1)">
       <use xlink:href="#DejaVuSans-30"/>
       <use xlink:href="#DejaVuSans-2e" x="63.623047"/>
       <use xlink:href="#DejaVuSans-37" x="95.410156"/>
       <use xlink:href="#DejaVuSans-35" x="159.033203"/>
      </g>
     </g>
    </g>
    <g id="ytick_4">
     <g id="line2d_19">
      <path d="M 45 182.304 
L 324 182.304 
" clip-path="url(#p39eb9cc705)" style="fill: none; stroke: #b0b0b0; stroke-width: 0.8; stroke-linecap: square"/>
     </g>
     <g id="line2d_20">
      <g>
       <use xlink:href="#m9a126f0b42" x="45" y="182.304" style="stroke: #000000; stroke-width: 0.8"/>
      </g>
     </g>
     <g id="text_11">
      <!-- 0.80 -->
      <g transform="translate(15.734375 186.103219)scale(0.1 -0.1)">
       <defs>
        <path id="DejaVuSans-38" d="M 2034 2216 
Q 1584 2216 1326 1975 
Q 1069 1734 1069 1313 
Q 1069 891 1326 650 
Q 1584 409 2034 409 
Q 2484 409 2743 651 
Q 3003 894 3003 1313 
Q 3003 1734 2745 1975 
Q 2488 2216 2034 2216 
z
M 1403 2484 
Q 997 2584 770 2862 
Q 544 3141 544 3541 
Q 544 4100 942 4425 
Q 1341 4750 2034 4750 
Q 2731 4750 3128 4425 
Q 3525 4100 3525 3541 
Q 3525 3141 3298 2862 
Q 3072 2584 2669 2484 
Q 3125 2378 3379 2068 
Q 3634 1759 3634 1313 
Q 3634 634 3220 271 
Q 2806 -91 2034 -91 
Q 1263 -91 848 271 
Q 434 634 434 1313 
Q 434 1759 690 2068 
Q 947 2378 1403 2484 
z
M 1172 3481 
Q 1172 3119 1398 2916 
Q 1625 2713 2034 2713 
Q 2441 2713 2670 2916 
Q 2900 3119 2900 3481 
Q 2900 3844 2670 4047 
Q 2441 4250 2034 4250 
Q 1625 4250 1398 4047 
Q 1172 3844 1172 3481 
z
" transform="scale(0.015625)"/>
       </defs>
       <use xlink:href="#DejaVuSans-30"/>
       <use xlink:href="#DejaVuSans-2e" x="63.623047"/>
       <use xlink:href="#DejaVuSans-38" x="95.410156"/>
       <use xlink:href="#DejaVuSans-30" x="159.033203"/>
      </g>
     </g>
    </g>
    <g id="ytick_5">
     <g id="line2d_21">
      <path d="M 45 117.072 
L 324 117.072 
" clip-path="url(#p39eb9cc705)" style="fill: none; stroke: #b0b0b0; stroke-width: 0.8; stroke-linecap: square"/>
     </g>
     <g id="line2d_22">
      <g>
       <use xlink:href="#m9a126f0b42" x="45" y="117.072" style="stroke: #000000; stroke-width: 0.8"/>
      </g>
     </g>
     <g id="text_12">
      <!-- 0.85 -->
      <g transform="translate(15.734375 120.871219)scale(0.1 -0.1)">
       <use xlink:href="#DejaVuSans-30"/>
       <use xlink:href="#DejaVuSans-2e" x="63.623047"/>
       <use xlink:href="#DejaVuSans-38" x="95.410156"/>
       <use xlink:href="#DejaVuSans-35" x="159.033203"/>
      </g>
     </g>
    </g>
    <g id="ytick_6">
     <g id="line2d_23">
      <path d="M 45 51.84 
L 324 51.84 
" clip-path="url(#p39eb9cc705)" style="fill: none; stroke: #b0b0b0; stroke-width: 0.8; stroke-linecap: square"/>
     </g>
     <g id="line2d_24">
      <g>
       <use xlink:href="#m9a126f0b42" x="45" y="51.84" style="stroke: #000000; stroke-width: 0.8"/>
      </g>
     </g>
     <g id="text_13">
      <!-- 0.90 -->
      <g transform="translate(15.734375 55.639219)scale(0.1 -0.1)">
       <defs>
        <path id="DejaVuSans-39" d="M 703 97 
L 703 672 
Q 941 559 1184 500 
Q 1428 441 1663 441 
Q 2288 441 2617 861 
Q 2947 1281 2994 2138 
Q 2813 1869 2534 1725 
Q 2256 1581 1919 1581 
Q 1219 1581 811 2004 
Q 403 2428 403 3163 
Q 403 3881 828 4315 
Q 1253 4750 1959 4750 
Q 2769 4750 3195 4129 
Q 3622 3509 3622 2328 
Q 3622 1225 3098 567 
Q 2575 -91 1691 -91 
Q 1453 -91 1209 -44 
Q 966 3 703 97 
z
M 1959 2075 
Q 2384 2075 2632 2365 
Q 2881 2656 2881 3163 
Q 2881 3666 2632 3958 
Q 2384 4250 1959 4250 
Q 1534 4250 1286 3958 
Q 1038 3666 1038 3163 
Q 1038 2656 1286 2365 
Q 1534 2075 1959 2075 
z
" transform="scale(0.015625)"/>
       </defs>
       <use xlink:href="#DejaVuSans-30"/>
       <use xlink:href="#DejaVuSans-2e" x="63.623047"/>
       <use xlink:href="#DejaVuSans-39" x="95.410156"/>
       <use xlink:href="#DejaVuSans-30" x="159.033203"/>
      </g>
     </g>
    </g>
    <g id="text_14">
     <!-- Accuracy ($Q_2$ with $Q_1 - Q_3$ range) -->
     <g transform="translate(9.634375 298.32)rotate(-90)scale(0.1 -0.1)">
      <defs>
       <path id="DejaVuSans-41" d="M 2188 4044 
L 1331 1722 
L 3047 1722 
L 2188 4044 
z
M 1831 4666 
L 2547 4666 
L 4325 0 
L 3669 0 
L 3244 1197 
L 1141 1197 
L 716 0 
L 50 0 
L 1831 4666 
z
" transform="scale(0.015625)"/>
       <path id="DejaVuSans-75" d="M 544 1381 
L 544 3500 
L 1119 3500 
L 1119 1403 
Q 1119 906 1312 657 
Q 1506 409 1894 409 
Q 2359 409 2629 706 
Q 2900 1003 2900 1516 
L 2900 3500 
L 3475 3500 
L 3475 0 
L 2900 0 
L 2900 538 
Q 2691 219 2414 64 
Q 2138 -91 1772 -91 
Q 1169 -91 856 284 
Q 544 659 544 1381 
z
M 1991 3584 
L 1991 3584 
z
" transform="scale(0.015625)"/>
       <path id="DejaVuSans-72" d="M 2631 2963 
Q 2534 3019 2420 3045 
Q 2306 3072 2169 3072 
Q 1681 3072 1420 2755 
Q 1159 2438 1159 1844 
L 1159 0 
L 581 0 
L 581 3500 
L 1159 3500 
L 1159 2956 
Q 1341 3275 1631 3429 
Q 1922 3584 2338 3584 
Q 2397 3584 2469 3576 
Q 2541 3569 2628 3553 
L 2631 2963 
z
" transform="scale(0.015625)"/>
       <path id="DejaVuSans-61" d="M 2194 1759 
Q 1497 1759 1228 1600 
Q 959 1441 959 1056 
Q 959 750 1161 570 
Q 1363 391 1709 391 
Q 2188 391 2477 730 
Q 2766 1069 2766 1631 
L 2766 1759 
L 2194 1759 
z
M 3341 1997 
L 3341 0 
L 2766 0 
L 2766 531 
Q 2569 213 2275 61 
Q 1981 -91 1556 -91 
Q 1019 -91 701 211 
Q 384 513 384 1019 
Q 384 1609 779 1909 
Q 1175 2209 1959 2209 
L 2766 2209 
L 2766 2266 
Q 2766 2663 2505 2880 
Q 2244 3097 1772 3097 
Q 1472 3097 1187 3025 
Q 903 2953 641 2809 
L 641 3341 
Q 956 3463 1253 3523 
Q 1550 3584 1831 3584 
Q 2591 3584 2966 3190 
Q 3341 2797 3341 1997 
z
" transform="scale(0.015625)"/>
       <path id="DejaVuSans-79" d="M 2059 -325 
Q 1816 -950 1584 -1140 
Q 1353 -1331 966 -1331 
L 506 -1331 
L 506 -850 
L 844 -850 
Q 1081 -850 1212 -737 
Q 1344 -625 1503 -206 
L 1606 56 
L 191 3500 
L 800 3500 
L 1894 763 
L 2988 3500 
L 3597 3500 
L 2059 -325 
z
" transform="scale(0.015625)"/>
       <path id="DejaVuSans-20" transform="scale(0.015625)"/>
       <path id="DejaVuSans-28" d="M 1984 4856 
Q 1566 4138 1362 3434 
Q 1159 2731 1159 2009 
Q 1159 1288 1364 580 
Q 1569 -128 1984 -844 
L 1484 -844 
Q 1016 -109 783 600 
Q 550 1309 550 2009 
Q 550 2706 781 3412 
Q 1013 4119 1484 4856 
L 1984 4856 
z
" transform="scale(0.015625)"/>
       <path id="DejaVuSans-Oblique-51" d="M 2309 -84 
Q 2275 -88 2237 -89 
Q 2200 -91 2125 -91 
Q 1250 -91 756 411 
Q 263 913 263 1797 
Q 263 2319 452 2844 
Q 641 3369 978 3788 
Q 1369 4269 1858 4509 
Q 2347 4750 2938 4750 
Q 3794 4750 4287 4245 
Q 4781 3741 4781 2869 
Q 4781 1928 4265 1147 
Q 3750 366 2919 44 
L 3553 -825 
L 2847 -825 
L 2309 -84 
z
M 2919 4238 
Q 2400 4238 2003 3986 
Q 1606 3734 1313 3219 
Q 1125 2891 1026 2522 
Q 928 2153 928 1778 
Q 928 1128 1239 775 
Q 1550 422 2119 422 
Q 2631 422 3032 676 
Q 3434 931 3719 1434 
Q 3909 1772 4009 2142 
Q 4109 2513 4109 2881 
Q 4109 3528 3796 3883 
Q 3484 4238 2919 4238 
z
" transform="scale(0.015625)"/>
       <path id="DejaVuSans-77" d="M 269 3500 
L 844 3500 
L 1563 769 
L 2278 3500 
L 2956 3500 
L 3675 769 
L 4391 3500 
L 4966 3500 
L 4050 0 
L 3372 0 
L 2619 2869 
L 1863 0 
L 1184 0 
L 269 3500 
z
" transform="scale(0.015625)"/>
       <path id="DejaVuSans-69" d="M 603 3500 
L 1178 3500 
L 1178 0 
L 603 0 
L 603 3500 
z
M 603 4863 
L 1178 4863 
L 1178 4134 
L 603 4134 
L 603 4863 
z
" transform="scale(0.015625)"/>
       <path id="DejaVuSans-74" d="M 1172 4494 
L 1172 3500 
L 2356 3500 
L 2356 3053 
L 1172 3053 
L 1172 1153 
Q 1172 725 1289 603 
Q 1406 481 1766 481 
L 2356 481 
L 2356 0 
L 1766 0 
Q 1100 0 847 248 
Q 594 497 594 1153 
L 594 3053 
L 172 3053 
L 172 3500 
L 594 3500 
L 594 4494 
L 1172 4494 
z
" transform="scale(0.015625)"/>
       <path id="DejaVuSans-2212" d="M 678 2272 
L 4684 2272 
L 4684 1741 
L 678 1741 
L 678 2272 
z
" transform="scale(0.015625)"/>
       <path id="DejaVuSans-6e" d="M 3513 2113 
L 3513 0 
L 2938 0 
L 2938 2094 
Q 2938 2591 2744 2837 
Q 2550 3084 2163 3084 
Q 1697 3084 1428 2787 
Q 1159 2491 1159 1978 
L 1159 0 
L 581 0 
L 581 3500 
L 1159 3500 
L 1159 2956 
Q 1366 3272 1645 3428 
Q 1925 3584 2291 3584 
Q 2894 3584 3203 3211 
Q 3513 2838 3513 2113 
z
" transform="scale(0.015625)"/>
       <path id="DejaVuSans-67" d="M 2906 1791 
Q 2906 2416 2648 2759 
Q 2391 3103 1925 3103 
Q 1463 3103 1205 2759 
Q 947 2416 947 1791 
Q 947 1169 1205 825 
Q 1463 481 1925 481 
Q 2391 481 2648 825 
Q 2906 1169 2906 1791 
z
M 3481 434 
Q 3481 -459 3084 -895 
Q 2688 -1331 1869 -1331 
Q 1566 -1331 1297 -1286 
Q 1028 -1241 775 -1147 
L 775 -588 
Q 1028 -725 1275 -790 
Q 1522 -856 1778 -856 
Q 2344 -856 2625 -561 
Q 2906 -266 2906 331 
L 2906 616 
Q 2728 306 2450 153 
Q 2172 0 1784 0 
Q 1141 0 747 490 
Q 353 981 353 1791 
Q 353 2603 747 3093 
Q 1141 3584 1784 3584 
Q 2172 3584 2450 3431 
Q 2728 3278 2906 2969 
L 2906 3500 
L 3481 3500 
L 3481 434 
z
" transform="scale(0.015625)"/>
       <path id="DejaVuSans-65" d="M 3597 1894 
L 3597 1613 
L 953 1613 
Q 991 1019 1311 708 
Q 1631 397 2203 397 
Q 2534 397 2845 478 
Q 3156 559 3463 722 
L 3463 178 
Q 3153 47 2828 -22 
Q 2503 -91 2169 -91 
Q 1331 -91 842 396 
Q 353 884 353 1716 
Q 353 2575 817 3079 
Q 1281 3584 2069 3584 
Q 2775 3584 3186 3129 
Q 3597 2675 3597 1894 
z
M 3022 2063 
Q 3016 2534 2758 2815 
Q 2500 3097 2075 3097 
Q 1594 3097 1305 2825 
Q 1016 2553 972 2059 
L 3022 2063 
z
" transform="scale(0.015625)"/>
       <path id="DejaVuSans-29" d="M 513 4856 
L 1013 4856 
Q 1481 4119 1714 3412 
Q 1947 2706 1947 2009 
Q 1947 1309 1714 600 
Q 1481 -109 1013 -844 
L 513 -844 
Q 928 -128 1133 580 
Q 1338 1288 1338 2009 
Q 1338 2731 1133 3434 
Q 928 4138 513 4856 
z
" transform="scale(0.015625)"/>
      </defs>
      <use xlink:href="#DejaVuSans-41" transform="translate(0 0.015625)"/>
      <use xlink:href="#DejaVuSans-63" transform="translate(68.408203 0.015625)"/>
      <use xlink:href="#DejaVuSans-63" transform="translate(123.388672 0.015625)"/>
      <use xlink:href="#DejaVuSans-75" transform="translate(178.369141 0.015625)"/>
      <use xlink:href="#DejaVuSans-72" transform="translate(241.748047 0.015625)"/>
      <use xlink:href="#DejaVuSans-61" transform="translate(282.861328 0.015625)"/>
      <use xlink:href="#DejaVuSans-63" transform="translate(344.140625 0.015625)"/>
      <use xlink:href="#DejaVuSans-79" transform="translate(399.121094 0.015625)"/>
      <use xlink:href="#DejaVuSans-20" transform="translate(458.300781 0.015625)"/>
      <use xlink:href="#DejaVuSans-28" transform="translate(490.087891 0.015625)"/>
      <use xlink:href="#DejaVuSans-Oblique-51" transform="translate(529.101562 0.015625)"/>
      <use xlink:href="#DejaVuSans-32" transform="translate(607.8125 -16.390625)scale(0.7)"/>
      <use xlink:href="#DejaVuSans-20" transform="translate(655.083008 0.015625)"/>
      <use xlink:href="#DejaVuSans-77" transform="translate(686.870117 0.015625)"/>
      <use xlink:href="#DejaVuSans-69" transform="translate(768.657227 0.015625)"/>
      <use xlink:href="#DejaVuSans-74" transform="translate(796.44043 0.015625)"/>
      <use xlink:href="#DejaVuSans-68" transform="translate(835.649414 0.015625)"/>
      <use xlink:href="#DejaVuSans-20" transform="translate(899.02832 0.015625)"/>
      <use xlink:href="#DejaVuSans-Oblique-51" transform="translate(930.81543 0.015625)"/>
      <use xlink:href="#DejaVuSans-31" transform="translate(1009.526367 -16.390625)scale(0.7)"/>
      <use xlink:href="#DejaVuSans-2212" transform="translate(1076.279297 0.015625)"/>
      <use xlink:href="#DejaVuSans-Oblique-51" transform="translate(1179.550781 0.015625)"/>
      <use xlink:href="#DejaVuSans-33" transform="translate(1258.261719 -16.390625)scale(0.7)"/>
      <use xlink:href="#DejaVuSans-20" transform="translate(1305.532227 0.015625)"/>
      <use xlink:href="#DejaVuSans-72" transform="translate(1337.319336 0.015625)"/>
      <use xlink:href="#DejaVuSans-61" transform="translate(1378.432617 0.015625)"/>
      <use xlink:href="#DejaVuSans-6e" transform="translate(1439.711914 0.015625)"/>
      <use xlink:href="#DejaVuSans-67" transform="translate(1503.09082 0.015625)"/>
      <use xlink:href="#DejaVuSans-65" transform="translate(1566.567383 0.015625)"/>
      <use xlink:href="#DejaVuSans-29" transform="translate(1628.09082 0.015625)"/>
     </g>
    </g>
   </g>
   <g id="line2d_25">
    <path d="M 57.681818 297.819 
L 62.378788 205.407 
L 67.075758 175.509 
L 71.772727 152.406 
L 76.469697 141.534 
L 81.166667 137.457 
L 85.863636 129.303 
L 90.560606 127.944 
L 95.257576 122.508 
L 99.954545 122.508 
L 104.651515 123.867 
L 109.348485 118.431 
L 114.045455 122.508 
L 118.742424 110.277 
L 123.439394 115.713 
L 128.136364 115.713 
L 132.833333 112.995 
L 137.530303 114.354 
L 142.227273 108.918 
L 146.924242 114.354 
L 151.621212 108.918 
L 156.318182 111.636 
L 161.015152 114.354 
L 165.712121 108.918 
L 170.409091 114.354 
L 175.106061 115.713 
L 179.80303 107.559 
L 184.5 110.277 
L 189.19697 112.995 
L 193.893939 110.277 
L 198.590909 112.995 
" clip-path="url(#p39eb9cc705)" style="fill: none; stroke: #1f77b4; stroke-width: 1.5; stroke-linecap: square"/>
   </g>
   <g id="line2d_26">
    <path d="M 57.681818 198.612 
L 62.378788 146.97 
L 67.075758 125.226 
L 71.772727 110.277 
L 76.469697 99.405 
L 81.166667 96.687 
L 85.863636 88.533 
L 90.560606 85.815 
L 95.257576 80.379 
L 99.954545 80.379 
L 104.651515 77.661 
L 109.348485 74.943 
L 114.045455 80.379 
L 118.742424 72.225 
L 123.439394 74.943 
L 128.136364 68.148 
L 132.833333 68.148 
L 137.530303 68.148 
L 142.227273 68.148 
L 146.924242 64.071 
L 151.621212 69.507 
L 156.318182 65.43 
L 161.015152 64.071 
L 165.712121 62.712 
L 170.409091 61.353 
L 175.106061 58.635 
L 179.80303 62.712 
L 184.5 61.353 
L 189.19697 55.917 
L 193.893939 64.071 
" clip-path="url(#p39eb9cc705)" style="fill: none; stroke: #ff7f0e; stroke-width: 1.5; stroke-linecap: square"/>
   </g>
   <g id="line2d_27">
    <path d="M 57.681818 417.411 
L 62.378788 330.435 
L 67.075758 296.46 
L 71.772727 273.357 
L 76.469697 255.69 
L 81.166667 247.536 
L 85.863636 235.305 
L 90.560606 225.792 
L 95.257576 224.433 
L 99.954545 206.766 
L 104.651515 199.971 
L 109.348485 194.535 
L 114.045455 195.894 
L 118.742424 190.458 
L 123.439394 193.176 
L 128.136364 190.458 
L 132.833333 189.099 
L 137.530303 180.945 
L 142.227273 187.74 
L 146.924242 175.509 
L 151.621212 172.791 
L 156.318182 178.227 
L 161.015152 176.868 
L 165.712121 172.791 
L 170.409091 174.15 
L 175.106061 170.073 
L 179.80303 168.714 
L 184.5 168.714 
L 189.19697 174.15 
L 193.893939 168.714 
L 198.590909 167.355 
L 203.287879 170.073 
L 207.984848 171.432 
L 212.681818 163.278 
L 217.378788 163.278 
" clip-path="url(#p39eb9cc705)" style="fill: none; stroke: #2ca02c; stroke-width: 1.5; stroke-linecap: square"/>
   </g>
   <g id="line2d_28">
    <path d="M 57.681818 247.536 
L 62.378788 163.278 
L 67.075758 142.893 
L 71.772727 125.226 
L 76.469697 111.636 
L 81.166667 110.277 
L 85.863636 96.687 
L 90.560606 96.687 
L 95.257576 88.533 
L 99.954545 88.533 
L 104.651515 88.533 
L 109.348485 88.533 
L 114.045455 91.251 
L 118.742424 83.097 
L 123.439394 87.174 
L 128.136364 80.379 
L 132.833333 80.379 
L 137.530303 83.097 
L 142.227273 80.379 
L 146.924242 77.661 
L 151.621212 79.02 
L 156.318182 80.379 
L 161.015152 77.661 
L 165.712121 79.02 
L 170.409091 79.02 
L 175.106061 80.379 
L 179.80303 77.661 
L 184.5 77.661 
" clip-path="url(#p39eb9cc705)" style="fill: none; stroke: #d62728; stroke-width: 1.5; stroke-linecap: square"/>
   </g>
   <g id="line2d_29">
    <path d="M 57.681818 236.664 
L 62.378788 195.894 
L 67.075758 185.022 
L 71.772727 182.304 
L 76.469697 175.509 
L 81.166667 165.996 
L 85.863636 161.919 
L 90.560606 159.201 
L 95.257576 163.278 
L 99.954545 161.919 
L 104.651515 163.278 
L 109.348485 156.483 
L 114.045455 163.278 
L 118.742424 163.278 
L 123.439394 159.201 
L 128.136364 159.201 
L 132.833333 160.56 
L 137.530303 152.406 
L 142.227273 148.329 
L 146.924242 155.124 
L 151.621212 152.406 
" clip-path="url(#p39eb9cc705)" style="fill: none; stroke-dasharray: 5.55,2.4; stroke-dashoffset: 0; stroke: #9467bd; stroke-width: 1.5"/>
   </g>
   <g id="line2d_30">
    <path d="M 57.681818 266.562 
L 62.378788 191.817 
L 67.075758 167.355 
L 71.772727 161.919 
L 76.469697 144.252 
L 81.166667 148.329 
L 85.863636 141.534 
L 90.560606 134.739 
L 95.257576 125.226 
L 99.954545 125.226 
L 104.651515 119.79 
L 109.348485 121.149 
L 114.045455 125.226 
L 118.742424 111.636 
L 123.439394 121.149 
L 128.136364 119.79 
L 132.833333 117.072 
L 137.530303 118.431 
L 142.227273 114.354 
L 146.924242 111.636 
L 151.621212 118.431 
L 156.318182 108.918 
L 161.015152 121.149 
L 165.712121 122.508 
L 170.409091 118.431 
L 175.106061 107.559 
" clip-path="url(#p39eb9cc705)" style="fill: none; stroke-dasharray: 5.55,2.4; stroke-dashoffset: 0; stroke: #8c564b; stroke-width: 1.5"/>
   </g>
   <g id="line2d_31">
    <path d="M 57.681818 300.537 
L 62.378788 259.767 
L 67.075758 231.228 
L 71.772727 208.125 
L 76.469697 199.971 
L 81.166667 189.099 
L 85.863636 187.74 
L 90.560606 180.945 
L 95.257576 183.663 
L 99.954545 172.791 
L 104.651515 168.714 
L 109.348485 160.56 
L 114.045455 161.919 
L 118.742424 159.201 
L 123.439394 160.56 
L 128.136364 159.201 
L 132.833333 153.765 
L 137.530303 153.765 
L 142.227273 152.406 
L 146.924242 149.688 
L 151.621212 146.97 
L 156.318182 146.97 
L 161.015152 146.97 
L 165.712121 148.329 
L 170.409091 145.611 
L 175.106061 142.893 
L 179.80303 145.611 
L 184.5 148.329 
L 189.19697 149.688 
L 193.893939 149.688 
L 198.590909 148.329 
L 203.287879 152.406 
L 207.984848 144.252 
L 212.681818 149.688 
L 217.378788 149.688 
L 222.075758 146.97 
L 226.772727 155.124 
" clip-path="url(#p39eb9cc705)" style="fill: none; stroke-dasharray: 5.55,2.4; stroke-dashoffset: 0; stroke: #e377c2; stroke-width: 1.5"/>
   </g>
   <g id="line2d_32">
    <path d="M 57.681818 289.665 
L 62.378788 187.74 
L 67.075758 164.637 
L 71.772727 153.765 
L 76.469697 133.38 
L 81.166667 127.944 
L 85.863636 133.38 
L 90.560606 118.431 
L 95.257576 117.072 
L 99.954545 112.995 
L 104.651515 111.636 
L 109.348485 104.841 
L 114.045455 106.2 
L 118.742424 99.405 
L 123.439394 98.046 
L 128.136364 98.046 
L 132.833333 98.046 
L 137.530303 92.61 
L 142.227273 89.892 
L 146.924242 88.533 
L 151.621212 85.815 
L 156.318182 84.456 
L 161.015152 88.533 
L 165.712121 88.533 
L 170.409091 84.456 
L 175.106061 84.456 
L 179.80303 81.738 
L 184.5 83.097 
L 189.19697 84.456 
L 193.893939 83.097 
L 198.590909 87.174 
L 203.287879 84.456 
L 207.984848 80.379 
L 212.681818 84.456 
L 217.378788 81.738 
L 222.075758 79.02 
L 226.772727 79.02 
L 231.469697 74.943 
L 236.166667 76.302 
L 240.863636 76.302 
L 245.560606 77.661 
L 250.257576 77.661 
L 254.954545 69.507 
L 259.651515 76.302 
L 264.348485 70.866 
L 269.045455 76.302 
L 273.742424 73.584 
L 278.439394 72.225 
L 283.136364 73.584 
L 287.833333 73.584 
L 292.530303 73.584 
L 297.227273 70.866 
L 301.924242 74.943 
L 306.621212 72.225 
L 311.318182 73.584 
" clip-path="url(#p39eb9cc705)" style="fill: none; stroke-dasharray: 5.55,2.4; stroke-dashoffset: 0; stroke: #7f7f7f; stroke-width: 1.5"/>
   </g>
   <g id="patch_3">
    <path d="M 45 378 
L 45 51.84 
" style="fill: none; stroke: #000000; stroke-width: 0.8; stroke-linejoin: miter; stroke-linecap: square"/>
   </g>
   <g id="patch_4">
    <path d="M 324 378 
L 324 51.84 
" style="fill: none; stroke: #000000; stroke-width: 0.8; stroke-linejoin: miter; stroke-linecap: square"/>
   </g>
   <g id="patch_5">
    <path d="M 45 378 
L 324 378 
" style="fill: none; stroke: #000000; stroke-width: 0.8; stroke-linejoin: miter; stroke-linecap: square"/>
   </g>
   <g id="patch_6">
    <path d="M 45 51.84 
L 324 51.84 
" style="fill: none; stroke: #000000; stroke-width: 0.8; stroke-linejoin: miter; stroke-linecap: square"/>
   </g>
   <g id="legend_1">
    <g id="patch_7">
     <path d="M 200.907812 373 
L 317 373 
Q 319 373 319 371 
L 319 252.90625 
Q 319 250.90625 317 250.90625 
L 200.907812 250.90625 
Q 198.907812 250.90625 198.907812 252.90625 
L 198.907812 371 
Q 198.907812 373 200.907812 373 
z
" style="fill: #ffffff; opacity: 0.8; stroke: #cccccc; stroke-linejoin: miter"/>
    </g>
    <g id="line2d_33">
     <path d="M 202.907812 259.004687 
L 212.907812 259.004687 
L 222.907812 259.004687 
" style="fill: none; stroke: #1f77b4; stroke-width: 1.5; stroke-linecap: square"/>
    </g>
    <g id="text_15">
     <!-- vit_b_16 -->
     <g transform="translate(230.907812 262.504687)scale(0.1 -0.1)">
      <defs>
       <path id="DejaVuSans-76" d="M 191 3500 
L 800 3500 
L 1894 563 
L 2988 3500 
L 3597 3500 
L 2284 0 
L 1503 0 
L 191 3500 
z
" transform="scale(0.015625)"/>
       <path id="DejaVuSans-5f" d="M 3263 -1063 
L 3263 -1509 
L -63 -1509 
L -63 -1063 
L 3263 -1063 
z
" transform="scale(0.015625)"/>
       <path id="DejaVuSans-62" d="M 3116 1747 
Q 3116 2381 2855 2742 
Q 2594 3103 2138 3103 
Q 1681 3103 1420 2742 
Q 1159 2381 1159 1747 
Q 1159 1113 1420 752 
Q 1681 391 2138 391 
Q 2594 391 2855 752 
Q 3116 1113 3116 1747 
z
M 1159 2969 
Q 1341 3281 1617 3432 
Q 1894 3584 2278 3584 
Q 2916 3584 3314 3078 
Q 3713 2572 3713 1747 
Q 3713 922 3314 415 
Q 2916 -91 2278 -91 
Q 1894 -91 1617 61 
Q 1341 213 1159 525 
L 1159 0 
L 581 0 
L 581 4863 
L 1159 4863 
L 1159 2969 
z
" transform="scale(0.015625)"/>
      </defs>
      <use xlink:href="#DejaVuSans-76"/>
      <use xlink:href="#DejaVuSans-69" x="59.179688"/>
      <use xlink:href="#DejaVuSans-74" x="86.962891"/>
      <use xlink:href="#DejaVuSans-5f" x="126.171875"/>
      <use xlink:href="#DejaVuSans-62" x="176.171875"/>
      <use xlink:href="#DejaVuSans-5f" x="239.648438"/>
      <use xlink:href="#DejaVuSans-31" x="289.648438"/>
      <use xlink:href="#DejaVuSans-36" x="353.271484"/>
     </g>
    </g>
    <g id="line2d_34">
     <path d="M 202.907812 273.960938 
L 212.907812 273.960938 
L 222.907812 273.960938 
" style="fill: none; stroke: #ff7f0e; stroke-width: 1.5; stroke-linecap: square"/>
    </g>
    <g id="text_16">
     <!-- swin_b -->
     <g transform="translate(230.907812 277.460938)scale(0.1 -0.1)">
      <use xlink:href="#DejaVuSans-73"/>
      <use xlink:href="#DejaVuSans-77" x="52.099609"/>
      <use xlink:href="#DejaVuSans-69" x="133.886719"/>
      <use xlink:href="#DejaVuSans-6e" x="161.669922"/>
      <use xlink:href="#DejaVuSans-5f" x="225.048828"/>
      <use xlink:href="#DejaVuSans-62" x="275.048828"/>
     </g>
    </g>
    <g id="line2d_35">
     <path d="M 202.907812 288.917188 
L 212.907812 288.917188 
L 222.907812 288.917188 
" style="fill: none; stroke: #2ca02c; stroke-width: 1.5; stroke-linecap: square"/>
    </g>
    <g id="text_17">
     <!-- beit_b_16 -->
     <g transform="translate(230.907812 292.417188)scale(0.1 -0.1)">
      <use xlink:href="#DejaVuSans-62"/>
      <use xlink:href="#DejaVuSans-65" x="63.476562"/>
      <use xlink:href="#DejaVuSans-69" x="125"/>
      <use xlink:href="#DejaVuSans-74" x="152.783203"/>
      <use xlink:href="#DejaVuSans-5f" x="191.992188"/>
      <use xlink:href="#DejaVuSans-62" x="241.992188"/>
      <use xlink:href="#DejaVuSans-5f" x="305.46875"/>
      <use xlink:href="#DejaVuSans-31" x="355.46875"/>
      <use xlink:href="#DejaVuSans-36" x="419.091797"/>
     </g>
    </g>
    <g id="line2d_36">
     <path d="M 202.907812 303.873438 
L 212.907812 303.873438 
L 222.907812 303.873438 
" style="fill: none; stroke: #d62728; stroke-width: 1.5; stroke-linecap: square"/>
    </g>
    <g id="text_18">
     <!-- deit_b_16 -->
     <g transform="translate(230.907812 307.373438)scale(0.1 -0.1)">
      <defs>
       <path id="DejaVuSans-64" d="M 2906 2969 
L 2906 4863 
L 3481 4863 
L 3481 0 
L 2906 0 
L 2906 525 
Q 2725 213 2448 61 
Q 2172 -91 1784 -91 
Q 1150 -91 751 415 
Q 353 922 353 1747 
Q 353 2572 751 3078 
Q 1150 3584 1784 3584 
Q 2172 3584 2448 3432 
Q 2725 3281 2906 2969 
z
M 947 1747 
Q 947 1113 1208 752 
Q 1469 391 1925 391 
Q 2381 391 2643 752 
Q 2906 1113 2906 1747 
Q 2906 2381 2643 2742 
Q 2381 3103 1925 3103 
Q 1469 3103 1208 2742 
Q 947 2381 947 1747 
z
" transform="scale(0.015625)"/>
      </defs>
      <use xlink:href="#DejaVuSans-64"/>
      <use xlink:href="#DejaVuSans-65" x="63.476562"/>
      <use xlink:href="#DejaVuSans-69" x="125"/>
      <use xlink:href="#DejaVuSans-74" x="152.783203"/>
      <use xlink:href="#DejaVuSans-5f" x="191.992188"/>
      <use xlink:href="#DejaVuSans-62" x="241.992188"/>
      <use xlink:href="#DejaVuSans-5f" x="305.46875"/>
      <use xlink:href="#DejaVuSans-31" x="355.46875"/>
      <use xlink:href="#DejaVuSans-36" x="419.091797"/>
     </g>
    </g>
    <g id="line2d_37">
     <path d="M 202.907812 318.829687 
L 212.907812 318.829687 
L 222.907812 318.829687 
" style="fill: none; stroke-dasharray: 5.55,2.4; stroke-dashoffset: 0; stroke: #9467bd; stroke-width: 1.5"/>
    </g>
    <g id="text_19">
     <!-- vgg19 -->
     <g transform="translate(230.907812 322.329687)scale(0.1 -0.1)">
      <use xlink:href="#DejaVuSans-76"/>
      <use xlink:href="#DejaVuSans-67" x="59.179688"/>
      <use xlink:href="#DejaVuSans-67" x="122.65625"/>
      <use xlink:href="#DejaVuSans-31" x="186.132812"/>
      <use xlink:href="#DejaVuSans-39" x="249.755859"/>
     </g>
    </g>
    <g id="line2d_38">
     <path d="M 202.907812 333.507812 
L 212.907812 333.507812 
L 222.907812 333.507812 
" style="fill: none; stroke-dasharray: 5.55,2.4; stroke-dashoffset: 0; stroke: #8c564b; stroke-width: 1.5"/>
    </g>
    <g id="text_20">
     <!-- resnet50 -->
     <g transform="translate(230.907812 337.007812)scale(0.1 -0.1)">
      <use xlink:href="#DejaVuSans-72"/>
      <use xlink:href="#DejaVuSans-65" x="38.863281"/>
      <use xlink:href="#DejaVuSans-73" x="100.386719"/>
      <use xlink:href="#DejaVuSans-6e" x="152.486328"/>
      <use xlink:href="#DejaVuSans-65" x="215.865234"/>
      <use xlink:href="#DejaVuSans-74" x="277.388672"/>
      <use xlink:href="#DejaVuSans-35" x="316.597656"/>
      <use xlink:href="#DejaVuSans-30" x="380.220703"/>
     </g>
    </g>
    <g id="line2d_39">
     <path d="M 202.907812 348.185938 
L 212.907812 348.185938 
L 222.907812 348.185938 
" style="fill: none; stroke-dasharray: 5.55,2.4; stroke-dashoffset: 0; stroke: #e377c2; stroke-width: 1.5"/>
    </g>
    <g id="text_21">
     <!-- efficientnetv2_m -->
     <g transform="translate(230.907812 351.685938)scale(0.1 -0.1)">
      <defs>
       <path id="DejaVuSans-66" d="M 2375 4863 
L 2375 4384 
L 1825 4384 
Q 1516 4384 1395 4259 
Q 1275 4134 1275 3809 
L 1275 3500 
L 2222 3500 
L 2222 3053 
L 1275 3053 
L 1275 0 
L 697 0 
L 697 3053 
L 147 3053 
L 147 3500 
L 697 3500 
L 697 3744 
Q 697 4328 969 4595 
Q 1241 4863 1831 4863 
L 2375 4863 
z
" transform="scale(0.015625)"/>
       <path id="DejaVuSans-6d" d="M 3328 2828 
Q 3544 3216 3844 3400 
Q 4144 3584 4550 3584 
Q 5097 3584 5394 3201 
Q 5691 2819 5691 2113 
L 5691 0 
L 5113 0 
L 5113 2094 
Q 5113 2597 4934 2840 
Q 4756 3084 4391 3084 
Q 3944 3084 3684 2787 
Q 3425 2491 3425 1978 
L 3425 0 
L 2847 0 
L 2847 2094 
Q 2847 2600 2669 2842 
Q 2491 3084 2119 3084 
Q 1678 3084 1418 2786 
Q 1159 2488 1159 1978 
L 1159 0 
L 581 0 
L 581 3500 
L 1159 3500 
L 1159 2956 
Q 1356 3278 1631 3431 
Q 1906 3584 2284 3584 
Q 2666 3584 2933 3390 
Q 3200 3197 3328 2828 
z
" transform="scale(0.015625)"/>
      </defs>
      <use xlink:href="#DejaVuSans-65"/>
      <use xlink:href="#DejaVuSans-66" x="61.523438"/>
      <use xlink:href="#DejaVuSans-66" x="96.728516"/>
      <use xlink:href="#DejaVuSans-69" x="131.933594"/>
      <use xlink:href="#DejaVuSans-63" x="159.716797"/>
      <use xlink:href="#DejaVuSans-69" x="214.697266"/>
      <use xlink:href="#DejaVuSans-65" x="242.480469"/>
      <use xlink:href="#DejaVuSans-6e" x="304.003906"/>
      <use xlink:href="#DejaVuSans-74" x="367.382812"/>
      <use xlink:href="#DejaVuSans-6e" x="406.591797"/>
      <use xlink:href="#DejaVuSans-65" x="469.970703"/>
      <use xlink:href="#DejaVuSans-74" x="531.494141"/>
      <use xlink:href="#DejaVuSans-76" x="570.703125"/>
      <use xlink:href="#DejaVuSans-32" x="629.882812"/>
      <use xlink:href="#DejaVuSans-5f" x="693.505859"/>
      <use xlink:href="#DejaVuSans-6d" x="743.505859"/>
     </g>
    </g>
    <g id="line2d_40">
     <path d="M 202.907812 363.142187 
L 212.907812 363.142187 
L 222.907812 363.142187 
" style="fill: none; stroke-dasharray: 5.55,2.4; stroke-dashoffset: 0; stroke: #7f7f7f; stroke-width: 1.5"/>
    </g>
    <g id="text_22">
     <!-- convnext_b -->
     <g transform="translate(230.907812 366.642187)scale(0.1 -0.1)">
      <defs>
       <path id="DejaVuSans-78" d="M 3513 3500 
L 2247 1797 
L 3578 0 
L 2900 0 
L 1881 1375 
L 863 0 
L 184 0 
L 1544 1831 
L 300 3500 
L 978 3500 
L 1906 2253 
L 2834 3500 
L 3513 3500 
z
" transform="scale(0.015625)"/>
      </defs>
      <use xlink:href="#DejaVuSans-63"/>
      <use xlink:href="#DejaVuSans-6f" x="54.980469"/>
      <use xlink:href="#DejaVuSans-6e" x="116.162109"/>
      <use xlink:href="#DejaVuSans-76" x="179.541016"/>
      <use xlink:href="#DejaVuSans-6e" x="238.720703"/>
      <use xlink:href="#DejaVuSans-65" x="302.099609"/>
      <use xlink:href="#DejaVuSans-78" x="361.873047"/>
      <use xlink:href="#DejaVuSans-74" x="421.052734"/>
      <use xlink:href="#DejaVuSans-5f" x="460.261719"/>
      <use xlink:href="#DejaVuSans-62" x="510.261719"/>
     </g>
    </g>
   </g>
  </g>
 </g>
 <defs>
  <clipPath id="p39eb9cc705">
   <rect x="45" y="51.84" width="279" height="326.16"/>
  </clipPath>
 </defs>
</svg>
