<?xml version="1.0" encoding="utf-8" standalone="no"?>
<!DOCTYPE svg PUBLIC "-//W3C//DTD SVG 1.1//EN"
  "http://www.w3.org/Graphics/SVG/1.1/DTD/svg11.dtd">
<svg xmlns:xlink="http://www.w3.org/1999/xlink" width="288pt" height="324pt" viewBox="0 0 288 324" xmlns="http://www.w3.org/2000/svg" version="1.1">
 <metadata>
  <rdf:RDF xmlns:dc="http://purl.org/dc/elements/1.1/" xmlns:cc="http://creativecommons.org/ns#" xmlns:rdf="http://www.w3.org/1999/02/22-rdf-syntax-ns#">
   <cc:Work>
    <dc:type rdf:resource="http://purl.org/dc/dcmitype/StillImage"/>
    <dc:date>2022-06-07T15:10:34.093519</dc:date>
    <dc:format>image/svg+xml</dc:format>
    <dc:creator>
     <cc:Agent>
      <dc:title>Matplotlib v3.5.2, https://matplotlib.org/</dc:title>
     </cc:Agent>
    </dc:creator>
   </cc:Work>
  </rdf:RDF>
 </metadata>
 <defs>
  <style type="text/css">*{stroke-linejoin: round; stroke-linecap: butt}</style>
 </defs>
 <g id="figure_1">
  <g id="patch_1">
   <path d="M 0 324 
L 288 324 
L 288 0 
L 0 0 
L 0 324 
z
" style="fill: none"/>
  </g>
  <g id="axes_1">
   <g id="patch_2">
    <path d="M 36 283.5 
L 259.2 283.5 
L 259.2 38.88 
L 36 38.88 
z
" style="fill: #ffffff"/>
   </g>
   <g id="PolyCollection_1">
    <path d="M 46.145455 203.021207 
L 46.145455 208.025682 
L 54.261818 192.600086 
L 62.378182 177.292571 
L 70.494545 176.25136 
L 78.610909 170.42973 
L 86.727273 174.580828 
L 94.843636 164.447289 
L 102.96 164.417093 
L 111.076364 164.29544 
L 119.192727 161.467942 
L 127.309091 157.394451 
L 135.425455 147.528825 
L 143.541818 146.705303 
L 151.658182 146.618887 
L 159.774545 145.674877 
L 167.890909 145.674877 
L 167.890909 136.668773 
L 167.890909 136.668773 
L 159.774545 136.668773 
L 151.658182 139.078594 
L 143.541818 138.992177 
L 135.425455 138.168656 
L 127.309091 141.299122 
L 119.192727 146.448665 
L 111.076364 151.586514 
L 102.96 159.430208 
L 94.843636 156.46541 
L 86.727273 158.908735 
L 78.610909 160.544461 
L 70.494545 170.234295 
L 62.378182 162.485424 
L 54.261818 184.070042 
L 46.145455 203.021207 
z
" clip-path="url(#p7c6be27b28)" style="fill: #1f77b4; fill-opacity: 0.2"/>
   </g>
   <g id="PolyCollection_2">
    <path d="M 46.145455 171.12709 
L 46.145455 177.873939 
L 54.261818 166.576587 
L 62.378182 148.839534 
L 70.494545 140.72916 
L 78.610909 140.136803 
L 86.727273 135.621069 
L 94.843636 135.190617 
L 102.96 148.54992 
L 111.076364 140.057282 
L 119.192727 140.608233 
L 127.309091 130.771394 
L 135.425455 126.033839 
L 143.541818 125.911133 
L 151.658182 129.456662 
L 159.774545 129.92964 
L 167.890909 123.291784 
L 176.007273 122.74584 
L 184.123636 122.323937 
L 192.24 122.302159 
L 200.356364 121.853708 
L 208.472727 121.496481 
L 216.589091 121.167393 
L 224.705455 121.994385 
L 224.705455 117.1687 
L 224.705455 117.1687 
L 216.589091 117.157234 
L 208.472727 116.828146 
L 200.356364 117.309377 
L 192.24 117.280155 
L 184.123636 117.258376 
L 176.007273 117.255703 
L 167.890909 116.709758 
L 159.774545 119.294936 
L 151.658182 118.090999 
L 143.541818 117.863469 
L 135.425455 119.836906 
L 127.309091 121.387784 
L 119.192727 123.70858 
L 111.076364 124.25953 
L 102.96 130.020671 
L 94.843636 124.514678 
L 86.727273 132.888031 
L 78.610909 136.756873 
L 70.494545 137.002973 
L 62.378182 137.696404 
L 54.261818 154.336112 
L 46.145455 171.12709 
z
" clip-path="url(#p7c6be27b28)" style="fill: #ff7f0e; fill-opacity: 0.2"/>
   </g>
   <g id="PolyCollection_3">
    <path d="M 46.145455 244.987694 
L 46.145455 260.804902 
L 54.261818 203.891623 
L 62.378182 196.191353 
L 70.494545 184.362525 
L 78.610909 177.726509 
L 86.727273 175.996121 
L 94.843636 182.242071 
L 102.96 177.96772 
L 111.076364 171.882911 
L 119.192727 159.614808 
L 127.309091 156.408343 
L 135.425455 160.373444 
L 143.541818 157.603395 
L 151.658182 155.968438 
L 159.774545 156.188219 
L 167.890909 155.855296 
L 176.007273 155.712798 
L 184.123636 155.712798 
L 192.24 155.484895 
L 192.24 149.49711 
L 192.24 149.49711 
L 184.123636 149.688435 
L 176.007273 149.688435 
L 167.890909 149.545938 
L 159.774545 150.470701 
L 151.658182 150.690482 
L 143.541818 152.409355 
L 135.425455 153.831594 
L 127.309091 149.412119 
L 119.192727 152.494086 
L 111.076364 159.091279 
L 102.96 166.421791 
L 94.843636 166.758958 
L 86.727273 165.878018 
L 78.610909 165.824545 
L 70.494545 171.346163 
L 62.378182 188.444123 
L 54.261818 197.513005 
L 46.145455 244.987694 
z
" clip-path="url(#p7c6be27b28)" style="fill: #2ca02c; fill-opacity: 0.2"/>
   </g>
   <g id="PolyCollection_4">
    <path d="M 46.145455 180.983664 
L 46.145455 183.948059 
L 54.261818 168.666903 
L 62.378182 158.374734 
L 70.494545 158.603876 
L 78.610909 143.73314 
L 86.727273 149.15458 
L 94.843636 155.066949 
L 102.96 153.187115 
L 111.076364 143.312978 
L 119.192727 145.831658 
L 127.309091 144.721456 
L 135.425455 148.408117 
L 143.541818 135.936224 
L 151.658182 136.151534 
L 159.774545 135.19991 
L 167.890909 135.919345 
L 176.007273 135.635842 
L 184.123636 136.370775 
L 184.123636 130.880639 
L 184.123636 130.880639 
L 176.007273 130.357886 
L 167.890909 130.493611 
L 159.774545 129.95536 
L 151.658182 131.938337 
L 143.541818 131.31519 
L 135.425455 136.450906 
L 127.309091 136.783737 
L 119.192727 134.415849 
L 111.076364 131.065325 
L 102.96 140.056484 
L 94.843636 141.949709 
L 86.727273 144.089019 
L 78.610909 136.514366 
L 70.494545 148.893502 
L 62.378182 150.799559 
L 54.261818 159.372685 
L 46.145455 180.983664 
z
" clip-path="url(#p7c6be27b28)" style="fill: #d62728; fill-opacity: 0.2"/>
   </g>
   <g id="PolyCollection_5">
    <path d="M 46.145455 259.517119 
L 46.145455 274.783035 
L 54.261818 220.627309 
L 62.378182 226.81257 
L 70.494545 214.949699 
L 78.610909 205.98742 
L 86.727273 192.52497 
L 94.843636 182.057096 
L 102.96 178.680307 
L 111.076364 178.635897 
L 119.192727 183.573103 
L 127.309091 172.177253 
L 135.425455 168.443484 
L 143.541818 191.612612 
L 151.658182 171.847073 
L 159.774545 164.205028 
L 167.890909 155.985178 
L 176.007273 157.12688 
L 184.123636 151.347145 
L 192.24 156.5039 
L 200.356364 150.206632 
L 208.472727 150.192724 
L 216.589091 149.693044 
L 224.705455 147.347956 
L 232.821818 147.430649 
L 240.938182 147.523771 
L 249.054545 147.656745 
L 249.054545 140.975337 
L 249.054545 140.975337 
L 240.938182 139.850625 
L 232.821818 140.782204 
L 224.705455 140.02644 
L 216.589091 141.035183 
L 208.472727 141.37396 
L 200.356364 140.940823 
L 192.24 148.478105 
L 184.123636 145.250284 
L 176.007273 150.789727 
L 167.890909 151.931429 
L 159.774545 152.515383 
L 151.658182 161.64249 
L 143.541818 161.161476 
L 135.425455 158.338418 
L 127.309091 163.408454 
L 119.192727 174.23173 
L 111.076364 168.268987 
L 102.96 169.901492 
L 94.843636 175.747737 
L 86.727273 183.306701 
L 78.610909 194.159521 
L 70.494545 197.774105 
L 62.378182 211.064962 
L 54.261818 213.057936 
L 46.145455 259.517119 
z
" clip-path="url(#p7c6be27b28)" style="fill: #9467bd; fill-opacity: 0.2"/>
   </g>
   <g id="PolyCollection_6">
    <path d="M 46.145455 202.414262 
L 46.145455 214.921059 
L 54.261818 189.572127 
L 62.378182 175.446356 
L 70.494545 164.081744 
L 78.610909 165.195614 
L 86.727273 157.821319 
L 94.843636 150.435748 
L 102.96 160.866044 
L 111.076364 142.786387 
L 119.192727 145.754172 
L 127.309091 140.210347 
L 135.425455 138.808021 
L 143.541818 138.702366 
L 151.658182 135.555656 
L 159.774545 136.881443 
L 167.890909 133.935361 
L 176.007273 135.758652 
L 184.123636 135.374716 
L 192.24 132.468576 
L 200.356364 135.459484 
L 208.472727 133.307034 
L 208.472727 125.559804 
L 208.472727 125.559804 
L 200.356364 127.599642 
L 192.24 124.721346 
L 184.123636 127.68441 
L 176.007273 128.558161 
L 167.890909 127.027621 
L 159.774545 128.693056 
L 151.658182 127.922698 
L 143.541818 128.129819 
L 135.425455 130.539537 
L 127.309091 129.975668 
L 119.192727 130.720275 
L 111.076364 133.68806 
L 102.96 147.050563 
L 94.843636 144.484766 
L 86.727273 146.741458 
L 78.610909 153.201713 
L 70.494545 155.15404 
L 62.378182 162.654724 
L 54.261818 177.874968 
L 46.145455 202.414262 
z
" clip-path="url(#p7c6be27b28)" style="fill: #8c564b; fill-opacity: 0.2"/>
   </g>
   <g id="PolyCollection_7">
    <path d="M 46.145455 211.091095 
L 46.145455 222.174921 
L 54.261818 179.266759 
L 62.378182 159.087011 
L 70.494545 152.413181 
L 78.610909 148.16668 
L 86.727273 153.232584 
L 94.843636 151.724911 
L 102.96 151.05505 
L 111.076364 145.618036 
L 119.192727 142.767936 
L 127.309091 142.326645 
L 135.425455 143.906624 
L 143.541818 143.19841 
L 151.658182 143.603578 
L 159.774545 143.624364 
L 159.774545 134.946227 
L 159.774545 134.946227 
L 151.658182 135.805471 
L 143.541818 135.372182 
L 135.425455 137.17934 
L 127.309091 136.663175 
L 119.192727 134.964197 
L 111.076364 137.144843 
L 102.96 140.511634 
L 94.843636 141.937917 
L 86.727273 146.299447 
L 78.610909 142.142317 
L 70.494545 146.280392 
L 62.378182 154.27957 
L 54.261818 169.315041 
L 46.145455 211.091095 
z
" clip-path="url(#p7c6be27b28)" style="fill: #e377c2; fill-opacity: 0.2"/>
   </g>
   <g id="PolyCollection_8">
    <path d="M 46.145455 187.524748 
L 46.145455 199.206872 
L 54.261818 162.680702 
L 62.378182 147.396034 
L 70.494545 139.46205 
L 78.610909 140.967449 
L 86.727273 138.28462 
L 94.843636 138.932098 
L 102.96 133.15381 
L 111.076364 133.001054 
L 119.192727 126.062086 
L 127.309091 126.400396 
L 135.425455 125.942068 
L 143.541818 125.840748 
L 151.658182 124.505384 
L 159.774545 124.733315 
L 159.774545 118.622058 
L 159.774545 118.622058 
L 151.658182 119.269218 
L 143.541818 118.353082 
L 135.425455 118.251762 
L 127.309091 117.793434 
L 119.192727 117.293287 
L 111.076364 122.511953 
L 102.96 122.778427 
L 94.843636 126.223172 
L 86.727273 128.966794 
L 78.610909 128.380109 
L 70.494545 129.466279 
L 62.378182 137.882218 
L 54.261818 156.555082 
L 46.145455 187.524748 
z
" clip-path="url(#p7c6be27b28)" style="fill: #7f7f7f; fill-opacity: 0.2"/>
   </g>
   <g id="matplotlib.axis_1">
    <g id="xtick_1">
     <g id="line2d_1">
      <path d="M 38.029091 283.5 
L 38.029091 38.88 
" clip-path="url(#p7c6be27b28)" style="fill: none; stroke: #b0b0b0; stroke-width: 0.8; stroke-linecap: square"/>
     </g>
     <g id="line2d_2">
      <defs>
       <path id="me39d169ab8" d="M 0 0 
L 0 3.5 
" style="stroke: #000000; stroke-width: 0.8"/>
      </defs>
      <g>
       <use xlink:href="#me39d169ab8" x="38.029091" y="283.5" style="stroke: #000000; stroke-width: 0.8"/>
      </g>
     </g>
     <g id="text_1">
      <!-- 0 -->
      <g transform="translate(34.847841 298.098437)scale(0.1 -0.1)">
       <defs>
        <path id="DejaVuSans-30" d="M 2034 4250 
Q 1547 4250 1301 3770 
Q 1056 3291 1056 2328 
Q 1056 1369 1301 889 
Q 1547 409 2034 409 
Q 2525 409 2770 889 
Q 3016 1369 3016 2328 
Q 3016 3291 2770 3770 
Q 2525 4250 2034 4250 
z
M 2034 4750 
Q 2819 4750 3233 4129 
Q 3647 3509 3647 2328 
Q 3647 1150 3233 529 
Q 2819 -91 2034 -91 
Q 1250 -91 836 529 
Q 422 1150 422 2328 
Q 422 3509 836 4129 
Q 1250 4750 2034 4750 
z
" transform="scale(0.015625)"/>
       </defs>
       <use xlink:href="#DejaVuSans-30"/>
      </g>
     </g>
    </g>
    <g id="xtick_2">
     <g id="line2d_3">
      <path d="M 78.610909 283.5 
L 78.610909 38.88 
" clip-path="url(#p7c6be27b28)" style="fill: none; stroke: #b0b0b0; stroke-width: 0.8; stroke-linecap: square"/>
     </g>
     <g id="line2d_4">
      <g>
       <use xlink:href="#me39d169ab8" x="78.610909" y="283.5" style="stroke: #000000; stroke-width: 0.8"/>
      </g>
     </g>
     <g id="text_2">
      <!-- 5 -->
      <g transform="translate(75.429659 298.098437)scale(0.1 -0.1)">
       <defs>
        <path id="DejaVuSans-35" d="M 691 4666 
L 3169 4666 
L 3169 4134 
L 1269 4134 
L 1269 2991 
Q 1406 3038 1543 3061 
Q 1681 3084 1819 3084 
Q 2600 3084 3056 2656 
Q 3513 2228 3513 1497 
Q 3513 744 3044 326 
Q 2575 -91 1722 -91 
Q 1428 -91 1123 -41 
Q 819 9 494 109 
L 494 744 
Q 775 591 1075 516 
Q 1375 441 1709 441 
Q 2250 441 2565 725 
Q 2881 1009 2881 1497 
Q 2881 1984 2565 2268 
Q 2250 2553 1709 2553 
Q 1456 2553 1204 2497 
Q 953 2441 691 2322 
L 691 4666 
z
" transform="scale(0.015625)"/>
       </defs>
       <use xlink:href="#DejaVuSans-35"/>
      </g>
     </g>
    </g>
    <g id="xtick_3">
     <g id="line2d_5">
      <path d="M 119.192727 283.5 
L 119.192727 38.88 
" clip-path="url(#p7c6be27b28)" style="fill: none; stroke: #b0b0b0; stroke-width: 0.8; stroke-linecap: square"/>
     </g>
     <g id="line2d_6">
      <g>
       <use xlink:href="#me39d169ab8" x="119.192727" y="283.5" style="stroke: #000000; stroke-width: 0.8"/>
      </g>
     </g>
     <g id="text_3">
      <!-- 10 -->
      <g transform="translate(112.830227 298.098437)scale(0.1 -0.1)">
       <defs>
        <path id="DejaVuSans-31" d="M 794 531 
L 1825 531 
L 1825 4091 
L 703 3866 
L 703 4441 
L 1819 4666 
L 2450 4666 
L 2450 531 
L 3481 531 
L 3481 0 
L 794 0 
L 794 531 
z
" transform="scale(0.015625)"/>
       </defs>
       <use xlink:href="#DejaVuSans-31"/>
       <use xlink:href="#DejaVuSans-30" x="63.623047"/>
      </g>
     </g>
    </g>
    <g id="xtick_4">
     <g id="line2d_7">
      <path d="M 159.774545 283.5 
L 159.774545 38.88 
" clip-path="url(#p7c6be27b28)" style="fill: none; stroke: #b0b0b0; stroke-width: 0.8; stroke-linecap: square"/>
     </g>
     <g id="line2d_8">
      <g>
       <use xlink:href="#me39d169ab8" x="159.774545" y="283.5" style="stroke: #000000; stroke-width: 0.8"/>
      </g>
     </g>
     <g id="text_4">
      <!-- 15 -->
      <g transform="translate(153.412045 298.098437)scale(0.1 -0.1)">
       <use xlink:href="#DejaVuSans-31"/>
       <use xlink:href="#DejaVuSans-35" x="63.623047"/>
      </g>
     </g>
    </g>
    <g id="xtick_5">
     <g id="line2d_9">
      <path d="M 200.356364 283.5 
L 200.356364 38.88 
" clip-path="url(#p7c6be27b28)" style="fill: none; stroke: #b0b0b0; stroke-width: 0.8; stroke-linecap: square"/>
     </g>
     <g id="line2d_10">
      <g>
       <use xlink:href="#me39d169ab8" x="200.356364" y="283.5" style="stroke: #000000; stroke-width: 0.8"/>
      </g>
     </g>
     <g id="text_5">
      <!-- 20 -->
      <g transform="translate(193.993864 298.098437)scale(0.1 -0.1)">
       <defs>
        <path id="DejaVuSans-32" d="M 1228 531 
L 3431 531 
L 3431 0 
L 469 0 
L 469 531 
Q 828 903 1448 1529 
Q 2069 2156 2228 2338 
Q 2531 2678 2651 2914 
Q 2772 3150 2772 3378 
Q 2772 3750 2511 3984 
Q 2250 4219 1831 4219 
Q 1534 4219 1204 4116 
Q 875 4013 500 3803 
L 500 4441 
Q 881 4594 1212 4672 
Q 1544 4750 1819 4750 
Q 2544 4750 2975 4387 
Q 3406 4025 3406 3419 
Q 3406 3131 3298 2873 
Q 3191 2616 2906 2266 
Q 2828 2175 2409 1742 
Q 1991 1309 1228 531 
z
" transform="scale(0.015625)"/>
       </defs>
       <use xlink:href="#DejaVuSans-32"/>
       <use xlink:href="#DejaVuSans-30" x="63.623047"/>
      </g>
     </g>
    </g>
    <g id="xtick_6">
     <g id="line2d_11">
      <path d="M 240.938182 283.5 
L 240.938182 38.88 
" clip-path="url(#p7c6be27b28)" style="fill: none; stroke: #b0b0b0; stroke-width: 0.8; stroke-linecap: square"/>
     </g>
     <g id="line2d_12">
      <g>
       <use xlink:href="#me39d169ab8" x="240.938182" y="283.5" style="stroke: #000000; stroke-width: 0.8"/>
      </g>
     </g>
     <g id="text_6">
      <!-- 25 -->
      <g transform="translate(234.575682 298.098437)scale(0.1 -0.1)">
       <use xlink:href="#DejaVuSans-32"/>
       <use xlink:href="#DejaVuSans-35" x="63.623047"/>
      </g>
     </g>
    </g>
    <g id="text_7">
     <!-- Epochs -->
     <g transform="translate(129.684375 311.776563)scale(0.1 -0.1)">
      <defs>
       <path id="DejaVuSans-45" d="M 628 4666 
L 3578 4666 
L 3578 4134 
L 1259 4134 
L 1259 2753 
L 3481 2753 
L 3481 2222 
L 1259 2222 
L 1259 531 
L 3634 531 
L 3634 0 
L 628 0 
L 628 4666 
z
" transform="scale(0.015625)"/>
       <path id="DejaVuSans-70" d="M 1159 525 
L 1159 -1331 
L 581 -1331 
L 581 3500 
L 1159 3500 
L 1159 2969 
Q 1341 3281 1617 3432 
Q 1894 3584 2278 3584 
Q 2916 3584 3314 3078 
Q 3713 2572 3713 1747 
Q 3713 922 3314 415 
Q 2916 -91 2278 -91 
Q 1894 -91 1617 61 
Q 1341 213 1159 525 
z
M 3116 1747 
Q 3116 2381 2855 2742 
Q 2594 3103 2138 3103 
Q 1681 3103 1420 2742 
Q 1159 2381 1159 1747 
Q 1159 1113 1420 752 
Q 1681 391 2138 391 
Q 2594 391 2855 752 
Q 3116 1113 3116 1747 
z
" transform="scale(0.015625)"/>
       <path id="DejaVuSans-6f" d="M 1959 3097 
Q 1497 3097 1228 2736 
Q 959 2375 959 1747 
Q 959 1119 1226 758 
Q 1494 397 1959 397 
Q 2419 397 2687 759 
Q 2956 1122 2956 1747 
Q 2956 2369 2687 2733 
Q 2419 3097 1959 3097 
z
M 1959 3584 
Q 2709 3584 3137 3096 
Q 3566 2609 3566 1747 
Q 3566 888 3137 398 
Q 2709 -91 1959 -91 
Q 1206 -91 779 398 
Q 353 888 353 1747 
Q 353 2609 779 3096 
Q 1206 3584 1959 3584 
z
" transform="scale(0.015625)"/>
       <path id="DejaVuSans-63" d="M 3122 3366 
L 3122 2828 
Q 2878 2963 2633 3030 
Q 2388 3097 2138 3097 
Q 1578 3097 1268 2742 
Q 959 2388 959 1747 
Q 959 1106 1268 751 
Q 1578 397 2138 397 
Q 2388 397 2633 464 
Q 2878 531 3122 666 
L 3122 134 
Q 2881 22 2623 -34 
Q 2366 -91 2075 -91 
Q 1284 -91 818 406 
Q 353 903 353 1747 
Q 353 2603 823 3093 
Q 1294 3584 2113 3584 
Q 2378 3584 2631 3529 
Q 2884 3475 3122 3366 
z
" transform="scale(0.015625)"/>
       <path id="DejaVuSans-68" d="M 3513 2113 
L 3513 0 
L 2938 0 
L 2938 2094 
Q 2938 2591 2744 2837 
Q 2550 3084 2163 3084 
Q 1697 3084 1428 2787 
Q 1159 2491 1159 1978 
L 1159 0 
L 581 0 
L 581 4863 
L 1159 4863 
L 1159 2956 
Q 1366 3272 1645 3428 
Q 1925 3584 2291 3584 
Q 2894 3584 3203 3211 
Q 3513 2838 3513 2113 
z
" transform="scale(0.015625)"/>
       <path id="DejaVuSans-73" d="M 2834 3397 
L 2834 2853 
Q 2591 2978 2328 3040 
Q 2066 3103 1784 3103 
Q 1356 3103 1142 2972 
Q 928 2841 928 2578 
Q 928 2378 1081 2264 
Q 1234 2150 1697 2047 
L 1894 2003 
Q 2506 1872 2764 1633 
Q 3022 1394 3022 966 
Q 3022 478 2636 193 
Q 2250 -91 1575 -91 
Q 1294 -91 989 -36 
Q 684 19 347 128 
L 347 722 
Q 666 556 975 473 
Q 1284 391 1588 391 
Q 1994 391 2212 530 
Q 2431 669 2431 922 
Q 2431 1156 2273 1281 
Q 2116 1406 1581 1522 
L 1381 1569 
Q 847 1681 609 1914 
Q 372 2147 372 2553 
Q 372 3047 722 3315 
Q 1072 3584 1716 3584 
Q 2034 3584 2315 3537 
Q 2597 3491 2834 3397 
z
" transform="scale(0.015625)"/>
      </defs>
      <use xlink:href="#DejaVuSans-45"/>
      <use xlink:href="#DejaVuSans-70" x="63.183594"/>
      <use xlink:href="#DejaVuSans-6f" x="126.660156"/>
      <use xlink:href="#DejaVuSans-63" x="187.841797"/>
      <use xlink:href="#DejaVuSans-68" x="242.822266"/>
      <use xlink:href="#DejaVuSans-73" x="306.201172"/>
     </g>
    </g>
   </g>
   <g id="matplotlib.axis_2">
    <g id="ytick_1">
     <g id="line2d_13">
      <path d="M 36 283.5 
L 259.2 283.5 
" clip-path="url(#p7c6be27b28)" style="fill: none; stroke: #b0b0b0; stroke-width: 0.8; stroke-linecap: square"/>
     </g>
     <g id="line2d_14">
      <defs>
       <path id="me2796c7c35" d="M 0 0 
L -3.5 0 
" style="stroke: #000000; stroke-width: 0.8"/>
      </defs>
      <g>
       <use xlink:href="#me2796c7c35" x="36" y="283.5" style="stroke: #000000; stroke-width: 0.8"/>
      </g>
     </g>
     <g id="text_8">
      <!-- 0.70 -->
      <g transform="translate(6.734375 287.299219)scale(0.1 -0.1)">
       <defs>
        <path id="DejaVuSans-2e" d="M 684 794 
L 1344 794 
L 1344 0 
L 684 0 
L 684 794 
z
" transform="scale(0.015625)"/>
        <path id="DejaVuSans-37" d="M 525 4666 
L 3525 4666 
L 3525 4397 
L 1831 0 
L 1172 0 
L 2766 4134 
L 525 4134 
L 525 4666 
z
" transform="scale(0.015625)"/>
       </defs>
       <use xlink:href="#DejaVuSans-30"/>
       <use xlink:href="#DejaVuSans-2e" x="63.623047"/>
       <use xlink:href="#DejaVuSans-37" x="95.410156"/>
       <use xlink:href="#DejaVuSans-30" x="159.033203"/>
      </g>
     </g>
    </g>
    <g id="ytick_2">
     <g id="line2d_15">
      <path d="M 36 242.73 
L 259.2 242.73 
" clip-path="url(#p7c6be27b28)" style="fill: none; stroke: #b0b0b0; stroke-width: 0.8; stroke-linecap: square"/>
     </g>
     <g id="line2d_16">
      <g>
       <use xlink:href="#me2796c7c35" x="36" y="242.73" style="stroke: #000000; stroke-width: 0.8"/>
      </g>
     </g>
     <g id="text_9">
      <!-- 0.75 -->
      <g transform="translate(6.734375 246.529219)scale(0.1 -0.1)">
       <use xlink:href="#DejaVuSans-30"/>
       <use xlink:href="#DejaVuSans-2e" x="63.623047"/>
       <use xlink:href="#DejaVuSans-37" x="95.410156"/>
       <use xlink:href="#DejaVuSans-35" x="159.033203"/>
      </g>
     </g>
    </g>
    <g id="ytick_3">
     <g id="line2d_17">
      <path d="M 36 201.96 
L 259.2 201.96 
" clip-path="url(#p7c6be27b28)" style="fill: none; stroke: #b0b0b0; stroke-width: 0.8; stroke-linecap: square"/>
     </g>
     <g id="line2d_18">
      <g>
       <use xlink:href="#me2796c7c35" x="36" y="201.96" style="stroke: #000000; stroke-width: 0.8"/>
      </g>
     </g>
     <g id="text_10">
      <!-- 0.80 -->
      <g transform="translate(6.734375 205.759219)scale(0.1 -0.1)">
       <defs>
        <path id="DejaVuSans-38" d="M 2034 2216 
Q 1584 2216 1326 1975 
Q 1069 1734 1069 1313 
Q 1069 891 1326 650 
Q 1584 409 2034 409 
Q 2484 409 2743 651 
Q 3003 894 3003 1313 
Q 3003 1734 2745 1975 
Q 2488 2216 2034 2216 
z
M 1403 2484 
Q 997 2584 770 2862 
Q 544 3141 544 3541 
Q 544 4100 942 4425 
Q 1341 4750 2034 4750 
Q 2731 4750 3128 4425 
Q 3525 4100 3525 3541 
Q 3525 3141 3298 2862 
Q 3072 2584 2669 2484 
Q 3125 2378 3379 2068 
Q 3634 1759 3634 1313 
Q 3634 634 3220 271 
Q 2806 -91 2034 -91 
Q 1263 -91 848 271 
Q 434 634 434 1313 
Q 434 1759 690 2068 
Q 947 2378 1403 2484 
z
M 1172 3481 
Q 1172 3119 1398 2916 
Q 1625 2713 2034 2713 
Q 2441 2713 2670 2916 
Q 2900 3119 2900 3481 
Q 2900 3844 2670 4047 
Q 2441 4250 2034 4250 
Q 1625 4250 1398 4047 
Q 1172 3844 1172 3481 
z
" transform="scale(0.015625)"/>
       </defs>
       <use xlink:href="#DejaVuSans-30"/>
       <use xlink:href="#DejaVuSans-2e" x="63.623047"/>
       <use xlink:href="#DejaVuSans-38" x="95.410156"/>
       <use xlink:href="#DejaVuSans-30" x="159.033203"/>
      </g>
     </g>
    </g>
    <g id="ytick_4">
     <g id="line2d_19">
      <path d="M 36 161.19 
L 259.2 161.19 
" clip-path="url(#p7c6be27b28)" style="fill: none; stroke: #b0b0b0; stroke-width: 0.8; stroke-linecap: square"/>
     </g>
     <g id="line2d_20">
      <g>
       <use xlink:href="#me2796c7c35" x="36" y="161.19" style="stroke: #000000; stroke-width: 0.8"/>
      </g>
     </g>
     <g id="text_11">
      <!-- 0.85 -->
      <g transform="translate(6.734375 164.989219)scale(0.1 -0.1)">
       <use xlink:href="#DejaVuSans-30"/>
       <use xlink:href="#DejaVuSans-2e" x="63.623047"/>
       <use xlink:href="#DejaVuSans-38" x="95.410156"/>
       <use xlink:href="#DejaVuSans-35" x="159.033203"/>
      </g>
     </g>
    </g>
    <g id="ytick_5">
     <g id="line2d_21">
      <path d="M 36 120.42 
L 259.2 120.42 
" clip-path="url(#p7c6be27b28)" style="fill: none; stroke: #b0b0b0; stroke-width: 0.8; stroke-linecap: square"/>
     </g>
     <g id="line2d_22">
      <g>
       <use xlink:href="#me2796c7c35" x="36" y="120.42" style="stroke: #000000; stroke-width: 0.8"/>
      </g>
     </g>
     <g id="text_12">
      <!-- 0.90 -->
      <g transform="translate(6.734375 124.219219)scale(0.1 -0.1)">
       <defs>
        <path id="DejaVuSans-39" d="M 703 97 
L 703 672 
Q 941 559 1184 500 
Q 1428 441 1663 441 
Q 2288 441 2617 861 
Q 2947 1281 2994 2138 
Q 2813 1869 2534 1725 
Q 2256 1581 1919 1581 
Q 1219 1581 811 2004 
Q 403 2428 403 3163 
Q 403 3881 828 4315 
Q 1253 4750 1959 4750 
Q 2769 4750 3195 4129 
Q 3622 3509 3622 2328 
Q 3622 1225 3098 567 
Q 2575 -91 1691 -91 
Q 1453 -91 1209 -44 
Q 966 3 703 97 
z
M 1959 2075 
Q 2384 2075 2632 2365 
Q 2881 2656 2881 3163 
Q 2881 3666 2632 3958 
Q 2384 4250 1959 4250 
Q 1534 4250 1286 3958 
Q 1038 3666 1038 3163 
Q 1038 2656 1286 2365 
Q 1534 2075 1959 2075 
z
" transform="scale(0.015625)"/>
       </defs>
       <use xlink:href="#DejaVuSans-30"/>
       <use xlink:href="#DejaVuSans-2e" x="63.623047"/>
       <use xlink:href="#DejaVuSans-39" x="95.410156"/>
       <use xlink:href="#DejaVuSans-30" x="159.033203"/>
      </g>
     </g>
    </g>
    <g id="ytick_6">
     <g id="line2d_23">
      <path d="M 36 79.65 
L 259.2 79.65 
" clip-path="url(#p7c6be27b28)" style="fill: none; stroke: #b0b0b0; stroke-width: 0.8; stroke-linecap: square"/>
     </g>
     <g id="line2d_24">
      <g>
       <use xlink:href="#me2796c7c35" x="36" y="79.65" style="stroke: #000000; stroke-width: 0.8"/>
      </g>
     </g>
     <g id="text_13">
      <!-- 0.95 -->
      <g transform="translate(6.734375 83.449219)scale(0.1 -0.1)">
       <use xlink:href="#DejaVuSans-30"/>
       <use xlink:href="#DejaVuSans-2e" x="63.623047"/>
       <use xlink:href="#DejaVuSans-39" x="95.410156"/>
       <use xlink:href="#DejaVuSans-35" x="159.033203"/>
      </g>
     </g>
    </g>
    <g id="ytick_7">
     <g id="line2d_25">
      <path d="M 36 38.88 
L 259.2 38.88 
" clip-path="url(#p7c6be27b28)" style="fill: none; stroke: #b0b0b0; stroke-width: 0.8; stroke-linecap: square"/>
     </g>
     <g id="line2d_26">
      <g>
       <use xlink:href="#me2796c7c35" x="36" y="38.88" style="stroke: #000000; stroke-width: 0.8"/>
      </g>
     </g>
     <g id="text_14">
      <!-- 1.00 -->
      <g transform="translate(6.734375 42.679219)scale(0.1 -0.1)">
       <use xlink:href="#DejaVuSans-31"/>
       <use xlink:href="#DejaVuSans-2e" x="63.623047"/>
       <use xlink:href="#DejaVuSans-30" x="95.410156"/>
       <use xlink:href="#DejaVuSans-30" x="159.033203"/>
      </g>
     </g>
    </g>
    <g id="text_15">
     <!-- Accuracy ($\bar{x} \pm s \div \sqrt{N}$) -->
     <g transform="translate(0.634375 215.44)rotate(-90)scale(0.1 -0.1)">
      <defs>
       <path id="DejaVuSans-41" d="M 2188 4044 
L 1331 1722 
L 3047 1722 
L 2188 4044 
z
M 1831 4666 
L 2547 4666 
L 4325 0 
L 3669 0 
L 3244 1197 
L 1141 1197 
L 716 0 
L 50 0 
L 1831 4666 
z
" transform="scale(0.015625)"/>
       <path id="DejaVuSans-75" d="M 544 1381 
L 544 3500 
L 1119 3500 
L 1119 1403 
Q 1119 906 1312 657 
Q 1506 409 1894 409 
Q 2359 409 2629 706 
Q 2900 1003 2900 1516 
L 2900 3500 
L 3475 3500 
L 3475 0 
L 2900 0 
L 2900 538 
Q 2691 219 2414 64 
Q 2138 -91 1772 -91 
Q 1169 -91 856 284 
Q 544 659 544 1381 
z
M 1991 3584 
L 1991 3584 
z
" transform="scale(0.015625)"/>
       <path id="DejaVuSans-72" d="M 2631 2963 
Q 2534 3019 2420 3045 
Q 2306 3072 2169 3072 
Q 1681 3072 1420 2755 
Q 1159 2438 1159 1844 
L 1159 0 
L 581 0 
L 581 3500 
L 1159 3500 
L 1159 2956 
Q 1341 3275 1631 3429 
Q 1922 3584 2338 3584 
Q 2397 3584 2469 3576 
Q 2541 3569 2628 3553 
L 2631 2963 
z
" transform="scale(0.015625)"/>
       <path id="DejaVuSans-61" d="M 2194 1759 
Q 1497 1759 1228 1600 
Q 959 1441 959 1056 
Q 959 750 1161 570 
Q 1363 391 1709 391 
Q 2188 391 2477 730 
Q 2766 1069 2766 1631 
L 2766 1759 
L 2194 1759 
z
M 3341 1997 
L 3341 0 
L 2766 0 
L 2766 531 
Q 2569 213 2275 61 
Q 1981 -91 1556 -91 
Q 1019 -91 701 211 
Q 384 513 384 1019 
Q 384 1609 779 1909 
Q 1175 2209 1959 2209 
L 2766 2209 
L 2766 2266 
Q 2766 2663 2505 2880 
Q 2244 3097 1772 3097 
Q 1472 3097 1187 3025 
Q 903 2953 641 2809 
L 641 3341 
Q 956 3463 1253 3523 
Q 1550 3584 1831 3584 
Q 2591 3584 2966 3190 
Q 3341 2797 3341 1997 
z
" transform="scale(0.015625)"/>
       <path id="DejaVuSans-79" d="M 2059 -325 
Q 1816 -950 1584 -1140 
Q 1353 -1331 966 -1331 
L 506 -1331 
L 506 -850 
L 844 -850 
Q 1081 -850 1212 -737 
Q 1344 -625 1503 -206 
L 1606 56 
L 191 3500 
L 800 3500 
L 1894 763 
L 2988 3500 
L 3597 3500 
L 2059 -325 
z
" transform="scale(0.015625)"/>
       <path id="DejaVuSans-20" transform="scale(0.015625)"/>
       <path id="DejaVuSans-28" d="M 1984 4856 
Q 1566 4138 1362 3434 
Q 1159 2731 1159 2009 
Q 1159 1288 1364 580 
Q 1569 -128 1984 -844 
L 1484 -844 
Q 1016 -109 783 600 
Q 550 1309 550 2009 
Q 550 2706 781 3412 
Q 1013 4119 1484 4856 
L 1984 4856 
z
" transform="scale(0.015625)"/>
       <path id="DejaVuSans-304" d="M -2518 4769 
L -650 4769 
L -650 4306 
L -2518 4306 
L -2518 4769 
z
" transform="scale(0.015625)"/>
       <path id="DejaVuSans-Oblique-78" d="M 3841 3500 
L 2234 1784 
L 3219 0 
L 2559 0 
L 1819 1388 
L 531 0 
L -166 0 
L 1556 1844 
L 641 3500 
L 1300 3500 
L 1972 2234 
L 3144 3500 
L 3841 3500 
z
" transform="scale(0.015625)"/>
       <path id="DejaVuSans-b1" d="M 2944 4013 
L 2944 2803 
L 4684 2803 
L 4684 2272 
L 2944 2272 
L 2944 1063 
L 2419 1063 
L 2419 2272 
L 678 2272 
L 678 2803 
L 2419 2803 
L 2419 4013 
L 2944 4013 
z
M 678 531 
L 4684 531 
L 4684 0 
L 678 0 
L 678 531 
z
" transform="scale(0.015625)"/>
       <path id="DejaVuSans-Oblique-73" d="M 3200 3397 
L 3091 2853 
Q 2863 2978 2609 3040 
Q 2356 3103 2088 3103 
Q 1634 3103 1373 2948 
Q 1113 2794 1113 2528 
Q 1113 2219 1719 2053 
Q 1766 2041 1788 2034 
L 1972 1978 
Q 2547 1819 2739 1644 
Q 2931 1469 2931 1166 
Q 2931 609 2489 259 
Q 2047 -91 1331 -91 
Q 1053 -91 747 -37 
Q 441 16 72 128 
L 184 722 
Q 500 559 806 475 
Q 1113 391 1394 391 
Q 1816 391 2080 572 
Q 2344 753 2344 1031 
Q 2344 1331 1650 1516 
L 1591 1531 
L 1394 1581 
Q 956 1697 753 1886 
Q 550 2075 550 2369 
Q 550 2928 970 3256 
Q 1391 3584 2113 3584 
Q 2397 3584 2667 3537 
Q 2938 3491 3200 3397 
z
" transform="scale(0.015625)"/>
       <path id="DejaVuSans-f7" d="M 2297 3547 
L 3066 3547 
L 3066 2778 
L 2297 2778 
L 2297 3547 
z
M 2297 1234 
L 3066 1234 
L 3066 469 
L 2297 469 
L 2297 1234 
z
M 678 2272 
L 4684 2272 
L 4684 1741 
L 678 1741 
L 678 2272 
z
" transform="scale(0.015625)"/>
       <path id="STIXSizeOneSym-Regular-221a" d="M 6970 9933 
L 3373 -1888 
L 3104 -1888 
L 1626 2918 
Q 1555 3149 1465 3251 
Q 1376 3354 1229 3354 
Q 1011 3354 794 3181 
L 717 3309 
L 1766 4115 
L 1926 4115 
L 3379 -602 
L 3405 -602 
L 6605 9933 
L 6970 9933 
z
" transform="scale(0.015625)"/>
       <path id="DejaVuSans-Oblique-4e" d="M 1081 4666 
L 1931 4666 
L 3219 666 
L 4000 4666 
L 4616 4666 
L 3706 0 
L 2853 0 
L 1569 4025 
L 788 0 
L 172 0 
L 1081 4666 
z
" transform="scale(0.015625)"/>
       <path id="DejaVuSans-29" d="M 513 4856 
L 1013 4856 
Q 1481 4119 1714 3412 
Q 1947 2706 1947 2009 
Q 1947 1309 1714 600 
Q 1481 -109 1013 -844 
L 513 -844 
Q 928 -128 1133 580 
Q 1338 1288 1338 2009 
Q 1338 2731 1133 3434 
Q 928 4138 513 4856 
z
" transform="scale(0.015625)"/>
      </defs>
      <use xlink:href="#DejaVuSans-41" transform="translate(0 0.578125)"/>
      <use xlink:href="#DejaVuSans-63" transform="translate(68.408203 0.578125)"/>
      <use xlink:href="#DejaVuSans-63" transform="translate(123.388672 0.578125)"/>
      <use xlink:href="#DejaVuSans-75" transform="translate(178.369141 0.578125)"/>
      <use xlink:href="#DejaVuSans-72" transform="translate(241.748047 0.578125)"/>
      <use xlink:href="#DejaVuSans-61" transform="translate(282.861328 0.578125)"/>
      <use xlink:href="#DejaVuSans-63" transform="translate(344.140625 0.578125)"/>
      <use xlink:href="#DejaVuSans-79" transform="translate(399.121094 0.578125)"/>
      <use xlink:href="#DejaVuSans-20" transform="translate(458.300781 0.578125)"/>
      <use xlink:href="#DejaVuSans-28" transform="translate(490.087891 0.578125)"/>
      <use xlink:href="#DejaVuSans-304" transform="translate(591.240234 0.484375)"/>
      <use xlink:href="#DejaVuSans-Oblique-78" transform="translate(529.101562 0.578125)"/>
      <use xlink:href="#DejaVuSans-b1" transform="translate(607.763672 0.578125)"/>
      <use xlink:href="#DejaVuSans-Oblique-73" transform="translate(711.035156 0.578125)"/>
      <use xlink:href="#DejaVuSans-f7" transform="translate(782.617188 0.578125)"/>
      <use xlink:href="#STIXSizeOneSym-Regular-221a" transform="translate(885.888672 17.09375)scale(0.563912)"/>
      <use xlink:href="#DejaVuSans-Oblique-4e" transform="translate(957.977036 0.84375)"/>
      <use xlink:href="#DejaVuSans-29" transform="translate(1045.281723 0.578125)"/>
      <path d="M 945.477036 97.5 
L 945.477036 103.75 
L 1045.281723 103.75 
L 1045.281723 97.5 
L 945.477036 97.5 
z
"/>
     </g>
    </g>
   </g>
   <g id="line2d_27">
    <path d="M 46.145455 205.523445 
L 54.261818 188.335064 
L 62.378182 169.888997 
L 70.494545 173.242828 
L 78.610909 165.487095 
L 86.727273 166.744781 
L 94.843636 160.45635 
L 102.96 161.92365 
L 111.076364 157.940977 
L 119.192727 153.958303 
L 127.309091 149.346787 
L 135.425455 142.84874 
L 143.541818 142.84874 
L 151.658182 142.84874 
L 159.774545 141.171825 
L 167.890909 141.171825 
" clip-path="url(#p7c6be27b28)" style="fill: none; stroke: #1f77b4; stroke-width: 1.5; stroke-linecap: square"/>
   </g>
   <g id="line2d_28">
    <path d="M 46.145455 174.500514 
L 54.261818 160.45635 
L 62.378182 143.267969 
L 70.494545 138.866067 
L 78.610909 138.446838 
L 86.727273 134.25455 
L 94.843636 129.852648 
L 102.96 139.285296 
L 111.076364 132.158406 
L 119.192727 132.158406 
L 127.309091 126.079589 
L 135.425455 122.935373 
L 143.541818 121.887301 
L 151.658182 123.77383 
L 159.774545 124.612288 
L 167.890909 120.000771 
L 176.007273 120.000771 
L 184.123636 119.791157 
L 192.24 119.791157 
L 200.356364 119.581542 
L 208.472727 119.162314 
L 216.589091 119.162314 
L 224.705455 119.581542 
" clip-path="url(#p7c6be27b28)" style="fill: none; stroke: #ff7f0e; stroke-width: 1.5; stroke-linecap: square"/>
   </g>
   <g id="line2d_29">
    <path d="M 46.145455 252.896298 
L 54.261818 200.702314 
L 62.378182 192.317738 
L 70.494545 177.854344 
L 78.610909 171.775527 
L 86.727273 170.937069 
L 94.843636 174.500514 
L 102.96 172.194756 
L 111.076364 165.487095 
L 119.192727 156.054447 
L 127.309091 152.910231 
L 135.425455 157.102519 
L 143.541818 155.006375 
L 151.658182 153.32946 
L 159.774545 153.32946 
L 167.890909 152.700617 
L 176.007273 152.700617 
L 184.123636 152.700617 
L 192.24 152.491003 
" clip-path="url(#p7c6be27b28)" style="fill: none; stroke: #2ca02c; stroke-width: 1.5; stroke-linecap: square"/>
   </g>
   <g id="line2d_30">
    <path d="M 46.145455 182.465861 
L 54.261818 164.019794 
L 62.378182 154.587147 
L 70.494545 153.748689 
L 78.610909 140.123753 
L 86.727273 146.621799 
L 94.843636 148.508329 
L 102.96 146.621799 
L 111.076364 137.189152 
L 119.192727 140.123753 
L 127.309091 140.752596 
L 135.425455 142.429512 
L 143.541818 133.625707 
L 151.658182 134.044936 
L 159.774545 132.577635 
L 167.890909 133.206478 
L 176.007273 132.996864 
L 184.123636 133.625707 
" clip-path="url(#p7c6be27b28)" style="fill: none; stroke: #d62728; stroke-width: 1.5; stroke-linecap: square"/>
   </g>
   <g id="line2d_31">
    <path d="M 46.145455 267.150077 
L 54.261818 216.842622 
L 62.378182 218.938766 
L 70.494545 206.361902 
L 78.610909 200.07347 
L 86.727273 187.915835 
L 94.843636 178.902416 
L 102.96 174.2909 
L 111.076364 173.452442 
L 119.192727 178.902416 
L 127.309091 167.792853 
L 135.425455 163.390951 
L 143.541818 176.387044 
L 151.658182 166.744781 
L 159.774545 158.360206 
L 167.890909 153.958303 
L 176.007273 153.958303 
L 184.123636 148.298715 
L 192.24 152.491003 
L 200.356364 145.573728 
L 208.472727 145.783342 
L 216.589091 145.364113 
L 224.705455 143.687198 
L 232.821818 144.106427 
L 240.938182 143.687198 
L 249.054545 144.316041 
" clip-path="url(#p7c6be27b28)" style="fill: none; stroke-dasharray: 5.55,2.4; stroke-dashoffset: 0; stroke: #9467bd; stroke-width: 1.5"/>
   </g>
   <g id="line2d_32">
    <path d="M 46.145455 208.667661 
L 54.261818 183.723548 
L 62.378182 169.05054 
L 70.494545 159.617892 
L 78.610909 159.198663 
L 86.727273 152.281388 
L 94.843636 147.460257 
L 102.96 153.958303 
L 111.076364 138.237224 
L 119.192727 138.237224 
L 127.309091 135.093008 
L 135.425455 134.673779 
L 143.541818 133.416093 
L 151.658182 131.739177 
L 159.774545 132.787249 
L 167.890909 130.481491 
L 176.007273 132.158406 
L 184.123636 131.529563 
L 192.24 128.594961 
L 200.356364 131.529563 
L 208.472727 129.433419 
" clip-path="url(#p7c6be27b28)" style="fill: none; stroke-dasharray: 5.55,2.4; stroke-dashoffset: 0; stroke: #8c564b; stroke-width: 1.5"/>
   </g>
   <g id="line2d_33">
    <path d="M 46.145455 216.633008 
L 54.261818 174.2909 
L 62.378182 156.68329 
L 70.494545 149.346787 
L 78.610909 145.154499 
L 86.727273 149.766015 
L 94.843636 146.831414 
L 102.96 145.783342 
L 111.076364 141.38144 
L 119.192727 138.866067 
L 127.309091 139.49491 
L 135.425455 140.542982 
L 143.541818 139.285296 
L 151.658182 139.704524 
L 159.774545 139.285296 
" clip-path="url(#p7c6be27b28)" style="fill: none; stroke-dasharray: 5.55,2.4; stroke-dashoffset: 0; stroke: #e377c2; stroke-width: 1.5"/>
   </g>
   <g id="line2d_34">
    <path d="M 46.145455 193.36581 
L 54.261818 159.617892 
L 62.378182 142.639126 
L 70.494545 134.464165 
L 78.610909 134.673779 
L 86.727273 133.625707 
L 94.843636 132.577635 
L 102.96 127.966118 
L 111.076364 127.756504 
L 119.192727 121.677686 
L 127.309091 122.096915 
L 135.425455 122.096915 
L 143.541818 122.096915 
L 151.658182 121.887301 
L 159.774545 121.677686 
" clip-path="url(#p7c6be27b28)" style="fill: none; stroke-dasharray: 5.55,2.4; stroke-dashoffset: 0; stroke: #7f7f7f; stroke-width: 1.5"/>
   </g>
   <g id="patch_3">
    <path d="M 36 283.5 
L 36 38.88 
" style="fill: none; stroke: #000000; stroke-width: 0.8; stroke-linejoin: miter; stroke-linecap: square"/>
   </g>
   <g id="patch_4">
    <path d="M 259.2 283.5 
L 259.2 38.88 
" style="fill: none; stroke: #000000; stroke-width: 0.8; stroke-linejoin: miter; stroke-linecap: square"/>
   </g>
   <g id="patch_5">
    <path d="M 36 283.5 
L 259.2 283.5 
" style="fill: none; stroke: #000000; stroke-width: 0.8; stroke-linejoin: miter; stroke-linecap: square"/>
   </g>
   <g id="patch_6">
    <path d="M 36 38.88 
L 259.2 38.88 
" style="fill: none; stroke: #000000; stroke-width: 0.8; stroke-linejoin: miter; stroke-linecap: square"/>
   </g>
   <g id="legend_1">
    <g id="patch_7">
     <path d="M 136.107812 278.5 
L 252.2 278.5 
Q 254.2 278.5 254.2 276.5 
L 254.2 158.40625 
Q 254.2 156.40625 252.2 156.40625 
L 136.107812 156.40625 
Q 134.107812 156.40625 134.107812 158.40625 
L 134.107812 276.5 
Q 134.107812 278.5 136.107812 278.5 
z
" style="fill: #ffffff; opacity: 0.6; stroke: #cccccc; stroke-linejoin: miter"/>
    </g>
    <g id="line2d_35">
     <path d="M 138.107812 164.504687 
L 148.107812 164.504687 
L 158.107812 164.504687 
" style="fill: none; stroke: #1f77b4; stroke-width: 1.5; stroke-linecap: square"/>
    </g>
    <g id="text_16">
     <!-- vit_b_16 -->
     <g transform="translate(166.107812 168.004687)scale(0.1 -0.1)">
      <defs>
       <path id="DejaVuSans-76" d="M 191 3500 
L 800 3500 
L 1894 563 
L 2988 3500 
L 3597 3500 
L 2284 0 
L 1503 0 
L 191 3500 
z
" transform="scale(0.015625)"/>
       <path id="DejaVuSans-69" d="M 603 3500 
L 1178 3500 
L 1178 0 
L 603 0 
L 603 3500 
z
M 603 4863 
L 1178 4863 
L 1178 4134 
L 603 4134 
L 603 4863 
z
" transform="scale(0.015625)"/>
       <path id="DejaVuSans-74" d="M 1172 4494 
L 1172 3500 
L 2356 3500 
L 2356 3053 
L 1172 3053 
L 1172 1153 
Q 1172 725 1289 603 
Q 1406 481 1766 481 
L 2356 481 
L 2356 0 
L 1766 0 
Q 1100 0 847 248 
Q 594 497 594 1153 
L 594 3053 
L 172 3053 
L 172 3500 
L 594 3500 
L 594 4494 
L 1172 4494 
z
" transform="scale(0.015625)"/>
       <path id="DejaVuSans-5f" d="M 3263 -1063 
L 3263 -1509 
L -63 -1509 
L -63 -1063 
L 3263 -1063 
z
" transform="scale(0.015625)"/>
       <path id="DejaVuSans-62" d="M 3116 1747 
Q 3116 2381 2855 2742 
Q 2594 3103 2138 3103 
Q 1681 3103 1420 2742 
Q 1159 2381 1159 1747 
Q 1159 1113 1420 752 
Q 1681 391 2138 391 
Q 2594 391 2855 752 
Q 3116 1113 3116 1747 
z
M 1159 2969 
Q 1341 3281 1617 3432 
Q 1894 3584 2278 3584 
Q 2916 3584 3314 3078 
Q 3713 2572 3713 1747 
Q 3713 922 3314 415 
Q 2916 -91 2278 -91 
Q 1894 -91 1617 61 
Q 1341 213 1159 525 
L 1159 0 
L 581 0 
L 581 4863 
L 1159 4863 
L 1159 2969 
z
" transform="scale(0.015625)"/>
       <path id="DejaVuSans-36" d="M 2113 2584 
Q 1688 2584 1439 2293 
Q 1191 2003 1191 1497 
Q 1191 994 1439 701 
Q 1688 409 2113 409 
Q 2538 409 2786 701 
Q 3034 994 3034 1497 
Q 3034 2003 2786 2293 
Q 2538 2584 2113 2584 
z
M 3366 4563 
L 3366 3988 
Q 3128 4100 2886 4159 
Q 2644 4219 2406 4219 
Q 1781 4219 1451 3797 
Q 1122 3375 1075 2522 
Q 1259 2794 1537 2939 
Q 1816 3084 2150 3084 
Q 2853 3084 3261 2657 
Q 3669 2231 3669 1497 
Q 3669 778 3244 343 
Q 2819 -91 2113 -91 
Q 1303 -91 875 529 
Q 447 1150 447 2328 
Q 447 3434 972 4092 
Q 1497 4750 2381 4750 
Q 2619 4750 2861 4703 
Q 3103 4656 3366 4563 
z
" transform="scale(0.015625)"/>
      </defs>
      <use xlink:href="#DejaVuSans-76"/>
      <use xlink:href="#DejaVuSans-69" x="59.179688"/>
      <use xlink:href="#DejaVuSans-74" x="86.962891"/>
      <use xlink:href="#DejaVuSans-5f" x="126.171875"/>
      <use xlink:href="#DejaVuSans-62" x="176.171875"/>
      <use xlink:href="#DejaVuSans-5f" x="239.648438"/>
      <use xlink:href="#DejaVuSans-31" x="289.648438"/>
      <use xlink:href="#DejaVuSans-36" x="353.271484"/>
     </g>
    </g>
    <g id="line2d_36">
     <path d="M 138.107812 179.460938 
L 148.107812 179.460938 
L 158.107812 179.460938 
" style="fill: none; stroke: #ff7f0e; stroke-width: 1.5; stroke-linecap: square"/>
    </g>
    <g id="text_17">
     <!-- swin_b -->
     <g transform="translate(166.107812 182.960938)scale(0.1 -0.1)">
      <defs>
       <path id="DejaVuSans-77" d="M 269 3500 
L 844 3500 
L 1563 769 
L 2278 3500 
L 2956 3500 
L 3675 769 
L 4391 3500 
L 4966 3500 
L 4050 0 
L 3372 0 
L 2619 2869 
L 1863 0 
L 1184 0 
L 269 3500 
z
" transform="scale(0.015625)"/>
       <path id="DejaVuSans-6e" d="M 3513 2113 
L 3513 0 
L 2938 0 
L 2938 2094 
Q 2938 2591 2744 2837 
Q 2550 3084 2163 3084 
Q 1697 3084 1428 2787 
Q 1159 2491 1159 1978 
L 1159 0 
L 581 0 
L 581 3500 
L 1159 3500 
L 1159 2956 
Q 1366 3272 1645 3428 
Q 1925 3584 2291 3584 
Q 2894 3584 3203 3211 
Q 3513 2838 3513 2113 
z
" transform="scale(0.015625)"/>
      </defs>
      <use xlink:href="#DejaVuSans-73"/>
      <use xlink:href="#DejaVuSans-77" x="52.099609"/>
      <use xlink:href="#DejaVuSans-69" x="133.886719"/>
      <use xlink:href="#DejaVuSans-6e" x="161.669922"/>
      <use xlink:href="#DejaVuSans-5f" x="225.048828"/>
      <use xlink:href="#DejaVuSans-62" x="275.048828"/>
     </g>
    </g>
    <g id="line2d_37">
     <path d="M 138.107812 194.417188 
L 148.107812 194.417188 
L 158.107812 194.417188 
" style="fill: none; stroke: #2ca02c; stroke-width: 1.5; stroke-linecap: square"/>
    </g>
    <g id="text_18">
     <!-- beit_b_16 -->
     <g transform="translate(166.107812 197.917188)scale(0.1 -0.1)">
      <defs>
       <path id="DejaVuSans-65" d="M 3597 1894 
L 3597 1613 
L 953 1613 
Q 991 1019 1311 708 
Q 1631 397 2203 397 
Q 2534 397 2845 478 
Q 3156 559 3463 722 
L 3463 178 
Q 3153 47 2828 -22 
Q 2503 -91 2169 -91 
Q 1331 -91 842 396 
Q 353 884 353 1716 
Q 353 2575 817 3079 
Q 1281 3584 2069 3584 
Q 2775 3584 3186 3129 
Q 3597 2675 3597 1894 
z
M 3022 2063 
Q 3016 2534 2758 2815 
Q 2500 3097 2075 3097 
Q 1594 3097 1305 2825 
Q 1016 2553 972 2059 
L 3022 2063 
z
" transform="scale(0.015625)"/>
      </defs>
      <use xlink:href="#DejaVuSans-62"/>
      <use xlink:href="#DejaVuSans-65" x="63.476562"/>
      <use xlink:href="#DejaVuSans-69" x="125"/>
      <use xlink:href="#DejaVuSans-74" x="152.783203"/>
      <use xlink:href="#DejaVuSans-5f" x="191.992188"/>
      <use xlink:href="#DejaVuSans-62" x="241.992188"/>
      <use xlink:href="#DejaVuSans-5f" x="305.46875"/>
      <use xlink:href="#DejaVuSans-31" x="355.46875"/>
      <use xlink:href="#DejaVuSans-36" x="419.091797"/>
     </g>
    </g>
    <g id="line2d_38">
     <path d="M 138.107812 209.373437 
L 148.107812 209.373437 
L 158.107812 209.373437 
" style="fill: none; stroke: #d62728; stroke-width: 1.5; stroke-linecap: square"/>
    </g>
    <g id="text_19">
     <!-- deit_b_16 -->
     <g transform="translate(166.107812 212.873437)scale(0.1 -0.1)">
      <defs>
       <path id="DejaVuSans-64" d="M 2906 2969 
L 2906 4863 
L 3481 4863 
L 3481 0 
L 2906 0 
L 2906 525 
Q 2725 213 2448 61 
Q 2172 -91 1784 -91 
Q 1150 -91 751 415 
Q 353 922 353 1747 
Q 353 2572 751 3078 
Q 1150 3584 1784 3584 
Q 2172 3584 2448 3432 
Q 2725 3281 2906 2969 
z
M 947 1747 
Q 947 1113 1208 752 
Q 1469 391 1925 391 
Q 2381 391 2643 752 
Q 2906 1113 2906 1747 
Q 2906 2381 2643 2742 
Q 2381 3103 1925 3103 
Q 1469 3103 1208 2742 
Q 947 2381 947 1747 
z
" transform="scale(0.015625)"/>
      </defs>
      <use xlink:href="#DejaVuSans-64"/>
      <use xlink:href="#DejaVuSans-65" x="63.476562"/>
      <use xlink:href="#DejaVuSans-69" x="125"/>
      <use xlink:href="#DejaVuSans-74" x="152.783203"/>
      <use xlink:href="#DejaVuSans-5f" x="191.992188"/>
      <use xlink:href="#DejaVuSans-62" x="241.992188"/>
      <use xlink:href="#DejaVuSans-5f" x="305.46875"/>
      <use xlink:href="#DejaVuSans-31" x="355.46875"/>
      <use xlink:href="#DejaVuSans-36" x="419.091797"/>
     </g>
    </g>
    <g id="line2d_39">
     <path d="M 138.107812 224.329687 
L 148.107812 224.329687 
L 158.107812 224.329687 
" style="fill: none; stroke-dasharray: 5.55,2.4; stroke-dashoffset: 0; stroke: #9467bd; stroke-width: 1.5"/>
    </g>
    <g id="text_20">
     <!-- vgg19 -->
     <g transform="translate(166.107812 227.829687)scale(0.1 -0.1)">
      <defs>
       <path id="DejaVuSans-67" d="M 2906 1791 
Q 2906 2416 2648 2759 
Q 2391 3103 1925 3103 
Q 1463 3103 1205 2759 
Q 947 2416 947 1791 
Q 947 1169 1205 825 
Q 1463 481 1925 481 
Q 2391 481 2648 825 
Q 2906 1169 2906 1791 
z
M 3481 434 
Q 3481 -459 3084 -895 
Q 2688 -1331 1869 -1331 
Q 1566 -1331 1297 -1286 
Q 1028 -1241 775 -1147 
L 775 -588 
Q 1028 -725 1275 -790 
Q 1522 -856 1778 -856 
Q 2344 -856 2625 -561 
Q 2906 -266 2906 331 
L 2906 616 
Q 2728 306 2450 153 
Q 2172 0 1784 0 
Q 1141 0 747 490 
Q 353 981 353 1791 
Q 353 2603 747 3093 
Q 1141 3584 1784 3584 
Q 2172 3584 2450 3431 
Q 2728 3278 2906 2969 
L 2906 3500 
L 3481 3500 
L 3481 434 
z
" transform="scale(0.015625)"/>
      </defs>
      <use xlink:href="#DejaVuSans-76"/>
      <use xlink:href="#DejaVuSans-67" x="59.179688"/>
      <use xlink:href="#DejaVuSans-67" x="122.65625"/>
      <use xlink:href="#DejaVuSans-31" x="186.132812"/>
      <use xlink:href="#DejaVuSans-39" x="249.755859"/>
     </g>
    </g>
    <g id="line2d_40">
     <path d="M 138.107812 239.007812 
L 148.107812 239.007812 
L 158.107812 239.007812 
" style="fill: none; stroke-dasharray: 5.55,2.4; stroke-dashoffset: 0; stroke: #8c564b; stroke-width: 1.5"/>
    </g>
    <g id="text_21">
     <!-- resnet50 -->
     <g transform="translate(166.107812 242.507812)scale(0.1 -0.1)">
      <use xlink:href="#DejaVuSans-72"/>
      <use xlink:href="#DejaVuSans-65" x="38.863281"/>
      <use xlink:href="#DejaVuSans-73" x="100.386719"/>
      <use xlink:href="#DejaVuSans-6e" x="152.486328"/>
      <use xlink:href="#DejaVuSans-65" x="215.865234"/>
      <use xlink:href="#DejaVuSans-74" x="277.388672"/>
      <use xlink:href="#DejaVuSans-35" x="316.597656"/>
      <use xlink:href="#DejaVuSans-30" x="380.220703"/>
     </g>
    </g>
    <g id="line2d_41">
     <path d="M 138.107812 253.685938 
L 148.107812 253.685938 
L 158.107812 253.685938 
" style="fill: none; stroke-dasharray: 5.55,2.4; stroke-dashoffset: 0; stroke: #e377c2; stroke-width: 1.5"/>
    </g>
    <g id="text_22">
     <!-- efficientnetv2_m -->
     <g transform="translate(166.107812 257.185938)scale(0.1 -0.1)">
      <defs>
       <path id="DejaVuSans-66" d="M 2375 4863 
L 2375 4384 
L 1825 4384 
Q 1516 4384 1395 4259 
Q 1275 4134 1275 3809 
L 1275 3500 
L 2222 3500 
L 2222 3053 
L 1275 3053 
L 1275 0 
L 697 0 
L 697 3053 
L 147 3053 
L 147 3500 
L 697 3500 
L 697 3744 
Q 697 4328 969 4595 
Q 1241 4863 1831 4863 
L 2375 4863 
z
" transform="scale(0.015625)"/>
       <path id="DejaVuSans-6d" d="M 3328 2828 
Q 3544 3216 3844 3400 
Q 4144 3584 4550 3584 
Q 5097 3584 5394 3201 
Q 5691 2819 5691 2113 
L 5691 0 
L 5113 0 
L 5113 2094 
Q 5113 2597 4934 2840 
Q 4756 3084 4391 3084 
Q 3944 3084 3684 2787 
Q 3425 2491 3425 1978 
L 3425 0 
L 2847 0 
L 2847 2094 
Q 2847 2600 2669 2842 
Q 2491 3084 2119 3084 
Q 1678 3084 1418 2786 
Q 1159 2488 1159 1978 
L 1159 0 
L 581 0 
L 581 3500 
L 1159 3500 
L 1159 2956 
Q 1356 3278 1631 3431 
Q 1906 3584 2284 3584 
Q 2666 3584 2933 3390 
Q 3200 3197 3328 2828 
z
" transform="scale(0.015625)"/>
      </defs>
      <use xlink:href="#DejaVuSans-65"/>
      <use xlink:href="#DejaVuSans-66" x="61.523438"/>
      <use xlink:href="#DejaVuSans-66" x="96.728516"/>
      <use xlink:href="#DejaVuSans-69" x="131.933594"/>
      <use xlink:href="#DejaVuSans-63" x="159.716797"/>
      <use xlink:href="#DejaVuSans-69" x="214.697266"/>
      <use xlink:href="#DejaVuSans-65" x="242.480469"/>
      <use xlink:href="#DejaVuSans-6e" x="304.003906"/>
      <use xlink:href="#DejaVuSans-74" x="367.382812"/>
      <use xlink:href="#DejaVuSans-6e" x="406.591797"/>
      <use xlink:href="#DejaVuSans-65" x="469.970703"/>
      <use xlink:href="#DejaVuSans-74" x="531.494141"/>
      <use xlink:href="#DejaVuSans-76" x="570.703125"/>
      <use xlink:href="#DejaVuSans-32" x="629.882812"/>
      <use xlink:href="#DejaVuSans-5f" x="693.505859"/>
      <use xlink:href="#DejaVuSans-6d" x="743.505859"/>
     </g>
    </g>
    <g id="line2d_42">
     <path d="M 138.107812 268.642187 
L 148.107812 268.642187 
L 158.107812 268.642187 
" style="fill: none; stroke-dasharray: 5.55,2.4; stroke-dashoffset: 0; stroke: #7f7f7f; stroke-width: 1.5"/>
    </g>
    <g id="text_23">
     <!-- convnext_b -->
     <g transform="translate(166.107812 272.142187)scale(0.1 -0.1)">
      <defs>
       <path id="DejaVuSans-78" d="M 3513 3500 
L 2247 1797 
L 3578 0 
L 2900 0 
L 1881 1375 
L 863 0 
L 184 0 
L 1544 1831 
L 300 3500 
L 978 3500 
L 1906 2253 
L 2834 3500 
L 3513 3500 
z
" transform="scale(0.015625)"/>
      </defs>
      <use xlink:href="#DejaVuSans-63"/>
      <use xlink:href="#DejaVuSans-6f" x="54.980469"/>
      <use xlink:href="#DejaVuSans-6e" x="116.162109"/>
      <use xlink:href="#DejaVuSans-76" x="179.541016"/>
      <use xlink:href="#DejaVuSans-6e" x="238.720703"/>
      <use xlink:href="#DejaVuSans-65" x="302.099609"/>
      <use xlink:href="#DejaVuSans-78" x="361.873047"/>
      <use xlink:href="#DejaVuSans-74" x="421.052734"/>
      <use xlink:href="#DejaVuSans-5f" x="460.261719"/>
      <use xlink:href="#DejaVuSans-62" x="510.261719"/>
     </g>
    </g>
   </g>
  </g>
 </g>
 <defs>
  <clipPath id="p7c6be27b28">
   <rect x="36" y="38.88" width="223.2" height="244.62"/>
  </clipPath>
 </defs>
</svg>
