<?xml version="1.0" encoding="utf-8" standalone="no"?>
<!DOCTYPE svg PUBLIC "-//W3C//DTD SVG 1.1//EN"
  "http://www.w3.org/Graphics/SVG/1.1/DTD/svg11.dtd">
<svg xmlns:xlink="http://www.w3.org/1999/xlink" width="360pt" height="432pt" viewBox="0 0 360 432" xmlns="http://www.w3.org/2000/svg" version="1.1">
 <metadata>
  <rdf:RDF xmlns:dc="http://purl.org/dc/elements/1.1/" xmlns:cc="http://creativecommons.org/ns#" xmlns:rdf="http://www.w3.org/1999/02/22-rdf-syntax-ns#">
   <cc:Work>
    <dc:type rdf:resource="http://purl.org/dc/dcmitype/StillImage"/>
    <dc:date>2022-05-27T06:40:58.302968</dc:date>
    <dc:format>image/svg+xml</dc:format>
    <dc:creator>
     <cc:Agent>
      <dc:title>Matplotlib v3.5.2, https://matplotlib.org/</dc:title>
     </cc:Agent>
    </dc:creator>
   </cc:Work>
  </rdf:RDF>
 </metadata>
 <defs>
  <style type="text/css">*{stroke-linejoin: round; stroke-linecap: butt}</style>
 </defs>
 <g id="figure_1">
  <g id="patch_1">
   <path d="M 0 432 
L 360 432 
L 360 0 
L 0 0 
L 0 432 
z
" style="fill: none"/>
  </g>
  <g id="axes_1">
   <g id="patch_2">
    <path d="M 45 378 
L 324 378 
L 324 51.84 
L 45 51.84 
z
" style="fill: #ffffff"/>
   </g>
   <g id="PolyCollection_1">
    <path d="M 57.681818 -96.968731 
L 57.681818 -39.85728 
L 66.136364 85.153484 
L 74.590909 139.318644 
L 83.045455 178.998336 
L 91.5 185.588792 
L 99.954545 189.540374 
L 108.409091 202.439891 
L 116.863636 221.902383 
L 125.318182 228.425226 
L 133.772727 211.904157 
L 142.227273 220.73886 
L 150.681818 217.026375 
L 159.136364 223.919104 
L 167.590909 249.851394 
L 176.045455 262.585528 
L 184.5 260.466294 
L 192.954545 254.900826 
L 201.409091 254.672368 
L 209.863636 257.356335 
L 218.318182 262.647493 
L 226.772727 264.156513 
L 235.227273 267.32902 
L 243.681818 266.565672 
L 252.136364 268.907987 
L 260.590909 270.469322 
L 269.045455 270.642917 
L 277.5 269.314431 
L 285.954545 271.747788 
L 285.954545 254.190021 
L 285.954545 254.190021 
L 277.5 253.227308 
L 269.045455 253.707313 
L 260.590909 253.455949 
L 252.136364 253.072502 
L 243.681818 250.194789 
L 235.227273 251.756148 
L 226.772727 247.450568 
L 218.318182 244.336065 
L 209.863636 238.204172 
L 201.409091 207.179651 
L 192.954545 235.111405 
L 184.5 242.242358 
L 176.045455 245.339493 
L 167.590909 226.332294 
L 159.136364 180.197349 
L 150.681818 188.784882 
L 142.227273 199.493052 
L 133.772727 192.336038 
L 125.318182 199.880827 
L 116.863636 191.755024 
L 108.409091 187.654516 
L 99.954545 157.042114 
L 91.5 156.217524 
L 83.045455 149.638097 
L 74.590909 104.164319 
L 66.136364 72.621209 
L 57.681818 -96.968731 
z
" clip-path="url(#p6706f9481d)" style="fill: #1f77b4; fill-opacity: 0.2"/>
   </g>
   <g id="PolyCollection_2">
    <path d="M 57.681818 121.692339 
L 57.681818 151.043773 
L 66.136364 237.511913 
L 74.590909 262.037469 
L 83.045455 291.551721 
L 91.5 297.6386 
L 99.954545 307.130532 
L 108.409091 297.933124 
L 116.863636 311.345473 
L 125.318182 320.780983 
L 133.772727 321.704525 
L 142.227273 316.803555 
L 150.681818 344.097367 
L 159.136364 336.105232 
L 167.590909 342.855275 
L 176.045455 327.324298 
L 184.5 344.694961 
L 192.954545 329.516382 
L 201.409091 335.88532 
L 209.863636 335.124164 
L 218.318182 343.278092 
L 226.772727 342.48201 
L 235.227273 345.654093 
L 243.681818 344.46957 
L 252.136364 338.450052 
L 260.590909 342.401827 
L 269.045455 342.694354 
L 269.045455 321.683182 
L 269.045455 321.683182 
L 260.590909 319.183322 
L 252.136364 316.58023 
L 243.681818 316.67455 
L 235.227273 324.74323 
L 226.772727 323.808428 
L 218.318182 326.363233 
L 209.863636 315.253492 
L 201.409091 316.053086 
L 192.954545 311.981141 
L 184.5 313.504439 
L 176.045455 291.043987 
L 167.590909 308.534871 
L 159.136364 289.083776 
L 150.681818 315.782225 
L 142.227273 269.04219 
L 133.772727 285.071586 
L 125.318182 282.952042 
L 116.863636 269.658516 
L 108.409091 258.931208 
L 99.954545 274.903505 
L 91.5 258.155522 
L 83.045455 242.72256 
L 74.590909 217.190597 
L 66.136364 203.088197 
L 57.681818 121.692339 
z
" clip-path="url(#p6706f9481d)" style="fill: #ff7f0e; fill-opacity: 0.2"/>
   </g>
   <g id="PolyCollection_3">
    <path d="M 57.681818 -301.264052 
L 57.681818 -46.717155 
L 66.136364 90.010492 
L 74.590909 171.124883 
L 83.045455 173.203768 
L 91.5 193.120593 
L 99.954545 171.733814 
L 108.409091 175.547094 
L 116.863636 205.425279 
L 125.318182 212.419658 
L 133.772727 215.257352 
L 142.227273 231.997527 
L 150.681818 232.44725 
L 159.136364 237.760842 
L 167.590909 242.243003 
L 176.045455 244.073251 
L 184.5 237.167202 
L 192.954545 241.967157 
L 201.409091 243.902416 
L 209.863636 245.391463 
L 218.318182 246.40227 
L 226.772727 245.212483 
L 226.772727 199.301503 
L 226.772727 199.301503 
L 218.318182 201.115049 
L 209.863636 200.616036 
L 201.409091 201.193762 
L 192.954545 195.659903 
L 184.5 192.056867 
L 176.045455 202.247688 
L 167.590909 197.487707 
L 159.136364 196.80586 
L 150.681818 192.975332 
L 142.227273 139.32053 
L 133.772727 137.390928 
L 125.318182 133.626026 
L 116.863636 152.210242 
L 108.409091 122.75977 
L 99.954545 112.825459 
L 91.5 119.536819 
L 83.045455 102.639037 
L 74.590909 69.758107 
L 66.136364 -53.469128 
L 57.681818 -301.264052 
z
" clip-path="url(#p6706f9481d)" style="fill: #2ca02c; fill-opacity: 0.2"/>
   </g>
   <g id="PolyCollection_4">
    <path d="M 57.681818 -9.36529 
L 57.681818 31.880358 
L 66.136364 134.120709 
L 74.590909 169.352097 
L 83.045455 197.020713 
L 91.5 202.827996 
L 99.954545 212.956193 
L 108.409091 214.517985 
L 116.863636 218.02026 
L 125.318182 203.705836 
L 133.772727 239.146648 
L 142.227273 248.067199 
L 150.681818 253.383903 
L 159.136364 257.648825 
L 167.590909 248.832352 
L 176.045455 265.643896 
L 184.5 265.613289 
L 192.954545 270.638772 
L 201.409091 268.489214 
L 209.863636 270.203247 
L 218.318182 264.290849 
L 226.772727 275.971016 
L 235.227273 272.967044 
L 235.227273 228.219379 
L 235.227273 228.219379 
L 226.772727 233.239726 
L 218.318182 206.883971 
L 209.863636 235.268203 
L 201.409091 221.861181 
L 192.954545 233.753046 
L 184.5 226.146448 
L 176.045455 234.028694 
L 167.590909 223.60946 
L 159.136364 211.217229 
L 150.681818 195.459029 
L 142.227273 187.648929 
L 133.772727 192.783271 
L 125.318182 171.070275 
L 116.863636 180.527171 
L 108.409091 176.453361 
L 99.954545 158.64369 
L 91.5 161.041966 
L 83.045455 141.30995 
L 74.590909 119.780084 
L 66.136364 75.085048 
L 57.681818 -9.36529 
z
" clip-path="url(#p6706f9481d)" style="fill: #d62728; fill-opacity: 0.2"/>
   </g>
   <g id="PolyCollection_5">
    <path d="M 57.681818 -248.148618 
L 57.681818 -152.434403 
L 66.136364 30.09084 
L 74.590909 70.089881 
L 83.045455 106.964218 
L 91.5 124.014979 
L 99.954545 140.301379 
L 108.409091 176.318235 
L 116.863636 209.266987 
L 125.318182 184.806324 
L 133.772727 169.025793 
L 142.227273 196.587417 
L 150.681818 252.230642 
L 159.136364 256.031962 
L 167.590909 268.643418 
L 176.045455 274.366193 
L 184.5 263.334976 
L 192.954545 272.728905 
L 201.409091 279.556498 
L 209.863636 280.705116 
L 218.318182 273.576547 
L 226.772727 285.802963 
L 235.227273 289.463618 
L 243.681818 283.261177 
L 252.136364 284.040739 
L 260.590909 284.417571 
L 269.045455 284.349173 
L 277.5 285.267067 
L 285.954545 284.571635 
L 294.409091 285.96558 
L 302.863636 285.049783 
L 311.318182 284.984821 
L 311.318182 249.32652 
L 311.318182 249.32652 
L 302.863636 249.050646 
L 294.409091 249.925162 
L 285.954545 250.307381 
L 277.5 250.435604 
L 269.045455 248.040101 
L 260.590909 249.38868 
L 252.136364 248.190983 
L 243.681818 248.519684 
L 235.227273 253.394924 
L 226.772727 251.362768 
L 218.318182 243.199546 
L 209.863636 245.292993 
L 201.409091 239.325095 
L 192.954545 235.040115 
L 184.5 231.62407 
L 176.045455 241.867244 
L 167.590909 219.170905 
L 159.136364 202.516184 
L 150.681818 197.670254 
L 142.227273 158.397844 
L 133.772727 92.106667 
L 125.318182 160.977966 
L 116.863636 155.431325 
L 108.409091 145.275923 
L 99.954545 105.414465 
L 91.5 63.451461 
L 83.045455 46.402881 
L 74.590909 4.816303 
L 66.136364 -80.017294 
L 57.681818 -248.148618 
z
" clip-path="url(#p6706f9481d)" style="fill: #9467bd; fill-opacity: 0.2"/>
   </g>
   <g id="PolyCollection_6">
    <path d="M 57.681818 47.882684 
L 57.681818 86.921741 
L 66.136364 174.285898 
L 74.590909 200.407099 
L 83.045455 226.857951 
L 91.5 227.32721 
L 99.954545 241.582948 
L 108.409091 257.188861 
L 116.863636 281.129285 
L 125.318182 274.877901 
L 133.772727 290.810024 
L 142.227273 290.700977 
L 150.681818 301.591893 
L 159.136364 300.148437 
L 167.590909 317.23192 
L 176.045455 324.999464 
L 184.5 324.972084 
L 192.954545 330.506757 
L 201.409091 324.5272 
L 209.863636 339.638946 
L 218.318182 341.494524 
L 226.772727 334.449174 
L 235.227273 336.49254 
L 243.681818 337.796368 
L 252.136364 336.535094 
L 260.590909 339.737976 
L 269.045455 339.7003 
L 277.5 342.512005 
L 285.954545 340.446752 
L 294.409091 338.515646 
L 302.863636 337.903302 
L 302.863636 312.501559 
L 302.863636 312.501559 
L 294.409091 315.762947 
L 285.954545 314.592675 
L 277.5 313.521166 
L 269.045455 312.379107 
L 260.590909 313.747441 
L 252.136364 313.860691 
L 243.681818 313.499175 
L 235.227273 315.286372 
L 226.772727 314.352523 
L 218.318182 314.991356 
L 209.863636 311.675803 
L 201.409091 305.307842 
L 192.954545 302.472548 
L 184.5 301.21344 
L 176.045455 294.178573 
L 167.590909 289.030468 
L 159.136364 283.901651 
L 150.681818 285.003266 
L 142.227273 238.855102 
L 133.772727 238.921584 
L 125.318182 234.375062 
L 116.863636 250.024917 
L 108.409091 206.212197 
L 99.954545 208.715493 
L 91.5 173.074499 
L 83.045455 193.064096 
L 74.590909 178.29738 
L 66.136364 150.387818 
L 57.681818 47.882684 
z
" clip-path="url(#p6706f9481d)" style="fill: #8c564b; fill-opacity: 0.2"/>
   </g>
   <g id="PolyCollection_7">
    <path d="M 57.681818 -85.6567 
L 57.681818 -70.139017 
L 66.136364 155.161577 
L 74.590909 236.448423 
L 83.045455 266.890455 
L 91.5 279.817453 
L 99.954545 288.100019 
L 108.409091 281.48511 
L 116.863636 281.282809 
L 125.318182 269.618224 
L 133.772727 277.934482 
L 142.227273 289.579471 
L 150.681818 300.671045 
L 159.136364 301.53154 
L 167.590909 287.924787 
L 176.045455 288.14161 
L 184.5 284.794154 
L 192.954545 291.936738 
L 201.409091 298.013877 
L 209.863636 294.035851 
L 218.318182 297.649167 
L 226.772727 299.835177 
L 235.227273 294.914828 
L 235.227273 264.672167 
L 235.227273 264.672167 
L 226.772727 265.612639 
L 218.318182 261.358653 
L 209.863636 259.469256 
L 201.409091 280.650093 
L 192.954545 273.950221 
L 184.5 267.223843 
L 176.045455 269.721589 
L 167.590909 268.093444 
L 159.136364 273.556864 
L 150.681818 275.682736 
L 142.227273 264.924599 
L 133.772727 257.274514 
L 125.318182 250.380654 
L 116.863636 254.676142 
L 108.409091 235.749318 
L 99.954545 257.068666 
L 91.5 254.127206 
L 83.045455 235.526653 
L 74.590909 204.213879 
L 66.136364 122.255163 
L 57.681818 -85.6567 
z
" clip-path="url(#p6706f9481d)" style="fill: #e377c2; fill-opacity: 0.2"/>
   </g>
   <g id="PolyCollection_8">
    <path d="M 57.681818 129.584137 
L 57.681818 159.695869 
L 66.136364 286.63502 
L 74.590909 310.61647 
L 83.045455 326.419709 
L 91.5 319.312784 
L 99.954545 311.452598 
L 108.409091 308.661145 
L 116.863636 319.333516 
L 125.318182 312.183211 
L 133.772727 331.615386 
L 142.227273 321.846722 
L 150.681818 317.74326 
L 159.136364 321.417372 
L 167.590909 324.806679 
L 167.590909 303.904858 
L 167.590909 303.904858 
L 159.136364 300.322341 
L 150.681818 291.21477 
L 142.227273 290.362803 
L 133.772727 305.09037 
L 125.318182 287.819736 
L 116.863636 292.820779 
L 108.409091 276.875758 
L 99.954545 287.23681 
L 91.5 282.029323 
L 83.045455 291.297526 
L 74.590909 284.473974 
L 66.136364 255.815364 
L 57.681818 129.584137 
z
" clip-path="url(#p6706f9481d)" style="fill: #7f7f7f; fill-opacity: 0.2"/>
   </g>
   <g id="matplotlib.axis_1">
    <g id="xtick_1">
     <g id="line2d_1">
      <path d="M 49.227273 378 
L 49.227273 51.84 
" clip-path="url(#p6706f9481d)" style="fill: none; stroke: #b0b0b0; stroke-width: 0.8; stroke-linecap: square"/>
     </g>
     <g id="line2d_2">
      <defs>
       <path id="m8b8ff43b46" d="M 0 0 
L 0 3.5 
" style="stroke: #000000; stroke-width: 0.8"/>
      </defs>
      <g>
       <use xlink:href="#m8b8ff43b46" x="49.227273" y="378" style="stroke: #000000; stroke-width: 0.8"/>
      </g>
     </g>
     <g id="text_1">
      <!-- 0 -->
      <g transform="translate(46.046023 392.598437)scale(0.1 -0.1)">
       <defs>
        <path id="DejaVuSans-30" d="M 2034 4250 
Q 1547 4250 1301 3770 
Q 1056 3291 1056 2328 
Q 1056 1369 1301 889 
Q 1547 409 2034 409 
Q 2525 409 2770 889 
Q 3016 1369 3016 2328 
Q 3016 3291 2770 3770 
Q 2525 4250 2034 4250 
z
M 2034 4750 
Q 2819 4750 3233 4129 
Q 3647 3509 3647 2328 
Q 3647 1150 3233 529 
Q 2819 -91 2034 -91 
Q 1250 -91 836 529 
Q 422 1150 422 2328 
Q 422 3509 836 4129 
Q 1250 4750 2034 4750 
z
" transform="scale(0.015625)"/>
       </defs>
       <use xlink:href="#DejaVuSans-30"/>
      </g>
     </g>
    </g>
    <g id="xtick_2">
     <g id="line2d_3">
      <path d="M 91.5 378 
L 91.5 51.84 
" clip-path="url(#p6706f9481d)" style="fill: none; stroke: #b0b0b0; stroke-width: 0.8; stroke-linecap: square"/>
     </g>
     <g id="line2d_4">
      <g>
       <use xlink:href="#m8b8ff43b46" x="91.5" y="378" style="stroke: #000000; stroke-width: 0.8"/>
      </g>
     </g>
     <g id="text_2">
      <!-- 5 -->
      <g transform="translate(88.31875 392.598437)scale(0.1 -0.1)">
       <defs>
        <path id="DejaVuSans-35" d="M 691 4666 
L 3169 4666 
L 3169 4134 
L 1269 4134 
L 1269 2991 
Q 1406 3038 1543 3061 
Q 1681 3084 1819 3084 
Q 2600 3084 3056 2656 
Q 3513 2228 3513 1497 
Q 3513 744 3044 326 
Q 2575 -91 1722 -91 
Q 1428 -91 1123 -41 
Q 819 9 494 109 
L 494 744 
Q 775 591 1075 516 
Q 1375 441 1709 441 
Q 2250 441 2565 725 
Q 2881 1009 2881 1497 
Q 2881 1984 2565 2268 
Q 2250 2553 1709 2553 
Q 1456 2553 1204 2497 
Q 953 2441 691 2322 
L 691 4666 
z
" transform="scale(0.015625)"/>
       </defs>
       <use xlink:href="#DejaVuSans-35"/>
      </g>
     </g>
    </g>
    <g id="xtick_3">
     <g id="line2d_5">
      <path d="M 133.772727 378 
L 133.772727 51.84 
" clip-path="url(#p6706f9481d)" style="fill: none; stroke: #b0b0b0; stroke-width: 0.8; stroke-linecap: square"/>
     </g>
     <g id="line2d_6">
      <g>
       <use xlink:href="#m8b8ff43b46" x="133.772727" y="378" style="stroke: #000000; stroke-width: 0.8"/>
      </g>
     </g>
     <g id="text_3">
      <!-- 10 -->
      <g transform="translate(127.410227 392.598437)scale(0.1 -0.1)">
       <defs>
        <path id="DejaVuSans-31" d="M 794 531 
L 1825 531 
L 1825 4091 
L 703 3866 
L 703 4441 
L 1819 4666 
L 2450 4666 
L 2450 531 
L 3481 531 
L 3481 0 
L 794 0 
L 794 531 
z
" transform="scale(0.015625)"/>
       </defs>
       <use xlink:href="#DejaVuSans-31"/>
       <use xlink:href="#DejaVuSans-30" x="63.623047"/>
      </g>
     </g>
    </g>
    <g id="xtick_4">
     <g id="line2d_7">
      <path d="M 176.045455 378 
L 176.045455 51.84 
" clip-path="url(#p6706f9481d)" style="fill: none; stroke: #b0b0b0; stroke-width: 0.8; stroke-linecap: square"/>
     </g>
     <g id="line2d_8">
      <g>
       <use xlink:href="#m8b8ff43b46" x="176.045455" y="378" style="stroke: #000000; stroke-width: 0.8"/>
      </g>
     </g>
     <g id="text_4">
      <!-- 15 -->
      <g transform="translate(169.682955 392.598437)scale(0.1 -0.1)">
       <use xlink:href="#DejaVuSans-31"/>
       <use xlink:href="#DejaVuSans-35" x="63.623047"/>
      </g>
     </g>
    </g>
    <g id="xtick_5">
     <g id="line2d_9">
      <path d="M 218.318182 378 
L 218.318182 51.84 
" clip-path="url(#p6706f9481d)" style="fill: none; stroke: #b0b0b0; stroke-width: 0.8; stroke-linecap: square"/>
     </g>
     <g id="line2d_10">
      <g>
       <use xlink:href="#m8b8ff43b46" x="218.318182" y="378" style="stroke: #000000; stroke-width: 0.8"/>
      </g>
     </g>
     <g id="text_5">
      <!-- 20 -->
      <g transform="translate(211.955682 392.598437)scale(0.1 -0.1)">
       <defs>
        <path id="DejaVuSans-32" d="M 1228 531 
L 3431 531 
L 3431 0 
L 469 0 
L 469 531 
Q 828 903 1448 1529 
Q 2069 2156 2228 2338 
Q 2531 2678 2651 2914 
Q 2772 3150 2772 3378 
Q 2772 3750 2511 3984 
Q 2250 4219 1831 4219 
Q 1534 4219 1204 4116 
Q 875 4013 500 3803 
L 500 4441 
Q 881 4594 1212 4672 
Q 1544 4750 1819 4750 
Q 2544 4750 2975 4387 
Q 3406 4025 3406 3419 
Q 3406 3131 3298 2873 
Q 3191 2616 2906 2266 
Q 2828 2175 2409 1742 
Q 1991 1309 1228 531 
z
" transform="scale(0.015625)"/>
       </defs>
       <use xlink:href="#DejaVuSans-32"/>
       <use xlink:href="#DejaVuSans-30" x="63.623047"/>
      </g>
     </g>
    </g>
    <g id="xtick_6">
     <g id="line2d_11">
      <path d="M 260.590909 378 
L 260.590909 51.84 
" clip-path="url(#p6706f9481d)" style="fill: none; stroke: #b0b0b0; stroke-width: 0.8; stroke-linecap: square"/>
     </g>
     <g id="line2d_12">
      <g>
       <use xlink:href="#m8b8ff43b46" x="260.590909" y="378" style="stroke: #000000; stroke-width: 0.8"/>
      </g>
     </g>
     <g id="text_6">
      <!-- 25 -->
      <g transform="translate(254.228409 392.598437)scale(0.1 -0.1)">
       <use xlink:href="#DejaVuSans-32"/>
       <use xlink:href="#DejaVuSans-35" x="63.623047"/>
      </g>
     </g>
    </g>
    <g id="xtick_7">
     <g id="line2d_13">
      <path d="M 302.863636 378 
L 302.863636 51.84 
" clip-path="url(#p6706f9481d)" style="fill: none; stroke: #b0b0b0; stroke-width: 0.8; stroke-linecap: square"/>
     </g>
     <g id="line2d_14">
      <g>
       <use xlink:href="#m8b8ff43b46" x="302.863636" y="378" style="stroke: #000000; stroke-width: 0.8"/>
      </g>
     </g>
     <g id="text_7">
      <!-- 30 -->
      <g transform="translate(296.501136 392.598437)scale(0.1 -0.1)">
       <defs>
        <path id="DejaVuSans-33" d="M 2597 2516 
Q 3050 2419 3304 2112 
Q 3559 1806 3559 1356 
Q 3559 666 3084 287 
Q 2609 -91 1734 -91 
Q 1441 -91 1130 -33 
Q 819 25 488 141 
L 488 750 
Q 750 597 1062 519 
Q 1375 441 1716 441 
Q 2309 441 2620 675 
Q 2931 909 2931 1356 
Q 2931 1769 2642 2001 
Q 2353 2234 1838 2234 
L 1294 2234 
L 1294 2753 
L 1863 2753 
Q 2328 2753 2575 2939 
Q 2822 3125 2822 3475 
Q 2822 3834 2567 4026 
Q 2313 4219 1838 4219 
Q 1578 4219 1281 4162 
Q 984 4106 628 3988 
L 628 4550 
Q 988 4650 1302 4700 
Q 1616 4750 1894 4750 
Q 2613 4750 3031 4423 
Q 3450 4097 3450 3541 
Q 3450 3153 3228 2886 
Q 3006 2619 2597 2516 
z
" transform="scale(0.015625)"/>
       </defs>
       <use xlink:href="#DejaVuSans-33"/>
       <use xlink:href="#DejaVuSans-30" x="63.623047"/>
      </g>
     </g>
    </g>
    <g id="text_8">
     <!-- Epochs -->
     <g transform="translate(166.584375 406.276563)scale(0.1 -0.1)">
      <defs>
       <path id="DejaVuSans-45" d="M 628 4666 
L 3578 4666 
L 3578 4134 
L 1259 4134 
L 1259 2753 
L 3481 2753 
L 3481 2222 
L 1259 2222 
L 1259 531 
L 3634 531 
L 3634 0 
L 628 0 
L 628 4666 
z
" transform="scale(0.015625)"/>
       <path id="DejaVuSans-70" d="M 1159 525 
L 1159 -1331 
L 581 -1331 
L 581 3500 
L 1159 3500 
L 1159 2969 
Q 1341 3281 1617 3432 
Q 1894 3584 2278 3584 
Q 2916 3584 3314 3078 
Q 3713 2572 3713 1747 
Q 3713 922 3314 415 
Q 2916 -91 2278 -91 
Q 1894 -91 1617 61 
Q 1341 213 1159 525 
z
M 3116 1747 
Q 3116 2381 2855 2742 
Q 2594 3103 2138 3103 
Q 1681 3103 1420 2742 
Q 1159 2381 1159 1747 
Q 1159 1113 1420 752 
Q 1681 391 2138 391 
Q 2594 391 2855 752 
Q 3116 1113 3116 1747 
z
" transform="scale(0.015625)"/>
       <path id="DejaVuSans-6f" d="M 1959 3097 
Q 1497 3097 1228 2736 
Q 959 2375 959 1747 
Q 959 1119 1226 758 
Q 1494 397 1959 397 
Q 2419 397 2687 759 
Q 2956 1122 2956 1747 
Q 2956 2369 2687 2733 
Q 2419 3097 1959 3097 
z
M 1959 3584 
Q 2709 3584 3137 3096 
Q 3566 2609 3566 1747 
Q 3566 888 3137 398 
Q 2709 -91 1959 -91 
Q 1206 -91 779 398 
Q 353 888 353 1747 
Q 353 2609 779 3096 
Q 1206 3584 1959 3584 
z
" transform="scale(0.015625)"/>
       <path id="DejaVuSans-63" d="M 3122 3366 
L 3122 2828 
Q 2878 2963 2633 3030 
Q 2388 3097 2138 3097 
Q 1578 3097 1268 2742 
Q 959 2388 959 1747 
Q 959 1106 1268 751 
Q 1578 397 2138 397 
Q 2388 397 2633 464 
Q 2878 531 3122 666 
L 3122 134 
Q 2881 22 2623 -34 
Q 2366 -91 2075 -91 
Q 1284 -91 818 406 
Q 353 903 353 1747 
Q 353 2603 823 3093 
Q 1294 3584 2113 3584 
Q 2378 3584 2631 3529 
Q 2884 3475 3122 3366 
z
" transform="scale(0.015625)"/>
       <path id="DejaVuSans-68" d="M 3513 2113 
L 3513 0 
L 2938 0 
L 2938 2094 
Q 2938 2591 2744 2837 
Q 2550 3084 2163 3084 
Q 1697 3084 1428 2787 
Q 1159 2491 1159 1978 
L 1159 0 
L 581 0 
L 581 4863 
L 1159 4863 
L 1159 2956 
Q 1366 3272 1645 3428 
Q 1925 3584 2291 3584 
Q 2894 3584 3203 3211 
Q 3513 2838 3513 2113 
z
" transform="scale(0.015625)"/>
       <path id="DejaVuSans-73" d="M 2834 3397 
L 2834 2853 
Q 2591 2978 2328 3040 
Q 2066 3103 1784 3103 
Q 1356 3103 1142 2972 
Q 928 2841 928 2578 
Q 928 2378 1081 2264 
Q 1234 2150 1697 2047 
L 1894 2003 
Q 2506 1872 2764 1633 
Q 3022 1394 3022 966 
Q 3022 478 2636 193 
Q 2250 -91 1575 -91 
Q 1294 -91 989 -36 
Q 684 19 347 128 
L 347 722 
Q 666 556 975 473 
Q 1284 391 1588 391 
Q 1994 391 2212 530 
Q 2431 669 2431 922 
Q 2431 1156 2273 1281 
Q 2116 1406 1581 1522 
L 1381 1569 
Q 847 1681 609 1914 
Q 372 2147 372 2553 
Q 372 3047 722 3315 
Q 1072 3584 1716 3584 
Q 2034 3584 2315 3537 
Q 2597 3491 2834 3397 
z
" transform="scale(0.015625)"/>
      </defs>
      <use xlink:href="#DejaVuSans-45"/>
      <use xlink:href="#DejaVuSans-70" x="63.183594"/>
      <use xlink:href="#DejaVuSans-6f" x="126.660156"/>
      <use xlink:href="#DejaVuSans-63" x="187.841797"/>
      <use xlink:href="#DejaVuSans-68" x="242.822266"/>
      <use xlink:href="#DejaVuSans-73" x="306.201172"/>
     </g>
    </g>
   </g>
   <g id="matplotlib.axis_2">
    <g id="ytick_1">
     <g id="line2d_15">
      <path d="M 45 358.762698 
L 324 358.762698 
" clip-path="url(#p6706f9481d)" style="fill: none; stroke: #b0b0b0; stroke-width: 0.8; stroke-linecap: square"/>
     </g>
     <g id="line2d_16">
      <defs>
       <path id="me9bc586e62" d="M 0 0 
L -3.5 0 
" style="stroke: #000000; stroke-width: 0.8"/>
      </defs>
      <g>
       <use xlink:href="#me9bc586e62" x="45" y="358.762698" style="stroke: #000000; stroke-width: 0.8"/>
      </g>
     </g>
     <g id="text_9">
      <!-- 0.95 -->
      <g transform="translate(15.734375 362.561917)scale(0.1 -0.1)">
       <defs>
        <path id="DejaVuSans-2e" d="M 684 794 
L 1344 794 
L 1344 0 
L 684 0 
L 684 794 
z
" transform="scale(0.015625)"/>
        <path id="DejaVuSans-39" d="M 703 97 
L 703 672 
Q 941 559 1184 500 
Q 1428 441 1663 441 
Q 2288 441 2617 861 
Q 2947 1281 2994 2138 
Q 2813 1869 2534 1725 
Q 2256 1581 1919 1581 
Q 1219 1581 811 2004 
Q 403 2428 403 3163 
Q 403 3881 828 4315 
Q 1253 4750 1959 4750 
Q 2769 4750 3195 4129 
Q 3622 3509 3622 2328 
Q 3622 1225 3098 567 
Q 2575 -91 1691 -91 
Q 1453 -91 1209 -44 
Q 966 3 703 97 
z
M 1959 2075 
Q 2384 2075 2632 2365 
Q 2881 2656 2881 3163 
Q 2881 3666 2632 3958 
Q 2384 4250 1959 4250 
Q 1534 4250 1286 3958 
Q 1038 3666 1038 3163 
Q 1038 2656 1286 2365 
Q 1534 2075 1959 2075 
z
" transform="scale(0.015625)"/>
       </defs>
       <use xlink:href="#DejaVuSans-30"/>
       <use xlink:href="#DejaVuSans-2e" x="63.623047"/>
       <use xlink:href="#DejaVuSans-39" x="95.410156"/>
       <use xlink:href="#DejaVuSans-35" x="159.033203"/>
      </g>
     </g>
    </g>
    <g id="ytick_2">
     <g id="line2d_17">
      <path d="M 45 307.608915 
L 324 307.608915 
" clip-path="url(#p6706f9481d)" style="fill: none; stroke: #b0b0b0; stroke-width: 0.8; stroke-linecap: square"/>
     </g>
     <g id="line2d_18">
      <g>
       <use xlink:href="#me9bc586e62" x="45" y="307.608915" style="stroke: #000000; stroke-width: 0.8"/>
      </g>
     </g>
     <g id="text_10">
      <!-- 1.00 -->
      <g transform="translate(15.734375 311.408134)scale(0.1 -0.1)">
       <use xlink:href="#DejaVuSans-31"/>
       <use xlink:href="#DejaVuSans-2e" x="63.623047"/>
       <use xlink:href="#DejaVuSans-30" x="95.410156"/>
       <use xlink:href="#DejaVuSans-30" x="159.033203"/>
      </g>
     </g>
    </g>
    <g id="ytick_3">
     <g id="line2d_19">
      <path d="M 45 256.455132 
L 324 256.455132 
" clip-path="url(#p6706f9481d)" style="fill: none; stroke: #b0b0b0; stroke-width: 0.8; stroke-linecap: square"/>
     </g>
     <g id="line2d_20">
      <g>
       <use xlink:href="#me9bc586e62" x="45" y="256.455132" style="stroke: #000000; stroke-width: 0.8"/>
      </g>
     </g>
     <g id="text_11">
      <!-- 1.05 -->
      <g transform="translate(15.734375 260.254351)scale(0.1 -0.1)">
       <use xlink:href="#DejaVuSans-31"/>
       <use xlink:href="#DejaVuSans-2e" x="63.623047"/>
       <use xlink:href="#DejaVuSans-30" x="95.410156"/>
       <use xlink:href="#DejaVuSans-35" x="159.033203"/>
      </g>
     </g>
    </g>
    <g id="ytick_4">
     <g id="line2d_21">
      <path d="M 45 205.301349 
L 324 205.301349 
" clip-path="url(#p6706f9481d)" style="fill: none; stroke: #b0b0b0; stroke-width: 0.8; stroke-linecap: square"/>
     </g>
     <g id="line2d_22">
      <g>
       <use xlink:href="#me9bc586e62" x="45" y="205.301349" style="stroke: #000000; stroke-width: 0.8"/>
      </g>
     </g>
     <g id="text_12">
      <!-- 1.10 -->
      <g transform="translate(15.734375 209.100568)scale(0.1 -0.1)">
       <use xlink:href="#DejaVuSans-31"/>
       <use xlink:href="#DejaVuSans-2e" x="63.623047"/>
       <use xlink:href="#DejaVuSans-31" x="95.410156"/>
       <use xlink:href="#DejaVuSans-30" x="159.033203"/>
      </g>
     </g>
    </g>
    <g id="ytick_5">
     <g id="line2d_23">
      <path d="M 45 154.147566 
L 324 154.147566 
" clip-path="url(#p6706f9481d)" style="fill: none; stroke: #b0b0b0; stroke-width: 0.8; stroke-linecap: square"/>
     </g>
     <g id="line2d_24">
      <g>
       <use xlink:href="#me9bc586e62" x="45" y="154.147566" style="stroke: #000000; stroke-width: 0.8"/>
      </g>
     </g>
     <g id="text_13">
      <!-- 1.15 -->
      <g transform="translate(15.734375 157.946785)scale(0.1 -0.1)">
       <use xlink:href="#DejaVuSans-31"/>
       <use xlink:href="#DejaVuSans-2e" x="63.623047"/>
       <use xlink:href="#DejaVuSans-31" x="95.410156"/>
       <use xlink:href="#DejaVuSans-35" x="159.033203"/>
      </g>
     </g>
    </g>
    <g id="ytick_6">
     <g id="line2d_25">
      <path d="M 45 102.993783 
L 324 102.993783 
" clip-path="url(#p6706f9481d)" style="fill: none; stroke: #b0b0b0; stroke-width: 0.8; stroke-linecap: square"/>
     </g>
     <g id="line2d_26">
      <g>
       <use xlink:href="#me9bc586e62" x="45" y="102.993783" style="stroke: #000000; stroke-width: 0.8"/>
      </g>
     </g>
     <g id="text_14">
      <!-- 1.20 -->
      <g transform="translate(15.734375 106.793002)scale(0.1 -0.1)">
       <use xlink:href="#DejaVuSans-31"/>
       <use xlink:href="#DejaVuSans-2e" x="63.623047"/>
       <use xlink:href="#DejaVuSans-32" x="95.410156"/>
       <use xlink:href="#DejaVuSans-30" x="159.033203"/>
      </g>
     </g>
    </g>
    <g id="ytick_7">
     <g id="line2d_27">
      <path d="M 45 51.84 
L 324 51.84 
" clip-path="url(#p6706f9481d)" style="fill: none; stroke: #b0b0b0; stroke-width: 0.8; stroke-linecap: square"/>
     </g>
     <g id="line2d_28">
      <g>
       <use xlink:href="#me9bc586e62" x="45" y="51.84" style="stroke: #000000; stroke-width: 0.8"/>
      </g>
     </g>
     <g id="text_15">
      <!-- 1.25 -->
      <g transform="translate(15.734375 55.639219)scale(0.1 -0.1)">
       <use xlink:href="#DejaVuSans-31"/>
       <use xlink:href="#DejaVuSans-2e" x="63.623047"/>
       <use xlink:href="#DejaVuSans-32" x="95.410156"/>
       <use xlink:href="#DejaVuSans-35" x="159.033203"/>
      </g>
     </g>
    </g>
    <g id="text_16">
     <!-- Cross Entropy Loss ($\bar{x} \pm s \div \sqrt{N}$) -->
     <g transform="translate(9.634375 293.82)rotate(-90)scale(0.1 -0.1)">
      <defs>
       <path id="DejaVuSans-43" d="M 4122 4306 
L 4122 3641 
Q 3803 3938 3442 4084 
Q 3081 4231 2675 4231 
Q 1875 4231 1450 3742 
Q 1025 3253 1025 2328 
Q 1025 1406 1450 917 
Q 1875 428 2675 428 
Q 3081 428 3442 575 
Q 3803 722 4122 1019 
L 4122 359 
Q 3791 134 3420 21 
Q 3050 -91 2638 -91 
Q 1578 -91 968 557 
Q 359 1206 359 2328 
Q 359 3453 968 4101 
Q 1578 4750 2638 4750 
Q 3056 4750 3426 4639 
Q 3797 4528 4122 4306 
z
" transform="scale(0.015625)"/>
       <path id="DejaVuSans-72" d="M 2631 2963 
Q 2534 3019 2420 3045 
Q 2306 3072 2169 3072 
Q 1681 3072 1420 2755 
Q 1159 2438 1159 1844 
L 1159 0 
L 581 0 
L 581 3500 
L 1159 3500 
L 1159 2956 
Q 1341 3275 1631 3429 
Q 1922 3584 2338 3584 
Q 2397 3584 2469 3576 
Q 2541 3569 2628 3553 
L 2631 2963 
z
" transform="scale(0.015625)"/>
       <path id="DejaVuSans-20" transform="scale(0.015625)"/>
       <path id="DejaVuSans-6e" d="M 3513 2113 
L 3513 0 
L 2938 0 
L 2938 2094 
Q 2938 2591 2744 2837 
Q 2550 3084 2163 3084 
Q 1697 3084 1428 2787 
Q 1159 2491 1159 1978 
L 1159 0 
L 581 0 
L 581 3500 
L 1159 3500 
L 1159 2956 
Q 1366 3272 1645 3428 
Q 1925 3584 2291 3584 
Q 2894 3584 3203 3211 
Q 3513 2838 3513 2113 
z
" transform="scale(0.015625)"/>
       <path id="DejaVuSans-74" d="M 1172 4494 
L 1172 3500 
L 2356 3500 
L 2356 3053 
L 1172 3053 
L 1172 1153 
Q 1172 725 1289 603 
Q 1406 481 1766 481 
L 2356 481 
L 2356 0 
L 1766 0 
Q 1100 0 847 248 
Q 594 497 594 1153 
L 594 3053 
L 172 3053 
L 172 3500 
L 594 3500 
L 594 4494 
L 1172 4494 
z
" transform="scale(0.015625)"/>
       <path id="DejaVuSans-79" d="M 2059 -325 
Q 1816 -950 1584 -1140 
Q 1353 -1331 966 -1331 
L 506 -1331 
L 506 -850 
L 844 -850 
Q 1081 -850 1212 -737 
Q 1344 -625 1503 -206 
L 1606 56 
L 191 3500 
L 800 3500 
L 1894 763 
L 2988 3500 
L 3597 3500 
L 2059 -325 
z
" transform="scale(0.015625)"/>
       <path id="DejaVuSans-4c" d="M 628 4666 
L 1259 4666 
L 1259 531 
L 3531 531 
L 3531 0 
L 628 0 
L 628 4666 
z
" transform="scale(0.015625)"/>
       <path id="DejaVuSans-28" d="M 1984 4856 
Q 1566 4138 1362 3434 
Q 1159 2731 1159 2009 
Q 1159 1288 1364 580 
Q 1569 -128 1984 -844 
L 1484 -844 
Q 1016 -109 783 600 
Q 550 1309 550 2009 
Q 550 2706 781 3412 
Q 1013 4119 1484 4856 
L 1984 4856 
z
" transform="scale(0.015625)"/>
       <path id="DejaVuSans-304" d="M -2518 4769 
L -650 4769 
L -650 4306 
L -2518 4306 
L -2518 4769 
z
" transform="scale(0.015625)"/>
       <path id="DejaVuSans-Oblique-78" d="M 3841 3500 
L 2234 1784 
L 3219 0 
L 2559 0 
L 1819 1388 
L 531 0 
L -166 0 
L 1556 1844 
L 641 3500 
L 1300 3500 
L 1972 2234 
L 3144 3500 
L 3841 3500 
z
" transform="scale(0.015625)"/>
       <path id="DejaVuSans-b1" d="M 2944 4013 
L 2944 2803 
L 4684 2803 
L 4684 2272 
L 2944 2272 
L 2944 1063 
L 2419 1063 
L 2419 2272 
L 678 2272 
L 678 2803 
L 2419 2803 
L 2419 4013 
L 2944 4013 
z
M 678 531 
L 4684 531 
L 4684 0 
L 678 0 
L 678 531 
z
" transform="scale(0.015625)"/>
       <path id="DejaVuSans-Oblique-73" d="M 3200 3397 
L 3091 2853 
Q 2863 2978 2609 3040 
Q 2356 3103 2088 3103 
Q 1634 3103 1373 2948 
Q 1113 2794 1113 2528 
Q 1113 2219 1719 2053 
Q 1766 2041 1788 2034 
L 1972 1978 
Q 2547 1819 2739 1644 
Q 2931 1469 2931 1166 
Q 2931 609 2489 259 
Q 2047 -91 1331 -91 
Q 1053 -91 747 -37 
Q 441 16 72 128 
L 184 722 
Q 500 559 806 475 
Q 1113 391 1394 391 
Q 1816 391 2080 572 
Q 2344 753 2344 1031 
Q 2344 1331 1650 1516 
L 1591 1531 
L 1394 1581 
Q 956 1697 753 1886 
Q 550 2075 550 2369 
Q 550 2928 970 3256 
Q 1391 3584 2113 3584 
Q 2397 3584 2667 3537 
Q 2938 3491 3200 3397 
z
" transform="scale(0.015625)"/>
       <path id="DejaVuSans-f7" d="M 2297 3547 
L 3066 3547 
L 3066 2778 
L 2297 2778 
L 2297 3547 
z
M 2297 1234 
L 3066 1234 
L 3066 469 
L 2297 469 
L 2297 1234 
z
M 678 2272 
L 4684 2272 
L 4684 1741 
L 678 1741 
L 678 2272 
z
" transform="scale(0.015625)"/>
       <path id="STIXSizeOneSym-Regular-221a" d="M 6970 9933 
L 3373 -1888 
L 3104 -1888 
L 1626 2918 
Q 1555 3149 1465 3251 
Q 1376 3354 1229 3354 
Q 1011 3354 794 3181 
L 717 3309 
L 1766 4115 
L 1926 4115 
L 3379 -602 
L 3405 -602 
L 6605 9933 
L 6970 9933 
z
" transform="scale(0.015625)"/>
       <path id="DejaVuSans-Oblique-4e" d="M 1081 4666 
L 1931 4666 
L 3219 666 
L 4000 4666 
L 4616 4666 
L 3706 0 
L 2853 0 
L 1569 4025 
L 788 0 
L 172 0 
L 1081 4666 
z
" transform="scale(0.015625)"/>
       <path id="DejaVuSans-29" d="M 513 4856 
L 1013 4856 
Q 1481 4119 1714 3412 
Q 1947 2706 1947 2009 
Q 1947 1309 1714 600 
Q 1481 -109 1013 -844 
L 513 -844 
Q 928 -128 1133 580 
Q 1338 1288 1338 2009 
Q 1338 2731 1133 3434 
Q 928 4138 513 4856 
z
" transform="scale(0.015625)"/>
      </defs>
      <use xlink:href="#DejaVuSans-43" transform="translate(0 0.578125)"/>
      <use xlink:href="#DejaVuSans-72" transform="translate(69.824219 0.578125)"/>
      <use xlink:href="#DejaVuSans-6f" transform="translate(110.9375 0.578125)"/>
      <use xlink:href="#DejaVuSans-73" transform="translate(172.119141 0.578125)"/>
      <use xlink:href="#DejaVuSans-73" transform="translate(224.21875 0.578125)"/>
      <use xlink:href="#DejaVuSans-20" transform="translate(276.318359 0.578125)"/>
      <use xlink:href="#DejaVuSans-45" transform="translate(308.105469 0.578125)"/>
      <use xlink:href="#DejaVuSans-6e" transform="translate(371.289062 0.578125)"/>
      <use xlink:href="#DejaVuSans-74" transform="translate(434.667969 0.578125)"/>
      <use xlink:href="#DejaVuSans-72" transform="translate(473.876953 0.578125)"/>
      <use xlink:href="#DejaVuSans-6f" transform="translate(514.990234 0.578125)"/>
      <use xlink:href="#DejaVuSans-70" transform="translate(576.171875 0.578125)"/>
      <use xlink:href="#DejaVuSans-79" transform="translate(639.648438 0.578125)"/>
      <use xlink:href="#DejaVuSans-20" transform="translate(698.828125 0.578125)"/>
      <use xlink:href="#DejaVuSans-4c" transform="translate(730.615234 0.578125)"/>
      <use xlink:href="#DejaVuSans-6f" transform="translate(786.328125 0.578125)"/>
      <use xlink:href="#DejaVuSans-73" transform="translate(847.509766 0.578125)"/>
      <use xlink:href="#DejaVuSans-73" transform="translate(899.609375 0.578125)"/>
      <use xlink:href="#DejaVuSans-20" transform="translate(951.708984 0.578125)"/>
      <use xlink:href="#DejaVuSans-28" transform="translate(983.496094 0.578125)"/>
      <use xlink:href="#DejaVuSans-304" transform="translate(1084.648438 0.484375)"/>
      <use xlink:href="#DejaVuSans-Oblique-78" transform="translate(1022.509766 0.578125)"/>
      <use xlink:href="#DejaVuSans-b1" transform="translate(1101.171875 0.578125)"/>
      <use xlink:href="#DejaVuSans-Oblique-73" transform="translate(1204.443359 0.578125)"/>
      <use xlink:href="#DejaVuSans-f7" transform="translate(1276.025391 0.578125)"/>
      <use xlink:href="#STIXSizeOneSym-Regular-221a" transform="translate(1379.296875 17.09375)scale(0.563912)"/>
      <use xlink:href="#DejaVuSans-Oblique-4e" transform="translate(1451.385239 0.84375)"/>
      <use xlink:href="#DejaVuSans-29" transform="translate(1538.689926 0.578125)"/>
      <path d="M 1438.885239 97.5 
L 1438.885239 103.75 
L 1538.689926 103.75 
L 1538.689926 97.5 
L 1438.885239 97.5 
z
"/>
     </g>
    </g>
   </g>
   <g id="line2d_29">
    <path d="M 61.551098 -1 
L 66.136364 78.887347 
L 74.590909 121.741482 
L 83.045455 164.318216 
L 91.5 170.903158 
L 99.954545 173.291244 
L 108.409091 195.047203 
L 116.863636 206.828703 
L 125.318182 214.153027 
L 133.772727 202.120098 
L 142.227273 210.115956 
L 150.681818 202.905628 
L 159.136364 202.058226 
L 167.590909 238.091844 
L 176.045455 253.962511 
L 184.5 251.354326 
L 192.954545 245.006115 
L 201.409091 230.92601 
L 209.863636 247.780254 
L 218.318182 253.491779 
L 226.772727 255.803541 
L 235.227273 259.542584 
L 243.681818 258.38023 
L 252.136364 260.990245 
L 260.590909 261.962636 
L 269.045455 262.175115 
L 277.5 261.27087 
L 285.954545 262.968905 
" clip-path="url(#p6706f9481d)" style="fill: none; stroke: #1f77b4; stroke-width: 1.5; stroke-linecap: square"/>
   </g>
   <g id="line2d_30">
    <path d="M 57.681818 136.368056 
L 66.136364 220.300055 
L 74.590909 239.614033 
L 83.045455 267.13714 
L 91.5 277.897061 
L 99.954545 291.017018 
L 108.409091 278.432166 
L 116.863636 290.501995 
L 125.318182 301.866512 
L 133.772727 303.388055 
L 142.227273 292.922872 
L 150.681818 329.939796 
L 159.136364 312.594504 
L 167.590909 325.695073 
L 176.045455 309.184143 
L 184.5 329.0997 
L 192.954545 320.748762 
L 201.409091 325.969203 
L 209.863636 325.188828 
L 218.318182 334.820663 
L 226.772727 333.145219 
L 235.227273 335.198661 
L 243.681818 330.57206 
L 252.136364 327.515141 
L 260.590909 330.792574 
L 269.045455 332.188768 
" clip-path="url(#p6706f9481d)" style="fill: none; stroke: #ff7f0e; stroke-width: 1.5; stroke-linecap: square"/>
   </g>
   <g id="line2d_31">
    <path d="M 65.28895 -1 
L 66.136364 18.270682 
L 74.590909 120.441495 
L 83.045455 137.921403 
L 91.5 156.328706 
L 99.954545 142.279636 
L 108.409091 149.153432 
L 116.863636 178.817761 
L 125.318182 173.022842 
L 133.772727 176.32414 
L 142.227273 185.659028 
L 150.681818 212.711291 
L 159.136364 217.283351 
L 167.590909 219.865355 
L 176.045455 223.160469 
L 184.5 214.612034 
L 192.954545 218.81353 
L 201.409091 222.548089 
L 209.863636 223.003749 
L 218.318182 223.75866 
L 226.772727 222.256993 
" clip-path="url(#p6706f9481d)" style="fill: none; stroke: #2ca02c; stroke-width: 1.5; stroke-linecap: square"/>
   </g>
   <g id="line2d_32">
    <path d="M 57.681818 11.257534 
L 66.136364 104.602878 
L 74.590909 144.56609 
L 83.045455 169.165331 
L 91.5 181.934981 
L 99.954545 185.799942 
L 108.409091 195.485673 
L 116.863636 199.273715 
L 125.318182 187.388056 
L 133.772727 215.964959 
L 142.227273 217.858064 
L 150.681818 224.421466 
L 159.136364 234.433027 
L 167.590909 236.220906 
L 176.045455 249.836295 
L 184.5 245.879868 
L 192.954545 252.195909 
L 201.409091 245.175198 
L 209.863636 252.735725 
L 218.318182 235.58741 
L 226.772727 254.605371 
L 235.227273 250.593212 
" clip-path="url(#p6706f9481d)" style="fill: none; stroke: #d62728; stroke-width: 1.5; stroke-linecap: square"/>
   </g>
   <g id="line2d_33">
    <path d="M 69.382281 -1 
L 74.590909 37.453092 
L 83.045455 76.683549 
L 91.5 93.73322 
L 99.954545 122.857922 
L 108.409091 160.797079 
L 116.863636 182.349156 
L 125.318182 172.892145 
L 133.772727 130.56623 
L 142.227273 177.492631 
L 150.681818 224.950448 
L 159.136364 229.274073 
L 167.590909 243.907162 
L 176.045455 258.116718 
L 184.5 247.479523 
L 192.954545 253.88451 
L 201.409091 259.440797 
L 209.863636 262.999054 
L 218.318182 258.388047 
L 226.772727 268.582866 
L 235.227273 271.429271 
L 243.681818 265.89043 
L 252.136364 266.115861 
L 260.590909 266.903125 
L 269.045455 266.194637 
L 277.5 267.851336 
L 285.954545 267.439508 
L 294.409091 267.945371 
L 302.863636 267.050214 
L 311.318182 267.155671 
" clip-path="url(#p6706f9481d)" style="fill: none; stroke-dasharray: 5.55,2.4; stroke-dashoffset: 0; stroke: #9467bd; stroke-width: 1.5"/>
   </g>
   <g id="line2d_34">
    <path d="M 57.681818 67.402212 
L 66.136364 162.336858 
L 74.590909 189.352239 
L 83.045455 209.961024 
L 91.5 200.200855 
L 99.954545 225.14922 
L 108.409091 231.700529 
L 116.863636 265.577101 
L 125.318182 254.626481 
L 133.772727 264.865804 
L 142.227273 264.778039 
L 150.681818 293.297579 
L 159.136364 292.025044 
L 167.590909 303.131194 
L 176.045455 309.589018 
L 184.5 313.092762 
L 192.954545 316.489653 
L 201.409091 314.917521 
L 209.863636 325.657374 
L 218.318182 328.24294 
L 226.772727 324.400849 
L 235.227273 325.889456 
L 243.681818 325.647772 
L 252.136364 325.197893 
L 260.590909 326.742708 
L 269.045455 326.039704 
L 277.5 328.016586 
L 285.954545 327.519713 
L 294.409091 327.139297 
L 302.863636 325.202431 
" clip-path="url(#p6706f9481d)" style="fill: none; stroke-dasharray: 5.55,2.4; stroke-dashoffset: 0; stroke: #8c564b; stroke-width: 1.5"/>
   </g>
   <g id="line2d_35">
    <path d="M 60.683285 -1 
L 66.136364 138.70837 
L 74.590909 220.331151 
L 83.045455 251.208554 
L 91.5 266.972329 
L 99.954545 272.584342 
L 108.409091 258.617214 
L 116.863636 267.979475 
L 125.318182 259.999439 
L 133.772727 267.604498 
L 142.227273 277.252035 
L 150.681818 288.17689 
L 159.136364 287.544202 
L 167.590909 278.009115 
L 176.045455 278.9316 
L 184.5 276.008998 
L 192.954545 282.94348 
L 201.409091 289.331985 
L 209.863636 276.752553 
L 218.318182 279.50391 
L 226.772727 282.723908 
L 235.227273 279.793497 
" clip-path="url(#p6706f9481d)" style="fill: none; stroke-dasharray: 5.55,2.4; stroke-dashoffset: 0; stroke: #e377c2; stroke-width: 1.5"/>
   </g>
   <g id="line2d_36">
    <path d="M 57.681818 144.640003 
L 66.136364 271.225192 
L 74.590909 297.545222 
L 83.045455 308.858618 
L 91.5 300.671054 
L 99.954545 299.344704 
L 108.409091 292.768452 
L 116.863636 306.077148 
L 125.318182 300.001474 
L 133.772727 318.352878 
L 142.227273 306.104763 
L 150.681818 304.479015 
L 159.136364 310.869857 
L 167.590909 314.355769 
" clip-path="url(#p6706f9481d)" style="fill: none; stroke-dasharray: 5.55,2.4; stroke-dashoffset: 0; stroke: #7f7f7f; stroke-width: 1.5"/>
   </g>
   <g id="patch_3">
    <path d="M 45 378 
L 45 51.84 
" style="fill: none; stroke: #000000; stroke-width: 0.8; stroke-linejoin: miter; stroke-linecap: square"/>
   </g>
   <g id="patch_4">
    <path d="M 324 378 
L 324 51.84 
" style="fill: none; stroke: #000000; stroke-width: 0.8; stroke-linejoin: miter; stroke-linecap: square"/>
   </g>
   <g id="patch_5">
    <path d="M 45 378 
L 324 378 
" style="fill: none; stroke: #000000; stroke-width: 0.8; stroke-linejoin: miter; stroke-linecap: square"/>
   </g>
   <g id="patch_6">
    <path d="M 45 51.84 
L 324 51.84 
" style="fill: none; stroke: #000000; stroke-width: 0.8; stroke-linejoin: miter; stroke-linecap: square"/>
   </g>
   <g id="legend_1">
    <g id="patch_7">
     <path d="M 206.728125 178.93375 
L 317 178.93375 
Q 319 178.93375 319 176.93375 
L 319 58.84 
Q 319 56.84 317 56.84 
L 206.728125 56.84 
Q 204.728125 56.84 204.728125 58.84 
L 204.728125 176.93375 
Q 204.728125 178.93375 206.728125 178.93375 
z
" style="fill: #ffffff; opacity: 0.8; stroke: #cccccc; stroke-linejoin: miter"/>
    </g>
    <g id="line2d_37">
     <path d="M 208.728125 64.938437 
L 218.728125 64.938437 
L 228.728125 64.938437 
" style="fill: none; stroke: #1f77b4; stroke-width: 1.5; stroke-linecap: square"/>
    </g>
    <g id="text_17">
     <!-- vit_t_16 -->
     <g transform="translate(236.728125 68.438437)scale(0.1 -0.1)">
      <defs>
       <path id="DejaVuSans-76" d="M 191 3500 
L 800 3500 
L 1894 563 
L 2988 3500 
L 3597 3500 
L 2284 0 
L 1503 0 
L 191 3500 
z
" transform="scale(0.015625)"/>
       <path id="DejaVuSans-69" d="M 603 3500 
L 1178 3500 
L 1178 0 
L 603 0 
L 603 3500 
z
M 603 4863 
L 1178 4863 
L 1178 4134 
L 603 4134 
L 603 4863 
z
" transform="scale(0.015625)"/>
       <path id="DejaVuSans-5f" d="M 3263 -1063 
L 3263 -1509 
L -63 -1509 
L -63 -1063 
L 3263 -1063 
z
" transform="scale(0.015625)"/>
       <path id="DejaVuSans-36" d="M 2113 2584 
Q 1688 2584 1439 2293 
Q 1191 2003 1191 1497 
Q 1191 994 1439 701 
Q 1688 409 2113 409 
Q 2538 409 2786 701 
Q 3034 994 3034 1497 
Q 3034 2003 2786 2293 
Q 2538 2584 2113 2584 
z
M 3366 4563 
L 3366 3988 
Q 3128 4100 2886 4159 
Q 2644 4219 2406 4219 
Q 1781 4219 1451 3797 
Q 1122 3375 1075 2522 
Q 1259 2794 1537 2939 
Q 1816 3084 2150 3084 
Q 2853 3084 3261 2657 
Q 3669 2231 3669 1497 
Q 3669 778 3244 343 
Q 2819 -91 2113 -91 
Q 1303 -91 875 529 
Q 447 1150 447 2328 
Q 447 3434 972 4092 
Q 1497 4750 2381 4750 
Q 2619 4750 2861 4703 
Q 3103 4656 3366 4563 
z
" transform="scale(0.015625)"/>
      </defs>
      <use xlink:href="#DejaVuSans-76"/>
      <use xlink:href="#DejaVuSans-69" x="59.179688"/>
      <use xlink:href="#DejaVuSans-74" x="86.962891"/>
      <use xlink:href="#DejaVuSans-5f" x="126.171875"/>
      <use xlink:href="#DejaVuSans-74" x="176.171875"/>
      <use xlink:href="#DejaVuSans-5f" x="215.380859"/>
      <use xlink:href="#DejaVuSans-31" x="265.380859"/>
      <use xlink:href="#DejaVuSans-36" x="329.003906"/>
     </g>
    </g>
    <g id="line2d_38">
     <path d="M 208.728125 79.894687 
L 218.728125 79.894687 
L 228.728125 79.894687 
" style="fill: none; stroke: #ff7f0e; stroke-width: 1.5; stroke-linecap: square"/>
    </g>
    <g id="text_18">
     <!-- swin_t -->
     <g transform="translate(236.728125 83.394687)scale(0.1 -0.1)">
      <defs>
       <path id="DejaVuSans-77" d="M 269 3500 
L 844 3500 
L 1563 769 
L 2278 3500 
L 2956 3500 
L 3675 769 
L 4391 3500 
L 4966 3500 
L 4050 0 
L 3372 0 
L 2619 2869 
L 1863 0 
L 1184 0 
L 269 3500 
z
" transform="scale(0.015625)"/>
      </defs>
      <use xlink:href="#DejaVuSans-73"/>
      <use xlink:href="#DejaVuSans-77" x="52.099609"/>
      <use xlink:href="#DejaVuSans-69" x="133.886719"/>
      <use xlink:href="#DejaVuSans-6e" x="161.669922"/>
      <use xlink:href="#DejaVuSans-5f" x="225.048828"/>
      <use xlink:href="#DejaVuSans-74" x="275.048828"/>
     </g>
    </g>
    <g id="line2d_39">
     <path d="M 208.728125 94.850937 
L 218.728125 94.850937 
L 228.728125 94.850937 
" style="fill: none; stroke: #2ca02c; stroke-width: 1.5; stroke-linecap: square"/>
    </g>
    <g id="text_19">
     <!-- beit_b_16 -->
     <g transform="translate(236.728125 98.350937)scale(0.1 -0.1)">
      <defs>
       <path id="DejaVuSans-62" d="M 3116 1747 
Q 3116 2381 2855 2742 
Q 2594 3103 2138 3103 
Q 1681 3103 1420 2742 
Q 1159 2381 1159 1747 
Q 1159 1113 1420 752 
Q 1681 391 2138 391 
Q 2594 391 2855 752 
Q 3116 1113 3116 1747 
z
M 1159 2969 
Q 1341 3281 1617 3432 
Q 1894 3584 2278 3584 
Q 2916 3584 3314 3078 
Q 3713 2572 3713 1747 
Q 3713 922 3314 415 
Q 2916 -91 2278 -91 
Q 1894 -91 1617 61 
Q 1341 213 1159 525 
L 1159 0 
L 581 0 
L 581 4863 
L 1159 4863 
L 1159 2969 
z
" transform="scale(0.015625)"/>
       <path id="DejaVuSans-65" d="M 3597 1894 
L 3597 1613 
L 953 1613 
Q 991 1019 1311 708 
Q 1631 397 2203 397 
Q 2534 397 2845 478 
Q 3156 559 3463 722 
L 3463 178 
Q 3153 47 2828 -22 
Q 2503 -91 2169 -91 
Q 1331 -91 842 396 
Q 353 884 353 1716 
Q 353 2575 817 3079 
Q 1281 3584 2069 3584 
Q 2775 3584 3186 3129 
Q 3597 2675 3597 1894 
z
M 3022 2063 
Q 3016 2534 2758 2815 
Q 2500 3097 2075 3097 
Q 1594 3097 1305 2825 
Q 1016 2553 972 2059 
L 3022 2063 
z
" transform="scale(0.015625)"/>
      </defs>
      <use xlink:href="#DejaVuSans-62"/>
      <use xlink:href="#DejaVuSans-65" x="63.476562"/>
      <use xlink:href="#DejaVuSans-69" x="125"/>
      <use xlink:href="#DejaVuSans-74" x="152.783203"/>
      <use xlink:href="#DejaVuSans-5f" x="191.992188"/>
      <use xlink:href="#DejaVuSans-62" x="241.992188"/>
      <use xlink:href="#DejaVuSans-5f" x="305.46875"/>
      <use xlink:href="#DejaVuSans-31" x="355.46875"/>
      <use xlink:href="#DejaVuSans-36" x="419.091797"/>
     </g>
    </g>
    <g id="line2d_40">
     <path d="M 208.728125 109.807187 
L 218.728125 109.807187 
L 228.728125 109.807187 
" style="fill: none; stroke: #d62728; stroke-width: 1.5; stroke-linecap: square"/>
    </g>
    <g id="text_20">
     <!-- deit_t_16 -->
     <g transform="translate(236.728125 113.307187)scale(0.1 -0.1)">
      <defs>
       <path id="DejaVuSans-64" d="M 2906 2969 
L 2906 4863 
L 3481 4863 
L 3481 0 
L 2906 0 
L 2906 525 
Q 2725 213 2448 61 
Q 2172 -91 1784 -91 
Q 1150 -91 751 415 
Q 353 922 353 1747 
Q 353 2572 751 3078 
Q 1150 3584 1784 3584 
Q 2172 3584 2448 3432 
Q 2725 3281 2906 2969 
z
M 947 1747 
Q 947 1113 1208 752 
Q 1469 391 1925 391 
Q 2381 391 2643 752 
Q 2906 1113 2906 1747 
Q 2906 2381 2643 2742 
Q 2381 3103 1925 3103 
Q 1469 3103 1208 2742 
Q 947 2381 947 1747 
z
" transform="scale(0.015625)"/>
      </defs>
      <use xlink:href="#DejaVuSans-64"/>
      <use xlink:href="#DejaVuSans-65" x="63.476562"/>
      <use xlink:href="#DejaVuSans-69" x="125"/>
      <use xlink:href="#DejaVuSans-74" x="152.783203"/>
      <use xlink:href="#DejaVuSans-5f" x="191.992188"/>
      <use xlink:href="#DejaVuSans-74" x="241.992188"/>
      <use xlink:href="#DejaVuSans-5f" x="281.201172"/>
      <use xlink:href="#DejaVuSans-31" x="331.201172"/>
      <use xlink:href="#DejaVuSans-36" x="394.824219"/>
     </g>
    </g>
    <g id="line2d_41">
     <path d="M 208.728125 124.763437 
L 218.728125 124.763437 
L 228.728125 124.763437 
" style="fill: none; stroke-dasharray: 5.55,2.4; stroke-dashoffset: 0; stroke: #9467bd; stroke-width: 1.5"/>
    </g>
    <g id="text_21">
     <!-- vgg19 -->
     <g transform="translate(236.728125 128.263437)scale(0.1 -0.1)">
      <defs>
       <path id="DejaVuSans-67" d="M 2906 1791 
Q 2906 2416 2648 2759 
Q 2391 3103 1925 3103 
Q 1463 3103 1205 2759 
Q 947 2416 947 1791 
Q 947 1169 1205 825 
Q 1463 481 1925 481 
Q 2391 481 2648 825 
Q 2906 1169 2906 1791 
z
M 3481 434 
Q 3481 -459 3084 -895 
Q 2688 -1331 1869 -1331 
Q 1566 -1331 1297 -1286 
Q 1028 -1241 775 -1147 
L 775 -588 
Q 1028 -725 1275 -790 
Q 1522 -856 1778 -856 
Q 2344 -856 2625 -561 
Q 2906 -266 2906 331 
L 2906 616 
Q 2728 306 2450 153 
Q 2172 0 1784 0 
Q 1141 0 747 490 
Q 353 981 353 1791 
Q 353 2603 747 3093 
Q 1141 3584 1784 3584 
Q 2172 3584 2450 3431 
Q 2728 3278 2906 2969 
L 2906 3500 
L 3481 3500 
L 3481 434 
z
" transform="scale(0.015625)"/>
      </defs>
      <use xlink:href="#DejaVuSans-76"/>
      <use xlink:href="#DejaVuSans-67" x="59.179688"/>
      <use xlink:href="#DejaVuSans-67" x="122.65625"/>
      <use xlink:href="#DejaVuSans-31" x="186.132812"/>
      <use xlink:href="#DejaVuSans-39" x="249.755859"/>
     </g>
    </g>
    <g id="line2d_42">
     <path d="M 208.728125 139.441562 
L 218.728125 139.441562 
L 228.728125 139.441562 
" style="fill: none; stroke-dasharray: 5.55,2.4; stroke-dashoffset: 0; stroke: #8c564b; stroke-width: 1.5"/>
    </g>
    <g id="text_22">
     <!-- resnet50 -->
     <g transform="translate(236.728125 142.941562)scale(0.1 -0.1)">
      <use xlink:href="#DejaVuSans-72"/>
      <use xlink:href="#DejaVuSans-65" x="38.863281"/>
      <use xlink:href="#DejaVuSans-73" x="100.386719"/>
      <use xlink:href="#DejaVuSans-6e" x="152.486328"/>
      <use xlink:href="#DejaVuSans-65" x="215.865234"/>
      <use xlink:href="#DejaVuSans-74" x="277.388672"/>
      <use xlink:href="#DejaVuSans-35" x="316.597656"/>
      <use xlink:href="#DejaVuSans-30" x="380.220703"/>
     </g>
    </g>
    <g id="line2d_43">
     <path d="M 208.728125 154.119687 
L 218.728125 154.119687 
L 228.728125 154.119687 
" style="fill: none; stroke-dasharray: 5.55,2.4; stroke-dashoffset: 0; stroke: #e377c2; stroke-width: 1.5"/>
    </g>
    <g id="text_23">
     <!-- efficientnetv2_t -->
     <g transform="translate(236.728125 157.619687)scale(0.1 -0.1)">
      <defs>
       <path id="DejaVuSans-66" d="M 2375 4863 
L 2375 4384 
L 1825 4384 
Q 1516 4384 1395 4259 
Q 1275 4134 1275 3809 
L 1275 3500 
L 2222 3500 
L 2222 3053 
L 1275 3053 
L 1275 0 
L 697 0 
L 697 3053 
L 147 3053 
L 147 3500 
L 697 3500 
L 697 3744 
Q 697 4328 969 4595 
Q 1241 4863 1831 4863 
L 2375 4863 
z
" transform="scale(0.015625)"/>
      </defs>
      <use xlink:href="#DejaVuSans-65"/>
      <use xlink:href="#DejaVuSans-66" x="61.523438"/>
      <use xlink:href="#DejaVuSans-66" x="96.728516"/>
      <use xlink:href="#DejaVuSans-69" x="131.933594"/>
      <use xlink:href="#DejaVuSans-63" x="159.716797"/>
      <use xlink:href="#DejaVuSans-69" x="214.697266"/>
      <use xlink:href="#DejaVuSans-65" x="242.480469"/>
      <use xlink:href="#DejaVuSans-6e" x="304.003906"/>
      <use xlink:href="#DejaVuSans-74" x="367.382812"/>
      <use xlink:href="#DejaVuSans-6e" x="406.591797"/>
      <use xlink:href="#DejaVuSans-65" x="469.970703"/>
      <use xlink:href="#DejaVuSans-74" x="531.494141"/>
      <use xlink:href="#DejaVuSans-76" x="570.703125"/>
      <use xlink:href="#DejaVuSans-32" x="629.882812"/>
      <use xlink:href="#DejaVuSans-5f" x="693.505859"/>
      <use xlink:href="#DejaVuSans-74" x="743.505859"/>
     </g>
    </g>
    <g id="line2d_44">
     <path d="M 208.728125 169.075937 
L 218.728125 169.075937 
L 228.728125 169.075937 
" style="fill: none; stroke-dasharray: 5.55,2.4; stroke-dashoffset: 0; stroke: #7f7f7f; stroke-width: 1.5"/>
    </g>
    <g id="text_24">
     <!-- convnext_t -->
     <g transform="translate(236.728125 172.575937)scale(0.1 -0.1)">
      <defs>
       <path id="DejaVuSans-78" d="M 3513 3500 
L 2247 1797 
L 3578 0 
L 2900 0 
L 1881 1375 
L 863 0 
L 184 0 
L 1544 1831 
L 300 3500 
L 978 3500 
L 1906 2253 
L 2834 3500 
L 3513 3500 
z
" transform="scale(0.015625)"/>
      </defs>
      <use xlink:href="#DejaVuSans-63"/>
      <use xlink:href="#DejaVuSans-6f" x="54.980469"/>
      <use xlink:href="#DejaVuSans-6e" x="116.162109"/>
      <use xlink:href="#DejaVuSans-76" x="179.541016"/>
      <use xlink:href="#DejaVuSans-6e" x="238.720703"/>
      <use xlink:href="#DejaVuSans-65" x="302.099609"/>
      <use xlink:href="#DejaVuSans-78" x="361.873047"/>
      <use xlink:href="#DejaVuSans-74" x="421.052734"/>
      <use xlink:href="#DejaVuSans-5f" x="460.261719"/>
      <use xlink:href="#DejaVuSans-74" x="510.261719"/>
     </g>
    </g>
   </g>
  </g>
 </g>
 <defs>
  <clipPath id="p6706f9481d">
   <rect x="45" y="51.84" width="279" height="326.16"/>
  </clipPath>
 </defs>
</svg>
