<?xml version="1.0" encoding="utf-8" standalone="no"?>
<!DOCTYPE svg PUBLIC "-//W3C//DTD SVG 1.1//EN"
  "http://www.w3.org/Graphics/SVG/1.1/DTD/svg11.dtd">
<svg xmlns:xlink="http://www.w3.org/1999/xlink" width="360pt" height="432pt" viewBox="0 0 360 432" xmlns="http://www.w3.org/2000/svg" version="1.1">
 <metadata>
  <rdf:RDF xmlns:dc="http://purl.org/dc/elements/1.1/" xmlns:cc="http://creativecommons.org/ns#" xmlns:rdf="http://www.w3.org/1999/02/22-rdf-syntax-ns#">
   <cc:Work>
    <dc:type rdf:resource="http://purl.org/dc/dcmitype/StillImage"/>
    <dc:date>2022-05-31T19:58:08.791093</dc:date>
    <dc:format>image/svg+xml</dc:format>
    <dc:creator>
     <cc:Agent>
      <dc:title>Matplotlib v3.5.2, https://matplotlib.org/</dc:title>
     </cc:Agent>
    </dc:creator>
   </cc:Work>
  </rdf:RDF>
 </metadata>
 <defs>
  <style type="text/css">*{stroke-linejoin: round; stroke-linecap: butt}</style>
 </defs>
 <g id="figure_1">
  <g id="patch_1">
   <path d="M 0 432 
L 360 432 
L 360 0 
L 0 0 
L 0 432 
z
" style="fill: none"/>
  </g>
  <g id="axes_1">
   <g id="patch_2">
    <path d="M 45 378 
L 324 378 
L 324 51.84 
L 45 51.84 
z
" style="fill: #ffffff"/>
   </g>
   <g id="PolyCollection_1">
    <path d="M 57.681818 80.582956 
L 57.681818 100.406975 
L 67.827273 172.472624 
L 77.972727 215.658441 
L 88.118182 198.167619 
L 98.263636 216.777205 
L 108.409091 217.623757 
L 118.554545 222.165039 
L 128.7 222.368658 
L 138.845455 223.204631 
L 148.990909 238.425575 
L 159.136364 263.806021 
L 169.281818 270.659295 
L 179.427273 267.686885 
L 189.572727 269.436385 
L 199.718182 271.244933 
L 209.863636 272.114908 
L 209.863636 229.66744 
L 209.863636 229.66744 
L 199.718182 229.441957 
L 189.572727 229.853798 
L 179.427273 228.029499 
L 169.281818 227.270761 
L 159.136364 192.092819 
L 148.990909 189.762632 
L 138.845455 182.146586 
L 128.7 196.718127 
L 118.554545 187.814703 
L 108.409091 156.641662 
L 98.263636 175.740913 
L 88.118182 170.572239 
L 77.972727 167.833511 
L 67.827273 137.151308 
L 57.681818 80.582956 
z
" clip-path="url(#p4d6b66990c)" style="fill: #1f77b4; fill-opacity: 0.2"/>
   </g>
   <g id="PolyCollection_2">
    <path d="M 57.681818 174.487257 
L 57.681818 192.825971 
L 67.827273 267.996435 
L 77.972727 298.228114 
L 88.118182 305.290055 
L 98.263636 294.491261 
L 108.409091 307.914756 
L 118.554545 331.630464 
L 128.7 316.385242 
L 138.845455 323.711117 
L 148.990909 323.333005 
L 159.136364 337.41235 
L 169.281818 332.108769 
L 179.427273 350.236192 
L 189.572727 351.143352 
L 199.718182 349.915158 
L 209.863636 350.659593 
L 220.009091 350.314597 
L 230.154545 350.544502 
L 240.3 351.026126 
L 250.445455 351.101233 
L 260.590909 351.706085 
L 270.736364 351.714175 
L 280.881818 351.734469 
L 280.881818 320.026163 
L 280.881818 320.026163 
L 270.736364 320.593174 
L 260.590909 320.719962 
L 250.445455 319.592563 
L 240.3 318.904342 
L 230.154545 319.30819 
L 220.009091 318.31774 
L 209.863636 316.307042 
L 199.718182 302.002641 
L 189.572727 290.303561 
L 179.427273 315.304982 
L 169.281818 306.298759 
L 159.136364 299.769526 
L 148.990909 256.75619 
L 138.845455 269.407579 
L 128.7 246.271686 
L 118.554545 294.432152 
L 108.409091 292.316839 
L 98.263636 275.685973 
L 88.118182 280.635791 
L 77.972727 271.727937 
L 67.827273 226.63719 
L 57.681818 174.487257 
z
" clip-path="url(#p4d6b66990c)" style="fill: #ff7f0e; fill-opacity: 0.2"/>
   </g>
   <g id="PolyCollection_3">
    <path d="M 57.681818 -79.582956 
L 57.681818 -45.901153 
L 67.827273 114.988302 
L 77.972727 142.017839 
L 88.118182 190.532233 
L 98.263636 192.703196 
L 108.409091 188.478477 
L 118.554545 180.68104 
L 128.7 184.653047 
L 138.845455 216.657053 
L 148.990909 231.559381 
L 159.136364 231.309308 
L 169.281818 219.569819 
L 179.427273 222.860641 
L 189.572727 233.196284 
L 199.718182 233.468641 
L 209.863636 235.835321 
L 220.009091 235.805431 
L 230.154545 236.531268 
L 240.3 234.960221 
L 240.3 214.076567 
L 240.3 214.076567 
L 230.154545 214.507636 
L 220.009091 214.134935 
L 209.863636 214.057648 
L 199.718182 212.417612 
L 189.572727 211.851567 
L 179.427273 202.139907 
L 169.281818 196.814065 
L 159.136364 213.197219 
L 148.990909 208.683382 
L 138.845455 165.651113 
L 128.7 136.16325 
L 118.554545 150.99503 
L 108.409091 165.691268 
L 98.263636 160.799826 
L 88.118182 146.917643 
L 77.972727 108.602502 
L 67.827273 83.296156 
L 57.681818 -79.582956 
z
" clip-path="url(#p4d6b66990c)" style="fill: #2ca02c; fill-opacity: 0.2"/>
   </g>
   <g id="PolyCollection_4">
    <path d="M 57.681818 160.108192 
L 57.681818 180.587564 
L 67.827273 245.835755 
L 77.972727 249.603269 
L 88.118182 271.557939 
L 98.263636 290.684732 
L 108.409091 270.443181 
L 118.554545 271.022662 
L 128.7 268.464976 
L 138.845455 303.756826 
L 148.990909 292.731488 
L 159.136364 286.121364 
L 169.281818 287.778793 
L 179.427273 302.999691 
L 189.572727 303.185232 
L 199.718182 306.581479 
L 209.863636 307.885006 
L 220.009091 305.859783 
L 230.154545 306.818988 
L 230.154545 275.12186 
L 230.154545 275.12186 
L 220.009091 274.180763 
L 209.863636 274.864608 
L 199.718182 274.279576 
L 189.572727 272.569587 
L 179.427273 271.538906 
L 169.281818 228.48848 
L 159.136364 236.878716 
L 148.990909 246.385407 
L 138.845455 261.605904 
L 128.7 216.004735 
L 118.554545 232.323113 
L 108.409091 250.828387 
L 98.263636 260.304293 
L 88.118182 238.709377 
L 77.972727 228.66442 
L 67.827273 208.838544 
L 57.681818 160.108192 
z
" clip-path="url(#p4d6b66990c)" style="fill: #d62728; fill-opacity: 0.2"/>
   </g>
   <g id="PolyCollection_5">
    <path d="M 57.681818 -173.576145 
L 57.681818 -127.411519 
L 67.827273 36.555551 
L 77.972727 82.945281 
L 88.118182 99.332383 
L 98.263636 123.025967 
L 108.409091 139.914777 
L 118.554545 150.735907 
L 128.7 169.628504 
L 138.845455 179.294137 
L 148.990909 160.764097 
L 159.136364 176.096722 
L 169.281818 203.675491 
L 179.427273 196.084281 
L 189.572727 195.170431 
L 199.718182 238.552387 
L 209.863636 244.940914 
L 220.009091 237.845393 
L 230.154545 245.279223 
L 240.3 239.5871 
L 250.445455 263.910502 
L 260.590909 263.379488 
L 270.736364 263.744263 
L 280.881818 263.358203 
L 291.027273 262.301982 
L 301.172727 263.169317 
L 311.318182 262.497398 
L 311.318182 238.0711 
L 311.318182 238.0711 
L 301.172727 238.984022 
L 291.027273 237.844832 
L 280.881818 238.799207 
L 270.736364 237.965555 
L 260.590909 237.00411 
L 250.445455 238.319276 
L 240.3 197.185149 
L 230.154545 232.565284 
L 220.009091 221.106959 
L 209.863636 229.486149 
L 199.718182 190.774498 
L 189.572727 149.856179 
L 179.427273 101.597953 
L 169.281818 176.039879 
L 159.136364 145.88407 
L 148.990909 125.811613 
L 138.845455 152.584483 
L 128.7 138.000917 
L 118.554545 133.349226 
L 108.409091 112.010461 
L 98.263636 75.122868 
L 88.118182 44.449229 
L 77.972727 31.708842 
L 67.827273 18.953688 
L 57.681818 -173.576145 
z
" clip-path="url(#p4d6b66990c)" style="fill: #9467bd; fill-opacity: 0.2"/>
   </g>
   <g id="PolyCollection_6">
    <path d="M 57.681818 49.616996 
L 57.681818 89.905091 
L 67.827273 161.5119 
L 77.972727 199.662423 
L 88.118182 213.298714 
L 98.263636 240.243542 
L 108.409091 235.003064 
L 118.554545 255.589267 
L 128.7 251.365371 
L 138.845455 298.512243 
L 148.990909 299.409108 
L 159.136364 313.594151 
L 169.281818 310.520403 
L 179.427273 315.704048 
L 189.572727 316.219509 
L 199.718182 316.575781 
L 209.863636 320.351109 
L 220.009091 322.067033 
L 230.154545 321.657143 
L 240.3 327.910631 
L 250.445455 324.326843 
L 260.590909 326.616238 
L 260.590909 300.37885 
L 260.590909 300.37885 
L 250.445455 295.428588 
L 240.3 300.783216 
L 230.154545 297.109835 
L 220.009091 295.843907 
L 209.863636 294.512648 
L 199.718182 289.112764 
L 189.572727 277.486811 
L 179.427273 272.225881 
L 169.281818 271.242193 
L 159.136364 275.610285 
L 148.990909 228.394189 
L 138.845455 253.517624 
L 128.7 196.747246 
L 118.554545 221.769463 
L 108.409091 209.405792 
L 98.263636 190.984411 
L 88.118182 183.436416 
L 77.972727 162.522696 
L 67.827273 111.456529 
L 57.681818 49.616996 
z
" clip-path="url(#p4d6b66990c)" style="fill: #8c564b; fill-opacity: 0.2"/>
   </g>
   <g id="PolyCollection_7">
    <path d="M 57.681818 22.36125 
L 57.681818 48.591935 
L 67.827273 211.003093 
L 77.972727 255.600284 
L 88.118182 267.335094 
L 98.263636 269.262969 
L 108.409091 254.453415 
L 118.554545 262.693944 
L 128.7 262.603636 
L 138.845455 280.391076 
L 148.990909 281.68955 
L 159.136364 281.869544 
L 169.281818 281.602047 
L 179.427273 284.031597 
L 189.572727 283.630703 
L 199.718182 279.704663 
L 199.718182 251.634791 
L 199.718182 251.634791 
L 189.572727 254.016973 
L 179.427273 251.339956 
L 169.281818 248.630832 
L 159.136364 250.362476 
L 148.990909 245.140331 
L 138.845455 245.641634 
L 128.7 220.317852 
L 118.554545 235.064345 
L 108.409091 218.251734 
L 98.263636 247.329945 
L 88.118182 242.721036 
L 77.972727 229.418963 
L 67.827273 176.48929 
L 57.681818 22.36125 
z
" clip-path="url(#p4d6b66990c)" style="fill: #e377c2; fill-opacity: 0.2"/>
   </g>
   <g id="PolyCollection_8">
    <path d="M 57.681818 104.909745 
L 57.681818 145.763432 
L 67.827273 264.756499 
L 77.972727 298.265834 
L 88.118182 321.739018 
L 98.263636 307.776064 
L 108.409091 313.88769 
L 118.554545 306.95719 
L 128.7 318.387714 
L 138.845455 318.442827 
L 148.990909 331.830628 
L 159.136364 332.6638 
L 169.281818 333.152766 
L 179.427273 333.720407 
L 189.572727 332.814787 
L 199.718182 334.126395 
L 199.718182 313.501952 
L 199.718182 313.501952 
L 189.572727 311.538977 
L 179.427273 312.949634 
L 169.281818 311.215937 
L 159.136364 309.739273 
L 148.990909 309.981266 
L 138.845455 284.480367 
L 128.7 274.697109 
L 118.554545 273.005995 
L 108.409091 284.655753 
L 98.263636 273.290645 
L 88.118182 295.531519 
L 77.972727 273.258243 
L 67.827273 239.654886 
L 57.681818 104.909745 
z
" clip-path="url(#p4d6b66990c)" style="fill: #7f7f7f; fill-opacity: 0.2"/>
   </g>
   <g id="matplotlib.axis_1">
    <g id="xtick_1">
     <g id="line2d_1">
      <path d="M 47.536364 378 
L 47.536364 51.84 
" clip-path="url(#p4d6b66990c)" style="fill: none; stroke: #b0b0b0; stroke-width: 0.8; stroke-linecap: square"/>
     </g>
     <g id="line2d_2">
      <defs>
       <path id="m2e52bcf7b7" d="M 0 0 
L 0 3.5 
" style="stroke: #000000; stroke-width: 0.8"/>
      </defs>
      <g>
       <use xlink:href="#m2e52bcf7b7" x="47.536364" y="378" style="stroke: #000000; stroke-width: 0.8"/>
      </g>
     </g>
     <g id="text_1">
      <!-- 0 -->
      <g transform="translate(44.355114 392.598437)scale(0.1 -0.1)">
       <defs>
        <path id="DejaVuSans-30" d="M 2034 4250 
Q 1547 4250 1301 3770 
Q 1056 3291 1056 2328 
Q 1056 1369 1301 889 
Q 1547 409 2034 409 
Q 2525 409 2770 889 
Q 3016 1369 3016 2328 
Q 3016 3291 2770 3770 
Q 2525 4250 2034 4250 
z
M 2034 4750 
Q 2819 4750 3233 4129 
Q 3647 3509 3647 2328 
Q 3647 1150 3233 529 
Q 2819 -91 2034 -91 
Q 1250 -91 836 529 
Q 422 1150 422 2328 
Q 422 3509 836 4129 
Q 1250 4750 2034 4750 
z
" transform="scale(0.015625)"/>
       </defs>
       <use xlink:href="#DejaVuSans-30"/>
      </g>
     </g>
    </g>
    <g id="xtick_2">
     <g id="line2d_3">
      <path d="M 98.263636 378 
L 98.263636 51.84 
" clip-path="url(#p4d6b66990c)" style="fill: none; stroke: #b0b0b0; stroke-width: 0.8; stroke-linecap: square"/>
     </g>
     <g id="line2d_4">
      <g>
       <use xlink:href="#m2e52bcf7b7" x="98.263636" y="378" style="stroke: #000000; stroke-width: 0.8"/>
      </g>
     </g>
     <g id="text_2">
      <!-- 5 -->
      <g transform="translate(95.082386 392.598437)scale(0.1 -0.1)">
       <defs>
        <path id="DejaVuSans-35" d="M 691 4666 
L 3169 4666 
L 3169 4134 
L 1269 4134 
L 1269 2991 
Q 1406 3038 1543 3061 
Q 1681 3084 1819 3084 
Q 2600 3084 3056 2656 
Q 3513 2228 3513 1497 
Q 3513 744 3044 326 
Q 2575 -91 1722 -91 
Q 1428 -91 1123 -41 
Q 819 9 494 109 
L 494 744 
Q 775 591 1075 516 
Q 1375 441 1709 441 
Q 2250 441 2565 725 
Q 2881 1009 2881 1497 
Q 2881 1984 2565 2268 
Q 2250 2553 1709 2553 
Q 1456 2553 1204 2497 
Q 953 2441 691 2322 
L 691 4666 
z
" transform="scale(0.015625)"/>
       </defs>
       <use xlink:href="#DejaVuSans-35"/>
      </g>
     </g>
    </g>
    <g id="xtick_3">
     <g id="line2d_5">
      <path d="M 148.990909 378 
L 148.990909 51.84 
" clip-path="url(#p4d6b66990c)" style="fill: none; stroke: #b0b0b0; stroke-width: 0.8; stroke-linecap: square"/>
     </g>
     <g id="line2d_6">
      <g>
       <use xlink:href="#m2e52bcf7b7" x="148.990909" y="378" style="stroke: #000000; stroke-width: 0.8"/>
      </g>
     </g>
     <g id="text_3">
      <!-- 10 -->
      <g transform="translate(142.628409 392.598437)scale(0.1 -0.1)">
       <defs>
        <path id="DejaVuSans-31" d="M 794 531 
L 1825 531 
L 1825 4091 
L 703 3866 
L 703 4441 
L 1819 4666 
L 2450 4666 
L 2450 531 
L 3481 531 
L 3481 0 
L 794 0 
L 794 531 
z
" transform="scale(0.015625)"/>
       </defs>
       <use xlink:href="#DejaVuSans-31"/>
       <use xlink:href="#DejaVuSans-30" x="63.623047"/>
      </g>
     </g>
    </g>
    <g id="xtick_4">
     <g id="line2d_7">
      <path d="M 199.718182 378 
L 199.718182 51.84 
" clip-path="url(#p4d6b66990c)" style="fill: none; stroke: #b0b0b0; stroke-width: 0.8; stroke-linecap: square"/>
     </g>
     <g id="line2d_8">
      <g>
       <use xlink:href="#m2e52bcf7b7" x="199.718182" y="378" style="stroke: #000000; stroke-width: 0.8"/>
      </g>
     </g>
     <g id="text_4">
      <!-- 15 -->
      <g transform="translate(193.355682 392.598437)scale(0.1 -0.1)">
       <use xlink:href="#DejaVuSans-31"/>
       <use xlink:href="#DejaVuSans-35" x="63.623047"/>
      </g>
     </g>
    </g>
    <g id="xtick_5">
     <g id="line2d_9">
      <path d="M 250.445455 378 
L 250.445455 51.84 
" clip-path="url(#p4d6b66990c)" style="fill: none; stroke: #b0b0b0; stroke-width: 0.8; stroke-linecap: square"/>
     </g>
     <g id="line2d_10">
      <g>
       <use xlink:href="#m2e52bcf7b7" x="250.445455" y="378" style="stroke: #000000; stroke-width: 0.8"/>
      </g>
     </g>
     <g id="text_5">
      <!-- 20 -->
      <g transform="translate(244.082955 392.598437)scale(0.1 -0.1)">
       <defs>
        <path id="DejaVuSans-32" d="M 1228 531 
L 3431 531 
L 3431 0 
L 469 0 
L 469 531 
Q 828 903 1448 1529 
Q 2069 2156 2228 2338 
Q 2531 2678 2651 2914 
Q 2772 3150 2772 3378 
Q 2772 3750 2511 3984 
Q 2250 4219 1831 4219 
Q 1534 4219 1204 4116 
Q 875 4013 500 3803 
L 500 4441 
Q 881 4594 1212 4672 
Q 1544 4750 1819 4750 
Q 2544 4750 2975 4387 
Q 3406 4025 3406 3419 
Q 3406 3131 3298 2873 
Q 3191 2616 2906 2266 
Q 2828 2175 2409 1742 
Q 1991 1309 1228 531 
z
" transform="scale(0.015625)"/>
       </defs>
       <use xlink:href="#DejaVuSans-32"/>
       <use xlink:href="#DejaVuSans-30" x="63.623047"/>
      </g>
     </g>
    </g>
    <g id="xtick_6">
     <g id="line2d_11">
      <path d="M 301.172727 378 
L 301.172727 51.84 
" clip-path="url(#p4d6b66990c)" style="fill: none; stroke: #b0b0b0; stroke-width: 0.8; stroke-linecap: square"/>
     </g>
     <g id="line2d_12">
      <g>
       <use xlink:href="#m2e52bcf7b7" x="301.172727" y="378" style="stroke: #000000; stroke-width: 0.8"/>
      </g>
     </g>
     <g id="text_6">
      <!-- 25 -->
      <g transform="translate(294.810227 392.598437)scale(0.1 -0.1)">
       <use xlink:href="#DejaVuSans-32"/>
       <use xlink:href="#DejaVuSans-35" x="63.623047"/>
      </g>
     </g>
    </g>
    <g id="text_7">
     <!-- Epochs -->
     <g transform="translate(166.584375 406.276563)scale(0.1 -0.1)">
      <defs>
       <path id="DejaVuSans-45" d="M 628 4666 
L 3578 4666 
L 3578 4134 
L 1259 4134 
L 1259 2753 
L 3481 2753 
L 3481 2222 
L 1259 2222 
L 1259 531 
L 3634 531 
L 3634 0 
L 628 0 
L 628 4666 
z
" transform="scale(0.015625)"/>
       <path id="DejaVuSans-70" d="M 1159 525 
L 1159 -1331 
L 581 -1331 
L 581 3500 
L 1159 3500 
L 1159 2969 
Q 1341 3281 1617 3432 
Q 1894 3584 2278 3584 
Q 2916 3584 3314 3078 
Q 3713 2572 3713 1747 
Q 3713 922 3314 415 
Q 2916 -91 2278 -91 
Q 1894 -91 1617 61 
Q 1341 213 1159 525 
z
M 3116 1747 
Q 3116 2381 2855 2742 
Q 2594 3103 2138 3103 
Q 1681 3103 1420 2742 
Q 1159 2381 1159 1747 
Q 1159 1113 1420 752 
Q 1681 391 2138 391 
Q 2594 391 2855 752 
Q 3116 1113 3116 1747 
z
" transform="scale(0.015625)"/>
       <path id="DejaVuSans-6f" d="M 1959 3097 
Q 1497 3097 1228 2736 
Q 959 2375 959 1747 
Q 959 1119 1226 758 
Q 1494 397 1959 397 
Q 2419 397 2687 759 
Q 2956 1122 2956 1747 
Q 2956 2369 2687 2733 
Q 2419 3097 1959 3097 
z
M 1959 3584 
Q 2709 3584 3137 3096 
Q 3566 2609 3566 1747 
Q 3566 888 3137 398 
Q 2709 -91 1959 -91 
Q 1206 -91 779 398 
Q 353 888 353 1747 
Q 353 2609 779 3096 
Q 1206 3584 1959 3584 
z
" transform="scale(0.015625)"/>
       <path id="DejaVuSans-63" d="M 3122 3366 
L 3122 2828 
Q 2878 2963 2633 3030 
Q 2388 3097 2138 3097 
Q 1578 3097 1268 2742 
Q 959 2388 959 1747 
Q 959 1106 1268 751 
Q 1578 397 2138 397 
Q 2388 397 2633 464 
Q 2878 531 3122 666 
L 3122 134 
Q 2881 22 2623 -34 
Q 2366 -91 2075 -91 
Q 1284 -91 818 406 
Q 353 903 353 1747 
Q 353 2603 823 3093 
Q 1294 3584 2113 3584 
Q 2378 3584 2631 3529 
Q 2884 3475 3122 3366 
z
" transform="scale(0.015625)"/>
       <path id="DejaVuSans-68" d="M 3513 2113 
L 3513 0 
L 2938 0 
L 2938 2094 
Q 2938 2591 2744 2837 
Q 2550 3084 2163 3084 
Q 1697 3084 1428 2787 
Q 1159 2491 1159 1978 
L 1159 0 
L 581 0 
L 581 4863 
L 1159 4863 
L 1159 2956 
Q 1366 3272 1645 3428 
Q 1925 3584 2291 3584 
Q 2894 3584 3203 3211 
Q 3513 2838 3513 2113 
z
" transform="scale(0.015625)"/>
       <path id="DejaVuSans-73" d="M 2834 3397 
L 2834 2853 
Q 2591 2978 2328 3040 
Q 2066 3103 1784 3103 
Q 1356 3103 1142 2972 
Q 928 2841 928 2578 
Q 928 2378 1081 2264 
Q 1234 2150 1697 2047 
L 1894 2003 
Q 2506 1872 2764 1633 
Q 3022 1394 3022 966 
Q 3022 478 2636 193 
Q 2250 -91 1575 -91 
Q 1294 -91 989 -36 
Q 684 19 347 128 
L 347 722 
Q 666 556 975 473 
Q 1284 391 1588 391 
Q 1994 391 2212 530 
Q 2431 669 2431 922 
Q 2431 1156 2273 1281 
Q 2116 1406 1581 1522 
L 1381 1569 
Q 847 1681 609 1914 
Q 372 2147 372 2553 
Q 372 3047 722 3315 
Q 1072 3584 1716 3584 
Q 2034 3584 2315 3537 
Q 2597 3491 2834 3397 
z
" transform="scale(0.015625)"/>
      </defs>
      <use xlink:href="#DejaVuSans-45"/>
      <use xlink:href="#DejaVuSans-70" x="63.183594"/>
      <use xlink:href="#DejaVuSans-6f" x="126.660156"/>
      <use xlink:href="#DejaVuSans-63" x="187.841797"/>
      <use xlink:href="#DejaVuSans-68" x="242.822266"/>
      <use xlink:href="#DejaVuSans-73" x="306.201172"/>
     </g>
    </g>
   </g>
   <g id="matplotlib.axis_2">
    <g id="ytick_1">
     <g id="line2d_13">
      <path d="M 45 348.318227 
L 324 348.318227 
" clip-path="url(#p4d6b66990c)" style="fill: none; stroke: #b0b0b0; stroke-width: 0.8; stroke-linecap: square"/>
     </g>
     <g id="line2d_14">
      <defs>
       <path id="m00ce628ad1" d="M 0 0 
L -3.5 0 
" style="stroke: #000000; stroke-width: 0.8"/>
      </defs>
      <g>
       <use xlink:href="#m00ce628ad1" x="45" y="348.318227" style="stroke: #000000; stroke-width: 0.8"/>
      </g>
     </g>
     <g id="text_8">
      <!-- 0.95 -->
      <g transform="translate(15.734375 352.117446)scale(0.1 -0.1)">
       <defs>
        <path id="DejaVuSans-2e" d="M 684 794 
L 1344 794 
L 1344 0 
L 684 0 
L 684 794 
z
" transform="scale(0.015625)"/>
        <path id="DejaVuSans-39" d="M 703 97 
L 703 672 
Q 941 559 1184 500 
Q 1428 441 1663 441 
Q 2288 441 2617 861 
Q 2947 1281 2994 2138 
Q 2813 1869 2534 1725 
Q 2256 1581 1919 1581 
Q 1219 1581 811 2004 
Q 403 2428 403 3163 
Q 403 3881 828 4315 
Q 1253 4750 1959 4750 
Q 2769 4750 3195 4129 
Q 3622 3509 3622 2328 
Q 3622 1225 3098 567 
Q 2575 -91 1691 -91 
Q 1453 -91 1209 -44 
Q 966 3 703 97 
z
M 1959 2075 
Q 2384 2075 2632 2365 
Q 2881 2656 2881 3163 
Q 2881 3666 2632 3958 
Q 2384 4250 1959 4250 
Q 1534 4250 1286 3958 
Q 1038 3666 1038 3163 
Q 1038 2656 1286 2365 
Q 1534 2075 1959 2075 
z
" transform="scale(0.015625)"/>
       </defs>
       <use xlink:href="#DejaVuSans-30"/>
       <use xlink:href="#DejaVuSans-2e" x="63.623047"/>
       <use xlink:href="#DejaVuSans-39" x="95.410156"/>
       <use xlink:href="#DejaVuSans-35" x="159.033203"/>
      </g>
     </g>
    </g>
    <g id="ytick_2">
     <g id="line2d_15">
      <path d="M 45 298.905189 
L 324 298.905189 
" clip-path="url(#p4d6b66990c)" style="fill: none; stroke: #b0b0b0; stroke-width: 0.8; stroke-linecap: square"/>
     </g>
     <g id="line2d_16">
      <g>
       <use xlink:href="#m00ce628ad1" x="45" y="298.905189" style="stroke: #000000; stroke-width: 0.8"/>
      </g>
     </g>
     <g id="text_9">
      <!-- 1.00 -->
      <g transform="translate(15.734375 302.704408)scale(0.1 -0.1)">
       <use xlink:href="#DejaVuSans-31"/>
       <use xlink:href="#DejaVuSans-2e" x="63.623047"/>
       <use xlink:href="#DejaVuSans-30" x="95.410156"/>
       <use xlink:href="#DejaVuSans-30" x="159.033203"/>
      </g>
     </g>
    </g>
    <g id="ytick_3">
     <g id="line2d_17">
      <path d="M 45 249.492151 
L 324 249.492151 
" clip-path="url(#p4d6b66990c)" style="fill: none; stroke: #b0b0b0; stroke-width: 0.8; stroke-linecap: square"/>
     </g>
     <g id="line2d_18">
      <g>
       <use xlink:href="#m00ce628ad1" x="45" y="249.492151" style="stroke: #000000; stroke-width: 0.8"/>
      </g>
     </g>
     <g id="text_10">
      <!-- 1.05 -->
      <g transform="translate(15.734375 253.29137)scale(0.1 -0.1)">
       <use xlink:href="#DejaVuSans-31"/>
       <use xlink:href="#DejaVuSans-2e" x="63.623047"/>
       <use xlink:href="#DejaVuSans-30" x="95.410156"/>
       <use xlink:href="#DejaVuSans-35" x="159.033203"/>
      </g>
     </g>
    </g>
    <g id="ytick_4">
     <g id="line2d_19">
      <path d="M 45 200.079113 
L 324 200.079113 
" clip-path="url(#p4d6b66990c)" style="fill: none; stroke: #b0b0b0; stroke-width: 0.8; stroke-linecap: square"/>
     </g>
     <g id="line2d_20">
      <g>
       <use xlink:href="#m00ce628ad1" x="45" y="200.079113" style="stroke: #000000; stroke-width: 0.8"/>
      </g>
     </g>
     <g id="text_11">
      <!-- 1.10 -->
      <g transform="translate(15.734375 203.878332)scale(0.1 -0.1)">
       <use xlink:href="#DejaVuSans-31"/>
       <use xlink:href="#DejaVuSans-2e" x="63.623047"/>
       <use xlink:href="#DejaVuSans-31" x="95.410156"/>
       <use xlink:href="#DejaVuSans-30" x="159.033203"/>
      </g>
     </g>
    </g>
    <g id="ytick_5">
     <g id="line2d_21">
      <path d="M 45 150.666076 
L 324 150.666076 
" clip-path="url(#p4d6b66990c)" style="fill: none; stroke: #b0b0b0; stroke-width: 0.8; stroke-linecap: square"/>
     </g>
     <g id="line2d_22">
      <g>
       <use xlink:href="#m00ce628ad1" x="45" y="150.666076" style="stroke: #000000; stroke-width: 0.8"/>
      </g>
     </g>
     <g id="text_12">
      <!-- 1.15 -->
      <g transform="translate(15.734375 154.465294)scale(0.1 -0.1)">
       <use xlink:href="#DejaVuSans-31"/>
       <use xlink:href="#DejaVuSans-2e" x="63.623047"/>
       <use xlink:href="#DejaVuSans-31" x="95.410156"/>
       <use xlink:href="#DejaVuSans-35" x="159.033203"/>
      </g>
     </g>
    </g>
    <g id="ytick_6">
     <g id="line2d_23">
      <path d="M 45 101.253038 
L 324 101.253038 
" clip-path="url(#p4d6b66990c)" style="fill: none; stroke: #b0b0b0; stroke-width: 0.8; stroke-linecap: square"/>
     </g>
     <g id="line2d_24">
      <g>
       <use xlink:href="#m00ce628ad1" x="45" y="101.253038" style="stroke: #000000; stroke-width: 0.8"/>
      </g>
     </g>
     <g id="text_13">
      <!-- 1.20 -->
      <g transform="translate(15.734375 105.052257)scale(0.1 -0.1)">
       <use xlink:href="#DejaVuSans-31"/>
       <use xlink:href="#DejaVuSans-2e" x="63.623047"/>
       <use xlink:href="#DejaVuSans-32" x="95.410156"/>
       <use xlink:href="#DejaVuSans-30" x="159.033203"/>
      </g>
     </g>
    </g>
    <g id="ytick_7">
     <g id="line2d_25">
      <path d="M 45 51.84 
L 324 51.84 
" clip-path="url(#p4d6b66990c)" style="fill: none; stroke: #b0b0b0; stroke-width: 0.8; stroke-linecap: square"/>
     </g>
     <g id="line2d_26">
      <g>
       <use xlink:href="#m00ce628ad1" x="45" y="51.84" style="stroke: #000000; stroke-width: 0.8"/>
      </g>
     </g>
     <g id="text_14">
      <!-- 1.25 -->
      <g transform="translate(15.734375 55.639219)scale(0.1 -0.1)">
       <use xlink:href="#DejaVuSans-31"/>
       <use xlink:href="#DejaVuSans-2e" x="63.623047"/>
       <use xlink:href="#DejaVuSans-32" x="95.410156"/>
       <use xlink:href="#DejaVuSans-35" x="159.033203"/>
      </g>
     </g>
    </g>
    <g id="text_15">
     <!-- Cross Entropy Loss ($\bar{x} \pm s \div \sqrt{N}$) -->
     <g transform="translate(9.634375 293.82)rotate(-90)scale(0.1 -0.1)">
      <defs>
       <path id="DejaVuSans-43" d="M 4122 4306 
L 4122 3641 
Q 3803 3938 3442 4084 
Q 3081 4231 2675 4231 
Q 1875 4231 1450 3742 
Q 1025 3253 1025 2328 
Q 1025 1406 1450 917 
Q 1875 428 2675 428 
Q 3081 428 3442 575 
Q 3803 722 4122 1019 
L 4122 359 
Q 3791 134 3420 21 
Q 3050 -91 2638 -91 
Q 1578 -91 968 557 
Q 359 1206 359 2328 
Q 359 3453 968 4101 
Q 1578 4750 2638 4750 
Q 3056 4750 3426 4639 
Q 3797 4528 4122 4306 
z
" transform="scale(0.015625)"/>
       <path id="DejaVuSans-72" d="M 2631 2963 
Q 2534 3019 2420 3045 
Q 2306 3072 2169 3072 
Q 1681 3072 1420 2755 
Q 1159 2438 1159 1844 
L 1159 0 
L 581 0 
L 581 3500 
L 1159 3500 
L 1159 2956 
Q 1341 3275 1631 3429 
Q 1922 3584 2338 3584 
Q 2397 3584 2469 3576 
Q 2541 3569 2628 3553 
L 2631 2963 
z
" transform="scale(0.015625)"/>
       <path id="DejaVuSans-20" transform="scale(0.015625)"/>
       <path id="DejaVuSans-6e" d="M 3513 2113 
L 3513 0 
L 2938 0 
L 2938 2094 
Q 2938 2591 2744 2837 
Q 2550 3084 2163 3084 
Q 1697 3084 1428 2787 
Q 1159 2491 1159 1978 
L 1159 0 
L 581 0 
L 581 3500 
L 1159 3500 
L 1159 2956 
Q 1366 3272 1645 3428 
Q 1925 3584 2291 3584 
Q 2894 3584 3203 3211 
Q 3513 2838 3513 2113 
z
" transform="scale(0.015625)"/>
       <path id="DejaVuSans-74" d="M 1172 4494 
L 1172 3500 
L 2356 3500 
L 2356 3053 
L 1172 3053 
L 1172 1153 
Q 1172 725 1289 603 
Q 1406 481 1766 481 
L 2356 481 
L 2356 0 
L 1766 0 
Q 1100 0 847 248 
Q 594 497 594 1153 
L 594 3053 
L 172 3053 
L 172 3500 
L 594 3500 
L 594 4494 
L 1172 4494 
z
" transform="scale(0.015625)"/>
       <path id="DejaVuSans-79" d="M 2059 -325 
Q 1816 -950 1584 -1140 
Q 1353 -1331 966 -1331 
L 506 -1331 
L 506 -850 
L 844 -850 
Q 1081 -850 1212 -737 
Q 1344 -625 1503 -206 
L 1606 56 
L 191 3500 
L 800 3500 
L 1894 763 
L 2988 3500 
L 3597 3500 
L 2059 -325 
z
" transform="scale(0.015625)"/>
       <path id="DejaVuSans-4c" d="M 628 4666 
L 1259 4666 
L 1259 531 
L 3531 531 
L 3531 0 
L 628 0 
L 628 4666 
z
" transform="scale(0.015625)"/>
       <path id="DejaVuSans-28" d="M 1984 4856 
Q 1566 4138 1362 3434 
Q 1159 2731 1159 2009 
Q 1159 1288 1364 580 
Q 1569 -128 1984 -844 
L 1484 -844 
Q 1016 -109 783 600 
Q 550 1309 550 2009 
Q 550 2706 781 3412 
Q 1013 4119 1484 4856 
L 1984 4856 
z
" transform="scale(0.015625)"/>
       <path id="DejaVuSans-304" d="M -2518 4769 
L -650 4769 
L -650 4306 
L -2518 4306 
L -2518 4769 
z
" transform="scale(0.015625)"/>
       <path id="DejaVuSans-Oblique-78" d="M 3841 3500 
L 2234 1784 
L 3219 0 
L 2559 0 
L 1819 1388 
L 531 0 
L -166 0 
L 1556 1844 
L 641 3500 
L 1300 3500 
L 1972 2234 
L 3144 3500 
L 3841 3500 
z
" transform="scale(0.015625)"/>
       <path id="DejaVuSans-b1" d="M 2944 4013 
L 2944 2803 
L 4684 2803 
L 4684 2272 
L 2944 2272 
L 2944 1063 
L 2419 1063 
L 2419 2272 
L 678 2272 
L 678 2803 
L 2419 2803 
L 2419 4013 
L 2944 4013 
z
M 678 531 
L 4684 531 
L 4684 0 
L 678 0 
L 678 531 
z
" transform="scale(0.015625)"/>
       <path id="DejaVuSans-Oblique-73" d="M 3200 3397 
L 3091 2853 
Q 2863 2978 2609 3040 
Q 2356 3103 2088 3103 
Q 1634 3103 1373 2948 
Q 1113 2794 1113 2528 
Q 1113 2219 1719 2053 
Q 1766 2041 1788 2034 
L 1972 1978 
Q 2547 1819 2739 1644 
Q 2931 1469 2931 1166 
Q 2931 609 2489 259 
Q 2047 -91 1331 -91 
Q 1053 -91 747 -37 
Q 441 16 72 128 
L 184 722 
Q 500 559 806 475 
Q 1113 391 1394 391 
Q 1816 391 2080 572 
Q 2344 753 2344 1031 
Q 2344 1331 1650 1516 
L 1591 1531 
L 1394 1581 
Q 956 1697 753 1886 
Q 550 2075 550 2369 
Q 550 2928 970 3256 
Q 1391 3584 2113 3584 
Q 2397 3584 2667 3537 
Q 2938 3491 3200 3397 
z
" transform="scale(0.015625)"/>
       <path id="DejaVuSans-f7" d="M 2297 3547 
L 3066 3547 
L 3066 2778 
L 2297 2778 
L 2297 3547 
z
M 2297 1234 
L 3066 1234 
L 3066 469 
L 2297 469 
L 2297 1234 
z
M 678 2272 
L 4684 2272 
L 4684 1741 
L 678 1741 
L 678 2272 
z
" transform="scale(0.015625)"/>
       <path id="STIXSizeOneSym-Regular-221a" d="M 6970 9933 
L 3373 -1888 
L 3104 -1888 
L 1626 2918 
Q 1555 3149 1465 3251 
Q 1376 3354 1229 3354 
Q 1011 3354 794 3181 
L 717 3309 
L 1766 4115 
L 1926 4115 
L 3379 -602 
L 3405 -602 
L 6605 9933 
L 6970 9933 
z
" transform="scale(0.015625)"/>
       <path id="DejaVuSans-Oblique-4e" d="M 1081 4666 
L 1931 4666 
L 3219 666 
L 4000 4666 
L 4616 4666 
L 3706 0 
L 2853 0 
L 1569 4025 
L 788 0 
L 172 0 
L 1081 4666 
z
" transform="scale(0.015625)"/>
       <path id="DejaVuSans-29" d="M 513 4856 
L 1013 4856 
Q 1481 4119 1714 3412 
Q 1947 2706 1947 2009 
Q 1947 1309 1714 600 
Q 1481 -109 1013 -844 
L 513 -844 
Q 928 -128 1133 580 
Q 1338 1288 1338 2009 
Q 1338 2731 1133 3434 
Q 928 4138 513 4856 
z
" transform="scale(0.015625)"/>
      </defs>
      <use xlink:href="#DejaVuSans-43" transform="translate(0 0.578125)"/>
      <use xlink:href="#DejaVuSans-72" transform="translate(69.824219 0.578125)"/>
      <use xlink:href="#DejaVuSans-6f" transform="translate(110.9375 0.578125)"/>
      <use xlink:href="#DejaVuSans-73" transform="translate(172.119141 0.578125)"/>
      <use xlink:href="#DejaVuSans-73" transform="translate(224.21875 0.578125)"/>
      <use xlink:href="#DejaVuSans-20" transform="translate(276.318359 0.578125)"/>
      <use xlink:href="#DejaVuSans-45" transform="translate(308.105469 0.578125)"/>
      <use xlink:href="#DejaVuSans-6e" transform="translate(371.289062 0.578125)"/>
      <use xlink:href="#DejaVuSans-74" transform="translate(434.667969 0.578125)"/>
      <use xlink:href="#DejaVuSans-72" transform="translate(473.876953 0.578125)"/>
      <use xlink:href="#DejaVuSans-6f" transform="translate(514.990234 0.578125)"/>
      <use xlink:href="#DejaVuSans-70" transform="translate(576.171875 0.578125)"/>
      <use xlink:href="#DejaVuSans-79" transform="translate(639.648438 0.578125)"/>
      <use xlink:href="#DejaVuSans-20" transform="translate(698.828125 0.578125)"/>
      <use xlink:href="#DejaVuSans-4c" transform="translate(730.615234 0.578125)"/>
      <use xlink:href="#DejaVuSans-6f" transform="translate(786.328125 0.578125)"/>
      <use xlink:href="#DejaVuSans-73" transform="translate(847.509766 0.578125)"/>
      <use xlink:href="#DejaVuSans-73" transform="translate(899.609375 0.578125)"/>
      <use xlink:href="#DejaVuSans-20" transform="translate(951.708984 0.578125)"/>
      <use xlink:href="#DejaVuSans-28" transform="translate(983.496094 0.578125)"/>
      <use xlink:href="#DejaVuSans-304" transform="translate(1084.648438 0.484375)"/>
      <use xlink:href="#DejaVuSans-Oblique-78" transform="translate(1022.509766 0.578125)"/>
      <use xlink:href="#DejaVuSans-b1" transform="translate(1101.171875 0.578125)"/>
      <use xlink:href="#DejaVuSans-Oblique-73" transform="translate(1204.443359 0.578125)"/>
      <use xlink:href="#DejaVuSans-f7" transform="translate(1276.025391 0.578125)"/>
      <use xlink:href="#STIXSizeOneSym-Regular-221a" transform="translate(1379.296875 17.09375)scale(0.563912)"/>
      <use xlink:href="#DejaVuSans-Oblique-4e" transform="translate(1451.385239 0.84375)"/>
      <use xlink:href="#DejaVuSans-29" transform="translate(1538.689926 0.578125)"/>
      <path d="M 1438.885239 97.5 
L 1438.885239 103.75 
L 1538.689926 103.75 
L 1538.689926 97.5 
L 1438.885239 97.5 
z
"/>
     </g>
    </g>
   </g>
   <g id="line2d_27">
    <path d="M 57.681818 90.494965 
L 67.827273 154.811966 
L 77.972727 191.745976 
L 88.118182 184.369929 
L 98.263636 196.259059 
L 108.409091 187.13271 
L 118.554545 204.989871 
L 128.7 209.543393 
L 138.845455 202.675609 
L 148.990909 214.094104 
L 159.136364 227.94942 
L 169.281818 248.965028 
L 179.427273 247.858192 
L 189.572727 249.645091 
L 199.718182 250.343445 
L 209.863636 250.891174 
" clip-path="url(#p4d6b66990c)" style="fill: none; stroke: #1f77b4; stroke-width: 1.5; stroke-linecap: square"/>
   </g>
   <g id="line2d_28">
    <path d="M 57.681818 183.656614 
L 67.827273 247.316812 
L 77.972727 284.978025 
L 88.118182 292.962923 
L 98.263636 285.088617 
L 108.409091 300.115797 
L 118.554545 313.031308 
L 128.7 281.328464 
L 138.845455 296.559348 
L 148.990909 290.044597 
L 159.136364 318.590938 
L 169.281818 319.203764 
L 179.427273 332.770587 
L 189.572727 320.723456 
L 199.718182 325.9589 
L 209.863636 333.483318 
L 220.009091 334.316168 
L 230.154545 334.926346 
L 240.3 334.965234 
L 250.445455 335.346898 
L 260.590909 336.213023 
L 270.736364 336.153675 
L 280.881818 335.880316 
" clip-path="url(#p4d6b66990c)" style="fill: none; stroke: #ff7f0e; stroke-width: 1.5; stroke-linecap: square"/>
   </g>
   <g id="line2d_29">
    <path d="M 61.551256 -1 
L 67.827273 99.142229 
L 77.972727 125.31017 
L 88.118182 168.724938 
L 98.263636 176.751511 
L 108.409091 177.084873 
L 118.554545 165.838035 
L 128.7 160.408148 
L 138.845455 191.154083 
L 148.990909 220.121381 
L 159.136364 222.253264 
L 169.281818 208.191942 
L 179.427273 212.500274 
L 189.572727 222.523926 
L 199.718182 222.943127 
L 209.863636 224.946485 
L 220.009091 224.970183 
L 230.154545 225.519452 
L 240.3 224.518394 
" clip-path="url(#p4d6b66990c)" style="fill: none; stroke: #2ca02c; stroke-width: 1.5; stroke-linecap: square"/>
   </g>
   <g id="line2d_30">
    <path d="M 57.681818 170.347878 
L 67.827273 227.33715 
L 77.972727 239.133844 
L 88.118182 255.133658 
L 98.263636 275.494513 
L 108.409091 260.635784 
L 118.554545 251.672888 
L 128.7 242.234856 
L 138.845455 282.681365 
L 148.990909 269.558447 
L 159.136364 261.50004 
L 169.281818 258.133636 
L 179.427273 287.269298 
L 189.572727 287.877409 
L 199.718182 290.430527 
L 209.863636 291.374807 
L 220.009091 290.020273 
L 230.154545 290.970424 
" clip-path="url(#p4d6b66990c)" style="fill: none; stroke: #d62728; stroke-width: 1.5; stroke-linecap: square"/>
   </g>
   <g id="line2d_31">
    <path d="M 66.190632 -1 
L 67.827273 27.75462 
L 77.972727 57.327062 
L 88.118182 71.890806 
L 98.263636 99.074418 
L 108.409091 125.962619 
L 118.554545 142.042567 
L 128.7 153.814711 
L 138.845455 165.93931 
L 148.990909 143.287855 
L 159.136364 160.990396 
L 169.281818 189.857685 
L 179.427273 148.841117 
L 189.572727 172.513305 
L 199.718182 214.663442 
L 209.863636 237.213531 
L 220.009091 229.476176 
L 230.154545 238.922254 
L 240.3 218.386124 
L 250.445455 251.114889 
L 260.590909 250.191799 
L 270.736364 250.854909 
L 280.881818 251.078705 
L 291.027273 250.073407 
L 301.172727 251.076669 
L 311.318182 250.284249 
" clip-path="url(#p4d6b66990c)" style="fill: none; stroke-dasharray: 5.55,2.4; stroke-dashoffset: 0; stroke: #9467bd; stroke-width: 1.5"/>
   </g>
   <g id="line2d_32">
    <path d="M 57.681818 69.761043 
L 67.827273 136.484215 
L 77.972727 181.092559 
L 88.118182 198.367565 
L 98.263636 215.613977 
L 108.409091 222.204428 
L 118.554545 238.679365 
L 128.7 224.056309 
L 138.845455 276.014934 
L 148.990909 263.901648 
L 159.136364 294.602218 
L 169.281818 290.881298 
L 179.427273 293.964964 
L 189.572727 296.85316 
L 199.718182 302.844273 
L 209.863636 307.431879 
L 220.009091 308.95547 
L 230.154545 309.383489 
L 240.3 314.346924 
L 250.445455 309.877715 
L 260.590909 313.497544 
" clip-path="url(#p4d6b66990c)" style="fill: none; stroke-dasharray: 5.55,2.4; stroke-dashoffset: 0; stroke: #8c564b; stroke-width: 1.5"/>
   </g>
   <g id="line2d_33">
    <path d="M 57.681818 35.476593 
L 67.827273 193.746192 
L 77.972727 242.509623 
L 88.118182 255.028065 
L 98.263636 258.296457 
L 108.409091 236.352575 
L 118.554545 248.879145 
L 128.7 241.460744 
L 138.845455 263.016355 
L 148.990909 263.414941 
L 159.136364 266.11601 
L 169.281818 265.11644 
L 179.427273 267.685777 
L 189.572727 268.823838 
L 199.718182 265.669727 
" clip-path="url(#p4d6b66990c)" style="fill: none; stroke-dasharray: 5.55,2.4; stroke-dashoffset: 0; stroke: #e377c2; stroke-width: 1.5"/>
   </g>
   <g id="line2d_34">
    <path d="M 57.681818 125.336588 
L 67.827273 252.205693 
L 77.972727 285.762039 
L 88.118182 308.635269 
L 98.263636 290.533355 
L 108.409091 299.271722 
L 118.554545 289.981592 
L 128.7 296.542412 
L 138.845455 301.461597 
L 148.990909 320.905947 
L 159.136364 321.201536 
L 169.281818 322.184352 
L 179.427273 323.33502 
L 189.572727 322.176882 
L 199.718182 323.814174 
" clip-path="url(#p4d6b66990c)" style="fill: none; stroke-dasharray: 5.55,2.4; stroke-dashoffset: 0; stroke: #7f7f7f; stroke-width: 1.5"/>
   </g>
   <g id="patch_3">
    <path d="M 45 378 
L 45 51.84 
" style="fill: none; stroke: #000000; stroke-width: 0.8; stroke-linejoin: miter; stroke-linecap: square"/>
   </g>
   <g id="patch_4">
    <path d="M 324 378 
L 324 51.84 
" style="fill: none; stroke: #000000; stroke-width: 0.8; stroke-linejoin: miter; stroke-linecap: square"/>
   </g>
   <g id="patch_5">
    <path d="M 45 378 
L 324 378 
" style="fill: none; stroke: #000000; stroke-width: 0.8; stroke-linejoin: miter; stroke-linecap: square"/>
   </g>
   <g id="patch_6">
    <path d="M 45 51.84 
L 324 51.84 
" style="fill: none; stroke: #000000; stroke-width: 0.8; stroke-linejoin: miter; stroke-linecap: square"/>
   </g>
   <g id="legend_1">
    <g id="patch_7">
     <path d="M 200.907812 178.93375 
L 317 178.93375 
Q 319 178.93375 319 176.93375 
L 319 58.84 
Q 319 56.84 317 56.84 
L 200.907812 56.84 
Q 198.907812 56.84 198.907812 58.84 
L 198.907812 176.93375 
Q 198.907812 178.93375 200.907812 178.93375 
z
" style="fill: #ffffff; opacity: 0.8; stroke: #cccccc; stroke-linejoin: miter"/>
    </g>
    <g id="line2d_35">
     <path d="M 202.907812 64.938437 
L 212.907812 64.938437 
L 222.907812 64.938437 
" style="fill: none; stroke: #1f77b4; stroke-width: 1.5; stroke-linecap: square"/>
    </g>
    <g id="text_16">
     <!-- vit_b_16 -->
     <g transform="translate(230.907812 68.438437)scale(0.1 -0.1)">
      <defs>
       <path id="DejaVuSans-76" d="M 191 3500 
L 800 3500 
L 1894 563 
L 2988 3500 
L 3597 3500 
L 2284 0 
L 1503 0 
L 191 3500 
z
" transform="scale(0.015625)"/>
       <path id="DejaVuSans-69" d="M 603 3500 
L 1178 3500 
L 1178 0 
L 603 0 
L 603 3500 
z
M 603 4863 
L 1178 4863 
L 1178 4134 
L 603 4134 
L 603 4863 
z
" transform="scale(0.015625)"/>
       <path id="DejaVuSans-5f" d="M 3263 -1063 
L 3263 -1509 
L -63 -1509 
L -63 -1063 
L 3263 -1063 
z
" transform="scale(0.015625)"/>
       <path id="DejaVuSans-62" d="M 3116 1747 
Q 3116 2381 2855 2742 
Q 2594 3103 2138 3103 
Q 1681 3103 1420 2742 
Q 1159 2381 1159 1747 
Q 1159 1113 1420 752 
Q 1681 391 2138 391 
Q 2594 391 2855 752 
Q 3116 1113 3116 1747 
z
M 1159 2969 
Q 1341 3281 1617 3432 
Q 1894 3584 2278 3584 
Q 2916 3584 3314 3078 
Q 3713 2572 3713 1747 
Q 3713 922 3314 415 
Q 2916 -91 2278 -91 
Q 1894 -91 1617 61 
Q 1341 213 1159 525 
L 1159 0 
L 581 0 
L 581 4863 
L 1159 4863 
L 1159 2969 
z
" transform="scale(0.015625)"/>
       <path id="DejaVuSans-36" d="M 2113 2584 
Q 1688 2584 1439 2293 
Q 1191 2003 1191 1497 
Q 1191 994 1439 701 
Q 1688 409 2113 409 
Q 2538 409 2786 701 
Q 3034 994 3034 1497 
Q 3034 2003 2786 2293 
Q 2538 2584 2113 2584 
z
M 3366 4563 
L 3366 3988 
Q 3128 4100 2886 4159 
Q 2644 4219 2406 4219 
Q 1781 4219 1451 3797 
Q 1122 3375 1075 2522 
Q 1259 2794 1537 2939 
Q 1816 3084 2150 3084 
Q 2853 3084 3261 2657 
Q 3669 2231 3669 1497 
Q 3669 778 3244 343 
Q 2819 -91 2113 -91 
Q 1303 -91 875 529 
Q 447 1150 447 2328 
Q 447 3434 972 4092 
Q 1497 4750 2381 4750 
Q 2619 4750 2861 4703 
Q 3103 4656 3366 4563 
z
" transform="scale(0.015625)"/>
      </defs>
      <use xlink:href="#DejaVuSans-76"/>
      <use xlink:href="#DejaVuSans-69" x="59.179688"/>
      <use xlink:href="#DejaVuSans-74" x="86.962891"/>
      <use xlink:href="#DejaVuSans-5f" x="126.171875"/>
      <use xlink:href="#DejaVuSans-62" x="176.171875"/>
      <use xlink:href="#DejaVuSans-5f" x="239.648438"/>
      <use xlink:href="#DejaVuSans-31" x="289.648438"/>
      <use xlink:href="#DejaVuSans-36" x="353.271484"/>
     </g>
    </g>
    <g id="line2d_36">
     <path d="M 202.907812 79.894687 
L 212.907812 79.894687 
L 222.907812 79.894687 
" style="fill: none; stroke: #ff7f0e; stroke-width: 1.5; stroke-linecap: square"/>
    </g>
    <g id="text_17">
     <!-- swin_b -->
     <g transform="translate(230.907812 83.394687)scale(0.1 -0.1)">
      <defs>
       <path id="DejaVuSans-77" d="M 269 3500 
L 844 3500 
L 1563 769 
L 2278 3500 
L 2956 3500 
L 3675 769 
L 4391 3500 
L 4966 3500 
L 4050 0 
L 3372 0 
L 2619 2869 
L 1863 0 
L 1184 0 
L 269 3500 
z
" transform="scale(0.015625)"/>
      </defs>
      <use xlink:href="#DejaVuSans-73"/>
      <use xlink:href="#DejaVuSans-77" x="52.099609"/>
      <use xlink:href="#DejaVuSans-69" x="133.886719"/>
      <use xlink:href="#DejaVuSans-6e" x="161.669922"/>
      <use xlink:href="#DejaVuSans-5f" x="225.048828"/>
      <use xlink:href="#DejaVuSans-62" x="275.048828"/>
     </g>
    </g>
    <g id="line2d_37">
     <path d="M 202.907812 94.850937 
L 212.907812 94.850937 
L 222.907812 94.850937 
" style="fill: none; stroke: #2ca02c; stroke-width: 1.5; stroke-linecap: square"/>
    </g>
    <g id="text_18">
     <!-- beit_b_16 -->
     <g transform="translate(230.907812 98.350937)scale(0.1 -0.1)">
      <defs>
       <path id="DejaVuSans-65" d="M 3597 1894 
L 3597 1613 
L 953 1613 
Q 991 1019 1311 708 
Q 1631 397 2203 397 
Q 2534 397 2845 478 
Q 3156 559 3463 722 
L 3463 178 
Q 3153 47 2828 -22 
Q 2503 -91 2169 -91 
Q 1331 -91 842 396 
Q 353 884 353 1716 
Q 353 2575 817 3079 
Q 1281 3584 2069 3584 
Q 2775 3584 3186 3129 
Q 3597 2675 3597 1894 
z
M 3022 2063 
Q 3016 2534 2758 2815 
Q 2500 3097 2075 3097 
Q 1594 3097 1305 2825 
Q 1016 2553 972 2059 
L 3022 2063 
z
" transform="scale(0.015625)"/>
      </defs>
      <use xlink:href="#DejaVuSans-62"/>
      <use xlink:href="#DejaVuSans-65" x="63.476562"/>
      <use xlink:href="#DejaVuSans-69" x="125"/>
      <use xlink:href="#DejaVuSans-74" x="152.783203"/>
      <use xlink:href="#DejaVuSans-5f" x="191.992188"/>
      <use xlink:href="#DejaVuSans-62" x="241.992188"/>
      <use xlink:href="#DejaVuSans-5f" x="305.46875"/>
      <use xlink:href="#DejaVuSans-31" x="355.46875"/>
      <use xlink:href="#DejaVuSans-36" x="419.091797"/>
     </g>
    </g>
    <g id="line2d_38">
     <path d="M 202.907812 109.807187 
L 212.907812 109.807187 
L 222.907812 109.807187 
" style="fill: none; stroke: #d62728; stroke-width: 1.5; stroke-linecap: square"/>
    </g>
    <g id="text_19">
     <!-- deit_b_16 -->
     <g transform="translate(230.907812 113.307187)scale(0.1 -0.1)">
      <defs>
       <path id="DejaVuSans-64" d="M 2906 2969 
L 2906 4863 
L 3481 4863 
L 3481 0 
L 2906 0 
L 2906 525 
Q 2725 213 2448 61 
Q 2172 -91 1784 -91 
Q 1150 -91 751 415 
Q 353 922 353 1747 
Q 353 2572 751 3078 
Q 1150 3584 1784 3584 
Q 2172 3584 2448 3432 
Q 2725 3281 2906 2969 
z
M 947 1747 
Q 947 1113 1208 752 
Q 1469 391 1925 391 
Q 2381 391 2643 752 
Q 2906 1113 2906 1747 
Q 2906 2381 2643 2742 
Q 2381 3103 1925 3103 
Q 1469 3103 1208 2742 
Q 947 2381 947 1747 
z
" transform="scale(0.015625)"/>
      </defs>
      <use xlink:href="#DejaVuSans-64"/>
      <use xlink:href="#DejaVuSans-65" x="63.476562"/>
      <use xlink:href="#DejaVuSans-69" x="125"/>
      <use xlink:href="#DejaVuSans-74" x="152.783203"/>
      <use xlink:href="#DejaVuSans-5f" x="191.992188"/>
      <use xlink:href="#DejaVuSans-62" x="241.992188"/>
      <use xlink:href="#DejaVuSans-5f" x="305.46875"/>
      <use xlink:href="#DejaVuSans-31" x="355.46875"/>
      <use xlink:href="#DejaVuSans-36" x="419.091797"/>
     </g>
    </g>
    <g id="line2d_39">
     <path d="M 202.907812 124.763437 
L 212.907812 124.763437 
L 222.907812 124.763437 
" style="fill: none; stroke-dasharray: 5.55,2.4; stroke-dashoffset: 0; stroke: #9467bd; stroke-width: 1.5"/>
    </g>
    <g id="text_20">
     <!-- vgg19 -->
     <g transform="translate(230.907812 128.263437)scale(0.1 -0.1)">
      <defs>
       <path id="DejaVuSans-67" d="M 2906 1791 
Q 2906 2416 2648 2759 
Q 2391 3103 1925 3103 
Q 1463 3103 1205 2759 
Q 947 2416 947 1791 
Q 947 1169 1205 825 
Q 1463 481 1925 481 
Q 2391 481 2648 825 
Q 2906 1169 2906 1791 
z
M 3481 434 
Q 3481 -459 3084 -895 
Q 2688 -1331 1869 -1331 
Q 1566 -1331 1297 -1286 
Q 1028 -1241 775 -1147 
L 775 -588 
Q 1028 -725 1275 -790 
Q 1522 -856 1778 -856 
Q 2344 -856 2625 -561 
Q 2906 -266 2906 331 
L 2906 616 
Q 2728 306 2450 153 
Q 2172 0 1784 0 
Q 1141 0 747 490 
Q 353 981 353 1791 
Q 353 2603 747 3093 
Q 1141 3584 1784 3584 
Q 2172 3584 2450 3431 
Q 2728 3278 2906 2969 
L 2906 3500 
L 3481 3500 
L 3481 434 
z
" transform="scale(0.015625)"/>
      </defs>
      <use xlink:href="#DejaVuSans-76"/>
      <use xlink:href="#DejaVuSans-67" x="59.179688"/>
      <use xlink:href="#DejaVuSans-67" x="122.65625"/>
      <use xlink:href="#DejaVuSans-31" x="186.132812"/>
      <use xlink:href="#DejaVuSans-39" x="249.755859"/>
     </g>
    </g>
    <g id="line2d_40">
     <path d="M 202.907812 139.441562 
L 212.907812 139.441562 
L 222.907812 139.441562 
" style="fill: none; stroke-dasharray: 5.55,2.4; stroke-dashoffset: 0; stroke: #8c564b; stroke-width: 1.5"/>
    </g>
    <g id="text_21">
     <!-- resnet50 -->
     <g transform="translate(230.907812 142.941562)scale(0.1 -0.1)">
      <use xlink:href="#DejaVuSans-72"/>
      <use xlink:href="#DejaVuSans-65" x="38.863281"/>
      <use xlink:href="#DejaVuSans-73" x="100.386719"/>
      <use xlink:href="#DejaVuSans-6e" x="152.486328"/>
      <use xlink:href="#DejaVuSans-65" x="215.865234"/>
      <use xlink:href="#DejaVuSans-74" x="277.388672"/>
      <use xlink:href="#DejaVuSans-35" x="316.597656"/>
      <use xlink:href="#DejaVuSans-30" x="380.220703"/>
     </g>
    </g>
    <g id="line2d_41">
     <path d="M 202.907812 154.119687 
L 212.907812 154.119687 
L 222.907812 154.119687 
" style="fill: none; stroke-dasharray: 5.55,2.4; stroke-dashoffset: 0; stroke: #e377c2; stroke-width: 1.5"/>
    </g>
    <g id="text_22">
     <!-- efficientnetv2_m -->
     <g transform="translate(230.907812 157.619687)scale(0.1 -0.1)">
      <defs>
       <path id="DejaVuSans-66" d="M 2375 4863 
L 2375 4384 
L 1825 4384 
Q 1516 4384 1395 4259 
Q 1275 4134 1275 3809 
L 1275 3500 
L 2222 3500 
L 2222 3053 
L 1275 3053 
L 1275 0 
L 697 0 
L 697 3053 
L 147 3053 
L 147 3500 
L 697 3500 
L 697 3744 
Q 697 4328 969 4595 
Q 1241 4863 1831 4863 
L 2375 4863 
z
" transform="scale(0.015625)"/>
       <path id="DejaVuSans-6d" d="M 3328 2828 
Q 3544 3216 3844 3400 
Q 4144 3584 4550 3584 
Q 5097 3584 5394 3201 
Q 5691 2819 5691 2113 
L 5691 0 
L 5113 0 
L 5113 2094 
Q 5113 2597 4934 2840 
Q 4756 3084 4391 3084 
Q 3944 3084 3684 2787 
Q 3425 2491 3425 1978 
L 3425 0 
L 2847 0 
L 2847 2094 
Q 2847 2600 2669 2842 
Q 2491 3084 2119 3084 
Q 1678 3084 1418 2786 
Q 1159 2488 1159 1978 
L 1159 0 
L 581 0 
L 581 3500 
L 1159 3500 
L 1159 2956 
Q 1356 3278 1631 3431 
Q 1906 3584 2284 3584 
Q 2666 3584 2933 3390 
Q 3200 3197 3328 2828 
z
" transform="scale(0.015625)"/>
      </defs>
      <use xlink:href="#DejaVuSans-65"/>
      <use xlink:href="#DejaVuSans-66" x="61.523438"/>
      <use xlink:href="#DejaVuSans-66" x="96.728516"/>
      <use xlink:href="#DejaVuSans-69" x="131.933594"/>
      <use xlink:href="#DejaVuSans-63" x="159.716797"/>
      <use xlink:href="#DejaVuSans-69" x="214.697266"/>
      <use xlink:href="#DejaVuSans-65" x="242.480469"/>
      <use xlink:href="#DejaVuSans-6e" x="304.003906"/>
      <use xlink:href="#DejaVuSans-74" x="367.382812"/>
      <use xlink:href="#DejaVuSans-6e" x="406.591797"/>
      <use xlink:href="#DejaVuSans-65" x="469.970703"/>
      <use xlink:href="#DejaVuSans-74" x="531.494141"/>
      <use xlink:href="#DejaVuSans-76" x="570.703125"/>
      <use xlink:href="#DejaVuSans-32" x="629.882812"/>
      <use xlink:href="#DejaVuSans-5f" x="693.505859"/>
      <use xlink:href="#DejaVuSans-6d" x="743.505859"/>
     </g>
    </g>
    <g id="line2d_42">
     <path d="M 202.907812 169.075937 
L 212.907812 169.075937 
L 222.907812 169.075937 
" style="fill: none; stroke-dasharray: 5.55,2.4; stroke-dashoffset: 0; stroke: #7f7f7f; stroke-width: 1.5"/>
    </g>
    <g id="text_23">
     <!-- convnext_b -->
     <g transform="translate(230.907812 172.575937)scale(0.1 -0.1)">
      <defs>
       <path id="DejaVuSans-78" d="M 3513 3500 
L 2247 1797 
L 3578 0 
L 2900 0 
L 1881 1375 
L 863 0 
L 184 0 
L 1544 1831 
L 300 3500 
L 978 3500 
L 1906 2253 
L 2834 3500 
L 3513 3500 
z
" transform="scale(0.015625)"/>
      </defs>
      <use xlink:href="#DejaVuSans-63"/>
      <use xlink:href="#DejaVuSans-6f" x="54.980469"/>
      <use xlink:href="#DejaVuSans-6e" x="116.162109"/>
      <use xlink:href="#DejaVuSans-76" x="179.541016"/>
      <use xlink:href="#DejaVuSans-6e" x="238.720703"/>
      <use xlink:href="#DejaVuSans-65" x="302.099609"/>
      <use xlink:href="#DejaVuSans-78" x="361.873047"/>
      <use xlink:href="#DejaVuSans-74" x="421.052734"/>
      <use xlink:href="#DejaVuSans-5f" x="460.261719"/>
      <use xlink:href="#DejaVuSans-62" x="510.261719"/>
     </g>
    </g>
   </g>
  </g>
 </g>
 <defs>
  <clipPath id="p4d6b66990c">
   <rect x="45" y="51.84" width="279" height="326.16"/>
  </clipPath>
 </defs>
</svg>
