<?xml version="1.0" encoding="utf-8" standalone="no"?>
<!DOCTYPE svg PUBLIC "-//W3C//DTD SVG 1.1//EN"
  "http://www.w3.org/Graphics/SVG/1.1/DTD/svg11.dtd">
<svg xmlns:xlink="http://www.w3.org/1999/xlink" width="360pt" height="432pt" viewBox="0 0 360 432" xmlns="http://www.w3.org/2000/svg" version="1.1">
 <metadata>
  <rdf:RDF xmlns:dc="http://purl.org/dc/elements/1.1/" xmlns:cc="http://creativecommons.org/ns#" xmlns:rdf="http://www.w3.org/1999/02/22-rdf-syntax-ns#">
   <cc:Work>
    <dc:type rdf:resource="http://purl.org/dc/dcmitype/StillImage"/>
    <dc:date>2022-05-27T06:41:39.954568</dc:date>
    <dc:format>image/svg+xml</dc:format>
    <dc:creator>
     <cc:Agent>
      <dc:title>Matplotlib v3.5.2, https://matplotlib.org/</dc:title>
     </cc:Agent>
    </dc:creator>
   </cc:Work>
  </rdf:RDF>
 </metadata>
 <defs>
  <style type="text/css">*{stroke-linejoin: round; stroke-linecap: butt}</style>
 </defs>
 <g id="figure_1">
  <g id="patch_1">
   <path d="M 0 432 
L 360 432 
L 360 0 
L 0 0 
L 0 432 
z
" style="fill: none"/>
  </g>
  <g id="axes_1">
   <g id="patch_2">
    <path d="M 45 378 
L 324 378 
L 324 51.84 
L 45 51.84 
z
" style="fill: #ffffff"/>
   </g>
   <g id="PolyCollection_1">
    <path d="M 57.681818 250.842227 
L 57.681818 267.315305 
L 66.136364 210.245413 
L 74.590909 201.987777 
L 83.045455 178.079867 
L 91.5 172.003114 
L 99.954545 176.053963 
L 108.409091 163.060147 
L 116.863636 157.595377 
L 125.318182 158.367853 
L 133.772727 165.460976 
L 142.227273 158.803466 
L 150.681818 155.633878 
L 159.136364 163.825668 
L 167.590909 150.798726 
L 176.045455 144.569309 
L 184.5 144.522044 
L 192.954545 147.259697 
L 201.409091 152.292772 
L 209.863636 143.756907 
L 218.318182 143.171188 
L 226.772727 141.985815 
L 235.227273 143.326441 
L 243.681818 139.942197 
L 252.136364 137.492409 
L 260.590909 140.168542 
L 269.045455 137.69676 
L 277.5 135.825501 
L 285.954545 134.888813 
L 285.954545 130.613501 
L 285.954545 130.613501 
L 277.5 131.353728 
L 269.045455 132.277328 
L 260.590909 134.836291 
L 252.136364 133.599622 
L 243.681818 132.267778 
L 235.227273 135.591194 
L 226.772727 135.254904 
L 218.318182 135.187475 
L 209.863636 135.160728 
L 201.409091 138.363269 
L 192.954545 137.806627 
L 184.5 136.072506 
L 176.045455 137.143185 
L 167.590909 140.416287 
L 159.136364 148.630271 
L 150.681818 148.996456 
L 142.227273 150.298642 
L 133.772727 153.702623 
L 125.318182 150.734255 
L 116.863636 145.917014 
L 108.409091 156.662423 
L 99.954545 167.14542 
L 91.5 163.370665 
L 83.045455 171.268205 
L 74.590909 188.16523 
L 66.136364 199.471605 
L 57.681818 250.842227 
z
" clip-path="url(#p41b260adfc)" style="fill: #1f77b4; fill-opacity: 0.2"/>
   </g>
   <g id="PolyCollection_2">
    <path d="M 57.681818 199.286294 
L 57.681818 208.194837 
L 66.136364 175.237665 
L 74.590909 169.524359 
L 83.045455 153.79186 
L 91.5 149.466045 
L 99.954545 140.859573 
L 108.409091 141.79083 
L 116.863636 136.729521 
L 125.318182 131.374234 
L 133.772727 133.3253 
L 142.227273 138.707217 
L 150.681818 120.953041 
L 159.136364 134.519614 
L 167.590909 121.364629 
L 176.045455 130.525614 
L 184.5 121.948353 
L 192.954545 120.052484 
L 201.409091 123.231978 
L 209.863636 120.959016 
L 218.318182 118.493266 
L 226.772727 116.800448 
L 235.227273 117.525934 
L 243.681818 116.352645 
L 252.136364 118.103213 
L 260.590909 116.97078 
L 269.045455 113.61695 
L 269.045455 104.372767 
L 269.045455 104.372767 
L 260.590909 107.726598 
L 252.136364 111.065939 
L 243.681818 105.549874 
L 235.227273 108.848359 
L 226.772727 109.014873 
L 218.318182 108.99897 
L 209.863636 111.563966 
L 201.409091 111.526891 
L 192.954545 110.234611 
L 184.5 107.77977 
L 176.045455 115.412689 
L 167.590909 107.804523 
L 159.136364 113.095605 
L 150.681818 109.893026 
L 142.227273 122.882294 
L 133.772727 120.438607 
L 125.318182 121.830702 
L 116.863636 126.536905 
L 108.409091 131.537088 
L 99.954545 129.114514 
L 91.5 132.246449 
L 83.045455 133.510351 
L 74.590909 153.552042 
L 66.136364 158.459199 
L 57.681818 199.286294 
z
" clip-path="url(#p41b260adfc)" style="fill: #ff7f0e; fill-opacity: 0.2"/>
   </g>
   <g id="PolyCollection_3">
    <path d="M 57.681818 262.270959 
L 57.681818 355.942512 
L 66.136364 272.204833 
L 74.590909 228.242271 
L 83.045455 211.362408 
L 91.5 209.090828 
L 99.954545 198.757691 
L 108.409091 191.685835 
L 116.863636 179.849061 
L 125.318182 192.405354 
L 133.772727 178.730893 
L 142.227273 181.91153 
L 150.681818 160.170994 
L 159.136364 155.091772 
L 167.590909 158.17142 
L 176.045455 153.564326 
L 184.5 153.80614 
L 192.954545 155.613453 
L 201.409091 153.382083 
L 209.863636 152.823111 
L 218.318182 152.127105 
L 226.772727 151.239022 
L 226.772727 137.181133 
L 226.772727 137.181133 
L 218.318182 139.64688 
L 209.863636 140.627788 
L 201.409091 141.18676 
L 192.954545 142.309221 
L 184.5 142.439618 
L 176.045455 142.12246 
L 167.590909 143.105084 
L 159.136364 142.271929 
L 150.681818 143.341396 
L 142.227273 148.431503 
L 133.772727 156.083914 
L 125.318182 161.973463 
L 116.863636 158.319577 
L 108.409091 170.518586 
L 99.954545 170.154392 
L 91.5 171.000689 
L 83.045455 185.49826 
L 74.590909 189.300351 
L 66.136364 220.24 
L 57.681818 262.270959 
z
" clip-path="url(#p41b260adfc)" style="fill: #2ca02c; fill-opacity: 0.2"/>
   </g>
   <g id="PolyCollection_4">
    <path d="M 57.681818 236.468416 
L 57.681818 250.3867 
L 66.136364 217.750919 
L 74.590909 201.912033 
L 83.045455 187.143875 
L 91.5 176.410963 
L 99.954545 176.815048 
L 108.409091 174.86173 
L 116.863636 173.259724 
L 125.318182 173.688064 
L 133.772727 157.178711 
L 142.227273 163.919374 
L 150.681818 158.717881 
L 159.136364 151.167983 
L 167.590909 149.969331 
L 176.045455 148.127244 
L 184.5 149.925547 
L 192.954545 143.193389 
L 201.409091 147.307676 
L 209.863636 144.652538 
L 218.318182 151.625029 
L 226.772727 147.727975 
L 235.227273 143.501371 
L 235.227273 133.739349 
L 235.227273 133.739349 
L 226.772727 135.661434 
L 218.318182 135.677182 
L 209.863636 135.383041 
L 201.409091 132.16893 
L 192.954545 134.606302 
L 184.5 137.376663 
L 176.045455 139.174967 
L 167.590909 144.040541 
L 159.136364 144.518804 
L 150.681818 146.471425 
L 142.227273 146.300677 
L 133.772727 150.805453 
L 125.318182 166.157489 
L 116.863636 157.08331 
L 108.409091 162.188964 
L 99.954545 164.148448 
L 91.5 160.080759 
L 83.045455 173.383631 
L 74.590909 187.123031 
L 66.136364 201.468618 
L 57.681818 236.468416 
z
" clip-path="url(#p41b260adfc)" style="fill: #d62728; fill-opacity: 0.2"/>
   </g>
   <g id="PolyCollection_5">
    <path d="M 57.681818 301.778934 
L 57.681818 338.234434 
L 66.136364 274.560265 
L 74.590909 249.665983 
L 83.045455 231.187499 
L 91.5 221.205709 
L 99.954545 202.73332 
L 108.409091 186.313751 
L 116.863636 185.02307 
L 125.318182 178.293343 
L 133.772727 192.987424 
L 142.227273 179.809017 
L 150.681818 164.383921 
L 159.136364 168.456976 
L 167.590909 151.514052 
L 176.045455 147.417031 
L 184.5 144.595513 
L 192.954545 146.58083 
L 201.409091 146.385504 
L 209.863636 143.670735 
L 218.318182 145.704651 
L 226.772727 142.588389 
L 235.227273 137.23879 
L 243.681818 141.563081 
L 252.136364 141.888303 
L 260.590909 142.455123 
L 269.045455 142.96471 
L 277.5 140.22435 
L 285.954545 138.407503 
L 294.409091 137.643784 
L 302.863636 139.283333 
L 311.318182 140.454763 
L 311.318182 123.929607 
L 311.318182 123.929607 
L 302.863636 125.660009 
L 294.409091 125.622643 
L 285.954545 124.858923 
L 277.5 125.836935 
L 269.045455 128.686292 
L 260.590909 127.518964 
L 252.136364 126.967841 
L 243.681818 129.52895 
L 235.227273 124.909693 
L 226.772727 126.267755 
L 218.318182 131.536069 
L 209.863636 125.74438 
L 201.409091 130.296244 
L 192.954545 134.572692 
L 184.5 137.116981 
L 176.045455 133.736491 
L 167.590909 135.788159 
L 159.136364 145.675878 
L 150.681818 143.600243 
L 142.227273 160.595507 
L 133.772727 168.099055 
L 125.318182 172.731644 
L 116.863636 170.47369 
L 108.409091 175.331699 
L 99.954545 191.332489 
L 91.5 199.690743 
L 83.045455 205.919133 
L 74.590909 224.332783 
L 66.136364 233.535777 
L 57.681818 301.778934 
z
" clip-path="url(#p41b260adfc)" style="fill: #9467bd; fill-opacity: 0.2"/>
   </g>
   <g id="PolyCollection_6">
    <path d="M 57.681818 209.595325 
L 57.681818 225.834392 
L 66.136364 185.821078 
L 74.590909 171.786818 
L 83.045455 166.652295 
L 91.5 169.725713 
L 99.954545 154.370905 
L 108.409091 154.696341 
L 116.863636 133.366543 
L 125.318182 143.595654 
L 133.772727 137.222931 
L 142.227273 135.118657 
L 150.681818 124.567195 
L 159.136364 124.48294 
L 167.590909 128.069262 
L 176.045455 124.153585 
L 184.5 119.767981 
L 192.954545 122.812508 
L 201.409091 121.381639 
L 209.863636 119.243477 
L 218.318182 116.840325 
L 226.772727 117.120832 
L 235.227273 119.804555 
L 243.681818 119.678198 
L 252.136364 117.479439 
L 260.590909 120.025424 
L 269.045455 117.510051 
L 277.5 119.878647 
L 285.954545 117.687908 
L 294.409091 119.390355 
L 302.863636 119.630824 
L 302.863636 109.538327 
L 302.863636 109.538327 
L 294.409091 111.455712 
L 285.954545 110.922272 
L 277.5 112.644335 
L 269.045455 111.100129 
L 260.590909 113.615502 
L 252.136364 111.130741 
L 243.681818 113.403756 
L 235.227273 113.83637 
L 226.772727 111.489348 
L 218.318182 112.887798 
L 209.863636 113.838477 
L 201.409091 115.613116 
L 192.954545 114.74122 
L 184.5 112.196029 
L 176.045455 111.164256 
L 167.590909 118.428013 
L 159.136364 118.660504 
L 150.681818 119.694193 
L 142.227273 123.117025 
L 133.772727 123.248638 
L 125.318182 133.086094 
L 116.863636 124.310166 
L 108.409091 137.077644 
L 99.954545 145.228684 
L 91.5 148.319942 
L 83.045455 152.511304 
L 74.590909 166.381819 
L 66.136364 178.619231 
L 57.681818 209.595325 
z
" clip-path="url(#p41b260adfc)" style="fill: #8c564b; fill-opacity: 0.2"/>
   </g>
   <g id="PolyCollection_7">
    <path d="M 57.681818 257.232314 
L 57.681818 263.161105 
L 66.136364 192.429147 
L 74.590909 163.430486 
L 83.045455 152.823111 
L 91.5 147.895394 
L 99.954545 145.199703 
L 108.409091 148.494396 
L 116.863636 142.796747 
L 125.318182 138.203019 
L 133.772727 137.934562 
L 142.227273 137.579089 
L 150.681818 132.670219 
L 159.136364 134.920118 
L 167.590909 134.155569 
L 176.045455 132.373602 
L 184.5 133.556414 
L 192.954545 126.431845 
L 201.409091 130.433734 
L 209.863636 128.81776 
L 218.318182 134.95354 
L 226.772727 136.078734 
L 235.227273 134.519226 
L 235.227273 123.716455 
L 235.227273 123.716455 
L 226.772727 122.715919 
L 218.318182 122.164198 
L 209.863636 119.356431 
L 201.409091 123.330173 
L 192.954545 119.506458 
L 184.5 123.002352 
L 176.045455 125.303107 
L 167.590909 122.962169 
L 159.136364 123.315563 
L 150.681818 121.652661 
L 142.227273 126.805281 
L 133.772727 130.36261 
L 125.318182 127.858266 
L 116.863636 130.53117 
L 108.409091 129.305295 
L 99.954545 129.80513 
L 91.5 141.083732 
L 83.045455 140.627788 
L 74.590909 150.702367 
L 66.136364 179.836766 
L 57.681818 257.232314 
z
" clip-path="url(#p41b260adfc)" style="fill: #e377c2; fill-opacity: 0.2"/>
   </g>
   <g id="PolyCollection_8">
    <path d="M 57.681818 189.569573 
L 57.681818 205.055208 
L 66.136364 154.885418 
L 74.590909 143.768839 
L 83.045455 137.222931 
L 91.5 143.495224 
L 99.954545 134.401098 
L 108.409091 137.29709 
L 116.863636 130.840913 
L 125.318182 126.944767 
L 133.772727 122.230031 
L 142.227273 124.934859 
L 150.681818 123.829045 
L 159.136364 119.918017 
L 167.590909 123.807609 
L 167.590909 114.864062 
L 167.590909 114.864062 
L 159.136364 113.163936 
L 150.681818 116.519541 
L 142.227273 116.531671 
L 133.772727 113.08781 
L 125.318182 126.260169 
L 116.863636 125.717853 
L 108.409091 129.323167 
L 99.954545 127.188413 
L 91.5 125.36092 
L 83.045455 129.397326 
L 74.590909 134.030852 
L 66.136364 144.155199 
L 57.681818 189.569573 
z
" clip-path="url(#p41b260adfc)" style="fill: #7f7f7f; fill-opacity: 0.2"/>
   </g>
   <g id="matplotlib.axis_1">
    <g id="xtick_1">
     <g id="line2d_1">
      <path d="M 49.227273 378 
L 49.227273 51.84 
" clip-path="url(#p41b260adfc)" style="fill: none; stroke: #b0b0b0; stroke-width: 0.8; stroke-linecap: square"/>
     </g>
     <g id="line2d_2">
      <defs>
       <path id="m196f34a659" d="M 0 0 
L 0 3.5 
" style="stroke: #000000; stroke-width: 0.8"/>
      </defs>
      <g>
       <use xlink:href="#m196f34a659" x="49.227273" y="378" style="stroke: #000000; stroke-width: 0.8"/>
      </g>
     </g>
     <g id="text_1">
      <!-- 0 -->
      <g transform="translate(46.046023 392.598437)scale(0.1 -0.1)">
       <defs>
        <path id="DejaVuSans-30" d="M 2034 4250 
Q 1547 4250 1301 3770 
Q 1056 3291 1056 2328 
Q 1056 1369 1301 889 
Q 1547 409 2034 409 
Q 2525 409 2770 889 
Q 3016 1369 3016 2328 
Q 3016 3291 2770 3770 
Q 2525 4250 2034 4250 
z
M 2034 4750 
Q 2819 4750 3233 4129 
Q 3647 3509 3647 2328 
Q 3647 1150 3233 529 
Q 2819 -91 2034 -91 
Q 1250 -91 836 529 
Q 422 1150 422 2328 
Q 422 3509 836 4129 
Q 1250 4750 2034 4750 
z
" transform="scale(0.015625)"/>
       </defs>
       <use xlink:href="#DejaVuSans-30"/>
      </g>
     </g>
    </g>
    <g id="xtick_2">
     <g id="line2d_3">
      <path d="M 91.5 378 
L 91.5 51.84 
" clip-path="url(#p41b260adfc)" style="fill: none; stroke: #b0b0b0; stroke-width: 0.8; stroke-linecap: square"/>
     </g>
     <g id="line2d_4">
      <g>
       <use xlink:href="#m196f34a659" x="91.5" y="378" style="stroke: #000000; stroke-width: 0.8"/>
      </g>
     </g>
     <g id="text_2">
      <!-- 5 -->
      <g transform="translate(88.31875 392.598437)scale(0.1 -0.1)">
       <defs>
        <path id="DejaVuSans-35" d="M 691 4666 
L 3169 4666 
L 3169 4134 
L 1269 4134 
L 1269 2991 
Q 1406 3038 1543 3061 
Q 1681 3084 1819 3084 
Q 2600 3084 3056 2656 
Q 3513 2228 3513 1497 
Q 3513 744 3044 326 
Q 2575 -91 1722 -91 
Q 1428 -91 1123 -41 
Q 819 9 494 109 
L 494 744 
Q 775 591 1075 516 
Q 1375 441 1709 441 
Q 2250 441 2565 725 
Q 2881 1009 2881 1497 
Q 2881 1984 2565 2268 
Q 2250 2553 1709 2553 
Q 1456 2553 1204 2497 
Q 953 2441 691 2322 
L 691 4666 
z
" transform="scale(0.015625)"/>
       </defs>
       <use xlink:href="#DejaVuSans-35"/>
      </g>
     </g>
    </g>
    <g id="xtick_3">
     <g id="line2d_5">
      <path d="M 133.772727 378 
L 133.772727 51.84 
" clip-path="url(#p41b260adfc)" style="fill: none; stroke: #b0b0b0; stroke-width: 0.8; stroke-linecap: square"/>
     </g>
     <g id="line2d_6">
      <g>
       <use xlink:href="#m196f34a659" x="133.772727" y="378" style="stroke: #000000; stroke-width: 0.8"/>
      </g>
     </g>
     <g id="text_3">
      <!-- 10 -->
      <g transform="translate(127.410227 392.598437)scale(0.1 -0.1)">
       <defs>
        <path id="DejaVuSans-31" d="M 794 531 
L 1825 531 
L 1825 4091 
L 703 3866 
L 703 4441 
L 1819 4666 
L 2450 4666 
L 2450 531 
L 3481 531 
L 3481 0 
L 794 0 
L 794 531 
z
" transform="scale(0.015625)"/>
       </defs>
       <use xlink:href="#DejaVuSans-31"/>
       <use xlink:href="#DejaVuSans-30" x="63.623047"/>
      </g>
     </g>
    </g>
    <g id="xtick_4">
     <g id="line2d_7">
      <path d="M 176.045455 378 
L 176.045455 51.84 
" clip-path="url(#p41b260adfc)" style="fill: none; stroke: #b0b0b0; stroke-width: 0.8; stroke-linecap: square"/>
     </g>
     <g id="line2d_8">
      <g>
       <use xlink:href="#m196f34a659" x="176.045455" y="378" style="stroke: #000000; stroke-width: 0.8"/>
      </g>
     </g>
     <g id="text_4">
      <!-- 15 -->
      <g transform="translate(169.682955 392.598437)scale(0.1 -0.1)">
       <use xlink:href="#DejaVuSans-31"/>
       <use xlink:href="#DejaVuSans-35" x="63.623047"/>
      </g>
     </g>
    </g>
    <g id="xtick_5">
     <g id="line2d_9">
      <path d="M 218.318182 378 
L 218.318182 51.84 
" clip-path="url(#p41b260adfc)" style="fill: none; stroke: #b0b0b0; stroke-width: 0.8; stroke-linecap: square"/>
     </g>
     <g id="line2d_10">
      <g>
       <use xlink:href="#m196f34a659" x="218.318182" y="378" style="stroke: #000000; stroke-width: 0.8"/>
      </g>
     </g>
     <g id="text_5">
      <!-- 20 -->
      <g transform="translate(211.955682 392.598437)scale(0.1 -0.1)">
       <defs>
        <path id="DejaVuSans-32" d="M 1228 531 
L 3431 531 
L 3431 0 
L 469 0 
L 469 531 
Q 828 903 1448 1529 
Q 2069 2156 2228 2338 
Q 2531 2678 2651 2914 
Q 2772 3150 2772 3378 
Q 2772 3750 2511 3984 
Q 2250 4219 1831 4219 
Q 1534 4219 1204 4116 
Q 875 4013 500 3803 
L 500 4441 
Q 881 4594 1212 4672 
Q 1544 4750 1819 4750 
Q 2544 4750 2975 4387 
Q 3406 4025 3406 3419 
Q 3406 3131 3298 2873 
Q 3191 2616 2906 2266 
Q 2828 2175 2409 1742 
Q 1991 1309 1228 531 
z
" transform="scale(0.015625)"/>
       </defs>
       <use xlink:href="#DejaVuSans-32"/>
       <use xlink:href="#DejaVuSans-30" x="63.623047"/>
      </g>
     </g>
    </g>
    <g id="xtick_6">
     <g id="line2d_11">
      <path d="M 260.590909 378 
L 260.590909 51.84 
" clip-path="url(#p41b260adfc)" style="fill: none; stroke: #b0b0b0; stroke-width: 0.8; stroke-linecap: square"/>
     </g>
     <g id="line2d_12">
      <g>
       <use xlink:href="#m196f34a659" x="260.590909" y="378" style="stroke: #000000; stroke-width: 0.8"/>
      </g>
     </g>
     <g id="text_6">
      <!-- 25 -->
      <g transform="translate(254.228409 392.598437)scale(0.1 -0.1)">
       <use xlink:href="#DejaVuSans-32"/>
       <use xlink:href="#DejaVuSans-35" x="63.623047"/>
      </g>
     </g>
    </g>
    <g id="xtick_7">
     <g id="line2d_13">
      <path d="M 302.863636 378 
L 302.863636 51.84 
" clip-path="url(#p41b260adfc)" style="fill: none; stroke: #b0b0b0; stroke-width: 0.8; stroke-linecap: square"/>
     </g>
     <g id="line2d_14">
      <g>
       <use xlink:href="#m196f34a659" x="302.863636" y="378" style="stroke: #000000; stroke-width: 0.8"/>
      </g>
     </g>
     <g id="text_7">
      <!-- 30 -->
      <g transform="translate(296.501136 392.598437)scale(0.1 -0.1)">
       <defs>
        <path id="DejaVuSans-33" d="M 2597 2516 
Q 3050 2419 3304 2112 
Q 3559 1806 3559 1356 
Q 3559 666 3084 287 
Q 2609 -91 1734 -91 
Q 1441 -91 1130 -33 
Q 819 25 488 141 
L 488 750 
Q 750 597 1062 519 
Q 1375 441 1716 441 
Q 2309 441 2620 675 
Q 2931 909 2931 1356 
Q 2931 1769 2642 2001 
Q 2353 2234 1838 2234 
L 1294 2234 
L 1294 2753 
L 1863 2753 
Q 2328 2753 2575 2939 
Q 2822 3125 2822 3475 
Q 2822 3834 2567 4026 
Q 2313 4219 1838 4219 
Q 1578 4219 1281 4162 
Q 984 4106 628 3988 
L 628 4550 
Q 988 4650 1302 4700 
Q 1616 4750 1894 4750 
Q 2613 4750 3031 4423 
Q 3450 4097 3450 3541 
Q 3450 3153 3228 2886 
Q 3006 2619 2597 2516 
z
" transform="scale(0.015625)"/>
       </defs>
       <use xlink:href="#DejaVuSans-33"/>
       <use xlink:href="#DejaVuSans-30" x="63.623047"/>
      </g>
     </g>
    </g>
    <g id="text_8">
     <!-- Epochs -->
     <g transform="translate(166.584375 406.276563)scale(0.1 -0.1)">
      <defs>
       <path id="DejaVuSans-45" d="M 628 4666 
L 3578 4666 
L 3578 4134 
L 1259 4134 
L 1259 2753 
L 3481 2753 
L 3481 2222 
L 1259 2222 
L 1259 531 
L 3634 531 
L 3634 0 
L 628 0 
L 628 4666 
z
" transform="scale(0.015625)"/>
       <path id="DejaVuSans-70" d="M 1159 525 
L 1159 -1331 
L 581 -1331 
L 581 3500 
L 1159 3500 
L 1159 2969 
Q 1341 3281 1617 3432 
Q 1894 3584 2278 3584 
Q 2916 3584 3314 3078 
Q 3713 2572 3713 1747 
Q 3713 922 3314 415 
Q 2916 -91 2278 -91 
Q 1894 -91 1617 61 
Q 1341 213 1159 525 
z
M 3116 1747 
Q 3116 2381 2855 2742 
Q 2594 3103 2138 3103 
Q 1681 3103 1420 2742 
Q 1159 2381 1159 1747 
Q 1159 1113 1420 752 
Q 1681 391 2138 391 
Q 2594 391 2855 752 
Q 3116 1113 3116 1747 
z
" transform="scale(0.015625)"/>
       <path id="DejaVuSans-6f" d="M 1959 3097 
Q 1497 3097 1228 2736 
Q 959 2375 959 1747 
Q 959 1119 1226 758 
Q 1494 397 1959 397 
Q 2419 397 2687 759 
Q 2956 1122 2956 1747 
Q 2956 2369 2687 2733 
Q 2419 3097 1959 3097 
z
M 1959 3584 
Q 2709 3584 3137 3096 
Q 3566 2609 3566 1747 
Q 3566 888 3137 398 
Q 2709 -91 1959 -91 
Q 1206 -91 779 398 
Q 353 888 353 1747 
Q 353 2609 779 3096 
Q 1206 3584 1959 3584 
z
" transform="scale(0.015625)"/>
       <path id="DejaVuSans-63" d="M 3122 3366 
L 3122 2828 
Q 2878 2963 2633 3030 
Q 2388 3097 2138 3097 
Q 1578 3097 1268 2742 
Q 959 2388 959 1747 
Q 959 1106 1268 751 
Q 1578 397 2138 397 
Q 2388 397 2633 464 
Q 2878 531 3122 666 
L 3122 134 
Q 2881 22 2623 -34 
Q 2366 -91 2075 -91 
Q 1284 -91 818 406 
Q 353 903 353 1747 
Q 353 2603 823 3093 
Q 1294 3584 2113 3584 
Q 2378 3584 2631 3529 
Q 2884 3475 3122 3366 
z
" transform="scale(0.015625)"/>
       <path id="DejaVuSans-68" d="M 3513 2113 
L 3513 0 
L 2938 0 
L 2938 2094 
Q 2938 2591 2744 2837 
Q 2550 3084 2163 3084 
Q 1697 3084 1428 2787 
Q 1159 2491 1159 1978 
L 1159 0 
L 581 0 
L 581 4863 
L 1159 4863 
L 1159 2956 
Q 1366 3272 1645 3428 
Q 1925 3584 2291 3584 
Q 2894 3584 3203 3211 
Q 3513 2838 3513 2113 
z
" transform="scale(0.015625)"/>
       <path id="DejaVuSans-73" d="M 2834 3397 
L 2834 2853 
Q 2591 2978 2328 3040 
Q 2066 3103 1784 3103 
Q 1356 3103 1142 2972 
Q 928 2841 928 2578 
Q 928 2378 1081 2264 
Q 1234 2150 1697 2047 
L 1894 2003 
Q 2506 1872 2764 1633 
Q 3022 1394 3022 966 
Q 3022 478 2636 193 
Q 2250 -91 1575 -91 
Q 1294 -91 989 -36 
Q 684 19 347 128 
L 347 722 
Q 666 556 975 473 
Q 1284 391 1588 391 
Q 1994 391 2212 530 
Q 2431 669 2431 922 
Q 2431 1156 2273 1281 
Q 2116 1406 1581 1522 
L 1381 1569 
Q 847 1681 609 1914 
Q 372 2147 372 2553 
Q 372 3047 722 3315 
Q 1072 3584 1716 3584 
Q 2034 3584 2315 3537 
Q 2597 3491 2834 3397 
z
" transform="scale(0.015625)"/>
      </defs>
      <use xlink:href="#DejaVuSans-45"/>
      <use xlink:href="#DejaVuSans-70" x="63.183594"/>
      <use xlink:href="#DejaVuSans-6f" x="126.660156"/>
      <use xlink:href="#DejaVuSans-63" x="187.841797"/>
      <use xlink:href="#DejaVuSans-68" x="242.822266"/>
      <use xlink:href="#DejaVuSans-73" x="306.201172"/>
     </g>
    </g>
   </g>
   <g id="matplotlib.axis_2">
    <g id="ytick_1">
     <g id="line2d_15">
      <path d="M 45 378 
L 324 378 
" clip-path="url(#p41b260adfc)" style="fill: none; stroke: #b0b0b0; stroke-width: 0.8; stroke-linecap: square"/>
     </g>
     <g id="line2d_16">
      <defs>
       <path id="ma2494706bc" d="M 0 0 
L -3.5 0 
" style="stroke: #000000; stroke-width: 0.8"/>
      </defs>
      <g>
       <use xlink:href="#ma2494706bc" x="45" y="378" style="stroke: #000000; stroke-width: 0.8"/>
      </g>
     </g>
     <g id="text_9">
      <!-- 0.65 -->
      <g transform="translate(15.734375 381.799219)scale(0.1 -0.1)">
       <defs>
        <path id="DejaVuSans-2e" d="M 684 794 
L 1344 794 
L 1344 0 
L 684 0 
L 684 794 
z
" transform="scale(0.015625)"/>
        <path id="DejaVuSans-36" d="M 2113 2584 
Q 1688 2584 1439 2293 
Q 1191 2003 1191 1497 
Q 1191 994 1439 701 
Q 1688 409 2113 409 
Q 2538 409 2786 701 
Q 3034 994 3034 1497 
Q 3034 2003 2786 2293 
Q 2538 2584 2113 2584 
z
M 3366 4563 
L 3366 3988 
Q 3128 4100 2886 4159 
Q 2644 4219 2406 4219 
Q 1781 4219 1451 3797 
Q 1122 3375 1075 2522 
Q 1259 2794 1537 2939 
Q 1816 3084 2150 3084 
Q 2853 3084 3261 2657 
Q 3669 2231 3669 1497 
Q 3669 778 3244 343 
Q 2819 -91 2113 -91 
Q 1303 -91 875 529 
Q 447 1150 447 2328 
Q 447 3434 972 4092 
Q 1497 4750 2381 4750 
Q 2619 4750 2861 4703 
Q 3103 4656 3366 4563 
z
" transform="scale(0.015625)"/>
       </defs>
       <use xlink:href="#DejaVuSans-30"/>
       <use xlink:href="#DejaVuSans-2e" x="63.623047"/>
       <use xlink:href="#DejaVuSans-36" x="95.410156"/>
       <use xlink:href="#DejaVuSans-35" x="159.033203"/>
      </g>
     </g>
    </g>
    <g id="ytick_2">
     <g id="line2d_17">
      <path d="M 45 323.64 
L 324 323.64 
" clip-path="url(#p41b260adfc)" style="fill: none; stroke: #b0b0b0; stroke-width: 0.8; stroke-linecap: square"/>
     </g>
     <g id="line2d_18">
      <g>
       <use xlink:href="#ma2494706bc" x="45" y="323.64" style="stroke: #000000; stroke-width: 0.8"/>
      </g>
     </g>
     <g id="text_10">
      <!-- 0.70 -->
      <g transform="translate(15.734375 327.439219)scale(0.1 -0.1)">
       <defs>
        <path id="DejaVuSans-37" d="M 525 4666 
L 3525 4666 
L 3525 4397 
L 1831 0 
L 1172 0 
L 2766 4134 
L 525 4134 
L 525 4666 
z
" transform="scale(0.015625)"/>
       </defs>
       <use xlink:href="#DejaVuSans-30"/>
       <use xlink:href="#DejaVuSans-2e" x="63.623047"/>
       <use xlink:href="#DejaVuSans-37" x="95.410156"/>
       <use xlink:href="#DejaVuSans-30" x="159.033203"/>
      </g>
     </g>
    </g>
    <g id="ytick_3">
     <g id="line2d_19">
      <path d="M 45 269.28 
L 324 269.28 
" clip-path="url(#p41b260adfc)" style="fill: none; stroke: #b0b0b0; stroke-width: 0.8; stroke-linecap: square"/>
     </g>
     <g id="line2d_20">
      <g>
       <use xlink:href="#ma2494706bc" x="45" y="269.28" style="stroke: #000000; stroke-width: 0.8"/>
      </g>
     </g>
     <g id="text_11">
      <!-- 0.75 -->
      <g transform="translate(15.734375 273.079219)scale(0.1 -0.1)">
       <use xlink:href="#DejaVuSans-30"/>
       <use xlink:href="#DejaVuSans-2e" x="63.623047"/>
       <use xlink:href="#DejaVuSans-37" x="95.410156"/>
       <use xlink:href="#DejaVuSans-35" x="159.033203"/>
      </g>
     </g>
    </g>
    <g id="ytick_4">
     <g id="line2d_21">
      <path d="M 45 214.92 
L 324 214.92 
" clip-path="url(#p41b260adfc)" style="fill: none; stroke: #b0b0b0; stroke-width: 0.8; stroke-linecap: square"/>
     </g>
     <g id="line2d_22">
      <g>
       <use xlink:href="#ma2494706bc" x="45" y="214.92" style="stroke: #000000; stroke-width: 0.8"/>
      </g>
     </g>
     <g id="text_12">
      <!-- 0.80 -->
      <g transform="translate(15.734375 218.719219)scale(0.1 -0.1)">
       <defs>
        <path id="DejaVuSans-38" d="M 2034 2216 
Q 1584 2216 1326 1975 
Q 1069 1734 1069 1313 
Q 1069 891 1326 650 
Q 1584 409 2034 409 
Q 2484 409 2743 651 
Q 3003 894 3003 1313 
Q 3003 1734 2745 1975 
Q 2488 2216 2034 2216 
z
M 1403 2484 
Q 997 2584 770 2862 
Q 544 3141 544 3541 
Q 544 4100 942 4425 
Q 1341 4750 2034 4750 
Q 2731 4750 3128 4425 
Q 3525 4100 3525 3541 
Q 3525 3141 3298 2862 
Q 3072 2584 2669 2484 
Q 3125 2378 3379 2068 
Q 3634 1759 3634 1313 
Q 3634 634 3220 271 
Q 2806 -91 2034 -91 
Q 1263 -91 848 271 
Q 434 634 434 1313 
Q 434 1759 690 2068 
Q 947 2378 1403 2484 
z
M 1172 3481 
Q 1172 3119 1398 2916 
Q 1625 2713 2034 2713 
Q 2441 2713 2670 2916 
Q 2900 3119 2900 3481 
Q 2900 3844 2670 4047 
Q 2441 4250 2034 4250 
Q 1625 4250 1398 4047 
Q 1172 3844 1172 3481 
z
" transform="scale(0.015625)"/>
       </defs>
       <use xlink:href="#DejaVuSans-30"/>
       <use xlink:href="#DejaVuSans-2e" x="63.623047"/>
       <use xlink:href="#DejaVuSans-38" x="95.410156"/>
       <use xlink:href="#DejaVuSans-30" x="159.033203"/>
      </g>
     </g>
    </g>
    <g id="ytick_5">
     <g id="line2d_23">
      <path d="M 45 160.56 
L 324 160.56 
" clip-path="url(#p41b260adfc)" style="fill: none; stroke: #b0b0b0; stroke-width: 0.8; stroke-linecap: square"/>
     </g>
     <g id="line2d_24">
      <g>
       <use xlink:href="#ma2494706bc" x="45" y="160.56" style="stroke: #000000; stroke-width: 0.8"/>
      </g>
     </g>
     <g id="text_13">
      <!-- 0.85 -->
      <g transform="translate(15.734375 164.359219)scale(0.1 -0.1)">
       <use xlink:href="#DejaVuSans-30"/>
       <use xlink:href="#DejaVuSans-2e" x="63.623047"/>
       <use xlink:href="#DejaVuSans-38" x="95.410156"/>
       <use xlink:href="#DejaVuSans-35" x="159.033203"/>
      </g>
     </g>
    </g>
    <g id="ytick_6">
     <g id="line2d_25">
      <path d="M 45 106.2 
L 324 106.2 
" clip-path="url(#p41b260adfc)" style="fill: none; stroke: #b0b0b0; stroke-width: 0.8; stroke-linecap: square"/>
     </g>
     <g id="line2d_26">
      <g>
       <use xlink:href="#ma2494706bc" x="45" y="106.2" style="stroke: #000000; stroke-width: 0.8"/>
      </g>
     </g>
     <g id="text_14">
      <!-- 0.90 -->
      <g transform="translate(15.734375 109.999219)scale(0.1 -0.1)">
       <defs>
        <path id="DejaVuSans-39" d="M 703 97 
L 703 672 
Q 941 559 1184 500 
Q 1428 441 1663 441 
Q 2288 441 2617 861 
Q 2947 1281 2994 2138 
Q 2813 1869 2534 1725 
Q 2256 1581 1919 1581 
Q 1219 1581 811 2004 
Q 403 2428 403 3163 
Q 403 3881 828 4315 
Q 1253 4750 1959 4750 
Q 2769 4750 3195 4129 
Q 3622 3509 3622 2328 
Q 3622 1225 3098 567 
Q 2575 -91 1691 -91 
Q 1453 -91 1209 -44 
Q 966 3 703 97 
z
M 1959 2075 
Q 2384 2075 2632 2365 
Q 2881 2656 2881 3163 
Q 2881 3666 2632 3958 
Q 2384 4250 1959 4250 
Q 1534 4250 1286 3958 
Q 1038 3666 1038 3163 
Q 1038 2656 1286 2365 
Q 1534 2075 1959 2075 
z
" transform="scale(0.015625)"/>
       </defs>
       <use xlink:href="#DejaVuSans-30"/>
       <use xlink:href="#DejaVuSans-2e" x="63.623047"/>
       <use xlink:href="#DejaVuSans-39" x="95.410156"/>
       <use xlink:href="#DejaVuSans-30" x="159.033203"/>
      </g>
     </g>
    </g>
    <g id="ytick_7">
     <g id="line2d_27">
      <path d="M 45 51.84 
L 324 51.84 
" clip-path="url(#p41b260adfc)" style="fill: none; stroke: #b0b0b0; stroke-width: 0.8; stroke-linecap: square"/>
     </g>
     <g id="line2d_28">
      <g>
       <use xlink:href="#ma2494706bc" x="45" y="51.84" style="stroke: #000000; stroke-width: 0.8"/>
      </g>
     </g>
     <g id="text_15">
      <!-- 0.95 -->
      <g transform="translate(15.734375 55.639219)scale(0.1 -0.1)">
       <use xlink:href="#DejaVuSans-30"/>
       <use xlink:href="#DejaVuSans-2e" x="63.623047"/>
       <use xlink:href="#DejaVuSans-39" x="95.410156"/>
       <use xlink:href="#DejaVuSans-35" x="159.033203"/>
      </g>
     </g>
    </g>
    <g id="text_16">
     <!-- Accuracy ($\bar{x} \pm s \div \sqrt{N}$) -->
     <g transform="translate(9.634375 269.17)rotate(-90)scale(0.1 -0.1)">
      <defs>
       <path id="DejaVuSans-41" d="M 2188 4044 
L 1331 1722 
L 3047 1722 
L 2188 4044 
z
M 1831 4666 
L 2547 4666 
L 4325 0 
L 3669 0 
L 3244 1197 
L 1141 1197 
L 716 0 
L 50 0 
L 1831 4666 
z
" transform="scale(0.015625)"/>
       <path id="DejaVuSans-75" d="M 544 1381 
L 544 3500 
L 1119 3500 
L 1119 1403 
Q 1119 906 1312 657 
Q 1506 409 1894 409 
Q 2359 409 2629 706 
Q 2900 1003 2900 1516 
L 2900 3500 
L 3475 3500 
L 3475 0 
L 2900 0 
L 2900 538 
Q 2691 219 2414 64 
Q 2138 -91 1772 -91 
Q 1169 -91 856 284 
Q 544 659 544 1381 
z
M 1991 3584 
L 1991 3584 
z
" transform="scale(0.015625)"/>
       <path id="DejaVuSans-72" d="M 2631 2963 
Q 2534 3019 2420 3045 
Q 2306 3072 2169 3072 
Q 1681 3072 1420 2755 
Q 1159 2438 1159 1844 
L 1159 0 
L 581 0 
L 581 3500 
L 1159 3500 
L 1159 2956 
Q 1341 3275 1631 3429 
Q 1922 3584 2338 3584 
Q 2397 3584 2469 3576 
Q 2541 3569 2628 3553 
L 2631 2963 
z
" transform="scale(0.015625)"/>
       <path id="DejaVuSans-61" d="M 2194 1759 
Q 1497 1759 1228 1600 
Q 959 1441 959 1056 
Q 959 750 1161 570 
Q 1363 391 1709 391 
Q 2188 391 2477 730 
Q 2766 1069 2766 1631 
L 2766 1759 
L 2194 1759 
z
M 3341 1997 
L 3341 0 
L 2766 0 
L 2766 531 
Q 2569 213 2275 61 
Q 1981 -91 1556 -91 
Q 1019 -91 701 211 
Q 384 513 384 1019 
Q 384 1609 779 1909 
Q 1175 2209 1959 2209 
L 2766 2209 
L 2766 2266 
Q 2766 2663 2505 2880 
Q 2244 3097 1772 3097 
Q 1472 3097 1187 3025 
Q 903 2953 641 2809 
L 641 3341 
Q 956 3463 1253 3523 
Q 1550 3584 1831 3584 
Q 2591 3584 2966 3190 
Q 3341 2797 3341 1997 
z
" transform="scale(0.015625)"/>
       <path id="DejaVuSans-79" d="M 2059 -325 
Q 1816 -950 1584 -1140 
Q 1353 -1331 966 -1331 
L 506 -1331 
L 506 -850 
L 844 -850 
Q 1081 -850 1212 -737 
Q 1344 -625 1503 -206 
L 1606 56 
L 191 3500 
L 800 3500 
L 1894 763 
L 2988 3500 
L 3597 3500 
L 2059 -325 
z
" transform="scale(0.015625)"/>
       <path id="DejaVuSans-20" transform="scale(0.015625)"/>
       <path id="DejaVuSans-28" d="M 1984 4856 
Q 1566 4138 1362 3434 
Q 1159 2731 1159 2009 
Q 1159 1288 1364 580 
Q 1569 -128 1984 -844 
L 1484 -844 
Q 1016 -109 783 600 
Q 550 1309 550 2009 
Q 550 2706 781 3412 
Q 1013 4119 1484 4856 
L 1984 4856 
z
" transform="scale(0.015625)"/>
       <path id="DejaVuSans-304" d="M -2518 4769 
L -650 4769 
L -650 4306 
L -2518 4306 
L -2518 4769 
z
" transform="scale(0.015625)"/>
       <path id="DejaVuSans-Oblique-78" d="M 3841 3500 
L 2234 1784 
L 3219 0 
L 2559 0 
L 1819 1388 
L 531 0 
L -166 0 
L 1556 1844 
L 641 3500 
L 1300 3500 
L 1972 2234 
L 3144 3500 
L 3841 3500 
z
" transform="scale(0.015625)"/>
       <path id="DejaVuSans-b1" d="M 2944 4013 
L 2944 2803 
L 4684 2803 
L 4684 2272 
L 2944 2272 
L 2944 1063 
L 2419 1063 
L 2419 2272 
L 678 2272 
L 678 2803 
L 2419 2803 
L 2419 4013 
L 2944 4013 
z
M 678 531 
L 4684 531 
L 4684 0 
L 678 0 
L 678 531 
z
" transform="scale(0.015625)"/>
       <path id="DejaVuSans-Oblique-73" d="M 3200 3397 
L 3091 2853 
Q 2863 2978 2609 3040 
Q 2356 3103 2088 3103 
Q 1634 3103 1373 2948 
Q 1113 2794 1113 2528 
Q 1113 2219 1719 2053 
Q 1766 2041 1788 2034 
L 1972 1978 
Q 2547 1819 2739 1644 
Q 2931 1469 2931 1166 
Q 2931 609 2489 259 
Q 2047 -91 1331 -91 
Q 1053 -91 747 -37 
Q 441 16 72 128 
L 184 722 
Q 500 559 806 475 
Q 1113 391 1394 391 
Q 1816 391 2080 572 
Q 2344 753 2344 1031 
Q 2344 1331 1650 1516 
L 1591 1531 
L 1394 1581 
Q 956 1697 753 1886 
Q 550 2075 550 2369 
Q 550 2928 970 3256 
Q 1391 3584 2113 3584 
Q 2397 3584 2667 3537 
Q 2938 3491 3200 3397 
z
" transform="scale(0.015625)"/>
       <path id="DejaVuSans-f7" d="M 2297 3547 
L 3066 3547 
L 3066 2778 
L 2297 2778 
L 2297 3547 
z
M 2297 1234 
L 3066 1234 
L 3066 469 
L 2297 469 
L 2297 1234 
z
M 678 2272 
L 4684 2272 
L 4684 1741 
L 678 1741 
L 678 2272 
z
" transform="scale(0.015625)"/>
       <path id="STIXSizeOneSym-Regular-221a" d="M 6970 9933 
L 3373 -1888 
L 3104 -1888 
L 1626 2918 
Q 1555 3149 1465 3251 
Q 1376 3354 1229 3354 
Q 1011 3354 794 3181 
L 717 3309 
L 1766 4115 
L 1926 4115 
L 3379 -602 
L 3405 -602 
L 6605 9933 
L 6970 9933 
z
" transform="scale(0.015625)"/>
       <path id="DejaVuSans-Oblique-4e" d="M 1081 4666 
L 1931 4666 
L 3219 666 
L 4000 4666 
L 4616 4666 
L 3706 0 
L 2853 0 
L 1569 4025 
L 788 0 
L 172 0 
L 1081 4666 
z
" transform="scale(0.015625)"/>
       <path id="DejaVuSans-29" d="M 513 4856 
L 1013 4856 
Q 1481 4119 1714 3412 
Q 1947 2706 1947 2009 
Q 1947 1309 1714 600 
Q 1481 -109 1013 -844 
L 513 -844 
Q 928 -128 1133 580 
Q 1338 1288 1338 2009 
Q 1338 2731 1133 3434 
Q 928 4138 513 4856 
z
" transform="scale(0.015625)"/>
      </defs>
      <use xlink:href="#DejaVuSans-41" transform="translate(0 0.578125)"/>
      <use xlink:href="#DejaVuSans-63" transform="translate(68.408203 0.578125)"/>
      <use xlink:href="#DejaVuSans-63" transform="translate(123.388672 0.578125)"/>
      <use xlink:href="#DejaVuSans-75" transform="translate(178.369141 0.578125)"/>
      <use xlink:href="#DejaVuSans-72" transform="translate(241.748047 0.578125)"/>
      <use xlink:href="#DejaVuSans-61" transform="translate(282.861328 0.578125)"/>
      <use xlink:href="#DejaVuSans-63" transform="translate(344.140625 0.578125)"/>
      <use xlink:href="#DejaVuSans-79" transform="translate(399.121094 0.578125)"/>
      <use xlink:href="#DejaVuSans-20" transform="translate(458.300781 0.578125)"/>
      <use xlink:href="#DejaVuSans-28" transform="translate(490.087891 0.578125)"/>
      <use xlink:href="#DejaVuSans-304" transform="translate(591.240234 0.484375)"/>
      <use xlink:href="#DejaVuSans-Oblique-78" transform="translate(529.101562 0.578125)"/>
      <use xlink:href="#DejaVuSans-b1" transform="translate(607.763672 0.578125)"/>
      <use xlink:href="#DejaVuSans-Oblique-73" transform="translate(711.035156 0.578125)"/>
      <use xlink:href="#DejaVuSans-f7" transform="translate(782.617188 0.578125)"/>
      <use xlink:href="#STIXSizeOneSym-Regular-221a" transform="translate(885.888672 17.09375)scale(0.563912)"/>
      <use xlink:href="#DejaVuSans-Oblique-4e" transform="translate(957.977036 0.84375)"/>
      <use xlink:href="#DejaVuSans-29" transform="translate(1045.281723 0.578125)"/>
      <path d="M 945.477036 97.5 
L 945.477036 103.75 
L 1045.281723 103.75 
L 1045.281723 97.5 
L 945.477036 97.5 
z
"/>
     </g>
    </g>
   </g>
   <g id="line2d_29">
    <path d="M 57.681818 259.078766 
L 66.136364 204.858509 
L 74.590909 195.076504 
L 83.045455 174.674036 
L 91.5 167.686889 
L 99.954545 171.599692 
L 108.409091 159.861285 
L 116.863636 151.756195 
L 125.318182 154.551054 
L 133.772727 159.581799 
L 142.227273 154.551054 
L 150.681818 152.315167 
L 159.136364 156.227969 
L 167.590909 145.607506 
L 176.045455 140.856247 
L 184.5 140.297275 
L 192.954545 142.533162 
L 201.409091 145.328021 
L 209.863636 139.458817 
L 218.318182 139.179332 
L 226.772727 138.62036 
L 235.227273 139.458817 
L 243.681818 136.104987 
L 252.136364 135.546015 
L 260.590909 137.502416 
L 269.045455 134.987044 
L 277.5 133.589614 
L 285.954545 132.751157 
" clip-path="url(#p41b260adfc)" style="fill: none; stroke: #1f77b4; stroke-width: 1.5; stroke-linecap: square"/>
   </g>
   <g id="line2d_30">
    <path d="M 57.681818 203.740566 
L 66.136364 166.848432 
L 74.590909 161.538201 
L 83.045455 143.651105 
L 91.5 140.856247 
L 99.954545 134.987044 
L 108.409091 136.663959 
L 116.863636 131.633213 
L 125.318182 126.602468 
L 133.772727 126.881954 
L 142.227273 130.794756 
L 150.681818 115.423033 
L 159.136364 123.807609 
L 167.590909 114.584576 
L 176.045455 122.969152 
L 184.5 114.864062 
L 192.954545 115.143548 
L 201.409091 117.379434 
L 209.863636 116.261491 
L 218.318182 113.746118 
L 226.772727 112.907661 
L 235.227273 113.187147 
L 243.681818 110.95126 
L 252.136364 114.584576 
L 260.590909 112.348689 
L 269.045455 108.994859 
" clip-path="url(#p41b260adfc)" style="fill: none; stroke: #ff7f0e; stroke-width: 1.5; stroke-linecap: square"/>
   </g>
   <g id="line2d_31">
    <path d="M 57.681818 309.106735 
L 66.136364 246.222416 
L 74.590909 208.771311 
L 83.045455 198.430334 
L 91.5 190.045758 
L 99.954545 184.456041 
L 108.409091 181.102211 
L 116.863636 169.084319 
L 125.318182 177.189409 
L 133.772727 167.407404 
L 142.227273 165.171517 
L 150.681818 151.756195 
L 159.136364 148.681851 
L 167.590909 150.638252 
L 176.045455 147.843393 
L 184.5 148.122879 
L 192.954545 148.961337 
L 201.409091 147.284422 
L 209.863636 146.72545 
L 218.318182 145.886992 
L 226.772727 144.210077 
" clip-path="url(#p41b260adfc)" style="fill: none; stroke: #2ca02c; stroke-width: 1.5; stroke-linecap: square"/>
   </g>
   <g id="line2d_32">
    <path d="M 57.681818 243.427558 
L 66.136364 209.609769 
L 74.590909 194.517532 
L 83.045455 180.263753 
L 91.5 168.245861 
L 99.954545 170.481748 
L 108.409091 168.525347 
L 116.863636 165.171517 
L 125.318182 169.922776 
L 133.772727 153.992082 
L 142.227273 155.110026 
L 150.681818 152.594653 
L 159.136364 147.843393 
L 167.590909 147.004936 
L 176.045455 143.651105 
L 184.5 143.651105 
L 192.954545 138.899846 
L 201.409091 139.738303 
L 209.863636 140.017789 
L 218.318182 143.651105 
L 226.772727 141.694704 
L 235.227273 138.62036 
" clip-path="url(#p41b260adfc)" style="fill: none; stroke: #d62728; stroke-width: 1.5; stroke-linecap: square"/>
   </g>
   <g id="line2d_33">
    <path d="M 57.681818 320.006684 
L 66.136364 254.048021 
L 74.590909 236.999383 
L 83.045455 218.553316 
L 91.5 210.448226 
L 99.954545 197.032905 
L 108.409091 180.822725 
L 116.863636 177.74838 
L 125.318182 175.512494 
L 133.772727 180.543239 
L 142.227273 170.202262 
L 150.681818 153.992082 
L 159.136364 157.066427 
L 167.590909 143.651105 
L 176.045455 140.576761 
L 184.5 140.856247 
L 192.954545 140.576761 
L 201.409091 138.340874 
L 209.863636 134.707558 
L 218.318182 138.62036 
L 226.772727 134.428072 
L 235.227273 131.074242 
L 243.681818 135.546015 
L 252.136364 134.428072 
L 260.590909 134.987044 
L 269.045455 135.825501 
L 277.5 133.030643 
L 285.954545 131.633213 
L 294.409091 131.633213 
L 302.863636 132.471671 
L 311.318182 132.192185 
" clip-path="url(#p41b260adfc)" style="fill: none; stroke-dasharray: 5.55,2.4; stroke-dashoffset: 0; stroke: #9467bd; stroke-width: 1.5"/>
   </g>
   <g id="line2d_34">
    <path d="M 57.681818 217.714859 
L 66.136364 182.220154 
L 74.590909 169.084319 
L 83.045455 159.581799 
L 91.5 159.022828 
L 99.954545 149.799794 
L 108.409091 145.886992 
L 116.863636 128.838355 
L 125.318182 138.340874 
L 133.772727 130.235784 
L 142.227273 129.117841 
L 150.681818 122.130694 
L 159.136364 121.571722 
L 167.590909 123.248638 
L 176.045455 117.65892 
L 184.5 115.982005 
L 192.954545 118.776864 
L 201.409091 118.497378 
L 209.863636 116.540977 
L 218.318182 114.864062 
L 226.772727 114.30509 
L 235.227273 116.820463 
L 243.681818 116.540977 
L 252.136364 114.30509 
L 260.590909 116.820463 
L 269.045455 114.30509 
L 277.5 116.261491 
L 285.954545 114.30509 
L 294.409091 115.423033 
L 302.863636 114.584576 
" clip-path="url(#p41b260adfc)" style="fill: none; stroke-dasharray: 5.55,2.4; stroke-dashoffset: 0; stroke: #8c564b; stroke-width: 1.5"/>
   </g>
   <g id="line2d_35">
    <path d="M 57.681818 260.19671 
L 66.136364 186.132956 
L 74.590909 157.066427 
L 83.045455 146.72545 
L 91.5 144.489563 
L 99.954545 137.502416 
L 108.409091 138.899846 
L 116.863636 136.663959 
L 125.318182 133.030643 
L 133.772727 134.148586 
L 142.227273 132.192185 
L 150.681818 127.16144 
L 159.136364 129.117841 
L 167.590909 128.558869 
L 176.045455 128.838355 
L 184.5 128.279383 
L 192.954545 122.969152 
L 201.409091 126.881954 
L 209.863636 124.087095 
L 218.318182 128.558869 
L 226.772727 129.397326 
L 235.227273 129.117841 
" clip-path="url(#p41b260adfc)" style="fill: none; stroke-dasharray: 5.55,2.4; stroke-dashoffset: 0; stroke: #e377c2; stroke-width: 1.5"/>
   </g>
   <g id="line2d_36">
    <path d="M 57.681818 197.312391 
L 66.136364 149.520308 
L 74.590909 138.899846 
L 83.045455 133.310129 
L 91.5 134.428072 
L 99.954545 130.794756 
L 108.409091 133.310129 
L 116.863636 128.279383 
L 125.318182 126.602468 
L 133.772727 117.65892 
L 142.227273 120.733265 
L 150.681818 120.174293 
L 159.136364 116.540977 
L 167.590909 119.335835 
" clip-path="url(#p41b260adfc)" style="fill: none; stroke-dasharray: 5.55,2.4; stroke-dashoffset: 0; stroke: #7f7f7f; stroke-width: 1.5"/>
   </g>
   <g id="patch_3">
    <path d="M 45 378 
L 45 51.84 
" style="fill: none; stroke: #000000; stroke-width: 0.8; stroke-linejoin: miter; stroke-linecap: square"/>
   </g>
   <g id="patch_4">
    <path d="M 324 378 
L 324 51.84 
" style="fill: none; stroke: #000000; stroke-width: 0.8; stroke-linejoin: miter; stroke-linecap: square"/>
   </g>
   <g id="patch_5">
    <path d="M 45 378 
L 324 378 
" style="fill: none; stroke: #000000; stroke-width: 0.8; stroke-linejoin: miter; stroke-linecap: square"/>
   </g>
   <g id="patch_6">
    <path d="M 45 51.84 
L 324 51.84 
" style="fill: none; stroke: #000000; stroke-width: 0.8; stroke-linejoin: miter; stroke-linecap: square"/>
   </g>
   <g id="legend_1">
    <g id="patch_7">
     <path d="M 206.728125 373 
L 317 373 
Q 319 373 319 371 
L 319 252.90625 
Q 319 250.90625 317 250.90625 
L 206.728125 250.90625 
Q 204.728125 250.90625 204.728125 252.90625 
L 204.728125 371 
Q 204.728125 373 206.728125 373 
z
" style="fill: #ffffff; opacity: 0.8; stroke: #cccccc; stroke-linejoin: miter"/>
    </g>
    <g id="line2d_37">
     <path d="M 208.728125 259.004687 
L 218.728125 259.004687 
L 228.728125 259.004687 
" style="fill: none; stroke: #1f77b4; stroke-width: 1.5; stroke-linecap: square"/>
    </g>
    <g id="text_17">
     <!-- vit_t_16 -->
     <g transform="translate(236.728125 262.504687)scale(0.1 -0.1)">
      <defs>
       <path id="DejaVuSans-76" d="M 191 3500 
L 800 3500 
L 1894 563 
L 2988 3500 
L 3597 3500 
L 2284 0 
L 1503 0 
L 191 3500 
z
" transform="scale(0.015625)"/>
       <path id="DejaVuSans-69" d="M 603 3500 
L 1178 3500 
L 1178 0 
L 603 0 
L 603 3500 
z
M 603 4863 
L 1178 4863 
L 1178 4134 
L 603 4134 
L 603 4863 
z
" transform="scale(0.015625)"/>
       <path id="DejaVuSans-74" d="M 1172 4494 
L 1172 3500 
L 2356 3500 
L 2356 3053 
L 1172 3053 
L 1172 1153 
Q 1172 725 1289 603 
Q 1406 481 1766 481 
L 2356 481 
L 2356 0 
L 1766 0 
Q 1100 0 847 248 
Q 594 497 594 1153 
L 594 3053 
L 172 3053 
L 172 3500 
L 594 3500 
L 594 4494 
L 1172 4494 
z
" transform="scale(0.015625)"/>
       <path id="DejaVuSans-5f" d="M 3263 -1063 
L 3263 -1509 
L -63 -1509 
L -63 -1063 
L 3263 -1063 
z
" transform="scale(0.015625)"/>
      </defs>
      <use xlink:href="#DejaVuSans-76"/>
      <use xlink:href="#DejaVuSans-69" x="59.179688"/>
      <use xlink:href="#DejaVuSans-74" x="86.962891"/>
      <use xlink:href="#DejaVuSans-5f" x="126.171875"/>
      <use xlink:href="#DejaVuSans-74" x="176.171875"/>
      <use xlink:href="#DejaVuSans-5f" x="215.380859"/>
      <use xlink:href="#DejaVuSans-31" x="265.380859"/>
      <use xlink:href="#DejaVuSans-36" x="329.003906"/>
     </g>
    </g>
    <g id="line2d_38">
     <path d="M 208.728125 273.960938 
L 218.728125 273.960938 
L 228.728125 273.960938 
" style="fill: none; stroke: #ff7f0e; stroke-width: 1.5; stroke-linecap: square"/>
    </g>
    <g id="text_18">
     <!-- swin_t -->
     <g transform="translate(236.728125 277.460938)scale(0.1 -0.1)">
      <defs>
       <path id="DejaVuSans-77" d="M 269 3500 
L 844 3500 
L 1563 769 
L 2278 3500 
L 2956 3500 
L 3675 769 
L 4391 3500 
L 4966 3500 
L 4050 0 
L 3372 0 
L 2619 2869 
L 1863 0 
L 1184 0 
L 269 3500 
z
" transform="scale(0.015625)"/>
       <path id="DejaVuSans-6e" d="M 3513 2113 
L 3513 0 
L 2938 0 
L 2938 2094 
Q 2938 2591 2744 2837 
Q 2550 3084 2163 3084 
Q 1697 3084 1428 2787 
Q 1159 2491 1159 1978 
L 1159 0 
L 581 0 
L 581 3500 
L 1159 3500 
L 1159 2956 
Q 1366 3272 1645 3428 
Q 1925 3584 2291 3584 
Q 2894 3584 3203 3211 
Q 3513 2838 3513 2113 
z
" transform="scale(0.015625)"/>
      </defs>
      <use xlink:href="#DejaVuSans-73"/>
      <use xlink:href="#DejaVuSans-77" x="52.099609"/>
      <use xlink:href="#DejaVuSans-69" x="133.886719"/>
      <use xlink:href="#DejaVuSans-6e" x="161.669922"/>
      <use xlink:href="#DejaVuSans-5f" x="225.048828"/>
      <use xlink:href="#DejaVuSans-74" x="275.048828"/>
     </g>
    </g>
    <g id="line2d_39">
     <path d="M 208.728125 288.917188 
L 218.728125 288.917188 
L 228.728125 288.917188 
" style="fill: none; stroke: #2ca02c; stroke-width: 1.5; stroke-linecap: square"/>
    </g>
    <g id="text_19">
     <!-- beit_b_16 -->
     <g transform="translate(236.728125 292.417188)scale(0.1 -0.1)">
      <defs>
       <path id="DejaVuSans-62" d="M 3116 1747 
Q 3116 2381 2855 2742 
Q 2594 3103 2138 3103 
Q 1681 3103 1420 2742 
Q 1159 2381 1159 1747 
Q 1159 1113 1420 752 
Q 1681 391 2138 391 
Q 2594 391 2855 752 
Q 3116 1113 3116 1747 
z
M 1159 2969 
Q 1341 3281 1617 3432 
Q 1894 3584 2278 3584 
Q 2916 3584 3314 3078 
Q 3713 2572 3713 1747 
Q 3713 922 3314 415 
Q 2916 -91 2278 -91 
Q 1894 -91 1617 61 
Q 1341 213 1159 525 
L 1159 0 
L 581 0 
L 581 4863 
L 1159 4863 
L 1159 2969 
z
" transform="scale(0.015625)"/>
       <path id="DejaVuSans-65" d="M 3597 1894 
L 3597 1613 
L 953 1613 
Q 991 1019 1311 708 
Q 1631 397 2203 397 
Q 2534 397 2845 478 
Q 3156 559 3463 722 
L 3463 178 
Q 3153 47 2828 -22 
Q 2503 -91 2169 -91 
Q 1331 -91 842 396 
Q 353 884 353 1716 
Q 353 2575 817 3079 
Q 1281 3584 2069 3584 
Q 2775 3584 3186 3129 
Q 3597 2675 3597 1894 
z
M 3022 2063 
Q 3016 2534 2758 2815 
Q 2500 3097 2075 3097 
Q 1594 3097 1305 2825 
Q 1016 2553 972 2059 
L 3022 2063 
z
" transform="scale(0.015625)"/>
      </defs>
      <use xlink:href="#DejaVuSans-62"/>
      <use xlink:href="#DejaVuSans-65" x="63.476562"/>
      <use xlink:href="#DejaVuSans-69" x="125"/>
      <use xlink:href="#DejaVuSans-74" x="152.783203"/>
      <use xlink:href="#DejaVuSans-5f" x="191.992188"/>
      <use xlink:href="#DejaVuSans-62" x="241.992188"/>
      <use xlink:href="#DejaVuSans-5f" x="305.46875"/>
      <use xlink:href="#DejaVuSans-31" x="355.46875"/>
      <use xlink:href="#DejaVuSans-36" x="419.091797"/>
     </g>
    </g>
    <g id="line2d_40">
     <path d="M 208.728125 303.873438 
L 218.728125 303.873438 
L 228.728125 303.873438 
" style="fill: none; stroke: #d62728; stroke-width: 1.5; stroke-linecap: square"/>
    </g>
    <g id="text_20">
     <!-- deit_t_16 -->
     <g transform="translate(236.728125 307.373438)scale(0.1 -0.1)">
      <defs>
       <path id="DejaVuSans-64" d="M 2906 2969 
L 2906 4863 
L 3481 4863 
L 3481 0 
L 2906 0 
L 2906 525 
Q 2725 213 2448 61 
Q 2172 -91 1784 -91 
Q 1150 -91 751 415 
Q 353 922 353 1747 
Q 353 2572 751 3078 
Q 1150 3584 1784 3584 
Q 2172 3584 2448 3432 
Q 2725 3281 2906 2969 
z
M 947 1747 
Q 947 1113 1208 752 
Q 1469 391 1925 391 
Q 2381 391 2643 752 
Q 2906 1113 2906 1747 
Q 2906 2381 2643 2742 
Q 2381 3103 1925 3103 
Q 1469 3103 1208 2742 
Q 947 2381 947 1747 
z
" transform="scale(0.015625)"/>
      </defs>
      <use xlink:href="#DejaVuSans-64"/>
      <use xlink:href="#DejaVuSans-65" x="63.476562"/>
      <use xlink:href="#DejaVuSans-69" x="125"/>
      <use xlink:href="#DejaVuSans-74" x="152.783203"/>
      <use xlink:href="#DejaVuSans-5f" x="191.992188"/>
      <use xlink:href="#DejaVuSans-74" x="241.992188"/>
      <use xlink:href="#DejaVuSans-5f" x="281.201172"/>
      <use xlink:href="#DejaVuSans-31" x="331.201172"/>
      <use xlink:href="#DejaVuSans-36" x="394.824219"/>
     </g>
    </g>
    <g id="line2d_41">
     <path d="M 208.728125 318.829687 
L 218.728125 318.829687 
L 228.728125 318.829687 
" style="fill: none; stroke-dasharray: 5.55,2.4; stroke-dashoffset: 0; stroke: #9467bd; stroke-width: 1.5"/>
    </g>
    <g id="text_21">
     <!-- vgg19 -->
     <g transform="translate(236.728125 322.329687)scale(0.1 -0.1)">
      <defs>
       <path id="DejaVuSans-67" d="M 2906 1791 
Q 2906 2416 2648 2759 
Q 2391 3103 1925 3103 
Q 1463 3103 1205 2759 
Q 947 2416 947 1791 
Q 947 1169 1205 825 
Q 1463 481 1925 481 
Q 2391 481 2648 825 
Q 2906 1169 2906 1791 
z
M 3481 434 
Q 3481 -459 3084 -895 
Q 2688 -1331 1869 -1331 
Q 1566 -1331 1297 -1286 
Q 1028 -1241 775 -1147 
L 775 -588 
Q 1028 -725 1275 -790 
Q 1522 -856 1778 -856 
Q 2344 -856 2625 -561 
Q 2906 -266 2906 331 
L 2906 616 
Q 2728 306 2450 153 
Q 2172 0 1784 0 
Q 1141 0 747 490 
Q 353 981 353 1791 
Q 353 2603 747 3093 
Q 1141 3584 1784 3584 
Q 2172 3584 2450 3431 
Q 2728 3278 2906 2969 
L 2906 3500 
L 3481 3500 
L 3481 434 
z
" transform="scale(0.015625)"/>
      </defs>
      <use xlink:href="#DejaVuSans-76"/>
      <use xlink:href="#DejaVuSans-67" x="59.179688"/>
      <use xlink:href="#DejaVuSans-67" x="122.65625"/>
      <use xlink:href="#DejaVuSans-31" x="186.132812"/>
      <use xlink:href="#DejaVuSans-39" x="249.755859"/>
     </g>
    </g>
    <g id="line2d_42">
     <path d="M 208.728125 333.507812 
L 218.728125 333.507812 
L 228.728125 333.507812 
" style="fill: none; stroke-dasharray: 5.55,2.4; stroke-dashoffset: 0; stroke: #8c564b; stroke-width: 1.5"/>
    </g>
    <g id="text_22">
     <!-- resnet50 -->
     <g transform="translate(236.728125 337.007812)scale(0.1 -0.1)">
      <use xlink:href="#DejaVuSans-72"/>
      <use xlink:href="#DejaVuSans-65" x="38.863281"/>
      <use xlink:href="#DejaVuSans-73" x="100.386719"/>
      <use xlink:href="#DejaVuSans-6e" x="152.486328"/>
      <use xlink:href="#DejaVuSans-65" x="215.865234"/>
      <use xlink:href="#DejaVuSans-74" x="277.388672"/>
      <use xlink:href="#DejaVuSans-35" x="316.597656"/>
      <use xlink:href="#DejaVuSans-30" x="380.220703"/>
     </g>
    </g>
    <g id="line2d_43">
     <path d="M 208.728125 348.185938 
L 218.728125 348.185938 
L 228.728125 348.185938 
" style="fill: none; stroke-dasharray: 5.55,2.4; stroke-dashoffset: 0; stroke: #e377c2; stroke-width: 1.5"/>
    </g>
    <g id="text_23">
     <!-- efficientnetv2_t -->
     <g transform="translate(236.728125 351.685938)scale(0.1 -0.1)">
      <defs>
       <path id="DejaVuSans-66" d="M 2375 4863 
L 2375 4384 
L 1825 4384 
Q 1516 4384 1395 4259 
Q 1275 4134 1275 3809 
L 1275 3500 
L 2222 3500 
L 2222 3053 
L 1275 3053 
L 1275 0 
L 697 0 
L 697 3053 
L 147 3053 
L 147 3500 
L 697 3500 
L 697 3744 
Q 697 4328 969 4595 
Q 1241 4863 1831 4863 
L 2375 4863 
z
" transform="scale(0.015625)"/>
      </defs>
      <use xlink:href="#DejaVuSans-65"/>
      <use xlink:href="#DejaVuSans-66" x="61.523438"/>
      <use xlink:href="#DejaVuSans-66" x="96.728516"/>
      <use xlink:href="#DejaVuSans-69" x="131.933594"/>
      <use xlink:href="#DejaVuSans-63" x="159.716797"/>
      <use xlink:href="#DejaVuSans-69" x="214.697266"/>
      <use xlink:href="#DejaVuSans-65" x="242.480469"/>
      <use xlink:href="#DejaVuSans-6e" x="304.003906"/>
      <use xlink:href="#DejaVuSans-74" x="367.382812"/>
      <use xlink:href="#DejaVuSans-6e" x="406.591797"/>
      <use xlink:href="#DejaVuSans-65" x="469.970703"/>
      <use xlink:href="#DejaVuSans-74" x="531.494141"/>
      <use xlink:href="#DejaVuSans-76" x="570.703125"/>
      <use xlink:href="#DejaVuSans-32" x="629.882812"/>
      <use xlink:href="#DejaVuSans-5f" x="693.505859"/>
      <use xlink:href="#DejaVuSans-74" x="743.505859"/>
     </g>
    </g>
    <g id="line2d_44">
     <path d="M 208.728125 363.142187 
L 218.728125 363.142187 
L 228.728125 363.142187 
" style="fill: none; stroke-dasharray: 5.55,2.4; stroke-dashoffset: 0; stroke: #7f7f7f; stroke-width: 1.5"/>
    </g>
    <g id="text_24">
     <!-- convnext_t -->
     <g transform="translate(236.728125 366.642187)scale(0.1 -0.1)">
      <defs>
       <path id="DejaVuSans-78" d="M 3513 3500 
L 2247 1797 
L 3578 0 
L 2900 0 
L 1881 1375 
L 863 0 
L 184 0 
L 1544 1831 
L 300 3500 
L 978 3500 
L 1906 2253 
L 2834 3500 
L 3513 3500 
z
" transform="scale(0.015625)"/>
      </defs>
      <use xlink:href="#DejaVuSans-63"/>
      <use xlink:href="#DejaVuSans-6f" x="54.980469"/>
      <use xlink:href="#DejaVuSans-6e" x="116.162109"/>
      <use xlink:href="#DejaVuSans-76" x="179.541016"/>
      <use xlink:href="#DejaVuSans-6e" x="238.720703"/>
      <use xlink:href="#DejaVuSans-65" x="302.099609"/>
      <use xlink:href="#DejaVuSans-78" x="361.873047"/>
      <use xlink:href="#DejaVuSans-74" x="421.052734"/>
      <use xlink:href="#DejaVuSans-5f" x="460.261719"/>
      <use xlink:href="#DejaVuSans-74" x="510.261719"/>
     </g>
    </g>
   </g>
  </g>
 </g>
 <defs>
  <clipPath id="p41b260adfc">
   <rect x="45" y="51.84" width="279" height="326.16"/>
  </clipPath>
 </defs>
</svg>
