<?xml version="1.0" encoding="utf-8" standalone="no"?>
<!DOCTYPE svg PUBLIC "-//W3C//DTD SVG 1.1//EN"
  "http://www.w3.org/Graphics/SVG/1.1/DTD/svg11.dtd">
<svg xmlns:xlink="http://www.w3.org/1999/xlink" width="360pt" height="432pt" viewBox="0 0 360 432" xmlns="http://www.w3.org/2000/svg" version="1.1">
 <metadata>
  <rdf:RDF xmlns:dc="http://purl.org/dc/elements/1.1/" xmlns:cc="http://creativecommons.org/ns#" xmlns:rdf="http://www.w3.org/1999/02/22-rdf-syntax-ns#">
   <cc:Work>
    <dc:type rdf:resource="http://purl.org/dc/dcmitype/StillImage"/>
    <dc:date>2022-05-27T06:42:18.573502</dc:date>
    <dc:format>image/svg+xml</dc:format>
    <dc:creator>
     <cc:Agent>
      <dc:title>Matplotlib v3.5.2, https://matplotlib.org/</dc:title>
     </cc:Agent>
    </dc:creator>
   </cc:Work>
  </rdf:RDF>
 </metadata>
 <defs>
  <style type="text/css">*{stroke-linejoin: round; stroke-linecap: butt}</style>
 </defs>
 <g id="figure_1">
  <g id="patch_1">
   <path d="M 0 432 
L 360 432 
L 360 0 
L 0 0 
L 0 432 
z
" style="fill: none"/>
  </g>
  <g id="axes_1">
   <g id="patch_2">
    <path d="M 45 378 
L 324 378 
L 324 51.84 
L 45 51.84 
z
" style="fill: #ffffff"/>
   </g>
   <g id="PolyCollection_1">
    <path d="M 57.681818 249.017275 
L 57.681818 258.79928 
L 66.136364 209.889254 
L 74.590909 201.504679 
L 83.045455 176.350951 
L 91.5 169.363805 
L 99.954545 176.350951 
L 108.409091 165.171517 
L 116.863636 159.581799 
L 125.318182 162.376658 
L 133.772727 163.774087 
L 142.227273 160.979229 
L 150.681818 158.18437 
L 159.136364 166.568946 
L 167.590909 155.389512 
L 176.045455 147.004936 
L 184.5 145.607506 
L 192.954545 145.607506 
L 201.409091 151.197224 
L 209.863636 142.812648 
L 218.318182 144.210077 
L 226.772727 140.017789 
L 235.227273 147.004936 
L 243.681818 140.017789 
L 252.136364 138.62036 
L 260.590909 138.62036 
L 269.045455 138.62036 
L 277.5 137.222931 
L 285.954545 134.428072 
L 285.954545 133.030643 
L 285.954545 133.030643 
L 277.5 131.633213 
L 269.045455 135.825501 
L 260.590909 137.222931 
L 252.136364 131.633213 
L 243.681818 128.838355 
L 235.227273 137.222931 
L 226.772727 137.222931 
L 218.318182 133.030643 
L 209.863636 138.62036 
L 201.409091 138.62036 
L 192.954545 140.017789 
L 184.5 138.62036 
L 176.045455 140.017789 
L 167.590909 138.62036 
L 159.136364 148.402365 
L 150.681818 145.607506 
L 142.227273 148.402365 
L 133.772727 156.786941 
L 125.318182 148.402365 
L 116.863636 144.210077 
L 108.409091 153.992082 
L 99.954545 162.376658 
L 91.5 163.774087 
L 83.045455 172.158663 
L 74.590909 190.325244 
L 66.136364 194.517532 
L 57.681818 249.017275 
z
" clip-path="url(#pec35b49e14)" style="fill: #1f77b4; fill-opacity: 0.2"/>
   </g>
   <g id="PolyCollection_2">
    <path d="M 57.681818 205.696967 
L 57.681818 208.491825 
L 66.136364 184.735527 
L 74.590909 167.966375 
L 83.045455 156.786941 
L 91.5 151.197224 
L 99.954545 145.607506 
L 108.409091 137.222931 
L 116.863636 134.428072 
L 125.318182 133.030643 
L 133.772727 134.428072 
L 142.227273 144.210077 
L 150.681818 126.043496 
L 159.136364 121.851208 
L 167.590909 123.248638 
L 176.045455 134.428072 
L 184.5 126.043496 
L 192.954545 120.453779 
L 201.409091 127.440925 
L 209.863636 121.851208 
L 218.318182 121.851208 
L 226.772727 119.05635 
L 235.227273 117.65892 
L 243.681818 121.851208 
L 252.136364 120.453779 
L 260.590909 119.05635 
L 269.045455 116.261491 
L 269.045455 105.082057 
L 269.045455 105.082057 
L 260.590909 112.069203 
L 252.136364 112.069203 
L 243.681818 109.274344 
L 235.227273 113.466632 
L 226.772727 110.671774 
L 218.318182 112.069203 
L 209.863636 110.671774 
L 201.409091 107.876915 
L 192.954545 110.671774 
L 184.5 107.876915 
L 176.045455 114.864062 
L 167.590909 109.274344 
L 159.136364 114.864062 
L 150.681818 105.082057 
L 142.227273 116.261491 
L 133.772727 119.05635 
L 125.318182 121.851208 
L 116.863636 126.043496 
L 108.409091 134.428072 
L 99.954545 128.838355 
L 91.5 120.453779 
L 83.045455 141.415219 
L 74.590909 155.389512 
L 66.136364 152.594653 
L 57.681818 205.696967 
z
" clip-path="url(#pec35b49e14)" style="fill: #ff7f0e; fill-opacity: 0.2"/>
   </g>
   <g id="PolyCollection_3">
    <path d="M 57.681818 267.183856 
L 57.681818 279.76072 
L 66.136364 229.453265 
L 74.590909 201.504679 
L 83.045455 202.902108 
L 91.5 176.350951 
L 99.954545 197.312391 
L 108.409091 198.70982 
L 116.863636 184.735527 
L 125.318182 173.556093 
L 133.772727 167.966375 
L 142.227273 163.774087 
L 150.681818 152.594653 
L 159.136364 155.389512 
L 167.590909 159.581799 
L 176.045455 152.594653 
L 184.5 155.389512 
L 192.954545 156.786941 
L 201.409091 156.786941 
L 209.863636 153.992082 
L 218.318182 155.389512 
L 226.772727 155.389512 
L 226.772727 140.017789 
L 226.772727 140.017789 
L 218.318182 141.415219 
L 209.863636 140.017789 
L 201.409091 138.62036 
L 192.954545 141.415219 
L 184.5 142.812648 
L 176.045455 144.210077 
L 167.590909 144.210077 
L 159.136364 147.004936 
L 150.681818 149.799794 
L 142.227273 147.004936 
L 133.772727 153.992082 
L 125.318182 156.786941 
L 116.863636 153.992082 
L 108.409091 170.761234 
L 99.954545 163.774087 
L 91.5 172.158663 
L 83.045455 179.14581 
L 74.590909 184.735527 
L 66.136364 216.876401 
L 57.681818 267.183856 
z
" clip-path="url(#pec35b49e14)" style="fill: #2ca02c; fill-opacity: 0.2"/>
   </g>
   <g id="PolyCollection_4">
    <path d="M 57.681818 233.645553 
L 57.681818 256.004422 
L 66.136364 214.081542 
L 74.590909 208.491825 
L 83.045455 187.530386 
L 91.5 174.953522 
L 99.954545 179.14581 
L 108.409091 183.338098 
L 116.863636 174.953522 
L 125.318182 176.350951 
L 133.772727 153.992082 
L 142.227273 163.774087 
L 150.681818 151.197224 
L 159.136364 148.402365 
L 167.590909 151.197224 
L 176.045455 148.402365 
L 184.5 155.389512 
L 192.954545 145.607506 
L 201.409091 145.607506 
L 209.863636 147.004936 
L 218.318182 159.581799 
L 226.772727 145.607506 
L 235.227273 148.402365 
L 235.227273 128.838355 
L 235.227273 128.838355 
L 226.772727 130.235784 
L 218.318182 128.838355 
L 209.863636 130.235784 
L 201.409091 133.030643 
L 192.954545 131.633213 
L 184.5 135.825501 
L 176.045455 138.62036 
L 167.590909 142.812648 
L 159.136364 147.004936 
L 150.681818 144.210077 
L 142.227273 140.017789 
L 133.772727 151.197224 
L 125.318182 163.774087 
L 116.863636 151.197224 
L 108.409091 158.18437 
L 99.954545 158.18437 
L 91.5 166.568946 
L 83.045455 166.568946 
L 74.590909 179.14581 
L 66.136364 204.299537 
L 57.681818 233.645553 
z
" clip-path="url(#pec35b49e14)" style="fill: #d62728; fill-opacity: 0.2"/>
   </g>
   <g id="PolyCollection_5">
    <path d="M 57.681818 313.299023 
L 57.681818 323.081028 
L 66.136364 251.812134 
L 74.590909 260.19671 
L 83.045455 235.042982 
L 91.5 222.466118 
L 99.954545 204.299537 
L 108.409091 188.927815 
L 116.863636 184.735527 
L 125.318182 176.350951 
L 133.772727 191.722674 
L 142.227273 169.363805 
L 150.681818 162.376658 
L 159.136364 170.761234 
L 167.590909 142.812648 
L 176.045455 149.799794 
L 184.5 145.607506 
L 192.954545 151.197224 
L 201.409091 147.004936 
L 209.863636 147.004936 
L 218.318182 147.004936 
L 226.772727 144.210077 
L 235.227273 140.017789 
L 243.681818 145.607506 
L 252.136364 142.812648 
L 260.590909 145.607506 
L 269.045455 147.004936 
L 277.5 147.004936 
L 285.954545 144.210077 
L 294.409091 142.812648 
L 302.863636 144.210077 
L 311.318182 145.607506 
L 311.318182 112.069203 
L 311.318182 112.069203 
L 302.863636 120.453779 
L 294.409091 124.646067 
L 285.954545 121.851208 
L 277.5 123.248638 
L 269.045455 126.043496 
L 260.590909 124.646067 
L 252.136364 127.440925 
L 243.681818 124.646067 
L 235.227273 121.851208 
L 226.772727 128.838355 
L 218.318182 133.030643 
L 209.863636 120.453779 
L 201.409091 126.043496 
L 192.954545 140.017789 
L 184.5 138.62036 
L 176.045455 130.235784 
L 167.590909 135.825501 
L 159.136364 140.017789 
L 150.681818 144.210077 
L 142.227273 159.581799 
L 133.772727 156.786941 
L 125.318182 172.158663 
L 116.863636 172.158663 
L 108.409091 177.74838 
L 99.954545 184.735527 
L 91.5 216.876401 
L 83.045455 211.286684 
L 74.590909 218.27383 
L 66.136364 232.248123 
L 57.681818 313.299023 
z
" clip-path="url(#pec35b49e14)" style="fill: #9467bd; fill-opacity: 0.2"/>
   </g>
   <g id="PolyCollection_6">
    <path d="M 57.681818 200.107249 
L 57.681818 230.850694 
L 66.136364 181.940668 
L 74.590909 170.761234 
L 83.045455 169.363805 
L 91.5 170.761234 
L 99.954545 153.992082 
L 108.409091 162.376658 
L 116.863636 134.428072 
L 125.318182 142.812648 
L 133.772727 137.222931 
L 142.227273 137.222931 
L 150.681818 126.043496 
L 159.136364 120.453779 
L 167.590909 123.248638 
L 176.045455 130.235784 
L 184.5 123.248638 
L 192.954545 124.646067 
L 201.409091 123.248638 
L 209.863636 120.453779 
L 218.318182 117.65892 
L 226.772727 117.65892 
L 235.227273 121.851208 
L 243.681818 119.05635 
L 252.136364 116.261491 
L 260.590909 121.851208 
L 269.045455 119.05635 
L 277.5 123.248638 
L 285.954545 117.65892 
L 294.409091 119.05635 
L 302.863636 119.05635 
L 302.863636 105.082057 
L 302.863636 105.082057 
L 294.409091 109.274344 
L 285.954545 107.876915 
L 277.5 112.069203 
L 269.045455 107.876915 
L 260.590909 112.069203 
L 252.136364 112.069203 
L 243.681818 113.466632 
L 235.227273 113.466632 
L 226.772727 113.466632 
L 218.318182 113.466632 
L 209.863636 113.466632 
L 201.409091 113.466632 
L 192.954545 109.274344 
L 184.5 107.876915 
L 176.045455 109.274344 
L 167.590909 117.65892 
L 159.136364 117.65892 
L 150.681818 121.851208 
L 142.227273 126.043496 
L 133.772727 123.248638 
L 125.318182 128.838355 
L 116.863636 124.646067 
L 108.409091 127.440925 
L 99.954545 144.210077 
L 91.5 153.992082 
L 83.045455 147.004936 
L 74.590909 169.363805 
L 66.136364 176.350951 
L 57.681818 200.107249 
z
" clip-path="url(#pec35b49e14)" style="fill: #8c564b; fill-opacity: 0.2"/>
   </g>
   <g id="PolyCollection_7">
    <path d="M 57.681818 256.004422 
L 57.681818 264.388997 
L 66.136364 197.312391 
L 74.590909 169.363805 
L 83.045455 155.389512 
L 91.5 151.197224 
L 99.954545 140.017789 
L 108.409091 148.402365 
L 116.863636 140.017789 
L 125.318182 137.222931 
L 133.772727 141.415219 
L 142.227273 141.415219 
L 150.681818 135.825501 
L 159.136364 137.222931 
L 167.590909 137.222931 
L 176.045455 137.222931 
L 184.5 131.633213 
L 192.954545 127.440925 
L 201.409091 134.428072 
L 209.863636 127.440925 
L 218.318182 130.235784 
L 226.772727 134.428072 
L 235.227273 138.62036 
L 235.227273 119.05635 
L 235.227273 119.05635 
L 226.772727 119.05635 
L 218.318182 124.646067 
L 209.863636 121.851208 
L 201.409091 121.851208 
L 192.954545 117.65892 
L 184.5 123.248638 
L 176.045455 123.248638 
L 167.590909 116.261491 
L 159.136364 119.05635 
L 150.681818 116.261491 
L 142.227273 124.646067 
L 133.772727 126.043496 
L 125.318182 127.440925 
L 116.863636 126.043496 
L 108.409091 124.646067 
L 99.954545 127.440925 
L 91.5 140.017789 
L 83.045455 141.415219 
L 74.590909 144.210077 
L 66.136364 176.350951 
L 57.681818 256.004422 
z
" clip-path="url(#pec35b49e14)" style="fill: #e377c2; fill-opacity: 0.2"/>
   </g>
   <g id="PolyCollection_8">
    <path d="M 57.681818 188.927815 
L 57.681818 209.889254 
L 66.136364 149.799794 
L 74.590909 144.210077 
L 83.045455 138.62036 
L 91.5 142.812648 
L 99.954545 138.62036 
L 108.409091 138.62036 
L 116.863636 130.235784 
L 125.318182 127.440925 
L 133.772727 123.248638 
L 142.227273 119.05635 
L 150.681818 119.05635 
L 159.136364 123.248638 
L 167.590909 124.646067 
L 167.590909 112.069203 
L 167.590909 112.069203 
L 159.136364 112.069203 
L 150.681818 114.864062 
L 142.227273 114.864062 
L 133.772727 107.876915 
L 125.318182 126.043496 
L 116.863636 127.440925 
L 108.409091 127.440925 
L 99.954545 126.043496 
L 91.5 117.65892 
L 83.045455 126.043496 
L 74.590909 131.633213 
L 66.136364 140.017789 
L 57.681818 188.927815 
z
" clip-path="url(#pec35b49e14)" style="fill: #7f7f7f; fill-opacity: 0.2"/>
   </g>
   <g id="matplotlib.axis_1">
    <g id="xtick_1">
     <g id="line2d_1">
      <path d="M 49.227273 378 
L 49.227273 51.84 
" clip-path="url(#pec35b49e14)" style="fill: none; stroke: #b0b0b0; stroke-width: 0.8; stroke-linecap: square"/>
     </g>
     <g id="line2d_2">
      <defs>
       <path id="m19c2778775" d="M 0 0 
L 0 3.5 
" style="stroke: #000000; stroke-width: 0.8"/>
      </defs>
      <g>
       <use xlink:href="#m19c2778775" x="49.227273" y="378" style="stroke: #000000; stroke-width: 0.8"/>
      </g>
     </g>
     <g id="text_1">
      <!-- 0 -->
      <g transform="translate(46.046023 392.598437)scale(0.1 -0.1)">
       <defs>
        <path id="DejaVuSans-30" d="M 2034 4250 
Q 1547 4250 1301 3770 
Q 1056 3291 1056 2328 
Q 1056 1369 1301 889 
Q 1547 409 2034 409 
Q 2525 409 2770 889 
Q 3016 1369 3016 2328 
Q 3016 3291 2770 3770 
Q 2525 4250 2034 4250 
z
M 2034 4750 
Q 2819 4750 3233 4129 
Q 3647 3509 3647 2328 
Q 3647 1150 3233 529 
Q 2819 -91 2034 -91 
Q 1250 -91 836 529 
Q 422 1150 422 2328 
Q 422 3509 836 4129 
Q 1250 4750 2034 4750 
z
" transform="scale(0.015625)"/>
       </defs>
       <use xlink:href="#DejaVuSans-30"/>
      </g>
     </g>
    </g>
    <g id="xtick_2">
     <g id="line2d_3">
      <path d="M 91.5 378 
L 91.5 51.84 
" clip-path="url(#pec35b49e14)" style="fill: none; stroke: #b0b0b0; stroke-width: 0.8; stroke-linecap: square"/>
     </g>
     <g id="line2d_4">
      <g>
       <use xlink:href="#m19c2778775" x="91.5" y="378" style="stroke: #000000; stroke-width: 0.8"/>
      </g>
     </g>
     <g id="text_2">
      <!-- 5 -->
      <g transform="translate(88.31875 392.598437)scale(0.1 -0.1)">
       <defs>
        <path id="DejaVuSans-35" d="M 691 4666 
L 3169 4666 
L 3169 4134 
L 1269 4134 
L 1269 2991 
Q 1406 3038 1543 3061 
Q 1681 3084 1819 3084 
Q 2600 3084 3056 2656 
Q 3513 2228 3513 1497 
Q 3513 744 3044 326 
Q 2575 -91 1722 -91 
Q 1428 -91 1123 -41 
Q 819 9 494 109 
L 494 744 
Q 775 591 1075 516 
Q 1375 441 1709 441 
Q 2250 441 2565 725 
Q 2881 1009 2881 1497 
Q 2881 1984 2565 2268 
Q 2250 2553 1709 2553 
Q 1456 2553 1204 2497 
Q 953 2441 691 2322 
L 691 4666 
z
" transform="scale(0.015625)"/>
       </defs>
       <use xlink:href="#DejaVuSans-35"/>
      </g>
     </g>
    </g>
    <g id="xtick_3">
     <g id="line2d_5">
      <path d="M 133.772727 378 
L 133.772727 51.84 
" clip-path="url(#pec35b49e14)" style="fill: none; stroke: #b0b0b0; stroke-width: 0.8; stroke-linecap: square"/>
     </g>
     <g id="line2d_6">
      <g>
       <use xlink:href="#m19c2778775" x="133.772727" y="378" style="stroke: #000000; stroke-width: 0.8"/>
      </g>
     </g>
     <g id="text_3">
      <!-- 10 -->
      <g transform="translate(127.410227 392.598437)scale(0.1 -0.1)">
       <defs>
        <path id="DejaVuSans-31" d="M 794 531 
L 1825 531 
L 1825 4091 
L 703 3866 
L 703 4441 
L 1819 4666 
L 2450 4666 
L 2450 531 
L 3481 531 
L 3481 0 
L 794 0 
L 794 531 
z
" transform="scale(0.015625)"/>
       </defs>
       <use xlink:href="#DejaVuSans-31"/>
       <use xlink:href="#DejaVuSans-30" x="63.623047"/>
      </g>
     </g>
    </g>
    <g id="xtick_4">
     <g id="line2d_7">
      <path d="M 176.045455 378 
L 176.045455 51.84 
" clip-path="url(#pec35b49e14)" style="fill: none; stroke: #b0b0b0; stroke-width: 0.8; stroke-linecap: square"/>
     </g>
     <g id="line2d_8">
      <g>
       <use xlink:href="#m19c2778775" x="176.045455" y="378" style="stroke: #000000; stroke-width: 0.8"/>
      </g>
     </g>
     <g id="text_4">
      <!-- 15 -->
      <g transform="translate(169.682955 392.598437)scale(0.1 -0.1)">
       <use xlink:href="#DejaVuSans-31"/>
       <use xlink:href="#DejaVuSans-35" x="63.623047"/>
      </g>
     </g>
    </g>
    <g id="xtick_5">
     <g id="line2d_9">
      <path d="M 218.318182 378 
L 218.318182 51.84 
" clip-path="url(#pec35b49e14)" style="fill: none; stroke: #b0b0b0; stroke-width: 0.8; stroke-linecap: square"/>
     </g>
     <g id="line2d_10">
      <g>
       <use xlink:href="#m19c2778775" x="218.318182" y="378" style="stroke: #000000; stroke-width: 0.8"/>
      </g>
     </g>
     <g id="text_5">
      <!-- 20 -->
      <g transform="translate(211.955682 392.598437)scale(0.1 -0.1)">
       <defs>
        <path id="DejaVuSans-32" d="M 1228 531 
L 3431 531 
L 3431 0 
L 469 0 
L 469 531 
Q 828 903 1448 1529 
Q 2069 2156 2228 2338 
Q 2531 2678 2651 2914 
Q 2772 3150 2772 3378 
Q 2772 3750 2511 3984 
Q 2250 4219 1831 4219 
Q 1534 4219 1204 4116 
Q 875 4013 500 3803 
L 500 4441 
Q 881 4594 1212 4672 
Q 1544 4750 1819 4750 
Q 2544 4750 2975 4387 
Q 3406 4025 3406 3419 
Q 3406 3131 3298 2873 
Q 3191 2616 2906 2266 
Q 2828 2175 2409 1742 
Q 1991 1309 1228 531 
z
" transform="scale(0.015625)"/>
       </defs>
       <use xlink:href="#DejaVuSans-32"/>
       <use xlink:href="#DejaVuSans-30" x="63.623047"/>
      </g>
     </g>
    </g>
    <g id="xtick_6">
     <g id="line2d_11">
      <path d="M 260.590909 378 
L 260.590909 51.84 
" clip-path="url(#pec35b49e14)" style="fill: none; stroke: #b0b0b0; stroke-width: 0.8; stroke-linecap: square"/>
     </g>
     <g id="line2d_12">
      <g>
       <use xlink:href="#m19c2778775" x="260.590909" y="378" style="stroke: #000000; stroke-width: 0.8"/>
      </g>
     </g>
     <g id="text_6">
      <!-- 25 -->
      <g transform="translate(254.228409 392.598437)scale(0.1 -0.1)">
       <use xlink:href="#DejaVuSans-32"/>
       <use xlink:href="#DejaVuSans-35" x="63.623047"/>
      </g>
     </g>
    </g>
    <g id="xtick_7">
     <g id="line2d_13">
      <path d="M 302.863636 378 
L 302.863636 51.84 
" clip-path="url(#pec35b49e14)" style="fill: none; stroke: #b0b0b0; stroke-width: 0.8; stroke-linecap: square"/>
     </g>
     <g id="line2d_14">
      <g>
       <use xlink:href="#m19c2778775" x="302.863636" y="378" style="stroke: #000000; stroke-width: 0.8"/>
      </g>
     </g>
     <g id="text_7">
      <!-- 30 -->
      <g transform="translate(296.501136 392.598437)scale(0.1 -0.1)">
       <defs>
        <path id="DejaVuSans-33" d="M 2597 2516 
Q 3050 2419 3304 2112 
Q 3559 1806 3559 1356 
Q 3559 666 3084 287 
Q 2609 -91 1734 -91 
Q 1441 -91 1130 -33 
Q 819 25 488 141 
L 488 750 
Q 750 597 1062 519 
Q 1375 441 1716 441 
Q 2309 441 2620 675 
Q 2931 909 2931 1356 
Q 2931 1769 2642 2001 
Q 2353 2234 1838 2234 
L 1294 2234 
L 1294 2753 
L 1863 2753 
Q 2328 2753 2575 2939 
Q 2822 3125 2822 3475 
Q 2822 3834 2567 4026 
Q 2313 4219 1838 4219 
Q 1578 4219 1281 4162 
Q 984 4106 628 3988 
L 628 4550 
Q 988 4650 1302 4700 
Q 1616 4750 1894 4750 
Q 2613 4750 3031 4423 
Q 3450 4097 3450 3541 
Q 3450 3153 3228 2886 
Q 3006 2619 2597 2516 
z
" transform="scale(0.015625)"/>
       </defs>
       <use xlink:href="#DejaVuSans-33"/>
       <use xlink:href="#DejaVuSans-30" x="63.623047"/>
      </g>
     </g>
    </g>
    <g id="text_8">
     <!-- Epochs -->
     <g transform="translate(166.584375 406.276563)scale(0.1 -0.1)">
      <defs>
       <path id="DejaVuSans-45" d="M 628 4666 
L 3578 4666 
L 3578 4134 
L 1259 4134 
L 1259 2753 
L 3481 2753 
L 3481 2222 
L 1259 2222 
L 1259 531 
L 3634 531 
L 3634 0 
L 628 0 
L 628 4666 
z
" transform="scale(0.015625)"/>
       <path id="DejaVuSans-70" d="M 1159 525 
L 1159 -1331 
L 581 -1331 
L 581 3500 
L 1159 3500 
L 1159 2969 
Q 1341 3281 1617 3432 
Q 1894 3584 2278 3584 
Q 2916 3584 3314 3078 
Q 3713 2572 3713 1747 
Q 3713 922 3314 415 
Q 2916 -91 2278 -91 
Q 1894 -91 1617 61 
Q 1341 213 1159 525 
z
M 3116 1747 
Q 3116 2381 2855 2742 
Q 2594 3103 2138 3103 
Q 1681 3103 1420 2742 
Q 1159 2381 1159 1747 
Q 1159 1113 1420 752 
Q 1681 391 2138 391 
Q 2594 391 2855 752 
Q 3116 1113 3116 1747 
z
" transform="scale(0.015625)"/>
       <path id="DejaVuSans-6f" d="M 1959 3097 
Q 1497 3097 1228 2736 
Q 959 2375 959 1747 
Q 959 1119 1226 758 
Q 1494 397 1959 397 
Q 2419 397 2687 759 
Q 2956 1122 2956 1747 
Q 2956 2369 2687 2733 
Q 2419 3097 1959 3097 
z
M 1959 3584 
Q 2709 3584 3137 3096 
Q 3566 2609 3566 1747 
Q 3566 888 3137 398 
Q 2709 -91 1959 -91 
Q 1206 -91 779 398 
Q 353 888 353 1747 
Q 353 2609 779 3096 
Q 1206 3584 1959 3584 
z
" transform="scale(0.015625)"/>
       <path id="DejaVuSans-63" d="M 3122 3366 
L 3122 2828 
Q 2878 2963 2633 3030 
Q 2388 3097 2138 3097 
Q 1578 3097 1268 2742 
Q 959 2388 959 1747 
Q 959 1106 1268 751 
Q 1578 397 2138 397 
Q 2388 397 2633 464 
Q 2878 531 3122 666 
L 3122 134 
Q 2881 22 2623 -34 
Q 2366 -91 2075 -91 
Q 1284 -91 818 406 
Q 353 903 353 1747 
Q 353 2603 823 3093 
Q 1294 3584 2113 3584 
Q 2378 3584 2631 3529 
Q 2884 3475 3122 3366 
z
" transform="scale(0.015625)"/>
       <path id="DejaVuSans-68" d="M 3513 2113 
L 3513 0 
L 2938 0 
L 2938 2094 
Q 2938 2591 2744 2837 
Q 2550 3084 2163 3084 
Q 1697 3084 1428 2787 
Q 1159 2491 1159 1978 
L 1159 0 
L 581 0 
L 581 4863 
L 1159 4863 
L 1159 2956 
Q 1366 3272 1645 3428 
Q 1925 3584 2291 3584 
Q 2894 3584 3203 3211 
Q 3513 2838 3513 2113 
z
" transform="scale(0.015625)"/>
       <path id="DejaVuSans-73" d="M 2834 3397 
L 2834 2853 
Q 2591 2978 2328 3040 
Q 2066 3103 1784 3103 
Q 1356 3103 1142 2972 
Q 928 2841 928 2578 
Q 928 2378 1081 2264 
Q 1234 2150 1697 2047 
L 1894 2003 
Q 2506 1872 2764 1633 
Q 3022 1394 3022 966 
Q 3022 478 2636 193 
Q 2250 -91 1575 -91 
Q 1294 -91 989 -36 
Q 684 19 347 128 
L 347 722 
Q 666 556 975 473 
Q 1284 391 1588 391 
Q 1994 391 2212 530 
Q 2431 669 2431 922 
Q 2431 1156 2273 1281 
Q 2116 1406 1581 1522 
L 1381 1569 
Q 847 1681 609 1914 
Q 372 2147 372 2553 
Q 372 3047 722 3315 
Q 1072 3584 1716 3584 
Q 2034 3584 2315 3537 
Q 2597 3491 2834 3397 
z
" transform="scale(0.015625)"/>
      </defs>
      <use xlink:href="#DejaVuSans-45"/>
      <use xlink:href="#DejaVuSans-70" x="63.183594"/>
      <use xlink:href="#DejaVuSans-6f" x="126.660156"/>
      <use xlink:href="#DejaVuSans-63" x="187.841797"/>
      <use xlink:href="#DejaVuSans-68" x="242.822266"/>
      <use xlink:href="#DejaVuSans-73" x="306.201172"/>
     </g>
    </g>
   </g>
   <g id="matplotlib.axis_2">
    <g id="ytick_1">
     <g id="line2d_15">
      <path d="M 45 378 
L 324 378 
" clip-path="url(#pec35b49e14)" style="fill: none; stroke: #b0b0b0; stroke-width: 0.8; stroke-linecap: square"/>
     </g>
     <g id="line2d_16">
      <defs>
       <path id="mb59edbb2ac" d="M 0 0 
L -3.5 0 
" style="stroke: #000000; stroke-width: 0.8"/>
      </defs>
      <g>
       <use xlink:href="#mb59edbb2ac" x="45" y="378" style="stroke: #000000; stroke-width: 0.8"/>
      </g>
     </g>
     <g id="text_9">
      <!-- 0.65 -->
      <g transform="translate(15.734375 381.799219)scale(0.1 -0.1)">
       <defs>
        <path id="DejaVuSans-2e" d="M 684 794 
L 1344 794 
L 1344 0 
L 684 0 
L 684 794 
z
" transform="scale(0.015625)"/>
        <path id="DejaVuSans-36" d="M 2113 2584 
Q 1688 2584 1439 2293 
Q 1191 2003 1191 1497 
Q 1191 994 1439 701 
Q 1688 409 2113 409 
Q 2538 409 2786 701 
Q 3034 994 3034 1497 
Q 3034 2003 2786 2293 
Q 2538 2584 2113 2584 
z
M 3366 4563 
L 3366 3988 
Q 3128 4100 2886 4159 
Q 2644 4219 2406 4219 
Q 1781 4219 1451 3797 
Q 1122 3375 1075 2522 
Q 1259 2794 1537 2939 
Q 1816 3084 2150 3084 
Q 2853 3084 3261 2657 
Q 3669 2231 3669 1497 
Q 3669 778 3244 343 
Q 2819 -91 2113 -91 
Q 1303 -91 875 529 
Q 447 1150 447 2328 
Q 447 3434 972 4092 
Q 1497 4750 2381 4750 
Q 2619 4750 2861 4703 
Q 3103 4656 3366 4563 
z
" transform="scale(0.015625)"/>
       </defs>
       <use xlink:href="#DejaVuSans-30"/>
       <use xlink:href="#DejaVuSans-2e" x="63.623047"/>
       <use xlink:href="#DejaVuSans-36" x="95.410156"/>
       <use xlink:href="#DejaVuSans-35" x="159.033203"/>
      </g>
     </g>
    </g>
    <g id="ytick_2">
     <g id="line2d_17">
      <path d="M 45 323.64 
L 324 323.64 
" clip-path="url(#pec35b49e14)" style="fill: none; stroke: #b0b0b0; stroke-width: 0.8; stroke-linecap: square"/>
     </g>
     <g id="line2d_18">
      <g>
       <use xlink:href="#mb59edbb2ac" x="45" y="323.64" style="stroke: #000000; stroke-width: 0.8"/>
      </g>
     </g>
     <g id="text_10">
      <!-- 0.70 -->
      <g transform="translate(15.734375 327.439219)scale(0.1 -0.1)">
       <defs>
        <path id="DejaVuSans-37" d="M 525 4666 
L 3525 4666 
L 3525 4397 
L 1831 0 
L 1172 0 
L 2766 4134 
L 525 4134 
L 525 4666 
z
" transform="scale(0.015625)"/>
       </defs>
       <use xlink:href="#DejaVuSans-30"/>
       <use xlink:href="#DejaVuSans-2e" x="63.623047"/>
       <use xlink:href="#DejaVuSans-37" x="95.410156"/>
       <use xlink:href="#DejaVuSans-30" x="159.033203"/>
      </g>
     </g>
    </g>
    <g id="ytick_3">
     <g id="line2d_19">
      <path d="M 45 269.28 
L 324 269.28 
" clip-path="url(#pec35b49e14)" style="fill: none; stroke: #b0b0b0; stroke-width: 0.8; stroke-linecap: square"/>
     </g>
     <g id="line2d_20">
      <g>
       <use xlink:href="#mb59edbb2ac" x="45" y="269.28" style="stroke: #000000; stroke-width: 0.8"/>
      </g>
     </g>
     <g id="text_11">
      <!-- 0.75 -->
      <g transform="translate(15.734375 273.079219)scale(0.1 -0.1)">
       <use xlink:href="#DejaVuSans-30"/>
       <use xlink:href="#DejaVuSans-2e" x="63.623047"/>
       <use xlink:href="#DejaVuSans-37" x="95.410156"/>
       <use xlink:href="#DejaVuSans-35" x="159.033203"/>
      </g>
     </g>
    </g>
    <g id="ytick_4">
     <g id="line2d_21">
      <path d="M 45 214.92 
L 324 214.92 
" clip-path="url(#pec35b49e14)" style="fill: none; stroke: #b0b0b0; stroke-width: 0.8; stroke-linecap: square"/>
     </g>
     <g id="line2d_22">
      <g>
       <use xlink:href="#mb59edbb2ac" x="45" y="214.92" style="stroke: #000000; stroke-width: 0.8"/>
      </g>
     </g>
     <g id="text_12">
      <!-- 0.80 -->
      <g transform="translate(15.734375 218.719219)scale(0.1 -0.1)">
       <defs>
        <path id="DejaVuSans-38" d="M 2034 2216 
Q 1584 2216 1326 1975 
Q 1069 1734 1069 1313 
Q 1069 891 1326 650 
Q 1584 409 2034 409 
Q 2484 409 2743 651 
Q 3003 894 3003 1313 
Q 3003 1734 2745 1975 
Q 2488 2216 2034 2216 
z
M 1403 2484 
Q 997 2584 770 2862 
Q 544 3141 544 3541 
Q 544 4100 942 4425 
Q 1341 4750 2034 4750 
Q 2731 4750 3128 4425 
Q 3525 4100 3525 3541 
Q 3525 3141 3298 2862 
Q 3072 2584 2669 2484 
Q 3125 2378 3379 2068 
Q 3634 1759 3634 1313 
Q 3634 634 3220 271 
Q 2806 -91 2034 -91 
Q 1263 -91 848 271 
Q 434 634 434 1313 
Q 434 1759 690 2068 
Q 947 2378 1403 2484 
z
M 1172 3481 
Q 1172 3119 1398 2916 
Q 1625 2713 2034 2713 
Q 2441 2713 2670 2916 
Q 2900 3119 2900 3481 
Q 2900 3844 2670 4047 
Q 2441 4250 2034 4250 
Q 1625 4250 1398 4047 
Q 1172 3844 1172 3481 
z
" transform="scale(0.015625)"/>
       </defs>
       <use xlink:href="#DejaVuSans-30"/>
       <use xlink:href="#DejaVuSans-2e" x="63.623047"/>
       <use xlink:href="#DejaVuSans-38" x="95.410156"/>
       <use xlink:href="#DejaVuSans-30" x="159.033203"/>
      </g>
     </g>
    </g>
    <g id="ytick_5">
     <g id="line2d_23">
      <path d="M 45 160.56 
L 324 160.56 
" clip-path="url(#pec35b49e14)" style="fill: none; stroke: #b0b0b0; stroke-width: 0.8; stroke-linecap: square"/>
     </g>
     <g id="line2d_24">
      <g>
       <use xlink:href="#mb59edbb2ac" x="45" y="160.56" style="stroke: #000000; stroke-width: 0.8"/>
      </g>
     </g>
     <g id="text_13">
      <!-- 0.85 -->
      <g transform="translate(15.734375 164.359219)scale(0.1 -0.1)">
       <use xlink:href="#DejaVuSans-30"/>
       <use xlink:href="#DejaVuSans-2e" x="63.623047"/>
       <use xlink:href="#DejaVuSans-38" x="95.410156"/>
       <use xlink:href="#DejaVuSans-35" x="159.033203"/>
      </g>
     </g>
    </g>
    <g id="ytick_6">
     <g id="line2d_25">
      <path d="M 45 106.2 
L 324 106.2 
" clip-path="url(#pec35b49e14)" style="fill: none; stroke: #b0b0b0; stroke-width: 0.8; stroke-linecap: square"/>
     </g>
     <g id="line2d_26">
      <g>
       <use xlink:href="#mb59edbb2ac" x="45" y="106.2" style="stroke: #000000; stroke-width: 0.8"/>
      </g>
     </g>
     <g id="text_14">
      <!-- 0.90 -->
      <g transform="translate(15.734375 109.999219)scale(0.1 -0.1)">
       <defs>
        <path id="DejaVuSans-39" d="M 703 97 
L 703 672 
Q 941 559 1184 500 
Q 1428 441 1663 441 
Q 2288 441 2617 861 
Q 2947 1281 2994 2138 
Q 2813 1869 2534 1725 
Q 2256 1581 1919 1581 
Q 1219 1581 811 2004 
Q 403 2428 403 3163 
Q 403 3881 828 4315 
Q 1253 4750 1959 4750 
Q 2769 4750 3195 4129 
Q 3622 3509 3622 2328 
Q 3622 1225 3098 567 
Q 2575 -91 1691 -91 
Q 1453 -91 1209 -44 
Q 966 3 703 97 
z
M 1959 2075 
Q 2384 2075 2632 2365 
Q 2881 2656 2881 3163 
Q 2881 3666 2632 3958 
Q 2384 4250 1959 4250 
Q 1534 4250 1286 3958 
Q 1038 3666 1038 3163 
Q 1038 2656 1286 2365 
Q 1534 2075 1959 2075 
z
" transform="scale(0.015625)"/>
       </defs>
       <use xlink:href="#DejaVuSans-30"/>
       <use xlink:href="#DejaVuSans-2e" x="63.623047"/>
       <use xlink:href="#DejaVuSans-39" x="95.410156"/>
       <use xlink:href="#DejaVuSans-30" x="159.033203"/>
      </g>
     </g>
    </g>
    <g id="ytick_7">
     <g id="line2d_27">
      <path d="M 45 51.84 
L 324 51.84 
" clip-path="url(#pec35b49e14)" style="fill: none; stroke: #b0b0b0; stroke-width: 0.8; stroke-linecap: square"/>
     </g>
     <g id="line2d_28">
      <g>
       <use xlink:href="#mb59edbb2ac" x="45" y="51.84" style="stroke: #000000; stroke-width: 0.8"/>
      </g>
     </g>
     <g id="text_15">
      <!-- 0.95 -->
      <g transform="translate(15.734375 55.639219)scale(0.1 -0.1)">
       <use xlink:href="#DejaVuSans-30"/>
       <use xlink:href="#DejaVuSans-2e" x="63.623047"/>
       <use xlink:href="#DejaVuSans-39" x="95.410156"/>
       <use xlink:href="#DejaVuSans-35" x="159.033203"/>
      </g>
     </g>
    </g>
    <g id="text_16">
     <!-- Accuracy ($Q_2$ with $Q_1 - Q_3$ range) -->
     <g transform="translate(9.634375 298.32)rotate(-90)scale(0.1 -0.1)">
      <defs>
       <path id="DejaVuSans-41" d="M 2188 4044 
L 1331 1722 
L 3047 1722 
L 2188 4044 
z
M 1831 4666 
L 2547 4666 
L 4325 0 
L 3669 0 
L 3244 1197 
L 1141 1197 
L 716 0 
L 50 0 
L 1831 4666 
z
" transform="scale(0.015625)"/>
       <path id="DejaVuSans-75" d="M 544 1381 
L 544 3500 
L 1119 3500 
L 1119 1403 
Q 1119 906 1312 657 
Q 1506 409 1894 409 
Q 2359 409 2629 706 
Q 2900 1003 2900 1516 
L 2900 3500 
L 3475 3500 
L 3475 0 
L 2900 0 
L 2900 538 
Q 2691 219 2414 64 
Q 2138 -91 1772 -91 
Q 1169 -91 856 284 
Q 544 659 544 1381 
z
M 1991 3584 
L 1991 3584 
z
" transform="scale(0.015625)"/>
       <path id="DejaVuSans-72" d="M 2631 2963 
Q 2534 3019 2420 3045 
Q 2306 3072 2169 3072 
Q 1681 3072 1420 2755 
Q 1159 2438 1159 1844 
L 1159 0 
L 581 0 
L 581 3500 
L 1159 3500 
L 1159 2956 
Q 1341 3275 1631 3429 
Q 1922 3584 2338 3584 
Q 2397 3584 2469 3576 
Q 2541 3569 2628 3553 
L 2631 2963 
z
" transform="scale(0.015625)"/>
       <path id="DejaVuSans-61" d="M 2194 1759 
Q 1497 1759 1228 1600 
Q 959 1441 959 1056 
Q 959 750 1161 570 
Q 1363 391 1709 391 
Q 2188 391 2477 730 
Q 2766 1069 2766 1631 
L 2766 1759 
L 2194 1759 
z
M 3341 1997 
L 3341 0 
L 2766 0 
L 2766 531 
Q 2569 213 2275 61 
Q 1981 -91 1556 -91 
Q 1019 -91 701 211 
Q 384 513 384 1019 
Q 384 1609 779 1909 
Q 1175 2209 1959 2209 
L 2766 2209 
L 2766 2266 
Q 2766 2663 2505 2880 
Q 2244 3097 1772 3097 
Q 1472 3097 1187 3025 
Q 903 2953 641 2809 
L 641 3341 
Q 956 3463 1253 3523 
Q 1550 3584 1831 3584 
Q 2591 3584 2966 3190 
Q 3341 2797 3341 1997 
z
" transform="scale(0.015625)"/>
       <path id="DejaVuSans-79" d="M 2059 -325 
Q 1816 -950 1584 -1140 
Q 1353 -1331 966 -1331 
L 506 -1331 
L 506 -850 
L 844 -850 
Q 1081 -850 1212 -737 
Q 1344 -625 1503 -206 
L 1606 56 
L 191 3500 
L 800 3500 
L 1894 763 
L 2988 3500 
L 3597 3500 
L 2059 -325 
z
" transform="scale(0.015625)"/>
       <path id="DejaVuSans-20" transform="scale(0.015625)"/>
       <path id="DejaVuSans-28" d="M 1984 4856 
Q 1566 4138 1362 3434 
Q 1159 2731 1159 2009 
Q 1159 1288 1364 580 
Q 1569 -128 1984 -844 
L 1484 -844 
Q 1016 -109 783 600 
Q 550 1309 550 2009 
Q 550 2706 781 3412 
Q 1013 4119 1484 4856 
L 1984 4856 
z
" transform="scale(0.015625)"/>
       <path id="DejaVuSans-Oblique-51" d="M 2309 -84 
Q 2275 -88 2237 -89 
Q 2200 -91 2125 -91 
Q 1250 -91 756 411 
Q 263 913 263 1797 
Q 263 2319 452 2844 
Q 641 3369 978 3788 
Q 1369 4269 1858 4509 
Q 2347 4750 2938 4750 
Q 3794 4750 4287 4245 
Q 4781 3741 4781 2869 
Q 4781 1928 4265 1147 
Q 3750 366 2919 44 
L 3553 -825 
L 2847 -825 
L 2309 -84 
z
M 2919 4238 
Q 2400 4238 2003 3986 
Q 1606 3734 1313 3219 
Q 1125 2891 1026 2522 
Q 928 2153 928 1778 
Q 928 1128 1239 775 
Q 1550 422 2119 422 
Q 2631 422 3032 676 
Q 3434 931 3719 1434 
Q 3909 1772 4009 2142 
Q 4109 2513 4109 2881 
Q 4109 3528 3796 3883 
Q 3484 4238 2919 4238 
z
" transform="scale(0.015625)"/>
       <path id="DejaVuSans-77" d="M 269 3500 
L 844 3500 
L 1563 769 
L 2278 3500 
L 2956 3500 
L 3675 769 
L 4391 3500 
L 4966 3500 
L 4050 0 
L 3372 0 
L 2619 2869 
L 1863 0 
L 1184 0 
L 269 3500 
z
" transform="scale(0.015625)"/>
       <path id="DejaVuSans-69" d="M 603 3500 
L 1178 3500 
L 1178 0 
L 603 0 
L 603 3500 
z
M 603 4863 
L 1178 4863 
L 1178 4134 
L 603 4134 
L 603 4863 
z
" transform="scale(0.015625)"/>
       <path id="DejaVuSans-74" d="M 1172 4494 
L 1172 3500 
L 2356 3500 
L 2356 3053 
L 1172 3053 
L 1172 1153 
Q 1172 725 1289 603 
Q 1406 481 1766 481 
L 2356 481 
L 2356 0 
L 1766 0 
Q 1100 0 847 248 
Q 594 497 594 1153 
L 594 3053 
L 172 3053 
L 172 3500 
L 594 3500 
L 594 4494 
L 1172 4494 
z
" transform="scale(0.015625)"/>
       <path id="DejaVuSans-2212" d="M 678 2272 
L 4684 2272 
L 4684 1741 
L 678 1741 
L 678 2272 
z
" transform="scale(0.015625)"/>
       <path id="DejaVuSans-6e" d="M 3513 2113 
L 3513 0 
L 2938 0 
L 2938 2094 
Q 2938 2591 2744 2837 
Q 2550 3084 2163 3084 
Q 1697 3084 1428 2787 
Q 1159 2491 1159 1978 
L 1159 0 
L 581 0 
L 581 3500 
L 1159 3500 
L 1159 2956 
Q 1366 3272 1645 3428 
Q 1925 3584 2291 3584 
Q 2894 3584 3203 3211 
Q 3513 2838 3513 2113 
z
" transform="scale(0.015625)"/>
       <path id="DejaVuSans-67" d="M 2906 1791 
Q 2906 2416 2648 2759 
Q 2391 3103 1925 3103 
Q 1463 3103 1205 2759 
Q 947 2416 947 1791 
Q 947 1169 1205 825 
Q 1463 481 1925 481 
Q 2391 481 2648 825 
Q 2906 1169 2906 1791 
z
M 3481 434 
Q 3481 -459 3084 -895 
Q 2688 -1331 1869 -1331 
Q 1566 -1331 1297 -1286 
Q 1028 -1241 775 -1147 
L 775 -588 
Q 1028 -725 1275 -790 
Q 1522 -856 1778 -856 
Q 2344 -856 2625 -561 
Q 2906 -266 2906 331 
L 2906 616 
Q 2728 306 2450 153 
Q 2172 0 1784 0 
Q 1141 0 747 490 
Q 353 981 353 1791 
Q 353 2603 747 3093 
Q 1141 3584 1784 3584 
Q 2172 3584 2450 3431 
Q 2728 3278 2906 2969 
L 2906 3500 
L 3481 3500 
L 3481 434 
z
" transform="scale(0.015625)"/>
       <path id="DejaVuSans-65" d="M 3597 1894 
L 3597 1613 
L 953 1613 
Q 991 1019 1311 708 
Q 1631 397 2203 397 
Q 2534 397 2845 478 
Q 3156 559 3463 722 
L 3463 178 
Q 3153 47 2828 -22 
Q 2503 -91 2169 -91 
Q 1331 -91 842 396 
Q 353 884 353 1716 
Q 353 2575 817 3079 
Q 1281 3584 2069 3584 
Q 2775 3584 3186 3129 
Q 3597 2675 3597 1894 
z
M 3022 2063 
Q 3016 2534 2758 2815 
Q 2500 3097 2075 3097 
Q 1594 3097 1305 2825 
Q 1016 2553 972 2059 
L 3022 2063 
z
" transform="scale(0.015625)"/>
       <path id="DejaVuSans-29" d="M 513 4856 
L 1013 4856 
Q 1481 4119 1714 3412 
Q 1947 2706 1947 2009 
Q 1947 1309 1714 600 
Q 1481 -109 1013 -844 
L 513 -844 
Q 928 -128 1133 580 
Q 1338 1288 1338 2009 
Q 1338 2731 1133 3434 
Q 928 4138 513 4856 
z
" transform="scale(0.015625)"/>
      </defs>
      <use xlink:href="#DejaVuSans-41" transform="translate(0 0.015625)"/>
      <use xlink:href="#DejaVuSans-63" transform="translate(68.408203 0.015625)"/>
      <use xlink:href="#DejaVuSans-63" transform="translate(123.388672 0.015625)"/>
      <use xlink:href="#DejaVuSans-75" transform="translate(178.369141 0.015625)"/>
      <use xlink:href="#DejaVuSans-72" transform="translate(241.748047 0.015625)"/>
      <use xlink:href="#DejaVuSans-61" transform="translate(282.861328 0.015625)"/>
      <use xlink:href="#DejaVuSans-63" transform="translate(344.140625 0.015625)"/>
      <use xlink:href="#DejaVuSans-79" transform="translate(399.121094 0.015625)"/>
      <use xlink:href="#DejaVuSans-20" transform="translate(458.300781 0.015625)"/>
      <use xlink:href="#DejaVuSans-28" transform="translate(490.087891 0.015625)"/>
      <use xlink:href="#DejaVuSans-Oblique-51" transform="translate(529.101562 0.015625)"/>
      <use xlink:href="#DejaVuSans-32" transform="translate(607.8125 -16.390625)scale(0.7)"/>
      <use xlink:href="#DejaVuSans-20" transform="translate(655.083008 0.015625)"/>
      <use xlink:href="#DejaVuSans-77" transform="translate(686.870117 0.015625)"/>
      <use xlink:href="#DejaVuSans-69" transform="translate(768.657227 0.015625)"/>
      <use xlink:href="#DejaVuSans-74" transform="translate(796.44043 0.015625)"/>
      <use xlink:href="#DejaVuSans-68" transform="translate(835.649414 0.015625)"/>
      <use xlink:href="#DejaVuSans-20" transform="translate(899.02832 0.015625)"/>
      <use xlink:href="#DejaVuSans-Oblique-51" transform="translate(930.81543 0.015625)"/>
      <use xlink:href="#DejaVuSans-31" transform="translate(1009.526367 -16.390625)scale(0.7)"/>
      <use xlink:href="#DejaVuSans-2212" transform="translate(1076.279297 0.015625)"/>
      <use xlink:href="#DejaVuSans-Oblique-51" transform="translate(1179.550781 0.015625)"/>
      <use xlink:href="#DejaVuSans-33" transform="translate(1258.261719 -16.390625)scale(0.7)"/>
      <use xlink:href="#DejaVuSans-20" transform="translate(1305.532227 0.015625)"/>
      <use xlink:href="#DejaVuSans-72" transform="translate(1337.319336 0.015625)"/>
      <use xlink:href="#DejaVuSans-61" transform="translate(1378.432617 0.015625)"/>
      <use xlink:href="#DejaVuSans-6e" transform="translate(1439.711914 0.015625)"/>
      <use xlink:href="#DejaVuSans-67" transform="translate(1503.09082 0.015625)"/>
      <use xlink:href="#DejaVuSans-65" transform="translate(1566.567383 0.015625)"/>
      <use xlink:href="#DejaVuSans-29" transform="translate(1628.09082 0.015625)"/>
     </g>
    </g>
   </g>
   <g id="line2d_29">
    <path d="M 57.681818 250.414704 
L 66.136364 204.299537 
L 74.590909 191.722674 
L 83.045455 173.556093 
L 91.5 167.966375 
L 99.954545 173.556093 
L 108.409091 160.979229 
L 116.863636 152.594653 
L 125.318182 153.992082 
L 133.772727 160.979229 
L 142.227273 149.799794 
L 150.681818 152.594653 
L 159.136364 163.774087 
L 167.590909 145.607506 
L 176.045455 141.415219 
L 184.5 144.210077 
L 192.954545 142.812648 
L 201.409091 142.812648 
L 209.863636 140.017789 
L 218.318182 141.415219 
L 226.772727 137.222931 
L 235.227273 140.017789 
L 243.681818 135.825501 
L 252.136364 137.222931 
L 260.590909 137.222931 
L 269.045455 135.825501 
L 277.5 134.428072 
L 285.954545 134.428072 
" clip-path="url(#pec35b49e14)" style="fill: none; stroke: #1f77b4; stroke-width: 1.5; stroke-linecap: square"/>
   </g>
   <g id="line2d_30">
    <path d="M 57.681818 208.491825 
L 66.136364 166.568946 
L 74.590909 160.979229 
L 83.045455 155.389512 
L 91.5 149.799794 
L 99.954545 130.235784 
L 108.409091 135.825501 
L 116.863636 134.428072 
L 125.318182 126.043496 
L 133.772727 127.440925 
L 142.227273 126.043496 
L 150.681818 116.261491 
L 159.136364 119.05635 
L 167.590909 119.05635 
L 176.045455 120.453779 
L 184.5 114.864062 
L 192.954545 116.261491 
L 201.409091 113.466632 
L 209.863636 112.069203 
L 218.318182 114.864062 
L 226.772727 113.466632 
L 235.227273 116.261491 
L 243.681818 109.274344 
L 252.136364 116.261491 
L 260.590909 113.466632 
L 269.045455 106.479486 
" clip-path="url(#pec35b49e14)" style="fill: none; stroke: #ff7f0e; stroke-width: 1.5; stroke-linecap: square"/>
   </g>
   <g id="line2d_31">
    <path d="M 57.681818 272.773573 
L 66.136364 221.068689 
L 74.590909 191.722674 
L 83.045455 198.70982 
L 91.5 172.158663 
L 99.954545 166.568946 
L 108.409091 179.14581 
L 116.863636 163.774087 
L 125.318182 172.158663 
L 133.772727 160.979229 
L 142.227273 151.197224 
L 150.681818 151.197224 
L 159.136364 147.004936 
L 167.590909 152.594653 
L 176.045455 149.799794 
L 184.5 148.402365 
L 192.954545 149.799794 
L 201.409091 155.389512 
L 209.863636 153.992082 
L 218.318182 153.992082 
L 226.772727 148.402365 
" clip-path="url(#pec35b49e14)" style="fill: none; stroke: #2ca02c; stroke-width: 1.5; stroke-linecap: square"/>
   </g>
   <g id="line2d_32">
    <path d="M 57.681818 242.030129 
L 66.136364 207.094396 
L 74.590909 195.914961 
L 83.045455 177.74838 
L 91.5 169.363805 
L 99.954545 177.74838 
L 108.409091 158.18437 
L 116.863636 159.581799 
L 125.318182 174.953522 
L 133.772727 153.992082 
L 142.227273 162.376658 
L 150.681818 148.402365 
L 159.136364 148.402365 
L 167.590909 147.004936 
L 176.045455 144.210077 
L 184.5 138.62036 
L 192.954545 142.812648 
L 201.409091 141.415219 
L 209.863636 145.607506 
L 218.318182 138.62036 
L 226.772727 144.210077 
L 235.227273 140.017789 
" clip-path="url(#pec35b49e14)" style="fill: none; stroke: #d62728; stroke-width: 1.5; stroke-linecap: square"/>
   </g>
   <g id="line2d_33">
    <path d="M 57.681818 317.491311 
L 66.136364 243.427558 
L 74.590909 242.030129 
L 83.045455 233.645553 
L 91.5 218.27383 
L 99.954545 204.299537 
L 108.409091 180.543239 
L 116.863636 172.158663 
L 125.318182 176.350951 
L 133.772727 176.350951 
L 142.227273 162.376658 
L 150.681818 151.197224 
L 159.136364 152.594653 
L 167.590909 142.812648 
L 176.045455 148.402365 
L 184.5 140.017789 
L 192.954545 140.017789 
L 201.409091 140.017789 
L 209.863636 141.415219 
L 218.318182 141.415219 
L 226.772727 134.428072 
L 235.227273 135.825501 
L 243.681818 142.812648 
L 252.136364 140.017789 
L 260.590909 144.210077 
L 269.045455 140.017789 
L 277.5 135.825501 
L 285.954545 131.633213 
L 294.409091 134.428072 
L 302.863636 140.017789 
L 311.318182 142.812648 
" clip-path="url(#pec35b49e14)" style="fill: none; stroke-dasharray: 5.55,2.4; stroke-dashoffset: 0; stroke: #9467bd; stroke-width: 1.5"/>
   </g>
   <g id="line2d_34">
    <path d="M 57.681818 216.876401 
L 66.136364 180.543239 
L 74.590909 169.363805 
L 83.045455 167.966375 
L 91.5 162.376658 
L 99.954545 147.004936 
L 108.409091 147.004936 
L 116.863636 126.043496 
L 125.318182 138.62036 
L 133.772727 130.235784 
L 142.227273 131.633213 
L 150.681818 121.851208 
L 159.136364 119.05635 
L 167.590909 120.453779 
L 176.045455 110.671774 
L 184.5 117.65892 
L 192.954545 121.851208 
L 201.409091 119.05635 
L 209.863636 117.65892 
L 218.318182 116.261491 
L 226.772727 117.65892 
L 235.227273 116.261491 
L 243.681818 113.466632 
L 252.136364 113.466632 
L 260.590909 121.851208 
L 269.045455 114.864062 
L 277.5 116.261491 
L 285.954545 117.65892 
L 294.409091 119.05635 
L 302.863636 116.261491 
" clip-path="url(#pec35b49e14)" style="fill: none; stroke-dasharray: 5.55,2.4; stroke-dashoffset: 0; stroke: #8c564b; stroke-width: 1.5"/>
   </g>
   <g id="line2d_35">
    <path d="M 57.681818 260.19671 
L 66.136364 191.722674 
L 74.590909 160.979229 
L 83.045455 141.415219 
L 91.5 144.210077 
L 99.954545 127.440925 
L 108.409091 128.838355 
L 116.863636 138.62036 
L 125.318182 127.440925 
L 133.772727 135.825501 
L 142.227273 126.043496 
L 150.681818 131.633213 
L 159.136364 134.428072 
L 167.590909 131.633213 
L 176.045455 126.043496 
L 184.5 127.440925 
L 192.954545 119.05635 
L 201.409091 127.440925 
L 209.863636 123.248638 
L 218.318182 124.646067 
L 226.772727 126.043496 
L 235.227273 130.235784 
" clip-path="url(#pec35b49e14)" style="fill: none; stroke-dasharray: 5.55,2.4; stroke-dashoffset: 0; stroke: #e377c2; stroke-width: 1.5"/>
   </g>
   <g id="line2d_36">
    <path d="M 57.681818 205.696967 
L 66.136364 148.402365 
L 74.590909 138.62036 
L 83.045455 138.62036 
L 91.5 130.235784 
L 99.954545 127.440925 
L 108.409091 131.633213 
L 116.863636 130.235784 
L 125.318182 126.043496 
L 133.772727 117.65892 
L 142.227273 117.65892 
L 150.681818 117.65892 
L 159.136364 112.069203 
L 167.590909 119.05635 
" clip-path="url(#pec35b49e14)" style="fill: none; stroke-dasharray: 5.55,2.4; stroke-dashoffset: 0; stroke: #7f7f7f; stroke-width: 1.5"/>
   </g>
   <g id="patch_3">
    <path d="M 45 378 
L 45 51.84 
" style="fill: none; stroke: #000000; stroke-width: 0.8; stroke-linejoin: miter; stroke-linecap: square"/>
   </g>
   <g id="patch_4">
    <path d="M 324 378 
L 324 51.84 
" style="fill: none; stroke: #000000; stroke-width: 0.8; stroke-linejoin: miter; stroke-linecap: square"/>
   </g>
   <g id="patch_5">
    <path d="M 45 378 
L 324 378 
" style="fill: none; stroke: #000000; stroke-width: 0.8; stroke-linejoin: miter; stroke-linecap: square"/>
   </g>
   <g id="patch_6">
    <path d="M 45 51.84 
L 324 51.84 
" style="fill: none; stroke: #000000; stroke-width: 0.8; stroke-linejoin: miter; stroke-linecap: square"/>
   </g>
   <g id="legend_1">
    <g id="patch_7">
     <path d="M 206.728125 373 
L 317 373 
Q 319 373 319 371 
L 319 252.90625 
Q 319 250.90625 317 250.90625 
L 206.728125 250.90625 
Q 204.728125 250.90625 204.728125 252.90625 
L 204.728125 371 
Q 204.728125 373 206.728125 373 
z
" style="fill: #ffffff; opacity: 0.8; stroke: #cccccc; stroke-linejoin: miter"/>
    </g>
    <g id="line2d_37">
     <path d="M 208.728125 259.004687 
L 218.728125 259.004687 
L 228.728125 259.004687 
" style="fill: none; stroke: #1f77b4; stroke-width: 1.5; stroke-linecap: square"/>
    </g>
    <g id="text_17">
     <!-- vit_t_16 -->
     <g transform="translate(236.728125 262.504687)scale(0.1 -0.1)">
      <defs>
       <path id="DejaVuSans-76" d="M 191 3500 
L 800 3500 
L 1894 563 
L 2988 3500 
L 3597 3500 
L 2284 0 
L 1503 0 
L 191 3500 
z
" transform="scale(0.015625)"/>
       <path id="DejaVuSans-5f" d="M 3263 -1063 
L 3263 -1509 
L -63 -1509 
L -63 -1063 
L 3263 -1063 
z
" transform="scale(0.015625)"/>
      </defs>
      <use xlink:href="#DejaVuSans-76"/>
      <use xlink:href="#DejaVuSans-69" x="59.179688"/>
      <use xlink:href="#DejaVuSans-74" x="86.962891"/>
      <use xlink:href="#DejaVuSans-5f" x="126.171875"/>
      <use xlink:href="#DejaVuSans-74" x="176.171875"/>
      <use xlink:href="#DejaVuSans-5f" x="215.380859"/>
      <use xlink:href="#DejaVuSans-31" x="265.380859"/>
      <use xlink:href="#DejaVuSans-36" x="329.003906"/>
     </g>
    </g>
    <g id="line2d_38">
     <path d="M 208.728125 273.960938 
L 218.728125 273.960938 
L 228.728125 273.960938 
" style="fill: none; stroke: #ff7f0e; stroke-width: 1.5; stroke-linecap: square"/>
    </g>
    <g id="text_18">
     <!-- swin_t -->
     <g transform="translate(236.728125 277.460938)scale(0.1 -0.1)">
      <use xlink:href="#DejaVuSans-73"/>
      <use xlink:href="#DejaVuSans-77" x="52.099609"/>
      <use xlink:href="#DejaVuSans-69" x="133.886719"/>
      <use xlink:href="#DejaVuSans-6e" x="161.669922"/>
      <use xlink:href="#DejaVuSans-5f" x="225.048828"/>
      <use xlink:href="#DejaVuSans-74" x="275.048828"/>
     </g>
    </g>
    <g id="line2d_39">
     <path d="M 208.728125 288.917188 
L 218.728125 288.917188 
L 228.728125 288.917188 
" style="fill: none; stroke: #2ca02c; stroke-width: 1.5; stroke-linecap: square"/>
    </g>
    <g id="text_19">
     <!-- beit_b_16 -->
     <g transform="translate(236.728125 292.417188)scale(0.1 -0.1)">
      <defs>
       <path id="DejaVuSans-62" d="M 3116 1747 
Q 3116 2381 2855 2742 
Q 2594 3103 2138 3103 
Q 1681 3103 1420 2742 
Q 1159 2381 1159 1747 
Q 1159 1113 1420 752 
Q 1681 391 2138 391 
Q 2594 391 2855 752 
Q 3116 1113 3116 1747 
z
M 1159 2969 
Q 1341 3281 1617 3432 
Q 1894 3584 2278 3584 
Q 2916 3584 3314 3078 
Q 3713 2572 3713 1747 
Q 3713 922 3314 415 
Q 2916 -91 2278 -91 
Q 1894 -91 1617 61 
Q 1341 213 1159 525 
L 1159 0 
L 581 0 
L 581 4863 
L 1159 4863 
L 1159 2969 
z
" transform="scale(0.015625)"/>
      </defs>
      <use xlink:href="#DejaVuSans-62"/>
      <use xlink:href="#DejaVuSans-65" x="63.476562"/>
      <use xlink:href="#DejaVuSans-69" x="125"/>
      <use xlink:href="#DejaVuSans-74" x="152.783203"/>
      <use xlink:href="#DejaVuSans-5f" x="191.992188"/>
      <use xlink:href="#DejaVuSans-62" x="241.992188"/>
      <use xlink:href="#DejaVuSans-5f" x="305.46875"/>
      <use xlink:href="#DejaVuSans-31" x="355.46875"/>
      <use xlink:href="#DejaVuSans-36" x="419.091797"/>
     </g>
    </g>
    <g id="line2d_40">
     <path d="M 208.728125 303.873438 
L 218.728125 303.873438 
L 228.728125 303.873438 
" style="fill: none; stroke: #d62728; stroke-width: 1.5; stroke-linecap: square"/>
    </g>
    <g id="text_20">
     <!-- deit_t_16 -->
     <g transform="translate(236.728125 307.373438)scale(0.1 -0.1)">
      <defs>
       <path id="DejaVuSans-64" d="M 2906 2969 
L 2906 4863 
L 3481 4863 
L 3481 0 
L 2906 0 
L 2906 525 
Q 2725 213 2448 61 
Q 2172 -91 1784 -91 
Q 1150 -91 751 415 
Q 353 922 353 1747 
Q 353 2572 751 3078 
Q 1150 3584 1784 3584 
Q 2172 3584 2448 3432 
Q 2725 3281 2906 2969 
z
M 947 1747 
Q 947 1113 1208 752 
Q 1469 391 1925 391 
Q 2381 391 2643 752 
Q 2906 1113 2906 1747 
Q 2906 2381 2643 2742 
Q 2381 3103 1925 3103 
Q 1469 3103 1208 2742 
Q 947 2381 947 1747 
z
" transform="scale(0.015625)"/>
      </defs>
      <use xlink:href="#DejaVuSans-64"/>
      <use xlink:href="#DejaVuSans-65" x="63.476562"/>
      <use xlink:href="#DejaVuSans-69" x="125"/>
      <use xlink:href="#DejaVuSans-74" x="152.783203"/>
      <use xlink:href="#DejaVuSans-5f" x="191.992188"/>
      <use xlink:href="#DejaVuSans-74" x="241.992188"/>
      <use xlink:href="#DejaVuSans-5f" x="281.201172"/>
      <use xlink:href="#DejaVuSans-31" x="331.201172"/>
      <use xlink:href="#DejaVuSans-36" x="394.824219"/>
     </g>
    </g>
    <g id="line2d_41">
     <path d="M 208.728125 318.829687 
L 218.728125 318.829687 
L 228.728125 318.829687 
" style="fill: none; stroke-dasharray: 5.55,2.4; stroke-dashoffset: 0; stroke: #9467bd; stroke-width: 1.5"/>
    </g>
    <g id="text_21">
     <!-- vgg19 -->
     <g transform="translate(236.728125 322.329687)scale(0.1 -0.1)">
      <use xlink:href="#DejaVuSans-76"/>
      <use xlink:href="#DejaVuSans-67" x="59.179688"/>
      <use xlink:href="#DejaVuSans-67" x="122.65625"/>
      <use xlink:href="#DejaVuSans-31" x="186.132812"/>
      <use xlink:href="#DejaVuSans-39" x="249.755859"/>
     </g>
    </g>
    <g id="line2d_42">
     <path d="M 208.728125 333.507812 
L 218.728125 333.507812 
L 228.728125 333.507812 
" style="fill: none; stroke-dasharray: 5.55,2.4; stroke-dashoffset: 0; stroke: #8c564b; stroke-width: 1.5"/>
    </g>
    <g id="text_22">
     <!-- resnet50 -->
     <g transform="translate(236.728125 337.007812)scale(0.1 -0.1)">
      <use xlink:href="#DejaVuSans-72"/>
      <use xlink:href="#DejaVuSans-65" x="38.863281"/>
      <use xlink:href="#DejaVuSans-73" x="100.386719"/>
      <use xlink:href="#DejaVuSans-6e" x="152.486328"/>
      <use xlink:href="#DejaVuSans-65" x="215.865234"/>
      <use xlink:href="#DejaVuSans-74" x="277.388672"/>
      <use xlink:href="#DejaVuSans-35" x="316.597656"/>
      <use xlink:href="#DejaVuSans-30" x="380.220703"/>
     </g>
    </g>
    <g id="line2d_43">
     <path d="M 208.728125 348.185938 
L 218.728125 348.185938 
L 228.728125 348.185938 
" style="fill: none; stroke-dasharray: 5.55,2.4; stroke-dashoffset: 0; stroke: #e377c2; stroke-width: 1.5"/>
    </g>
    <g id="text_23">
     <!-- efficientnetv2_t -->
     <g transform="translate(236.728125 351.685938)scale(0.1 -0.1)">
      <defs>
       <path id="DejaVuSans-66" d="M 2375 4863 
L 2375 4384 
L 1825 4384 
Q 1516 4384 1395 4259 
Q 1275 4134 1275 3809 
L 1275 3500 
L 2222 3500 
L 2222 3053 
L 1275 3053 
L 1275 0 
L 697 0 
L 697 3053 
L 147 3053 
L 147 3500 
L 697 3500 
L 697 3744 
Q 697 4328 969 4595 
Q 1241 4863 1831 4863 
L 2375 4863 
z
" transform="scale(0.015625)"/>
      </defs>
      <use xlink:href="#DejaVuSans-65"/>
      <use xlink:href="#DejaVuSans-66" x="61.523438"/>
      <use xlink:href="#DejaVuSans-66" x="96.728516"/>
      <use xlink:href="#DejaVuSans-69" x="131.933594"/>
      <use xlink:href="#DejaVuSans-63" x="159.716797"/>
      <use xlink:href="#DejaVuSans-69" x="214.697266"/>
      <use xlink:href="#DejaVuSans-65" x="242.480469"/>
      <use xlink:href="#DejaVuSans-6e" x="304.003906"/>
      <use xlink:href="#DejaVuSans-74" x="367.382812"/>
      <use xlink:href="#DejaVuSans-6e" x="406.591797"/>
      <use xlink:href="#DejaVuSans-65" x="469.970703"/>
      <use xlink:href="#DejaVuSans-74" x="531.494141"/>
      <use xlink:href="#DejaVuSans-76" x="570.703125"/>
      <use xlink:href="#DejaVuSans-32" x="629.882812"/>
      <use xlink:href="#DejaVuSans-5f" x="693.505859"/>
      <use xlink:href="#DejaVuSans-74" x="743.505859"/>
     </g>
    </g>
    <g id="line2d_44">
     <path d="M 208.728125 363.142187 
L 218.728125 363.142187 
L 228.728125 363.142187 
" style="fill: none; stroke-dasharray: 5.55,2.4; stroke-dashoffset: 0; stroke: #7f7f7f; stroke-width: 1.5"/>
    </g>
    <g id="text_24">
     <!-- convnext_t -->
     <g transform="translate(236.728125 366.642187)scale(0.1 -0.1)">
      <defs>
       <path id="DejaVuSans-78" d="M 3513 3500 
L 2247 1797 
L 3578 0 
L 2900 0 
L 1881 1375 
L 863 0 
L 184 0 
L 1544 1831 
L 300 3500 
L 978 3500 
L 1906 2253 
L 2834 3500 
L 3513 3500 
z
" transform="scale(0.015625)"/>
      </defs>
      <use xlink:href="#DejaVuSans-63"/>
      <use xlink:href="#DejaVuSans-6f" x="54.980469"/>
      <use xlink:href="#DejaVuSans-6e" x="116.162109"/>
      <use xlink:href="#DejaVuSans-76" x="179.541016"/>
      <use xlink:href="#DejaVuSans-6e" x="238.720703"/>
      <use xlink:href="#DejaVuSans-65" x="302.099609"/>
      <use xlink:href="#DejaVuSans-78" x="361.873047"/>
      <use xlink:href="#DejaVuSans-74" x="421.052734"/>
      <use xlink:href="#DejaVuSans-5f" x="460.261719"/>
      <use xlink:href="#DejaVuSans-74" x="510.261719"/>
     </g>
    </g>
   </g>
  </g>
 </g>
 <defs>
  <clipPath id="pec35b49e14">
   <rect x="45" y="51.84" width="279" height="326.16"/>
  </clipPath>
 </defs>
</svg>
